<svg height="512pt" viewBox="-26 0 511 512" width="512pt" xmlns="http://www.w3.org/2000/svg"><path d="m105.929688 55.234375c2.71875 0 5.429687-1.105469 7.402343-3.273437l.003907-.007813c3.714843-4.085937 3.410156-10.40625-.675782-14.121094-4.085937-3.714843-10.410156-3.414062-14.128906.675781-3.714844 4.085938-3.414062 10.410157.675781 14.125 1.914063 1.742188 4.320313 2.601563 6.722657 2.601563zm0 0"/><path d="m170.5 160.5625c0-5.523438-4.476562-10-10-10h-.007812c-5.519532 0-9.996094 4.476562-9.996094 10s4.484375 10 10.003906 10c5.523438 0 10-4.476562 10-10zm0 0"/><path d="m220.503906 170.5625c5.519532 0 10-4.476562 10-10s-4.480468-10-10-10h-.007812c-5.523438 0-9.996094 4.476562-9.996094 10s4.480469 10 10.003906 10zm0 0"/><path d="m171.03125 212.738281c5.390625 4.714844 12.304688 7.3125 19.46875 7.3125 7.160156 0 14.074219-2.597656 19.464844-7.3125 4.160156-3.636719 4.582031-9.953125.949218-14.109375-3.640624-4.160156-9.957031-4.582031-14.113281-.945312-1.746093 1.523437-3.980469 2.367187-6.300781 2.367187s-4.558594-.839843-6.304688-2.367187c-4.15625-3.636719-10.476562-3.214844-14.109374.945312-3.636719 4.15625-3.210938 10.472656.945312 14.109375zm0 0"/><path d="m81.015625 412c-5.519531 0-10 4.476562-10 10v80c0 5.519531 4.480469 9.996094 10 9.996094 5.523437 0 10-4.476563 10-9.996094v-80c0-5.523438-4.476563-10-10-10zm0 0"/><path d="m440.566406 328.3125c-.140625-.203125-.292968-.390625-.445312-.578125-2.027344-2.511719-4.199219-4.941406-6.53125-7.269531-16.773438-16.777344-38.898438-26.234375-62.519532-26.847656 6.109376-10.546876 9.425782-22.625 9.425782-35.277344 0-35.34375-26.121094-64.679688-60-69.566406v-58.210938c0-71.992188-58.316406-130.5625-129.996094-130.5625-17.5 0-34.511719 3.476562-50.558594 10.332031-5.078125 2.167969-7.4375 8.046875-5.265625 13.125 2.167969 5.078125 8.042969 7.4375 13.125 5.265625 13.550781-5.789062 27.914063-8.722656 42.699219-8.722656 60.652344 0 109.996094 49.597656 109.996094 110.5625v67.496094c0 5.523437 4.480468 10 10 10 27.570312 0 50 22.554687 50 50.28125 0 15.371094-6.804688 29.570312-18.695313 39.179687-9.15625 2.78125-17.808593 7.015625-25.707031 12.546875l-48.167969-18.695312c-.023437-.007813-.046875-.015625-.070312-.023438l-22.234375-8.632812c-6.714844-2.605469-10.289063-9.273438-10.289063-13.082032v-25.582031c3.925781-2.710937 7.769531-5.683593 11.445313-8.890625 21.503906-18.773437 33.34375-41.511718 33.34375-64.035156v-39.148438c0-5.523437-4.476563-10-10-10-22.035156 0-42.011719-6.605468-56.261719-18.371093 1.945313-2.355469 3.695313-4.851563 5.214844-7.496094 2.753906-4.785156 1.101562-10.898437-3.6875-13.652344-4.789063-2.75-10.902344-1.101562-13.652344 3.6875-2.0625 3.589844-4.863281 6.851563-8.226563 9.800781-.191406.148438-.375.304688-.558593.46875-.058594.050782-.113281.105469-.171875.160157-19.988282 16.875-58.597656 23.425781-81.902344 23.425781-5.523438 0-10 4.476562-10 10v41.128906c0 22.519532 11.839844 45.257813 33.34375 64.03125 3.675781 3.207032 7.519531 6.183594 11.445312 8.890625v25.582031c0 3.8125-3.574218 10.480469-10.289062 13.082032l-22.253906 8.640625c-.011719.003906-.027344.007812-.039063.015625l-44.339843 17.207031c-26.757813-.9375-48.242188-23.105469-48.242188-50.238281 0-27.726563 22.429688-50.28125 50-50.28125 5.519531 0 10-4.476563 10-10v-67.496094c0-15.050781 3-29.671875 8.914062-43.457031 2.179688-5.074219-.167968-10.953125-5.242187-13.132813-5.078125-2.179687-10.957031.171875-13.136719 5.246094-6.992187 16.289062-10.535156 33.566406-10.535156 51.347656v58.210938c-33.878906 4.886718-60 34.21875-60 69.566406 0 27.496094 15.820312 51.34375 38.792969 62.882812-11.183594 7.867188-18.046875 21.492188-18.046875 36.90625v143.867188c0 5.523438 4.480468 10 10 10 5.523437 0 10-4.476562 10-10v-143.871094c0-8.425781 3.554687-18.804687 13.527344-22.675781l59.585937-23.125 50.5625 50.800781c6.8125 6.839844 15.894531 10.605469 25.578125 10.605469s18.765625-3.765625 25.570312-10.605469l50.566407-50.800781 32.78125 12.722656c-8.519531 9.738281-14.796875 20.984375-18.550781 33.117188-7.90625 3.996093-15.101563 9.179687-21.445313 15.464843-.035156.035157-.074219.070313-.109375.105469-.054688.054688-.113281.105469-.167969.160157l-58.777343 58.777343c-18.546876 18.546875-27.4375 44.234375-24.394532 70.472657.59375 5.097656 4.914063 8.851562 9.921875 8.851562.386719 0 .773438-.023438 1.164063-.066406 5.484375-.636719 9.417968-5.601563 8.78125-11.085938-2.335938-20.136718 4.46875-39.832031 18.667968-54.027344l33.050782-33.050781c-.421875 14.828125 1.828125 31.757813 6.832031 49.316407 1.253906 4.394531 5.257813 7.261718 9.609375 7.261718.910156 0 1.832031-.125 2.746094-.386718 5.3125-1.511719 8.390625-7.042969 6.878906-12.355469-9.582031-33.617188-6.792969-59.226563.300781-70.171875.925781-.90625 1.878907-1.777344 2.851563-2.617188 0 .203125-.011719.402344-.011719.609375 0 24.535157 9.554687 47.605469 26.90625 64.957031 17.90625 17.90625 41.433594 26.863282 64.957031 26.863282.214844 0 .429688-.015625.648438-.015625-1.046875 1.210937-2.128906 2.398437-3.265625 3.535156l-14.164063 14.164063c-3.902344 3.90625-3.902344 10.238281 0 14.140624 1.953125 1.953126 4.511719 2.929688 7.074219 2.929688 2.558594 0 5.117187-.976562 7.070313-2.929688l14.160156-14.160156c6.429687-6.429687 11.714844-13.753906 15.777344-21.808594 13.785156-4.265624 26.761718-11.824218 37.65625-22.71875 33.3125-33.3125 35.625-86.039062 6.980468-122.070312zm-319.691406-157.183594v-31.453125c22.5-1.382812 55.023438-7.421875 77.871094-22.691406 15.824218 14.042969 37.4375 22.710937 61.375 24.597656v29.546875c0 23.828125-19.738282 46.082032-39.734375 58.851563-.277344.15625-.542969.324219-.800781.507812-10.6875 6.6875-21.375 10.636719-29.085938 10.636719-7.714844 0-18.398438-3.949219-29.089844-10.636719-.257812-.183593-.523437-.351562-.800781-.507812-19.996094-12.769531-39.734375-35.023438-39.734375-58.851563zm81.023438 177.890625c-3.027344 3.039063-7.074219 4.714844-11.398438 4.714844s-8.371094-1.675781-11.398438-4.714844l-44.382812-44.59375 7.894531-3.0625c15.132813-5.875 23.050781-20.410156 23.050781-31.730469v-14.4375c8.886719 3.804688 17.484376 5.929688 24.835938 5.929688s15.949219-2.125 24.835938-5.929688v14.4375c0 11.320313 7.917968 25.855469 23.050781 31.730469l7.894531 3.0625zm115.917968 87.21875c-13.574218-13.574219-21.046875-31.621093-21.046875-50.816406 0-5.914063.714844-11.714844 2.089844-17.3125.0625-.207031.113281-.421875.164063-.632813 3.15625-12.328124 9.558593-23.636718 18.792968-32.871093 13.574219-13.574219 31.621094-21.046875 50.816406-21.046875 19.195313 0 37.242188 7.472656 50.8125 21.046875 1.632813 1.632812 3.160157 3.328125 4.601563 5.074219 2.558594 5.148437.289063 10.886718-3.226563 14.40625-2.386718 2.382812-5.558593 3.699218-8.933593 3.699218s-6.550781-1.3125-8.9375-3.699218c-3.90625-3.90625-10.234375-3.90625-14.140625 0-3.90625 3.902343-3.90625 10.234374 0 14.140624 6.164062 6.164063 14.359375 9.558594 23.078125 9.558594 8.714843 0 16.910156-3.394531 23.074219-9.558594.945312-.945312 1.808593-1.949218 2.625-2.972656 7.085937 24.378906 1.042968 51.800782-18.140626 70.984375-28.015624 28.019531-73.609374 28.019531-101.628906 0zm0 0"/><path d="m356.875 358.238281c-2.917969-2.914062-6.566406-5.019531-10.546875-6.085937-5.34375-1.429688-10.816406 1.738281-12.246094 7.074218-1.429687 5.332032 1.738281 10.816407 7.070313 12.246094.597656.160156 1.144531.472656 1.578125.910156.441406.4375.753906.980469.914062 1.578126 1.195313 4.46875 5.238281 7.417968 9.652344 7.417968.855469 0 1.726563-.113281 2.59375-.34375 5.335937-1.429687 8.5-6.910156 7.074219-12.246094-1.066406-3.984374-3.171875-7.628906-6.089844-10.550781zm0 0"/><path d="m395.8125 397.175781c-2.917969-2.914062-6.5625-5.019531-10.546875-6.085937-5.335937-1.429688-10.816406 1.738281-12.246094 7.070312-1.429687 5.335938 1.738281 10.820313 7.070313 12.25.597656.160156 1.144531.476563 1.582031.910156.4375.4375.75.984376.910156 1.578126 1.195313 4.46875 5.238281 7.417968 9.652344 7.417968.855469 0 1.730469-.113281 2.59375-.34375 5.335937-1.429687 8.5-6.910156 7.074219-12.246094-1.066406-3.984374-3.171875-7.628906-6.089844-10.550781zm0 0"/><path d="m351.996094 404.226562c-.5625-.039062-1.09375-.277343-1.488282-.675781-.402343-.398437-.640624-.929687-.679687-1.492187-.371094-5.511719-5.125-9.675782-10.648437-9.308594-5.507813.371094-9.675782 5.136719-9.304688 10.648438.359375 5.394531 2.664062 10.46875 6.488281 14.292968 3.824219 3.824219 8.902344 6.128906 14.296875 6.488282.226563.015624.449219.023437.675782.023437 5.21875 0 9.613281-4.046875 9.96875-9.332031.367187-5.511719-3.800782-10.277344-9.308594-10.644532zm0 0"/><path d="m290.304688 498.050781c-2.175782-5.074219-8.054688-7.421875-13.128907-5.246093-5.078125 2.175781-7.429687 8.054687-5.25 13.132812 1.625 3.792969 5.3125 6.0625 9.195313 6.0625 1.3125 0 2.648437-.261719 3.933594-.8125 5.074218-2.175781 7.429687-8.050781 5.253906-13.128906zm0 0"/></svg>