<?xml version="1.0" encoding="utf-8"?>
<!-- Generator: Adobe Illustrator 22.0.0, SVG Export Plug-In . SVG Version: 6.00 Build 0)  -->
<svg version="1.1" id="Layer_1" xmlns="http://www.w3.org/2000/svg" xmlns:xlink="http://www.w3.org/1999/xlink" x="0px" y="0px"
	 viewBox="0 0 800 600" style="enable-background:new 0 0 800 600;" xml:space="preserve">
<style type="text/css">
	.st0{fill:#D2D6D6;}
	.st1{fill:#F4F4F4;}
</style>
<g>
	<path class="st0" d="M58.3,570.5c-13.1,0-23.8-10.7-23.8-23.8V55.3c0-13.1,10.7-23.8,23.8-23.8h685.4c13.1,0,23.8,10.7,23.8,23.8
		v491.4c0,13.1-10.7,23.8-23.8,23.8H58.3z"/>
	<path class="st1" d="M743.7,32c12.8,0,23.3,10.4,23.3,23.3v491.4c0,12.8-10.4,23.3-23.3,23.3H58.3C45.4,570,35,559.6,35,546.7V55.3
		C35,42.4,45.4,32,58.3,32H743.7 M743.7,31H58.3C44.9,31,34,41.9,34,55.3v491.4c0,13.4,10.9,24.3,24.3,24.3h685.4
		c13.4,0,24.3-10.9,24.3-24.3V55.3C768,41.9,757.1,31,743.7,31L743.7,31z"/>
</g>
</svg>
