<?xml version="1.0" encoding="utf-8"?>
<!-- Generator: Adobe Illustrator 22.0.0, SVG Export Plug-In . SVG Version: 6.00 Build 0)  -->
<svg version="1.1" id="Layer_1" xmlns="http://www.w3.org/2000/svg" xmlns:xlink="http://www.w3.org/1999/xlink" x="0px" y="0px"
	 viewBox="0 0 600 600" style="enable-background:new 0 0 600 600;" xml:space="preserve">
<style type="text/css">
	.st0{fill:#42E8E0;}
	.st1{enable-background:new    ;}
	.st2{fill:#1E647D;}
	.st3{fill:#2886A8;}
	.st4{fill:#216E89;}
	.st5{fill:url(#SVGID_1_);}
	.st6{fill:#1F6882;}
	.st7{fill:url(#SVGID_2_);}
	.st8{fill:#237491;}
	.st9{clip-path:url(#SVGID_4_);enable-background:new    ;}
	.st10{fill:url(#SVGID_5_);}
	.st11{fill:url(#SVGID_6_);}
	.st12{clip-path:url(#SVGID_8_);enable-background:new    ;}
	.st13{fill:url(#SVGID_9_);}
	.st14{clip-path:url(#SVGID_11_);enable-background:new    ;}
	.st15{fill:url(#SVGID_12_);}
	.st16{clip-path:url(#SVGID_14_);fill:url(#SVGID_15_);}
	.st17{fill:url(#SVGID_16_);}
	.st18{clip-path:url(#SVGID_18_);enable-background:new    ;}
	.st19{fill:url(#SVGID_19_);}
	.st20{clip-path:url(#SVGID_21_);fill:url(#SVGID_22_);}
	.st21{clip-path:url(#SVGID_24_);fill:url(#SVGID_25_);}
	.st22{fill:url(#SVGID_26_);}
	.st23{clip-path:url(#SVGID_28_);enable-background:new    ;}
	.st24{fill:#2B90B4;}
	.st25{fill:url(#SVGID_29_);}
	.st26{fill:url(#SVGID_30_);}
	.st27{clip-path:url(#SVGID_32_);enable-background:new    ;}
	.st28{fill:#2884A5;}
	.st29{fill:url(#SVGID_33_);}
	.st30{fill:url(#SVGID_34_);}
	.st31{opacity:0.4;fill:#42E8E0;}
	.st32{opacity:0.8;fill:#42E8E0;}
</style>
<g>
	<g>
		<path class="st0" d="M304.5,575c-31.3,0-62.6-6.9-86.4-20.6C194.8,540.9,182,523,182,503.9c0-19.1,12.8-37,36.1-50.5
			c47.6-27.5,125.1-27.5,172.8,0c23.3,13.4,36.1,31.4,36.1,50.5c0,19.1-12.8,37-36.1,50.5l-0.5-0.9l0.5,0.9
			C367,568.1,335.8,575,304.5,575z M304.5,434.8c-30.9,0-61.8,6.8-85.4,20.4c-22.6,13.1-35.1,30.3-35.1,48.7
			c0,18.3,12.5,35.6,35.1,48.7c47.1,27.2,123.7,27.2,170.7,0l0,0c22.6-13.1,35.1-30.3,35.1-48.7c0-18.3-12.5-35.6-35.1-48.7
			C366.3,441.6,335.4,434.8,304.5,434.8z"/>
		<g>
			<g class="st1">
				<g>
					<polygon class="st2" points="292.3,393.2 292.2,429.4 291.1,418.9 291.2,382.7 					"/>
				</g>
				<g>
					<polygon class="st3" points="339.8,385.8 339.7,422 334.8,432.2 334.9,396 					"/>
				</g>
				<g>
					<polygon class="st4" points="204.3,417.9 204.2,454.1 190.6,447.2 190.7,411 					"/>
				</g>
				<g>
					<linearGradient id="SVGID_1_" gradientUnits="userSpaceOnUse" x1="419.626" y1="425.9162" x2="419.626" y2="467.3658">
						<stop  offset="0" style="stop-color:#0084A7"/>
						<stop  offset="1" style="stop-color:#00729A"/>
					</linearGradient>
					<polygon class="st5" points="427.5,425.9 427.4,462.1 411.8,467.4 411.9,431.2 					"/>
				</g>
				<g class="st1">
					<path class="st6" d="M377.6,467.4l-0.1,36.2c0-7.5-3.2-15.1-10-22.1c-3.6-3.7-8-7-12.9-9.8c-3.4-2-7.2-3.8-11.1-5.3l0.1-36.2
						c3.9,1.6,7.7,3.3,11.1,5.3c4.9,2.9,9.3,6.1,12.9,9.8C374.5,452.3,377.7,459.9,377.6,467.4"/>
					<linearGradient id="SVGID_2_" gradientUnits="userSpaceOnUse" x1="300.1577" y1="422.404" x2="300.1577" y2="503.5944">
						<stop  offset="0" style="stop-color:#0084A7"/>
						<stop  offset="1" style="stop-color:#00729A"/>
					</linearGradient>
					<path class="st7" d="M367.7,445.3c-3.6-3.7-8-7-12.9-9.8c-3.4-2-7.2-3.7-11.1-5.2l0-0.1c-2.5-1-5.2-1.8-7.9-2.6
						c-0.5-0.1-0.9-0.3-1.4-0.5c0,0-0.1,0-0.1,0c-2.7-0.8-5.4-1.4-8.2-2c-0.6-0.1-1.3-0.2-2-0.3c-0.8-0.2-1.6-0.3-2.4-0.4
						c-1.1-0.2-2.2-0.4-3.3-0.6c-2.3-0.3-4.6-0.6-6.9-0.8c-0.2,0-0.3,0-0.5-0.1c-0.1,0-0.1,0-0.2,0c-2.5-0.2-5-0.3-7.6-0.4
						c-1,0-2.1,0-3.1,0c-0.8,0-1.6,0-2.4,0c-0.8,0-1.5,0-2.3,0c-2.8,0.1-5.6,0.3-8.5,0.6c-0.1,0-0.2,0-0.3,0
						c-0.6,0.1-1.1,0.2-1.7,0.2c-2.6,0.3-5.2,0.6-7.8,1.1c-0.7,0.1-1.3,0.3-2,0.4c-0.7,0.1-1.4,0.3-2.2,0.5c-3.5,0.8-7,1.6-10.3,2.7
						c-0.1,0-0.3,0.1-0.4,0.1c-6.4,2.1-12.1,4.6-17,7.4c-0.3,0.2-0.6,0.4-1,0.6c-3.7,2.2-6.9,4.6-9.7,7.2c-0.5,0.4-0.8,0.9-1.3,1.3
						c-0.9,0.9-1.7,1.8-2.5,2.7c-0.3,0.4-0.8,0.8-1.1,1.2v0.1l0,0v-0.1c-1.2,1.5-2.2,3.1-3.1,4.7c-0.8,1.5-1.5,2.9-2.1,4.4
						c-0.5,1.4-1,2.9-1.3,4.4c0,0.1,0,0.2,0,0.2c-0.1,0.4-0.1,0.7-0.1,1.1c-0.2,1-0.3,2.1-0.4,3.1l0,0.6c0,0,0,0.1,0,0.1l-0.1,36.2
						c0-1.6,0.2-3.2,0.5-4.7c0-0.1,0-0.2,0-0.2c0.3-1.6,0.8-3.3,1.4-4.8c0,0,0,0,0-0.1c0.6-1.6,1.4-3.1,2.3-4.6
						c0.1-0.1,0.2-0.2,0.2-0.3c0.9-1.5,1.9-2.9,3-4.3c1.1-1.3,2.3-2.6,3.6-3.8c0.4-0.4,0.8-0.8,1.3-1.2c0.7-0.7,1.6-1.3,2.4-2
						c0.7-0.6,1.4-1.1,2.1-1.7c0.9-0.6,1.8-1.2,2.8-1.8c0.9-0.6,1.8-1.2,2.9-1.8c4.9-2.9,10.6-5.4,17-7.4c3.5-1.1,7.1-2,10.7-2.8
						c0.7-0.2,1.5-0.3,2.2-0.5c3.2-0.6,6.5-1.1,9.8-1.5c0.6-0.1,1.1-0.2,1.7-0.2c3.7-0.4,7.4-0.6,11-0.6c0.8,0,1.6,0,2.4,0
						c3.7,0,7.3,0.1,10.9,0.4c0.2,0,0.3,0,0.5,0.1c3.5,0.3,6.9,0.8,10.2,1.3c0.8,0.1,1.6,0.3,2.4,0.4c3.5,0.7,7,1.4,10.3,2.4
						c0.5,0.1,0.9,0.3,1.4,0.5c6.9,2.1,13.3,4.7,18.9,8c4.9,2.9,9.3,6.1,12.9,9.8c6.8,7,10,14.6,10,22.1l0.1-36.2
						C377.7,459.9,374.5,452.3,367.7,445.3z"/>
					<path class="st8" d="M222.8,466.4l-0.1,36.2c0,0.2,0,0.5,0,0.7l0.1-36.2C222.8,466.8,222.8,466.6,222.8,466.4"/>
				</g>
				<g class="st1">
					<defs>
						<path id="SVGID_3_" class="st1" d="M154,503.1l0.1-36.2c0,1.7,0.1,3.5,0.3,5.2l-0.1,36.2C154.1,506.6,154,504.8,154,503.1z"/>
					</defs>
					<clipPath id="SVGID_4_">
						<use xlink:href="#SVGID_3_"  style="overflow:visible;"/>
					</clipPath>
					<g class="st9">
						<path class="st6" d="M154.4,472.1l-0.1,36.2c-0.2-1.7-0.3-3.5-0.3-5.2l0.1-36.2C154.1,468.6,154.2,470.4,154.4,472.1"/>
					</g>
				</g>
				<g>
					<linearGradient id="SVGID_5_" gradientUnits="userSpaceOnUse" x1="163.3759" y1="471.5075" x2="163.3759" y2="508.3014">
						<stop  offset="0" style="stop-color:#0084A7"/>
						<stop  offset="1" style="stop-color:#00729A"/>
					</linearGradient>
					<polygon class="st10" points="172.5,471.5 172.4,507.7 154.3,508.3 154.4,472.1 					"/>
				</g>
				<g>
					<linearGradient id="SVGID_6_" gradientUnits="userSpaceOnUse" x1="432.0807" y1="487.4825" x2="432.0807" y2="526.5455">
						<stop  offset="0" style="stop-color:#0084A7"/>
						<stop  offset="1" style="stop-color:#00729A"/>
					</linearGradient>
					<polygon class="st11" points="440.9,490.3 440.8,526.5 423.3,523.7 423.4,487.5 					"/>
				</g>
				<g class="st1">
					<defs>
						<path id="SVGID_7_" class="st1" d="M446.3,467.6l-0.1,36.2c0,7.7-1.9,15.4-5.5,22.7l0.1-36.2
							C444.4,483,446.3,475.3,446.3,467.6z"/>
					</defs>
					<clipPath id="SVGID_8_">
						<use xlink:href="#SVGID_7_"  style="overflow:visible;"/>
					</clipPath>
					<g class="st12">
						<path class="st8" d="M446.3,467.6l-0.1,36.2c0,0.4,0,0.8,0,1.3l0.1-36.2C446.3,468.5,446.3,468,446.3,467.6"/>
						<linearGradient id="SVGID_9_" gradientUnits="userSpaceOnUse" x1="443.5343" y1="468.8807" x2="443.5343" y2="526.5455">
							<stop  offset="0" style="stop-color:#40CADB"/>
							<stop  offset="1" style="stop-color:#37B7CC"/>
						</linearGradient>
						<path class="st13" d="M445.4,477.1c-0.6,2.8-1.3,5.5-2.4,8.3c-0.6,1.7-1.3,3.3-2.1,5l-0.1,36.2c0.8-1.6,1.5-3.3,2.1-5
							c1-2.7,1.8-5.5,2.4-8.3c0.5-2.7,0.9-5.5,0.9-8.2l0.1-36.2C446.2,471.6,445.9,474.4,445.4,477.1z"/>
					</g>
				</g>
				<g class="st1">
					<defs>
						<path id="SVGID_10_" class="st1" d="M188.5,503.2l-0.1,36.2c-9.7-10.1-14.8-20.9-16-31.7l0.1-36.2
							C173.6,482.3,178.8,493.1,188.5,503.2z"/>
					</defs>
					<clipPath id="SVGID_11_">
						<use xlink:href="#SVGID_10_"  style="overflow:visible;"/>
					</clipPath>
					<g class="st14">
						<linearGradient id="SVGID_12_" gradientUnits="userSpaceOnUse" x1="180.4241" y1="471.5075" x2="180.4241" y2="539.4118">
							<stop  offset="0" style="stop-color:#249AB5"/>
							<stop  offset="0.9709" style="stop-color:#018CAD"/>
							<stop  offset="1" style="stop-color:#008CAD"/>
						</linearGradient>
						<path class="st15" d="M188.5,503.2l-0.1,36.2c-9.7-10.1-14.8-20.9-16-31.7l0.1-36.2C173.6,482.3,178.8,493.1,188.5,503.2"/>
					</g>
				</g>
				<g class="st1">
					<defs>
						<path id="SVGID_13_" class="st1" d="M423.4,487.5l-0.1,36.2c-5.1,10.6-14.3,20.5-27.1,28.9l0.1-36.2
							C409.1,508,418.3,498.1,423.4,487.5z"/>
					</defs>
					<clipPath id="SVGID_14_">
						<use xlink:href="#SVGID_13_"  style="overflow:visible;"/>
					</clipPath>
					<linearGradient id="SVGID_15_" gradientUnits="userSpaceOnUse" x1="409.7819" y1="487.4825" x2="409.7819" y2="552.6038">
						<stop  offset="0" style="stop-color:#249AB5"/>
						<stop  offset="0.9709" style="stop-color:#018CAD"/>
						<stop  offset="1" style="stop-color:#008CAD"/>
					</linearGradient>
					<path class="st16" d="M421.8,490.5c-1.5,2.6-3.2,5.2-5.2,7.7c-2.3,2.9-5,5.8-7.9,8.6c-3.7,3.4-7.8,6.6-12.4,9.6l-0.1,36.2
						c4.6-3,8.8-6.3,12.4-9.6c3-2.8,5.6-5.6,7.9-8.6c2-2.5,3.7-5.1,5.2-7.7c0.6-1,1.1-2,1.6-3l0.1-36.2
						C422.9,488.5,422.4,489.5,421.8,490.5z"/>
				</g>
				<g>
					<linearGradient id="SVGID_16_" gradientUnits="userSpaceOnUse" x1="209.6205" y1="522.7347" x2="209.6205" y2="566.8029">
						<stop  offset="0" style="stop-color:#0084A7"/>
						<stop  offset="1" style="stop-color:#00729A"/>
					</linearGradient>
					<polygon class="st17" points="215.7,522.7 215.6,558.9 203.6,566.8 203.7,530.6 					"/>
				</g>
				<g class="st1">
					<defs>
						<path id="SVGID_17_" class="st1" d="M203.7,530.6l-0.1,36.2c-2.2-1.1-4.3-2.3-6.4-3.5c-9.4-5.4-17.6-11.6-24.4-18.6l0.1-36.2
							c6.8,7,15,13.2,24.4,18.6C199.4,528.3,201.5,529.5,203.7,530.6z"/>
					</defs>
					<clipPath id="SVGID_18_">
						<use xlink:href="#SVGID_17_"  style="overflow:visible;"/>
					</clipPath>
					<g class="st18">
						<linearGradient id="SVGID_19_" gradientUnits="userSpaceOnUse" x1="188.238" y1="508.4896" x2="188.238" y2="566.8029">
							<stop  offset="0" style="stop-color:#40CADB"/>
							<stop  offset="1" style="stop-color:#37B7CC"/>
						</linearGradient>
						<path class="st19" d="M203.7,530.6l-0.1,36.2c-2.2-1.1-4.3-2.3-6.4-3.5c-9.4-5.4-17.6-11.6-24.4-18.6l0.1-36.2
							c6.8,7,15,13.2,24.4,18.6C199.4,528.3,201.5,529.5,203.7,530.6"/>
					</g>
				</g>
				<g class="st1">
					<defs>
						<path id="SVGID_20_" class="st1" d="M265.7,538.5l-0.1,36.2c-18.3-3-35.4-8.3-50-15.8l0.1-36.2
							C230.3,530.2,247.4,535.5,265.7,538.5z"/>
					</defs>
					<clipPath id="SVGID_21_">
						<use xlink:href="#SVGID_20_"  style="overflow:visible;"/>
					</clipPath>
					<linearGradient id="SVGID_22_" gradientUnits="userSpaceOnUse" x1="240.6373" y1="522.7347" x2="240.6373" y2="574.7324">
						<stop  offset="0" style="stop-color:#249AB5"/>
						<stop  offset="0.9709" style="stop-color:#018CAD"/>
						<stop  offset="1" style="stop-color:#008CAD"/>
					</linearGradient>
					<path class="st20" d="M257.5,537c-4.6-1-9.1-2.1-13.5-3.3c-5.4-1.5-10.5-3.3-15.5-5.2c-4.4-1.7-8.7-3.6-12.7-5.7l-0.1,36.2
						c4.1,2.1,8.3,4,12.7,5.7c5,2,10.2,3.7,15.5,5.2c4.4,1.3,8.9,2.4,13.5,3.3c2.7,0.6,5.5,1.1,8.3,1.5l0.1-36.2
						C262.9,538.1,260.2,537.6,257.5,537z"/>
				</g>
				<g class="st1">
					<defs>
						<path id="SVGID_23_" class="st1" d="M409.9,523.4l-0.1,36.2c-1.9,1.3-3.9,2.5-6,3.7c-9.2,5.4-20,10.2-32,14l0.1-36.2
							c12-3.9,22.8-8.6,32-14C405.9,525.8,407.9,524.6,409.9,523.4z"/>
					</defs>
					<clipPath id="SVGID_24_">
						<use xlink:href="#SVGID_23_"  style="overflow:visible;"/>
					</clipPath>
					<linearGradient id="SVGID_25_" gradientUnits="userSpaceOnUse" x1="390.8304" y1="523.3646" x2="390.8304" y2="577.2819">
						<stop  offset="0" style="stop-color:#40CADB"/>
						<stop  offset="1" style="stop-color:#37B7CC"/>
					</linearGradient>
					<path class="st21" d="M406.5,525.5c-0.9,0.5-1.8,1-2.6,1.6c-9.2,5.4-20,10.2-32,14l-0.1,36.2c12-3.9,22.8-8.6,32-14
						c0.9-0.5,1.8-1,2.6-1.6c1.1-0.7,2.3-1.4,3.4-2.1l0.1-36.2C408.8,524.1,407.7,524.8,406.5,525.5z"/>
				</g>
				<g>
					<linearGradient id="SVGID_26_" gradientUnits="userSpaceOnUse" x1="367.3721" y1="531.9969" x2="367.3721" y2="577.2819">
						<stop  offset="0" style="stop-color:#0084A7"/>
						<stop  offset="1" style="stop-color:#00729A"/>
					</linearGradient>
					<polygon class="st22" points="371.9,541.1 371.8,577.3 362.9,568.2 363,532 					"/>
				</g>
				<g class="st1">
					<defs>
						<path id="SVGID_27_" class="st1" d="M363,532l-0.1,36.2c-17.4,5.6-36,8.6-54.6,9.2l0.1-36.2C327,540.6,345.6,537.6,363,532z"
							/>
					</defs>
					<clipPath id="SVGID_28_">
						<use xlink:href="#SVGID_27_"  style="overflow:visible;"/>
					</clipPath>
					<g class="st23">
						<path class="st24" d="M363,532l-0.1,36.2c-0.1,0-0.1,0-0.2,0.1l0.1-36.2C362.8,532,362.9,532,363,532"/>
						<linearGradient id="SVGID_29_" gradientUnits="userSpaceOnUse" x1="335.4957" y1="532.0579" x2="335.4957" y2="577.4224">
							<stop  offset="0" style="stop-color:#249AB5"/>
							<stop  offset="0.9709" style="stop-color:#018CAD"/>
							<stop  offset="1" style="stop-color:#008CAD"/>
						</linearGradient>
						<path class="st25" d="M338.8,538c-5.4,1-10.9,1.7-16.4,2.3c-4.7,0.5-9.4,0.8-14.1,0.9l-0.1,36.2c4.7-0.2,9.4-0.5,14.1-0.9
							c5.5-0.5,11-1.3,16.4-2.3c8.2-1.5,16.2-3.4,24-5.9l0.1-36.2C355,534.6,346.9,536.5,338.8,538z"/>
					</g>
				</g>
				<g>
					<linearGradient id="SVGID_30_" gradientUnits="userSpaceOnUse" x1="300.2154" y1="382.5916" x2="300.2154" y2="551.8627">
						<stop  offset="0" style="stop-color:#9BD9E2"/>
						<stop  offset="0.4818" style="stop-color:#45D6E5"/>
						<stop  offset="1" style="stop-color:#28ACC6"/>
					</linearGradient>
					<path class="st26" d="M409.9,523.4c-1.9,1.3-3.9,2.5-6,3.7c-9.2,5.4-20,10.2-32,14L363,532c-17.4,5.6-36,8.6-54.6,9.2l1.1,10.5
						c-16.5,0.6-32.9-0.5-48.6-3.1l4.9-10.1c-18.3-3-35.4-8.3-50-15.8l-12,7.9c-2.2-1.1-4.3-2.3-6.4-3.5
						c-9.4-5.4-17.6-11.6-24.4-18.6l15.6-5.3c-9.7-10.1-14.8-20.9-16-31.7l-18.1,0.6c-1-9.5,0.8-19.1,5.3-28.1l17.5,2.9
						c5.2-10.6,14.4-20.5,27.3-28.9l-13.6-7c1.9-1.2,3.8-2.4,5.8-3.6c9.3-5.4,20-10.1,32.1-14l9.1,9c17.4-5.6,36-8.5,54.6-9.2
						l-1.1-10.5c16.5-0.6,33,0.5,48.6,3.1l-4.9,10.1c18.3,3,35.4,8.4,50,15.8l12-7.8c2.1,1.1,4.3,2.2,6.3,3.4
						c9.3,5.4,17.6,11.6,24.3,18.6l-15.6,5.2c9.7,10.1,14.9,20.9,16,31.6l18.1-0.6c1.1,9.6-0.8,19.1-5.2,28.2l-17.5-2.9
						c-5.1,10.6-14.3,20.5-27.1,28.9L409.9,523.4z M338.2,506.4c6.4-2.1,12.1-4.6,17-7.4c23.8-13.8,29.9-35.7,12.5-53.6
						c-3.6-3.7-8-7-12.9-9.8c-23.9-13.8-61.7-17.4-92.5-7.4c-6.4,2.1-12.1,4.6-17,7.4c-23.7,13.8-29.9,35.7-12.5,53.6
						c3.6,3.7,8,7,12.9,9.9C269.6,512.8,307.3,516.4,338.2,506.4"/>
				</g>
				<g class="st1">
					<defs>
						<path id="SVGID_31_" class="st1" d="M309.5,551.7l-0.1,36.2c-16.5,0.6-32.9-0.5-48.6-3.1l0.1-36.2
							C276.6,551.2,293,552.3,309.5,551.7z"/>
					</defs>
					<clipPath id="SVGID_32_">
						<use xlink:href="#SVGID_31_"  style="overflow:visible;"/>
					</clipPath>
					<g class="st27">
						<path class="st28" d="M309.5,551.7l-0.1,36.2c0,0,0,0,0,0L309.5,551.7C309.5,551.7,309.5,551.7,309.5,551.7"/>
						<linearGradient id="SVGID_33_" gradientUnits="userSpaceOnUse" x1="285.0933" y1="548.6287" x2="285.0933" y2="588.0717">
							<stop  offset="0" style="stop-color:#40CADB"/>
							<stop  offset="1" style="stop-color:#37B7CC"/>
						</linearGradient>
						<path class="st29" d="M294.5,551.8c-4.8-0.1-9.6-0.4-14.3-0.8c-4.7-0.4-9.4-0.9-14.1-1.6c-1.8-0.3-3.6-0.5-5.3-0.8l-0.1,36.2
							c1.8,0.3,3.5,0.6,5.3,0.8c4.6,0.7,9.4,1.2,14.1,1.6c4.7,0.4,9.5,0.6,14.3,0.8c5,0.1,9.9,0.1,14.9-0.1l0.1-36.2
							C304.5,551.9,299.5,551.9,294.5,551.8z"/>
					</g>
				</g>
			</g>
		</g>
		<radialGradient id="SVGID_34_" cx="299.7557" cy="455.5639" r="459.9956" gradientUnits="userSpaceOnUse">
			<stop  offset="2.707080e-02" style="stop-color:#4CFFD5;stop-opacity:0.6"/>
			<stop  offset="0.575" style="stop-color:#B3FFED;stop-opacity:0.2621"/>
			<stop  offset="1" style="stop-color:#FFFFFF;stop-opacity:0"/>
		</radialGradient>
		<path class="st30" d="M303,512c58,0,77-34,74-45L570,17c0.7-1.3,12.1-15.8,10-17L196.9-24.6c-3-1.6-7.5-1.8-10-0.4h0.1
			c-1.6,0.9,72.2,37-164,36l200,455C223,500,275,514,303,512"/>
	</g>
	<g>
		<rect x="318.4" y="371.5" class="st31" width="10.6" height="10.6"/>
		<rect x="284.4" y="393.7" class="st31" width="7.4" height="7.4"/>
		<rect x="261.2" y="473" class="st31" width="7" height="7"/>
		<rect x="268.2" y="411" class="st31" width="3.5" height="3.5"/>
		<rect x="294" y="429.8" class="st32" width="7" height="7"/>
		<rect x="240.8" y="422.5" class="st32" width="10.6" height="10.6"/>
		<rect x="286.3" y="447.9" class="st32" width="4.9" height="4.9"/>
	</g>
	<rect x="377.1" y="309.7" class="st32" width="11.5" height="11.5"/>
	<rect x="375.5" y="402.9" class="st32" width="7.6" height="7.6"/>
	<rect x="381.5" y="389.2" class="st32" width="6.1" height="6.1"/>
	<rect x="389.8" y="379.4" class="st32" width="4.5" height="4.5"/>
	<rect x="399.7" y="376.4" class="st32" width="3.8" height="3.8"/>
	<rect x="407.2" y="367.3" class="st32" width="2.3" height="2.3"/>
	<rect x="403.4" y="360.5" class="st32" width="1.5" height="1.5"/>
	<rect x="402.5" y="278.5" class="st32" width="7.5" height="7.5"/>
	<rect x="397.9" y="294.7" class="st32" width="4.6" height="4.6"/>
	<rect x="415.2" y="294.7" class="st32" width="4.6" height="4.6"/>
	<rect x="426.7" y="272.8" class="st32" width="3.5" height="3.5"/>
	<rect x="247.3" y="358.5" class="st32" width="7.6" height="7.6"/>
	<rect x="265.4" y="343.7" class="st32" width="6.1" height="6.1"/>
	<rect x="248.4" y="334.3" class="st32" width="4.5" height="4.5"/>
	<rect x="266" y="331.8" class="st32" width="3.8" height="3.8"/>
	<rect x="277" y="256.6" class="st32" width="2.3" height="2.3"/>
	<rect x="227.6" y="277.8" class="st32" width="1.5" height="1.5"/>
	<rect x="173" y="370.5" class="st32" width="18.7" height="18.7"/>
	<rect x="188" y="336.9" class="st32" width="15" height="15"/>
	<rect x="208.6" y="312.6" class="st32" width="11.2" height="11.2"/>
	<rect x="232.9" y="305.1" class="st32" width="9.4" height="9.4"/>
	<rect x="251.6" y="282.6" class="st32" width="5.6" height="5.6"/>
	<rect x="242.2" y="265.8" class="st32" width="3.7" height="3.7"/>
	
		<rect x="360.6" y="402.7" transform="matrix(-1 -1.224647e-16 1.224647e-16 -1 743.5081 827.7128)" class="st32" width="22.3" height="22.3"/>
	
		<rect x="347.2" y="362.6" transform="matrix(-1 -1.224647e-16 1.224647e-16 -1 712.2944 742.9899)" class="st32" width="17.8" height="17.8"/>
	
		<rect x="327.2" y="333.6" transform="matrix(-1 -1.224647e-16 1.224647e-16 -1 667.7034 680.5626)" class="st32" width="13.4" height="13.4"/>
	
		<rect x="300.4" y="324.7" transform="matrix(-1 -1.224647e-16 1.224647e-16 -1 611.9647 660.4966)" class="st32" width="11.1" height="11.1"/>
	
		<rect x="282.6" y="297.9" transform="matrix(-1 -1.224647e-16 1.224647e-16 -1 571.8328 602.5284)" class="st32" width="6.7" height="6.7"/>
	
		<rect x="295.9" y="277.9" transform="matrix(-1 -1.224647e-16 1.224647e-16 -1 596.3578 560.1669)" class="st32" width="4.5" height="4.5"/>
	<g>
		<rect x="290.4" y="352.5" class="st31" width="10.6" height="10.6"/>
		<rect x="256.4" y="374.7" class="st31" width="7.4" height="7.4"/>
		<rect x="233.2" y="454" class="st31" width="7" height="7"/>
		<rect x="240.2" y="392" class="st31" width="3.5" height="3.5"/>
		<rect x="266" y="410.8" class="st32" width="7" height="7"/>
		<rect x="212.8" y="403.5" class="st32" width="10.6" height="10.6"/>
		<rect x="258.3" y="428.9" class="st32" width="4.9" height="4.9"/>
	</g>
	<g>
		<rect x="369.4" y="430.5" class="st31" width="10.6" height="10.6"/>
		<rect x="335.4" y="452.7" class="st31" width="7.4" height="7.4"/>
		<rect x="323.2" y="433" class="st31" width="7" height="7"/>
		<rect x="319.2" y="470" class="st31" width="3.5" height="3.5"/>
		<rect x="345" y="488.8" class="st32" width="7" height="7"/>
		<rect x="291.8" y="481.5" class="st32" width="10.6" height="10.6"/>
		<rect x="331.3" y="485.9" class="st32" width="4.9" height="4.9"/>
	</g>
</g>
</svg>
