<?xml version="1.0" encoding="utf-8"?>
<!-- Generator: Adobe Illustrator 22.0.0, SVG Export Plug-In . SVG Version: 6.00 Build 0)  -->
<svg version="1.1" id="Layer_1" xmlns="http://www.w3.org/2000/svg" xmlns:xlink="http://www.w3.org/1999/xlink" x="0px" y="0px"
	 viewBox="0 0 600 600" style="enable-background:new 0 0 600 600;" xml:space="preserve">
<style type="text/css">
	.st0{fill:#FFFFFF;}
</style>
<g>
	<path class="st0" d="M108.8,352.3c-9.1-6.6-13.9-11.4-18.5-18.4c-6.6-10.2-10.2-22.5-10.2-34.7c0-35.3,28.4-63.8,63.7-63.8
		c35.1,0,63.7,28.6,63.7,63.7c0,14.5-5,29-13.7,39.7c-3.6,4.6-6.7,7.2-15,13.5v-37.2h6.3v25.5c4.7-5.5,7-8.8,9.2-12.9
		c4.7-8.3,7.2-18.6,7.2-28.6c0-32.2-25.9-58.3-57.8-58.3c-32,0-57.8,26.1-57.8,58.7c0,14.9,5.2,28,16.4,41v-25.5h6.4L108.8,352.3
		L108.8,352.3L108.8,352.3z M121.4,358.8c-1.2-0.3-4-1.6-6.3-2.8v-40.9h6.3V358.8z M134.1,362.1c-2.3-0.4-2.4-0.4-3.2-0.7
		c-0.7-0.1-0.9-0.1-3.1-0.7v-87.2h6.3V362.1L134.1,362.1z M146.9,362.7c-0.9,0.1-1.2,0.1-2.5,0.1c-2,0-2.7,0-3.8-0.1v-89h6.3V362.7
		L146.9,362.7z M159.6,360.7c-2,0.7-3.8,1.1-6.3,1.6v-88.6h6.3V360.7L159.6,360.7z M159.7,269l-16-12.3l-16,12.3l-3.5-4.6l19.4-15.2
		l19.4,15.2L159.7,269z M172.5,356c-2,0.9-3.2,1.5-6.4,2.9v-43.8h6.4V356z M242.7,262.2v-17c1.9-0.7,2.8-0.8,4.2-0.8
		c4.8,0,7.6,3.2,7.6,8.6c0,6.3-2.7,9.2-8.4,9.2H242.7L242.7,262.2z M239.7,241.9h-8.2v2.8l4.6,0.8v39l-4.6,0.8v2.7h7.8
		c1.3,0,3.1,0,5.4,0.1h4.2c4.4,0,6.8-0.3,8.8-1.1c4.4-1.7,7.2-6,7.2-11.1c0-6.6-3.8-11-10.7-12.5c5.5-2.7,8-6,8-10.7
		c0-6.8-5.1-11.3-12.7-11.3c-0.5,0-2.1,0.1-4.2,0.3L239.7,241.9z M242.7,265.5h2.9c7.8,0,11.4,3.1,11.4,9.6
		c0,6.3-3.9,10.2-10.2,10.2c-1.9,0-2.8-0.3-4.2-1.1L242.7,265.5L242.7,265.5z M283.5,254.5c-8,0-13.5,7.2-13.5,17.7
		c0,9.8,5.2,16.5,12.9,16.5c8,0,13.5-7.1,13.5-17.7C296.4,261,291.1,254.5,283.5,254.5z M283.2,257.7c3.8,0,5.9,4.4,5.9,12.5
		c0,10-2.1,15.2-6.2,15.2c-3.8,0-5.9-4.8-5.9-13.4C277,262.9,279.3,257.7,283.2,257.7z M325,271.1c-0.1-11.1-3.7-16.5-11.3-16.5
		c-7.8,0-12.5,6.7-12.5,17.8c0,10.5,4.6,16.2,12.6,16.2c5.2,0,7.6-1.7,11-7.8l-2.9-1.2c-2,3.1-3.7,4.3-6.2,4.3
		c-4.8,0-7.1-3.8-7.8-12.9H325z M308,267.9c0.8-7,2.4-10,5.5-10s4.4,2.8,4.7,10H308L308,267.9z M247,356.5v-2.8l-3.9-0.8v-39l4-0.8
		v-2.8h-15.4v2.9l4.3,0.7V353l-4.3,0.8v2.7L247,356.5L247,356.5z M281.9,356.5v-2.8l-3.5-0.8v-20.8c0-5.5-2.8-8.7-7.9-8.7
		c-2.9,0-4.8,0.8-8.8,3.9v-4h-1.9l-8.3,2.1v2.7l3.9,0.5V353l-3.9,0.8v2.7h13.8v-2.8l-3.5-0.8V331c2.5-2.1,4.3-2.9,6.3-2.9
		c2.5,0,3.7,1.7,3.7,5.5v19.6l-3.5,0.7v2.7L281.9,356.5L281.9,356.5L281.9,356.5z M313.3,327.8v-3.9l-5.5,0.1h-1.2
		c-0.5,0.1-1.1,0.1-1.2,0.1c-0.7,0-1.6-0.1-2.9-0.5c-2.4-0.5-2.9-0.7-4.3-0.7c-6.3,0-11.1,4.8-11.1,11.1c0,4.2,1.5,6.7,5.5,9.2
		c-4.3,2.7-6,4.8-6,7.2c0,1.9,1.1,3.1,3.8,4.2c-3.9,2.5-5.2,4.3-5.2,7c0,4.2,4.7,6.8,11.9,6.8c9.6,0,16-4.6,16-11.7
		c0-5-2.9-7.4-9.2-7.6l-8-0.4c-2-0.1-2.8-0.5-2.8-1.3s0.9-1.9,2.5-2.9c1.2,0.4,2.3,0.5,3.6,0.5c6.4,0,11.3-4.6,11.3-10.7
		c0-2.5-0.5-4.2-2.4-6.6L313.3,327.8L313.3,327.8z M298.4,325.8c3.2,0,4.8,2.8,4.8,8.7c0,5-1.5,7.5-4.6,7.5c-3.2,0-4.6-2.5-4.6-8.2
		C294.1,328.3,295.4,325.8,298.4,325.8L298.4,325.8z M296.4,355.4c10.3,0.7,11.8,1.2,11.8,4c0,3.2-4.2,5.5-9.7,5.5
		c-4.4,0-7.1-1.7-7.1-4.7c0-2,0.7-3.4,2.4-5L296.4,355.4L296.4,355.4z M323.6,336.4c0.8-7.1,2.5-10.1,5.6-10.1s4.4,3.1,4.6,10.1
		H323.6z M359.1,288v-2.8l-3.5-0.7v-20.2c0-6-2.7-9.1-7.9-9.1c-2.8,0-5,0.9-8.7,3.9v-20.2h-1.9l-8.3,1.7v2.3l3.7,0.8v40.9l-4,0.8
		v2.7h13.7v-2.8l-3.2-0.7v-21.6c2.7-2.3,4.2-2.9,6.2-2.9c2.8,0,3.9,1.7,3.9,6.6v18.1l-3.2,0.7v2.7H359.1L359.1,288z M373.7,254.9h-2
		l-8,2.1v2.1l3.9,0.7v24.7l-3.9,0.8v2.7h14.9v-2.8l-4.7-0.7v-17.6c0-1.9,1.9-4.4,4.2-5.6l3.5,1.9c1.7-1.3,2.5-2.5,2.5-4
		c0-2.4-1.5-3.9-3.9-3.9s-3.8,1.2-6.4,5.8V254.9L373.7,254.9z M393.7,238.8c-2.3,0-4.3,1.8-4.3,4.2c0,0,0,0.1,0,0.1
		c0,2.4,1.9,4.3,4.3,4.3c2.4,0,4.3-1.9,4.3-4.3c0-2.3-1.8-4.3-4.2-4.3C393.8,238.8,393.7,238.8,393.7,238.8z M401.2,288v-2.8
		l-3.8-0.7v-29.4h-1.6l-8.4,2.1v2.3l3.6,0.8v24.1l-3.6,0.8v2.7L401.2,288L401.2,288L401.2,288z M340.7,339.5
		c-0.3-4.4-0.4-6.6-0.9-8.3c-1.6-5.2-5.1-8-10.5-8c-7.8,0-12.5,6.6-12.5,17.7c0,10.3,4.6,16.4,12.6,16.4c5.2,0,8-2,11.1-7.8
		l-2.9-1.2c-2,3.1-3.8,4.3-6.3,4.3c-4.8,0-7.1-3.8-7.8-13H340.7L340.7,339.5L340.7,339.5z M358.6,356.5v-2.8l-3.6-0.8v-45.7h-1.7
		l-8.4,1.9v2.3l3.8,0.4V353l-3.9,0.8v2.7L358.6,356.5L358.6,356.5L358.6,356.5z M393.6,356.5v-2.8l-3.6-0.8v-20.6
		c0-5.5-2.8-8.6-7.8-8.6c-3.1,0-5.2,0.9-8.8,3.9v-20.4h-1.7l-8.4,1.9v2.3l3.8,0.7v41l-3.9,0.8v2.7h13.6v-2.8l-3.2-0.8v-21.5
		c2.7-2.3,4.3-3.1,6.2-3.1c2.8,0,3.9,1.7,3.9,6.6v18.2l-3.2,0.7v2.7L393.6,356.5L393.6,356.5L393.6,356.5z M421.7,339.5
		c-0.3-4.4-0.4-6.6-0.9-8.3c-1.6-5.2-5.1-8-10.4-8c-7.8,0-12.5,6.6-12.5,17.7c0,10.3,4.6,16.4,12.6,16.4c5.2,0,8-2,11.1-7.8
		l-2.9-1.2c-2,3.1-3.7,4.3-6.3,4.3c-4.8,0-7.1-3.8-7.8-13H421.7L421.7,339.5L421.7,339.5z M404.6,336.4c0.8-7.1,2.5-10.1,5.6-10.1
		c3.1,0,4.4,3.1,4.6,10.1H404.6L404.6,336.4z M452.7,257.3c3.2,0,4.8,2.8,4.8,8.7c0,5-1.5,7.5-4.6,7.5c-3.2,0-4.6-2.5-4.6-8.2
		C448.4,259.8,449.8,257.3,452.7,257.3L452.7,257.3z M436.3,288v-2.8l-3.5-0.8v-20.8c0-5.5-2.8-8.7-7.9-8.7c-2.9,0-4.8,0.8-8.8,3.9
		v-4h-1.9l-8.3,2.1v2.7l3.9,0.5v24.4l-3.9,0.8v2.7h13.8v-2.8l-3.5-0.8v-21.9c2.5-2.1,4.3-2.9,6.3-2.9c2.5,0,3.8,1.7,3.8,5.5v19.6
		l-3.5,0.7v2.7L436.3,288L436.3,288z M467.6,259.3v-3.9l-5.5,0.1h-1.2c-0.5,0.1-1.1,0.1-1.2,0.1c-0.7,0-1.6-0.1-2.9-0.5
		c-2.4-0.5-2.9-0.7-4.3-0.7c-6.3,0-11.1,4.8-11.1,11.1c0,4.2,1.5,6.7,5.5,9.2c-4.3,2.7-6,4.8-6,7.1c0,1.9,1.1,3.2,3.8,4.3
		c-3.8,2.4-5.2,4.3-5.2,7c0,4.2,4.7,6.8,11.9,6.8c9.6,0,16-4.6,16-11.7c0-5-2.9-7.4-9.2-7.6l-8-0.4c-2-0.1-2.8-0.5-2.8-1.5
		c0-0.7,0.9-1.7,2.5-2.8c1.2,0.4,2.3,0.5,3.6,0.5c6.4,0,11.3-4.6,11.3-10.7c0-2.5-0.5-4.2-2.4-6.6L467.6,259.3L467.6,259.3
		L467.6,259.3z M448.1,286.8c13.3,0.8,14.4,1.1,14.4,4.2s-4.2,5.5-9.7,5.5c-4.4,0-7.1-1.7-7.1-4.7
		C445.7,289.7,446.4,288.4,448.1,286.8z M495.1,271.1c-0.1-11.1-3.8-16.5-11.3-16.5c-7.8,0-12.5,6.7-12.5,17.8
		c0,10.5,4.6,16.2,12.6,16.2c5.2,0,7.6-1.7,11-7.8l-2.9-1.2c-2,3.1-3.7,4.3-6.2,4.3c-4.8,0-7.1-3.8-7.8-12.9H495.1z M478,267.9
		c0.8-7,2.4-10,5.5-10s4.4,2.8,4.7,10H478z M510.6,254.9h-2l-8,2.1v2.1l3.9,0.7v24.7l-3.9,0.8v2.7h14.9v-2.8l-4.7-0.7v-17.6
		c0-1.9,1.9-4.4,4.2-5.6l3.5,1.9c1.7-1.3,2.5-2.5,2.5-4c0-2.4-1.5-3.9-3.9-3.9s-3.8,1.2-6.4,5.8L510.6,254.9L510.6,254.9z
		 M433.5,307.2c-2.5,0-4.6,2-4.6,4.4c0,2.4,1.9,4.3,4.3,4.3c2.4,0,4.4-2,4.4-4.4C437.7,309.2,435.8,307.2,433.5,307.2z M440.8,356.5
		v-2.8l-3.7-0.8v-29.2h-1.6l-8.4,2.1v2.1l3.6,0.8V353l-3.6,0.8v2.7h66.4v-2.8l-3.7-0.8v-19.7c0-6.7-2.4-9.5-8.2-9.5
		c-3.5,0-5.8,1.2-9.2,4.4c-1.9-2.9-4.2-4.3-7.5-4.3c-3.2,0-5.8,1.1-9.1,3.9v-4.4h-1.7l-8.4,2.1v2.3l3.9,0.7V353l-3.9,0.8v2.7H459
		v-2.8l-3.1-0.8v-21.6c2.3-2.3,3.9-3.1,6-3.1c2.9,0,4.3,1.9,4.3,6V353l-3.8,0.8v2.7H476v-2.8l-3.3-0.8v-21.5
		c2.7-2.4,4.2-3.2,6.3-3.2c2.8,0,4,1.7,4,6.2V353l-3.6,0.8v2.7h13.9L440.8,356.5L440.8,356.5L440.8,356.5z"/>
</g>
</svg>
