<?xml version="1.0" encoding="utf-8"?>
<!-- Generator: Adobe Illustrator 22.0.0, SVG Export Plug-In . SVG Version: 6.00 Build 0)  -->
<svg version="1.1" id="Layer_1" xmlns="http://www.w3.org/2000/svg" xmlns:xlink="http://www.w3.org/1999/xlink" x="0px" y="0px"
	 viewBox="0 0 600 600" style="enable-background:new 0 0 600 600;" xml:space="preserve">
<style type="text/css">
	.st0{fill:#FFFFFF;}
</style>
<g>
	<path class="st0" d="M144.6,356.7c-2.6-2.7-5.9-4.5-9.5-5.6c-1.4-0.4-2.6-0.4-3.9,0.4c-1.1,0.7-2.3,1.2-3.3,1.8
		c-0.6,0.4-1.2,1-1.6,1.5c-0.9,1.1-2,1.5-3.4,1.2c-0.9-0.2-1.8-0.2-2.8-0.4c-0.4-0.1-0.8-0.5-1.2-0.8c1.2-0.5,2.2-1,3.2-1.5
		c1.8-0.8,3.5-1.8,5.2-2.7c0.8-0.4,1.8-0.6,2.7-0.9c0.4-0.2,0.7-0.3,1.1-0.5c0-0.1,0-0.2-0.1-0.2c-0.5-0.1-0.9-0.2-1.5-0.2
		c-1.8-0.1-3.2-0.7-4.4-2.1c-1.2-1.4-2.5-2.3-4.3-2.9c-1.7-0.5-3.2-1.6-4.9-2.5c-1.3-0.7-2.6-1.3-3.9-2.2c-0.9-0.6-1.7-1.3-2.5-2.1
		c-1.5-1.5-2.9-2.9-4.3-4.4c-0.3-0.3-0.8-0.5-1.2-0.8c-1.2-0.8-2.4-1.5-3.5-2.5c-1.4-1.2-2.7-2.5-4.1-3.7c-0.2-0.2-0.6-0.3-0.8-0.2
		c-1.2,0.2-1.7-0.1-2.2-1.2c-0.2-0.5-0.6-1.1-0.8-1.7s-0.4-1.2-0.5-1.8c-0.1-0.8-0.1-1.6,0-2.4c0-0.4,0.2-0.8,0.5-1
		c2.6-1.4,5-3.3,8-4c2.3-0.6,4.5-1.1,6.9-1.2c1-0.1,1.4-0.5,1.4-1.5c0.1-1.5,0.3-3,1-4.4c0.2-0.5,0.2-1.2,0.2-1.7
		c0.2-2,1.1-3.7,2.4-5.2c0.5-0.5,0.6-1,0.5-1.8c-0.4-1.3-0.6-2.7-0.8-4c-0.1-0.6,0-1.3,0.1-1.9c0-0.5,0.2-1.1,0.2-1.7
		c0-0.8-0.4-1.3-1.1-1.5c-1-0.3-1.5-1-1.6-2c-0.2-1.2-0.8-1.9-1.9-2.5c-2.2-1.2-3.2-3.2-3.2-5.6c0-1.4-0.2-2.7-0.8-4
		s-0.8-2.9-1.2-4.2c0-0.1,0-0.2,0-0.3c0.4-2.2,0.8-4.2,1.2-6.4c0.2-0.8,0.5-1.7,0.6-2.5c0.3-1.7,1.2-3.2,2.1-4.6
		c0.2-0.2,0.5-0.4,0.8-0.5c1.3-0.7,2.7-1.2,3.3-2.8c0.1-0.2,0.2-0.3,0.4-0.3c1.5-0.2,2.3-1.5,3.7-1.8c1.4-0.4,2.4-1.3,3.5-2.2
		c0.2-0.2,0.5-0.4,0.6-0.6c1.2-1.9,3-2.5,5.1-2c1.3,0.2,2.5,0.2,3.6-0.4c1-0.4,2-0.8,3.1-1.2c0.9,0,1.8,0,2.7,0
		c0.5,0.1,1.2,0.4,1.7,0.3c3.1-0.3,5.9,0.6,8.6,1.7c1.8,0.7,3.5,1.4,5.4,1.8c1.5,0.4,2.5,1.2,3.3,2.4c1.2,1.8,2,3.6,1.5,5.9
		c0,0.1,0,0.2,0.1,0.4c0.2,0.8,0.5,1.8,0.8,2.6c0.3,1.6,0.5,3.3,0.9,5c0.3,1.5,0.3,3-0.3,4.4c-0.2,0.3-0.2,0.7-0.4,0.9
		c-0.4,0.8-0.2,1.4,0.2,2.1c0.9,1.6,1.6,3.2,2.5,4.9c0.5,1.1,1.2,2.2,1.7,3.3c0.3,0.8,0.5,1.6,0.6,2.5c0.1,1.4-0.9,2.2-2.5,2.3
		c-0.7,0.1-1.3,0-2,0c-1.2,0-1.6,0.5-1.6,1.6c0,0.5,0.2,1.1,0.4,1.6c0.6,1.3,0.6,2.5-0.5,3.5c-0.2,0.2-0.2,0.8-0.2,1.2
		c0.3,1.2,0.2,1.8-0.6,2.5c-1.1,0.9-1.2,1.2-0.2,2.2c0.5,0.6,0.8,1.3,0.8,2.2c0,1.7-1.2,2.7-2.5,3.3c-0.9,0.5-2,0.6-3.1,0.8
		c-1.5,0.2-2.5,1.1-2.5,2.3c0,2,0.8,3.1,2.5,3.2c1.3,0.2,2.7,0.2,4,0.5c2.2,0.5,4.2,1.3,5.7,3.2c1.6,1.9,3.4,3.8,5.2,5.6
		c1,1.2,2,2.4,3.1,3.5c0.8,0.8,1.8,1.5,2.9,2.4c0.2-0.3,0.2-0.5,0.3-0.8c0.5-1,1.2-1.9,1.8-2.9c0.7-1.3,1.2-2.7,1.8-4
		c0.2-0.3,0.3-0.5,0.5-0.8c0.2,0.4,0.6,0.8,0.5,1c-0.3,1.1-0.1,2,0.2,3.1c0.2,1.2,0.1,2.5-0.2,3.8c-0.2,1-0.7,1.9-1.1,2.9
		c-0.1,0.2,0,0.4,0,0.6c0.2,0,0.5,0,0.6-0.2c0.3-0.5,0.5-1,0.8-1.5c0.2-0.5,0.3-1.1,1.2-1c-0.1,0.4-0.2,0.8-0.3,1.2
		c-0.2,0.6-0.6,1.2-0.8,1.8c-0.2,0.4-0.2,0.8-0.2,1.2c0.1,0.1,0.2,0.1,0.3,0.2c0.4-0.5,0.8-1.1,1.2-1.5c0.4-0.5,0.8-1.2,1.2-1.6
		c1.8-1.8,4.2-2.8,6.4-3.9c0.8-0.4,1.7-0.4,2.5-0.4c0.8,0,1.5-0.2,2.2-0.6c0.2-0.2,0.5-0.3,0.8-0.4c0.2-0.1,0.5,0,0.6,0
		c0,0.3,0,0.5-0.1,0.8c-0.1,0.2-0.2,0.4-0.4,0.5c-1,0.6-1.5,1.5-2.1,2.5c-0.3,0.6-0.8,1.1-1.4,1.6c-0.8,0.8-1.6,1.5-2.3,2.3
		c-1.4,1.6-2.9,3-4.7,4c-0.8,0.5-1.9,0.6-2.9,0.8c-0.3,0.1-0.7,0.2-1,0.2c0.1,0.5,0.4,1.1,0.2,1.4c-0.2,0.5-0.8,0.8-1.2,1
		c-0.2,0.2-0.6,0.1-0.9-0.1c-0.7-0.2-1.2-0.2-1.7,0.5c-0.2,0.2-0.5,0.3-0.8,0.4c-0.4,0.2-0.8,0.2-1.2,0.5c1.6-0.2,3.2,0.3,4.8,0.1
		c1.2-0.2,2.6,0.4,3.9,0.6c0.5,0.1,0.8,0.3,1.2,0.5c0.2,0.2,0.4,0.5,0.6,0.6c-0.2,0.2-0.5,0.6-0.7,0.6c-1.6-0.1-2.9,0.7-4.2,1.5
		c-0.4,0.2-0.8,0.2-1.2,0.4c-0.8,0.2-1.8,0.2-2.5,0.6c-1.8,0.9-3.6,0.8-5.5,0.6c-0.5,0-0.8,0-1.3,0c-0.2,2.7-1.5,4.8-3.5,6.4
		c-1.7,1.5-3.6,2.5-5.9,2.9c-0.6,0.1-1.3,0.2-1.8-0.2c-1.9-1.1-3.9-1.2-5.9-0.6c-1.2,0.3-2.5,0.2-3.8-0.2c-1.6-0.4-3.3-0.6-5-1
		c-1.2-0.3-2.3-0.8-3.5-1.2c-0.2-0.1-0.5-0.2-0.7-0.2c0,0.1-0.1,0.2-0.1,0.2c0.2,0.1,0.5,0.2,0.7,0.3c3.8,1.1,7.4,2.5,10.8,4.6
		c0.5,0.3,1.2,0.5,1.8,0.6c0.7,0.2,1,0.6,0.5,1.2c-0.5,0.5-1.2,1-1.8,1.5C145.2,356.7,144.9,356.7,144.6,356.7z M148.2,285.3
		c0.2-0.5,0.2-0.7,0.3-0.8c0.5-1,1.3-1.9,1-3.2c-0.1-0.2,0.4-0.6,0.7-0.8c0.1-0.1,0.6,0.1,0.6,0.2c0.1,0.4,0,0.8,0,1.1
		c0,0.1-0.1,0.2-0.1,0.2c-0.3,0.8-0.2,1.5,0.5,2.1c0.6,0.5,1.4,0.5,2,0.1c0.8-0.6,1.7-0.6,2.5-0.4c1,0.2,1.8,0.2,2.5-0.5
		c0.7-0.7,0.5-1.5,0.1-2.2c-1.6-3-2.5-6.3-4.5-9.1c-0.5-0.7-0.6-1.4-0.3-2.2c0.2-0.5,0.4-1.1,0.5-1.7c0.2-0.8,0.5-1.7,0.2-2.4
		c-0.7-2.2-0.8-4.4-1.1-6.6c-0.2-1.4-0.9-1.8-2-0.9c-1.8,1.5-3.7,2.9-4.9,4.9c-0.4,0.6-1.2,1.2-1.8,1.4c-1.2,0.2-2,0.9-2.5,1.9
		c-0.5,0.9-1.2,1.6-2.1,1.7c-1.8,0.2-2.4,1.8-3.2,2.9c-0.2,0.2-0.2,0.5-0.1,0.8c0.1,0.4,0.2,0.8,0.2,1.2c0.4,2.2-0.4,4.1-2.1,5
		c-1.2,0.6-2.2,1.2-3.3,1.9c-1.2,0.7-2.2,0.5-3.3-0.1c-1-0.5-1-1.6-0.8-2.6s0.4-2,0.3-3c-0.1-1.4-1.1-2.6-2.3-2.6
		c-0.8,0-1.5,0.5-2.3,0.6c-1.5,0.4-2.4,1.5-2.5,2.9c-0.2,1.6,0,3.3,0.1,5c0.1,1.5,1,2.5,2.1,3.6c0.7,0.7,1.2,1.7,1.5,2.6
		c0.3,0.7,0.5,1.2,1.3,1.4c0.2,0.1,0.5,0.2,0.9,0.3c-0.4,0.2-0.6,0.4-0.8,0.5c-0.9,0.4-1.7,0.9-1.9,1.8c-0.5,1.8-2.1,2.5-3.1,3.9
		c-0.1,0.2-0.5,0.1-0.7,0.2c0-0.2-0.2-0.5-0.1-0.5c0.4-0.7,0-1.1-0.5-1.4c-0.4-0.2-0.8-0.5-1.1-0.6c-0.3,0.2-0.6,0.5-0.8,0.7
		c-0.1-0.3-0.2-0.7-0.2-1c0-0.2,0.1-0.3,0.1-0.5c0-0.7-0.2-1.2-0.9-1.5c-0.3,0.6,0.1,1.3-0.7,1.7c-0.2-0.5-0.5-0.9-0.7-1.3
		c-0.1,0-0.2,0.1-0.3,0.1c1,1.5,0.4,3,0.5,4.5c0.1,1.5,0.7,2.3,2.2,2.6c0.5,0.1,1,0.2,1.5,0.4c-0.2,0.3-0.4,0.5-0.6,0.5
		c-0.8,0.1-0.9,0.5-0.8,1.2c0.2,1.5,0.4,3-0.2,4.5c-0.1,0.2,0,0.5,0.1,0.7c0.4,1.2,1.2,2.2,2.2,3c1.2,0.9,2,2,2.7,3.3
		c0.8,1.7,1.2,3.5,1,5.4c0,0.2,0,0.6,0.2,0.7c1.4,0.8,2.8,1.7,4.2,2.5c1.8,1.1,3.8,1.8,5.4,3.1c1.7,1.3,3.5,2.2,5.4,3
		c0.5,0.2,1.1,0.2,1.5,0c0.9-0.5,1.9-1.1,2.9-1.6c1.4-0.8,2.6-2,4.2-2.6c0.3-0.2,0.6-0.7,0.5-1c-0.3-1-0.7-2.1-1.2-3
		c-0.4-0.8-1.2-0.6-1.5,0.2c-0.5,1.5-0.2,2.9,1.4,3.2c0,0.8-0.4,1.2-1,0.8c-0.8-0.5-2.2-0.6-2-2.1c0-0.1-0.1-0.1-0.2-0.2
		c-0.4-0.6-0.4-0.8,0.4-1.1c0.2-0.1,0.3-0.2,0.2-0.1c-0.2-0.3-0.7-0.7-0.8-1.1c0-0.2,0.6-0.5,0.9-0.7c-0.9-0.8-0.9-0.8-0.2-1.2
		c-0.2-0.2-0.5-0.5-0.8-0.7c0.3-0.3,0.6-0.5,1-0.8c-0.1,0-0.2-0.1-0.3-0.1c-0.4,0-0.8-0.2-0.8-0.5c0.1-0.2,0.5-0.3,0.9-0.5
		c0.2-0.1,0.4,0,0.6,0.1c0-0.1,0-0.2,0-0.2c-0.2-0.1-0.5-0.2-0.6-0.2c-0.3-0.2-0.5-0.3-0.8-0.5c0.3-0.2,0.5-0.3,0.8-0.5
		c0.2-0.1,0.3-0.2,0.5-0.2c-0.2-0.1-0.2-0.1-0.3-0.2c-0.5-0.4-1.8,0.2-1.4-1.2c0,0-0.1,0-0.2-0.1c-0.5-0.7-0.5-1.7,0-2.2
		c-0.7-0.5-1.5-0.8-2.2-1.3c-0.7-0.5-1.4-1-2.2-1.4c-0.7-0.4-1.2-1.2-2.2-1.1c-0.2,0-0.5-0.4-0.6-0.7c-0.1-0.2,0.1-0.5,0.2-0.7
		c0.2,0.2,0.4,0.3,0.6,0.5c0.1,0,0.1,0.1,0.2,0.1c0.6-0.4,1-0.2,1.2,0.5c0.4,0,0.8-0.2,1-0.1c0.8,0.8,1.8,0.5,2.6,0.3
		s1.6-0.4,2.5,0.3c0.1-0.5,0.2-0.7,0.2-0.8c0.6-0.2,1.1-0.5,1.6-0.5c0.9-0.1,1.9-0.1,2.9-0.1c0.8,0,1.6,0,2.4-0.1
		c1.6-0.1,2.8-1.8,2.1-3.2c-0.5-1.2-1.1-2.5-2.5-2.9c0.2-0.5,0.4-1.1,0.5-1.6c0.1-0.5,0.4-0.6,0.8-0.5c0.3,0.1,0.5,0.2,0.8,0.3
		c0.2,0.1,0.5,0.2,0.6,0.1c0.2-0.2,0.3-0.5,0.3-0.8c-0.1-0.7-0.6-1-1.3-1c-0.5,0-1.2,0.3-1.7,0.2c-1-0.2-1.8,0.2-2.5,0.7
		c-0.5-0.2-0.6-0.6-0.3-1c0.2-0.3,0.4-0.7,0.6-1c0.3-0.7,0.8-0.7,1.3-0.2c0.8,0.7,1.5,0.5,2.2-0.1c0.4-0.3,0.8-0.4,1.2,0
		c0.2,0.2,0.5,0.2,0.6,0.2c0.6-0.2,1.1-1,0.9-1.7c-0.2-1-0.5-2-0.8-3c-0.3-1.1-1.4-1.4-2.3-1.7c-0.3-0.2-0.8,0.3-1.3,0.5
		C148.8,285,148.6,285,148.2,285.3z M154.6,321c0,0.5-0.1,0.7,0,1c0.3,1.4,0.8,2.8,0.8,4.2c0.2,2.5,0.2,5.1,0.2,7.7
		c0,0.5-0.1,1.2-0.3,1.7c-0.2,0.3-0.5,0.6-0.8,0.9c-0.2-0.4-0.4-0.7-0.5-1.1c0-0.1,0-0.2,0-0.2c0.5-1.7,0.7-3.5,0.6-5.2
		c0-0.2-0.2-0.5-0.4-0.8c-0.2,0.2-0.5,0.4-0.5,0.7c-0.6,2-1.2,4-1.8,6.1c-0.2,0.8-0.3,1.5-0.2,2.3c0.1,0.9-0.2,1.8-1.2,1.9
		c-0.8,0.2-1.6,0.2-2.4,0.1c-2.2-0.5-4.5-1-6.6-1.7c-1.2-0.4-2.3-0.9-3.4-1.5c-0.5-0.2-0.9-0.6-0.6-1.2c0.3-0.5,0.8-0.3,1.4-0.1
		c0.1,0,0.1,0.1,0.2,0.1c1.5,0.5,3.1,1.2,4.7,1.7c0.4,0.2,0.8,0.1,1.2,0.2c0.1,0.2,0.1,0.5,0.2,0.8c0.7-0.6,1.2-0.3,1.6,0.3
		c0.6-0.2,1.2-0.8,1.8,0c0.1-0.5,0-0.8,0.1-1.2c0-0.2,0.2-0.5,0.4-0.6c0.2-0.1,0.5,0.1,0.6,0.3c0.2,0.4,0.2,0.9,0.4,1.4
		c0.1,0.2,0.2,0.3,0.2,0.5c0.1,0,0.2-0.1,0.2-0.1c0-0.3,0-0.6,0-0.9c0.1-0.9,0.4-1.8,0.3-2.7c-0.1-0.9,0.1-1.6,0.5-2.3
		c0.1-0.2,0.1-0.4,0.2-0.6c0.1-0.6,0.1-1.2,0.2-1.8c0.6-2.8,0.5-5.5-0.6-8.2c-0.3-0.7-0.5-1.4-0.6-2.2c-0.1-0.2,0.2-0.5,0.4-0.8
		c0.2,0.2,0.5,0.3,0.6,0.5c0.3,0.9,0.5,1.8,0.9,2.8c0.2,0.6,0.7,1.2,1,1.8c0.1-0.1,0.2-0.1,0.3-0.2c-0.1-0.5,0-1.1-0.2-1.5
		c-0.2-0.7-0.6-1.4-0.9-2.1c-0.2-0.6-0.5-1.2-0.7-1.8c-0.3-1.5-1.1-2.8-2.5-3.5c-1.2-0.5-2.4-1-3.5-1.5c-0.1,0-0.2-0.1-0.2-0.1
		c-0.2,0.1-0.6,0.1-0.6,0.2c0,0.2,0,0.6,0.2,0.8c0.2,0.2,0.5,0.4,0.8,0.5c0.9,0.5,1.9,1,2.8,1.9c-0.5,0.1-0.8,0.1-1.2,0.2
		c-0.6,0.1-0.8,0.4-0.4,0.8c1.2,1.2,1.3,2.7,1.3,4.3c0,0.5,0.1,0.9,0.2,1.3c0.1,0.9,0.3,1.8,0.3,2.7s-0.2,1.8-0.5,2.9
		c-0.1,0.5-0.2,1-0.5,1.4c-0.2,0.2-0.5,0.5-0.8,0.5c-0.2,0-0.5-0.3-0.5-0.5c-0.3-0.9-1-1.5-1.8-1.7c-3.3-0.9-6.3-2.5-9.4-3.9
		c-0.3-0.2-0.6-0.1-0.9-0.2c-0.1,0.1-0.1,0.2-0.2,0.3c1.6,0.8,2.7,2,3.5,3.5c0.7,1.1,1.5,1.8,2.8,2.1c1.5,0.4,3.1,0.6,4.6,1
		c0.7,0.2,1.5,0.4,2.1,0.7c0.2,0.1,0.5,0.6,0.4,0.9c0,0.2-0.5,0.4-0.8,0.5c-0.5,0.1-1,0.1-1.5-0.1c-4.5-1.4-9.1-2.5-12.9-5.7
		c-2.6-2.2-5.8-3.9-8.3-6.3c-1.8-1.6-3.9-2.5-6.2-3c-0.3-0.1-0.7-0.1-1.3-0.2c0.2,0.5,0.3,0.9,0.5,1.2c0.2,0.5,0.6,0.8,0.7,1.3
		c0.5,2.3,1.1,4.6,1.5,6.9c0.4,2.2,0.6,4.5,1.2,6.6c0.4,1.8,1.1,3.5,1,5.5c-0.1,1.5,0.5,2.8,1.9,3.6c0.8,0.4,1.2,1.2,1.9,1.8
		c0.5,0.5,1,1.2,1.6,1.2c1.7,0.3,3.5,0.6,5.2,0.5c0.9-0.1,1.8-0.1,2.6,0.2c0.5,0.2,1.2,0.5,1.7,0.6c1.8,0.5,3.5,0.8,5.3,1.3
		c2.5,0.5,4.9,0.6,7.2-0.2c1.4-0.5,2.9-0.5,4.1,0.8c0.2,0.2,0.7,0.4,1,0.3c0.8-0.2,1.7-0.4,2.4-0.8c3.1-1.5,4.6-4.1,5.5-7.2
		c0.2-1,0.4-2,0.7-2.9c0.5-1.6,0.8-3.2,0.4-4.9c-0.1-0.4-0.2-0.7-0.4-1c-0.1,0-0.2,0-0.3,0c-0.2,0.4-0.4,0.7-0.5,1.1
		c-0.2,1.1-0.2,2.2-0.5,3.2c-0.3,1.7-0.7,3.3-1,5c-0.2,0.6-0.5,0.7-1,0.5c0.1-0.8,0.2-1.7,0.2-2.5c-0.1-0.8-0.4-1.7-0.6-2.5
		c0.5,0.2,0.8,0.2,1.2,0.4c-0.2-0.4-0.3-0.8-0.5-1.2c-0.1-0.2-0.2-0.3-0.2-0.4c0-0.1,0-0.2,0-0.4c0.4-0.8,0.9-1.7,1.2-2.6
		c0.5-1.3,0.2-2.7-0.8-3.6c-0.1,0.5-0.1,0.8-0.2,1.3c-0.2,0.7-0.3,1.5-0.5,2.2c-0.1,0.2-0.4,0.2-0.5,0.4c-0.1-0.2-0.3-0.4-0.3-0.6
		c0-0.5,0-0.9,0.2-1.4c0.5-1.8,0.4-3.7-0.1-5.5c-0.1-0.2-0.3-0.5-0.5-0.8c-0.1,0-0.2,0.1-0.2,0.1c0,0.5-0.1,0.9,0,1.4
		c0.1,0.5,0.3,0.8,0.3,1.3c0,0.3-0.2,0.6-0.4,0.9c-0.2-0.2-0.6-0.2-0.8-0.4c-0.2-0.3-0.2-0.7-0.2-1.1c0.2-1.7,0.1-3.4-0.5-5
		C156.4,322.5,155.9,321.6,154.6,321z M106.8,322.3c-0.6-0.2-1.1-0.4-1.5-0.5c-0.5-0.2-0.9-0.4-1.5-0.5c-0.3-0.1-0.8,0-1,0.2
		c-0.7,0.5-1.4,1.2-2,1.9c-0.5,0.5-1.1,1.1-1.4,1.8c-0.4,0.8-0.1,1.3,0.6,1.7c0.5,0.3,0.9,0.7,1.4,1c1.1,0.8,2.2,1.8,3.4,2.6
		c1.2,0.7,2.5,1.3,3,2.6c0.3,0.8,0.8,1.4,1.4,1.9c1.2,1.1,2.4,2.2,3.7,3.3c0.4,0.3,0.9,0.5,1.4,0.7c1.2,0.3,2.3,0.5,3.5,0.8
		c0.8,0.2,1.7,0.6,2.5,0.9l0.1-0.1c-1.1-0.7-2.2-1.3-3.3-2.1c1.5-0.8,2.2,0.9,3.5,0.5c-0.8-1.2-2.6-0.4-3.1-1.8
		c0.8-1,1.8,0.2,2.9-0.1c-0.4-0.3-0.5-0.5-0.8-0.7c-0.5-0.2-1-0.5-1.5-0.7c-0.4-0.2-0.7-0.6-0.4-1.1c0.3-0.5,0.7-0.2,1,0.1
		c0.4,0.2,0.8,0.4,1.3,0.6c0.1-0.1,0.1-0.2,0.2-0.2c-0.2-0.2-0.2-0.4-0.4-0.5c-0.6-0.3-1.3-0.5-1.9-0.8c-0.2-0.2-0.4-0.5-0.6-0.8
		c0.3-0.1,0.6-0.2,0.8-0.3c0.4,0,0.8,0.1,1.1,0.2c0.2-2-0.7-3.4-2.2-4.5c-1.1-0.8-2.2-1.4-3.2-2.1c-0.9-0.6-1.9-1.2-2.8-1.9
		c-0.2-0.2-0.2-0.6-0.4-0.9c0.3,0,0.8-0.2,1,0c1.5,0.9,3,2,4.5,2.9c0.2,0.2,0.6,0.2,0.8,0.2c0-0.1,0-0.2,0.1-0.2
		c-0.5-0.6-0.9-1.2-1.4-1.9c1.5-0.2,2.2,0.4,2.2,1.6c0,0.5,0.1,0.9,0.2,1.3c0.1,0.2,0.3,0.5,0.5,0.7c0.1,0,0.2-0.1,0.2-0.1
		c-0.2-0.9-0.4-1.8-0.6-2.7c-0.4-1.4-0.7-2.8-1.2-4.1c-0.4-1-1.1-1.8-2.2-1.9c-0.9-0.1-1.7-0.5-2.5-1.1c-0.3-0.2-0.9-0.2-1.4-0.3
		c-0.1,0-0.3,0.4-0.2,0.4c0.3,0.4,0.7,0.8,1.1,1c0.5,0.3,1.2,0.4,1.7,0.6c0.5,0.2,0.8,0.4,0.6,1.1c-0.5-0.1-1-0.1-1.4-0.2
		c-1-0.4-2-0.8-3-1.2c-0.2-0.1-0.6-0.1-0.8,0c-0.8,0.6-1.8,0.5-2.7,0.2c-0.2-0.1-0.8,0.1-0.8,0.2c-0.2,0.4,0.2,0.5,0.5,0.6
		C106.2,321,106.7,321.3,106.8,322.3z M112.3,277.5c0,1.2,0,2.3,0,3.3c0,0.7,0.3,0.9,0.8,0.6c0.7-0.4,0.9,0,1.1,0.5
		c0.1,0.5,0.2,1,0.1,1.4c-0.5,1.5,0.2,2.8,0.8,4.1c0.2,0.2,0.5,0.5,0.8,0.5c1.5,0.5,3.2,0.8,4.6,1.8c1.2,0.8,2.5,0.2,3-1.2
		c0.2-0.5,0.1-0.8-0.5-0.6c-0.6,0.2-1.3,0.2-1.8-0.5c0.3-0.3,0.5-0.6,0.8-1c0.5-0.8,0.3-1.4-0.6-1.5c-1.2-0.1-2.2-0.2-3.2-1.1
		c-0.6-0.5-0.8-0.9-0.4-1.5c0.5-0.7,0.6-1.4,0-1.9c-0.9-0.9-1.5-2-1.8-3.2c-0.1-0.3-0.1-0.7,0.1-0.9c0.4-0.6,0.3-1.2-0.2-1.8
		c-0.3-0.3-0.8-0.5-1-0.8c-0.2-0.2-0.2-0.6-0.2-0.9c0.4,0.1,0.8,0,1,0.2c0.6,0.5,1.2,1.2,1.8,1.6c0.2,0.2,0.7,0.3,1,0.3
		c0.2,0,0.5-0.2,0.8-0.4c-0.2-0.2-0.4-0.5-0.5-0.5c-0.6-0.1-0.6-0.6-0.8-1c-0.1-0.2,0.1-0.4,0-0.5c-0.8-0.8-1.6-1.7-2.4-2.5
		c-0.1-0.1-0.5,0-0.7,0c0.2,0.2,0.3,0.3,0.4,0.5c0.2,0.2,0.3,0.4,0.3,0.6c0,0.2-0.2,0.5-0.4,0.5c-0.2,0-0.4-0.2-0.5-0.4
		c-0.2-0.3-0.5-0.7-0.7-1.1c-0.2-0.3-0.4-0.7-0.4-0.9s0.5-0.4,0.7-0.5c0.3-0.3,0.7-0.6,0.8-1c0.1-0.3-0.1-1-0.2-1.1
		c-1.2-0.4-1.3-1.5-1.8-2.4c-0.1-0.2,0.1-0.5,0.2-0.7c0.2,0.1,0.5,0.2,0.6,0.3c0.1,0.1,0.1,0.3,0.1,0.5c0.4,1.2,1.2,1.8,2.6,1.6
		c-0.3-0.4-0.5-0.7-0.8-0.8c-0.8-0.5-1.4-1-1.5-1.8c-0.1-1,0.1-2.1,0.1-3.1c0-0.1,0.2-0.2,0.3-0.3c0.1,0.2,0.3,0.2,0.3,0.4
		c0,0.4,0,0.8,0,1.3c0,1.3,0.5,2.5,1.6,3.2c0.2,0.2,0.5,0.1,0.8,0.1c0-0.3,0-0.6-0.1-0.8c0-0.2-0.2-0.2-0.2-0.3c-0.8-0.8-1-1.8-1-3
		c0-1.6,0-3.3,0-4.9c0-0.4-0.2-0.8-0.3-1.4c-0.5,1.1-0.9,1.7-1.1,1.8c-0.1-0.5-0.1-1.1-0.2-1.5c-0.2-0.4-0.6-0.6-0.9-0.9
		c-0.2,0.4-0.6,0.7-0.7,1.1c-0.2,1.2-0.3,2.5-0.5,3.9c-0.1,0.8-0.4,1.5-1,2.1c-0.1,0-0.2-0.1-0.3-0.1c0.3-1.2,0.5-2.3,0.8-3.5
		c-0.1,0-0.2-0.1-0.2-0.1c-0.2,0.2-0.3,0.5-0.4,0.8c-0.2,0.5-0.5,1.2-0.6,1.7c-0.4,1.4-0.9,2.8-0.6,4.3c0.2,1.2,0.9,2,1.5,2.9
		c0.6,0.9,1.2,1.9,1.6,2.9c0.2,0.5,0.2,1.2,0.2,1.8c-0.1,0-0.2,0.1-0.2,0.1c-0.1-0.1-0.2-0.1-0.3-0.2c-0.6-1.2-1.2-2.5-1.8-3.7
		c-0.2-0.5-0.5-1.2-1.4-1.2c0.4,0.8,0.7,1.4,1,2c-0.1,0.1-0.2,0.1-0.2,0.2c-0.4-0.2-0.8-0.4-1.2-0.6c0.1,0.8,0.1,1.6,0.3,2.2
		c0.2,0.6,0.5,1.2,0.8,1.8c-0.1,0.1-0.2,0.2-0.3,0.2c-0.3-0.3-0.6-0.5-0.8-0.9c-0.2-0.4-0.4-0.8-0.6-1.2c-0.1,0-0.2,0.1-0.3,0.1
		c0,0.4,0,0.8,0.2,1.2c0.2,0.5,0.5,0.8,0.8,1.2c0.1,0.2,0,0.5,0,0.7c-0.2-0.1-0.5-0.1-0.6-0.2c-0.4-0.6-0.7-1.3-1.1-2
		c-0.2-0.3-0.2-0.6-0.3-0.9c-0.2,0.2-0.3,0.4-0.3,0.6c0.2,2.1,1.5,3.8,3.5,4.5c0.7,0.2,1.3,0.5,1.9,0.8c0.9,0.5,1.3,1.4,1.2,2.5
		C113,277.9,112.7,277.8,112.3,277.5z M152.5,314.5c0,0.1-0.1,0.2-0.1,0.2c0.4,0.2,0.7,0.4,1.1,0.5c1.4,0.5,1.6,0.9,1.2,2.5
		c-0.5-0.3-0.9-0.6-1.4-0.9c0.5,1.5,1.4,2.8,2.5,3.9c1.2,1.2,2.6,2.3,3.1,4.1c0.1,0.2,0.2,0.4,0.5,0.5c0.8,0.8,1.4,1.7,1.6,2.8
		c0.4,1.7,1.2,3.2,2.5,4.4c0.5,0.5,0.8,1.2,0.9,1.8s0.5,1.5,1,2c0.5,0.8,1.3,0.8,1.8,0c0.7-0.8,1.4-1.8,1.8-2.8
		c0.6-1.5,1.5-2.8,2.9-3.7c0.5-0.4,0.6-1.1,0.2-1.5c-0.8-0.8-1.7-1.5-2.6-2.2c-1.2-0.8-2.5-1.5-3.5-2.5c-2.5-2.5-4.8-5.3-7.1-8
		c-2-2.2-4.2-4.1-7.2-4.6c-1.5-0.2-2.9-0.6-4.4-0.9c-0.2-0.1-0.5,0-0.8,0c0,0.1-0.1,0.2-0.1,0.3c2.5,1.2,4.8,2.9,7.6,3.6
		c0,0.1-0.1,0.2-0.1,0.3C153.3,314.4,152.9,314.5,152.5,314.5z M123.1,264c-0.1,0.1-0.2,0.2-0.3,0.3c-0.4-0.3-0.8-0.6-1.2-1
		c-0.8-0.7-1.5-1.5-2.2-2.2c-0.7-0.7-1.2-1.4-1.2-2.4c0-1,0-2.1-0.3-3.1c-0.4-1.2-1-2.3-1.6-3.4c-0.1-0.2-0.4-0.2-0.6-0.2
		c0,0.2-0.1,0.5,0,0.6c0,0.2,0.2,0.3,0.2,0.4c0.6,0.9,0.9,1.9,0.9,3.1c-0.1,1.2-0.1,2.4,0,3.6c0.1,1.2,0.2,2.3,1.2,3.1
		c0.6,0.5,0.8,1.1,0.8,1.8c0,0.3,0,0.6-0.1,0.9c-0.1,0.8,0.2,1.2,0.8,1.6c0.5,0.2,0.9,0.6,0.7,1.5c-0.8-0.6-1.4-1.2-2.1-1.7
		c-0.2-0.2-0.6-0.3-0.9-0.4c-0.1,0.1-0.1,0.2-0.2,0.2c0.2,0.5,0.4,0.9,0.5,1.4c0.1,0.5,0.2,0.9,0.2,1.4c-0.1,0-0.1,0-0.2,0
		c-0.5-0.6-0.9-1.2-1.3-1.8c-0.1,0-0.2,0.1-0.2,0.1c-0.1,0.2-0.2,0.5-0.2,0.6c0.2,0.5,0.5,1.2,0.8,1.6c0.8,0.8,1.6,1.5,2.5,2
		c0.9,0.6,1,0.6,1.8-0.3c1.2-1.4,2.8-1.8,4.5-1.5c0.5,0.1,1.1,0.5,1.6,0.8c0.2-0.5,0.5-0.5,0.9,0c0.2,0.2,0.5,0.3,0.6,0.5
		c0.1-0.1,0.2-0.1,0.2-0.2c-0.2-0.5-0.4-0.9-0.7-1.5c0.3,0.1,0.5,0.2,0.8,0.2c0.2,0.1,0.5,0.2,0.8,0.2c0.1-0.3,0.2-0.5,0.2-0.8
		c-0.1-0.2-0.2-0.5-0.4-0.8c-0.8-0.8-2.2-1.5-3.6-0.5c-0.7,0.5-1.5,0.6-2.2,0.3c-0.6-0.2-1.3-0.5-1.9-0.8c-1.3-0.5-2-1.5-2-3.1
		c0-0.7,0.2-1.4-0.4-2c-0.1-0.2-0.2-0.5,0-0.6c0.1-0.2,0.5-0.2,0.7-0.1c0.6,0.2,0.5,0.6,0.5,1.1c-0.1,0.8,0.2,1.4,1.1,1.7
		c0.5,0.2,1.1,0.6,1.4,1.1c0.5,0.5,0.9,0.8,1.6,0.8c1.1,0.1,2.2,0.2,3.3,0.2c0.3,0,0.5-0.1,0.8-0.2c-0.2-0.2-0.3-0.5-0.5-0.8
		c-0.2-0.3-0.5-0.5-0.8-0.8c0.1-0.1,0.2-0.2,0.2-0.3c1.1,0.5,2.1,0.8,3.2,1.3c0-0.1,0.1-0.2,0.1-0.2c-0.2-0.2-0.3-0.3-0.5-0.5
		c-0.8-0.6-2.1-0.8-2.2-2.2c0-0.1-0.2-0.2-0.2-0.3c-0.6-0.3-0.8-0.8-1-1.5c-0.1-0.3-0.2-0.6-0.5-0.8c-0.8-0.9-1.4-0.8-1.8,0.3
		c-0.8,0-1.7,0.1-1.7,1.2c-0.3,0.2-0.6,0.2-0.9,0.4C122.4,263.2,122.7,263.6,123.1,264z M121.1,260.4c0.9-0.2,1.7-0.2,2.3-0.3
		c-0.5-0.5-1.1-1.1-1.5-1.6c-1.2-1.2-1.2-1.3-0.8-1.8c2.1,2.1,2.1,2.1,2.9,1.9c-0.3-0.4-0.7-0.7-0.8-1c-0.2-0.3-0.2-0.8,0.1-1.1
		c0.2-0.2,0.7-0.2,1.1-0.2c0.3,0,0.6,0.2,0.8,0.4c0.7,0.3,1.4,0.1,1.9-0.3c0.6-0.4-0.2-0.8-0.2-1.2c0-0.1,0-0.1,0.1-0.2
		c0.6-0.1,1.2-0.2,1.8-0.3c0.9-0.2,1.2-0.9,0.7-1.8c-0.2-0.2-0.3-0.5-0.5-0.8c0.1-0.1,0.2-0.2,0.3-0.2c1.2-0.2,1.4-1.2,1.6-2.2
		c0.1-0.2,0.1-0.4,0.2-0.6c0.1-0.5,0.3-0.7,0.8-0.5c0.2,0.1,0.8,0.1,0.8,0c0.4-0.8,0.8-0.4,1.3-0.2c1.4,0.5,2.6,0.4,3.9-0.4
		c0.3-0.2,0.7-0.3,1-0.5c0.3-0.2,0.6-0.5,0.8-0.7c-0.3-0.2-0.7-0.6-1-0.8c-0.2-0.1-0.5,0-0.8-0.1c-1.5-0.1-2.9-0.2-4.5-0.3
		c-0.4,0-0.8,0.1-1.3,0.1c0,0.1,0,0.2,0,0.2c0.5,0.1,1.1,0.2,1.6,0.3c0.5,0.2,0.6,0.5,0.2,0.9c-0.2-0.1-0.4-0.2-0.5-0.3
		c-1.8-0.7-3.5,0.4-3.9,2.4c-0.2,1.5-2.1,2.6-3.5,2.1c-0.2-0.1-0.5-0.4-0.7-0.6c0.3-0.1,0.5-0.2,0.8-0.3c0.4-0.1,0.8,0,1.4,0
		c-0.8-0.6-1.5-0.7-2.4-0.4c-0.2,0.4-0.3,0.7-0.4,0.9c-0.4-0.2-0.8-0.4-1.1-0.6c-0.1,0-0.1-0.2-0.2-0.2c-0.7-1.2-2.4-1.6-3.6-1
		c1.5,1.4,1.6,1.6,0.5,2c-0.4-0.5-0.7-0.9-1.1-1.2c-0.2-0.2-0.8-0.2-1.1-0.1c-0.2,0.1-0.3,0.7-0.2,0.9c0.8,1.8,1.6,3.5,2.5,5.3
		c-0.3,0.4-0.7,0.3-0.9-0.2c-0.3-0.7-0.6-1.3-0.8-2c-0.5-1.2-1.1-2.2-2.1-2.9c1.5,1.7,1.8,3.7,1.8,5.9c0,0.9,0.2,1.8,0.6,2.6
		s1.1,1.5,2.3,1.7C121.4,261.1,121.3,260.8,121.1,260.4z M110.6,315.2c-0.9-1.5-0.9-1.6-2.2-1.4c-2.7,0.6-5.5,0.3-8.1,1.2
		c-1.2,0.4-2.2,0.8-3.2,1.5c-0.8,0.6-1.6,1.1-2.5,1.7c-0.3,0.2-0.6,0.4-0.9,0.6c0.1,0.1,0.2,0.2,0.2,0.2c0.4-0.3,0.8-0.6,1.2-0.8
		c0.5-0.2,0.9-0.4,1.5-0.5c0.2,0,0.4,0.2,0.5,0.4c0,0.2-0.1,0.4-0.2,0.5c-0.5,0.2-0.9,0.4-1.4,0.6c-0.8,0.3-1.5,0.6-2.2,1
		c-0.2,0.2-0.2,0.6-0.3,0.9c0.4,0.1,0.8,0.2,1.1,0.2c0.2,0,0.5-0.3,0.8-0.5c0.7-0.5,1.3-1.1,2.1-1.3c2.5-0.7,5.2-1.2,7.7-1.8
		c0.3-0.1,0.8-0.3,0.9-0.6c0.3-0.9,0.5-1.1,1.5-0.6c0.6,0.3,1.2,0.6,1.9,0.8c0.5,0.2,1.2,0.1,1.8-0.1c0.4-0.2,0.6-0.5,0-0.8
		c-0.2-0.1-0.5-0.3-0.7-0.5C110.2,315.7,110.4,315.5,110.6,315.2z M118.5,314.9c0.1-1.8-0.4-3-2-3.8c-1.6-0.8-1.9-1.5-1.5-3.4
		c0.3-1.2,0.7-2.3,0.8-3.5c0.2-1.5,0.1-3,0.1-4.5c0-0.6,0.2-1.5-0.6-1.8s-1.3,0.6-1.6,1.2c-0.7,1.5-1.4,3-1.8,4.5
		c-0.8,2.7-0.2,5.2,1.9,6.8c0.9,0.7,1.6,1.6,2.2,2.5c0.4,0.5,0.5,1.3,0.5,2c0,0.5-0.1,0.8,0.5,0.8c0.6,0.1,0.8-0.4,0.7-0.8
		c-0.1-0.5-0.2-1-0.3-1.5c0-0.2,0.1-0.3,0.1-0.5c0.2,0.1,0.4,0.2,0.5,0.2C118.1,313.9,118.3,314.2,118.5,314.9z M133.9,276.4
		c0.1-0.2,0.2-0.4,0.2-0.5c-0.2-1.5-0.3-3-0.5-4.5c0-0.1-0.1-0.1-0.1-0.2c-0.1-0.4-0.2-0.8-0.2-1.2c0.2-1.2,1.1-1.6,2-1.9
		c1.2-0.4,2.5-0.7,3.9-1c0.9-0.2,1.6-1,1.8-2.2c-0.6,0.2-1.1,0.5-1.8,0.8c0-0.3,0-0.5,0-0.6c0-0.2-0.1-0.5-0.1-0.8
		c-0.2,0-0.5,0-0.8,0.2c-0.8,0.4-1.6,0.9-2.5,1.2c-1.5,0.5-2.9,1.2-3.8,2.7c-0.5,0.8-0.8,1.8-1.3,2.6c-0.8,1.4-1.3,2.7-0.6,4.3
		c0.5,1.1-0.1,1.7-1.2,1.9c-0.5,0.1-0.6,0.5-0.2,1c0.5,0.7,2,0.5,2.4-0.2c0.2-0.2,0.4-0.6,0.5-0.5c0.6,0.2,0.8-0.2,1-0.6
		C132.9,276.2,133.3,275.9,133.9,276.4z M144.2,249.8c-0.9-0.5-1.7-1.1-2.5-1.4c-1.1-0.4-2.2-0.2-3.2,0.3c-1.1,0.6-2.2,1-3.4,0.7
		c-0.2-0.1-0.7,0.2-0.8,0.3c-0.5,1-1.2,1.3-2.3,1.4c-0.6,0-1,0.4-0.8,0.9c0.1,0.5,0.4,1,0.7,1.3c0.6,0.5,1.4,0.9,2.1,1.3
		c0.4,0.2,0.8,0.2,1.3,0.4c0.1-0.1,0.1-0.2,0.2-0.3c-0.2-0.3-0.5-0.6-0.8-1.2c0.9,0.3,1.7,0.5,2.5,0.8c0-0.1,0.1-0.2,0.1-0.2
		c-0.5-0.3-0.8-0.5-1.3-0.8c0-0.1,0.1-0.2,0.1-0.2c1.2,0.2,2.4,0.5,3.5,0.4c1.2-0.1,2.3-0.6,3.5-1c0-0.1,0-0.2-0.1-0.3
		c-0.9-0.2-1.8-0.2-2.7-0.4c0-0.1,0-0.2,0.1-0.3c1.4-0.8,2.9,0,4.4-0.2c-0.3-0.3-0.7-0.5-1-0.6c-0.2-0.1-0.3-0.3-0.5-0.5
		c0.2-0.2,0.3-0.2,0.5-0.4C143.9,249.9,144,249.9,144.2,249.8z M128.1,258c-0.1,0.1-0.2,0.2-0.2,0.3c-1.2,0.7-1.2,1.8-0.4,2.7
		c0.5,0.5,1.1,1.2,1.4,1.9c0.8,1.8,2,2.2,3.9,2.2c0.2,0,0.4-0.2,0.5-0.2c-0.1-0.2-0.2-0.4-0.3-0.5c-0.4-0.4-0.2-0.6,0.2-0.8
		c0.3-0.1,0.7-0.1,1-0.1c0.5-0.1,1.1-0.1,1.5-0.2c0.6-0.2,1.2-0.5,1.8-0.6c0.8-0.2,1.2-0.7,1-1.5c-1,1.1-2.3,1.2-3.6,1.1
		c-0.3,0-0.6,0-0.9-0.1c-1.5-0.2-3.1-0.5-4-1.9c-0.2-0.2-0.1-0.5-0.2-0.8c0.3,0.1,0.8,0,0.8,0.2c0.8,1.2,2.2,1.4,3.5,1.6
		c0.7,0.2,1.5,0.5,2.3-0.1c-0.5-0.5-0.8-1-1.3-1.5c-0.9-0.7-1.8-1.4-2.9-2c-0.4-0.2-0.8-0.4-1.3-0.5c-0.2,0.4-0.3,0.7-0.5,1
		c-0.3-0.2-0.5-0.5-0.8-0.6c-0.4-0.2-0.7-0.5-1.1-0.8c-0.5-0.2-1-0.5-1.3,0.1C127,257.4,127.7,257.6,128.1,258
		C128,257.9,128.1,258,128.1,258z M108.9,276.7c0.1-0.8-0.2-1.2-0.8-1.2c-0.2,0-0.4-0.4-0.5-0.6c-0.2-1.2-0.8-2-1.7-2.7
		c-0.2-0.2-0.5-0.2-0.7-0.2c0,0.2-0.1,0.5,0,0.7c0.2,1.1,0.5,2.1,0.6,3.2c0.1,0.8-0.1,1.5,0,2.3c0.2,1.6,0.9,2.9,1.9,4.1
		c0.3,0.4,0.9,0.6,1.4,0.7c1.3,0.2,1.5,0.3,1.2,1.5c-0.2,1,0.5,2.5,1.4,2.8c-0.1-1-0.1-2-0.2-2.9c-0.2-1.1-0.2-2.2-1.5-2.7
		c-0.2-0.1-0.3-0.3-0.5-0.5c-0.7-0.8-1.2-1.8-1.2-2.9c0-0.4,0.1-0.8,0.2-1.1c0-0.1,0.4-0.1,0.4,0c0.1,0.4,0.2,0.8,0.2,1.2
		c0.1,0.5-0.1,1.2,0.1,1.6c0.2,0.4,0.7,0.7,1.2,0.8c0.3,0.1,0.8,0,1.1-0.2c0.6-0.7,0.2-2.7-0.5-3.3c-0.2,0.3-0.3,0.5-0.5,0.8
		c-0.1,0-0.2,0-0.2,0c-0.2-0.7-0.3-1.3-0.5-2.1C109.5,276.3,109.3,276.5,108.9,276.7z M150.2,250.3c-0.1,0.1-0.2,0.2-0.2,0.2
		c-0.8-0.2-1.5-0.2-2.3-0.5c-0.2-0.1-0.3-0.3-0.6-0.6c0,1.2,0.2,2.4-0.1,3.4c-0.3,1.1-1,2-1.5,3.1c0.2,0.1,0.4,0.2,0.6,0.2
		c1.5,0,3.1,0.3,4.4-0.7c0.2-0.1,0.3-0.1,0.5-0.2c0.4-0.2,0.8-0.4,1-0.7c0.6-0.8,0.7-1.6,0.4-2.5c-0.5-1.5-1.2-2.6-2.6-3.4
		c-0.1,0.1-0.2,0.2-0.3,0.2C149.7,249.4,149.9,249.9,150.2,250.3z M117.6,316.9c0,0.1,0,0.2,0,0.2c0.1,0.1,0.2,0.2,0.3,0.2
		c1.2,0.4,2.4,0.8,3.6,1.1c1.2,0.2,2.2,0.8,3.2,1.7c1,1,2.1,2,3.2,2.9c0.5,0.5,1.2,0.8,1.7,1.1c0-0.1,0.1-0.2,0.1-0.2
		c-0.1-0.2-0.2-0.3-0.2-0.4c-0.1-0.3,0-0.5,0-0.8c0.3,0.1,0.8,0.1,1,0.2c0.3,0.3,0.4,0.8,0.6,1.1c0.3,0.5,0.5,1.2,0.9,1.6
		c1,1.1,2.2,2.1,3.2,3c0.5,0.5,1.2,0.7,1.8,1.1c0.1-0.1,0.2-0.2,0.2-0.2c-0.2-0.5-0.5-0.9-0.8-1.3c-0.8-1-1.8-1.9-2.6-2.9
		c-1.5-1.8-3.2-3.5-5.4-4.3c-0.8-0.3-1.7-0.8-2.4-1.4c-1.9-1.4-4-2.3-6.4-2.7C118.8,316.8,118.2,316.9,117.6,316.9z M110.6,256.1
		c-0.1-0.1-0.1-0.2-0.2-0.3c-0.4,0.1-0.7,0.1-1.1,0.2c-0.4,0.2-0.7,0.5-1.1,0.6c-1.2,0.4-1.8,1.2-1.9,2.4c-0.2,0.8,0,1.8-0.1,2.6
		c-0.1,0.7,0.6,1.7-0.6,2.1c-0.1,0-0.2,0.2-0.2,0.4c-0.2,1.2,0.2,2.2,0.8,3.2c0.1,0.2,0.5,0.2,0.8,0.2c0.1,0,0.2-0.4,0.2-0.6
		c0-0.4,0-0.8,0-1.2c0.2,0,0.3,0.1,0.4,0.1c0.3,0.1,0.7,0.2,1,0.2c0-0.4,0.2-0.8,0.1-1.1c-0.2-0.8-0.6-1.5-0.9-2.2
		c-0.6-1.2-0.2-3.6,1.5-4.6c-0.2,0.5-0.3,0.8-0.4,1.1c-0.2,0.8-0.5,1.6-0.6,2.4c-0.1,0.4,0.1,0.8,0.6,0.8c0.3-1,0.7-2,1-3
		c0.1-0.4,0.1-1.1-0.2-1.3c-0.5-0.5-0.2-0.8,0.1-1.1C110,256.5,110.3,256.4,110.6,256.1z M138.9,263.5c1.5,0,3,0,4.4,0
		c0.2,0,0.7-0.4,0.6-0.4c-0.2-0.6,0.2-0.8,0.6-1c0.2-0.2,0.5-0.5,0.5-0.8c0.7-1.5,1.2-3.2,3.5-3.7c-0.4-0.2-0.6-0.3-0.8-0.3
		c-1,0-2.1,0-3.1,0.2c-1.4,0.3-2.5,0.9-2.5,2.7c0,0.2-0.3,0.4-0.5,0.5c-0.8,0.7-1.6,1.3-2.3,1.9C139.1,262.8,139,263.1,138.9,263.5z
		 M121.7,314.2c-0.7-2.2-1.5-4.2-2.9-6.1c-0.5-0.6-1.1-1.2-1.6-1.9c-0.4-0.5-0.7-0.4-0.9,0c-0.8,1.7-1.2,3,0.8,4.1
		c0.1,0.1,0.2,0.1,0.3,0.2c1,0.8,1.9,1.7,1.9,3.2c0,0.6,0.2,1.4,0.5,1.9c0.4,0.8,1,0.8,1.4-0.1C121.5,315.2,121.6,314.8,121.7,314.2
		z M136.8,257.8c-2.2-0.3-3.9-1.3-5.5-2.6c0.1,0.4,0.2,0.7,0.4,0.8c1.8,1.8,3.8,3.2,6.4,3.2c0.7,0,1.2-0.1,0.8-1.1
		c0.5,0.2,0.9,0.3,1.3,0.5s0.8,0.4,0.9-0.2c0.2-0.9,0.2-1.9-0.6-2.7c-0.8-0.8-2-0.9-3.3-0.1c-0.8,0.5-1.5,0.5-2.4,0.1
		c-0.5-0.2-0.8-0.5-1.3-0.8c-0.2-0.2-0.4-0.2-0.6-0.3c-0.1,0.1-0.1,0.2-0.2,0.3c1,0.5,1.7,1.6,3,1.7c0.3,0,0.5,0.1,0.8,0.2
		C137.1,257,137.1,257.3,136.8,257.8z M110.9,307.8c-0.2,0-0.2,0-0.4,0c-0.1,0.6-0.2,1.2-0.2,1.8s0.2,1.3,0,1.9
		c-0.2,1-0.1,1.8,0.7,2.2c0.8,0.5,1.8,0.9,2.7,1.3c0.4,0.2,1-0.1,1.2-0.4c0.2-0.2,0-0.8-0.2-1.2s-0.7-0.6-0.9-1
		c-0.5-0.5-0.8-1.2-1.3-1.6c-0.5-0.5-1.2-1-1.2-1.9C111.2,308.5,111,308.1,110.9,307.8z M105.8,319.3c0-0.1,0-0.2,0-0.3
		c-0.5,0-0.9-0.2-1.4-0.1c-1.4,0.3-2.7,0.7-4,1.2c-1.5,0.5-2.9,1.1-4.2,1.8c-0.9,0.4-1.2,1.1-0.9,1.6c0.2,0.6,1.2,0.8,2.1,0.5
		c0.6-0.3,1.2-0.7,1.7-1.2c0.5-0.4,0.8-0.8,1.2-1.2c0.7-0.7,1.5-1.1,2.5-1.3C103.8,319.9,104.8,319.6,105.8,319.3z M129.6,246.2
		c-0.2,0.3-0.5,0.7-0.7,1c-0.2,0.3-0.5,0.5-0.8,0.1c-0.4-0.8-0.9-0.5-1.5-0.4c-0.5,0.2-1,0.2-1.5,0.2c-1.2,0.1-2.5,0.1-3.8,0.2
		c-0.2,0-0.3,0.2-0.5,0.4c0,0.1,0.2,0.3,0.3,0.4c1.4,0.5,2.8,0.9,4.2,1.3C127.7,249.8,129.5,248.7,129.6,246.2z M147.2,324.6
		c0-0.1-0.1-0.2-0.1-0.2c-0.4,0.2-0.7,0.3-1.1,0.5c-0.2,0.1-0.5,0-0.7,0c0.1-0.2,0.2-0.5,0.3-0.7c0.2-0.2,0.4-0.1,0.5-0.2
		c0.4-0.3,0.8-0.6,1.1-0.9c0.1-0.1-0.1-0.5-0.2-0.5c-0.5-0.1-0.9,0-1.5,0c-0.1,0-0.1,0.1-0.2,0.1c-1.4,0.9-2.8,1.8-4.2,2.8
		c-0.2,0.2-0.4,0.5-0.7,0.8c0.8-0.1,1.4-0.1,2.1-0.2c-0.3,0.5-0.4,0.8-0.5,1c0.6,0.4,0.9,0.3,1.4-0.1c0.3-0.3,0.6-0.6,1-0.8
		C145.5,325.7,146.3,325.1,147.2,324.6z M139.7,254.6c1.1,0.5,1.9,1.2,2.2,2.3c0,0,0,0,0.1,0.1c0.5,0.4,1.1,0.5,1.6,0.2
		s0.7-1.5,0.3-2.1C143.2,253.8,140.9,253.5,139.7,254.6z M114.1,318.8c0.4-0.2,1-0.5,1.7-0.7c0.7-0.2,0.8-0.8,0.5-1.3
		c-0.3-0.8-0.9-1-2-0.9c-0.8,0.1-1.5,0.8-1.6,1.7C112.6,318.4,112.9,318.8,114.1,318.8z M144.2,327.8c0,0.1,0,0.2,0.1,0.3
		c0.8,0.1,1.6,0.2,2.5,0.2c0.9,0,1.6-0.9,1.5-1.8c0-0.2-0.5-0.6-0.7-0.6C146.2,326.1,145.2,326.9,144.2,327.8z M121.5,284.1
		c-0.2-0.4-0.2-0.6-0.4-0.8c-1-1-1.5-2.2-1.7-3.6c-0.1-0.4-0.4-0.7-0.6-0.9c-0.2-0.2-0.5,0-0.8,0c0.1,0.2,0.1,0.5,0.2,0.7
		c0.2,0.6,0.6,1.2,0.6,1.9C118.9,283,119.6,283.9,121.5,284.1z M173.5,331.2c0-0.1,0-0.2,0-0.3c-0.3-0.1-0.7-0.3-1-0.2
		c-1.1,0.5-1.8,1.3-2.2,2.5c-0.2,0.5,0,0.8,0.5,0.8c0.8-0.1,1.5-0.2,2.4-0.3c0-0.2,0-0.2,0.1-0.4c-0.5-0.2-1.2-0.5-1.9-0.7
		c0.4-0.3,0.7-0.5,1.1-0.8C172.8,331.6,173.1,331.4,173.5,331.2z M149.2,314c-0.2-1.2-1.6-2.2-3.2-2.2c-0.5,0-0.9,0.2-0.8,0.7
		c0.1,0.3,0.5,0.6,0.8,0.8c0.8,0.2,1.5,0.4,2.3,0.5C148.7,313.9,148.9,313.9,149.2,314z M112.2,283.5c0.2,1.2,0.2,2.3,0.4,3.3
		c0.1,0.3,0.5,0.5,0.8,0.7c0-0.4,0.2-0.8,0.1-1.2c-0.1-0.7-0.2-1.5-0.3-2.2c0-0.2,0.1-0.4,0-0.5c-0.2-0.3-0.4-0.6-0.6-1
		C112.5,283,112.3,283.3,112.2,283.5z M104.2,268.5c-0.1,0-0.1,0.1-0.2,0.1c0.3,0.7,0.7,1.4,1.1,2.1c0.1,0.2,0.5,0.2,0.7,0.3
		c0.1-0.2,0.2-0.5,0.2-0.8c-0.2-0.8-0.4-1.8-0.6-2.6c-0.1-0.2-0.2-0.4-0.4-0.5c-0.2,0.2-0.4,0.2-0.5,0.5
		C104.4,267.8,104.3,268.2,104.2,268.5z M134.9,269.5c-0.7,2.2,0.5,4.2,0.3,6.6C136,274.9,135.8,270.9,134.9,269.5z M120.8,265.5
		c-0.1,0.1-0.2,0.2-0.2,0.2c0.5,1.2,3,2.7,4.2,2.3C123.4,267.1,122.1,266.2,120.8,265.5z M118.9,290.2c-0.2,0.1-0.3,0.2-0.3,0.2
		c0,0.2,0,0.5,0.1,0.5c0.6,0.4,1.2,0.8,1.9,1.1c0.2,0.1,0.6-0.3,0.9-0.5c0.1,0-0.1-0.5-0.2-0.5C120.5,290.7,119.6,290.4,118.9,290.2
		z M113.8,290.1c-0.6,0.9-0.6,2.9,0,4C114,292.7,114.3,291.5,113.8,290.1z M128.9,276.2c0,0.3-0.1,0.5-0.1,0.8
		c0.8-0.2,0.8-0.8,0.7-1.4c0-0.2-0.5-0.5-0.7-0.4c-0.5,0.2-0.9,0.5-0.7,1.2C128.4,276.2,128.6,276.2,128.9,276.2z M130.5,255.8
		c0.1-0.1,0.1-0.2,0.2-0.3c-0.3-0.2-0.5-0.4-0.8-0.5c-0.2,0-0.5,0.2-0.6,0.4c0.2,0.2,0.4,0.3,0.6,0.4
		C130,255.9,130.2,255.8,130.5,255.8z M128.1,272.5c-0.2,0.1-0.3,0.2-0.4,0.2c0.2,0.3,0.3,0.6,0.5,0.9c0,0,0.2-0.1,0.4-0.1
		C128.4,273.2,128.2,272.8,128.1,272.5z"/>
	<path class="st0" d="M530.7,323c-0.4,1.4-0.6,2.8-1.2,4.1c-2.1,5.3-5.7,9.1-11.3,10.5c-8.6,2.2-17.1-2.7-19.7-11.3
		c-1.8-6.3-0.8-12.1,3.8-17c3-3.2,6.7-5.1,11.3-5.2c8.6-0.4,15.7,6.2,17,14.3c0,0.1,0.1,0.2,0.2,0.2
		C530.7,319.9,530.7,321.4,530.7,323z M524.7,321c0.2-6.5-4.3-10.8-9.5-11.1c-3.3-0.2-6.2,0.7-8.4,3.1c-2.9,3.2-3.6,7-2.6,11.1
		c1.5,6.2,7.9,9.7,14,7.3C522.1,329.8,524.7,326.1,524.7,321z"/>
	<path class="st0" d="M69,285.7c1-0.3,1.7,0.3,2.3,0.9c0.7,0.8,1.5,1.5,2.4,2.2c0.9,0.6,1.3,1.8,1.5,2.9c0.2,0.5,0.3,1.1,0.5,1.5
		c0.6,1.1,0.7,2.2,0.6,3.4c0,0.9,0.3,1.8,0.5,2.7s0.5,1.8,0.6,2.7c0.1,0.5-0.2,1-0.2,1.5c-0.2,0-0.2,0-0.4,0
		c-0.3-0.9-0.6-1.9-0.9-2.9c-0.1,0-0.2,0-0.2,0c-0.1,0.2-0.1,0.5-0.2,0.8c-0.3-0.2-0.6-0.3-0.7-0.5c-1.1-1.7-2.6-3.1-3.2-5.2
		c-0.1-0.2-0.2-0.5-0.3-0.6c-1-1.3-1.5-2.7-1.3-4.4c0-0.4-0.1-0.8-0.2-1.1c-0.3-1.1-0.6-2.2-1-3.2C69,286.4,69,286.1,69,285.7z"/>
	<path class="st0" d="M399,337.1c-1.8,0-3.6,0-5.3,0c-0.2,0-0.3-0.4-0.3-0.5c0-1,0-2.1,0-3.2c0-5,0-10-0.1-15c0-1.9-0.4-3.8-1.2-5.5
		c-1.2-2.5-3.7-3.3-6.3-3.1c-3.7,0.3-5.4,3-6,6.5c-0.2,1.4-0.3,2.8-0.3,4.2c0,5.2,0,10.4,0,15.6c0,0.3,0,0.6,0,1c-1.8,0-3.5,0-5.4,0
		c0-10.6,0-21.3,0-32c1.6,0,3.2,0,5,0c0,1.1,0,2.2,0,3.2c0.1,0.1,0.1,0.1,0.2,0.2c2.4-2.9,5.4-4.2,9.2-3.9c3.8,0.3,6.6,2,8.5,5.4
		c0.2-0.2,0.2-0.3,0.3-0.5c1.8-3,4.5-4.5,8-4.9c2.8-0.2,5.4,0.1,7.8,1.5c3.1,1.8,4.8,4.5,5.5,8c0.2,1.3,0.3,2.8,0.3,4.2
		c0,6,0,12,0,18c0,0.3,0,0.6,0,0.9c-2,0-3.9,0-5.9,0c0-0.3,0-0.6,0-0.9c0-6,0.1-12,0-18c0-1.5-0.3-3-0.8-4.3c-1-2.9-3.5-4.2-6.8-3.9
		c-2.1,0.2-3.9,0.9-4.8,2.9c-0.5,1.2-1,2.5-1,3.9c-0.2,6.5-0.2,12.9-0.2,19.3C399,336.4,399,336.7,399,337.1z"/>
	<path class="st0" d="M314,294.6c0,14.2,0,28.3,0,42.5c-0.8,0-1.5,0-2.2,0c-1,0-2,0-3,0c-0.5,0-0.8-0.2-0.7-0.8c0-0.9,0-1.9,0-3.1
		c-0.5,0.4-0.8,0.7-1.1,1c-3.2,2.7-6.8,3.7-10.9,3.4c-2.5-0.2-4.9-0.8-7.1-2.1c-4.5-2.6-7.2-6.6-7.9-11.7c-0.7-4.5,0-8.8,2.6-12.6
		c2.5-3.7,5.9-6.2,10.4-6.9c5.1-0.7,9.8,0.2,13.7,3.9c0.1,0.1,0.2,0.2,0.5,0.3c0-4.7,0-9.3,0-14C310.1,294.6,312.1,294.6,314,294.6z
		 M297.8,332.4c0.9-0.2,1.9-0.2,2.8-0.5c7.6-2.5,10-11.6,5.4-17.6c-3.5-4.6-8.9-5.5-13.4-3.2c-3.1,1.6-6.3,5.3-5.8,11
		C287.4,327.6,291.8,332.2,297.8,332.4z"/>
	<path class="st0" d="M248.1,337.1c-2.2,0-4.4,0-6.5,0c-0.2,0-0.5-0.4-0.5-0.6c-1.4-3.6-2.9-7.2-4.2-10.9c-0.2-0.7-0.6-0.8-1.3-0.8
		c-4.8,0-9.6,0.1-14.4,0c-0.8,0-1,0.3-1.3,0.9c-1.4,3.6-2.8,7.2-4.2,10.9c-0.2,0.5-0.4,0.7-1,0.7c-1.9,0-3.9,0-5.9,0
		c0.2-0.7,0.5-1.3,0.7-1.9c5.2-13.3,10.4-26.7,15.6-40c0.2-0.5,0.4-0.6,0.9-0.6c1.5,0,3.2,0.1,4.7,0c0.6,0,0.8,0.2,1.1,0.8
		c2.9,7.6,5.9,15.2,8.9,22.7c2.4,6.1,4.8,12.2,7.1,18.3C247.9,336.6,248,336.8,248.1,337.1z M234.3,318.6
		c-1.9-5.3-3.9-10.4-5.8-15.7c-2,5.3-4,10.5-6,15.7c0.4,0,0.7,0,0.9,0C227,318.6,230.6,318.6,234.3,318.6z"/>
	<path class="st0" d="M451.1,308.6c0-1.2,0-2.3,0-3.5c2,0,3.9,0,5.9,0c0,10.6,0,21.3,0,32c-1.9,0-3.9,0-5.9,0c0-1.2,0-2.5,0-3.8
		c-0.7,0.6-1.2,1.1-1.8,1.6c-3.1,2.5-6.6,3.2-10.5,2.9c-3.2-0.2-6.2-1.2-8.7-3.2c-3.5-2.8-5.6-6.3-6.3-10.8
		c-0.7-4.6,0.2-8.9,2.8-12.6c2.5-3.6,5.9-6.1,10.3-6.7c5.2-0.7,10,0.2,13.9,4.2C450.9,308.5,450.9,308.5,451.1,308.6z M429.6,320.9
		c0.2,1.1,0.2,2.1,0.5,3.2c1.5,5.8,7.5,9.5,13.1,7.9c6.7-1.9,10.7-9.9,6.5-16.7c-2.6-4.2-6.9-6-11.1-5.2
		C433.7,310.9,429.6,315.2,429.6,320.9z"/>
	<path class="st0" d="M352.3,303.9c8.4-0.2,15.2,6.9,16.3,14c1.2,7.5-1.9,14.6-9,18.5c-2.9,1.5-6,1.8-9.2,1.6
		c-7-0.6-12.9-6.3-14.3-14c-1.5-8.6,3.7-17.2,12.4-19.5C349.7,304.1,351.1,304.1,352.3,303.9z M341.9,321c0,0.2,0,0.5,0,0.6
		c0,5.1,4.2,10.4,10.3,10.4c3.6,0,6.5-1.4,8.6-4.3c2.1-3,2.5-6.4,1.7-9.9c-1.6-7-8.6-9.7-14.3-7.2
		C343.9,312.6,342.1,316.4,341.9,321z"/>
	<path class="st0" d="M250.6,305c1.8,0,3.6,0,5.5,0c0,1.1,0,2.2,0,3.4c0.8-0.7,1.4-1.3,2-1.8c2.4-1.9,5.1-2.4,8-2.2
		c1.4,0.1,2.9,0.3,4.2,0.8c4.1,1.4,6.4,4.5,7.2,8.7c0.4,1.6,0.5,3.3,0.5,5c0.1,5.7,0,11.5,0,17.2c0,0.3,0,0.6,0,1
		c-0.3,0-0.6,0.1-0.8,0.1c-1.3,0-2.5,0-3.9,0c-1.2,0-1.2,0-1.2-1.1c0-5.4,0-10.7,0-16.1c0-1.5-0.2-3-0.5-4.4
		c-0.9-3.7-3.5-5.5-7.3-5.5c-4.8,0.2-6.8,3.1-7.4,6.8c-0.3,2.2-0.5,4.3-0.5,6.5c-0.1,4.3,0,8.6,0,12.9c0,0.3,0,0.5,0,0.9
		c-2,0-3.9,0-5.9,0C250.6,326.4,250.6,315.7,250.6,305z"/>
	<path class="st0" d="M494,326c-2.2,5.9-5.5,10.3-11.9,11.6c-9.4,1.9-17.5-3.2-19.9-12.4c-2.5-9.9,3.7-18.7,12.3-20.7
		c8.8-2.2,16.4,2.5,19.3,10.8c0,0.1,0.1,0.2,0.2,0.4c-1.3,0-2.5,0-3.7,0c-0.8,0-1.8,0.2-2.5-0.1c-0.6-0.3-0.9-1.2-1.5-1.9
		c-1.7-2.3-4.1-3.5-6.9-3.8c-2.9-0.4-5.5,0.4-7.8,2.3c-2.1,1.8-3.3,4.2-3.6,7c-0.4,3.2,0.1,6,1.9,8.6c4.4,6.3,14.1,5.4,17.2-1.2
		c0.2-0.5,0.5-0.7,1-0.7C490.1,326,492,326,494,326z"/>
	<path class="st0" d="M333.6,304.5c0,2.1,0,4.1,0,6.1c-0.6,0.2-1.3,0.2-2,0.4c-2.9,0.6-4.5,2.3-4.9,5.2c-0.2,1.1-0.2,2.2-0.2,3.2
		c0,5.5,0,11.2,0,16.7c0,1.1,0,1.1-1.1,1.1c-1.5,0-3.2,0-4.7,0c0-10.7,0-21.3,0-32.1c1.8,0,3.5,0,5.4,0c0,1.1,0,2.1,0,3.1
		c1.2-0.9,2.2-1.8,3.4-2.6C330.7,304.7,332.1,304.4,333.6,304.5z"/>
	<path class="st0" d="M187.3,286.9c0.2-1.8,0.3-3.5,0.5-5.2c-0.2,0-0.2,0-0.4-0.1c0,0.2-0.1,0.4-0.1,0.5c0,0.4,0.2,0.8,0.1,1.2
		s-0.4,0.5-0.5,0.8c-0.3-0.3-0.9-0.6-0.9-0.9c0-0.6-0.3-1-0.6-1.5c-0.3-0.5-0.4-1.1-0.6-1.8c-0.2,0.3-0.3,0.5-0.5,0.7
		c-0.2,0.2-0.4,0.3-0.6,0.2c-0.2,0-0.4-0.2-0.5-0.5c-0.2-0.5-0.2-0.9-0.4-1.4c-0.2-0.7-0.5-1.3-1.1-1.8c-0.5-0.3-0.8-1-1-1.5
		c-0.7-1.5-1.1-3-1.2-4.7c-0.1-1.5-0.2-3.1-1.1-4.5c-0.2-0.4-0.7-0.7-0.9-1.1c-0.2-0.2-0.2-0.8-0.1-0.8c0.4-0.3,0.8-0.2,1.1,0.2
		c0.5,1.2,1.7,2,2.6,2.9c2.9,2.6,4.3,5.9,4,9.8c-0.1,0.5,0.2,1.2,0.3,1.7c0.1,0.2,0.3,0.2,0.5,0.4c0.1-0.2,0.3-0.3,0.3-0.5
		c0-0.5,0.2-1.2-0.1-1.7c-0.5-1.2-0.5-2.3-0.3-3.6c0.3-1.6,0.4-3.3,1.2-4.9c0.7-1.4,1.3-2.9,1.9-4.2c0.2-0.4,0.3-0.8,0.5-1.2
		c0.1,0,0.2-0.1,0.3-0.1c0.1,0.2,0.1,0.2,0.2,0.4c0.6,1.3,1.3,2.5,1.7,3.9c0.5,1.5,0.5,3.2-0.1,4.9c-0.2,0.4-0.2,0.8-0.2,1.2
		c0,2.2,0.3,4.5-0.5,6.7c-0.3,0.8-0.8,1.5-1.2,2.3c-0.4,0.8-0.8,1.7-1.2,2.6c-0.2,0.5-0.5,1-0.7,1.5
		C187.6,287,187.5,287,187.3,286.9z"/>
	<path class="st0" d="M188.2,296.3c-0.2,0.3-0.3,0.6-0.5,1c-0.3,0.7-0.5,1.5-0.8,2.2c-0.1,0.2-0.4,0.2-0.5,0.2
		c-0.2-0.1-0.4-0.4-0.3-0.5c0.3-1.8,0.6-3.6,1-5.4c0.2-0.5,0.5-1.1,0.7-1.6c0.2-0.6,0.5-1.3,0.5-1.9c0.2-1.5,0.5-2.9,1.5-4
		c0.6-0.7,0.8-1.7,1.3-2.5c0.2-0.5,0.6-1.2,1-1.3c1.5-0.5,2.1-1.8,2.8-3c0.2-0.4,0.2-0.9,0.8-0.8c0.2,0.1,0.6,0.2,0.6,0.4
		c-0.1,0.4-0.2,0.8-0.4,1.3c0.4,0.5,0.2,1.2-0.1,2c-0.5,1.1-0.7,2.3-0.8,3.5c-0.2,2.2-0.3,4.5-1.5,6.6c-0.1,0.1-0.1,0.2-0.1,0.3
		c0,0.8,0.1,1.6,0.1,2.5c0,0.2,0.1,0.3,0,0.4c-0.6,1.2-0.8,2.5-2,3.3c-1.7,1.1-3,2.6-4.3,4.1c-0.2,0.2-0.4,0.5-0.6,0.6
		c-0.2,0.1-0.5,0.1-0.7,0.2c0-0.2-0.2-0.5-0.1-0.7c0.5-1.2,1.2-2.4,1.7-3.6c0.3-0.8,0.7-1.5,1-2.2c0.1-0.2-0.1-0.4-0.1-0.5
		C188.4,296.3,188.3,296.3,188.2,296.3z"/>
	<path class="st0" d="M179.5,322c-0.4-0.7-0.2-1.1,0.3-1.4c0.4-0.2,0.8-0.5,1.2-0.7c0.9-0.5,1.5-1.2,1.8-2.3c0-0.2,0-0.4-0.2-0.5
		c-0.1-0.1-0.3,0-0.5,0.1c-0.2,0.1-0.4,0.2-0.6,0.2c-0.2,0-0.3-0.2-0.4-0.3c-0.1-0.1,0.1-0.3,0.2-0.4c0.7-0.5,0.9-1.2,1.2-2
		c0.5-2,1.2-4,2.5-5.6c0.6-0.6,1.4-1.2,2.2-1.6c1.5-0.7,2.7-1.5,3.6-2.9c0.3-0.5,0.8-0.9,1.3-1.3c0.4-0.3,0.8-0.4,1.3-0.6
		c0.1,0.1,0.2,0.2,0.2,0.2c-0.1,0.2,0,0.5-0.2,0.8c-1.2,1.8-1.5,3.9-1.9,5.9c-0.2,1.3-0.8,2.5-1.9,3.4c-0.4,0.2-0.7,0.6-0.9,1
		c-0.9,1.8-2.5,3.2-4,4.6c-1.2,1.2-2.9,2.2-4.3,3.2C180.2,321.9,179.8,322,179.5,322z"/>
	<path class="st0" d="M176.9,323.6c-0.9-0.1-0.9-0.1-0.5-2c-0.1,0-0.2-0.1-0.2-0.1c-1,0.2-0.9,0.2-1-0.8c-0.1-1.2-0.2-2.5-0.2-3.6
		c0-0.7,0.1-1.4,0.2-2.2c0.2-0.9,0.2-1.9,0.5-2.8c0.5-1.5,1.2-2.9,1.8-4.3c0.5-1,0.8-2,0.8-3.1c0-0.5,0.3-0.9,0.5-1.4
		c0-0.1,0.5,0,0.6,0.1c0.3,0.5,0.6,1.2,0.8,1.8c0.3,1.1,0.5,2.2,0.7,3.3c0.4,1.5-0.1,3.1-0.4,4.5c-0.2,1-0.2,2-0.3,3.1
		c-0.1,0.7-0.1,1.4-0.2,2.2c-0.1,0.8-0.5,1.4-1.1,1.8C177.8,321,177,322,176.9,323.6z"/>
	<path class="st0" d="M185.5,270c-1-0.2-1.2-0.8-1.4-1.5c-0.2-0.8-0.4-1.5-0.5-2.4c-0.9,0.9-1.2,0.8-1.6-0.1c-0.3-0.6-0.6-1.2-1-1.8
		c-1.5-2.6-1.6-5.4-1-8.3c0.2-0.8,0.3-1.7,0.5-2.5c0-0.2,0.2-0.5,0.3-0.5s0.4,0.1,0.5,0.2c0.8,1.2,1.8,2.5,2.4,3.8
		c0.5,1.1,0.8,2.3,1.1,3.5c0.1,0.2,0.1,0.5,0.2,0.6c1.5,1.6,1.2,3.4,0.8,5.3c-0.2,0.6-0.1,1.3-0.1,2
		C185.5,268.8,185.5,269.5,185.5,270z"/>
	<path class="st0" d="M360.3,290.7c-0.9,1.2-1.8,2.2-2.6,3.2c-1.8,2.2-3.5,4.3-5.2,6.6c-0.3,0.4-0.6,0.5-1.2,0.5
		c-0.9-0.1-1.8,0-2.9,0c0.4-0.6,0.6-1.1,0.9-1.6c1.6-2.7,3.2-5.4,4.8-8.1c0.2-0.2,0.3-0.5,0.5-0.5
		C356.3,290.7,358.2,290.7,360.3,290.7z"/>
	<path class="st0" d="M181,290.8c0.8,1.5,1.7,3.2,2.4,4.7c0.5,1,0.9,2.1,1.2,3.2c0.5,1.7,0.5,3.4,0.1,5.2c-0.3,1.3-0.4,2.7-0.7,4
		c-0.1,0.5-0.5,0.8-0.8,1.3c-0.6-0.9-0.2-1.6-0.2-2.3c0-0.9,0.2-1.8,0.1-2.6c-0.1-0.5-0.5-0.9-0.8-1.4c-0.1,0-0.2,0.1-0.3,0.1
		c0.1,0.4,0.1,0.8,0.2,1.2c0,0.2,0.1,0.5,0,0.8c-0.1,0.2-0.3,0.5-0.5,0.6c-0.2-0.2-0.3-0.4-0.4-0.6c-0.1-0.4-0.2-0.8-0.2-1.1
		c0.1-1.1-0.2-2-0.6-3c-0.5-1.2-0.1-2.5,0.2-3.8c0.1-0.5,0.1-0.8,0.1-1.3c0-1.5,0-2.9,0-4.3C180.8,291.3,180.9,291,181,290.8
		C180.8,290.8,180.9,290.8,181,290.8z"/>
	<path class="st0" d="M181.2,280.3c0.2,0,0.2,0,0.3,0.1c1.7,1.6,3.9,2.9,4.2,5.5c0.2,1,0.7,1.9,0.8,2.9c0.1,0.8-0.1,1.8-0.2,2.6
		c-0.1,1-0.2,2.1-0.3,3.1c-0.1,0.5-0.2,0.8-0.3,1.2c-0.2,0-0.2,0-0.4,0c-0.2-0.8-0.5-1.5-0.7-2.3c0,0-0.1,0-0.2,0
		c-1.2,0.3-1.2,0.3-1.1-0.9c0-0.2-0.1-0.5-0.2-0.7c-1.1-1.4-1.5-3-1.6-4.7c-0.2-1.8-0.3-3.7-0.5-5.5
		C181.2,281.3,181.2,280.8,181.2,280.3z"/>
	<path class="st0" d="M177.2,253.4c-0.5-0.9-0.9-1.8-1.4-2.8c0.9-0.3,1.5-0.1,2,0.7c0.3,0.5,0.7,1.2,1,1.7c0.2,0.5,0.5,1.2-0.2,1.6
		c-0.1,0.1-0.1,0.2-0.1,0.3c0.2,1.2,0.2,2.5,0.4,3.7c0,0.3,0.1,0.7,0.1,1c-0.6,0.3-0.9,0.1-1.3-0.4c-0.3-0.4-0.8-0.6-1.2-0.9
		c-0.2-0.2-0.5-0.2-0.6-0.3c-1.6-1.7-3.5-3.2-3.9-5.9c-0.1-0.4-0.2-0.8-0.5-1.2c-0.3-0.5-0.2-1,0.2-1.3c0.5-0.4,0.8,0.1,1.1,0.5
		c0.1,0.2,0.2,0.2,0.3,0.3c1,0.9,2,1.8,3,2.7c0.2,0.2,0.5,0.3,0.7,0.5C177.1,253.6,177.1,253.5,177.2,253.4z"/>
	<path class="st0" d="M165.2,246.6c0.2-0.1,0.4-0.2,0.5-0.2c1.2,0.2,2.5,0.5,3.7,0.8c1.2,0.3,1.7,1.5,1.5,2.7
		c-0.1,0.5,0.1,0.9,0.1,1.4c0,0.7-0.2,0.8-0.8,0.5c-0.9-0.5-1.8-1.1-2.8-1.6c-0.2-0.2-0.4-0.3-0.5-0.5
		C166.4,248.7,165.8,247.7,165.2,246.6z"/>
	<path class="st0" d="M188.7,302.5c-0.2,1.3-0.4,2.5-1.2,3.5c-0.2,0.3-0.8,0.6-1,0.5c-0.6-0.2-0.7-0.9-0.5-1.2
		c0.7-1,1.5-1.8,2.3-2.8C188.3,302.4,188.5,302.5,188.7,302.5z"/>
	<path class="st0" d="M178.7,263.6c-1.2-0.2-2.7-1.8-2.8-2.9c0-0.2,0.3-0.5,0.4-0.5c0.5,0.1,1,0.2,1.2,0.4
		C178.2,261.5,178.8,262.5,178.7,263.6z"/>
	<path class="st0" d="M85.3,315.2c0.1,0.7,0.2,1.4,0.3,2.1c0.2,0.8,0.6,1.5,0.8,2.3c0.2,0.6,0.2,1.2,0.4,1.8
		c-0.1,0.1-0.2,0.1-0.3,0.2c-0.3-0.2-0.7-0.5-0.9-0.8c-0.6-1.1-1.1-2.2-1.6-3.2c-0.4-0.8-0.7-1.7-1.2-2.4c-1.2-1.4-1.5-3.1-1-4.7
		c0.6-2.1,1.2-4.2,1.3-6.3c0.2-1.4,0.8-2.6,2.2-3.2c0.3-0.2,0.6-0.2,1.1-0.3c-0.5,2.9,1.5,5.2,1.5,7.9c0,0.8,0.6,1.8,1,2.6
		c0.5,1.2,0.6,2.3,0.4,3.6c-0.2,1.1,0.2,2.2,0.2,3.2c0,0.7-0.2,1.4-0.2,2.1c0,0.6,0,1.3-0.1,1.9c-0.1,0.3-0.3,0.6-0.5,0.8
		c-0.2-0.2-0.5-0.5-0.6-0.7c-0.3-0.9-0.5-1.9-0.8-2.9c-0.5-1.5-1-2.9-1.5-4.2C85.6,315.1,85.4,315.1,85.3,315.2z"/>
	<path class="st0" d="M120,347.2c0.3,0,0.6,0,0.9,0c0.5,0,1,0,1.5,0.1c0.2,0,0.5,0.3,0.5,0.5c0,0.2-0.2,0.5-0.4,0.5
		c-0.8,0.2-1.7,0.5-2.5,0.5c-1.6,0.2-3.2,0.5-4.9,0.5c-2.1,0-4-0.5-5.8-1.8c-0.3-0.2-0.6-0.3-1-0.5c-0.8-0.3-1.6-0.5-2.4-0.8
		c-1.3-0.5-2.5-0.6-3.9-0.2c-0.3,0.1-0.8-0.2-1.2-0.2c0.2-0.3,0.3-0.8,0.6-0.9c0.7-0.3,1.5-0.5,2.2-0.7c0.8-0.2,1.8-0.1,2.2-1.2
		c0-0.1,0.1-0.1,0.2-0.1c2.1-0.9,4.2-1.5,6.6-0.5c0.8,0.3,1.8,0.3,2.7,0.3c0.8,0,1.5,0.2,2.2,0.6c0.5,0.3,1.1,0.3,1.6,0.5
		c0.6,0.2,1.2,0.4,1.8,0.7c0.7,0.3,1.4,0.7,2.1,1.1c0.3,0.2,0.5,0.5,0.7,0.7c-0.3,0.2-0.6,0.5-0.9,0.5c-0.9,0.1-1.8,0-2.8,0
		C120,347.1,120,347.2,120,347.2z"/>
	<path class="st0" d="M94.2,334.1c-1.5-0.8-2.9-1.5-4.2-2.2c-0.1,0.1-0.1,0.2-0.2,0.2c1,1.5,3,1.6,4.2,3.2c-0.4,0.1-0.8,0.2-1,0.2
		c-1.4-0.5-2.7-0.9-4.2-0.8c-0.7,0.1-1.3-0.2-1.9-0.7c-1.6-1.2-3.3-2.4-4.9-3.6c-0.3-0.2-0.7-0.5-0.8-0.8c-0.8-1.4-2-2.2-3.5-2.7
		c-1.2-0.4-1.2-0.5-1.2-1.5c1.2-0.1,2.5-0.2,3.7-0.2c1,0,2-0.2,2.9,0c2.5,0.5,4.9,1.7,6.8,3.5c0.6,1.8,2.3,2.5,3.5,3.6
		C93.9,332.7,94.4,333.1,94.2,334.1z"/>
	<path class="st0" d="M84.3,279.9c0.3,0.9,0.1,1.8-0.3,2.7c-0.4,0.9-0.7,1.8-0.6,2.8c0.1,0.9-0.4,1.9-0.5,2.9
		c-0.2,0.6-0.4,1.3-0.4,1.9c0,2.5-0.2,5-1.8,7.2c-0.3,0.5-0.4,1.1-0.6,1.6c-0.2,0.5-0.5,0.9-0.8,1.3c-0.6-1.2-1.1-2.5-0.6-3.8
		c0.1-0.2,0-0.6-0.1-0.8c-0.6,0.5-0.4,1.2-0.4,1.8c0,0.5,0.2,1.2-0.5,1.2c-0.7,0-0.5-0.8-0.5-1.2c0.1-1.4-0.1-2.8-0.5-4.2
		c-0.2-0.7-0.2-1.5-0.1-2.3c0.2-1.2,0.5-2.5,0.9-3.7c0.4-1,1.2-1.8,1.8-2.8c0.2-0.2,0.5-0.4,0.6-0.6c0.9-1.6,2.5-2.5,3.9-3.8
		c0.1-0.1,0.2-0.2,0.2-0.2C84.1,279.9,84.2,279.9,84.3,279.9z"/>
	<path class="st0" d="M71.8,266.5c1.8,1.6,2.9,3.6,3.5,5.9c0.5,2,0.8,4,1.2,6c0.2,0.6,0.2,1.4,0,2c-0.4,1.3-0.1,2.5,0.2,3.9
		c0.2,0.7,0.2,1.4,0.2,2.1c0,0.2-0.2,0.5-0.2,0.7c-0.1,0-0.2,0-0.2,0c-0.3-0.8-0.6-1.5-0.8-2.2c-0.1,0-0.2,0-0.2,0
		c0.2,1.3,0.4,2.6,0.6,4.2c-1.4-0.9-2.4-1.8-3.1-3c-0.1-0.2,0-0.6,0.2-0.8c0.6-0.5,0.7-0.8,0.4-1.5c-1.5-2.7-2.3-5.6-2.5-8.7
		c-0.1-0.8,0.1-1.7,0.4-2.5c0.5-1.4,0.4-2.7,0.2-4.1c-0.1-0.7,0-1.4,0-2C71.6,266.5,71.6,266.5,71.8,266.5z"/>
	<path class="st0" d="M73,310.8c1.7-0.1,3.1,0.2,4.1,1.8c0.3,0.5,1,0.8,1.6,1.2c1,0.7,2.1,1.2,3,1.9c0.6,0.5,1.2,1.3,1.5,2.1
		c0.5,1.7,1.3,3,2.5,4.3c0.5,0.5,1.1,1,1.1,1.9c-0.8-0.1-1.5-0.3-1.9-1c-0.3-0.5-0.8-0.8-1.2-1.3c-0.1,0.1-0.2,0.2-0.3,0.2
		c0.1,0.2,0.2,0.4,0.2,0.6c0.1,0.2,0.2,0.6,0.2,0.7c-0.2,0.2-0.5,0.4-0.7,0.3c-0.9-0.4-1.9-0.8-2.8-1.2c-0.8-0.4-1.5-0.9-2.1-1.5
		c-0.5-0.4-0.9-0.8-1.1-1.4c-0.5-1.7-1.5-3.1-2.8-4.2c-0.9-0.8-1.2-1.8-1.2-3C73,311.8,73,311.3,73,310.8z"/>
	<path class="st0" d="M78.6,271c0.2-0.6,0.4-1.2,0.5-1.7c-0.1,0-0.2-0.1-0.2-0.1c-0.2,0.2-0.2,0.4-0.3,0.6c-0.2,0.7-0.5,1.4-0.8,2
		c-0.1,0.2-0.4,0.3-0.6,0.5c-0.2-0.2-0.4-0.5-0.4-0.7c0.1-1.2,0.2-2.4,0.2-3.5c0-0.5,0-1-0.1-1.5c0-0.4-0.1-0.8,0-1.1
		c0.2-1.2,0.4-2.3,0.8-3.4c0.4-0.9,0.9-1.8,1.6-2.6c1-1.2,2.1-2.2,3.2-3.2c0.2-0.2,0.4-0.3,0.8-0.5c0,0.5,0,0.8,0,1.2
		c-0.1,1.5-0.2,3.1-0.1,4.6c0.1,1.1-0.2,1.9-0.5,2.9c-0.9,1.9-1.8,3.9-2.7,5.8C79.8,270.6,79.4,271.2,78.6,271z"/>
	<path class="st0" d="M91.5,341c0.2-0.2,0.5-0.5,0.8-0.5c1.3-0.5,2.7-0.8,4.1-1.2c0.7-0.2,1.5,0,2.2,0.1c1.4,0.2,2.9,0.5,4.2,0.5
		c-0.2-0.6-0.8-0.5-1.2-0.6c-0.7-0.2-1.4-0.5-2.1-0.8c-0.2-0.2-0.3-0.7-0.5-1c0.3-0.1,0.6-0.3,0.9-0.2c1.7,0.2,3.4,0.3,4.6,1.8
		c0.3,0.4,0.9,0.6,1.4,0.8c0.7,0.3,1.3,1.1,1.2,1.8c0,0.2-0.5,0.5-0.7,0.5c-1-0.3-1.9,0-2.7,0.6c-0.8,0.6-1.8,0.8-2.9,0.9
		c-0.9,0-1.8,0.2-2.7,0.2c-1.5,0-2.7-0.7-3.7-1.6c-0.6-0.5-1.3-0.8-2.1-0.8c-0.4,0-0.7-0.1-1.1-0.2C91.6,341.1,91.6,341.1,91.5,341z
		"/>
	<path class="st0" d="M78,283.7c-0.2-1.5-0.3-3-0.5-4.5c-0.5-3.2,1.2-5.6,2.9-8.1c0.6-0.9,1.3-1.8,2-2.8c0.2-0.3,0.5-0.6,0.8-0.8
		c0.2-0.2,0.5-0.2,0.7-0.2c0.1,0.2,0.2,0.5,0.2,0.7c-0.1,1.1-0.2,2.1-0.2,3.2c0,3-0.8,5.8-3,8c-0.2,0.2-0.2,0.5-0.4,0.7
		C79.6,281.1,78.8,282.4,78,283.7C78,283.8,78,283.7,78,283.7z"/>
	<path class="st0" d="M101.7,336.8c-1.9-0.6-2.3-2.7-3.9-3.6c0.2,0.5,0.4,0.8,0.5,1.3c0.1,0.2-0.1,0.5-0.1,0.7
		c-0.2-0.1-0.6,0-0.8-0.2c-0.4-0.4-0.7-0.8-1.1-1.3c-1-1.2-2-2.4-2.9-3.7c-0.5-0.6-0.6-1.5-0.9-2.2c-0.3-0.9-0.5-1.8-0.8-2.7
		c-0.1-0.4-0.2-0.9-0.1-1.1c0.4-0.4,0.7,0.1,1,0.4c0.5,0.4,0.9,0.8,1.5,1.1c1.5,0.7,2.9,1.5,3.9,3c0.9,1.4,2.2,2.5,2.9,4
		c0.5,1.2,0.8,2.2,0.8,3.5C101.8,336.4,101.8,336.6,101.7,336.8z"/>
	<path class="st0" d="M112.3,341.6c-0.8-0.2-1.5-0.4-2.2-0.6c-0.5-0.2-1.1-0.4-1.6-0.5c-0.8-0.2-1.3-0.7-1.8-1.2
		c-0.9-1.1-1.9-2.1-2.9-3.2c-0.2-0.3-0.5-0.6-0.7-0.9c-0.4-0.6-0.7-1.3-1-2c-0.2-0.4-0.3-0.8-0.5-1.2c0.1-0.1,0.2-0.2,0.2-0.2
		c0.5,0.2,1.2,0.4,1.7,0.7c2,1,3.5,2.6,4.9,4.2c1,1.1,2.1,2,3.1,3.1c0.4,0.5,0.7,1,1,1.5C112.4,341.4,112.3,341.5,112.3,341.6z"/>
	<path class="st0" d="M72.9,301.9c0.9,0.8,1.7,1.5,2.5,2.1c0.6,0.5,1.4,0.8,1.8,1.4c1,1.2,1.9,2.6,2.6,4c0.3,0.6,0.1,1.5,0.5,2.3
		c0.1,0.2,0,0.5-0.2,0.5c-0.1,0.1-0.5,0.1-0.5-0.1c-0.2-0.2-0.5-0.5-0.7-0.8c-0.2-0.5-0.6-0.7-1.1-0.5c-0.7,0.2-1.2,0.1-1.5-0.5
		c-0.3-0.5-0.8-0.9-1.2-1.4c-0.8-1-1.4-2-1.2-3.3c0.1-0.5-0.1-1-0.6-1.4C72.5,303.8,72.9,302.8,72.9,301.9z"/>
	<path class="st0" d="M84.3,262.6c0.1-0.6,0-1.2,0.2-1.8c0.3-1.2,0.5-2.2,0.6-3.4c0.1-1.5,1-2.6,1.8-3.7c0.2-0.2,0.8-0.2,1.2-0.1
		c0.7,0.3,0.9-0.1,1.1-0.5c0.2-0.8,1.9-1.8,2.6-1.5c0.2,0.1,0.4,0.5,0.3,0.7c-0.7,1-1.5,1.9-2.2,2.9c-0.1,0.2-0.3,0.2-0.3,0.4
		c-0.2,1.8-1.4,3.1-2.6,4.3c-0.7,0.7-1.2,1.5-1.8,2.3c-0.2,0.2-0.3,0.4-0.5,0.5C84.5,262.7,84.3,262.7,84.3,262.6z"/>
	<path class="st0" d="M95.2,245.7c-0.2,0.3-0.3,0.6-0.5,0.8c-0.6,0.9-1.3,1.8-1.9,2.8c-0.2,0.2-0.4,0.5-0.6,0.7
		c-1.2,0.6-2.3,1.3-3.5,1.8c-0.8,0.4-1.1,0.2-0.9-0.8c0.2-0.7,0.4-1.4,0.8-1.9c1.4-1.9,3.5-2.8,5.6-3.5
		C94.5,245.6,94.8,245.7,95.2,245.7z"/>
	<path class="st0" d="M85.9,253.1c-0.3,0.6-0.5,1.3-0.8,1.8c-0.2,0.2-0.8,0.3-1.2,0.2c-0.2-0.1-0.5-0.6-0.5-0.9
		c0.1-0.6,0.3-1.2,0.5-1.8c0.2-0.3,0.4-0.6,0.6-0.9c0.2-0.2,0.3-0.4,0.5-0.5c0.2,0.2,0.5,0.5,0.5,0.7c0.2,0.5,0.1,0.9,0.2,1.3
		C85.7,253,85.8,253.1,85.9,253.1z"/>
	<path class="st0" d="M91.4,329.1c-0.2-0.1-0.3,0-0.3-0.1c-0.8-1.4-2.2-2.5-2.6-4c-0.1-0.4-0.2-0.7,0.3-0.9c0.5-0.2,0.8-0.1,1,0.4
		c0.5,1.1,1.1,2.2,1.5,3.4C91.4,328.3,91.4,328.7,91.4,329.1z"/>
	<path class="st0" d="M95.2,335.5c0.8,0.5,1.6,1,2.3,1.5c0.2,0.2,0.2,0.8,0.1,1.1c-0.2,0.2-0.8,0.2-1.2,0.2
		c-0.3-0.1-0.6-0.4-0.8-0.6s-0.5-0.5-0.7-0.6c-0.4-0.2-0.8-0.4-0.6-0.8C94.4,335.9,94.8,335.7,95.2,335.5z"/>
	<path class="st0" d="M80,305.1c0-0.8,0.5-1.5,0.9-1.5c0.5,0,0.8,0.8,0.8,1.6c0,0.1,0,0.2-0.1,0.3c-0.2,0.5-0.2,1.2-0.8,1.1
		c-0.3-0.1-0.5-0.8-0.8-1.2C80,305.5,80,305.3,80,305.1z"/>
	<path class="st0" d="M79.1,306.6c-0.4-1.6-1.3-3-0.8-4.7C79.2,302.4,79.8,305.8,79.1,306.6z"/>
	<path class="st0" d="M81,301c0.2-0.8,0.2-1.5,0.4-2.2c0.1-0.2,0.5-0.3,0.7-0.3c0.2,0,0.5,0.3,0.5,0.5c-0.2,0.8-0.5,1.7-0.8,2.5
		c0,0.1-0.5,0.2-0.5,0.2C81.1,301.4,81,301.1,81,301z"/>
	<path class="st0" d="M75.1,269c0-0.6,0.2-1.1,0.7-1c0.2,0.1,0.7,0.5,0.7,0.6c-0.2,0.4-0.5,0.9-0.8,1
		C75.3,269.8,74.9,269.5,75.1,269z"/>
	<path class="st0" d="M149.5,270.1c0.5-0.8,0.8-1,1.5-0.5c0.6,0.5,0.4,0.9,0,1.5c0.4,0.5,1,1,0,1.4c-0.1,0.6-0.1,1.2-0.2,1.6
		c0,0.2-0.3,0.3-0.5,0.4c-0.8,0.1-1.2,0.8-1.3,1.5c-0.2,0.6-0.2,1.2-0.5,1.8c-0.3,0.7-1.2,0.8-1.6,0.2c-0.2-0.2-0.2-0.6,0-0.8
		c0.6-0.5,0.2-1.2,0.2-1.7c0-0.2-0.7-0.4-1.1-0.4c-0.5,0-1,0.1-1.6,0c0.2-0.2,0.4-0.5,0.6-0.5c0.8-0.2,1.5-0.5,2.4-0.6
		c0.6-0.1,1.1-0.2,1.4-0.8c-1.5-0.4-2.8,0.3-4.2,0.4c1.1-1.3,2.4-1.8,4.2-1.8c-1.2-0.5-2.3-0.8-3.4-0.6c-0.2,0-0.4,0.2-0.5,0.4
		c-0.2,0.2-0.5,0.4-0.6,0.4c-0.7-0.1-1,0.3-1.3,0.8c-0.3,0.5-0.8,0.8-1.1,1.3c0.3,0.1,0.7,0.2,1.2,0.2c-0.3,0.8-0.9,0.8-1.5,0.8
		c-0.2,0-0.5-0.4-0.8-0.7c-0.3-0.5-0.2-0.8,0.3-1.2c0.8-0.7,1.6-1.4,2.4-2.1c0.2-0.1,0.2-0.2,0.4-0.2
		C145.5,270.5,147.3,269.1,149.5,270.1z"/>
	<path class="st0" d="M125.7,276.2c-0.2,0.7-0.5,1.3-0.7,2c-0.2,0.5-0.5,0.9-0.6,1.5c-0.2,0.5-0.2,0.9,0.5,1.1
		c0.2,0,0.3,0.1,0.4,0.2c0.2,0.3,0.4,0.7,0.5,1c0,0.2-0.2,0.5-0.3,0.5c-0.3-0.1-0.8-0.2-1-0.4c-0.6-0.7-1.2-1.5-1.7-2.3
		c-0.3-0.5-0.5-1.2-0.5-1.7c0.1-1.1,0.2-2.2,0.5-3.3c0-0.2,0.2-0.5,0.3-0.6c0.4-0.2,0.9-0.6,1.3-0.5c0.8,0.2,1.1,1,1.2,1.8
		c0.1,0.3,0,0.6,0,0.8C125.6,276.2,125.7,276.2,125.7,276.2z M123.7,274.4c-0.8,0.8-1.2,3.2-0.5,3.9c0.6-0.5,1.6-0.6,1.6-1.8
		C124.7,275.6,124.4,274.9,123.7,274.4z"/>
	<path class="st0" d="M152.8,258.9c-0.2,0.8-0.5,1.2-1.2,1.2c-0.4-0.1-0.8-0.3-1-0.6c-0.2-0.5,0.8-1.5,1.5-1.4
		C152.3,258.1,152.6,258.6,152.8,258.9z"/>
	<path class="st0" d="M126.4,294.5c0.5,0.6,1,1.2,1.5,1.8c0.2,0.3,0.5,0.5,0.7,0.8c0.5,0.4,0.5,0.7,0.1,1.4
		c-0.5-0.7-0.9-1.3-1.4-1.9c-0.1-0.1-0.2-0.2-0.2-0.3C126.1,296.1,126.2,295.4,126.4,294.5z"/>
	<path class="st0" d="M143.4,321.8c-0.3,0.8-0.8,1.3-1.6,1.6c-0.2,0.1-0.5,0-0.5-0.1c-0.2-0.2-0.2-0.5-0.2-0.6
		C141.4,322.2,142.8,321.6,143.4,321.8z"/>
	<path class="st0" d="M131.1,300.8c-0.2-0.4-0.4-0.7-0.5-0.9c-0.3,0-0.8,0-0.8-0.1c-0.2-0.5-0.2-1-0.3-1.5c0.2,0.1,0.5,0,0.5,0.2
		c0.2,0.3,0.2,0.6,0.3,0.8c0.5,0.1,0.9,0.1,1,0.2c0.2,0.4,0.1,0.8,0.1,1.3C131.2,300.8,131.1,300.8,131.1,300.8z"/>
	<path class="st0" d="M142.5,320.6c-0.5,0.6-0.8,1.2-1.2,1.6c-0.1,0.1-0.5,0.2-0.5,0c-0.1-0.1-0.2-0.4-0.1-0.5
		C140.8,320.8,141.5,320.3,142.5,320.6z"/>
	<path class="st0" d="M133.8,302.3c-0.5-0.5-1-0.8-0.6-1.5c0.1-0.1,0.7,0,0.8,0.2C134.4,301.5,134.3,301.8,133.8,302.3z"/>
	<path class="st0" d="M140.6,320.3c-0.1,0.9-0.9,0.8-1.5,1.2C139,320.5,139.5,320.1,140.6,320.3z"/>
	<path class="st0" d="M152.9,261.1c-0.7,0-1.2,0-1.8,0c-0.2,0-0.2-0.2-0.4-0.3c0.1-0.2,0.2-0.3,0.3-0.4
		C151.7,260.2,152.3,260.3,152.9,261.1z"/>
	<path class="st0" d="M152.7,261.7c-0.5,0.7-0.8,0.7-1.7,0.1C151.6,261.2,152.1,261.4,152.7,261.7z"/>
	<path class="st0" d="M140,319.8c-0.4,0.2-0.6,0.5-0.8,0.5c-0.2,0.1-0.5-0.1-0.7-0.1c0-0.2,0-0.4,0.1-0.5c0.2-0.2,0.5-0.2,0.7-0.2
		C139.4,319.4,139.6,319.6,140,319.8z"/>
	<path class="st0" d="M138.4,317.6c0.5,0.5,0.7,0.9,0.1,1.2c-0.2,0.1-0.5-0.1-0.7-0.1C137.9,318.4,138.1,318,138.4,317.6z"/>
	<path class="st0" d="M125.4,294.4c-0.1-0.4-0.2-0.8-0.2-1.2c0.2,0,0.4,0,0.5-0.1c0,0.4,0.1,0.8,0.1,1.2
		C125.7,294.4,125.6,294.4,125.4,294.4z"/>
	<path class="st0" d="M132.4,301.5c-0.2-0.1-0.3-0.1-0.4-0.2c-0.2-0.4-0.2-0.7-0.3-1.1c0,0,0.2-0.1,0.4-0.2c0.1,0.3,0.2,0.6,0.3,1
		C132.4,301.2,132.4,301.3,132.4,301.5z"/>
	<path class="st0" d="M125.1,331.4c0.3,1.4,0.8,2.7,1.8,3.8c0.3,0.3,0.5,0.6,0.8,1c0.1,0.2,0,0.4,0,0.5c-0.2,0-0.4,0-0.6-0.1
		c-0.2-0.1-0.4-0.3-0.6-0.4c0.7,1.2,0.5,2.7,2,3.5c0.5,0.2,0.5,0.7,0.3,1.1c-0.2,0.5-0.5,0.3-0.9,0.1c-1.2,1.2-2.6,1.3-4.1,0.5
		c-0.2-0.1-0.3-0.4-0.5-0.5c0.2-0.2,0.4-0.4,0.6-0.5c0.6-0.2,1.2-0.2,1.8-0.4c0.5-0.2,0.9-0.4,0.6-1c-1.5-2.8-1.8-6-3.1-8.9
		c-1-2.3-2.1-4.6-3.2-6.9c-0.2-0.5-0.7-1-1-1.5c-0.2-0.2-0.1-0.5-0.2-0.8c0.3,0,0.8-0.2,1-0.1c0.3,0.2,0.6,0.6,0.8,0.9
		c0.8,1.5,1.5,3.1,2.4,4.6c0.2,0.4,0.5,0.8,0.8,1.1c2.1,2.2,3.6,4.7,5.3,7.2c0.2,0.3,0.4,0.7,0.5,1c0.1,0.2,0,0.7-0.1,0.7
		c-0.2,0.1-0.7,0.1-0.8-0.1c-0.5-0.6-1.1-1.2-1.4-1.9C126.9,333.1,126.1,332.1,125.1,331.4z"/>
	<path class="st0" d="M139.2,343.2c0.9,0.5,1.8,0.9,2.7,1.4c0.2,0.1,0.3,0.4,0.5,0.5c-0.2,0.2-0.5,0.4-0.7,0.3
		c-1.2-0.3-2.4-0.5-3.4-1.2c-1.5-0.9-3-2-4.4-3.2c-0.6-0.5-1.2-1.2-2-1.3c-0.2-0.1-0.5-0.2-0.6-0.5c-0.2-0.3-0.2-0.7-0.2-1.1
		c0.3,0.1,0.8,0,1,0.2c2.2,1.8,4.7,2.8,7.4,3.4c1,0.2,2.2,0.1,3.2,0.2c0.9,0.2,1.9,0.5,2.9,0.7c2.9,0.7,5.3,0.1,7.6-1.8
		c1.2-1.1,2.5-2.2,3.7-3.2c0.2-0.2,0.4-0.3,0.6-0.5c0.1,0.1,0.2,0.1,0.2,0.2c-0.3,0.6-0.5,1.4-1.1,1.8c-1.6,1.5-3.3,2.9-5,4.3
		c-1.2,1-2.7,1.1-4.2,0.8c-2.4-0.4-4.9-0.9-7.2-1.4c-0.2-0.1-0.5,0-0.7-0.1C139.3,343.1,139.3,343.1,139.2,343.2z"/>
	<path class="st0" d="M120.6,320.9c0.6-0.5,1.2-0.4,1.6,0c0.9,0.7,1.8,1.5,2.5,2.4c1.7,1.9,3.2,3.9,4.9,5.9c0.2,0.3,0.6,0.5,0.9,0.8
		c0.2,0.2,0.2,0.5,0.2,0.6c-0.2,0.2-0.5,0.3-0.8,0.2c-0.4-0.2-0.8-0.5-1.2-0.8c-1.9-2.2-3.7-4.5-5.6-6.8c-0.6-0.7-1.5-1.3-2.2-1.9
		C120.8,321.2,120.7,321,120.6,320.9z"/>
	<path class="st0" d="M132.5,346.5c-0.5-0.6-0.9-1.3-1.4-1.9c-0.3-0.4-0.8-0.8-1.2-1.2c-0.2-0.2-0.2-0.6-0.3-0.9c0.3,0,0.8-0.2,1,0
		c0.8,0.8,1.6,1.7,2.4,2.6C133.4,345.7,133.3,346.2,132.5,346.5z"/>
	<path class="st0" d="M133.9,333.4c1,0.5,1.9,1,2.9,1.6c0.2,0.1,0.1,0.8-0.1,1c-0.2,0.4-0.6,0.3-0.9,0c-0.7-0.5-1.4-0.8-2.1-1.4
		c-0.2-0.2-0.4-0.5-0.4-0.7C133.2,333.8,133.6,333.7,133.9,333.4z"/>
	<path class="st0" d="M124.4,335.7c-0.2,0.2-0.2,0.4-0.4,0.4c-0.2,0.1-0.4,0.1-0.5-0.1c-0.6-0.8-1.2-1.5-1.7-2.3
		c-0.2-0.2-0.1-0.5-0.1-0.8c0.3,0,0.8,0,0.8,0.2C123.2,333.9,123.7,334.8,124.4,335.7z"/>
	<path class="st0" d="M159,341.2c-0.1,0.2-0.2,0.6-0.3,0.8c-0.4,0.2-1.1-0.2-1.3-0.8c-0.1-0.3,0.1-0.7,0.2-1.1
		c0.5,0.2,0.8,0.4,1.2,0.5c-0.1-0.2-0.2-0.5-0.3-0.8c0.5-0.3,0.7-0.2,1.1,0.4C159.9,340.8,159.3,340.8,159,341.2z"/>
	<path class="st0" d="M130.7,346.1c-1-0.7-1.8-1.2-2.6-1.8c-0.2-0.2-0.1-0.5-0.1-0.8c0.3,0,0.7-0.2,0.8,0c0.7,0.5,1.3,1.2,1.8,1.8
		C130.8,345.3,130.7,345.7,130.7,346.1z"/>
	<path class="st0" d="M130.7,331.4c0.3,0.1,0.8,0,1,0.2c0.4,0.5,0.7,1,1,1.5c0.1,0.1-0.2,0.5-0.2,0.5c-0.3-0.1-0.8-0.1-0.9-0.2
		c-0.4-0.5-0.6-1.1-0.9-1.6C130.7,331.7,130.7,331.6,130.7,331.4z"/>
	<path class="st0" d="M147.6,335.5c0.3,0.5,0.5,0.8,0.6,1.1c0.1,0.2-0.2,0.4-0.3,0.5c-0.2-0.3-0.5-0.5-0.7-0.8
		C147.2,336.1,147.4,335.9,147.6,335.5z"/>
	<path class="st0" d="M114.1,336.9c0-0.5-0.1-1.1-0.1-1.5c0-0.5,1.2-1.1,1.6-0.7c0.2,0.2,0.2,0.6,0,0.8c-0.4,0.5-0.8,1-1.2,1.5
		C114.3,337,114.2,336.9,114.1,336.9z"/>
	<path class="st0" d="M114.9,329.5c0.5,0.3,1,0.5,1.3,1c0.2,0.2,0,0.7-0.1,1.1c0,0.1-0.5,0.1-0.8-0.1
		C114.7,331.1,114.5,330.2,114.9,329.5z"/>
	<path class="st0" d="M115.9,333.4c-0.1,0.1-0.2,0.5-0.5,0.5c-0.5,0.1-1-0.5-0.9-1.2c0-0.2,0.3-0.7,0.5-0.7
		C115.8,332.1,115.9,332.7,115.9,333.4z"/>
	<path class="st0" d="M115.9,329.6c-0.5-0.3-1-0.6-1.5-0.9c-0.2-0.1-0.2-0.5-0.1-0.6c0.1-0.2,0.4-0.2,0.6-0.2
		c0.7,0.2,1.1,0.7,1.2,1.5C116,329.4,115.9,329.5,115.9,329.6z"/>
	<path class="st0" d="M119.9,286.7c-0.3,0.5-0.5,0.8-0.8,1.2c-0.1,0.1-0.3,0.2-0.5,0.2c-1.2-0.1-3.2-1.8-3.4-3c-0.1-0.3,0-0.6,0-1.1
		c0.3,0.3,0.5,0.5,0.8,0.7c0.8-1.2-0.2-2.1-0.1-3.2c-0.1,0-0.2,0-0.2,0c0,0.2,0.1,0.5,0.1,0.8c-0.5,0.2-0.8,0.1-1-0.4
		c-0.1-0.4-0.2-0.7-0.3-1.1c0-0.2,0.1-0.5,0.1-0.7c0.2,0.1,0.5,0,0.7,0.2c1.1,0.8,1.5,1.9,1.5,3.2c0,0.2,0,0.4,0,0.5
		c0,1.4,0.5,2,1.8,2.4C119.1,286.5,119.4,286.6,119.9,286.7z"/>
	<path class="st0" d="M155.3,317.7c0.3,0.2,0.7,0.4,1,0.6c1.1,0.8,2.2,1.7,3.1,2.6c0.7,0.7,1.4,1.4,2.2,1.9c0.7,0.5,1,1.5,1.5,2.3
		c-0.1,0-0.2,0.1-0.2,0.1c0.6,0.5,1.3,1.1,1.9,1.6c0.1,0.1,0.2,0.3,0.2,0.4c0.2,0.4,0.5,0.8,0.8,1.1c0.1,0,0.2-0.1,0.2-0.1
		c-0.2,0.4-0.4,0.8-0.6,1.3c0.2,0.1,0.2,0.2,0.3,0.2c0.3,0.2,0.5,0.4,0.8,0.5c-0.3,0.4-0.6,0.8-1,1.1c-0.2,0.1-0.8-0.1-0.9-0.3
		c-0.8-1.3-1.8-2.5-2.5-4c-0.9-2.1-2.5-3.5-4.2-5.1c-1-0.8-1.8-1.9-2.7-2.9c-0.2-0.3-0.3-0.8-0.5-1.2
		C155.1,317.9,155.2,317.8,155.3,317.7z"/>
	<path class="st0" d="M167.1,334.5c0-1,0.3-1.8,0.9-2.5c0.2-0.2,0.5-0.2,0.7-0.4c0.1,0.3,0.2,0.6,0.2,0.8
		C168.5,333.4,168,334,167.1,334.5z"/>
	<path class="st0" d="M168,331.5c-0.6,0.5-1.2,1-1.8,1.5c-0.2-0.2-0.5-0.5-0.4-0.6c0.4-0.5,0.8-1.1,1.3-1.5c0.1-0.1,0.5,0.2,0.8,0.3
		C167.9,331.3,168,331.4,168,331.5z"/>
	<path class="st0" d="M120.2,252.3c0.6,0.8,1.3,1.5,1.8,2.3c0.2,0.3,0,0.8-0.1,1.3c-0.4-0.2-0.8-0.3-1.2-0.5
		c-0.2-0.1-0.2-0.3-0.3-0.5c-0.2-0.8-0.4-1.5-0.5-2.3c0-0.1,0-0.2,0-0.4C120,252.3,120.1,252.3,120.2,252.3z"/>
	<path class="st0" d="M136.7,248c-0.6-0.1-1.1,0-1.5-0.2c-0.2-0.1-0.4-0.5-0.5-0.8c0.2-0.1,0.6-0.3,0.8-0.2
		C135.8,247,136.5,247.2,136.7,248z"/>
	<path class="st0" d="M140.9,249.8c0.9-0.4,1.5-0.2,1.8,0.7C141.7,250.6,141.4,250.5,140.9,249.8z"/>
	<path class="st0" d="M151.3,251.9c0.5,1.4,0,2.6-1.5,2.8c-0.2,0-0.5-0.2-0.5-0.3c0-0.2,0.2-0.7,0.3-0.7
		C150.4,253.5,150.9,252.8,151.3,251.9z"/>
	<path class="st0" d="M120.3,315.1c-0.3-0.7-0.6-1.2-0.8-1.6c-0.1-0.2,0.1-0.5,0.2-0.5c0.2-0.1,0.5,0,0.6,0.2
		C120.7,313.6,120.7,314.2,120.3,315.1z"/>
</g>
</svg>
