<?xml version="1.0" encoding="utf-8"?>
<!-- Generator: Adobe Illustrator 22.0.0, SVG Export Plug-In . SVG Version: 6.00 Build 0)  -->
<svg version="1.1" id="Layer_1" xmlns="http://www.w3.org/2000/svg" xmlns:xlink="http://www.w3.org/1999/xlink" x="0px" y="0px"
	 viewBox="0 0 600 600" style="enable-background:new 0 0 600 600;" xml:space="preserve">
<style type="text/css">
	.st0{opacity:0.6;fill:#FFFFFF;enable-background:new    ;}
	.st1{fill:#FFFFFF;}
</style>
<g>
	<path class="st0" d="M431.4,213.7c-3.2,10.3-9.7,17-20.6,18.9c-1.7,0.3-3.5,0.4-5.2,0.4c-19.9,0-39.8-0.1-59.8,0.1
		c-2.9,0-4.1-0.8-4.9-3.5c-3.1-9.6-6.6-19-9.7-28.6c-0.8-2.4-1.7-3.6-4.5-3.5c-5.6,0.2-11.2,0.1-16.7,0.1c-2,0-3.1,0.2-3,2.8
		c0.2,8.4,0.2,16.7,0,25.1c-0.1,2.2,0.5,2.8,2.6,2.7c5.4-0.2,10.9-0.1,16.3,0c1.6,0,3.5-0.7,3.5,2.3c0.1,2.9-1.6,2.6-3.3,2.6
		c-7,0-14-0.1-21.1,0.1c-2.6,0.1-3.2-0.8-3.2-3.2c0.1-11.4,0.1-22.9,0-34.3c0-2.3,0.5-3.1,2.9-3c8.7,0.2,17.3,0.2,26,0
		c2.4-0.1,3.2,1.1,3.9,3.1c3.2,9.8,6.6,19.6,10,29.4c0.6,1.7,1,3.2,3.4,3.2c20.1-0.2,40.2,0.2,60.2-0.5c13.6-0.5,20.9-12,17.1-25.1
		c-5.1-17.5-10.2-34.9-15.4-52.5c-2.6-8.6-7.4-12.2-16.4-12.2c-11.8,0-23.8,0.1-35.6-0.1c-2.7,0-3.1,0.7-2.3,3.2
		c7,22.4,14,44.8,20.8,67.2c0.7,2.3,1.6,2.9,3.8,2.9c11.7,0.2,11.7,0.2,8.2-11.2c-4.4-14.2-8.8-28.4-13.2-42.6c-0.8-2.7-1.6-5.4-5-6
		c-2.2-0.4-1.5-2.3-1.4-3.5c0.1-1.9,1.6-1.2,2.6-1.1c4.2,0.2,6.5,2.9,7.5,6.3c5.5,17.1,11,34.1,16,51.3c2.3,7.8-1.5,11.9-9.8,11.8
		c-3.8,0-8.6,1.2-11.1-0.6s-2.7-6.7-3.8-10.3c-7.5-24.2-15-48.4-22.5-72.6c17,0,34,0,51,0c9.5,0.8,14.3,7,16.8,15.3
		c4.8,15.9,9.6,31.8,14.1,47.8c0.8,2.6,0.7,5.4,1.6,8.1C431.4,207.3,431.4,210.6,431.4,213.7z"/>
	<path class="st0" d="M169.3,250.7c-0.7-3.4,0.6-4.4,4.2-4.4c82.9,0.1,165.8,0.1,248.7,0c3.5,0,4.9,0.9,4.1,4.4
		C340.5,250.7,254.9,250.7,169.3,250.7z"/>
	<path class="st0" d="M169.3,467.2c-0.7-3.4,0.6-4.4,4.2-4.4c82.9,0.1,165.8,0.1,248.7,0c3.5,0,4.9,0.9,4.1,4.4
		C340.5,467.2,254.9,467.2,169.3,467.2z"/>
	<path class="st0" d="M331.6,183.7c-5.8-16.9-11.5-33.9-17.1-50.9c-46.6,0-93.3,0-139.9,0c-5.8,2-6.3,2.6-6.6,8.4
		c0,13,0,25.9,0,38.9l0,0c0.2,0,0.2,0.2,0.4,0.4c1.7,4.8,4.3,6.8,9.4,6.8c13.7,0.1,27.5,0,41.3,0c5.4,0,7.1,1.6,7.2,7
		c0.1,4.2,0.2,8.5,0,12.8c-0.2,4.6-2,6.2-6.6,6.3c-9.8,0.3-10.2-0.1-10-9.7c0.1-3.3,1.2-7.7-0.5-9.7c-1.7-2.2-6.3-0.7-9.6-0.7
		c-10.6,0.2-21.4-0.5-32,0.3c0,10.9,0,21.7,0,32.5c2.5,5.4,6.6,7.2,12.6,7.2c26.1-0.3,52.2-0.2,78.3-0.2c6.9,0,10.3-3.2,10.3-10.2
		c0.1-14.3,0.1-28.8,0-43.1c0-7.2-3.9-10.9-11.2-10.9c-11.7,0-23.5-0.1-35.2,0.1c-12.2,0.2-11.9,0.3-11.8-12.2
		c0.1-5.2,1.3-6.5,6.5-6.5c26.9,0,53.7,0.1,80.5-0.1c3.1,0,3.9,0.8,3.9,3.9c0,9.7,0.5,19.3,0.5,29c0,2.2,0.5,3.2,2.9,3.1
		c8.2-0.2,16.5-0.1,24.6-0.1C331.4,186.3,332.3,186,331.6,183.7z M311,181.4c-3.5,0.3-4.2-1.2-4.2-4.1c-0.1-9.2-0.4-18.5-0.2-27.7
		c0.1-3.7-1.1-4.5-4.7-4.5c-28.2,0.1-56.3,0-84.5-0.1c-7.9,0-11.5,3.8-11.8,11.8c-0.5,12.8,1.6,18,17,17.4c11.7-0.5,23.5-0.1,35.2,0
		c4.8,0,6.3,1.4,6.3,6.2c0,13.8,0,27.5-0.1,41.4c0,4.9-1.4,6.4-6.2,6.4c-26.4,0-52.8-0.1-79.2-0.2c-5,0-6-1.1-6-6
		c0-7,0.1-14.1-0.1-21.1c0-2.3,0.7-3,3-3c8.7,0.2,17.3,0.2,26,0.1c2.3,0,3.1,0.8,2.9,3.1c-0.2,2.9-0.2,5.9,0,8.8
		c0.3,4.9,3.5,8.1,8.5,8.2c2.8,0.1,5.6,0.1,8.4,0c5.1-0.1,9.3-3.9,9.4-9c0.2-5.9,0.2-11.7,0.1-17.6c-0.2-5.7-4.6-9.3-11.1-9.4
		c-13.2-0.1-26.4-0.1-39.6-0.1c-6.9,0-7.4-0.5-7.4-7.5c0-10.3,0-20.5,0.1-30.8c0-5.1,0.8-5.8,6-5.8c42.9-0.2,85.9,0,128.9,0
		c2.8,0,4,0.8,4.8,3.5c3.8,12.2,7.9,24.4,12,36.5c0.3,0.9,0.5,1.9,0.8,3.2C320.3,181.4,315.6,181.1,311,181.4z"/>
	<g>
		<path class="st1" d="M180.6,293.8c1.9,1,4.8,1.9,7.7,1.9c4.4,0,6.9-2,6.9-4.8c0-2.6-1.8-4.2-6.3-5.7c-5.4-1.7-8.8-4-8.8-8
			c0-4.5,4.3-7.7,10.7-7.7c3.4,0,5.9,0.7,7.3,1.4l-1.2,3c-1.1-0.5-3.3-1.4-6.3-1.4c-4.5,0-6.3,2.3-6.3,4.2c0,2.6,2,3.9,6.6,5.4
			c5.6,1.9,8.5,4.2,8.5,8.3c0,4.4-3.8,8.2-11.6,8.2c-3.2,0-6.7-0.8-8.5-1.8L180.6,293.8z"/>
		<path class="st1" d="M238.2,283.8c0,9.7-6.9,14.9-15.4,14.9c-8.8,0-14.9-5.8-14.9-14.4c0-9,6.6-14.9,15.4-14.9
			C232.3,269.4,238.2,275.4,238.2,283.8z M212.3,284.2c0,6,3.8,11.5,10.6,11.5c6.8,0,10.6-5.4,10.6-11.8c0-5.7-3.5-11.5-10.6-11.5
			C215.9,272.5,212.3,278,212.3,284.2z"/>
		<path class="st1" d="M271.2,297.3c-1.6,0.7-4.8,1.4-8.8,1.4c-9.4,0-16.4-5.1-16.4-14.3c0-8.9,7-14.9,17.4-14.9
			c4.2,0,6.7,0.8,7.8,1.3l-1.1,3c-1.7-0.7-3.9-1.2-6.7-1.2c-7.8,0-13,4.2-13,11.7c0,6.9,4.7,11.4,12.8,11.4c2.6,0,5.3-0.5,7-1.2
			L271.2,297.3z"/>
		<path class="st1" d="M285.2,269.9v28.4h-4.3v-28.4H285.2z"/>
		<path class="st1" d="M314.2,285h-12.9v10.2h14.4v3.1H297v-28.4h18v3.1h-13.7v9h12.9L314.2,285L314.2,285z"/>
		<path class="st1" d="M325.5,270.3c2.6-0.3,5.7-0.6,9.1-0.6c6.2,0,10.6,1.2,13.4,3.5c2.9,2.3,4.7,5.6,4.7,10.2
			c0,4.6-1.7,8.4-4.8,11c-3.1,2.6-8.2,4.1-14.7,4.1c-3,0-5.6-0.2-7.8-0.3L325.5,270.3L325.5,270.3z M329.7,295.3
			c1.1,0.2,2.6,0.2,4.3,0.2c9.1,0,14.1-4.4,14.1-12c0.1-6.7-4.4-10.9-13.4-10.9c-2.2,0-3.9,0.2-5.1,0.4L329.7,295.3L329.7,295.3z"/>
		<path class="st1" d="M367.2,289.4l-3.5,8.9h-4.5l11.3-28.4h5.2l11.3,28.4h-4.6l-3.5-8.9H367.2z M378.2,286.5l-3.2-8.2
			c-0.8-1.9-1.2-3.5-1.7-5.2h-0.1c-0.5,1.7-1.1,3.4-1.7,5.1l-3.2,8.2H378.2z"/>
		<path class="st1" d="M396.3,270.3c2.6-0.3,5.7-0.6,9.1-0.6c6.2,0,10.6,1.2,13.4,3.5c2.9,2.3,4.7,5.6,4.7,10.2
			c0,4.6-1.7,8.4-4.8,11s-8.2,4.1-14.7,4.1c-3,0-5.6-0.2-7.8-0.3L396.3,270.3L396.3,270.3z M400.6,295.3c1.1,0.2,2.6,0.2,4.3,0.2
			c9.1,0,14.1-4.4,14.1-12c0.1-6.7-4.4-10.9-13.4-10.9c-2.2,0-3.9,0.2-5.1,0.4L400.6,295.3L400.6,295.3z"/>
	</g>
	<g>
		<path class="st1" d="M186.5,338.6l-3.5,8.9h-4.5l11.3-28.4h5.2l11.3,28.4h-4.6l-3.5-8.9H186.5z M197.5,335.7l-3.2-8.2
			c-0.8-1.9-1.2-3.5-1.7-5.2h-0.1c-0.5,1.7-1.1,3.4-1.7,5.1l-3.2,8.2H197.5z"/>
		<path class="st1" d="M211.4,319.5c2.2-0.4,5.3-0.6,8.2-0.6c4.6,0,7.5,0.7,9.6,2.3c1.7,1.3,2.6,3.2,2.6,5.4c0,3.8-2.8,6.2-6.3,7.2
			v0.2c2.6,0.8,4.1,2.8,4.9,5.7c1.1,3.9,1.9,6.7,2.6,7.8h-4.5c-0.5-0.8-1.3-3.2-2.2-6.8c-1-3.9-2.8-5.4-6.6-5.5h-4.1v12.3h-4.3
			V319.5z M215.7,332.5h4.4c4.6,0,7.5-2.1,7.5-5.4c0-3.6-3.1-5.3-7.6-5.3c-2,0-3.5,0.2-4.2,0.3L215.7,332.5L215.7,332.5z"/>
		<path class="st1" d="M263.4,346.3c-1.9,0.6-5.7,1.6-10.2,1.6c-5.1,0-9.1-1.1-12.5-3.8c-2.9-2.3-4.6-6.1-4.6-10.6
			c0.1-8.5,6.9-14.6,18-14.6c3.8,0,6.9,0.7,8.3,1.3l-1.1,3c-1.8-0.7-4-1.2-7.3-1.2c-8.1,0-13.4,4.3-13.4,11.4
			c0,7.2,5.1,11.5,12.8,11.5c2.8,0,4.8-0.3,5.7-0.8v-8.5h-6.7v-2.9h10.9L263.4,346.3L263.4,346.3z"/>
		<path class="st1" d="M287.1,334.2h-12.9v10.2h14.4v3.1H270v-28.4h18v3.1h-13.7v9h12.9L287.1,334.2L287.1,334.2z"/>
		<path class="st1" d="M294.2,347.5v-28.4h4.7l10.6,14.3c2.5,3.3,4.4,6.3,6,9.2l0.1-0.1c-0.4-3.8-0.5-7.2-0.5-11.6v-11.8h4.1v28.4
			h-4.3l-10.6-14.4c-2.3-3.2-4.5-6.4-6.2-9.4l-0.2,0.1c0.2,3.5,0.4,6.9,0.4,11.7v12.1H294.2z"/>
		<path class="st1" d="M333,322.3h-10.1v-3.1h24.6v3.1h-10.2v25.2H333V322.3z"/>
		<path class="st1" d="M355.6,319.2v28.4h-4.3v-28.4H355.6z"/>
		<path class="st1" d="M363.1,347.5v-28.4h4.7l10.6,14.3c2.5,3.3,4.4,6.3,6,9.2l0.1-0.1c-0.4-3.8-0.5-7.2-0.5-11.6v-11.8h4.1v28.4
			h-4.3l-10.6-14.4c-2.3-3.2-4.5-6.4-6.2-9.4l-0.2,0.1c0.2,3.5,0.4,6.9,0.4,11.7v12.1H363.1z"/>
		<path class="st1" d="M400.9,338.6l-3.5,8.9H393l11.3-28.4h5.2l11.3,28.4h-4.6l-3.5-8.9H400.9z M411.8,335.7l-3.2-8.2
			c-0.8-1.9-1.2-3.5-1.7-5.2h-0.1c-0.5,1.7-1.1,3.4-1.7,5.1l-3.2,8.2H411.8z"/>
	</g>
	<g>
		<path class="st1" d="M177.6,416.3c-2.2,2.6-3.8,5.9-3.8,10.6c0,4.6,1.7,7.9,3.8,10.5h-2.1c-1.9-2.1-4-5.4-4-10.5
			c0-5.1,2-8.4,4-10.6H177.6z"/>
		<path class="st1" d="M184,428.8l-2.1,5.5h-2.7l6.9-17.4h3.2l6.9,17.4h-2.8l-2.2-5.5H184z M190.7,427l-2-5
			c-0.5-1.1-0.8-2.2-1.1-3.2h-0.1c-0.3,1.1-0.6,2.1-1.1,3.2l-2,5.1L190.7,427L190.7,427z"/>
		<path class="st1" d="M199.4,431.5c1.2,0.6,2.9,1.1,4.8,1.1c2.7,0,4.3-1.2,4.3-2.9c0-1.7-1.1-2.6-3.8-3.5c-3.3-1-5.4-2.5-5.4-4.9
			c0-2.7,2.6-4.8,6.6-4.8c2.1,0,3.6,0.4,4.5,0.8l-0.8,1.8c-0.7-0.3-2-0.8-3.8-0.8c-2.8,0-3.8,1.4-3.8,2.6c0,1.7,1.2,2.4,4.1,3.4
			c3.5,1.1,5.2,2.6,5.2,5.1c0,2.7-2.3,5-7.2,5c-2,0-4.2-0.5-5.2-1.1L199.4,431.5z"/>
		<path class="st1" d="M232.8,425.4c0,6-4.3,9.2-9.5,9.2c-5.4,0-9.2-3.5-9.2-8.8c0-5.5,4-9.1,9.5-9.1
			C229.2,416.5,232.8,420.2,232.8,425.4z M216.9,425.7c0,3.7,2.3,7.1,6.5,7.1c4.2,0,6.6-3.3,6.6-7.2c0-3.5-2.1-7.1-6.5-7.1
			S216.9,421.8,216.9,425.7z"/>
		<path class="st1" d="M251.1,433.7c-1,0.4-2.9,0.8-5.4,0.8c-5.7,0-10.1-3.1-10.1-8.8c0-5.4,4.3-9.1,10.6-9.1c2.6,0,4.2,0.5,4.8,0.8
			l-0.6,1.8c-1-0.4-2.4-0.8-4.2-0.8c-4.8,0-8,2.6-8,7.2c0,4.3,2.9,7,7.8,7c1.6,0,3.2-0.3,4.3-0.8L251.1,433.7z"/>
		<path class="st1" d="M257.6,416.8v17.4h-2.6v-17.4H257.6z"/>
		<path class="st1" d="M266.1,428.8l-2.1,5.5h-2.7l6.9-17.4h3.2l6.9,17.4h-2.8l-2.2-5.5H266.1z M272.7,427l-2-5
			c-0.5-1.1-0.8-2.2-1.1-3.2h-0.1c-0.3,1.1-0.6,2.1-1.1,3.2l-2,5.1L272.7,427L272.7,427z"/>
		<path class="st1" d="M295.7,433.7c-1,0.4-2.9,0.8-5.4,0.8c-5.7,0-10.1-3.1-10.1-8.8c0-5.4,4.3-9.1,10.6-9.1c2.6,0,4.2,0.5,4.8,0.8
			l-0.6,1.8c-1-0.4-2.4-0.8-4.2-0.8c-4.8,0-8,2.6-8,7.2c0,4.3,2.9,7,7.8,7c1.6,0,3.2-0.3,4.3-0.8L295.7,433.7z"/>
		<path class="st1" d="M302.2,416.8v17.4h-2.6v-17.4H302.2z"/>
		<path class="st1" d="M324.9,425.4c0,6-4.3,9.2-9.5,9.2c-5.4,0-9.2-3.5-9.2-8.8c0-5.5,4-9.1,9.5-9.1
			C321.3,416.5,324.9,420.2,324.9,425.4z M309,425.7c0,3.7,2.3,7.1,6.5,7.1s6.6-3.3,6.6-7.2c0-3.5-2.1-7.1-6.5-7.1
			C311.2,418.4,309,421.8,309,425.7z M320,412.8l-3.8,3h-2.2l2.8-3H320z"/>
		<path class="st1" d="M328.9,434.3v-17.4h2.9l6.6,8.8c1.5,2,2.7,3.8,3.7,5.7h0.1c-0.2-2.3-0.3-4.5-0.3-7.2v-7.3h2.5v17.4h-2.6
			l-6.5-8.8c-1.4-2-2.8-3.9-3.8-5.8h-0.1c0.2,2.2,0.2,4.3,0.2,7.2v7.5L328.9,434.3L328.9,434.3z"/>
		<path class="st1" d="M370.6,433.7c-1,0.4-2.9,0.8-5.4,0.8c-5.7,0-10.1-3.1-10.1-8.8c0-5.4,4.3-9.1,10.6-9.1c2.6,0,4.2,0.5,4.8,0.8
			l-0.6,1.8c-1-0.4-2.4-0.8-4.2-0.8c-4.8,0-8,2.6-8,7.2c0,4.3,2.9,7,7.8,7c1.6,0,3.2-0.3,4.3-0.8L370.6,433.7z"/>
		<path class="st1" d="M377.2,416.8v17.4h-2.6v-17.4H377.2z"/>
		<path class="st1" d="M386.8,434.3l-6.6-17.4h2.9l3.2,8.6c0.9,2.3,1.7,4.5,2.2,6.5h0.1c0.6-2,1.4-4.2,2.3-6.5l3.5-8.6h2.8
			l-7.3,17.4H386.8z"/>
		<path class="st1" d="M402.5,416.8v17.4h-2.6v-17.4H402.5z"/>
		<path class="st1" d="M407.7,416.8h2.6v15.5h8.8v1.9h-11.4V416.8z"/>
		<path class="st1" d="M420.8,437.4c2.2-2.6,3.8-5.9,3.8-10.6c0-4.6-1.7-7.9-3.8-10.5h2c2,2.1,4,5.4,4,10.5s-2,8.4-4,10.6H420.8z"/>
	</g>
	<g>
		<path class="st1" d="M176.2,371.6c2.2-0.3,4.8-0.5,7.6-0.5c5.1,0,8.8,1.1,11.2,2.9c2.5,2,3.9,4.7,3.9,8.5c0,3.8-1.4,7-4,9.2
			c-2.6,2.2-6.9,3.4-12.3,3.4c-2.6,0-4.7-0.1-6.5-0.3L176.2,371.6L176.2,371.6z M179.7,392.6c0.9,0.2,2.2,0.2,3.6,0.2
			c7.7,0,11.8-3.6,11.8-10c0.1-5.6-3.7-9.1-11.2-9.1c-1.9,0-3.2,0.2-4.2,0.3V392.6z"/>
		<path class="st1" d="M221.6,383.9h-10.8v8.5h12.1v2.6h-15.6v-23.7h15v2.6h-11.4v7.5h10.7V383.9z"/>
		<path class="st1" d="M239.3,367c2.6-0.3,5.7-0.6,9.1-0.6c6.2,0,10.6,1.2,13.4,3.5c2.9,2.3,4.7,5.6,4.7,10.2c0,4.6-1.7,8.4-4.8,11
			c-3.1,2.6-8.2,4.1-14.7,4.1c-3,0-5.6-0.2-7.8-0.3V367z M243.6,392.2c1.1,0.2,2.6,0.2,4.3,0.2c9.1,0,14.1-4.4,14.1-12
			c0.1-6.7-4.4-10.9-13.4-10.9c-2.2,0-3.9,0.2-5.1,0.4L243.6,392.2L243.6,392.2z"/>
		<path class="st1" d="M274.5,366.6V395h-4.3v-28.4H274.5z"/>
		<path class="st1" d="M285.4,386.1l-3.5,8.9h-4.5l11.3-28.4h5.2l11.3,28.4h-4.6l-3.5-8.9H285.4z M296.3,383.2l-3.2-8.2
			c-0.8-1.9-1.2-3.5-1.7-5.2h-0.1c-0.5,1.7-1.1,3.4-1.7,5.1l-3.2,8.2H296.3z"/>
		<path class="st1" d="M308.3,367c1.9-0.3,4.8-0.6,7.8-0.6c4.3,0,7,0.6,9.1,2c1.7,1.1,2.8,2.8,2.8,5c0,2.7-2.1,5.1-5.6,6.2v0.1
			c3.2,0.7,6.9,2.9,6.9,7.1c0,2.4-1.1,4.3-2.8,5.7c-2.3,1.8-6,2.6-11.5,2.6c-2.9,0-5.2-0.2-6.6-0.3V367H308.3z M312.6,378.6h3.9
			c4.5,0,7.2-2,7.2-4.8c0-3.3-2.9-4.6-7.3-4.6c-2,0-3.1,0.2-3.8,0.2V378.6z M312.6,392.2c0.8,0.2,2,0.2,3.6,0.2
			c4.5,0,8.5-1.4,8.5-5.5c0-3.8-3.9-5.4-8.6-5.4h-3.5L312.6,392.2L312.6,392.2z"/>
		<path class="st1" d="M350.2,381.7h-12.9v10.2h14.4v3.1h-18.6v-28.4h18v3.1h-13.7v9h12.9L350.2,381.7L350.2,381.7z"/>
		<path class="st1" d="M362.5,369.8h-10.1v-3.1h24.6v3.1h-10.2V395h-4.3V369.8z"/>
		<path class="st1" d="M395.9,381.7H383v10.2h14.4v3.1h-18.6v-28.4h18v3.1h-13.7v9H396L395.9,381.7L395.9,381.7z"/>
		<path class="st1" d="M400.4,390.6c1.9,1,4.8,1.9,7.7,1.9c4.4,0,6.9-2,6.9-4.8c0-2.6-1.8-4.2-6.3-5.7c-5.4-1.7-8.8-4-8.8-8
			c0-4.5,4.3-7.7,10.7-7.7c3.4,0,5.9,0.7,7.3,1.4l-1.2,3c-1.1-0.5-3.3-1.4-6.3-1.4c-4.5,0-6.3,2.3-6.3,4.2c0,2.6,2,3.9,6.6,5.4
			c5.6,1.9,8.5,4.2,8.5,8.3c0,4.4-3.8,8.2-11.6,8.2c-3.2,0-6.7-0.8-8.5-1.8L400.4,390.6z"/>
	</g>
</g>
</svg>
