<?xml version="1.0" encoding="utf-8"?>
<!-- Generator: Adobe Illustrator 22.0.0, SVG Export Plug-In . SVG Version: 6.00 Build 0)  -->
<svg version="1.1" id="Layer_1" xmlns="http://www.w3.org/2000/svg" xmlns:xlink="http://www.w3.org/1999/xlink" x="0px" y="0px"
	 viewBox="0 0 600 600" style="enable-background:new 0 0 600 600;" xml:space="preserve">
<style type="text/css">
	.st0{fill:#FFFFFF;}
	.st1{opacity:0.85;fill:#FFFFFF;enable-background:new    ;}
	.st2{opacity:0.65;fill:#FFFFFF;enable-background:new    ;}
</style>
<path class="st0" d="M-1011-315.5c-0.2-0.4-0.4-0.7-0.6-1.1c-6.2-6.8-9.8-15.1-13.3-23.5c-2.4-5.9-4.6-12-6.3-18.2
	c-0.3-1.1-0.6-2.2-0.3-3.4c0.8-7.6-2.2-14.7-2.8-22.2c-0.8-9.7-0.7-19.5-0.7-29.2c0-0.5,0-1,0-1.5c0-50.4,0-100.8,0-151.2
	c0,50.3,0,100.6-0.1,151c0,4.3-0.7,8.6,0.1,12.9c0.3,1.5,0.4,3.4-1.2,4.6c-2.5-1.3-1.2-3.6-1.2-5.3c-0.1-57.3-0.1-114.7,0-172
	c0-2.6-1.1-5.3,0.5-7.8l-0.1,0.1c0.4-0.5,0.8-0.5,1.2,0c0.4,0.9,0.1,1.9,0.2,2.9c0,0.6,0,1.2,0,1.9c0.2-1.3-0.2-2.6,0.5-3.8
	c1.8-1.7,4.1-1.4,6.2-1.4c28.8,0.2,57.6-0.4,86.4,0.3c10.9,0.3,10.9,0.3,10.9,11.1c0,55.6,0,111.3,0,166.9c0,2,0.3,4.1,0,5
	c0-0.2,0-1.4,0-2.7c0-59.5,0-118.9,0-178.4c1.1-1.9,1.8-0.7,2.3,0.4c1,2.2,0.6,4.6,0.6,6.9c0,60.1-0.1,120.2,0.1,180.3
	c0,13.2,4.7,25,14.1,34.7c10.4,10.7,23.3,13.6,37.5,12c15.8-1.7,27.1-10.1,34-24.5c0.6-1.2,1.2-2.4,2.2-3.3c1.1-0.3,2-0.9,2.2-2.2
	c0.7-4.9,3.8-9.6,1.7-14.8c-0.6-2.2-0.4-4.2,1.1-6c0.7-1.6,0.4-3.3,0.4-4.9c0-57.3,0-114.7,0-172c0-1.8-0.1-3.7,0.2-5.5
	c1.2-4,4.6-3.3,7.4-3.3c21.4-0.1,42.9,0,64.3,0c9,0,17.9-0.2,26.9,0.1c2.8,0.1,6.2-0.5,7.6,3.2c0.5,2.5,0.3,5,0.3,7.5
	c0,51.6,0,103.3,0,154.9c0,2.7-0.3,5.3,0.5,7.9c0.7,17-1.1,33.7-6.2,50c-1.6,1.1-2.8,2.5-3.4,4.6c-1.7,6.5-3.8,12.9-6.9,18.9
	c-0.4,0.8-0.3,1.6-0.2,2.4c-0.1,0.7-0.5,1.3-1,1.7c-4.1,5.4-8.1,10.8-11.5,16.6c-2.6,4.4-5.9,7.8-9.7,11c-3,2.6-6.3,4.9-6.7,9.4
	c-1.3,3.3-4.5,4.8-7.1,6.7c-9.4,6.9-19.6,12.6-30.5,16.9c-1.7,0.7-3.4,1.4-5.3,1.4c-5.5-0.7-10.1,1.3-14.4,4.5c-5,2.6-10.6,3-16,3.7
	c-3.7,0-7.4,0.2-11.1,1c-17,0-34,0-51,0c-13-2.1-26-4.3-38.5-8.6c-1.9-0.6-3.8-1.2-5.5-2.3c-13.6-5.7-26.3-13-37.9-22.1
	C-998.6-299.9-1005.9-306.8-1011-315.5z"/>
<path class="st0" d="M-515-587.5c0.7,0,1.3,0,2,0c2.7,0.8,5.3,0.8,8,0c9.3,0,18.7,0,28,0c1.9,1.2,4.1,0.1,6.1,0.7
	c9.5,0.3,18.7,2.3,27.8,5c1.7,0.5,3.6,0.8,5,2.2c-0.7,2-0.6,2,1.7,2.3c5.5,0.9,10.9,2.3,15.1,6c3.5,3.1,7.2,3.8,11.5,3.2
	c6.6,2,12,6,17.3,10.1c3.8,2.9,0.9,5.8-0.7,8.6c-2.2,3.3-4.3,6.6-6.1,10.2c-6,9.9-12.2,19.7-18,29.8c-2.9,4.3-5.4,8.8-8,13.3
	c-1,1.9-2.3,3.6-3.4,5.4c-4,6.2-5.2,6.3-10.6,1.1c-2.7-5.2-6.8-7.8-12.7-7.4c-10.2-4.6-20.5-9-31.8-10.7c-2.4-0.4-4.9-0.3-7.4-0.9
	c-4.1-0.9-8.2-0.8-12.4-0.1c-4.8,0.1-9.1,2.2-13.6,3.6c-2.9-0.4-4.5,0.8-4.5,3.9c-0.1,1.7-1.3,2.9-1.6,4.5
	c-1.9,7.2,1.1,12.2,7.1,15.9c7.4,4.6,15.6,7.4,23.8,10.1c16.9,5.5,34.2,9.8,50.5,17.1c20.7,9.2,37.9,22.2,47.4,43.5
	c3.2,7.3,5.9,14.8,6.1,22.9c-1,1.8-2,3.6,0.6,4.9c1.1,1.6,0.9,3.4,0.5,5.2c-1.4,3-0.7,6.2-0.4,9.2c0.7,6.7-1.8,13.3-0.6,20
	c0.1,6.2-2.3,11.9-3.8,17.8c-3.4,8.7-7.2,17.2-12.7,24.8c-0.2,0.4-0.5,0.8-0.8,1.1c-1.5,1.6-3.1,3.2-4.2,5.1c-1.9,1.9-3.3,4.5-6.3,5
	c-0.8,0-1.2-0.9-2-1.1c-0.7,5.6-6.7,6.4-9.4,10.2c-0.2,0.4-0.5,0.7-0.8,1c-1.5,1-2.6,2.4-3.6,3.8c-10.1,7-20.8,12.5-33.1,14.4
	c-6.6-0.2-12.7,2.1-18.9,3.7c-0.7,1.2-1.9,0.8-2.9,0.8c-2.3-1.5-4.3-0.8-6.4,0.6c-14.3,0-28.7,0-43,0c-5.2-1.3-10.6-0.7-15.8-1.8
	c-18.5-3.7-36.2-9.5-53-18.1c-4.9-2.5-9.6-5.3-14.3-8.1c-5.8-4.1-11.9-7.9-17.3-12.6c-2-1.8-3.1-3.6-1.5-6
	c8.7-13.5,16.4-27.7,26-40.6c1.6-0.6,2.9-1.5,3.5-3.2c0.4-1.1,0.8-2.5,1.8-2.9c4.3-1.6,4.6-5.9,6.2-9.2c3-6,3.3-6.3,9.7-5.4
	c4.1,1.1,7,4.3,10.5,6.4c4.9,3.1,9.6,6.4,14.9,8.9c17,9.5,35.1,14.8,54.7,14.2c7.5-0.2,14.4-2.4,19.4-8.5c4.3-8.4,3.3-13.6-4.2-21.1
	c-1.4-1.6-3.3-2.5-5.3-3.1c-0.5-0.2-0.9-0.4-1.3-0.6c-11.2-6.7-23.9-9.7-36.2-13.6c-9.9-3.2-19.8-6.6-29.3-10.8
	c-0.4-0.3-0.7-0.6-1-1c-0.4-1.4-1.4-2.2-2.6-2.8c-8.9-4.3-17.6-9.1-25.3-15.5c-0.8-0.7-1.8-0.8-2.8-1c-4.4-1.5-6.7-5.4-9.4-8.6
	c-12.5-15-17.6-32.6-17.6-51.9c0.9-3.1,0.8-6.1-0.1-9.2c-0.5-11.9,2.5-23.2,6.4-34.4c1.2-3.4,2.6-6.8,4.4-10
	c6.2-11.3,14.5-20.9,24.2-29.4c19.1-14.5,40.6-22.8,64.3-26.1C-522.8-586.5-518.9-586.7-515-587.5z"/>
<path class="st0" d="M-22.2-297.5c-25.2,19.7-53.3,32.6-85.3,36.1c-0.9,0.1-2-0.3-2.6,0.9c-15.7,0-31.3,0-47,0
	c-5.2-1.2-10.6-0.9-15.9-1.9c-0.5-0.1-1-0.2-1.5-0.3c-2.6-1.2-5.9-0.6-7.9-3.2c0-0.4,0.1-0.6,0.4-0.7c0.1,0,0.2-0.1,0.2-0.2
	c-4.1,0.9-6.6-3.6-10.9-3.2c-4.3,0.4-7.2-3.8-11.4-4.3c-1.8-0.2-3.5-0.9-5.4-0.6c-14.4-5.8-27.5-13.6-38.3-24.9
	c-0.1-2.5-2.3-3.5-3.8-5c-5.6-5.8-11.2-11.6-15.8-18.4c-0.9-1.4-2.2-2.5-3.9-2.9c-3.4-1.7-4.5-5.2-6.3-8.1
	c-4.1-6.6-7.8-13.5-10.3-20.9c0.9-7.3-3-13.2-5.8-19.4c-0.2-0.4-0.3-0.9-0.4-1.3c0.5-1.6,0.8-3.1-1.7-2.9c-3-8.7-4.6-17.5-4.3-26.7
	c0.5-10.8,0.7-21.7-0.2-32.5c0.4-14.2,3.2-27.9,8.5-41c1.5-0.6,2.7-1.4,3.1-3.2c0.5-2.3,1.5-4.4,3.2-6c2.3-2.3,2.5-4.7,0.7-7.4
	c1.2-4.7,3.3-9,6.8-12.4c3.8-2,5.6-5.3,6.2-9.4c0.1-0.7,0.5-1.2,1.1-1.5c1-0.4,2.4,0.2,2.9-1.3c2-3.3,3.5-7,7.2-9.1
	c1.9-1,1.8-3.4,2.4-5.2c3.4-6.3,9.1-10.4,14.2-15c0.4-0.2,0.9-0.3,1.3-0.3c3.2-0.3,5.6-1.9,6.8-5c0.8-2.3,3.1-3.1,4.6-4.7
	c0.3-0.3,0.7-0.6,1.1-0.8c3.2-2,6.5-3.9,9.7-5.8c2.8-1,5-3.1,8-3.7c6.8-1,12.9-3.6,18.4-7.9c10.3-5,21.4-7.1,32.6-8.6
	c3.4-0.3,6.8-0.2,10.1-1c10.7,0,21.3,0,32,0c2.8,2.1,5.6,2.5,8.7,0.5c1.9,0.4,3.6,1.4,5.7,1c4.1,0,7.9,1.4,11.8,2.6
	c0.4,0.7-0.4,1-0.6,1.5c9.4,0.5,17.6,4.8,25.7,8.9c1.9,1,3.7,1.2,5.8,1.1c7.6,3.1,14.4,7.6,21.1,12.2c1.4,1,3,2,4.1,3.4
	c1.4,3.8,4.5,5.5,8.2,6.4c2.6,1.8,5.8,2.8,6.9,6.2c-2.3,5.5-5.8,10.3-9.7,14.8c-4.3,5-8,10.4-10.3,16.7c-6,10.2-14.2,18.8-20.9,28.6
	c-0.5,0.7-1,1.3-1.3,2.1c-2.7,2.3-3.8,5.8-6.2,8.4c-2.2,2.4-3.9,1.8-5.8-0.2c-3.5-3.7-7.8-6.6-11.2-10.4h0.1
	c-6.1-3.8-12.4-7.4-18.6-11.2c-4.3-3.3-9-5.2-14.5-4.3c-0.9,0.2-1.7,0.2-2.3-0.6c-1.9-2.7-3.7,0.3-5.6,0.1
	c-13.7-1.6-26.3,1.3-37.6,9.3c-1.5,1.1-3.2,1.8-4.7,2.8v-0.1c-5.1,4.5-9.4,9.6-12.7,15.6c-0.7,1.3-1.3,2.7-2.6,3.4
	c-0.2,0.7-0.4,1.4-0.6,2c-2.8,8.6-7,16.7-7.7,26c-1,14-2,27.9,2.1,41.7c0.7,2.2,1,4.5,1.5,6.7c5.4,16.6,14.9,29.8,30.7,37.9
	c5,1.2,9.5,3.7,14.5,5c6.9,1.8,13.8,2.1,20.6,1.7c19.2-1.2,36-8.9,51.1-20.5c2.7-2.1,5-4.9,8.3-6.3l-0.1,0.1c2-0.7,2.6,1.1,3.3,2.2
	c3.2,4.6,6.8,8.9,9.5,13.8h-0.1c6.2,7.3,12,14.9,17,23.1l0,0c2,1.5,3.1,3.8,4.6,5.7c2.8,3.9,6,7.4,8.2,11.6c1.1,4.1,3.2,7.5,7.1,9.7
	c3.8,3,1.5,4.9-1.1,6.8C-18.8-300.8-20-298.4-22.2-297.5z"/>
<path class="st0" d="M271-465.4c2.4-1.3,1.3-3.5,1.3-5.4c0.1-34.9,0-69.7,0.1-104.6c0-2.1-0.5-4.3,0.5-6.4c2-0.3,4-0.3,6-0.3
	c32.3,0.2,64.5-0.4,96.8,0.3c0.9,0,1.6-0.1,2.4-0.6c1.8,1.4,1,3.4,1,5.1c0,101.9,0,203.9,0.2,305.8c0,5.3-1.6,6.2-6.5,6.2
	c-31.6-0.2-63.3-0.2-94.9,0c-4.5,0-5.5-1.4-5.5-5.6c0.1-33.1,0-66.3,0.2-99.4c0-4.2-0.8-5.7-5.4-5.7c-22.3,0.3-44.6,0.1-67,0.1
	c-8.3,0-7-1-7,7.2c-0.1,32.6,0,65.3-0.1,97.9c0,1.6,1.1,3.7-1,5c-1.4-0.9-2.9-0.4-4.4-0.4c-31.8,0-63.6,0-95.4-0.1
	c-1.9,0-4.7,1.2-4.6-2.6c0-103.6,0-207.1,0-310.7c0.7-3.4,3.4-2.6,5.6-2.6c22.5,0,45,0,67.4,0c10.5,0,21,0.4,31.4-0.3
	c2,1.5,1,3.7,1,5.5c0.1,37.1,0.1,74.1,0.1,111.2c0.8,0.9,1.8,0.7,2.8,0.7c24.2,0,48.4,0,72.6,0C269.4-465,270.2-465,271-465.4z"/>
<path class="st0" d="M976-265.5c-1.9-1.2-1-3-1-4.5c0-102.5,0-205,0-307.5c0-1.5-0.7-3.4,1-4.6c2.3,0.7,4.6,0.2,6.9,0.3
	c29.6,0,59.2,0,88.8,0.1c1.8,0,4.7-1.3,4.8,2.4c0,77.1,0.1,154.2-0.1,231.3c0,0.5,0.1,1,0.2,1.5c0.4,0.5,1,0.8,1.6,1
	c31.7,0.4,63.4,0.1,95.1,0.2c2.3,0,4.7-0.6,6.8,0.8c0.7,3.8,0.3,7.6,0.3,11.4c0,20.8,0.1,41.6,0,62.3c0,1.8,1.4,4.7-2.4,4.8
	c-65.4,0-130.7,0-196.1-0.1c-1.8,0-4.1,1.2-5.4-1.3c-0.2-58,0-116-0.1-174c0-41.3,0-82.7,0-124c0-1.7-0.3-3.5,0-4.3
	c0,99.7,0,200.4,0,301.1C976.4-267.5,976.7-266.5,976-265.5z"/>
<path class="st0" d="M1077-345.5c-0.8-0.4-1.4-0.8-1.4-1.8c1-60.4,0.2-120.8,0.4-181.2c0.1-17,0-34,0-50.9c0.3-0.5,0.6-0.4,1,0
	c0.1,3.5,0.2,7,0.2,10.5c0,73.2,0,146.4,0,219.7c0,0.8-0.1,1.7-0.1,2.5C1077.5-346.4,1077.5-345.9,1077-345.5z"/>
<path class="st0" d="M977-267.5c1.8,1.8,4.1,1,6.2,1c64.9,0,129.9,0,194.8,0c0.3,0.2,0.4,0.4,0.3,0.6c-0.1,0.2-0.2,0.3-0.3,0.3
	c-3,0.1-6,0.3-9,0.3c-62.9,0-125.7,0-188.6,0c-1.5,0-3-0.2-4.4-0.3c0-0.6,0-1.2,0-1.9C976.3-268,976.7-267.9,977-267.5z"/>
<path class="st0" d="M1077-345.5c0-0.5,0.1-0.9,0.1-1.4c3.1,0.8,6.3,0.4,9.4,0.4c30.2,0,60.5,0,90.7,0.1c1.2,0,2.7-0.8,3.5,0.9
	c-0.6,0.4-1.2,0.5-1.9,0.5c-32.3,0-64.7,0-97,0C1080.3-345,1078.6-344.5,1077-345.5L1077-345.5z"/>
<path class="st0" d="M1077-579.5h-0.5h-0.5c-0.4-2.4-2.3-2-3.9-2c-31.5,0-62.9,0.1-94.4,0.2c-1,0-1.6,0-1.8-1
	c5-0.1,9.9-0.3,14.9-0.3c27.2,0,54.5,0,81.7,0C1074.5-582.5,1077.8-583.9,1077-579.5z"/>
<path class="st0" d="M1180-345.4c0.3,0,0.5,0,0.8-0.1c0.1,16.6,0.2,33.2,0.3,49.8c0,9,0,17.9,0,26.9c0,2.2,0.1,4.2-3.1,3.3
	c0-0.3,0-0.6,0-1c3.3-0.8,1.9-3.5,1.9-5.3c0.1-24.2,0.1-48.4,0-72.6c-0.3-0.2-0.5-0.4-0.3-0.6C1179.8-345.2,1179.9-345.4,1180-345.4
	z"/>
<path class="st0" d="M1888.3-560.4c3.9-7.2,7.7-14.3,11.6-21.5c4.3,0.5,8.6-0.1,12.9-0.1c30.5,0.1,60.9,0,91.4,0.1
	c2.2,0,4.7-0.7,6.5,1.6c0.7,1.9,0.4,4,0.4,6c0,100.5,0,200.9,0,301.4c0,1.8,0.1,3.7-0.2,5.5c-0.9,2.1-2.8,1.5-4.3,1.5
	c-31.7,0-63.3,0-95,0.1c-3.7,0-5-1.3-5-4.9c0.1-47,0.1-93.9,0-140.9c0,29.2,0,58.5,0,87.7c0,18.3,0,36.7,0,55c0,1.1,0.4,2.3-0.5,3.4
	c-1.5-1.4-0.7-3.1-0.7-4.7c-0.1-46.1,0-92.2,0-138.3c0-2.3,0-4.6,0-6.9c-0.4-0.2-0.9-0.3-1.3-0.5c-9.4,17.8-18.7,35.6-28.1,53.3
	c-3,7-6.9,13.6-10.4,20.3c-1.7,3.2-3.6,6.3-4.8,9.8c-1.3,3.7-3.5,5.8-8.1,5.7c-13.3-0.4-26.6-0.3-39.9,0c-4,0.1-5.8-1.5-7.6-4.8
	c-7.3-13.4-14.4-26.8-21.8-40.1c-0.6-0.5-0.7-1.3-0.9-2c-1.4-5-1.4-10.8-7.2-13.4c-5.6-8.1-8.9-17.5-14.8-25.4
	c-0.8-0.3-0.4-3.4-2.3-0.9c0.7,47,0.2,93.9,0.3,140.8c0,5.8-1,6.8-6.1,6.8c-30.5,0-60.9,0.1-91.4,0c-1.7-0.5-2.4-1.6-2.4-3.3
	c0-1.2,0-2.3,0-3.5c0-100.7,0-201.4,0-302.2c0-6.8,0-6.9,6.9-6.9c30.3,0,60.6,0,90.9,0c2.1,0,4,0.2,5.7,1.5c10.4,18,20.8,36,31.1,54
	c12.7,22.1,25.2,44.2,37.9,66.3c0.6,1,0.9,2.2,2.6,2.8c16.8-31.4,33.5-62.8,50.3-94.3C1886.5-554,1888.2-556.8,1888.3-560.4z"/>
<path class="st0" d="M1576.8-466.2c-1.2-4.6-1.7-9.5-4.1-13.8c-2.6-3.3-4.9-6.9-8-9.8c-0.5-0.5-0.5-1.2-0.3-1.9
	c1-3.4-0.5-6.3-2.5-8.6c-2.1-2.5-2.8-5.1-2.5-8.1c-1.4-2.6-2.1-5.6-4.8-7.4c-2.5-1-4.1-2.9-5.1-5.2c-2.5-5.6-7.5-9.4-11.5-13.4
	c-3.8-3.8-7.1-7.7-10.2-12c-0.4-0.9-1-1.5-1.9-1.7c-0.2-0.4-0.5-0.6-1-0.6c-4.6-1-7.8-4.1-10.6-7.6c-12.3-9.5-26.3-15.8-40.8-21
	c-12.2-4.4-24.8-6.7-37.5-8.8c-1.8-1.4-4.1,0.3-5.9-1.1c-0.7,0-1.3,0-2,0c-2.3,0.8-4.7,0.8-7,0c-7,0-14,0-21,0
	c-2.3,1.1-4.8,0.3-7.2,0.5c-1.6,0.1-3.3-0.3-4.9,0.3c-16.9,2.1-33.3,5.9-49.1,12.3c-28.7,11.6-52.2,30.1-70.5,55
	c-8.9,10.8-14.8,23.1-19.2,36.3c-9.2,26.8-12.1,54.2-9,82.3c0.7,7.9,2.2,15.6,4.3,23.3c5.6,20.7,14.8,39.6,28.1,56.5
	c5.1,6.9,11.1,12.8,17.3,18.7c0.4,0.2,0.8,0.4,1.3,0.4c4.8,0.5,6.9,4.3,9.4,7.7c1.4,1.5,2.9,2.7,4.8,3.5l-0.1-0.1
	c7.2,6.2,15.7,10.2,24.2,14.1c7.9,3,15.8,6.1,23.7,9.1c10.8,3.5,21.8,5.5,33,7.1c15.3,0,30.7,0,46,0c5.6-0.4,11-2,16.6-2.5
	c13.2-2,25.7-6.5,37.8-11.7c4.3-1.9,9.2-3,12.7-6.7c0.6-1.7,1-3.9,2.9-4.3c4.2-0.9,7.5-3.9,11.6-5.1c0.4-0.1,0.9-0.2,1.3-0.4
	c1.1-1,2.7-1.6,3.6-2.8c2.7-3.4,5.1-7.2,9.9-7.9c7-5.5,12.9-12,18.1-19.2c2.1-6.9,7.2-11.6,11.9-16.6c3.4-6.4,7.1-12.7,10-19.4
	c6.6-15.2,10.6-31.1,12.3-47.4C1582.8-425.2,1582-446,1576.8-466.2z M1457.2-366.2c-10,11.7-22.5,19-38,20.9
	c-0.8,0.1-1.6,0.5-2.3,0.8c-4.3,0.9-8.6,0.9-12.9,0c-9.5-2-19-4.1-27-10.1c-1.1-2-3.3-2.7-5.1-3.8c-9.8-7.5-16.7-17.2-21.1-28.7
	c-4.3-11.6-6.8-23.6-7.1-35.9c-0.2-12.1,1.7-24,6.3-35.4c1.9-4.7,4-9.3,6.6-13.7c8.2-13.5,19.8-22.4,34.6-27.4
	c0.7-0.2,1.2-0.6,1.7-1c26-7.9,53.8,3.1,69.9,27.7C1483.2-441.8,1480.7-393.8,1457.2-366.2z"/>
<path class="st0" d="M-1510.6-372c-1.8-6.9-3.7-13.8-7.4-19.9c-5.5-8.9-12.2-16.9-20.5-23.4c-4-2.3-7.3-5.5-11.5-7.4
	c-5.7-3.8-12.6-4.8-19.4-7.4c10.6-5.1,19.9-11.4,26.8-20.6c3.1-5.2,3.3-12,8.9-15.8c1-0.7,1.5-2.3,1.6-3.5c0.3-2.5,1.9-4.1,3.4-5.8
	c2.7-7.8,3.9-15.9,3.8-24.2c0-4.4-1.9-8.3-1.7-12.6c-2.6-2.2-2.1-5.2-2-8.1c-2-8.8-5.5-16.8-11.8-23.5c-7.3-8.8-15.3-16.7-25.7-21.9
	c-1.9,0.2-3.6-0.3-5.2-1.3c-5.7-3.4-11.8-5.8-18.2-7.5c-0.9-0.2-2-0.3-2.2-1.6c-12.7-4.3-26-5.4-39.3-5.7c-1.8,0.7-3.6,0.3-5.4,0.3
	c-44.4,0-88.7,0-133.1,0c-1.8,0-3.7-0.5-5.4,0.5c0,105,0,210,0,315c1.8,1.6,4,1.4,6.2,1.4c8.2,0,16.3,0,24.5,0
	c43.9-0.1,87.9,0.3,131.8-0.2c2.3,0.1,4.6,1.1,6.7-0.7c-0.3-0.6-0.6-0.9-1-1.1c7.6,1.1,14.9-2.6,22.5-2.1c0.9,0.2,1.9,0.4,2.6-0.5
	c5.1-3.2,10.6-5,16.6-5.4c0.7,0,1.3-0.2,1.8-0.7c1.3-2.4,3.6-2.2,5.7-2.2c2.6-0.8,4.9-2.2,7-3.8c0.2-0.4,0.4-0.9,0.8-1.3
	c6.7-6.2,15-10.5,20.9-17.6c0.3-0.4,1.3-0.2,1.9-0.5c10.9-12.4,16.4-27.1,17.9-43.2C-1508.2-353.7-1508.2-363-1510.6-372z
	 M-1675.9-510.4c8.6-2.1,17.3-0.8,26-0.5c1.6,0,3.3,0.2,4.9,0.4c6.4-0.9,11.9,1.5,17,5.1c1.6,1.7,3.9,2.6,5.1,4.8
	c3.7,6.3,6.2,12.9,5.5,20.5c-0.5,5.6-3.6,10.1-5.4,15.1c0,0.2,0.1,0.5,0.1,0.7c-0.8,3.3-3.7,4.5-6.1,6c-5.5,3.3-11.3,5.9-18.1,5.1
	c-2.1-0.3-4.1,0.1-6.1,0.8c-7.6,0.6-15.1,1.3-22.7-0.2c0.1-0.3,0-0.6-0.2-0.8c-0.9-1.4-0.5-2.9-0.5-4.4c0-16.1,0-32.1,0-48.2
	C-1676.5-507.5-1676.9-509-1675.9-510.4z M-1608.7-266.8c-0.2,0.1-0.3,0.1-0.3,0.2c0.1,0.7-0.6-0.5,0-0.9c0.5,0.1,1,0.2,1.4,0.3
	C-1607.8-267-1608.2-267-1608.7-266.8z M-1603.9-363.4c-0.9,13.7-9.1,22.9-23.6,25.5c-15.5,2.7-31.2,1.1-46.8,1.2
	c-0.5,0-1.1-0.6-1.7-1c-0.2-0.3-0.5-0.6-0.5-0.9c0.1-18.7-0.4-37.4,0.2-56c1.7-1.4,3.8-1,5.7-1c11.6,0,23.1,0,34.7,0
	c3.4-0.2,6.7,0.5,9.7,2c0.7,0.3,1.5,0.8,2.2,1C-1608.7-387.2-1602.9-378.9-1603.9-363.4z"/>
<path class="st0" d="M2368.9-390.2c-1.4-3.1-2.9-6.1-5.2-8.6c-4.4-2.9-7.5-6.8-10.2-11.2c-1.5-2.4-3.8-4-5.8-6
	c-2.6-1.8-5.2-3.5-7.9-5c-7.1-4.1-14.6-7.4-22.9-8.7c0.2,0.6-0.5-0.4,0.5-0.2c3.7-3.2,9.3-3.5,12.8-7.7c1.2-3,3.3-5.1,6.4-6.2
	c0.4-0.2,0.7-0.5,1-0.9c1.1-2.8,3.7-3.9,6.1-5.1c7.7-7.3,11.7-16.7,14.8-26.6c-0.4-4.4-0.2-8.7,2.7-12.4c0.4-5.6,0.5-11.3,0.1-16.9
	c-0.6-10-3.6-19.5-8.1-28.4c-4.3-1.6-7.4-6.5-6.8-10.5c-1.5-2.6-3.3-4.9-5.7-6.7c-3.3-2.9-6.6-5.9-9.9-8.8c-1.9-2.3-4.3-4.1-6.9-5.5
	c-15.5-8.9-32.2-14-49.9-16.2c-6.7-0.8-13.4-2.3-20.2-1.2c-2.8,0.3-5.6,0.2-8.5,0.2c-41.4,0-82.9,0-124.3,0c-3.1,0-6.5-0.8-8.7,2.4
	c-1.2,2.9-0.8,5.9-0.8,8.9c0,97.9,0,195.9,0,293.8c0,12.7,0,12.7,12.8,12.7c49.1-0.1,98.3,0.3,147.4-0.3c2.3,0.6,4.7,0.5,7,0.4
	c15-1,29.5-4.1,43.5-9.6c10.2-4.1,19.9-9.1,28-16.7c-0.3-2.6,1.3-3.6,3.1-5.1c1.5-1.2,1.8-3.7,4.6-2.7c2.3-1,3.1-3.4,4.5-5.2
	c5.3-6.6,9.6-13.8,11.2-22.3c1.8-4.1,2-8.7,3.5-12.9c0-9.3,0-18.7,0-28C2374.6-375.2,2372.5-383,2368.9-390.2z M2211.1-505.9
	c0.1-5.2,0.6-5.5,5.9-5.6c12.1-0.2,24.1,0.3,35.8,4.2c2.2,0.7,4.1,2.1,6.4,2.6l0,0c1.2,1.9,3,3.2,5,4l0,0l0,0l0,0l0,0
	c0.1,0.3,0.2,0.6,0.3,0.9c7.3,11,5.6,22.2,0.5,33.4c-1.8,3.2-4.4,5.5-7.8,7c-12,5.5-24.6,7.2-37.6,6.5c-1-0.1-2,0.3-3,0.3
	c-4,0.3-5.6-1-5.7-5C2210.9-473.7,2210.9-489.8,2211.1-505.9z M2266.1-339.7c-0.7,0.3-1.5,0.6-2.2,1c-4.7,2.6-9.7,3.2-14.9,2.4
	c-12.6-0.1-25.3-0.2-37.9-0.3c-0.6-0.7-0.6-1.5-0.6-2.4c0-17.5,0-35,0-52.5c0-0.7,0.1-1.3,0.4-1.9c1.1-2.2,3.2-1.4,4.9-1.4
	c12.1,0,24.2,0.1,36.2,0.2c1.3-0.9,2.6-1.1,3.7,0.2c2.7,0.7,5.4,1.4,8.1,2.2c11.4,3.5,18.6,11.6,19.2,21.6
	C2283.9-354.2,2278.8-345,2266.1-339.7z"/>
<path class="st0" d="M977-267.5c-0.3,0-0.7,0-1,0c0-101.6,0-203.2,0-304.8c0.3,0,0.7,0,1,0C977-470.7,977-369,977-267.5z"/>
<path class="st0" d="M1180-345.4c0,0.3,0,0.6,0,1c-32.4,0-64.9,0-97.3,0c-1.9,0-4,0.8-5.7-1C1111.3-345.5,1145.7-345.5,1180-345.4z"
	/>
<path class="st0" d="M627-371.5h-0.5H626c-0.2-0.3-0.3-0.6-0.5-0.9c0.2,0,0.4,0,0.6-0.1c1.8-1.7,4-1.4,6.1-1.4c29.5,0,59,0,88.5,0
	c2.1,0,4.4-0.4,6.1,1.4c-0.3,0.3-0.7,0.7-1,1c-6.3,1.5-12.7,1.6-19.2,1.6c-21.9-0.1-43.8,0-65.7,0
	C636.4-369.9,631.7-370.5,627-371.5z"/>
<path class="st0" d="M736-374.5c-1.2-2-1-4.1-1-6.3c0-25.9,0-51.8,0-77.7c3.5-0.9,1.9,2,1.9,3c0.1,13.1,0.1,26.3,0.1,39.4
	c0,10.5,0.1,20.9-0.1,31.4c-0.1,3.4,2.5,6.8,0.1,10.2C736.7-374.5,736.3-374.5,736-374.5z"/>
<path class="st0" d="M726.9-372.5c-33.6,0-67.1,0-100.7-0.1c-0.1-0.3-0.2-0.6-0.4-1c0.7-0.8,1.6-1.1,2.5-1.3
	c7.6-0.6,15.3-0.2,22.9-0.3c23.4-0.2,46.9,0.2,70.3-0.2c2.2,0,4.8-0.7,6.4,1.8h0.2c-0.1,0.3-0.2,0.6-0.3,0.9
	C727.6-372.5,727.3-372.5,726.9-372.5z"/>
<path class="st0" d="M625.9-474.5c0.1-0.3,0.2-0.6,0.3-0.8c0.3-0.1,0.5-0.3,0.8-0.3c3.8-0.8,7.7-1.2,11.6-1.3
	c27-0.1,54.1,0,81.1-0.1c2.5,0,5,0,7.2,1.3c0.3,0.1,0.5,0.2,0.8,0.3c0.1,0.3,0.2,0.5,0.3,0.8h-0.2c-0.5,0.5-1,0.8-1.7,1
	c-1.5,0.4-3,0.4-4.5,0.4c-29.9,0-59.9,0-89.8,0c-1.8,0-3.7,0.2-5.4-0.7C626.4-474,626.1-474.2,625.9-474.5z"/>
<g>
	<path class="st0" d="M727.9-372.7c-0.5-0.2-1.1-0.3-1.7-0.1c-0.8,0.3-1.6,0.7-2.4,0.9c-0.4,0.1-0.8,0.3-1.2,0.4
		c-31.7,0-63.4,0-95.1,0c-0.5-0.2-0.9-0.2-1.4,0c-0.1,33.5,0,66.9-0.3,100.4c0,4.7,1.4,5.8,5.8,5.7c30-0.2,59.9-0.1,89.9-0.1
		c6.6,0,6.6,0,6.6-6.4c0-33.5,0.1-66.9,0.1-100.4C728.1-372.4,728-372.5,727.9-372.7z"/>
	<path class="st0" d="M625.8-475.7c0.2,0.2,0.5,0.3,0.7,0.5c0.5,0,0.9-0.2,1.2-0.4c32.8,0,65.7,0,98.5,0c0.4,0.3,0.9,0.4,1.5,0.3
		c0.1-0.1,0.3-0.3,0.4-0.4c0-33.7-0.1-67.3,0-101c0-4.3-0.9-6-5.7-5.9c-30.3,0.3-60.6,0.2-91,0c-4.8,0-5.7,1.5-5.7,5.9
		C626-543,625.8-509.4,625.8-475.7z"/>
</g>
<path class="st0" d="M625-374.5c1.7-1.6,0.9-3.8,0.9-5.7c0.1-30.8,0.1-61.6,0.1-92.4c2.5-0.9,2.8,1,3.2,2.5c0.5,1.9,0.3,4,0.3,6
	c0,25.9,0,51.8,0,77.8c0,4.3,0.2,8.6-1.6,12.7c-0.7,0-1.4,0-2.1,0C625.6-373.8,625.3-374,625-374.5z"/>
<path class="st0" d="M-1112-272.5c-1.2-2.1-2.6-4.2-2.2-6.9c-4.9-14.9-9.8-29.9-15.6-44.5c-2.8-2.6-2.9-6.1-3.3-9.6
	c0.1-0.9,0-1.7-0.8-2.3c-3.6-6.1-5-13-7.3-19.5c-1.2-3.3-3.9-6.3-2.9-10.2c-0.1-0.5-0.1-1-0.2-1.5c-21-60.7-42-121.4-63.1-182
	c-3.7-10.6-6.8-21.5-11.4-31.8c-1.7-1.3-3.6-1.3-5.6-1.3c-33.4,0-66.8,0-100.2,0c-3.1,0-6.3,0-9.4,0.4c-3,8.4-6.1,16.8-9.1,25.2
	c-8.9,25.4-17.8,50.8-26.8,76.3c-0.4,1.3-0.7,2.6-1.1,3.8c-4.6,13.6-9.2,27.3-13.9,40.9c0.5,4.3-1.9,7.9-3.2,11.7
	c-3,9.1-5.7,18.4-10.2,27c-3.7,10.3-7.4,20.6-11,30.9c-10.3,29.2-20.5,58.5-30.7,87.7c-0.6,2.2-1.3,4.5-1.9,6.7c0.6,4,2.8,5.1,6.8,5
	c28.2-0.2,56.4-0.1,84.6-0.1c2.8,0,5.6-0.2,8.3-1c0.6-0.5,1-1.2,0.8-2.1c-1.3-3.5,1.3-6.3,2.1-9.4c2.6-10,4.9-20,9.1-29.5
	c0.9-2.5,2.2-4.9,2.5-7.5c0.7-5.9,3.8-7.2,9.4-7.1c25.7,0.3,51.3,0.2,77,0.2c1.8,0,3.6-0.3,5.4-0.5c-0.9-0.7-1.9-0.8-2.9-0.8
	c1.1-0.2,2.3-0.3,3.3,0.8c1.8,0.6,2.8,1.7,3.4,3.7c0.8,2.8,1.1,5.8,2.8,8.3c1.9,1.2,1.8,3.2,2.2,5.1c0.4,1.8,0.2,4,2.6,4.8
	c0.4-0.2,0.7-0.6,1.2-0.5c-0.7,0.2-1.3,0.6-1.5,1.2c-0.4,1.9,0.6,3.5,1,5.3c1.1,4.2,2.9,8.3,2.8,12.8c0.7,3.1,1.4,6.2,2.9,9.1
	c0.7,0.3,0.9,0.9,1,1.6c0.5,4.5,3,5.9,7.5,5.9c31.1-0.2,62.2-0.2,93.3,0c3.6,0,5.4-0.8,5.1-4.5C-1110.9-271.4-1111.4-272-1112-272.5
	z M-1301.7-403c7.2-24.2,14.4-48.3,21.7-72.5c0.1-0.4,0.4-0.8,1.1-2.2c2.4,8,4.7,15.3,6.8,22.5c4.9,16.4,9.9,32.7,14.6,49.2
	c0.6,2,2.6,4.2,0.5,6.5c-2.9,1.2-5.9,0.5-8.8,0.5c-11.7-0.2-23.4,0.7-35.1-0.4C-1302.7-400.2-1302.1-401.8-1301.7-403z M-1241-324
	c-25.1,0-50.2,0-74.6,0c0.4,0,0.8,0,1.2,0c24.7,0,49.3,0,74,0.1C-1240.6-324-1240.8-324-1241-324z"/>
<path class="st0" d="M628-373.5c-1.7-3.2,0.1-6.5,0.1-9.7c-0.1-28.1,0-56.2-0.1-84.3c0-1.7,1.1-4.2-1.9-4.9c0-0.3,0-0.7,0-1
	c0.9-0.6,1.9-0.5,2.9-0.5c32.4,0,64.8-0.1,97.2,0.1c0.3,0,0.6,0.2,1,0.3c0,6.6,0.3,13.2,0.4,19.8c0.2,24.3,0.1,48.6,0.1,72.9
	c0,1.8-0.4,3.7,0.4,5.4c0,0.7,0,1.4,0,2c-10.2,0-20.4,0-30.7,0C674.2-373.5,651.1-373.5,628-373.5z"/>
<path class="st0" d="M727.9-375.5c-1.5-1.5-0.9-3.5-0.9-5.2c0-24.3,0.1-48.7-0.1-73c0-6.6-2-13.2,0.1-19.7c-0.4-0.2-0.5-0.4-0.4-0.7
	c0.1-0.2,0.2-0.3,0.4-0.3c0.3,0,0.6,0,0.9,0C727.9-441.5,727.9-408.5,727.9-375.5z"/>
<path class="st0" d="M727-474.5c0,0.3,0,0.7,0,1c-3,0-5.9,0-8.9,0c-30.7,0-61.4,0-92.1,0c-0.1-0.3,0-0.7,0-1
	C659.7-474.5,693.4-474.5,727-474.5z"/>
<g>
	<path class="st0" d="M627.4-470.9c0-0.6-0.1-1.3-0.3-1.9c-0.2-0.6-0.5-1.2-0.9-1.7l0,0c0.1-0.3,0.1-0.5,0.1-0.8
		c-0.1-0.1-0.3-0.3-0.4-0.4c-2.2,0.1-4.3,0.3-6.5,0.3c-32,0-64,0.1-96-0.1c-4,0-5.4,0.9-5.4,5.2c0.2,31,0.2,62,0,93
		c0,4.1,1.4,4.9,5.2,4.9c34.2-0.1,68.3,0,102.5,0c0.6-0.2,0.8-0.5,0.7-1.1c-0.2-0.4-0.4-0.8-0.8-1.2c2.6-1.3,1.8-3.9,1.8-6
		C627.4-410.8,627.5-440.9,627.4-470.9z"/>
	<path class="st0" d="M835.1-470.5c0-4.1-1.2-5-5.1-4.9c-32,0.1-64,0.1-95.9,0.1c-2,0-4-0.2-6-0.4c-0.2,0.2-0.3,0.4-0.5,0.6
		c-0.1,0.4-0.1,0.7-0.1,1.1c-0.1,0.1-0.1,0.1-0.2,0.2c-0.9,1.5-0.8,3.2-0.8,4.9c0,30.7-0.1,61.3,0.1,92c0.1,1,0.3,1.9,0.8,2.7
		c0.1,0.1,0.3,0.2,0.4,0.4c-0.2,0.4-0.2,0.8-0.2,1.2c0.2,0.1,0.3,0.3,0.5,0.4c1.7-0.1,3.3-0.3,5-0.3c32,0,64-0.1,95.9,0.1
		c4.3,0,6-0.8,6-5.7C834.9-408.8,835-439.5,835.1-470.5z M736.3-375.5c0.1-0.7,0.2-1.3,0.2-2c0.1,0.6,0.2,1.3,0.3,1.9
		C736.6-375.5,736.5-375.5,736.3-375.5z"/>
</g>
<g>
	<g>
		<g>
			<path class="st0" d="M84.6,317.2H68v-35.5h15.5c7.4,0,12.4,3.6,12.4,9.5c0,3.6-2.3,6.4-5.3,7.6c4.1,0.6,7.2,4.3,7.2,8.3
				C97.7,313.5,92.7,317.2,84.6,317.2z M80.9,289.7h-1.8v6.6h1.8c3.2,0,4.9-1.1,4.9-3.5S84,289.7,80.9,289.7z M82.7,302.7h-3.6v6.6
				h3.6c3.3,0,4.5-1.2,4.5-3.5C87.2,303.7,85.6,302.7,82.7,302.7z"/>
			<path class="st0" d="M130.6,317.2l-1.9-6.5h-10.4l-1.9,6.5h-11.4l12.3-35.5h12.8l12.3,35.5H130.6z M123.4,293.1l-2.6,9h5.3
				L123.4,293.1z"/>
			<path class="st0" d="M167.8,317.7c-9.8,0-17.2-5-17.2-16.9v-19.1h11.8V302c0,3.9,2,6.3,5.3,6.3c3.3,0,5.3-2.4,5.3-6.3v-20.3H185
				v19.2C185,312.7,177.6,317.7,167.8,317.7z"/>
			<path class="st0" d="M209.3,317.7c-5.8,0-10.7-2.1-14.1-4.9l4.7-7.5c3.3,2.6,6.2,3.9,9.2,3.9c1.7,0,2.9-0.8,2.9-1.9
				c0-1.7-1.4-2.3-5.7-3.6c-6.5-2-9.7-4.8-9.7-10.6c0-7.7,6-11.8,14.6-11.8c4.6,0,9.1,1.7,11.5,3.6l-4.6,7.7
				c-2.4-1.8-4.6-2.7-7.3-2.7c-2.2,0-3.1,1-3.1,2c0,1.1,0.9,1.8,5.5,3.2c6.4,1.9,9.9,4.3,9.9,11C223.2,313,217.8,317.7,209.3,317.7z
				"/>
			<path class="st0" d="M251.5,317.7c-10.7,0-18.5-7.6-18.5-18.2c0-10.6,8-18.5,18.7-18.5c5.7,0,9.5,2.4,12.5,5l-5.8,7.9
				c-2-1.9-3.9-3.3-7-3.3c-3.9,0-6.9,3.4-6.9,8.5s2.8,8.8,7.5,8.8c2.6,0,5-1.2,7.1-3.1l5.7,7.7C261.6,315.6,257.8,317.7,251.5,317.7
				z"/>
			<path class="st0" d="M297.1,317.2v-12.4h-9v12.4h-11.8v-35.5h11.8v13.1h9v-13.1h11.8v35.5H297.1z"/>
			<path class="st0" d="M375.7,317.2v-35.5H387v26.4h11.6v9H375.7z"/>
			<path class="st0" d="M424.2,317.7c-11.1,0-19-7.7-19-18.2c0-10.6,8-18.4,19.2-18.4c11.1,0,19,7.7,19,18.2
				C443.3,310,435.3,317.7,424.2,317.7z M424.2,290.6c-4.3,0-7.4,3.7-7.4,8.8c0,5.1,3.2,9,7.5,9s7.4-3.7,7.4-8.8
				C431.7,294.4,428.5,290.6,424.2,290.6z"/>
			<path class="st0" d="M479.7,317.2v-17.3l-5.5,10.3h-5.4l-5.6-10.3v17.3H452v-35.5h11.5l8,14.1l7.5-14.1h12.4v35.5H479.7z"/>
			<path class="st0" d="M519.4,317.2h-16.7v-35.5h15.5c7.4,0,12.4,3.6,12.4,9.5c0,3.6-2.3,6.4-5.3,7.6c4.1,0.6,7.2,4.3,7.2,8.3
				C532.4,313.5,527.4,317.2,519.4,317.2z M515.7,289.7h-1.8v6.6h1.8c3.2,0,4.9-1.1,4.9-3.5S518.7,289.7,515.7,289.7z M517.4,302.7
				h-3.6v6.6h3.6c3.3,0,4.5-1.2,4.5-3.5C521.9,303.7,520.4,302.7,517.4,302.7z"/>
		</g>
	</g>
	<g>
		<rect x="336.6" y="293.7" class="st0" width="11.4" height="11.5"/>
		<g>
			<rect x="336.6" y="281.7" class="st1" width="11.4" height="12"/>
			<rect x="336.6" y="305.2" class="st1" width="11.4" height="12"/>
		</g>
		<g>
			<rect x="324.5" y="293.7" class="st2" width="12.1" height="11.5"/>
			<rect x="348" y="293.7" class="st2" width="12" height="11.5"/>
		</g>
	</g>
</g>
</svg>
