<?xml version="1.0" encoding="utf-8"?>
<!-- Generator: Adobe Illustrator 22.0.0, SVG Export Plug-In . SVG Version: 6.00 Build 0)  -->
<svg version="1.1" id="Layer_1" xmlns="http://www.w3.org/2000/svg" xmlns:xlink="http://www.w3.org/1999/xlink" x="0px" y="0px"
	 viewBox="0 0 1370.6 206.1" style="enable-background:new 0 0 1370.6 206.1;" xml:space="preserve">
<style type="text/css">
	.st0{fill-rule:evenodd;clip-rule:evenodd;fill:#FFFFFF;}
	.st1{fill-rule:evenodd;clip-rule:evenodd;fill:url(#SVGID_1_);}
</style>
<g>
	<path class="st0" d="M1255.9,64c0.8-0.7,1.7-1.1,2.5-1.3c0.9-0.2,1.7-0.3,2.5-0.3h13.9c1.1,0,2.1,0.2,2.8,0.6
		c0.8,0.4,1.5,0.9,2,1.6c0.6,0.7,1,1.4,1.3,2.3c0.3,0.9,0.6,1.7,0.9,2.7l2.8,11.7c0.9-1.9,2.3-4,4-6.5c1.7-2.4,4-4.7,6.6-6.8
		c2.7-2.1,5.9-3.9,9.6-5.3c3.7-1.4,8-2.1,12.9-2.1c7,0,13.3,1.3,19,4c5.7,2.7,10.6,6.3,14.6,11c4,4.6,7.1,10,9.3,16.3
		c2.2,6.2,3.3,12.8,3.3,19.9v60.2c0,2.3-0.5,4.1-1.5,5.3c-1,1.2-2.6,1.8-4.8,1.8h-21.2c-2.6,0-4.4-0.5-5.4-1.3
		c-1-0.9-1.5-2.6-1.5-5.2v-59.8c0-2.6-0.6-5.1-1.8-7.5c-1.2-2.4-2.8-4.4-4.7-6.2c-2-1.8-4.2-3.2-6.6-4.3c-2.5-1-5-1.6-7.6-1.6
		c-2.2,0-4.4,0.5-6.7,1.5c-2.3,1-4.4,2.3-6.3,4.1c-1.9,1.7-3.6,3.8-4.9,6.2c-1.3,2.4-2.1,4.9-2.3,7.7v59.7c0,1-0.2,2.1-0.6,3.1
		c-0.4,1-1,1.8-1.8,2.4c-0.8,0.5-1.5,0.8-2.2,1c-0.7,0.2-1.5,0.3-2.5,0.3h-20.8c-2.6,0-4.5-0.6-5.7-1.9c-1.2-1.3-1.7-3-1.7-5.1V69.2
		c0-1.2,0.3-2.2,0.8-3.2c0.5-0.9,1.2-1.7,2.1-2.3L1255.9,64L1255.9,64z M1153.1,120.9c0,4,0.6,7.8,1.9,11.3c1.3,3.5,3,6.6,5.3,9.1
		c2.3,2.6,5.1,4.6,8.4,6.1c3.3,1.5,7,2.2,11.1,2.2c4,0,7.6-0.7,10.8-2.2c3.2-1.5,5.9-3.6,8.2-6.1c2.2-2.5,4-5.6,5.1-9.1
		c1.2-3.5,1.8-7.3,1.8-11.3c0-3.9-0.6-7.6-1.8-11.2c-1.2-3.6-2.9-6.7-5.1-9.3c-2.2-2.7-5-4.8-8.2-6.4c-3.2-1.6-6.8-2.3-10.8-2.3
		c-4.1,0-7.8,0.8-11.1,2.3c-3.3,1.6-6.1,3.7-8.4,6.4c-2.3,2.7-4.1,5.8-5.3,9.3C1153.7,113.2,1153.1,117,1153.1,120.9L1153.1,120.9z
		 M1119.6,120.9c0-5.6,0.7-11.1,2.2-16.3c1.4-5.2,3.5-10,6.1-14.5c2.6-4.4,5.7-8.5,9.4-12.1c3.6-3.6,7.7-6.8,12.2-9.3
		c4.5-2.6,9.3-4.6,14.5-6c5.2-1.4,10.6-2.1,16.2-2.1c8.3,0,16.2,1.6,23.5,4.7c7.3,3.1,13.7,7.4,19.1,12.8
		c5.4,5.4,9.7,11.8,12.9,19.1c3.2,7.4,4.7,15.3,4.7,23.8c0,5.7-0.7,11.1-2.1,16.2c-1.4,5.2-3.5,10-6.1,14.5
		c-2.6,4.5-5.7,8.5-9.4,12.2c-3.6,3.6-7.7,6.8-12.2,9.4c-4.5,2.6-9.2,4.6-14.4,6c-5.1,1.4-10.5,2.1-16,2.1c-5.6,0-11-0.7-16.2-2.1
		c-5.2-1.4-10-3.4-14.5-6c-4.5-2.6-8.5-5.7-12.2-9.4c-3.6-3.6-6.8-7.7-9.4-12.2c-2.6-4.5-4.6-9.3-6.1-14.5
		C1120.3,131.9,1119.6,126.5,1119.6,120.9L1119.6,120.9z M1070.8,23.1c0-2.6,0.6-4.4,1.7-5.5c1.1-1.1,2.8-1.6,5.1-1.6h21.3
		c2.1,0,3.9,0.5,5.2,1.6c1.3,1.1,2,2.9,2,5.5V41c0,0.7-0.2,1.5-0.5,2.4c-0.3,0.9-0.8,1.7-1.4,2.5c-0.6,0.8-1.3,1.4-2.2,2
		c-0.9,0.5-1.9,0.8-3,0.8h-21.3c-4.5,0-6.8-2.5-6.8-7.6V23.1L1070.8,23.1z M1070.8,69.6c0-2,0.6-3.6,1.7-5.1
		c1.1-1.4,2.8-2.1,5.1-2.1h21c0.7,0,1.5,0.2,2.4,0.5c0.9,0.3,1.7,0.8,2.4,1.5c0.7,0.6,1.4,1.4,1.9,2.3c0.5,0.9,0.8,1.8,0.8,2.9V172
		c0,2.3-0.6,4.1-1.9,5.3c-1.3,1.2-3.1,1.8-5.5,1.8h-21c-4.5,0-6.8-2.4-6.8-7.1V69.6L1070.8,69.6z M1004.1,44.2
		c0-1.9,0.6-3.3,1.9-4.3c1.3-1,3-1.8,5.4-2.7l20.9-7.3c0.3-0.1,0.6-0.1,0.9-0.1s0.5,0,0.8,0c2.3,0,3.8,0.6,4.6,2
		c0.8,1.3,1.1,3.1,1.1,5.2l-0.1,28.9h15.3c2,0,3.6,0.6,4.8,1.7c1.2,1.2,1.8,2.9,1.8,5.2v17.7c0,2.6-0.6,4.4-1.8,5.6
		c-1.2,1.2-2.8,1.8-4.8,1.8h-15.3l0.1,73.9c0,2.3-0.7,4.1-2,5.3c-1.3,1.2-3.2,1.8-5.6,1.8h-20.8c-4.7,0-7.1-2.4-7.1-7.1l-0.1-73.9
		h-6.7c-4.7,0-7.1-2.5-7.1-7.4V73c0-4.7,2.4-7,7.1-7h6.7L1004.1,44.2L1004.1,44.2z M889.4,120.9c0,4,0.6,7.8,1.9,11.3
		c1.3,3.5,3,6.6,5.4,9.1c2.3,2.6,5.1,4.6,8.4,6.1c3.3,1.5,6.9,2.2,10.9,2.2c4.1,0,7.9-0.7,11.5-2.2c3.5-1.5,6.6-3.6,9.2-6.1
		c2.6-2.5,4.6-5.6,6.1-9.1c1.5-3.5,2.2-7.3,2.2-11.3c0-3.9-0.7-7.6-2.2-11.2c-1.5-3.6-3.5-6.7-6.1-9.3c-2.6-2.7-5.7-4.8-9.2-6.4
		c-3.5-1.6-7.3-2.3-11.5-2.3c-4,0-7.6,0.8-10.9,2.3c-3.3,1.6-6.1,3.7-8.4,6.4c-2.3,2.7-4.1,5.8-5.4,9.3
		C890.1,113.2,889.4,117,889.4,120.9L889.4,120.9z M979.9,172.3c0,1-0.2,2.1-0.6,3c-0.4,0.9-1,1.7-1.8,2.2c-0.7,0.7-1.5,1.1-2.4,1.3
		c-0.9,0.2-1.7,0.3-2.4,0.3h-18.1c-1.3,0-2.3-0.2-3.1-0.5c-0.8-0.3-1.4-0.8-1.9-1.4c-0.5-0.6-0.9-1.3-1.2-2.2
		c-0.3-0.9-0.7-1.9-1.1-2.9l-2.7-6.9c-1.7,1.7-3.5,3.4-5.4,5.3c-2,1.9-4.1,3.6-6.5,5.2c-2.4,1.6-4.9,2.9-7.7,4
		c-2.8,1.1-5.7,1.6-8.8,1.6c-5.6,0-10.9-0.7-16-2.1c-5.1-1.4-9.9-3.4-14.3-6c-4.4-2.6-8.5-5.7-12.1-9.4c-3.6-3.6-6.7-7.7-9.3-12.2
		c-2.6-4.5-4.6-9.3-6-14.5c-1.4-5.2-2.1-10.6-2.1-16.2c0-8.5,1.6-16.4,4.7-23.8c3.1-7.3,7.4-13.7,12.8-19.1
		c5.4-5.4,11.7-9.7,19-12.8c7.3-3.1,15.1-4.7,23.4-4.7c3.8,0,7.3,0.6,10.5,1.7s6.1,2.6,8.7,4.5c2.6,1.8,5,3.9,7.1,6.2
		c2.1,2.3,4,4.7,5.6,7.1l3.6-11.2c0.6-1.6,1.1-2.8,1.5-3.8c0.4-0.9,0.8-1.7,1.3-2.1c0.5-0.5,1-0.8,1.7-0.9c0.7-0.2,1.6-0.2,2.8-0.2
		h13.7c0.7,0,1.5,0.1,2.4,0.3c0.9,0.2,1.7,0.6,2.4,1.3c0.9,0.7,1.5,1.4,1.8,2.3c0.4,0.9,0.6,1.8,0.6,2.9V172.3L979.9,172.3z
		 M829.9,143.2c0.9-0.6,1.7-1,2.5-1.2c0.8-0.2,1.3-0.2,1.8-0.2c1,0,2,0.2,2.8,0.6c0.9,0.4,1.7,1.3,2.7,2.8l10.3,15.6
		c0.3,0.5,0.6,1,0.9,1.7c0.3,0.6,0.4,1.1,0.4,1.5c0,1.4-0.4,2.6-1.3,3.5c-0.9,0.9-1.9,1.7-2.9,2.4c-5,3.5-10.5,6.3-16.5,8.4
		c-6,2.1-12.3,3.2-19,3.2c-5.5,0-10.8-0.7-15.9-2.1c-5.1-1.4-9.9-3.4-14.3-6c-4.4-2.6-8.5-5.7-12.1-9.4c-3.7-3.6-6.8-7.7-9.4-12.2
		c-2.6-4.5-4.6-9.3-6-14.5c-1.4-5.2-2.2-10.6-2.2-16.2c0-5.6,0.7-11.1,2.2-16.3c1.4-5.2,3.4-10,6-14.5c2.6-4.4,5.7-8.5,9.4-12.1
		c3.7-3.6,7.7-6.8,12.1-9.3c4.4-2.6,9.2-4.6,14.3-6c5.1-1.4,10.4-2.1,15.9-2.1c6.7,0,12.9,0.9,18.5,2.7c5.7,1.8,11,4.4,15.9,7.9
		l-0.3-0.3c1.3,0.8,2.4,1.7,3.2,2.8c0.8,1.1,1.2,2.4,1.2,4c0,1.1-0.4,2.2-1.1,3.4L840.9,95c-1.7,3-3.8,4.5-6.2,4.5
		c-0.6,0-1.2-0.2-2-0.4c-0.8-0.3-1.7-0.7-2.7-1.4c-2.7-1.8-5.6-3.2-8.7-4.4c-3.1-1.1-6.4-1.7-9.9-1.7c-3.9,0-7.4,0.8-10.7,2.3
		c-3.2,1.6-6,3.7-8.3,6.4c-2.3,2.7-4.1,5.8-5.4,9.3c-1.3,3.6-1.9,7.3-1.9,11.2c0,4,0.6,7.8,1.9,11.3c1.3,3.5,3.1,6.6,5.4,9.1
		c2.3,2.6,5.1,4.6,8.3,6.1c3.2,1.5,6.8,2.2,10.7,2.2c3.5,0,6.8-0.6,9.8-1.8C824.3,146.6,827.2,145.1,829.9,143.2L829.9,143.2z
		 M735.8,177.5c-0.8,0.7-1.6,1.1-2.5,1.3c-0.9,0.2-1.7,0.3-2.5,0.3h-13.9c-1.1,0-2.1-0.2-2.8-0.6c-0.8-0.4-1.5-0.9-2-1.6
		c-0.6-0.7-1-1.4-1.4-2.3c-0.4-0.9-0.7-1.7-0.9-2.7l-2.8-11.7c-0.9,1.9-2.2,4-4,6.5c-1.7,2.4-4,4.7-6.7,6.8
		c-2.7,2.1-5.9,3.9-9.6,5.3c-3.7,1.4-8,2.1-12.9,2.1c-7,0-13.3-1.3-19-4c-5.7-2.7-10.5-6.4-14.5-11c-4-4.7-7.1-10.1-9.3-16.3
		c-2.2-6.2-3.3-12.8-3.3-19.9V69.5c0-2.3,0.5-4.1,1.5-5.3c1-1.2,2.6-1.8,4.8-1.8H655c2.6,0,4.4,0.5,5.4,1.3c1,0.9,1.5,2.6,1.5,5.2
		v59.9c0,2.6,0.6,5.1,1.8,7.5c1.2,2.4,2.8,4.4,4.7,6.2c2,1.8,4.2,3.2,6.7,4.3s5,1.6,7.6,1.6c2.2,0,4.5-0.5,6.9-1.6
		c2.4-1,4.5-2.5,6.5-4.2c2-1.7,3.6-3.8,4.9-6.2c1.3-2.4,1.9-4.9,1.9-7.5V69.2c0-1,0.2-2.1,0.6-3.1c0.4-1,1-1.8,1.8-2.4
		c0.8-0.5,1.6-0.8,2.3-1c0.7-0.2,1.5-0.3,2.4-0.3h20.8c2.6,0,4.5,0.6,5.7,1.9c1.2,1.3,1.7,3,1.7,5.1v102.8c0,1.2-0.2,2.2-0.8,3.2
		c-0.5,1-1.3,1.7-2.2,2.3L735.8,177.5L735.8,177.5z M519.9,120.9c0,4,0.6,7.8,1.9,11.3c1.3,3.5,3,6.6,5.4,9.1
		c2.3,2.6,5.1,4.6,8.4,6.1c3.3,1.5,6.9,2.2,10.9,2.2c3.9,0,7.6-0.7,11.1-2.1c3.5-1.4,6.5-3.3,9-5.8c2.6-2.5,4.7-5.4,6.2-8.8
		c1.6-3.4,2.4-7,2.6-10.8v-1.3c0-3.9-0.7-7.6-2.2-11.2c-1.5-3.6-3.5-6.7-6.1-9.3c-2.6-2.7-5.7-4.8-9.2-6.4
		c-3.5-1.6-7.4-2.3-11.5-2.3c-4,0-7.6,0.8-10.9,2.3c-3.3,1.6-6.1,3.7-8.4,6.4c-2.3,2.7-4.1,5.8-5.4,9.3
		C520.6,113.2,519.9,117,519.9,120.9L519.9,120.9z M572.8,164.9c-1.7,1.7-3.5,3.5-5.5,5.4c-2,1.9-4.2,3.7-6.6,5.3
		c-2.4,1.7-5,3-7.7,4.1c-2.8,1.1-5.7,1.6-8.9,1.6c-8.3,0-16-1.6-23-4.7c-7-3.1-13-7.4-18.1-12.8c-5.1-5.4-9-11.8-11.9-19.2
		c-2.8-7.4-4.3-15.3-4.3-23.7c0-8.5,1.4-16.4,4.3-23.8c2.8-7.3,6.8-13.7,11.9-19.1c5.1-5.4,11.1-9.7,18.1-12.8
		c7-3.1,14.7-4.7,23-4.7c3.4,0,6.5,0.5,9.2,1.5c2.8,1,5.3,2.2,7.6,3.8c2.3,1.5,4.4,3.2,6.3,5.2c1.9,1.9,3.7,3.8,5.5,5.7v-42
		c0-2,0.6-3.6,1.8-5c1.2-1.3,3-2,5.4-2h20.7c0.8,0,1.7,0.2,2.5,0.5c0.9,0.3,1.7,0.8,2.4,1.4c0.7,0.6,1.3,1.3,1.8,2.2
		c0.5,0.9,0.7,1.8,0.7,2.8V172c0,4.7-2.5,7.1-7.4,7.1h-18c-1.2,0-2.2-0.2-2.8-0.5c-0.7-0.3-1.2-0.7-1.7-1.3
		c-0.5-0.6-0.9-1.3-1.3-2.2c-0.4-0.9-0.8-1.9-1.4-3.1L572.8,164.9L572.8,164.9z M375.4,46.8c0-1.3,0.4-2.3,1.1-3.1
		c0.7-0.8,1.7-1.2,3-1.2h91.2c1.3,0,2.4,0.4,3.1,1.2c0.7,0.8,1.1,1.9,1.1,3.2v22.8c0,1-0.4,2-1.1,3c-0.7,0.9-1.8,1.4-3.2,1.4H411
		v22.8h45.9c1.2,0,2.1,0.3,2.9,0.8c0.8,0.6,1.1,1.5,1.1,2.8v19.9c0,0.9-0.3,1.7-1,2.5c-0.7,0.8-1.7,1.2-2.9,1.2h-46v23.3h61.7
		c2.8,0,4.1,1.4,4.1,4.2v23.2c0,0.6-0.2,1.2-0.7,1.7c-0.2,1.7-1.5,2.6-3.8,2.6h-93c-1.2,0-2.2-0.3-2.9-1c-0.7-0.6-1.1-1.6-1.1-3
		V46.8L375.4,46.8z M284.8,114.2c0-2.7,1.3-4,4-4h62.7c1.1,0,2.1,0.4,2.8,1.1c0.8,0.7,1.2,1.7,1.2,3V133c0,0.9-0.4,1.9-1.1,2.9
		c-0.7,1-1.7,1.5-2.9,1.5h-62.7c-2.7,0-4-1.5-4-4.4V114.2z"/>
	<linearGradient id="SVGID_1_" gradientUnits="userSpaceOnUse" x1="3.6" y1="110.823" x2="268.5341" y2="110.823">
		<stop  offset="0" style="stop-color:#E4007D"/>
		<stop  offset="1" style="stop-color:#F6A500"/>
	</linearGradient>
	<path class="st1" d="M160.2,64c0.8-0.7,1.7-1.1,2.5-1.3c0.9-0.2,1.7-0.3,2.5-0.3h13.9c1.1,0,2.1,0.2,2.8,0.6c0.8,0.4,1.5,0.9,2,1.6
		c0.6,0.7,1,1.4,1.3,2.3c0.3,0.9,0.6,1.7,0.9,2.7l2.8,11.7c0.9-1.9,2.3-4,4-6.5c1.7-2.4,4-4.7,6.6-6.8c2.7-2.1,5.9-3.9,9.6-5.3
		c3.7-1.4,8-2.1,12.9-2.1c7,0,13.3,1.3,19,4c5.7,2.7,10.6,6.3,14.6,11c4,4.6,7.1,10,9.3,16.3c2.2,6.2,3.3,12.8,3.3,19.9v60.2
		c0,2.3-0.5,4.1-1.5,5.3c-1,1.2-2.6,1.8-4.8,1.8H241c-2.6,0-4.4-0.5-5.4-1.3c-1-0.9-1.5-2.6-1.5-5.2v-59.8c0-2.6-0.6-5.1-1.8-7.5
		c-1.2-2.4-2.8-4.4-4.7-6.2c-2-1.8-4.2-3.2-6.6-4.3c-2.5-1-5-1.6-7.6-1.6c-2.2,0-4.4,0.5-6.7,1.5c-2.3,1-4.4,2.3-6.3,4.1
		c-1.9,1.7-3.6,3.8-4.9,6.2c-1.3,2.4-2.1,4.9-2.3,7.7v59.7c0,1-0.2,2.1-0.6,3.1c-0.4,1-1,1.8-1.8,2.4c-0.8,0.5-1.5,0.8-2.2,1
		s-1.5,0.3-2.5,0.3h-20.8c-2.6,0-4.5-0.6-5.7-1.9c-1.2-1.3-1.7-3-1.7-5.1V69.2c0-1.2,0.3-2.2,0.8-3.2c0.5-0.9,1.2-1.7,2.1-2.3
		L160.2,64L160.2,64z M3.6,110.9c0-6.5,0.8-12.7,2.5-18.7c1.7-6,4-11.6,7.1-16.8c3.1-5.2,6.7-10,11-14.3c4.3-4.3,9-7.9,14.2-11
		c5.2-3,10.8-5.4,16.8-7.1c6-1.7,12.2-2.5,18.7-2.5c6.4,0,12.6,0.9,18.7,2.5c6,1.7,11.6,4,16.8,7.1c5.2,3,10,6.7,14.3,11
		c4.3,4.3,8,9.1,11,14.3c3,5.2,5.4,10.8,7.1,16.8c1.7,6,2.5,12.2,2.5,18.7c0,6.5-0.9,12.7-2.5,18.7c-1.7,6-4,11.6-7.1,16.8
		c-3,5.2-6.7,9.9-11,14.1c-4.3,4.3-9.1,7.9-14.3,11c-5.2,3.1-10.8,5.4-16.8,7.1c-6,1.7-12.3,2.5-18.7,2.5c-6.5,0-12.8-0.8-18.7-2.5
		c-6-1.7-11.6-4-16.8-7.1c-5.2-3.1-10-6.7-14.2-11c-4.3-4.3-7.9-9-11-14.1c-3.1-5.2-5.5-10.8-7.1-16.8
		C4.4,123.7,3.6,117.5,3.6,110.9L3.6,110.9z M39.2,110.8c0,5.1,0.9,9.8,2.6,14.2c1.7,4.4,4.1,8.2,7.2,11.5c3.1,3.3,6.7,5.8,11,7.7
		c4.2,1.9,8.9,2.8,14,2.8c5.1,0,9.7-0.9,14-2.8c4.3-1.9,7.9-4.4,11-7.7c3.1-3.3,5.5-7.1,7.2-11.5c1.7-4.4,2.6-9.2,2.6-14.2
		c0-5-0.9-9.8-2.6-14.2c-1.7-4.4-4.1-8.3-7.2-11.6c-3.1-3.3-6.8-5.9-11-7.8c-4.2-1.9-8.9-2.8-14-2.8c-5.1,0-9.7,0.9-14,2.8
		c-4.2,1.9-7.9,4.5-11,7.8c-3.1,3.3-5.5,7.2-7.2,11.6C40.1,101.1,39.2,105.8,39.2,110.8z"/>
	<path class="st0" d="M58.4,120.9c-3.2-9.5-3.7-13-5.6-18.6c-1.9-5.6-1.9-11.1,5.6-14.9c7.4-3.7,13-1.9,16.7,9.3
		c3.7,11.1,5.6,9.3,13-1.9c7.4-11.1,41.4-62.5,50.1-70.5c8.8-8,14.4-7.1,19-7.4c3.7,0,10.3,0.8-4.3,18c-7.1,8.4-59.3,76.7-66.7,93.4
		c0,0-3.7,5-9.3,5.6C71.1,134.5,63.9,137.6,58.4,120.9z"/>
</g>
<title>logo</title>
</svg>
