<?xml version="1.0" encoding="utf-8"?>
<!-- Generator: Adobe Illustrator 22.0.0, SVG Export Plug-In . SVG Version: 6.00 Build 0)  -->
<svg version="1.1" id="Layer_1" xmlns="http://www.w3.org/2000/svg" xmlns:xlink="http://www.w3.org/1999/xlink" x="0px" y="0px"
	 viewBox="0 0 600 600" style="enable-background:new 0 0 600 600;" xml:space="preserve">
<style type="text/css">
	.st0{fill:#FFFFFF;}
	.st1{opacity:0.8;fill:#FFFFFF;enable-background:new    ;}
	.st2{opacity:0.6;fill:#FFFFFF;enable-background:new    ;}
	.st3{opacity:0.6;}
</style>
<g>
	<rect x="238.8" y="272.5" class="st0" width="5.8" height="39.4"/>
	<path class="st0" d="M176,277.5c-7.8,0-14,6.6-14,14.8c0,8.1,6.3,14.5,14.3,14.5c7.9,0,14.2-6.4,14.2-14.5
		C190.5,283.8,184.3,277.5,176,277.5z M176.3,272.1c11.2,0,20,8.8,20,20.1c0,11-9,20-20,20c-11.1,0-20.1-9-20.1-20
		C156.2,281,165,272.1,176.3,272.1z"/>
	<path class="st0" d="M55,276.9c-3.6,0-6.7,2.5-6.3,6.2c0.2,1.6,1,2.6,2.5,3.6c0.4,0.3,1.3,0.6,2.4,1c1.1,0.4,2.5,0.9,3.9,1.4
		c2.8,1,5.7,2.1,6.9,3.3c2.1,2,3.3,4.5,3.3,7.5c0,7.4-6,12.4-13,12.4c-7.1,0-13.1-4.9-13.3-12.1H47c0.7,4.9,3.8,7.1,7.7,7.1
		c3.6,0,7.4-2.3,7.4-6.5c0-2.3-1.1-4-3.2-5.1c-0.5-0.3-1.3-0.6-2.3-0.9c-0.9-0.3-2-0.7-3.1-1c-2.2-0.7-4.5-1.5-5.9-2.4
		c-2.8-1.7-4.6-4.6-4.6-8c0-6.6,5.1-11.5,12.2-11.5c5.6,0,11.4,4.4,11.8,10.7h-5.7C61.1,279.2,58.2,276.9,55,276.9z"/>
	<path class="st0" d="M209.7,272.5h18.6v5.3h-16.7v12.8h16.7v5.3h-16.7v16h-5.7v-35.6C205.9,274.2,207.6,272.5,209.7,272.5z"/>
	<path class="st0" d="M121.9,281.7v30.2h-5.8v-35.7c0-2.2,1.8-4,4-4c1.4,0,2.6,0.6,3.4,1.9c5.7,9.3,16.2,26.7,17.3,28.7v-30.2h5.8
		v35.7c0,2.2-1.8,4-4,4c-1.4,0-2.6-0.6-3.4-1.9C133.5,301.1,123,283.6,121.9,281.7z"/>
	<path class="st0" d="M90.2,279.7l-5.8,15.9H96L90.2,279.7z M82.5,300.8l-4,11.1h-6l14.1-37.3c0.5-1.4,2-2.5,3.6-2.5s3.1,1,3.6,2.5
		l14.1,37.3h-6l-4.1-11.1H82.5z"/>
	<path class="st1" d="M571.5,283c-9.7-14.3-20.7-1.7-31.6-3.3c-10.9-1.5-11.3-16.5,2.1-17.7c0.3,0,0.6-0.1,1-0.1
		C556.5,262.1,567.8,270.9,571.5,283z"/>
	<path class="st0" d="M571.9,283.9c0.7,2.6,1.1,5.4,1.1,8.3c0,16.7-13.5,30.2-30.2,30.2c-7.3,0-14.1-2.6-19.3-7
		c2.1,0.8,4.5,1.2,6.6,1.2C557.5,316.8,545.8,280.3,571.9,283.9z"/>
	<path class="st2" d="M531.8,312.9c-3.8,2.3-9.8,1.6-14-4.1c-0.9-1.3-1.7-2.6-2.3-3.8c-1.8-3.9-2.9-8.3-2.9-12.9
		c0-1.2,0.1-2.4,0.2-3.6c6.6,8.9,14.2,8.6,19,11.5c2.1,1.3,3.6,3.7,3.6,6.4C535.4,309.2,533.9,311.6,531.8,312.9z"/>
	<g class="st3">
		<path class="st0" d="M267.8,271.8c2.4-0.4,5.5-0.7,9.5-0.7c4.9,0,8.5,1.1,10.8,3.1c2.1,1.8,3.4,4.5,3.4,7.8c0,3.4-1,6-3,7.9
			c-2.6,2.7-6.9,4.1-11.8,4.1c-1.5,0-2.9-0.1-4-0.3v14.9h-5v-36.8H267.8z M272.8,289.7c1.1,0.3,2.5,0.4,4.1,0.4c6,0,9.7-2.8,9.7-7.9
			c0-4.9-3.6-7.3-9.1-7.3c-2.2,0-3.8,0.2-4.7,0.4V289.7z"/>
		<path class="st0" d="M301,296.8l-4,11.7h-5.1l13.1-37.1h6l13.1,37.1h-5.3l-4.1-11.7H301L301,296.8z M313.6,293.1l-3.8-10.7
			c-0.9-2.4-1.4-4.6-2-6.8h-0.1c-0.6,2.2-1.2,4.5-1.9,6.7L302,293L313.6,293.1L313.6,293.1z"/>
		<path class="st0" d="M330.4,302.7c2.2,1.3,5.5,2.4,8.9,2.4c5.1,0,8.1-2.6,8.1-6.3c0-3.5-2.1-5.5-7.3-7.4
			c-6.3-2.1-10.2-5.3-10.2-10.5c0-5.8,5-10.1,12.5-10.1c3.9,0,6.8,0.9,8.5,1.8l-1.4,3.9c-1.3-0.7-3.8-1.8-7.3-1.8
			c-5.3,0-7.3,3-7.3,5.6c0,3.5,2.3,5.2,7.7,7.2c6.5,2.4,9.8,5.5,9.8,10.9c0,5.7-4.4,10.7-13.5,10.7c-3.7,0-7.8-1-9.8-2.4
			L330.4,302.7z"/>
		<path class="st0" d="M367.9,275.5h-11.7v-4.1h28.5v4.1h-11.8v33.1h-5V275.5z"/>
		<path class="st0" d="M410.2,291.1h-15v13.4h16.7v4h-21.7v-37.1H411v4h-15.8v11.7h15V291.1z"/>
		<path class="st0" d="M424.7,271.4v22c0,8.3,3.8,11.8,9,11.8c5.7,0,9.4-3.6,9.4-11.8v-22h5V293c0,11.4-6.2,16.1-14.6,16.1
			c-7.9,0-13.8-4.4-13.8-15.9v-21.8H424.7z"/>
		<path class="st0" d="M458,271.9c2.5-0.5,6.1-0.8,9.5-0.8c5.3,0,8.7,0.9,11.1,3c1.9,1.7,3,4.2,3,7.1c0,4.9-3.2,8.2-7.3,9.5v0.2
			c3,1,4.7,3.6,5.7,7.5c1.3,5.2,2.2,8.8,3,10.2h-5.1c-0.6-1-1.5-4.2-2.6-8.9c-1.1-5.1-3.2-7.1-7.7-7.2h-4.7v16.1h-5v-36.7H458z
			 M463,288.8h5.1c5.3,0,8.7-2.8,8.7-7.1c0-4.8-3.6-6.9-8.9-6.9c-2.4,0-4.1,0.2-4.9,0.4L463,288.8L463,288.8z"/>
	</g>
</g>
</svg>
