<?xml version="1.0" encoding="utf-8"?>
<!-- Generator: Adobe Illustrator 22.0.0, SVG Export Plug-In . SVG Version: 6.00 Build 0)  -->
<svg version="1.1"
	 id="Layer_2_1_" inkscape:export-filename="G:\Users\suitedoalex\sites\bayer-logo-0.png" inkscape:export-xdpi="96" inkscape:export-ydpi="96" inkscape:version="0.92.2 (5c3e80d, 2017-08-06)" sodipodi:docname="bayer-logo-1.svg" xmlns:cc="http://creativecommons.org/ns#" xmlns:dc="http://purl.org/dc/elements/1.1/" xmlns:inkscape="http://www.inkscape.org/namespaces/inkscape" xmlns:rdf="http://www.w3.org/1999/02/22-rdf-syntax-ns#" xmlns:sodipodi="http://sodipodi.sourceforge.net/DTD/sodipodi-0.dtd" xmlns:svg="http://www.w3.org/2000/svg"
	 xmlns="http://www.w3.org/2000/svg" xmlns:xlink="http://www.w3.org/1999/xlink" x="0px" y="0px" viewBox="0 0 4096 4096"
	 style="enable-background:new 0 0 4096 4096;" xml:space="preserve">
<style type="text/css">
	.st0{fill:#FFFFFF;}
	.st1{opacity:0.5;fill:#FFFFFF;enable-background:new    ;}
</style>
<sodipodi:namedview  bordercolor="#666666" borderopacity="1" gridtolerance="10" guidetolerance="10" id="namedview12" inkscape:current-layer="Layer_2" inkscape:cx="2417.0941" inkscape:cy="2541.2115" inkscape:pageopacity="0" inkscape:pageshadow="2" inkscape:window-height="837" inkscape:window-maximized="1" inkscape:window-width="1600" inkscape:window-x="-8" inkscape:window-y="-8" inkscape:zoom="0.06861727" objecttolerance="10" pagecolor="#ffffff" showgrid="false">
	</sodipodi:namedview>
<g id="Bayer_Cross_1_" transform="matrix(38.77628,0,0,38.77628,566.7461,574.50136)" inkscape:export-filename="G:\Users\suitedoalex\sites\bayer-logo-6.png" inkscape:export-xdpi="1.6287767" inkscape:export-ydpi="1.6287767">
	<path id="path4" inkscape:connector-curvature="0" class="st0" d="M36.6,19.7h3c0.3,0,0.6-0.3,0.6-0.6c0-0.3-0.3-0.6-0.6-0.6h-3
		V19.7z M36.6,22.6h3.1c0.4,0,0.7-0.3,0.7-0.7s-0.3-0.7-0.7-0.7h-3.1V22.6z M41.5,20.4c0.4,0.4,0.7,1,0.7,1.6c0,1.2-1,2.2-2.2,2.2
		h-5V17h5c1.2,0,2.1,1,2.1,2.1C42,19.6,41.8,20.1,41.5,20.4L41.5,20.4z M42.7,32.8h-1.9l-0.6-1.2h-4.1l-0.6,1.2h-1.9l3.6-7.2H39
		L42.7,32.8z M38.2,27.4L37,30.1h2.5L38.2,27.4z M40.7,34.4h2.1l-3.7,4.7v2.6h-1.7v-2.6l-3.7-4.7h2.1l2.5,3.3L40.7,34.4z M50.3,34.4
		V36h-4.8v1.2h4.7v1.6h-4.7v1.4h4.8v1.6h-6.5v-7.4H50.3z M55.6,38.9h-1.3v2.8h-1.7v-7.2H57c1.2,0,2.2,1,2.2,2.3c0,1-0.7,1.9-1.6,2.1
		l2.1,2.8h-2.1L55.6,38.9z M56.8,35.9h-2.5v1.4h2.5c0.4,0,0.7-0.3,0.7-0.7S57.2,35.9,56.8,35.9z M34.5,41.6h-1.9l-0.6-1.2H28
		l-0.6,1.2h-1.9l3.7-7.2h1.7L34.5,41.6z M30,36.3l-1.2,2.6h2.6L30,36.3z M19,37.2h3c0.3,0,0.6-0.3,0.6-0.6s-0.3-0.6-0.6-0.6h-3V37.2
		z M19,40.1h3.1c0.4,0,0.7-0.3,0.7-0.7s-0.3-0.7-0.7-0.7H19V40.1z M23.9,37.9c0.4,0.4,0.7,1,0.7,1.6c0,1.2-1,2.2-2.2,2.2h-5.1v-7.2
		h5c1.2,0,2.1,1,2.1,2.1C24.4,37,24.2,37.5,23.9,37.9L23.9,37.9z M41.5,43.2v1.6h-4.8V46h4.7v1.6h-4.7V49h4.8v1.6H35v-7.4H41.5z
		 M40.3,54.4c0-0.4-0.3-0.7-0.7-0.7h-3v1.4h3C40,55.1,40.3,54.8,40.3,54.4z M34.9,59.4v-7.2h4.8c1.2,0,2.2,1,2.2,2.3
		c0,1-0.6,1.7-1.4,2.1l2.2,2.9h-2.1l-2.1-2.8h-2v2.8L34.9,59.4z"/>
	<path id="path6" inkscape:connector-curvature="0" class="st1" d="M64.3,36.5c-0.8-13.7-12.2-24.5-26.1-24.5S12.9,22.8,12.1,36.5
		c0,0.6,0.1,1.1,0.1,1.7c0.6,4.6,2.3,8.8,4.9,12.3c4.8,6.5,12.4,10.7,21.1,10.7c-12.1,0-22.1-9.4-22.9-21.3
		c-0.1-0.6-0.1-1.1-0.1-1.7s0-1.1,0.1-1.7c0.8-11.9,10.8-21.3,22.9-21.3c8.7,0,16.3,4.2,21.1,10.7c2.6,3.5,4.3,7.7,4.9,12.3
		c0.1,0.6,0.1,1.1,0.1,1.6c0-0.6,0.1-1.1,0.1-1.7C64.4,37.6,64.4,37,64.3,36.5"/>
	<path id="path8" inkscape:connector-curvature="0" class="st0" d="M12.1,39.8c0.8,13.7,12.2,24.5,26.1,24.5s25.3-10.9,26.1-24.5
		c0-0.6-0.1-1.1-0.1-1.7c-0.6-4.6-2.3-8.8-4.9-12.3c-4.8-6.5-12.4-10.7-21.1-10.7c12.1,0,22.1,9.4,22.9,21.3
		c0.1,0.6,0.1,1.1,0.1,1.7s0,1.1-0.1,1.7c-0.8,11.9-10.8,21.3-22.9,21.3c-8.7,0-16.3-4.2-21.1-10.7c-2.6-3.5-4.3-7.7-4.9-12.3
		c-0.1-0.6-0.1-1.1-0.1-1.6c0,0.6-0.1,1.1-0.1,1.7C12,38.7,12,39.2,12.1,39.8"/>
</g>
</svg>
