<?xml version="1.0" encoding="utf-8"?>
<!-- Generator: Adobe Illustrator 22.0.0, SVG Export Plug-In . SVG Version: 6.00 Build 0)  -->
<svg version="1.1" id="Layer_1" xmlns="http://www.w3.org/2000/svg" xmlns:xlink="http://www.w3.org/1999/xlink" x="0px" y="0px"
	 viewBox="0 0 600 600" style="enable-background:new 0 0 600 600;" xml:space="preserve">
<style type="text/css">
	.st0{fill:none;stroke:url(#SVGID_1_);stroke-width:0.5;stroke-linecap:round;stroke-linejoin:round;stroke-miterlimit:10;}
	.st1{fill:none;stroke:url(#SVGID_2_);stroke-width:0.5;stroke-linecap:round;stroke-linejoin:round;stroke-miterlimit:10;}
	.st2{fill:none;stroke:url(#SVGID_3_);stroke-width:0.5;stroke-linecap:round;stroke-linejoin:round;stroke-miterlimit:10;}
	.st3{fill:none;stroke:url(#SVGID_4_);stroke-width:0.5;stroke-linecap:round;stroke-linejoin:round;stroke-miterlimit:10;}
	.st4{fill:none;stroke:url(#SVGID_5_);stroke-width:0.5;stroke-linecap:round;stroke-linejoin:round;stroke-miterlimit:10;}
	.st5{fill:url(#SVGID_6_);}
	.st6{fill:url(#SVGID_7_);}
	.st7{opacity:0.45;fill:url(#SVGID_8_);}
	.st8{fill:url(#SVGID_9_);}
	.st9{opacity:0.45;fill:url(#SVGID_10_);}
	.st10{fill:url(#SVGID_11_);}
	.st11{opacity:0.45;fill:url(#SVGID_12_);}
	.st12{fill:url(#SVGID_13_);}
	.st13{opacity:0.45;fill:url(#SVGID_14_);}
	.st14{fill:url(#SVGID_15_);}
	.st15{opacity:0.45;fill:url(#SVGID_16_);}
	.st16{fill:url(#SVGID_17_);}
	.st17{opacity:0.45;fill:url(#SVGID_18_);}
	.st18{fill:url(#SVGID_19_);}
	.st19{opacity:0.45;fill:url(#SVGID_20_);}
	.st20{fill:url(#SVGID_21_);}
	.st21{opacity:0.45;fill:url(#SVGID_22_);}
	.st22{fill:url(#SVGID_23_);}
	.st23{opacity:0.45;fill:url(#SVGID_24_);}
	.st24{fill:url(#SVGID_25_);}
	.st25{opacity:0.45;fill:url(#SVGID_26_);}
	.st26{fill:url(#SVGID_27_);}
	.st27{opacity:0.45;fill:url(#SVGID_28_);}
	.st28{fill:url(#SVGID_29_);}
	.st29{opacity:0.45;fill:url(#SVGID_30_);}
	.st30{fill:url(#SVGID_31_);}
	.st31{fill:none;stroke:url(#SVGID_32_);stroke-width:0.5;stroke-linecap:round;stroke-linejoin:round;stroke-miterlimit:10;}
	.st32{fill:none;stroke:url(#SVGID_33_);stroke-width:0.5;stroke-linecap:round;stroke-linejoin:round;stroke-miterlimit:10;}
	.st33{fill:none;stroke:url(#SVGID_34_);stroke-width:0.5;stroke-linecap:round;stroke-linejoin:round;stroke-miterlimit:10;}
	.st34{fill:none;stroke:url(#SVGID_35_);stroke-width:0.5;stroke-linecap:round;stroke-linejoin:round;stroke-miterlimit:10;}
	.st35{fill:none;stroke:url(#SVGID_36_);stroke-width:0.5;stroke-linecap:round;stroke-linejoin:round;stroke-miterlimit:10;}
	.st36{fill:none;stroke:url(#SVGID_37_);stroke-width:0.5;stroke-linecap:round;stroke-linejoin:round;stroke-miterlimit:10;}
	.st37{fill:none;stroke:url(#SVGID_38_);stroke-width:0.5;stroke-linecap:round;stroke-linejoin:round;stroke-miterlimit:10;}
	.st38{fill:none;stroke:url(#SVGID_39_);stroke-width:0.5;stroke-linecap:round;stroke-linejoin:round;stroke-miterlimit:10;}
	.st39{fill:none;stroke:url(#SVGID_40_);stroke-width:0.5;stroke-linecap:round;stroke-linejoin:round;stroke-miterlimit:10;}
	.st40{fill:none;stroke:url(#SVGID_41_);stroke-width:0.5;stroke-linecap:round;stroke-linejoin:round;stroke-miterlimit:10;}
	.st41{fill:none;stroke:url(#SVGID_42_);stroke-width:0.5;stroke-linecap:round;stroke-linejoin:round;stroke-miterlimit:10;}
	.st42{fill:none;stroke:url(#SVGID_43_);stroke-width:0.5;stroke-linecap:round;stroke-linejoin:round;stroke-miterlimit:10;}
	.st43{fill:none;stroke:url(#SVGID_44_);stroke-width:0.5;stroke-linecap:round;stroke-linejoin:round;stroke-miterlimit:10;}
	.st44{fill:none;stroke:url(#SVGID_45_);stroke-width:0.5;stroke-linecap:round;stroke-linejoin:round;stroke-miterlimit:10;}
	.st45{fill:none;stroke:url(#SVGID_46_);stroke-width:0.5;stroke-linecap:round;stroke-linejoin:round;stroke-miterlimit:10;}
	.st46{fill:none;stroke:url(#SVGID_47_);stroke-width:0.5;stroke-linecap:round;stroke-linejoin:round;stroke-miterlimit:10;}
	.st47{fill:none;stroke:url(#SVGID_48_);stroke-width:0.5;stroke-linecap:round;stroke-linejoin:round;stroke-miterlimit:10;}
	.st48{fill:none;stroke:url(#SVGID_49_);stroke-width:0.5;stroke-linecap:round;stroke-linejoin:round;stroke-miterlimit:10;}
	.st49{fill:none;stroke:url(#SVGID_50_);stroke-width:0.5;stroke-linecap:round;stroke-linejoin:round;stroke-miterlimit:10;}
	.st50{fill:none;stroke:url(#SVGID_51_);stroke-width:0.5;stroke-linecap:round;stroke-linejoin:round;stroke-miterlimit:10;}
	.st51{fill:none;stroke:url(#SVGID_52_);stroke-width:0.5;stroke-linecap:round;stroke-linejoin:round;stroke-miterlimit:10;}
	.st52{fill:none;stroke:url(#SVGID_53_);stroke-width:0.5;stroke-linecap:round;stroke-linejoin:round;stroke-miterlimit:10;}
	.st53{fill:none;stroke:url(#SVGID_54_);stroke-width:0.5;stroke-linecap:round;stroke-linejoin:round;stroke-miterlimit:10;}
	.st54{opacity:0.45;fill:url(#SVGID_55_);}
</style>
<g>
	<g>
		<linearGradient id="SVGID_1_" gradientUnits="userSpaceOnUse" x1="303.06" y1="522.1757" x2="323.4845" y2="522.1757">
			<stop  offset="0" style="stop-color:#FFFFFF;stop-opacity:0.8"/>
			<stop  offset="0.1124" style="stop-color:#FAFFFE;stop-opacity:0.8"/>
			<stop  offset="0.2364" style="stop-color:#EDFFFC;stop-opacity:0.8"/>
			<stop  offset="0.3661" style="stop-color:#D7FEF7;stop-opacity:0.8"/>
			<stop  offset="0.4997" style="stop-color:#B8FEF2;stop-opacity:0.8"/>
			<stop  offset="0.6362" style="stop-color:#90FDEA;stop-opacity:0.8"/>
			<stop  offset="0.7753" style="stop-color:#60FCE1;stop-opacity:0.8"/>
			<stop  offset="0.9138" style="stop-color:#27FBD6;stop-opacity:0.8"/>
			<stop  offset="1" style="stop-color:#00FACF;stop-opacity:0.8"/>
		</linearGradient>
		<polyline class="st0" points="315.6,507.4 323.2,536.9 303.3,531.9 		"/>
		<linearGradient id="SVGID_2_" gradientUnits="userSpaceOnUse" x1="158.9252" y1="451.7097" x2="534.1636" y2="451.7097">
			<stop  offset="0" style="stop-color:#FFFFFF;stop-opacity:0.8"/>
			<stop  offset="0.1124" style="stop-color:#FAFFFE;stop-opacity:0.8"/>
			<stop  offset="0.2364" style="stop-color:#EDFFFC;stop-opacity:0.8"/>
			<stop  offset="0.3661" style="stop-color:#D7FEF7;stop-opacity:0.8"/>
			<stop  offset="0.4997" style="stop-color:#B8FEF2;stop-opacity:0.8"/>
			<stop  offset="0.6362" style="stop-color:#90FDEA;stop-opacity:0.8"/>
			<stop  offset="0.7753" style="stop-color:#60FCE1;stop-opacity:0.8"/>
			<stop  offset="0.9138" style="stop-color:#27FBD6;stop-opacity:0.8"/>
			<stop  offset="1" style="stop-color:#00FACF;stop-opacity:0.8"/>
		</linearGradient>
		<polyline class="st1" points="163,487.9 159.2,507.4 315.6,507.4 344,454.1 420.5,463.5 523.7,437.1 533.9,403.1 512.3,396 		"/>
		<linearGradient id="SVGID_3_" gradientUnits="userSpaceOnUse" x1="69.7737" y1="408.0685" x2="420.7744" y2="408.0685">
			<stop  offset="0" style="stop-color:#FFFFFF;stop-opacity:0.8"/>
			<stop  offset="0.1124" style="stop-color:#FAFFFE;stop-opacity:0.8"/>
			<stop  offset="0.2364" style="stop-color:#EDFFFC;stop-opacity:0.8"/>
			<stop  offset="0.3661" style="stop-color:#D7FEF7;stop-opacity:0.8"/>
			<stop  offset="0.4997" style="stop-color:#B8FEF2;stop-opacity:0.8"/>
			<stop  offset="0.6362" style="stop-color:#90FDEA;stop-opacity:0.8"/>
			<stop  offset="0.7753" style="stop-color:#60FCE1;stop-opacity:0.8"/>
			<stop  offset="0.9138" style="stop-color:#27FBD6;stop-opacity:0.8"/>
			<stop  offset="1" style="stop-color:#00FACF;stop-opacity:0.8"/>
		</linearGradient>
		<polyline class="st2" points="72.5,355.1 70,385.8 254.4,394.9 420.5,351.9 344,454.1 201.8,464.2 		"/>
		<linearGradient id="SVGID_4_" gradientUnits="userSpaceOnUse" x1="254.1128" y1="463.389" x2="394.4327" y2="463.389">
			<stop  offset="0" style="stop-color:#FFFFFF;stop-opacity:0.8"/>
			<stop  offset="0.1124" style="stop-color:#FAFFFE;stop-opacity:0.8"/>
			<stop  offset="0.2364" style="stop-color:#EDFFFC;stop-opacity:0.8"/>
			<stop  offset="0.3661" style="stop-color:#D7FEF7;stop-opacity:0.8"/>
			<stop  offset="0.4997" style="stop-color:#B8FEF2;stop-opacity:0.8"/>
			<stop  offset="0.6362" style="stop-color:#90FDEA;stop-opacity:0.8"/>
			<stop  offset="0.7753" style="stop-color:#60FCE1;stop-opacity:0.8"/>
			<stop  offset="0.9138" style="stop-color:#27FBD6;stop-opacity:0.8"/>
			<stop  offset="1" style="stop-color:#00FACF;stop-opacity:0.8"/>
		</linearGradient>
		<polyline class="st3" points="254.4,394.9 344,454.1 394.2,531.9 		"/>
		<linearGradient id="SVGID_5_" gradientUnits="userSpaceOnUse" x1="523.4048" y1="347.5192" x2="543.0864" y2="347.5192">
			<stop  offset="0" style="stop-color:#FFFFFF;stop-opacity:0.8"/>
			<stop  offset="0.1124" style="stop-color:#FAFFFE;stop-opacity:0.8"/>
			<stop  offset="0.2364" style="stop-color:#EDFFFC;stop-opacity:0.8"/>
			<stop  offset="0.3661" style="stop-color:#D7FEF7;stop-opacity:0.8"/>
			<stop  offset="0.4997" style="stop-color:#B8FEF2;stop-opacity:0.8"/>
			<stop  offset="0.6362" style="stop-color:#90FDEA;stop-opacity:0.8"/>
			<stop  offset="0.7753" style="stop-color:#60FCE1;stop-opacity:0.8"/>
			<stop  offset="0.9138" style="stop-color:#27FBD6;stop-opacity:0.8"/>
			<stop  offset="1" style="stop-color:#00FACF;stop-opacity:0.8"/>
		</linearGradient>
		<polyline class="st4" points="523.7,328.6 542.8,355.3 523.7,366.4 		"/>
		<g>
			<linearGradient id="SVGID_6_" gradientUnits="userSpaceOnUse" x1="296.1876" y1="445.1066" x2="296.1876" y2="129.2278">
				<stop  offset="0" style="stop-color:#00F2CF"/>
				<stop  offset="6.547942e-02" style="stop-color:#1ED5D4;stop-opacity:0.9409"/>
				<stop  offset="0.1721" style="stop-color:#49ABDC;stop-opacity:0.8446"/>
				<stop  offset="0.2845" style="stop-color:#6D87E2;stop-opacity:0.7432"/>
				<stop  offset="0.4015" style="stop-color:#8B6AE8;stop-opacity:0.6376"/>
				<stop  offset="0.5246" style="stop-color:#A253EC;stop-opacity:0.5265"/>
				<stop  offset="0.6566" style="stop-color:#B243EF;stop-opacity:0.4072"/>
				<stop  offset="0.8038" style="stop-color:#BC3AF0;stop-opacity:0.2743"/>
				<stop  offset="0.997" style="stop-color:#BF37F1;stop-opacity:0.1"/>
			</linearGradient>
			<path class="st5" d="M396.2,203l23.6,38.5l1.6,8l-5.7,15l-2-1l-4.7-1l-1.7-2.5l-2.6,1l-5.1-2.8l-4.8-3.9l-1.5,1.6l2,3.4l1.6,0.9
				l1.7,3.2l1.2-0.3l0.6,2.5l1.7,1.2l3.4-0.9l0.9-2.6l1.2-0.3l1.1,2.7l3.4,2.9l2.5,3.4l-1.5,2l-1.1,1.7l-1.9,3.4l-4.4,2.9v1.7
				l-3.8,1.2l-1.6,1.5l-8.7,2.3l-1.9-1.9l-1-2.5l-1-5.5l-5.8-6l0.1-1.9l-2-4.2l-1.7-0.3l-3.2-4.8l-1-2.8l-1-2.2c0,0-0.4,2.2-1.6,2.2
				l-0.6-2.2l-1.5-1.2l-1.3-0.6l0.3,2.6l3.2,3.2l3.1,6.9l2.5,3.6l0.3,4.1l3.4,3.2l1.6,5.2l3.5,2l3.5,3.9l-0.3,2.2l2.8,1.7l3.4-0.9
				l3.2-0.3l2.3-1.9l2,0.7v4.4l-2.2,4l-2.3,7.3l-7.4,7.7l-0.9,2.5l-4.1,2.5l-1,5.4l-2.8,4.1l1.6,1.3l-0.4,3.1l1.6,5v6.6l-0.7,3.8
				l-8.6,5l-3.2,3.1l1.3,3.8v4.8l-6.1,2.5c0,0-1.2,5.4-1.3,5.8c-0.1,0.4-2.2,2.9-2.2,2.9l-8.6,8.7l-3.5,1.2h-7.4l-0.6-2.9
				c0,0,0.4-1.9,0.6-2.6c0.1-0.7-0.9-2.2-1-2.6s-1.7-4.4-1.7-4.4l-1.7-3.6l1.2-4.8l-1.3-5.1l-2-2.2l0.4-1.5l-1.2-2l-1-9l3.4-5.8
				l0.4-3.1l-0.4-5.4l-1.9-4.2l-2-4.4l-2.8-5.7l1.2-2.8l-0.6-1.7l1.2-3.4c0,0-1.3-2.9-3.9-2.9s-3.1-1.2-3.8-2.5
				c-0.7-1.3-3.1-1.3-3.1-1.3l-7,3.8l-5.7-1.7l-5.8,2.3l-8.7-6.6l0.1-3l-4.2-6l-1.6-3.2l-1.2-3.5l3.1-7.1l-1.3-4.2
				c0,0-0.3-3.6,0-4.2c0.3-0.6,3.5-7.7,3.5-7.7l1.5-2.8l3.1-1.2l3.1-2.9l-0.6-2.2l2.4-5l2.6-1.7l2.2-2.6l3.4,0.7l2.8-1l2.6-0.1
				l4.1-1.6l10.4-1.2l1.7,1l0.7,2.5l-2.5,2.9l2,1l2.8,1.3l3.9,1.2l1,1.7l2.6-0.3l3.4,2l1.3-1.3l-0.6-1.6l1-0.9h3.4l4.2,1.5l2.5-0.3
				l3.8,1.9l2.3-0.9h6.1v-3.1l1-2.3l-0.7-2.3l0.3-1.1l-0.8-0.5l-1.1-0.4l-1.2,1.3l-1.4,0.1l-1.6-0.6l-0.6-0.8l-0.4,0.9L364,243
				l-1.5-0.2l-0.2-0.9l-2,0.1l-1-1.5l-1.3-1.2c0,0-0.6-1.1-0.6-1.2c0.1-0.2,0.7-0.6,0.7-0.6l-1-1.6l-1-1.3l-1.3-0.6l-1.3-0.1
				l-0.8,1.1l-0.5-0.6l-0.7-0.1l0.7,0.8l-0.2,1.6l0.5,1l1.2,0.5l0.4,1l-1.2,0.7l0.3,1.5l-0.6,0.5l-2.2-1.6l-0.5-2.3l-3.1-3.3
				l-0.4-2.4l-1.7-1.9l-1-0.1l-1.6-1l-2.1-1.2l-1-1.8l-0.7,0.4l-1-0.3l-0.1-1.2l-1,0.2l-0.4,1.3l0.4,1.2l1.6,0.8l0.4,1.3l1.7,1.2
				l1.5,0.4l0.8,1.2l1.3,0.8l0.9,0.6l0.1,1.5H344l-0.1-1.2l-1-0.1l-0.3,0.8l0.6,1.2c0,0-0.7,1.2-0.8,1.5c-0.1,0.2-0.8,1.1-0.8,1.1
				l-0.8-0.1l-0.2,1l0.1,1.1l-0.4,0.1l-0.7-0.6c0,0-2.3-1.1-2.5-1.1s-0.6-0.8-0.6-0.8l1.1-0.2h2.9c0,0,0.8-1.3,0.8-1.5
				s-1.1-2.3-1.1-2.3l-5.2-3.5l-3.8-3.5l-3.8,1.1l-1.2,0.7l-1.9-0.6l-1.9,1.1l0.2,2l-1.3,0.5l-3.1,2l-1.5,1.9l0.4,2.4l-2.4,2
				l-2.5,0.3l-1.7,0.7l-1-0.2l-1.3-0.7l-2.5-0.2l-1.5-0.4l0.5-1.9c0,0-0.7-1.2-0.8-1.3c-0.1-0.2-0.1-1.3-0.1-1.3l0.3-1.3l0.8-2.6
				l-0.4-1.3l0.4-1.3l1.5-0.6l4.6,0.1l4.2,0.1l1-2.3l0.4-2.5c0,0-1.1-0.3-1.3-0.3c-0.2,0-1-1-1-1l-1-0.9l-2.1-0.3l0.2-1.6l1.2,0.2
				l2.1,0.2l0.4-0.5l-0.3-0.8l0.2-0.4l1.6,0.8l1.1-0.7l1.3-0.6l0.6-1.2l0.8-0.7l1.8-0.3l0.8-1l0.7-0.8l0.5,0.5l-0.1,1l-0.1,0.8
				l1.2,0.3l0.3-0.6l0.4-1.1l0.9-0.1l0.5-0.9l-1.6-0.3l-0.3-0.6l1.5-0.4l1.4-0.6c0,0,0-1-0.1-1.2c-0.1-0.2-0.8-1.5-0.8-1.5l0.1-1.3
				l1.4-1.4l0.8,0.2l-0.6,0.7l0.3,0.8c0,0,0,0,0.4,0.4l-0.8,1l0.7,1.5c0,0,1.6,0.8,1.7,0.8c0.2-0.1,2.8-0.2,2.8-0.2l1.1,0.4l0.7-0.6
				l3,0.2l1.7-0.5l1.3,0.8l1-0.8l1.4-0.9l0.3-1.7l-0.1-1.2l0.8-0.5l1.3,0.5c0,0,0.6,1,1,1.1c0.3,0.1,0.8-1.4,0.8-1.4l-1.2-0.8
				l-0.8-1.3c0,0,0.7-0.6,1.5-0.7s1.9,0.6,1.9,0.6l1.3,0.7l0.8-0.5l1.4-0.4c0,0,1.2-0.4,1-0.5s-3.7-0.8-3.7-0.8l-3.1,0.2l-2,0.4
				l-2.2-1.1l-0.8-2l0.9-0.6l1.2-1.2l2.1-1l-0.7-0.5c0,0-1.8-0.6-2.1-0.7c-0.3-0.1-1.4-0.1-1.4-0.1s-0.7,0.7-0.7,1
				c0,0.2-1.4,1.5-1.4,1.5l-2.6,1.6l0.3,1.9l0.8,0.5l0.6,0.4v1.1l-1.7,0.5l-0.1,1.6l-0.7,2l-1.2,0.3l-1.2,1l-1.7-0.3l-0.3-1.5
				l-1.5-2.5l-1.9-1l-2.5,1.4l-2.3,0.3l-0.6-1l-0.4-0.9l-0.6-0.5l0.2-1l-0.9-2c0,0,1.6-1.7,1.9-1.7c0.2-0.1,4.2-0.6,4.2-0.6l4.6-4.1
				l3.8-2.4l6.9-1.3h4.6l2.1,0.5c0,0,2.2,0.8,2.5,0.8c0.3,0,6.2,0.8,6.2,0.8l3.5,1.1l2,1.6l-1.2,0.9c0,0-2-0.3-2.1-0.4
				c-0.1-0.2-1,0.1-1,0.1l-1.5-0.2l-1.7-0.8l-2-0.2l0.9,1.1l1.3,0.2l1.1,0.9l0.4,1l1.5,0.5l1.2,0.4l1-0.3l-1-0.2l-0.7-0.4l0.8-0.4
				l1.3,0.2l2.3,0.3v-1.9h3.2l-0.7-1.5l-0.9-0.9h2l1,1.9l2.2,0.7l1-2l4.1-0.6h9.2l2.2,1.7c-24.5-22.3-57-36-92.7-36
				c-40.6,0-77.1,17.6-102.3,45.6l11.3-10.9l9-2.2l4.9-1.3l3.5,0.7l1.2-0.7l0.9-0.6l-1.4-1.1l5.2-3.7l2.6-3.1l6.4,1.1l3.7-0.3
				l-1.4-0.4l0.8-1.1l2-0.5l-1.9-0.4l-2.3,0.9l-1.6-0.5l3.5-2l2.8-0.7l2.3,0.5l-2.2,1.6l1.6-0.5h2.8l1.6-0.9l-2.7-0.7l3-0.7
				c0,0,9.1,0,9.5,0c0.4,0,3.9-0.3,4.3-0.3c0.4,0,3.4-0.8,3.4-0.8l4.2,0.7l-3.7,1.4l-5,1.2L255,182l-3.3,0.7l-6.4-0.7l-2.6,1.1h3.3
				l0.9,0.9l3.8,2.3c0,0,4.9,1.2,4.5,2l1.4,1.4l4.2,1.2l-3.4,1.3c0,0-2.3,1.8-3.4,1l-1.4-1h-1.6l0.4,1.1l1.1,1.5l-1.4,0.3l-0.7,1.2
				l-0.1,1.2h-3l-3.5-2.2l-5.7,0.1l-0.9-1.9l2.2-0.8l2.7-0.6l2.7-1.3l3.1-1l-2.6-0.8l-2.2-0.8l-2,0.8l-2.4-0.9h-4.5l-1.9-0.9
				l2.7-1.8l2.3-0.1l-0.7,1.5l2.2-1.2l4.9-0.5c0,0,1.6,0.8,2-0.3l-1.5-0.5l-2.6-0.1l-2,0.1l-3,0.2l-3.9-1.4c0,0-0.7,1.8-1.6,2.8
				l-1.9,1.5l-1.5,1.4v0.9c0,0,1.5,0.4,2.2,1.2h2.8l1.6-1.2h4.3l-0.9,2.5h-2.2l-3.4,0.9h-2.8l-2.2,1.9l-2.4,1.4l-3.5,0.8l-1.6,0.5
				l-4.5,1.6l-2.6,1.5l-1.8,2l1.2,0.5l0.4,1.4h1.8l3.8,2.4l2.8,0.1l0.9,1.6l-1.2,0.7l0.4,1.3l1.8,2.1h2l1.5-1l-1.5-3l0.8-1.1
				l1.1,0.3l2.6-0.5l2.3-0.8l-0.4-0.9l0.7-2.3l-0.5-1.5l1.9-1.6l2.4-2.8l1.8-0.5h2.4l2.3,1.2l1.9,1.8l-1.6,1.8l1.2,1.2l1.4-0.3
				l0.8-0.5l0.5-1.1h2.2l0.1-1.8h1.4l1.5,3.3l0.5,3.2l2.7,1.4l1.9,1.6l-0.8,3l-2.8,0.3l-2.3,1.3l-3.3,0.7c0,0-2,0-2.4,0
				c-0.4,0-3.5,0-3.5,0l-2.8,0.7H236l-2.3,2h1.9l3.3-1.3c0,0,3,0.6,3.4,0.6s-0.1,0.7-0.1,0.7l-1.2,1.1c0,0-0.5,0.5-0.4,1.2
				c0,0,1.5,1.1,2.7,2l1.9,0.7h1.2l-0.5,1.2l-1.8,0.5l-1.9,0.5l-2.2,1.2l-2.4,0.5l0.3-1.9l2-2.2l-4.5,2.3l-4.5,1.4l-1.2,2.4
				l-2.4,1.7l-4.1,1.3l-3.1,3.7l-1.8-0.6l-0.7,3.3l0.1,2.3l-9.9,6.4l-2.4,5.3l0.4,3.4l-0.1,3.1l-0.1,2.6l-2.6,0.4l0.4-1.5l-1.1-1.5
				l-1.1-3.3l1.6-1.5c0,0-0.7-1.6-1.5-1.8l-3.7,0.3c0,0-2.7-0.7-3.5,0l0.1,1l-1.8,0.1c0,0-4.5-0.4-4.6,0.5l-2.4-0.5l-1.8,0.5
				l-1.9,1.8l-2,1.5l-0.7,1.8l-1.8,1.5l-0.1,3.3l-0.8,1.4l-1.8,1.6c0,0,0.9,4.5,1.4,4.9c0.4,0.4,2.8,2.8,2.8,2.8l4.2-0.9l2.7-1.2
				v-3.1c0,0,1.5-0.8,2-1.1c0.5-0.3,4.2,0,4.2,0s1.7,0.9,0,1.8c-0.4,0.2-0.8,1.2-0.8,1.2l-1.4,2.2l-1.5,3l-1.3,2l2.8,0.8h3.5
				l2.6,1.6l-0.7,3.9l-0.8,3.8l1.5,2.8c0,0,2.7,2,3.1,2c0.4,0,3.1-1.4,3.1-1.4l3,2.4l0.5-1.5l1.9-1.8l0.8-1.8l4.1-1.2l1.6-1.9
				l1.2,0.5l-0.5,1.6l-1.2,2.3v1.4l1.4,0.9v-3.7l3.5-1.6l2.8,0.8c0,0,3.4,1.2,3.9,1.4c0.5,0.1,2.8-1.4,2.8-1.4l2,1.4l1.9,3.8
				l3.4,2.7l3.4,3.3h3.9l3.7,2c0,0,2.4,5.4,3.1,5.8c0.7,0.4-0.5,2.8-0.5,2.8l-0.1,1.4h1.4l1.6,0.7v1.6l2.3-0.8c0,0,3,1.8,3.4,1.9
				c0.4,0.1,0.1,2,0.1,2h1.4l3.4,1.8h3.9l4.5,2.8l2.6,0.5l0.5,3.1l1.1,5l-2.8,2.7l-3.8,5l1.1,4.3l-0.7,4.3v4.5l-1.9,2.7l-2.4,4.1h-3
				l-4.5,3.7c0,0,0.3,5,0,5.4s-3.1,5.6-3.1,5.6l-1.5,3.5c0,0-1.2,1.6-2,2.8c-0.8,1.2-3.3,0-3.3,0h-1.6l1.4,2.2l1.6,1.4v2.2l-1.4,1.6
				l-3.3,1.9c0,0-1.9-0.7-2.2,0l1.1,2.2l-1.4,1.1l-0.7-1.1h-1.8l0.1,1.8h1.9c0,0,1.1,1.2,0,1.6v1.8l-1.3,2.2l-1.3,1.2v1.9l2.7,1.2
				v2.5l-2.7,1.6v4.2l-1.6-1.8l-8.4-9l-0.4-3.3l0.1-3.3l-1.9-2l-1.1-4.1l-0.9-2.8l1.5-1.9l-1.2-5.7l-1.4-4.3l-0.4-5.4l-0.3-3.9
				l-0.9-3.5l0.1-3.4c0,0-1.5-6-1.6-6.4c-0.1-0.4-3.1-3.7-3.1-3.7l-4.7-2.4l-3.3-2.7l-4.6-9.5l-0.8-2.7l-1.9-1.6c0,0-1.5-3-1.5-3.4
				c0-0.4-0.9-3.1-0.9-3.1l1.8-2.4l-2-0.7l0.7-2.4l-0.3-3.7l2.7-3.8l2.2-2.7l1.4-1.5l-0.8-2.3l-0.3-3.1l-0.8-1.1v-2h-2l-0.9,2
				l-2.3-0.3c0,0-3.4-1.8-3.9-1.8s-1.6-2.4-1.5-3c0.1-0.5-2.7-3.1-2.7-3.1l-1.2-4.1l-4.1-0.5l-4.2-2.3l-1.9-1.9l-2.3,0.9l-2.2-1.4
				l-3.3-0.5l-1.9-2l-8.9,3c-0.8,5.9-1.2,12-1.2,18.1c0,76,61.6,137.6,137.6,137.6s137.6-61.6,137.6-137.6
				C433.8,260.8,419.5,227.6,396.2,203z M330.2,229.8c1.2,0,1.1,1,1.1,1v1.7h-1.1l-0.5-1.2L330.2,229.8z M329.7,235.4v-2.2
				c0,0,0.3-0.3,0.8-0.3c0.5,0,1.1,0.5,1.1,0.5v2l-0.3,1.4h-1.6C329.7,236.8,329.9,235.6,329.7,235.4z M209.9,271.1h-2.7l-4-3.5
				h-2.4l-6-2c0.8-0.4,2-0.7,3-0.9c1.4-0.3,2.5-0.5,2.5-0.5l4.2,1.4l3.5,1.5l3.5,1.2C212.1,270.1,209.9,271.1,209.9,271.1z
				 M223.3,275.1l-3-2.2l-3.5,1.2l-2.7,1l-2.7-1.5c0,0,2.1,0,2.3-2.5c0,0,1.5-0.7,3,0l6.5-0.3C223.3,270.8,225.5,272.4,223.3,275.1z
				 M257.5,219.2l-0.5,1.6l-1.7-0.6l0.2-1.3c-0.5-0.7-2.3-0.2-2.3-0.2v1l-1.6-0.2l-1-0.7l-1.6-0.9l3.6-2.2l1.2-1.8l3.3-0.7l-1.6,1.4
				c0,0-0.2,1,0.1,1.1c0.3,0.2,2,0,2,0V219.2z M305.7,214.6l-1.2,1.1l-0.9-0.5V214l1.1-0.7l-0.2-1.3l0.5-1.6h1.3l1.2-1.4h1
				c0,0,1.8,0.8,1.7,1.9l-0.7,0.7l0.3,1.4l-0.7,1l-1.6,0.5H305.7z M318.6,210.3l1.5-0.8l-0.9-0.4l0.3-1l1.3-0.2v-1.2l2.2-0.7
				l1.5,0.5l0.3,1.5l-0.9,0.5v1.9l-0.7,0.5h-1.2v0.6l-2.4,0.5l-1.2-1.1L318.6,210.3z M312.5,206.7h1.9l-0.2,1.5l0.2,1.8l1.8,1
				l1.2,0.9l-0.2,1.3l1.2,0.4l1.1,0.5l-0.8,1l-0.5,0.7l0.3,0.4c-0.4,0-2.2,0.4-2.2,0.4l-2.2-0.4l-1.5,0.9H309v-0.9h1.7l0.8-0.8
				l-0.8-0.6c0.1-0.4,1-0.8,1-0.8l-0.5-0.8l1.2-0.4c0.5,0,0.7-0.9,0.7-0.9l-0.5-0.9l-1-0.6l-1-0.7c0,0,0-0.8-0.2-1.3
				c-0.2-0.5-0.2-0.5-0.2-0.5v-2.1l1.4-0.6h1.5l-1.1,1L312.5,206.7z M279.1,201.3H275l-2.3-2.5c0,0-1.2-2.6-2-2.4
				c-0.7,0.2-1.1-4.2-1.1-4.2v-2.3c0,0,3.6-1.5,1.8-3.5c-0.5-0.6-0.5-3-0.5-3s-1.5,0.2-2.7,0c-1.2-0.2-4-2.7-4-2.7s3.7-0.3,4.5,0
				c0.7,0.2,6.3-2.7,6.3-2.7l7.6-3.5l12.4,2.3l8.5-1.1l8.6,1.1c0,0,2,3.1,0,4.9l-4.2,2.2l-1.1,2.7H300l-3,4.3h-5.5l-2.1,1.9
				l-5.1,2.2L279.1,201.3z M397.3,345.2v4.9l-2.8,3.7c0,0-0.8,3.2-0.8,3.5c0,0.3-1.6,3.8-1.6,3.8l-2,3h-3.6l-1.1-0.9l1.1-1.4
				l-1.1-1.3l-0.6-2.7l1.5-1.6l1.3-2.2l0.4-4.6l1.6-2.8l3.8-1.2l1-2.4l0.7-2l1.5-1l0.7-1.5l0.8-0.8l0.7,1.8l-0.2,2.2l0.6,3.6H397.3z
				"/>
			<linearGradient id="SVGID_7_" gradientUnits="userSpaceOnUse" x1="330.6656" y1="445.1066" x2="330.6656" y2="129.2278">
				<stop  offset="0" style="stop-color:#00F2CF"/>
				<stop  offset="6.547942e-02" style="stop-color:#1ED5D4;stop-opacity:0.9409"/>
				<stop  offset="0.1721" style="stop-color:#49ABDC;stop-opacity:0.8446"/>
				<stop  offset="0.2845" style="stop-color:#6D87E2;stop-opacity:0.7432"/>
				<stop  offset="0.4015" style="stop-color:#8B6AE8;stop-opacity:0.6376"/>
				<stop  offset="0.5246" style="stop-color:#A253EC;stop-opacity:0.5265"/>
				<stop  offset="0.6566" style="stop-color:#B243EF;stop-opacity:0.4072"/>
				<stop  offset="0.8038" style="stop-color:#BC3AF0;stop-opacity:0.2743"/>
				<stop  offset="0.997" style="stop-color:#BF37F1;stop-opacity:0.1"/>
			</linearGradient>
			<path class="st6" d="M331.3,236.8l0.3-1.4v-2c0,0-0.6-0.5-1.1-0.5c-0.5,0-0.8,0.3-0.8,0.3v2.2c0.2,0.2,0,1.4,0,1.4H331.3z"/>
			<linearGradient id="SVGID_8_" gradientUnits="userSpaceOnUse" x1="330.6656" y1="409.9249" x2="330.6656" y2="174.5264">
				<stop  offset="0" style="stop-color:#FFFFFF;stop-opacity:0.7"/>
				<stop  offset="0.8063" style="stop-color:#FFFFFF;stop-opacity:0.1"/>
			</linearGradient>
			<path class="st7" d="M331.3,236.8l0.3-1.4v-2c0,0-0.6-0.5-1.1-0.5c-0.5,0-0.8,0.3-0.8,0.3v2.2c0.2,0.2,0,1.4,0,1.4H331.3z"/>
			<linearGradient id="SVGID_9_" gradientUnits="userSpaceOnUse" x1="330.5119" y1="445.1066" x2="330.5119" y2="129.2278">
				<stop  offset="0" style="stop-color:#00F2CF"/>
				<stop  offset="6.547942e-02" style="stop-color:#1ED5D4;stop-opacity:0.9409"/>
				<stop  offset="0.1721" style="stop-color:#49ABDC;stop-opacity:0.8446"/>
				<stop  offset="0.2845" style="stop-color:#6D87E2;stop-opacity:0.7432"/>
				<stop  offset="0.4015" style="stop-color:#8B6AE8;stop-opacity:0.6376"/>
				<stop  offset="0.5246" style="stop-color:#A253EC;stop-opacity:0.5265"/>
				<stop  offset="0.6566" style="stop-color:#B243EF;stop-opacity:0.4072"/>
				<stop  offset="0.8038" style="stop-color:#BC3AF0;stop-opacity:0.2743"/>
				<stop  offset="0.997" style="stop-color:#BF37F1;stop-opacity:0.1"/>
			</linearGradient>
			<path class="st8" d="M331.3,232.5v-1.7c0,0,0.1-1-1.1-1l-0.5,1.5l0.5,1.2H331.3z"/>
			<linearGradient id="SVGID_10_" gradientUnits="userSpaceOnUse" x1="330.5119" y1="409.9249" x2="330.5119" y2="174.5264">
				<stop  offset="0" style="stop-color:#FFFFFF;stop-opacity:0.7"/>
				<stop  offset="0.8063" style="stop-color:#FFFFFF;stop-opacity:0.1"/>
			</linearGradient>
			<path class="st9" d="M331.3,232.5v-1.7c0,0,0.1-1-1.1-1l-0.5,1.5l0.5,1.2H331.3z"/>
			<linearGradient id="SVGID_11_" gradientUnits="userSpaceOnUse" x1="355.4474" y1="445.1066" x2="355.4474" y2="129.2278">
				<stop  offset="0" style="stop-color:#00F2CF"/>
				<stop  offset="6.547942e-02" style="stop-color:#1ED5D4;stop-opacity:0.9409"/>
				<stop  offset="0.1721" style="stop-color:#49ABDC;stop-opacity:0.8446"/>
				<stop  offset="0.2845" style="stop-color:#6D87E2;stop-opacity:0.7432"/>
				<stop  offset="0.4015" style="stop-color:#8B6AE8;stop-opacity:0.6376"/>
				<stop  offset="0.5246" style="stop-color:#A253EC;stop-opacity:0.5265"/>
				<stop  offset="0.6566" style="stop-color:#B243EF;stop-opacity:0.4072"/>
				<stop  offset="0.8038" style="stop-color:#BC3AF0;stop-opacity:0.2743"/>
				<stop  offset="0.997" style="stop-color:#BF37F1;stop-opacity:0.1"/>
			</linearGradient>
			<path class="st10" d="M377.5,194.1l-4.1,0.6l-1,2l-2.2-0.7l-1-1.9h-2l0.9,0.9l0.7,1.5h-3.2v1.9l-2.3-0.3l-1.3-0.2l-0.8,0.4
				l0.7,0.4l1,0.2l-1,0.3l-1.2-0.4l-1.5-0.5l-0.4-1l-1.1-0.9l-1.3-0.2l-0.9-1.1l2,0.2l1.7,0.8l1.5,0.2c0,0,0.9-0.2,1-0.1
				c0.1,0.2,2.1,0.4,2.1,0.4l1.2-0.9l-2-1.6l-3.5-1.1c0,0-6-0.8-6.2-0.8c-0.3,0-2.5-0.8-2.5-0.8l-2.1-0.5H344l-6.9,1.3l-3.8,2.4
				l-4.6,4.1c0,0-3.9,0.6-4.2,0.6c-0.2,0.1-1.9,1.7-1.9,1.7l0.9,2l-0.2,1l0.6,0.5l0.4,0.9l0.6,1l2.3-0.3l2.5-1.4l1.9,1l1.5,2.5
				l0.3,1.5l1.7,0.3l1.2-1l1.2-0.3l0.7-2l0.1-1.6l1.7-0.5v-1.1l-0.6-0.4l-0.8-0.5l-0.3-1.9l2.6-1.6c0,0,1.4-1.2,1.4-1.5
				c0-0.2,0.7-1,0.7-1s1.1,0.1,1.4,0.1c0.3,0.1,2.1,0.7,2.1,0.7l0.7,0.5l-2.1,1l-1.2,1.2l-0.9,0.6l0.8,2l2.2,1.1l2-0.4l3.1-0.2
				c0,0,3.6,0.7,3.7,0.8s-1,0.5-1,0.5l-1.4,0.4l-0.8,0.5l-1.3-0.7c0,0-1.1-0.7-1.9-0.6s-1.5,0.7-1.5,0.7l0.8,1.3l1.2,0.8
				c0,0-0.5,1.5-0.8,1.4c-0.3-0.1-1-1.1-1-1.1L346,207l-0.8,0.5l0.1,1.2l-0.3,1.7l-1.4,0.9l-1,0.8l-1.3-0.8l-1.7,0.5l-3-0.2
				l-0.7,0.6l-1.1-0.4c0,0-2.6,0.1-2.8,0.2c-0.2,0.1-1.7-0.8-1.7-0.8l-0.7-1.5l0.8-1c-0.4-0.4-0.4-0.4-0.4-0.4l-0.3-0.8l0.6-0.7
				l-0.8-0.2l-1.4,1.4l-0.1,1.3c0,0,0.7,1.3,0.8,1.5c0.1,0.2,0.1,1.2,0.1,1.2l-1.4,0.6l-1.5,0.4l0.3,0.6l1.6,0.3l-0.5,0.9l-0.9,0.1
				l-0.4,1.1l-0.3,0.6l-1.2-0.3l0.1-0.8l0.1-1l-0.5-0.5l-0.7,0.8l-0.8,1l-1.8,0.3l-0.8,0.7l-0.6,1.2l-1.3,0.6l-1.1,0.7l-1.6-0.8
				l-0.2,0.4l0.3,0.8l-0.4,0.5l-2.1-0.2l-1.2-0.2l-0.2,1.6l2.1,0.3l1,0.9c0,0,0.8,1,1,1c0.2,0,1.3,0.3,1.3,0.3l-0.4,2.5l-1,2.3
				l-4.2-0.1l-4.6-0.1l-1.5,0.6l-0.4,1.3l0.4,1.3l-0.8,2.6l-0.3,1.3c0,0,0,1.2,0.1,1.3c0.1,0.2,0.8,1.3,0.8,1.3l-0.5,1.9l1.5,0.4
				l2.5,0.2l1.3,0.7l1,0.2l1.7-0.7l2.5-0.3l2.4-2l-0.4-2.4l1.5-1.9l3.1-2l1.3-0.5l-0.2-2l1.9-1.1l1.9,0.6l1.2-0.7l3.8-1.1l3.8,3.5
				l5.2,3.5c0,0,1.1,2.1,1.1,2.3s-0.8,1.5-0.8,1.5h-2.9l-1.1,0.2c0,0,0.3,0.8,0.6,0.8s2.5,1.1,2.5,1.1l0.7,0.6l0.4-0.1l-0.1-1.1
				l0.2-1l0.8,0.1c0,0,0.8-0.9,0.8-1.1c0.1-0.2,0.8-1.5,0.8-1.5l-0.6-1.2l0.3-0.8l1,0.1l0.1,1.2h0.3l-0.1-1.5l-0.9-0.6l-1.3-0.8
				l-0.8-1.2l-1.5-0.4l-1.7-1.2l-0.4-1.3l-1.6-0.8l-0.4-1.2l0.4-1.3l1-0.2l0.1,1.2l1,0.3l0.7-0.4l1,1.8l2.1,1.2l1.6,1l1,0.1l1.7,1.9
				l0.4,2.4l3.1,3.3l0.5,2.3l2.2,1.6l0.6-0.5l-0.3-1.5l1.2-0.7l-0.4-1l-1.2-0.5l-0.5-1l0.2-1.6l-0.7-0.8l0.7,0.1l0.5,0.6l0.8-1.1
				l1.3,0.1l1.3,0.6l1,1.3l1,1.6c0,0-0.7,0.4-0.7,0.6c-0.1,0.2,0.6,1.2,0.6,1.2l1.3,1.2l1,1.5l2-0.1l0.2,0.9l1.5,0.2l1.4-0.3
				l0.4-0.9l0.6,0.8l1.6,0.6l1.4-0.1l1.2-1.3l1.1,0.4l0.8,0.5l-0.3,1.1l0.7,2.3l-1,2.3v3.1h-6.1l-2.3,0.9l-3.8-1.9l-2.5,0.3
				l-4.2-1.5h-3.4l-1,0.9l0.6,1.6l-1.3,1.3l-3.4-2l-2.6,0.3l-1-1.7l-3.9-1.2l-2.8-1.3l-2-1l2.5-2.9l-0.7-2.5l-1.7-1l-10.4,1.2
				l-4.1,1.6l-2.6,0.1l-2.8,1l-3.4-0.7l-2.2,2.6l-2.6,1.7l-2.4,5l0.6,2.2l-3.1,2.9l-3.1,1.2l-1.5,2.8c0,0-3.2,7.1-3.5,7.7
				c-0.3,0.6,0,4.2,0,4.2l1.3,4.2l-3.1,7.1l1.2,3.5l1.6,3.2l4.2,6l-0.1,3l8.7,6.6l5.8-2.3l5.7,1.7l7-3.8c0,0,2.3,0,3.1,1.3
				c0.7,1.3,1.2,2.5,3.8,2.5s3.9,2.9,3.9,2.9l-1.2,3.4l0.6,1.7l-1.2,2.8l2.8,5.7l2,4.4l1.9,4.2l0.4,5.4l-0.4,3.1l-3.4,5.8l1,9l1.2,2
				l-0.4,1.5l2,2.2l1.3,5.1l-1.2,4.8l1.7,3.6c0,0,1.6,3.9,1.7,4.4s1.2,1.9,1,2.6c-0.1,0.7-0.6,2.6-0.6,2.6l0.6,2.9h7.4l3.5-1.2
				l8.6-8.7c0,0,2-2.5,2.2-2.9c0.1-0.4,1.3-5.8,1.3-5.8l6.1-2.5v-4.8l-1.3-3.8l3.2-3.1l8.6-5l0.7-3.8v-6.6l-1.6-5l0.4-3.1l-1.6-1.3
				l2.8-4.1l1-5.4l4.1-2.5l0.9-2.5l7.4-7.7l2.3-7.3l2.2-4v-4.4l-2-0.7l-2.3,1.9l-3.2,0.3l-3.4,0.9l-2.8-1.7l0.3-2.2l-3.5-3.9l-3.5-2
				l-1.6-5.2l-3.4-3.2l-0.3-4.1l-2.5-3.6l-3.1-6.9l-3.2-3.2l-0.3-2.6l1.3,0.6l1.5,1.2l0.6,2.2c1.2,0,1.6-2.2,1.6-2.2l1,2.2l1,2.8
				l3.2,4.8l1.7,0.3l2,4.2l-0.1,1.9l5.8,6l1,5.5l1,2.5l1.9,1.9l8.7-2.3l1.6-1.5l3.8-1.2v-1.7l4.4-2.9l1.9-3.4l1.1-1.7l1.5-2
				l-2.5-3.4l-3.4-2.9l-1.1-2.7l-1.2,0.3l-0.9,2.6l-3.4,0.9l-1.7-1.2l-0.6-2.5l-1.2,0.3l-1.7-3.2l-1.6-0.9l-2-3.4l1.5-1.6l4.8,3.9
				l5.1,2.8l2.6-1l1.7,2.5l4.7,1l2,1l5.7-15l-1.6-8L396.2,203c-2.3-2.5-4.8-4.9-7.3-7.2l-2.2-1.7H377.5z"/>
			<linearGradient id="SVGID_12_" gradientUnits="userSpaceOnUse" x1="355.4474" y1="409.9249" x2="355.4474" y2="174.5264">
				<stop  offset="0" style="stop-color:#FFFFFF;stop-opacity:0.7"/>
				<stop  offset="0.8063" style="stop-color:#FFFFFF;stop-opacity:0.1"/>
			</linearGradient>
			<path class="st11" d="M377.5,194.1l-4.1,0.6l-1,2l-2.2-0.7l-1-1.9h-2l0.9,0.9l0.7,1.5h-3.2v1.9l-2.3-0.3l-1.3-0.2l-0.8,0.4
				l0.7,0.4l1,0.2l-1,0.3l-1.2-0.4l-1.5-0.5l-0.4-1l-1.1-0.9l-1.3-0.2l-0.9-1.1l2,0.2l1.7,0.8l1.5,0.2c0,0,0.9-0.2,1-0.1
				c0.1,0.2,2.1,0.4,2.1,0.4l1.2-0.9l-2-1.6l-3.5-1.1c0,0-6-0.8-6.2-0.8c-0.3,0-2.5-0.8-2.5-0.8l-2.1-0.5H344l-6.9,1.3l-3.8,2.4
				l-4.6,4.1c0,0-3.9,0.6-4.2,0.6c-0.2,0.1-1.9,1.7-1.9,1.7l0.9,2l-0.2,1l0.6,0.5l0.4,0.9l0.6,1l2.3-0.3l2.5-1.4l1.9,1l1.5,2.5
				l0.3,1.5l1.7,0.3l1.2-1l1.2-0.3l0.7-2l0.1-1.6l1.7-0.5v-1.1l-0.6-0.4l-0.8-0.5l-0.3-1.9l2.6-1.6c0,0,1.4-1.2,1.4-1.5
				c0-0.2,0.7-1,0.7-1s1.1,0.1,1.4,0.1c0.3,0.1,2.1,0.7,2.1,0.7l0.7,0.5l-2.1,1l-1.2,1.2l-0.9,0.6l0.8,2l2.2,1.1l2-0.4l3.1-0.2
				c0,0,3.6,0.7,3.7,0.8s-1,0.5-1,0.5l-1.4,0.4l-0.8,0.5l-1.3-0.7c0,0-1.1-0.7-1.9-0.6s-1.5,0.7-1.5,0.7l0.8,1.3l1.2,0.8
				c0,0-0.5,1.5-0.8,1.4c-0.3-0.1-1-1.1-1-1.1L346,207l-0.8,0.5l0.1,1.2l-0.3,1.7l-1.4,0.9l-1,0.8l-1.3-0.8l-1.7,0.5l-3-0.2
				l-0.7,0.6l-1.1-0.4c0,0-2.6,0.1-2.8,0.2c-0.2,0.1-1.7-0.8-1.7-0.8l-0.7-1.5l0.8-1c-0.4-0.4-0.4-0.4-0.4-0.4l-0.3-0.8l0.6-0.7
				l-0.8-0.2l-1.4,1.4l-0.1,1.3c0,0,0.7,1.3,0.8,1.5c0.1,0.2,0.1,1.2,0.1,1.2l-1.4,0.6l-1.5,0.4l0.3,0.6l1.6,0.3l-0.5,0.9l-0.9,0.1
				l-0.4,1.1l-0.3,0.6l-1.2-0.3l0.1-0.8l0.1-1l-0.5-0.5l-0.7,0.8l-0.8,1l-1.8,0.3l-0.8,0.7l-0.6,1.2l-1.3,0.6l-1.1,0.7l-1.6-0.8
				l-0.2,0.4l0.3,0.8l-0.4,0.5l-2.1-0.2l-1.2-0.2l-0.2,1.6l2.1,0.3l1,0.9c0,0,0.8,1,1,1c0.2,0,1.3,0.3,1.3,0.3l-0.4,2.5l-1,2.3
				l-4.2-0.1l-4.6-0.1l-1.5,0.6l-0.4,1.3l0.4,1.3l-0.8,2.6l-0.3,1.3c0,0,0,1.2,0.1,1.3c0.1,0.2,0.8,1.3,0.8,1.3l-0.5,1.9l1.5,0.4
				l2.5,0.2l1.3,0.7l1,0.2l1.7-0.7l2.5-0.3l2.4-2l-0.4-2.4l1.5-1.9l3.1-2l1.3-0.5l-0.2-2l1.9-1.1l1.9,0.6l1.2-0.7l3.8-1.1l3.8,3.5
				l5.2,3.5c0,0,1.1,2.1,1.1,2.3s-0.8,1.5-0.8,1.5h-2.9l-1.1,0.2c0,0,0.3,0.8,0.6,0.8s2.5,1.1,2.5,1.1l0.7,0.6l0.4-0.1l-0.1-1.1
				l0.2-1l0.8,0.1c0,0,0.8-0.9,0.8-1.1c0.1-0.2,0.8-1.5,0.8-1.5l-0.6-1.2l0.3-0.8l1,0.1l0.1,1.2h0.3l-0.1-1.5l-0.9-0.6l-1.3-0.8
				l-0.8-1.2l-1.5-0.4l-1.7-1.2l-0.4-1.3l-1.6-0.8l-0.4-1.2l0.4-1.3l1-0.2l0.1,1.2l1,0.3l0.7-0.4l1,1.8l2.1,1.2l1.6,1l1,0.1l1.7,1.9
				l0.4,2.4l3.1,3.3l0.5,2.3l2.2,1.6l0.6-0.5l-0.3-1.5l1.2-0.7l-0.4-1l-1.2-0.5l-0.5-1l0.2-1.6l-0.7-0.8l0.7,0.1l0.5,0.6l0.8-1.1
				l1.3,0.1l1.3,0.6l1,1.3l1,1.6c0,0-0.7,0.4-0.7,0.6c-0.1,0.2,0.6,1.2,0.6,1.2l1.3,1.2l1,1.5l2-0.1l0.2,0.9l1.5,0.2l1.4-0.3
				l0.4-0.9l0.6,0.8l1.6,0.6l1.4-0.1l1.2-1.3l1.1,0.4l0.8,0.5l-0.3,1.1l0.7,2.3l-1,2.3v3.1h-6.1l-2.3,0.9l-3.8-1.9l-2.5,0.3
				l-4.2-1.5h-3.4l-1,0.9l0.6,1.6l-1.3,1.3l-3.4-2l-2.6,0.3l-1-1.7l-3.9-1.2l-2.8-1.3l-2-1l2.5-2.9l-0.7-2.5l-1.7-1l-10.4,1.2
				l-4.1,1.6l-2.6,0.1l-2.8,1l-3.4-0.7l-2.2,2.6l-2.6,1.7l-2.4,5l0.6,2.2l-3.1,2.9l-3.1,1.2l-1.5,2.8c0,0-3.2,7.1-3.5,7.7
				c-0.3,0.6,0,4.2,0,4.2l1.3,4.2l-3.1,7.1l1.2,3.5l1.6,3.2l4.2,6l-0.1,3l8.7,6.6l5.8-2.3l5.7,1.7l7-3.8c0,0,2.3,0,3.1,1.3
				c0.7,1.3,1.2,2.5,3.8,2.5s3.9,2.9,3.9,2.9l-1.2,3.4l0.6,1.7l-1.2,2.8l2.8,5.7l2,4.4l1.9,4.2l0.4,5.4l-0.4,3.1l-3.4,5.8l1,9l1.2,2
				l-0.4,1.5l2,2.2l1.3,5.1l-1.2,4.8l1.7,3.6c0,0,1.6,3.9,1.7,4.4s1.2,1.9,1,2.6c-0.1,0.7-0.6,2.6-0.6,2.6l0.6,2.9h7.4l3.5-1.2
				l8.6-8.7c0,0,2-2.5,2.2-2.9c0.1-0.4,1.3-5.8,1.3-5.8l6.1-2.5v-4.8l-1.3-3.8l3.2-3.1l8.6-5l0.7-3.8v-6.6l-1.6-5l0.4-3.1l-1.6-1.3
				l2.8-4.1l1-5.4l4.1-2.5l0.9-2.5l7.4-7.7l2.3-7.3l2.2-4v-4.4l-2-0.7l-2.3,1.9l-3.2,0.3l-3.4,0.9l-2.8-1.7l0.3-2.2l-3.5-3.9l-3.5-2
				l-1.6-5.2l-3.4-3.2l-0.3-4.1l-2.5-3.6l-3.1-6.9l-3.2-3.2l-0.3-2.6l1.3,0.6l1.5,1.2l0.6,2.2c1.2,0,1.6-2.2,1.6-2.2l1,2.2l1,2.8
				l3.2,4.8l1.7,0.3l2,4.2l-0.1,1.9l5.8,6l1,5.5l1,2.5l1.9,1.9l8.7-2.3l1.6-1.5l3.8-1.2v-1.7l4.4-2.9l1.9-3.4l1.1-1.7l1.5-2
				l-2.5-3.4l-3.4-2.9l-1.1-2.7l-1.2,0.3l-0.9,2.6l-3.4,0.9l-1.7-1.2l-0.6-2.5l-1.2,0.3l-1.7-3.2l-1.6-0.9l-2-3.4l1.5-1.6l4.8,3.9
				l5.1,2.8l2.6-1l1.7,2.5l4.7,1l2,1l5.7-15l-1.6-8L396.2,203c-2.3-2.5-4.8-4.9-7.3-7.2l-2.2-1.7H377.5z"/>
			<linearGradient id="SVGID_13_" gradientUnits="userSpaceOnUse" x1="217.377" y1="445.1066" x2="217.377" y2="129.2278">
				<stop  offset="0" style="stop-color:#00F2CF"/>
				<stop  offset="6.547942e-02" style="stop-color:#1ED5D4;stop-opacity:0.9409"/>
				<stop  offset="0.1721" style="stop-color:#49ABDC;stop-opacity:0.8446"/>
				<stop  offset="0.2845" style="stop-color:#6D87E2;stop-opacity:0.7432"/>
				<stop  offset="0.4015" style="stop-color:#8B6AE8;stop-opacity:0.6376"/>
				<stop  offset="0.5246" style="stop-color:#A253EC;stop-opacity:0.5265"/>
				<stop  offset="0.6566" style="stop-color:#B243EF;stop-opacity:0.4072"/>
				<stop  offset="0.8038" style="stop-color:#BC3AF0;stop-opacity:0.2743"/>
				<stop  offset="0.997" style="stop-color:#BF37F1;stop-opacity:0.1"/>
			</linearGradient>
			<path class="st12" d="M170.6,278.3l3.3,0.5l2.2,1.4l2.3-0.9l1.9,1.9l4.2,2.3l4.1,0.5l1.2,4.1c0,0,2.8,2.6,2.7,3.1
				c-0.1,0.5,0.9,3,1.5,3s3.9,1.8,3.9,1.8l2.3,0.3l0.9-2h2v2l0.8,1.1l0.3,3.1l0.8,2.3l-1.4,1.5l-2.2,2.7l-2.7,3.8l0.3,3.7l-0.7,2.4
				l2,0.7l-1.8,2.4c0,0,0.9,2.7,0.9,3.1c0,0.4,1.5,3.4,1.5,3.4l1.9,1.6l0.8,2.7l4.6,9.5l3.3,2.7l4.7,2.4c0,0,3,3.3,3.1,3.7
				c0.1,0.4,1.6,6.4,1.6,6.4l-0.1,3.4l0.9,3.5l0.3,3.9l0.4,5.4l1.4,4.3l1.2,5.7l-1.5,1.9l0.9,2.8l1.1,4.1l1.9,2l-0.1,3.3l0.4,3.3
				l8.4,9l1.6,1.8v-4.2l2.7-1.6v-2.5l-2.7-1.2v-1.9l1.3-1.2l1.3-2.2v-1.8c1.1-0.4,0-1.6,0-1.6h-1.9l-0.1-1.8h1.8l0.7,1.1l1.4-1.1
				l-1.1-2.2c0.3-0.7,2.2,0,2.2,0l3.3-1.9l1.4-1.6v-2.2l-1.6-1.4l-1.4-2.2h1.6c0,0,2.4,1.2,3.3,0c0.8-1.2,2-2.8,2-2.8l1.5-3.5
				c0,0,2.8-5.2,3.1-5.6s0-5.4,0-5.4l4.5-3.7h3l2.4-4.1l1.9-2.7v-4.5l0.7-4.3l-1.1-4.3l3.8-5l2.8-2.7l-1.1-5l-0.5-3.1l-2.6-0.5
				l-4.5-2.8h-3.9l-3.4-1.8h-1.4c0,0,0.3-1.9-0.1-2c-0.4-0.1-3.4-1.9-3.4-1.9l-2.3,0.8v-1.6l-1.6-0.7h-1.4l0.1-1.4
				c0,0,1.2-2.4,0.5-2.8c-0.7-0.4-3.1-5.8-3.1-5.8l-3.7-2h-3.9l-3.4-3.3l-3.4-2.7l-1.9-3.8l-2-1.4c0,0-2.3,1.5-2.8,1.4
				c-0.5-0.1-3.9-1.4-3.9-1.4l-2.8-0.8l-3.5,1.6v3.7l-1.4-0.9v-1.4l1.2-2.3l0.5-1.6l-1.2-0.5l-1.6,1.9l-4.1,1.2l-0.8,1.8l-1.9,1.8
				l-0.5,1.5l-3-2.4c0,0-2.7,1.4-3.1,1.4c-0.4,0-3.1-2-3.1-2l-1.5-2.8l0.8-3.8l0.7-3.9l-2.6-1.6h-3.5l-2.8-0.8l1.3-2l1.5-3l1.4-2.2
				c0,0,0.4-1,0.8-1.2c1.7-0.9,0-1.8,0-1.8s-3.7-0.3-4.2,0c-0.5,0.3-2,1.1-2,1.1v3.1l-2.7,1.2l-4.2,0.9c0,0-2.4-2.4-2.8-2.8
				c-0.4-0.4-1.4-4.9-1.4-4.9l1.8-1.6l0.8-1.4l0.1-3.3l1.8-1.5l0.7-1.8l2-1.5l1.9-1.8l1.8-0.5l2.4,0.5c0.1-0.9,4.6-0.5,4.6-0.5
				l1.8-0.1l-0.1-1c0.8-0.7,3.5,0,3.5,0l3.7-0.3c0.8,0.2,1.5,1.8,1.5,1.8l-1.6,1.5l1.1,3.3l1.1,1.5l-0.4,1.5l2.6-0.4l0.1-2.6
				l0.1-3.1l-0.4-3.4l2.4-5.3l9.9-6.4l-0.1-2.3l0.7-3.3l1.8,0.6l3.1-3.7l4.1-1.3l2.4-1.7l1.2-2.4l4.5-1.4l4.5-2.3l-2,2.2l-0.3,1.9
				l2.4-0.5l2.2-1.2l1.9-0.5l1.8-0.5l0.5-1.2h-1.2l-1.9-0.7c-1.2-0.9-2.7-2-2.7-2c-0.1-0.7,0.4-1.2,0.4-1.2l1.2-1.1
				c0,0,0.5-0.7,0.1-0.7s-3.4-0.6-3.4-0.6l-3.3,1.3h-1.9l2.3-2h2.6l2.8-0.7c0,0,3.1,0,3.5,0c0.4,0,2.4,0,2.4,0l3.3-0.7l2.3-1.3
				l2.8-0.3l0.8-3l-1.9-1.6L252,206l-0.5-3.2l-1.5-3.3h-1.4l-0.1,1.8h-2.2l-0.5,1.1l-0.8,0.5l-1.4,0.3l-1.2-1.2l1.6-1.8l-1.9-1.8
				l-2.3-1.2h-2.4l-1.8,0.5l-2.4,2.8l-1.9,1.6l0.5,1.5l-0.7,2.3l0.4,0.9l-2.3,0.8l-2.6,0.5l-1.1-0.3l-0.8,1.1l1.5,3l-1.5,1h-2
				l-1.8-2.1l-0.4-1.3l1.2-0.7l-0.9-1.6l-2.8-0.1l-3.8-2.4h-1.8l-0.4-1.4l-1.2-0.5l1.8-2l2.6-1.5l4.5-1.6l1.6-0.5l3.5-0.8l2.4-1.4
				l2.2-1.9h2.8l3.4-0.9h2.2l0.9-2.5h-4.3l-1.6,1.2h-2.8c-0.7-0.8-2.2-1.2-2.2-1.2v-0.9l1.5-1.4l1.9-1.5c0.9-1.1,1.6-2.8,1.6-2.8
				l3.9,1.4l3-0.2l2-0.1l2.6,0.1l1.5,0.5c-0.4,1.1-2,0.3-2,0.3l-4.9,0.5l-2.2,1.2l0.7-1.5l-2.3,0.1l-2.7,1.8l1.9,0.9h4.5l2.4,0.9
				l2-0.8l2.2,0.8l2.6,0.8l-3.1,1l-2.7,1.3l-2.7,0.6l-2.2,0.8l0.9,1.9l5.7-0.1l3.5,2.2h3l0.1-1.2l0.7-1.2l1.4-0.3l-1.1-1.5l-0.4-1.1
				h1.6l1.4,1c1.1,0.8,3.4-1,3.4-1l3.4-1.3l-4.2-1.2l-1.4-1.4c0.4-0.8-4.5-2-4.5-2L247,184l-0.9-0.9h-3.3l2.6-1.1l6.4,0.7l3.3-0.7
				l7.5-1.9l5-1.2l3.7-1.4l-4.2-0.7c0,0-3,0.8-3.4,0.8c-0.4,0-3.9,0.3-4.3,0.3c-0.4,0-9.5,0-9.5,0l-3,0.7l2.7,0.7l-1.6,0.9H245
				l-1.6,0.5l2.2-1.6l-2.3-0.5l-2.8,0.7l-3.5,2l1.6,0.5l2.3-0.9l1.9,0.4l-2,0.5l-0.8,1.1l1.4,0.4l-3.7,0.3l-6.4-1.1l-2.6,3.1
				l-5.2,3.7l1.4,1.1l-0.9,0.6l-1.2,0.7l-3.5-0.7l-4.9,1.3l-9,2.2l-11.3,10.9c-18.1,20.1-30.4,45.7-34.1,73.9l8.9-3L170.6,278.3z"/>
			<linearGradient id="SVGID_14_" gradientUnits="userSpaceOnUse" x1="217.377" y1="409.9248" x2="217.377" y2="174.5263">
				<stop  offset="0" style="stop-color:#FFFFFF;stop-opacity:0.7"/>
				<stop  offset="0.8063" style="stop-color:#FFFFFF;stop-opacity:0.1"/>
			</linearGradient>
			<path class="st13" d="M170.6,278.3l3.3,0.5l2.2,1.4l2.3-0.9l1.9,1.9l4.2,2.3l4.1,0.5l1.2,4.1c0,0,2.8,2.6,2.7,3.1
				c-0.1,0.5,0.9,3,1.5,3s3.9,1.8,3.9,1.8l2.3,0.3l0.9-2h2v2l0.8,1.1l0.3,3.1l0.8,2.3l-1.4,1.5l-2.2,2.7l-2.7,3.8l0.3,3.7l-0.7,2.4
				l2,0.7l-1.8,2.4c0,0,0.9,2.7,0.9,3.1c0,0.4,1.5,3.4,1.5,3.4l1.9,1.6l0.8,2.7l4.6,9.5l3.3,2.7l4.7,2.4c0,0,3,3.3,3.1,3.7
				c0.1,0.4,1.6,6.4,1.6,6.4l-0.1,3.4l0.9,3.5l0.3,3.9l0.4,5.4l1.4,4.3l1.2,5.7l-1.5,1.9l0.9,2.8l1.1,4.1l1.9,2l-0.1,3.3l0.4,3.3
				l8.4,9l1.6,1.8v-4.2l2.7-1.6v-2.5l-2.7-1.2v-1.9l1.3-1.2l1.3-2.2v-1.8c1.1-0.4,0-1.6,0-1.6h-1.9l-0.1-1.8h1.8l0.7,1.1l1.4-1.1
				l-1.1-2.2c0.3-0.7,2.2,0,2.2,0l3.3-1.9l1.4-1.6v-2.2l-1.6-1.4l-1.4-2.2h1.6c0,0,2.4,1.2,3.3,0c0.8-1.2,2-2.8,2-2.8l1.5-3.5
				c0,0,2.8-5.2,3.1-5.6s0-5.4,0-5.4l4.5-3.7h3l2.4-4.1l1.9-2.7v-4.5l0.7-4.3l-1.1-4.3l3.8-5l2.8-2.7l-1.1-5l-0.5-3.1l-2.6-0.5
				l-4.5-2.8h-3.9l-3.4-1.8h-1.4c0,0,0.3-1.9-0.1-2c-0.4-0.1-3.4-1.9-3.4-1.9l-2.3,0.8v-1.6l-1.6-0.7h-1.4l0.1-1.4
				c0,0,1.2-2.4,0.5-2.8c-0.7-0.4-3.1-5.8-3.1-5.8l-3.7-2h-3.9l-3.4-3.3l-3.4-2.7l-1.9-3.8l-2-1.4c0,0-2.3,1.5-2.8,1.4
				c-0.5-0.1-3.9-1.4-3.9-1.4l-2.8-0.8l-3.5,1.6v3.7l-1.4-0.9v-1.4l1.2-2.3l0.5-1.6l-1.2-0.5l-1.6,1.9l-4.1,1.2l-0.8,1.8l-1.9,1.8
				l-0.5,1.5l-3-2.4c0,0-2.7,1.4-3.1,1.4c-0.4,0-3.1-2-3.1-2l-1.5-2.8l0.8-3.8l0.7-3.9l-2.6-1.6h-3.5l-2.8-0.8l1.3-2l1.5-3l1.4-2.2
				c0,0,0.4-1,0.8-1.2c1.7-0.9,0-1.8,0-1.8s-3.7-0.3-4.2,0c-0.5,0.3-2,1.1-2,1.1v3.1l-2.7,1.2l-4.2,0.9c0,0-2.4-2.4-2.8-2.8
				c-0.4-0.4-1.4-4.9-1.4-4.9l1.8-1.6l0.8-1.4l0.1-3.3l1.8-1.5l0.7-1.8l2-1.5l1.9-1.8l1.8-0.5l2.4,0.5c0.1-0.9,4.6-0.5,4.6-0.5
				l1.8-0.1l-0.1-1c0.8-0.7,3.5,0,3.5,0l3.7-0.3c0.8,0.2,1.5,1.8,1.5,1.8l-1.6,1.5l1.1,3.3l1.1,1.5l-0.4,1.5l2.6-0.4l0.1-2.6
				l0.1-3.1l-0.4-3.4l2.4-5.3l9.9-6.4l-0.1-2.3l0.7-3.3l1.8,0.6l3.1-3.7l4.1-1.3l2.4-1.7l1.2-2.4l4.5-1.4l4.5-2.3l-2,2.2l-0.3,1.9
				l2.4-0.5l2.2-1.2l1.9-0.5l1.8-0.5l0.5-1.2h-1.2l-1.9-0.7c-1.2-0.9-2.7-2-2.7-2c-0.1-0.7,0.4-1.2,0.4-1.2l1.2-1.1
				c0,0,0.5-0.7,0.1-0.7s-3.4-0.6-3.4-0.6l-3.3,1.3h-1.9l2.3-2h2.6l2.8-0.7c0,0,3.1,0,3.5,0c0.4,0,2.4,0,2.4,0l3.3-0.7l2.3-1.3
				l2.8-0.3l0.8-3l-1.9-1.6L252,206l-0.5-3.2l-1.5-3.3h-1.4l-0.1,1.8h-2.2l-0.5,1.1l-0.8,0.5l-1.4,0.3l-1.2-1.2l1.6-1.8l-1.9-1.8
				l-2.3-1.2h-2.4l-1.8,0.5l-2.4,2.8l-1.9,1.6l0.5,1.5l-0.7,2.3l0.4,0.9l-2.3,0.8l-2.6,0.5l-1.1-0.3l-0.8,1.1l1.5,3l-1.5,1h-2
				l-1.8-2.1l-0.4-1.3l1.2-0.7l-0.9-1.6l-2.8-0.1l-3.8-2.4h-1.8l-0.4-1.4l-1.2-0.5l1.8-2l2.6-1.5l4.5-1.6l1.6-0.5l3.5-0.8l2.4-1.4
				l2.2-1.9h2.8l3.4-0.9h2.2l0.9-2.5h-4.3l-1.6,1.2h-2.8c-0.7-0.8-2.2-1.2-2.2-1.2v-0.9l1.5-1.4l1.9-1.5c0.9-1.1,1.6-2.8,1.6-2.8
				l3.9,1.4l3-0.2l2-0.1l2.6,0.1l1.5,0.5c-0.4,1.1-2,0.3-2,0.3l-4.9,0.5l-2.2,1.2l0.7-1.5l-2.3,0.1l-2.7,1.8l1.9,0.9h4.5l2.4,0.9
				l2-0.8l2.2,0.8l2.6,0.8l-3.1,1l-2.7,1.3l-2.7,0.6l-2.2,0.8l0.9,1.9l5.7-0.1l3.5,2.2h3l0.1-1.2l0.7-1.2l1.4-0.3l-1.1-1.5l-0.4-1.1
				h1.6l1.4,1c1.1,0.8,3.4-1,3.4-1l3.4-1.3l-4.2-1.2l-1.4-1.4c0.4-0.8-4.5-2-4.5-2L247,184l-0.9-0.9h-3.3l2.6-1.1l6.4,0.7l3.3-0.7
				l7.5-1.9l5-1.2l3.7-1.4l-4.2-0.7c0,0-3,0.8-3.4,0.8c-0.4,0-3.9,0.3-4.3,0.3c-0.4,0-9.5,0-9.5,0l-3,0.7l2.7,0.7l-1.6,0.9H245
				l-1.6,0.5l2.2-1.6l-2.3-0.5l-2.8,0.7l-3.5,2l1.6,0.5l2.3-0.9l1.9,0.4l-2,0.5l-0.8,1.1l1.4,0.4l-3.7,0.3l-6.4-1.1l-2.6,3.1
				l-5.2,3.7l1.4,1.1l-0.9,0.6l-1.2,0.7l-3.5-0.7l-4.9,1.3l-9,2.2l-11.3,10.9c-18.1,20.1-30.4,45.7-34.1,73.9l8.9-3L170.6,278.3z"/>
			<linearGradient id="SVGID_15_" gradientUnits="userSpaceOnUse" x1="203.0877" y1="445.1066" x2="203.0877" y2="129.2278">
				<stop  offset="0" style="stop-color:#00F2CF"/>
				<stop  offset="6.547942e-02" style="stop-color:#1ED5D4;stop-opacity:0.9409"/>
				<stop  offset="0.1721" style="stop-color:#49ABDC;stop-opacity:0.8446"/>
				<stop  offset="0.2845" style="stop-color:#6D87E2;stop-opacity:0.7432"/>
				<stop  offset="0.4015" style="stop-color:#8B6AE8;stop-opacity:0.6376"/>
				<stop  offset="0.5246" style="stop-color:#A253EC;stop-opacity:0.5265"/>
				<stop  offset="0.6566" style="stop-color:#B243EF;stop-opacity:0.4072"/>
				<stop  offset="0.8038" style="stop-color:#BC3AF0;stop-opacity:0.2743"/>
				<stop  offset="0.997" style="stop-color:#BF37F1;stop-opacity:0.1"/>
			</linearGradient>
			<path class="st14" d="M207.9,267.1l-3.5-1.5l-4.2-1.4c0,0-1.2,0.2-2.5,0.5c-1,0.2-2.1,0.6-3,0.9l6,2h2.4l4,3.5h2.7
				c0,0,2.2-1,1.5-2.7L207.9,267.1z"/>
			<linearGradient id="SVGID_16_" gradientUnits="userSpaceOnUse" x1="203.0877" y1="409.9249" x2="203.0877" y2="174.5264">
				<stop  offset="0" style="stop-color:#FFFFFF;stop-opacity:0.7"/>
				<stop  offset="0.8063" style="stop-color:#FFFFFF;stop-opacity:0.1"/>
			</linearGradient>
			<path class="st15" d="M207.9,267.1l-3.5-1.5l-4.2-1.4c0,0-1.2,0.2-2.5,0.5c-1,0.2-2.1,0.6-3,0.9l6,2h2.4l4,3.5h2.7
				c0,0,2.2-1,1.5-2.7L207.9,267.1z"/>
			<linearGradient id="SVGID_17_" gradientUnits="userSpaceOnUse" x1="288.6339" y1="445.1066" x2="288.6339" y2="129.2278">
				<stop  offset="0" style="stop-color:#00F2CF"/>
				<stop  offset="6.547942e-02" style="stop-color:#1ED5D4;stop-opacity:0.9409"/>
				<stop  offset="0.1721" style="stop-color:#49ABDC;stop-opacity:0.8446"/>
				<stop  offset="0.2845" style="stop-color:#6D87E2;stop-opacity:0.7432"/>
				<stop  offset="0.4015" style="stop-color:#8B6AE8;stop-opacity:0.6376"/>
				<stop  offset="0.5246" style="stop-color:#A253EC;stop-opacity:0.5265"/>
				<stop  offset="0.6566" style="stop-color:#B243EF;stop-opacity:0.4072"/>
				<stop  offset="0.8038" style="stop-color:#BC3AF0;stop-opacity:0.2743"/>
				<stop  offset="0.997" style="stop-color:#BF37F1;stop-opacity:0.1"/>
			</linearGradient>
			<path class="st16" d="M291.5,191h5.5l3-4.3h6.9l1.1-2.7l4.2-2.2c2-1.7,0-4.9,0-4.9l-8.6-1.1l-8.5,1.1l-12.4-2.3L275,178
				c0,0-5.5,3-6.3,2.7c-0.7-0.2-4.5,0-4.5,0s2.7,2.5,4,2.7c1.2,0.2,2.7,0,2.7,0s0,2.4,0.5,3c1.7,2-1.8,3.5-1.8,3.5v2.3
				c0,0,0.4,4.4,1.1,4.2c0.7-0.2,2,2.4,2,2.4l2.3,2.5h4.2l5.2-6.2l5.1-2.2L291.5,191z"/>
			<linearGradient id="SVGID_18_" gradientUnits="userSpaceOnUse" x1="288.6339" y1="409.9249" x2="288.6339" y2="174.5264">
				<stop  offset="0" style="stop-color:#FFFFFF;stop-opacity:0.7"/>
				<stop  offset="0.8063" style="stop-color:#FFFFFF;stop-opacity:0.1"/>
			</linearGradient>
			<path class="st17" d="M291.5,191h5.5l3-4.3h6.9l1.1-2.7l4.2-2.2c2-1.7,0-4.9,0-4.9l-8.6-1.1l-8.5,1.1l-12.4-2.3L275,178
				c0,0-5.5,3-6.3,2.7c-0.7-0.2-4.5,0-4.5,0s2.7,2.5,4,2.7c1.2,0.2,2.7,0,2.7,0s0,2.4,0.5,3c1.7,2-1.8,3.5-1.8,3.5v2.3
				c0,0,0.4,4.4,1.1,4.2c0.7-0.2,2,2.4,2,2.4l2.3,2.5h4.2l5.2-6.2l5.1-2.2L291.5,191z"/>
			<linearGradient id="SVGID_19_" gradientUnits="userSpaceOnUse" x1="314.2407" y1="445.1066" x2="314.2407" y2="129.2278">
				<stop  offset="0" style="stop-color:#00F2CF"/>
				<stop  offset="6.547942e-02" style="stop-color:#1ED5D4;stop-opacity:0.9409"/>
				<stop  offset="0.1721" style="stop-color:#49ABDC;stop-opacity:0.8446"/>
				<stop  offset="0.2845" style="stop-color:#6D87E2;stop-opacity:0.7432"/>
				<stop  offset="0.4015" style="stop-color:#8B6AE8;stop-opacity:0.6376"/>
				<stop  offset="0.5246" style="stop-color:#A253EC;stop-opacity:0.5265"/>
				<stop  offset="0.6566" style="stop-color:#B243EF;stop-opacity:0.4072"/>
				<stop  offset="0.8038" style="stop-color:#BC3AF0;stop-opacity:0.2743"/>
				<stop  offset="0.997" style="stop-color:#BF37F1;stop-opacity:0.1"/>
			</linearGradient>
			<path class="st18" d="M311.7,204.9l-1.4,0.6v2.1c0,0,0,0,0.2,0.5c0.2,0.5,0.2,1.3,0.2,1.3l1,0.7l1,0.6l0.5,0.9
				c0,0-0.2,0.9-0.7,0.9l-1.2,0.4l0.5,0.8c0,0-0.9,0.5-1,0.8l0.8,0.6l-0.8,0.8H309v0.9h3.5l1.5-0.9l2.2,0.4c0,0,1.8-0.4,2.2-0.4
				l-0.3-0.4l0.5-0.7l0.8-1l-1.1-0.5l-1.2-0.4l0.2-1.3l-1.2-0.9l-1.8-1l-0.2-1.8l0.2-1.5h-1.9l-0.4-0.8l1.1-1H311.7z"/>
			<linearGradient id="SVGID_20_" gradientUnits="userSpaceOnUse" x1="314.2407" y1="409.9249" x2="314.2407" y2="174.5264">
				<stop  offset="0" style="stop-color:#FFFFFF;stop-opacity:0.7"/>
				<stop  offset="0.8063" style="stop-color:#FFFFFF;stop-opacity:0.1"/>
			</linearGradient>
			<path class="st19" d="M311.7,204.9l-1.4,0.6v2.1c0,0,0,0,0.2,0.5c0.2,0.5,0.2,1.3,0.2,1.3l1,0.7l1,0.6l0.5,0.9
				c0,0-0.2,0.9-0.7,0.9l-1.2,0.4l0.5,0.8c0,0-0.9,0.5-1,0.8l0.8,0.6l-0.8,0.8H309v0.9h3.5l1.5-0.9l2.2,0.4c0,0,1.8-0.4,2.2-0.4
				l-0.3-0.4l0.5-0.7l0.8-1l-1.1-0.5l-1.2-0.4l0.2-1.3l-1.2-0.9l-1.8-1l-0.2-1.8l0.2-1.5h-1.9l-0.4-0.8l1.1-1H311.7z"/>
			<linearGradient id="SVGID_21_" gradientUnits="userSpaceOnUse" x1="392.0054" y1="445.1066" x2="392.0054" y2="129.2278">
				<stop  offset="0" style="stop-color:#00F2CF"/>
				<stop  offset="6.547942e-02" style="stop-color:#1ED5D4;stop-opacity:0.9409"/>
				<stop  offset="0.1721" style="stop-color:#49ABDC;stop-opacity:0.8446"/>
				<stop  offset="0.2845" style="stop-color:#6D87E2;stop-opacity:0.7432"/>
				<stop  offset="0.4015" style="stop-color:#8B6AE8;stop-opacity:0.6376"/>
				<stop  offset="0.5246" style="stop-color:#A253EC;stop-opacity:0.5265"/>
				<stop  offset="0.6566" style="stop-color:#B243EF;stop-opacity:0.4072"/>
				<stop  offset="0.8038" style="stop-color:#BC3AF0;stop-opacity:0.2743"/>
				<stop  offset="0.997" style="stop-color:#BF37F1;stop-opacity:0.1"/>
			</linearGradient>
			<path class="st20" d="M398.8,339.4l-0.7-1.8l-0.8,0.8l-0.7,1.5l-1.5,1l-0.7,2l-1,2.4l-3.8,1.2l-1.6,2.8l-0.4,4.6l-1.3,2.2
				l-1.5,1.6l0.6,2.7l1.1,1.3l-1.1,1.4l1.1,0.9h3.6l2-3c0,0,1.6-3.5,1.6-3.8c0-0.3,0.8-3.5,0.8-3.5l2.8-3.7v-4.9h1.9l-0.6-3.6
				L398.8,339.4z"/>
			<linearGradient id="SVGID_22_" gradientUnits="userSpaceOnUse" x1="392.0054" y1="409.9249" x2="392.0054" y2="174.5264">
				<stop  offset="0" style="stop-color:#FFFFFF;stop-opacity:0.7"/>
				<stop  offset="0.8063" style="stop-color:#FFFFFF;stop-opacity:0.1"/>
			</linearGradient>
			<path class="st21" d="M398.8,339.4l-0.7-1.8l-0.8,0.8l-0.7,1.5l-1.5,1l-0.7,2l-1,2.4l-3.8,1.2l-1.6,2.8l-0.4,4.6l-1.3,2.2
				l-1.5,1.6l0.6,2.7l1.1,1.3l-1.1,1.4l1.1,0.9h3.6l2-3c0,0,1.6-3.5,1.6-3.8c0-0.3,0.8-3.5,0.8-3.5l2.8-3.7v-4.9h1.9l-0.6-3.6
				L398.8,339.4z"/>
			<linearGradient id="SVGID_23_" gradientUnits="userSpaceOnUse" x1="253.2803" y1="445.1066" x2="253.2803" y2="129.2278">
				<stop  offset="0" style="stop-color:#00F2CF"/>
				<stop  offset="6.547942e-02" style="stop-color:#1ED5D4;stop-opacity:0.9409"/>
				<stop  offset="0.1721" style="stop-color:#49ABDC;stop-opacity:0.8446"/>
				<stop  offset="0.2845" style="stop-color:#6D87E2;stop-opacity:0.7432"/>
				<stop  offset="0.4015" style="stop-color:#8B6AE8;stop-opacity:0.6376"/>
				<stop  offset="0.5246" style="stop-color:#A253EC;stop-opacity:0.5265"/>
				<stop  offset="0.6566" style="stop-color:#B243EF;stop-opacity:0.4072"/>
				<stop  offset="0.8038" style="stop-color:#BC3AF0;stop-opacity:0.2743"/>
				<stop  offset="0.997" style="stop-color:#BF37F1;stop-opacity:0.1"/>
			</linearGradient>
			<path class="st22" d="M255.5,215.7c-0.3-0.2-0.1-1.1-0.1-1.1l1.6-1.4l-3.3,0.7l-1.2,1.8l-3.6,2.2l1.6,0.9l1,0.7l1.6,0.2v-1
				c0,0,1.8-0.5,2.3,0.2l-0.2,1.3l1.7,0.6l0.5-1.6v-3.5C257.5,215.7,255.9,215.8,255.5,215.7z"/>
			<linearGradient id="SVGID_24_" gradientUnits="userSpaceOnUse" x1="253.2803" y1="409.9249" x2="253.2803" y2="174.5264">
				<stop  offset="0" style="stop-color:#FFFFFF;stop-opacity:0.7"/>
				<stop  offset="0.8063" style="stop-color:#FFFFFF;stop-opacity:0.1"/>
			</linearGradient>
			<path class="st23" d="M255.5,215.7c-0.3-0.2-0.1-1.1-0.1-1.1l1.6-1.4l-3.3,0.7l-1.2,1.8l-3.6,2.2l1.6,0.9l1,0.7l1.6,0.2v-1
				c0,0,1.8-0.5,2.3,0.2l-0.2,1.3l1.7,0.6l0.5-1.6v-3.5C257.5,215.7,255.9,215.8,255.5,215.7z"/>
			<linearGradient id="SVGID_25_" gradientUnits="userSpaceOnUse" x1="217.8783" y1="445.1066" x2="217.8783" y2="129.2278">
				<stop  offset="0" style="stop-color:#00F2CF"/>
				<stop  offset="6.547942e-02" style="stop-color:#1ED5D4;stop-opacity:0.9409"/>
				<stop  offset="0.1721" style="stop-color:#49ABDC;stop-opacity:0.8446"/>
				<stop  offset="0.2845" style="stop-color:#6D87E2;stop-opacity:0.7432"/>
				<stop  offset="0.4015" style="stop-color:#8B6AE8;stop-opacity:0.6376"/>
				<stop  offset="0.5246" style="stop-color:#A253EC;stop-opacity:0.5265"/>
				<stop  offset="0.6566" style="stop-color:#B243EF;stop-opacity:0.4072"/>
				<stop  offset="0.8038" style="stop-color:#BC3AF0;stop-opacity:0.2743"/>
				<stop  offset="0.997" style="stop-color:#BF37F1;stop-opacity:0.1"/>
			</linearGradient>
			<path class="st24" d="M223.3,270.8l-6.5,0.3c-1.5-0.7-3,0-3,0c-0.2,2.5-2.3,2.5-2.3,2.5l2.7,1.5l2.7-1l3.5-1.2l3,2.2
				C225.5,272.4,223.3,270.8,223.3,270.8z"/>
			<linearGradient id="SVGID_26_" gradientUnits="userSpaceOnUse" x1="217.8783" y1="409.9249" x2="217.8783" y2="174.5264">
				<stop  offset="0" style="stop-color:#FFFFFF;stop-opacity:0.7"/>
				<stop  offset="0.8063" style="stop-color:#FFFFFF;stop-opacity:0.1"/>
			</linearGradient>
			<path class="st25" d="M223.3,270.8l-6.5,0.3c-1.5-0.7-3,0-3,0c-0.2,2.5-2.3,2.5-2.3,2.5l2.7,1.5l2.7-1l3.5-1.2l3,2.2
				C225.5,272.4,223.3,270.8,223.3,270.8z"/>
			<linearGradient id="SVGID_27_" gradientUnits="userSpaceOnUse" x1="321.4507" y1="445.1066" x2="321.4507" y2="129.2278">
				<stop  offset="0" style="stop-color:#00F2CF"/>
				<stop  offset="6.547942e-02" style="stop-color:#1ED5D4;stop-opacity:0.9409"/>
				<stop  offset="0.1721" style="stop-color:#49ABDC;stop-opacity:0.8446"/>
				<stop  offset="0.2845" style="stop-color:#6D87E2;stop-opacity:0.7432"/>
				<stop  offset="0.4015" style="stop-color:#8B6AE8;stop-opacity:0.6376"/>
				<stop  offset="0.5246" style="stop-color:#A253EC;stop-opacity:0.5265"/>
				<stop  offset="0.6566" style="stop-color:#B243EF;stop-opacity:0.4072"/>
				<stop  offset="0.8038" style="stop-color:#BC3AF0;stop-opacity:0.2743"/>
				<stop  offset="0.997" style="stop-color:#BF37F1;stop-opacity:0.1"/>
			</linearGradient>
			<polygon class="st26" points="321.8,211.5 321.8,210.9 323.1,210.9 323.8,210.4 323.8,208.5 324.7,208 324.4,206.5 322.9,206 
				320.8,206.7 320.8,207.8 319.4,208 319.1,209 320.1,209.4 318.6,210.3 318.2,210.9 319.4,212.1 			"/>
			<linearGradient id="SVGID_28_" gradientUnits="userSpaceOnUse" x1="321.4507" y1="409.9249" x2="321.4507" y2="174.5264">
				<stop  offset="0" style="stop-color:#FFFFFF;stop-opacity:0.7"/>
				<stop  offset="0.8063" style="stop-color:#FFFFFF;stop-opacity:0.1"/>
			</linearGradient>
			<polygon class="st27" points="321.8,211.5 321.8,210.9 323.1,210.9 323.8,210.4 323.8,208.5 324.7,208 324.4,206.5 322.9,206 
				320.8,206.7 320.8,207.8 319.4,208 319.1,209 320.1,209.4 318.6,210.3 318.2,210.9 319.4,212.1 			"/>
			<linearGradient id="SVGID_29_" gradientUnits="userSpaceOnUse" x1="306.8392" y1="445.1066" x2="306.8392" y2="129.2278">
				<stop  offset="0" style="stop-color:#00F2CF"/>
				<stop  offset="6.547942e-02" style="stop-color:#1ED5D4;stop-opacity:0.9409"/>
				<stop  offset="0.1721" style="stop-color:#49ABDC;stop-opacity:0.8446"/>
				<stop  offset="0.2845" style="stop-color:#6D87E2;stop-opacity:0.7432"/>
				<stop  offset="0.4015" style="stop-color:#8B6AE8;stop-opacity:0.6376"/>
				<stop  offset="0.5246" style="stop-color:#A253EC;stop-opacity:0.5265"/>
				<stop  offset="0.6566" style="stop-color:#B243EF;stop-opacity:0.4072"/>
				<stop  offset="0.8038" style="stop-color:#BC3AF0;stop-opacity:0.2743"/>
				<stop  offset="0.997" style="stop-color:#BF37F1;stop-opacity:0.1"/>
			</linearGradient>
			<path class="st28" d="M309.8,213.1l-0.3-1.4l0.7-0.7c0.1-1.1-1.7-1.9-1.7-1.9h-1l-1.2,1.4h-1.3l-0.5,1.6l0.2,1.3l-1.1,0.7v1.2
				l0.9,0.5l1.2-1.1h1.7l1.6-0.5L309.8,213.1z"/>
			<linearGradient id="SVGID_30_" gradientUnits="userSpaceOnUse" x1="306.8392" y1="409.9249" x2="306.8392" y2="174.5264">
				<stop  offset="0" style="stop-color:#FFFFFF;stop-opacity:0.7"/>
				<stop  offset="0.8063" style="stop-color:#FFFFFF;stop-opacity:0.1"/>
			</linearGradient>
			<path class="st29" d="M309.8,213.1l-0.3-1.4l0.7-0.7c0.1-1.1-1.7-1.9-1.7-1.9h-1l-1.2,1.4h-1.3l-0.5,1.6l0.2,1.3l-1.1,0.7v1.2
				l0.9,0.5l1.2-1.1h1.7l1.6-0.5L309.8,213.1z"/>
			<linearGradient id="SVGID_31_" gradientUnits="userSpaceOnUse" x1="295.6659" y1="453.0134" x2="295.6659" y2="120.7526">
				<stop  offset="0" style="stop-color:#00F2CF;stop-opacity:0.4"/>
				<stop  offset="7.226343e-02" style="stop-color:#2CF4D7;stop-opacity:0.3783"/>
				<stop  offset="0.1642" style="stop-color:#5DF7E1;stop-opacity:0.3506"/>
				<stop  offset="0.2612" style="stop-color:#88F9E9;stop-opacity:0.3214"/>
				<stop  offset="0.3615" style="stop-color:#ADFBF0;stop-opacity:0.2912"/>
				<stop  offset="0.4659" style="stop-color:#CBFCF5;stop-opacity:0.2598"/>
				<stop  offset="0.5757" style="stop-color:#E2FEFA;stop-opacity:0.2268"/>
				<stop  offset="0.6935" style="stop-color:#F2FEFD;stop-opacity:0.1913"/>
				<stop  offset="0.8247" style="stop-color:#FCFFFE;stop-opacity:0.1518"/>
				<stop  offset="0.997" style="stop-color:#FFFFFF;stop-opacity:0.1"/>
			</linearGradient>
			<circle class="st30" cx="295.7" cy="297.6" r="144.7"/>
		</g>
		<linearGradient id="SVGID_32_" gradientUnits="userSpaceOnUse" x1="86.863" y1="221.8868" x2="524.3867" y2="221.8868">
			<stop  offset="0" style="stop-color:#FFFFFF;stop-opacity:0.8"/>
			<stop  offset="0.1124" style="stop-color:#FAFFFE;stop-opacity:0.8"/>
			<stop  offset="0.2364" style="stop-color:#EDFFFC;stop-opacity:0.8"/>
			<stop  offset="0.3661" style="stop-color:#D7FEF7;stop-opacity:0.8"/>
			<stop  offset="0.4997" style="stop-color:#B8FEF2;stop-opacity:0.8"/>
			<stop  offset="0.6362" style="stop-color:#90FDEA;stop-opacity:0.8"/>
			<stop  offset="0.7753" style="stop-color:#60FCE1;stop-opacity:0.8"/>
			<stop  offset="0.9138" style="stop-color:#27FBD6;stop-opacity:0.8"/>
			<stop  offset="1" style="stop-color:#00FACF;stop-opacity:0.8"/>
		</linearGradient>
		<polyline class="st31" points="508.1,190.7 524.1,201.5 491.7,256.5 424.2,273.4 319.4,177.3 246.1,201 140.4,217.4 87.1,184.7 
			103,170.4 		"/>
		<linearGradient id="SVGID_33_" gradientUnits="userSpaceOnUse" x1="47.2688" y1="153.7012" x2="394.3442" y2="153.7012">
			<stop  offset="0" style="stop-color:#FFFFFF;stop-opacity:0.8"/>
			<stop  offset="0.1124" style="stop-color:#FAFFFE;stop-opacity:0.8"/>
			<stop  offset="0.2364" style="stop-color:#EDFFFC;stop-opacity:0.8"/>
			<stop  offset="0.3661" style="stop-color:#D7FEF7;stop-opacity:0.8"/>
			<stop  offset="0.4997" style="stop-color:#B8FEF2;stop-opacity:0.8"/>
			<stop  offset="0.6362" style="stop-color:#90FDEA;stop-opacity:0.8"/>
			<stop  offset="0.7753" style="stop-color:#60FCE1;stop-opacity:0.8"/>
			<stop  offset="0.9138" style="stop-color:#27FBD6;stop-opacity:0.8"/>
			<stop  offset="1" style="stop-color:#00FACF;stop-opacity:0.8"/>
		</linearGradient>
		<polyline class="st32" points="394.1,83.2 380.7,69.8 310.6,53.7 269.7,110.1 206.1,115.5 214.1,161.1 140.4,217.4 118.3,232.8 
			52.9,217.6 47.5,240 69.6,253.7 		"/>
		<linearGradient id="SVGID_34_" gradientUnits="userSpaceOnUse" x1="58.9128" y1="217.4736" x2="438.2905" y2="217.4736">
			<stop  offset="0" style="stop-color:#FFFFFF;stop-opacity:0.8"/>
			<stop  offset="0.1124" style="stop-color:#FAFFFE;stop-opacity:0.8"/>
			<stop  offset="0.2364" style="stop-color:#EDFFFC;stop-opacity:0.8"/>
			<stop  offset="0.3661" style="stop-color:#D7FEF7;stop-opacity:0.8"/>
			<stop  offset="0.4997" style="stop-color:#B8FEF2;stop-opacity:0.8"/>
			<stop  offset="0.6362" style="stop-color:#90FDEA;stop-opacity:0.8"/>
			<stop  offset="0.7753" style="stop-color:#60FCE1;stop-opacity:0.8"/>
			<stop  offset="0.9138" style="stop-color:#27FBD6;stop-opacity:0.8"/>
			<stop  offset="1" style="stop-color:#00FACF;stop-opacity:0.8"/>
		</linearGradient>
		<polyline class="st33" points="435.8,107 438,92.2 335,136.1 319.4,177.3 277.7,241.8 177.1,263.3 103.9,304.2 59.2,324.2 
			61.1,334.7 69.8,342.8 		"/>
		<linearGradient id="SVGID_35_" gradientUnits="userSpaceOnUse" x1="55.5461" y1="305.799" x2="543.0864" y2="305.799">
			<stop  offset="0" style="stop-color:#FFFFFF;stop-opacity:0.8"/>
			<stop  offset="0.1124" style="stop-color:#FAFFFE;stop-opacity:0.8"/>
			<stop  offset="0.2364" style="stop-color:#EDFFFC;stop-opacity:0.8"/>
			<stop  offset="0.3661" style="stop-color:#D7FEF7;stop-opacity:0.8"/>
			<stop  offset="0.4997" style="stop-color:#B8FEF2;stop-opacity:0.8"/>
			<stop  offset="0.6362" style="stop-color:#90FDEA;stop-opacity:0.8"/>
			<stop  offset="0.7753" style="stop-color:#60FCE1;stop-opacity:0.8"/>
			<stop  offset="0.9138" style="stop-color:#27FBD6;stop-opacity:0.8"/>
			<stop  offset="1" style="stop-color:#00FACF;stop-opacity:0.8"/>
		</linearGradient>
		<polyline class="st34" points="532.7,273.4 542.8,289.2 523.7,328.6 483.7,330.4 420.5,351.9 341.3,297.6 209.6,304.2 
			115.6,259.7 59.2,265.9 55.8,279 65.5,290 		"/>
		<linearGradient id="SVGID_36_" gradientUnits="userSpaceOnUse" x1="97.3371" y1="306.2189" x2="501.3382" y2="306.2189">
			<stop  offset="0" style="stop-color:#FFFFFF;stop-opacity:0.8"/>
			<stop  offset="0.1124" style="stop-color:#FAFFFE;stop-opacity:0.8"/>
			<stop  offset="0.2364" style="stop-color:#EDFFFC;stop-opacity:0.8"/>
			<stop  offset="0.3661" style="stop-color:#D7FEF7;stop-opacity:0.8"/>
			<stop  offset="0.4997" style="stop-color:#B8FEF2;stop-opacity:0.8"/>
			<stop  offset="0.6362" style="stop-color:#90FDEA;stop-opacity:0.8"/>
			<stop  offset="0.7753" style="stop-color:#60FCE1;stop-opacity:0.8"/>
			<stop  offset="0.9138" style="stop-color:#27FBD6;stop-opacity:0.8"/>
			<stop  offset="1" style="stop-color:#00FACF;stop-opacity:0.8"/>
		</linearGradient>
		<polyline class="st35" points="97.6,416.2 103.4,444 201.8,464.2 254.4,394.9 341.3,297.6 424.2,273.4 460,182.7 501.1,153.7 
			480.1,148.2 		"/>
		<linearGradient id="SVGID_37_" gradientUnits="userSpaceOnUse" x1="135.2783" y1="316.8953" x2="491.9861" y2="316.8953">
			<stop  offset="0" style="stop-color:#FFFFFF;stop-opacity:0.8"/>
			<stop  offset="0.1124" style="stop-color:#FAFFFE;stop-opacity:0.8"/>
			<stop  offset="0.2364" style="stop-color:#EDFFFC;stop-opacity:0.8"/>
			<stop  offset="0.3661" style="stop-color:#D7FEF7;stop-opacity:0.8"/>
			<stop  offset="0.4997" style="stop-color:#B8FEF2;stop-opacity:0.8"/>
			<stop  offset="0.6362" style="stop-color:#90FDEA;stop-opacity:0.8"/>
			<stop  offset="0.7753" style="stop-color:#60FCE1;stop-opacity:0.8"/>
			<stop  offset="0.9138" style="stop-color:#27FBD6;stop-opacity:0.8"/>
			<stop  offset="1" style="stop-color:#00FACF;stop-opacity:0.8"/>
		</linearGradient>
		<polyline class="st36" points="171,101.9 135.5,108.3 214.1,161.1 335,136.1 460,182.7 491.7,256.5 483.7,330.4 420.5,463.5 
			394.2,531.9 353.8,525.6 		"/>
		<linearGradient id="SVGID_38_" gradientUnits="userSpaceOnUse" x1="52.643" y1="344.3016" x2="183.0212" y2="344.3016">
			<stop  offset="0" style="stop-color:#FFFFFF;stop-opacity:0.8"/>
			<stop  offset="0.1124" style="stop-color:#FAFFFE;stop-opacity:0.8"/>
			<stop  offset="0.2364" style="stop-color:#EDFFFC;stop-opacity:0.8"/>
			<stop  offset="0.3661" style="stop-color:#D7FEF7;stop-opacity:0.8"/>
			<stop  offset="0.4997" style="stop-color:#B8FEF2;stop-opacity:0.8"/>
			<stop  offset="0.6362" style="stop-color:#90FDEA;stop-opacity:0.8"/>
			<stop  offset="0.7753" style="stop-color:#60FCE1;stop-opacity:0.8"/>
			<stop  offset="0.9138" style="stop-color:#27FBD6;stop-opacity:0.8"/>
			<stop  offset="1" style="stop-color:#00FACF;stop-opacity:0.8"/>
		</linearGradient>
		<polyline class="st37" points="182.8,483.5 147.2,453 142.5,389.4 103.9,304.2 115.6,259.7 52.9,217.6 72.3,209.2 84.4,205.1 		
			"/>
		<linearGradient id="SVGID_39_" gradientUnits="userSpaceOnUse" x1="142.2147" y1="339.4508" x2="523.9048" y2="339.4508">
			<stop  offset="0" style="stop-color:#FFFFFF;stop-opacity:0.8"/>
			<stop  offset="0.1124" style="stop-color:#FAFFFE;stop-opacity:0.8"/>
			<stop  offset="0.2364" style="stop-color:#EDFFFC;stop-opacity:0.8"/>
			<stop  offset="0.3661" style="stop-color:#D7FEF7;stop-opacity:0.8"/>
			<stop  offset="0.4997" style="stop-color:#B8FEF2;stop-opacity:0.8"/>
			<stop  offset="0.6362" style="stop-color:#90FDEA;stop-opacity:0.8"/>
			<stop  offset="0.7753" style="stop-color:#60FCE1;stop-opacity:0.8"/>
			<stop  offset="0.9138" style="stop-color:#27FBD6;stop-opacity:0.8"/>
			<stop  offset="1" style="stop-color:#00FACF;stop-opacity:0.8"/>
		</linearGradient>
		<polyline class="st38" points="142.5,389.4 209.6,304.2 277.7,241.8 424.2,273.4 483.7,330.4 523.7,437.1 		"/>
		<linearGradient id="SVGID_40_" gradientUnits="userSpaceOnUse" x1="420.2744" y1="381.6393" x2="446.4291" y2="381.6393">
			<stop  offset="0" style="stop-color:#FFFFFF;stop-opacity:0.8"/>
			<stop  offset="0.1124" style="stop-color:#FAFFFE;stop-opacity:0.8"/>
			<stop  offset="0.2364" style="stop-color:#EDFFFC;stop-opacity:0.8"/>
			<stop  offset="0.3661" style="stop-color:#D7FEF7;stop-opacity:0.8"/>
			<stop  offset="0.4997" style="stop-color:#B8FEF2;stop-opacity:0.8"/>
			<stop  offset="0.6362" style="stop-color:#90FDEA;stop-opacity:0.8"/>
			<stop  offset="0.7753" style="stop-color:#60FCE1;stop-opacity:0.8"/>
			<stop  offset="0.9138" style="stop-color:#27FBD6;stop-opacity:0.8"/>
			<stop  offset="1" style="stop-color:#00FACF;stop-opacity:0.8"/>
		</linearGradient>
		<polyline class="st39" points="424.2,273.4 420.5,351.9 420.5,463.5 446.2,489.9 446.2,480.4 		"/>
		<linearGradient id="SVGID_41_" gradientUnits="userSpaceOnUse" x1="437.7905" y1="137.4325" x2="460.2316" y2="137.4325">
			<stop  offset="0" style="stop-color:#FFFFFF;stop-opacity:0.8"/>
			<stop  offset="0.1124" style="stop-color:#FAFFFE;stop-opacity:0.8"/>
			<stop  offset="0.2364" style="stop-color:#EDFFFC;stop-opacity:0.8"/>
			<stop  offset="0.3661" style="stop-color:#D7FEF7;stop-opacity:0.8"/>
			<stop  offset="0.4997" style="stop-color:#B8FEF2;stop-opacity:0.8"/>
			<stop  offset="0.6362" style="stop-color:#90FDEA;stop-opacity:0.8"/>
			<stop  offset="0.7753" style="stop-color:#60FCE1;stop-opacity:0.8"/>
			<stop  offset="0.9138" style="stop-color:#27FBD6;stop-opacity:0.8"/>
			<stop  offset="1" style="stop-color:#00FACF;stop-opacity:0.8"/>
		</linearGradient>
		<line class="st40" x1="460" y1="182.7" x2="438" y2="92.2"/>
		<linearGradient id="SVGID_42_" gradientUnits="userSpaceOnUse" x1="310.3709" y1="94.8958" x2="335.2859" y2="94.8958">
			<stop  offset="0" style="stop-color:#FFFFFF;stop-opacity:0.8"/>
			<stop  offset="0.1124" style="stop-color:#FAFFFE;stop-opacity:0.8"/>
			<stop  offset="0.2364" style="stop-color:#EDFFFC;stop-opacity:0.8"/>
			<stop  offset="0.3661" style="stop-color:#D7FEF7;stop-opacity:0.8"/>
			<stop  offset="0.4997" style="stop-color:#B8FEF2;stop-opacity:0.8"/>
			<stop  offset="0.6362" style="stop-color:#90FDEA;stop-opacity:0.8"/>
			<stop  offset="0.7753" style="stop-color:#60FCE1;stop-opacity:0.8"/>
			<stop  offset="0.9138" style="stop-color:#27FBD6;stop-opacity:0.8"/>
			<stop  offset="1" style="stop-color:#00FACF;stop-opacity:0.8"/>
		</linearGradient>
		<line class="st41" x1="310.6" y1="53.7" x2="335" y2="136.1"/>
		<linearGradient id="SVGID_43_" gradientUnits="userSpaceOnUse" x1="153.2833" y1="108.548" x2="269.9004" y2="108.548">
			<stop  offset="0" style="stop-color:#FFFFFF;stop-opacity:0.8"/>
			<stop  offset="0.1124" style="stop-color:#FAFFFE;stop-opacity:0.8"/>
			<stop  offset="0.2364" style="stop-color:#EDFFFC;stop-opacity:0.8"/>
			<stop  offset="0.3661" style="stop-color:#D7FEF7;stop-opacity:0.8"/>
			<stop  offset="0.4997" style="stop-color:#B8FEF2;stop-opacity:0.8"/>
			<stop  offset="0.6362" style="stop-color:#90FDEA;stop-opacity:0.8"/>
			<stop  offset="0.7753" style="stop-color:#60FCE1;stop-opacity:0.8"/>
			<stop  offset="0.9138" style="stop-color:#27FBD6;stop-opacity:0.8"/>
			<stop  offset="1" style="stop-color:#00FACF;stop-opacity:0.8"/>
		</linearGradient>
		<polyline class="st42" points="269.7,110.1 229.6,63.4 206.1,115.5 163.4,127 153.5,153.7 		"/>
		<linearGradient id="SVGID_44_" gradientUnits="userSpaceOnUse" x1="229.3751" y1="64.7461" x2="264.2201" y2="64.7461">
			<stop  offset="0" style="stop-color:#FFFFFF;stop-opacity:0.8"/>
			<stop  offset="0.1124" style="stop-color:#FAFFFE;stop-opacity:0.8"/>
			<stop  offset="0.2364" style="stop-color:#EDFFFC;stop-opacity:0.8"/>
			<stop  offset="0.3661" style="stop-color:#D7FEF7;stop-opacity:0.8"/>
			<stop  offset="0.4997" style="stop-color:#B8FEF2;stop-opacity:0.8"/>
			<stop  offset="0.6362" style="stop-color:#90FDEA;stop-opacity:0.8"/>
			<stop  offset="0.7753" style="stop-color:#60FCE1;stop-opacity:0.8"/>
			<stop  offset="0.9138" style="stop-color:#27FBD6;stop-opacity:0.8"/>
			<stop  offset="1" style="stop-color:#00FACF;stop-opacity:0.8"/>
		</linearGradient>
		<line class="st43" x1="229.6" y1="63.4" x2="264" y2="66.1"/>
		<linearGradient id="SVGID_45_" gradientUnits="userSpaceOnUse" x1="108.7346" y1="217.5375" x2="341.5558" y2="217.5375">
			<stop  offset="0" style="stop-color:#FFFFFF;stop-opacity:0.8"/>
			<stop  offset="0.1124" style="stop-color:#FAFFFE;stop-opacity:0.8"/>
			<stop  offset="0.2364" style="stop-color:#EDFFFC;stop-opacity:0.8"/>
			<stop  offset="0.3661" style="stop-color:#D7FEF7;stop-opacity:0.8"/>
			<stop  offset="0.4997" style="stop-color:#B8FEF2;stop-opacity:0.8"/>
			<stop  offset="0.6362" style="stop-color:#90FDEA;stop-opacity:0.8"/>
			<stop  offset="0.7753" style="stop-color:#60FCE1;stop-opacity:0.8"/>
			<stop  offset="0.9138" style="stop-color:#27FBD6;stop-opacity:0.8"/>
			<stop  offset="1" style="stop-color:#00FACF;stop-opacity:0.8"/>
		</linearGradient>
		<polyline class="st44" points="128.8,137.4 109,148.2 214.1,161.1 246.1,201 277.7,241.8 341.3,297.6 		"/>
		<linearGradient id="SVGID_46_" gradientUnits="userSpaceOnUse" x1="108.7346" y1="182.8203" x2="140.6034" y2="182.8203">
			<stop  offset="0" style="stop-color:#FFFFFF;stop-opacity:0.8"/>
			<stop  offset="0.1124" style="stop-color:#FAFFFE;stop-opacity:0.8"/>
			<stop  offset="0.2364" style="stop-color:#EDFFFC;stop-opacity:0.8"/>
			<stop  offset="0.3661" style="stop-color:#D7FEF7;stop-opacity:0.8"/>
			<stop  offset="0.4997" style="stop-color:#B8FEF2;stop-opacity:0.8"/>
			<stop  offset="0.6362" style="stop-color:#90FDEA;stop-opacity:0.8"/>
			<stop  offset="0.7753" style="stop-color:#60FCE1;stop-opacity:0.8"/>
			<stop  offset="0.9138" style="stop-color:#27FBD6;stop-opacity:0.8"/>
			<stop  offset="1" style="stop-color:#00FACF;stop-opacity:0.8"/>
		</linearGradient>
		<line class="st45" x1="140.4" y1="217.4" x2="109" y2="148.2"/>
		<linearGradient id="SVGID_47_" gradientUnits="userSpaceOnUse" x1="47.2688" y1="385.7698" x2="264.2201" y2="385.7698">
			<stop  offset="0" style="stop-color:#FFFFFF;stop-opacity:0.8"/>
			<stop  offset="0.1124" style="stop-color:#FAFFFE;stop-opacity:0.8"/>
			<stop  offset="0.2364" style="stop-color:#EDFFFC;stop-opacity:0.8"/>
			<stop  offset="0.3661" style="stop-color:#D7FEF7;stop-opacity:0.8"/>
			<stop  offset="0.4997" style="stop-color:#B8FEF2;stop-opacity:0.8"/>
			<stop  offset="0.6362" style="stop-color:#90FDEA;stop-opacity:0.8"/>
			<stop  offset="0.7753" style="stop-color:#60FCE1;stop-opacity:0.8"/>
			<stop  offset="0.9138" style="stop-color:#27FBD6;stop-opacity:0.8"/>
			<stop  offset="1" style="stop-color:#00FACF;stop-opacity:0.8"/>
		</linearGradient>
		<polyline class="st46" points="47.5,240 118.3,232.8 177.1,263.3 209.6,304.2 201.8,464.2 159.2,507.4 241.5,538.7 264,529.2 		
			"/>
		<linearGradient id="SVGID_48_" gradientUnits="userSpaceOnUse" x1="86.863" y1="208.7313" x2="118.5285" y2="208.7313">
			<stop  offset="0" style="stop-color:#FFFFFF;stop-opacity:0.8"/>
			<stop  offset="0.1124" style="stop-color:#FAFFFE;stop-opacity:0.8"/>
			<stop  offset="0.2364" style="stop-color:#EDFFFC;stop-opacity:0.8"/>
			<stop  offset="0.3661" style="stop-color:#D7FEF7;stop-opacity:0.8"/>
			<stop  offset="0.4997" style="stop-color:#B8FEF2;stop-opacity:0.8"/>
			<stop  offset="0.6362" style="stop-color:#90FDEA;stop-opacity:0.8"/>
			<stop  offset="0.7753" style="stop-color:#60FCE1;stop-opacity:0.8"/>
			<stop  offset="0.9138" style="stop-color:#27FBD6;stop-opacity:0.8"/>
			<stop  offset="1" style="stop-color:#00FACF;stop-opacity:0.8"/>
		</linearGradient>
		<line class="st47" x1="87.1" y1="184.7" x2="118.3" y2="232.8"/>
		<linearGradient id="SVGID_49_" gradientUnits="userSpaceOnUse" x1="55.5461" y1="330.2661" x2="115.8414" y2="330.2661">
			<stop  offset="0" style="stop-color:#FFFFFF;stop-opacity:0.8"/>
			<stop  offset="0.1124" style="stop-color:#FAFFFE;stop-opacity:0.8"/>
			<stop  offset="0.2364" style="stop-color:#EDFFFC;stop-opacity:0.8"/>
			<stop  offset="0.3661" style="stop-color:#D7FEF7;stop-opacity:0.8"/>
			<stop  offset="0.4997" style="stop-color:#B8FEF2;stop-opacity:0.8"/>
			<stop  offset="0.6362" style="stop-color:#90FDEA;stop-opacity:0.8"/>
			<stop  offset="0.7753" style="stop-color:#60FCE1;stop-opacity:0.8"/>
			<stop  offset="0.9138" style="stop-color:#27FBD6;stop-opacity:0.8"/>
			<stop  offset="1" style="stop-color:#00FACF;stop-opacity:0.8"/>
		</linearGradient>
		<polyline class="st48" points="115.6,259.7 55.8,279 103.9,304.2 70,385.8 89.3,400.9 		"/>
		<linearGradient id="SVGID_50_" gradientUnits="userSpaceOnUse" x1="380.4662" y1="109.0061" x2="480.325" y2="109.0061">
			<stop  offset="0" style="stop-color:#FFFFFF;stop-opacity:0.8"/>
			<stop  offset="0.1124" style="stop-color:#FAFFFE;stop-opacity:0.8"/>
			<stop  offset="0.2364" style="stop-color:#EDFFFC;stop-opacity:0.8"/>
			<stop  offset="0.3661" style="stop-color:#D7FEF7;stop-opacity:0.8"/>
			<stop  offset="0.4997" style="stop-color:#B8FEF2;stop-opacity:0.8"/>
			<stop  offset="0.6362" style="stop-color:#90FDEA;stop-opacity:0.8"/>
			<stop  offset="0.7753" style="stop-color:#60FCE1;stop-opacity:0.8"/>
			<stop  offset="0.9138" style="stop-color:#27FBD6;stop-opacity:0.8"/>
			<stop  offset="1" style="stop-color:#00FACF;stop-opacity:0.8"/>
		</linearGradient>
		<polyline class="st49" points="380.7,69.8 385.7,114.5 451.6,148.2 478,137.4 480.1,148.2 		"/>
		<linearGradient id="SVGID_51_" gradientUnits="userSpaceOnUse" x1="459.7316" y1="160.0605" x2="478.2744" y2="160.0605">
			<stop  offset="0" style="stop-color:#FFFFFF;stop-opacity:0.8"/>
			<stop  offset="0.1124" style="stop-color:#FAFFFE;stop-opacity:0.8"/>
			<stop  offset="0.2364" style="stop-color:#EDFFFC;stop-opacity:0.8"/>
			<stop  offset="0.3661" style="stop-color:#D7FEF7;stop-opacity:0.8"/>
			<stop  offset="0.4997" style="stop-color:#B8FEF2;stop-opacity:0.8"/>
			<stop  offset="0.6362" style="stop-color:#90FDEA;stop-opacity:0.8"/>
			<stop  offset="0.7753" style="stop-color:#60FCE1;stop-opacity:0.8"/>
			<stop  offset="0.9138" style="stop-color:#27FBD6;stop-opacity:0.8"/>
			<stop  offset="1" style="stop-color:#00FACF;stop-opacity:0.8"/>
		</linearGradient>
		<line class="st50" x1="478" y1="137.4" x2="460" y2="182.7"/>
		<linearGradient id="SVGID_52_" gradientUnits="userSpaceOnUse" x1="420.2744" y1="292.8483" x2="524.3867" y2="292.8483">
			<stop  offset="0" style="stop-color:#FFFFFF;stop-opacity:0.8"/>
			<stop  offset="0.1124" style="stop-color:#FAFFFE;stop-opacity:0.8"/>
			<stop  offset="0.2364" style="stop-color:#EDFFFC;stop-opacity:0.8"/>
			<stop  offset="0.3661" style="stop-color:#D7FEF7;stop-opacity:0.8"/>
			<stop  offset="0.4997" style="stop-color:#B8FEF2;stop-opacity:0.8"/>
			<stop  offset="0.6362" style="stop-color:#90FDEA;stop-opacity:0.8"/>
			<stop  offset="0.7753" style="stop-color:#60FCE1;stop-opacity:0.8"/>
			<stop  offset="0.9138" style="stop-color:#27FBD6;stop-opacity:0.8"/>
			<stop  offset="1" style="stop-color:#00FACF;stop-opacity:0.8"/>
		</linearGradient>
		<polyline class="st51" points="524.1,201.5 523.7,328.6 503.8,384.2 420.5,351.9 		"/>
		<linearGradient id="SVGID_53_" gradientUnits="userSpaceOnUse" x1="393.9327" y1="450.5686" x2="475.2045" y2="450.5686">
			<stop  offset="0" style="stop-color:#FFFFFF;stop-opacity:0.8"/>
			<stop  offset="0.1124" style="stop-color:#FAFFFE;stop-opacity:0.8"/>
			<stop  offset="0.2364" style="stop-color:#EDFFFC;stop-opacity:0.8"/>
			<stop  offset="0.3661" style="stop-color:#D7FEF7;stop-opacity:0.8"/>
			<stop  offset="0.4997" style="stop-color:#B8FEF2;stop-opacity:0.8"/>
			<stop  offset="0.6362" style="stop-color:#90FDEA;stop-opacity:0.8"/>
			<stop  offset="0.7753" style="stop-color:#60FCE1;stop-opacity:0.8"/>
			<stop  offset="0.9138" style="stop-color:#27FBD6;stop-opacity:0.8"/>
			<stop  offset="1" style="stop-color:#00FACF;stop-opacity:0.8"/>
		</linearGradient>
		<polyline class="st52" points="465.3,369.2 475,448.8 465.3,464.2 446.2,489.9 394.2,531.9 		"/>
		<linearGradient id="SVGID_54_" gradientUnits="userSpaceOnUse" x1="69.7737" y1="374.5829" x2="315.8516" y2="374.5829">
			<stop  offset="0" style="stop-color:#FFFFFF;stop-opacity:0.8"/>
			<stop  offset="0.1124" style="stop-color:#FAFFFE;stop-opacity:0.8"/>
			<stop  offset="0.2364" style="stop-color:#EDFFFC;stop-opacity:0.8"/>
			<stop  offset="0.3661" style="stop-color:#D7FEF7;stop-opacity:0.8"/>
			<stop  offset="0.4997" style="stop-color:#B8FEF2;stop-opacity:0.8"/>
			<stop  offset="0.6362" style="stop-color:#90FDEA;stop-opacity:0.8"/>
			<stop  offset="0.7753" style="stop-color:#60FCE1;stop-opacity:0.8"/>
			<stop  offset="0.9138" style="stop-color:#27FBD6;stop-opacity:0.8"/>
			<stop  offset="1" style="stop-color:#00FACF;stop-opacity:0.8"/>
		</linearGradient>
		<polyline class="st53" points="277.7,241.8 274.5,301 254.4,394.9 277.1,458.8 315.6,507.4 182.8,483.5 163,487.9 103.4,444 
			97.6,416.2 87,400.7 70,385.8 142.5,389.4 147.2,453 		"/>
	</g>
</g>
<linearGradient id="SVGID_55_" gradientUnits="userSpaceOnUse" x1="305.8929" y1="526.9008" x2="305.8929" y2="52.9014" gradientTransform="matrix(-1 0 0 -1 601.3929 589.9013)">
	<stop  offset="0" style="stop-color:#FFFFFF;stop-opacity:0.1"/>
	<stop  offset="0.1124" style="stop-color:#FAFFFE;stop-opacity:0.1787"/>
	<stop  offset="0.2364" style="stop-color:#EDFEFC;stop-opacity:0.2655"/>
	<stop  offset="0.3661" style="stop-color:#D7FDF7;stop-opacity:0.3563"/>
	<stop  offset="0.4997" style="stop-color:#B8FBF2;stop-opacity:0.4498"/>
	<stop  offset="0.6362" style="stop-color:#90F9EA;stop-opacity:0.5454"/>
	<stop  offset="0.7753" style="stop-color:#60F7E1;stop-opacity:0.6427"/>
	<stop  offset="0.9138" style="stop-color:#27F4D6;stop-opacity:0.7396"/>
	<stop  offset="1" style="stop-color:#00F2CF;stop-opacity:0.8"/>
</linearGradient>
<ellipse class="st54" cx="295.5" cy="300" rx="230.5" ry="237"/>
</svg>
