<?xml version="1.0" encoding="utf-8"?>
<!-- Generator: Adobe Illustrator 22.0.0, SVG Export Plug-In . SVG Version: 6.00 Build 0)  -->
<svg version="1.1" id="OBJECTS" xmlns="http://www.w3.org/2000/svg" xmlns:xlink="http://www.w3.org/1999/xlink" x="0px" y="0px"
	 viewBox="0 0 500 500" style="enable-background:new 0 0 500 500;" xml:space="preserve">
<style type="text/css">
	.st0{fill:#7574DE;}
	.st1{fill:#9292F3;}
	.st2{fill:#CDCDFC;}
	.st3{fill:#DEE0FA;}
	.st4{opacity:0.57;}
	.st5{fill:#FFFFFF;}
	.st6{fill:#9098EA;}
	.st7{opacity:0.23;}
	.st8{fill:#A4A4D7;}
	.st9{fill:#6262C7;}
	.st10{fill:#599C92;}
	.st11{fill:url(#SVGID_1_);}
	.st12{fill:url(#SVGID_2_);}
	.st13{fill:url(#SVGID_3_);}
	.st14{fill-rule:evenodd;clip-rule:evenodd;fill:#6969C7;}
	.st15{fill-rule:evenodd;clip-rule:evenodd;fill:#9292F3;}
	.st16{fill-rule:evenodd;clip-rule:evenodd;fill:#FFFFFF;}
	.st17{fill-rule:evenodd;clip-rule:evenodd;fill:#DEE0FA;}
	.st18{fill:#6969C7;}
	.st19{fill-rule:evenodd;clip-rule:evenodd;fill:#7F7FDB;}
</style>
<g>
	<g>
		<path class="st0" d="M415.1,83c-0.8-3.1-2.1-5.6-3.9-7.4l7.8-3.7l-4.5-2.3l-6.4-2.5l-2.9,5.2c-2.3-0.5-5-0.3-7.8,0.5l4.5-5.9
			l-4.5-2.3l-8.6,5v7.7c-3.6,2.6-7,6-10,9.9l-1.5-2.4l-4.5-2.3l-4.3,7l5.8,4.5c-2.9,5.1-4.9,10.6-5.9,15.9l-6.8,3.9l0,9.6l6.2-3.6
			c0.5,5,2.3,8.8,5.1,11.2l-3,5.4l4.5,2.3l1.7-0.3l2.6-4.7c2.9,0.5,6.3,0,10-1.6v6.8l4.5,2.3l4.1-7.3v-7.4c2.9-2.5,5.6-5.4,7.9-8.7
			l4.9,3.8l4.5,2.3l-1.4-9.8l-3.8-3c3.3-6.1,5.5-12.7,6.1-19l4.3-2.5l4.5-7.3l-4.5-2.3L415.1,83z M392,118.1
			c-6.8,3.9-12.3,0.7-12.3-7.1s5.5-17.4,12.3-21.3c6.8-3.9,12.3-0.7,12.3,7.1S398.8,114.2,392,118.1z"/>
		<g>
			<path class="st1" d="M419.6,85.3c-0.8-3.1-2.1-5.6-3.9-7.4l3.3-6l-6.4-2.5l-2.9,5.2c-2.3-0.5-5-0.3-7.8,0.5v-8.3l-8.6,5v7.7
				c-3.6,2.6-7,6-10,9.9l-6-4.7l-4.3,7l5.8,4.5c-2.9,5.1-4.9,10.6-5.9,15.9l-6.8,3.9l0,9.6l6.2-3.6c0.5,5,2.3,8.8,5.1,11.2l-3,5.4
				l6.2,2.1l2.6-4.7c2.9,0.5,6.3,0,10-1.6v6.8l8.6-5V129c2.9-2.5,5.6-5.4,7.9-8.7l4.9,3.8l3.1-7.5l-3.8-3c3.3-6.1,5.5-12.7,6.1-19
				l4.3-2.5l0-9.6L419.6,85.3z M396.6,120.4c-6.8,3.9-12.3,0.7-12.3-7.1s5.5-17.4,12.3-21.3c6.8-3.9,12.3-0.7,12.3,7.1
				S403.3,116.5,396.6,120.4z"/>
		</g>
		<polygon class="st0" points="361.7,113.8 366.2,116.1 366.2,125.7 361.7,123.4 		"/>
	</g>
	<g>
		<path class="st0" d="M376.7,47.7c-0.6-2.5-1.7-4.5-3.1-6l6.3-3l-3.6-1.9l-5.2-2l-2.3,4.2c-1.9-0.4-4-0.2-6.3,0.4l3.6-4.8l-3.6-1.9
			l-6.9,4v6.2c-2.9,2.1-5.6,4.8-8,8l-1.2-1.9l-3.6-1.9l-3.4,5.6l4.7,3.6c-2.3,4.1-4,8.5-4.8,12.8l-5.5,3.1l0,7.7l5-2.9
			c0.4,4,1.9,7.1,4.1,9l-2.4,4.3l3.6,1.9l1.3-0.2l2.1-3.8c2.4,0.4,5.1,0,8-1.3v5.5l3.6,1.9l3.3-5.9v-6c2.3-2,4.5-4.3,6.4-7l3.9,3.1
			l3.6,1.9l-1.1-7.9l-3.1-2.4c2.7-4.9,4.4-10.3,4.9-15.3l3.5-2l3.6-5.9l-3.6-1.9L376.7,47.7z M358.1,76c-5.4,3.1-9.9,0.6-9.9-5.7
			c0-6.3,4.5-14,9.9-17.1c5.4-3.1,9.9-0.6,9.9,5.7C368,65.1,363.5,72.8,358.1,76z"/>
		<g>
			<path class="st1" d="M380.3,49.6c-0.6-2.5-1.7-4.5-3.1-6l2.7-4.8l-5.2-2l-2.3,4.2c-1.9-0.4-4-0.2-6.3,0.4v-6.6l-6.9,4V45
				c-2.9,2.1-5.6,4.8-8,8l-4.8-3.8l-3.4,5.6l4.7,3.6c-2.3,4.1-4,8.5-4.8,12.8l-5.5,3.1l0,7.7l5-2.9c0.4,4,1.9,7.1,4.1,9l-2.4,4.3
				l5,1.7l2.1-3.8c2.4,0.4,5.1,0,8-1.3v5.5l6.9-4v-6c2.3-2,4.5-4.3,6.4-7l3.9,3.1l2.5-6.1l-3.1-2.4c2.7-4.9,4.4-10.3,4.9-15.3l3.5-2
				v-7.7L380.3,49.6z M361.7,77.8c-5.4,3.1-9.9,0.6-9.9-5.7c0-6.3,4.5-14,9.9-17.1c5.4-3.1,9.9-0.6,9.9,5.7
				C371.6,67,367.2,74.7,361.7,77.8z"/>
		</g>
		<polygon class="st0" points="333.6,72.5 337.3,74.4 337.3,82.1 333.6,80.3 		"/>
	</g>
	<g>
		<path class="st0" d="M153.2,239c-1.3-5.4-3.6-9.7-6.8-12.9l13.6-6.4l-7.8-4l-11.2-4.3l-5,9.1c-4.1-0.8-8.7-0.5-13.6,0.9l7.8-10.3
			l-7.8-4l-14.9,8.6V229c-6.3,4.5-12.2,10.5-17.3,17.2l-2.6-4.2l-7.8-4l-7.4,12.2l10.1,7.8c-4.9,8.8-8.6,18.4-10.3,27.7l-11.8,6.8
			l0,16.7l10.8-6.2c0.9,8.7,4.1,15.3,8.9,19.5l-5.1,9.3l7.8,4l2.9-0.4l4.6-8.2c5.1,0.8,11,0,17.3-2.7v11.9l7.8,4l7.1-12.6v-12.8
			c5-4.3,9.7-9.4,13.8-15l8.5,6.6l7.8,4l-2.4-17.1l-6.6-5.2c5.7-10.6,9.6-22.1,10.6-33l7.5-4.3l7.8-12.7l-7.8-4L153.2,239z
			 M113.1,299.9c-11.8,6.8-21.4,1.2-21.4-12.3c0-13.5,9.6-30.2,21.4-36.9c11.8-6.8,21.4-1.2,21.4,12.3
			C134.5,276.5,124.8,293.1,113.1,299.9z"/>
		<g>
			<path class="st1" d="M161,243c-1.3-5.4-3.6-9.7-6.8-12.9l5.8-10.4l-11.2-4.3l-5,9.1c-4.1-0.8-8.7-0.5-13.6,0.9V211l-14.9,8.6V233
				c-6.3,4.5-12.2,10.5-17.3,17.2L87.6,242l-7.4,12.2l10.1,7.8c-4.9,8.8-8.6,18.4-10.3,27.7l-11.8,6.8l0,16.7l10.8-6.2
				c0.9,8.7,4.1,15.3,8.9,19.5l-5.1,9.3l10.7,3.6l4.6-8.2c5.1,0.8,11,0,17.3-2.7v11.9l14.9-8.6v-12.8c5-4.3,9.7-9.4,13.8-15l8.5,6.6
				l5.4-13.1l-6.6-5.2c5.7-10.6,9.6-22.1,10.6-33l7.5-4.3l0-16.7L161,243z M120.9,303.9c-11.8,6.8-21.4,1.2-21.4-12.3
				c0-13.5,9.6-30.2,21.4-36.9c11.8-6.8,21.4-1.2,21.4,12.3C142.3,280.5,132.7,297.1,120.9,303.9z"/>
		</g>
		<polygon class="st0" points="60.4,292.5 68.2,296.5 68.2,313.2 60.4,309.1 		"/>
	</g>
	<g>
		<path class="st0" d="M233.5,105.9c-50,28.8-90.8,99.5-90.8,157.1c0,30,11.1,50.8,28.8,59.7c1.5,0.8,40.2,23.3,40.2,23.3
			s0.1-18.1,21.8-30.7c50-28.8,90.8-99.5,90.8-157.1c0-19.1,13.9-35.1,13.9-35.1l-22.5-13.2C293.1,96.6,261.3,89.8,233.5,105.9z"/>
		<path class="st2" d="M272.1,128.4c-50,28.8-90.8,99.5-90.8,157.1c0,57.6,40.9,81.1,90.8,52.3c50-28.8,90.8-99.5,90.8-157.1
			C363,123.1,322.1,99.6,272.1,128.4z"/>
		<path class="st3" d="M273.9,139.3c-43.9,25.6-79.7,88.3-79.7,139.4c0,51.1,35.9,72,79.7,46.5c43.9-25.6,79.7-88.3,79.7-139.4
			S317.8,113.8,273.9,139.3z"/>
		<g class="st4">
			<path class="st5" d="M293.3,130.5c6.3,9.6,9.9,22.8,9.9,39c0,51.1-35.9,113.9-79.7,139.4c-6.9,4-13.6,6.9-20,8.7
				c13.6,20.7,39.9,25,69.8,7.5c43.9-25.6,79.7-88.3,79.7-139.4C353.1,142.5,327.6,120.9,293.3,130.5z"/>
		</g>
		<path class="st6" d="M275.4,217.2c-5.9,3.4-10.7,11.8-10.7,18.7c0,6.8,4.8,9.6,10.7,6.2c5.9-3.4,10.7-11.8,10.7-18.7
			C286,216.6,281.2,213.8,275.4,217.2z"/>
		<g class="st7">
			<g>
				<path class="st8" d="M315.4,128.7c17.3,7,28.3,26,28.3,54.4c0,51.1-35.9,113.9-79.7,139.4c-15.2,8.8-29.4,12.1-41.5,10.5
					c13.9,5.6,31.9,3.5,51.4-7.9c43.9-25.6,79.7-88.3,79.7-139.4C353.7,152.3,338.3,131.8,315.4,128.7z"/>
			</g>
		</g>
		<polygon class="st3" points="270.8,112.5 286.8,121.1 286.8,94.1 270.8,85.5 		"/>
		<g>
			<polygon class="st9" points="244.1,124 263.2,134.2 263.2,102.1 244.1,91.8 			"/>
			<polygon class="st2" points="263.2,102.1 287.6,89.3 287.6,121.5 263.2,134.2 			"/>
			<g>
				<polygon class="st0" points="224.1,86 245.1,98 307.9,61.8 287,49.8 				"/>
				<polygon class="st9" points="224.1,102.1 224.1,86 245.1,98 245.1,114.1 				"/>
				<polygon class="st2" points="307.9,61.8 307.9,77.9 245.1,114.1 245.1,98 				"/>
			</g>
		</g>
		<polygon class="st0" points="277.7,164.6 275.4,166.4 275.4,146.3 277.7,144.4 		"/>
		<polygon class="st0" points="268.6,312.3 266.3,314.1 266.3,293.9 268.6,292.1 		"/>
		<polygon class="st0" points="216.1,251.1 216.7,248.4 197.3,259.2 196.7,262.1 		"/>
		<polygon class="st0" points="347.7,187.8 348.3,185 328.9,195.8 328.3,198.7 		"/>
		<g>
			<path class="st6" d="M287.7,253.8c0,0-9.5-74.5-9.7-74c-0.2,0.5-6.6,83.6-6.6,83.6L287.7,253.8z"/>
			<path class="st0" d="M278,219c-5,2.9-9.2,10.1-9.2,16c0,5.9,4.1,8.3,9.2,5.3c5-2.9,9.2-10.1,9.2-16
				C287.1,218.5,283,216.1,278,219z"/>
		</g>
	</g>
	<g>
		<polygon class="st10" points="139.9,385.5 158.6,396.3 177.4,385.5 158.6,374.7 		"/>
		<linearGradient id="SVGID_1_" gradientUnits="userSpaceOnUse" x1="158.6483" y1="427.014" x2="177.441" y2="427.014">
			<stop  offset="0" style="stop-color:#8DEBE2"/>
			<stop  offset="1" style="stop-color:#D0FFFB"/>
		</linearGradient>
		<polygon class="st11" points="158.6,396.3 158.6,468.5 177.4,457.7 177.4,385.5 		"/>
		<polygon class="st10" points="139.9,385.5 158.6,396.3 158.6,468.5 139.9,457.7 		"/>
		<polygon class="st10" points="177.4,342.2 196.2,353 215,342.2 196.2,331.3 		"/>
		<linearGradient id="SVGID_2_" gradientUnits="userSpaceOnUse" x1="196.2336" y1="394.5211" x2="215.0263" y2="394.5211">
			<stop  offset="0" style="stop-color:#8DEBE2"/>
			<stop  offset="1" style="stop-color:#D0FFFB"/>
		</linearGradient>
		<polygon class="st12" points="196.2,353 196.2,446.9 215,436 215,342.2 		"/>
		<polygon class="st10" points="177.4,342.2 196.2,353 196.2,446.9 177.4,436 		"/>
		<polygon class="st10" points="215,298.8 233.8,309.7 252.6,298.8 233.8,288 		"/>
		<linearGradient id="SVGID_3_" gradientUnits="userSpaceOnUse" x1="233.819" y1="362.0269" x2="252.6116" y2="362.0269">
			<stop  offset="0" style="stop-color:#8DEBE2"/>
			<stop  offset="1" style="stop-color:#D0FFFB"/>
		</linearGradient>
		<polygon class="st13" points="233.8,309.7 233.8,425.2 252.6,414.4 252.6,298.8 		"/>
		<polygon class="st10" points="215,298.8 233.8,309.7 233.8,425.2 215,414.4 		"/>
	</g>
	<g>
		<polygon class="st14" points="331.6,238.3 331.6,367 335.8,369.6 409.9,321.3 414.1,196.3 409.2,193.6 		"/>
		<g>
			<polygon class="st15" points="335.8,241.5 335.8,369.6 414.1,324.5 414.1,196.3 			"/>
		</g>
		<polygon class="st16" points="341.7,251.8 341.7,361.8 408.9,323 408.9,213.1 		"/>
		<path class="st17" d="M347.2,259.2v15.4c0,0.7,0.7,1.1,1.3,0.7l16.6-9.6c0.3-0.2,0.4-0.4,0.4-0.7v-15.4c0-0.7-0.7-1.1-1.3-0.7
			l-16.6,9.6C347.3,258.6,347.2,258.9,347.2,259.2z"/>
		<path class="st17" d="M347.2,283.9v15.4c0,0.7,0.7,1.1,1.3,0.7l16.6-9.6c0.3-0.2,0.4-0.4,0.4-0.7v-15.4c0-0.7-0.7-1.1-1.3-0.7
			l-16.6,9.6C347.3,283.4,347.2,283.6,347.2,283.9z"/>
		<path class="st17" d="M347.2,308.7V324c0,0.7,0.7,1.1,1.3,0.7l16.6-9.6c0.3-0.2,0.4-0.4,0.4-0.7v-15.4c0-0.7-0.7-1.1-1.3-0.7
			l-16.6,9.6C347.3,308.1,347.2,308.4,347.2,308.7z"/>
		<path class="st17" d="M347.2,333.4v15.4c0,0.7,0.7,1.1,1.3,0.7l16.6-9.6c0.3-0.2,0.4-0.4,0.4-0.7v-15.4c0-0.7-0.7-1.1-1.3-0.7
			l-16.6,9.6C347.3,332.8,347.2,333.1,347.2,333.4z"/>
		<g>
			<path class="st17" d="M369.2,248.4L369.2,248.4c0,0.7,0.7,1.1,1.4,0.8l32.5-18.7c0.3-0.2,0.5-0.5,0.5-0.8l0,0
				c0-0.7-0.7-1.1-1.4-0.8l-32.5,18.7C369.4,247.8,369.2,248.1,369.2,248.4z"/>
			<path class="st17" d="M369.2,252.7L369.2,252.7c0,0.7,0.7,1.1,1.4,0.8l32.5-18.7c0.3-0.2,0.5-0.5,0.5-0.8l0,0
				c0-0.7-0.7-1.1-1.4-0.8l-32.5,18.7C369.4,252.1,369.2,252.4,369.2,252.7z"/>
			<path class="st17" d="M369.2,257L369.2,257c0,0.7,0.7,1.1,1.4,0.8l32.5-18.7c0.3-0.2,0.5-0.5,0.5-0.8l0,0c0-0.7-0.7-1.1-1.4-0.8
				l-32.5,18.7C369.4,256.4,369.2,256.7,369.2,257z"/>
			<path class="st17" d="M369.2,261.4L369.2,261.4c0,0.7,0.7,1.1,1.4,0.8l32.5-18.7c0.3-0.2,0.5-0.5,0.5-0.8l0,0
				c0-0.7-0.7-1.1-1.4-0.8l-32.5,18.7C369.4,260.8,369.2,261.1,369.2,261.4z"/>
		</g>
		<g>
			<path class="st17" d="M369.2,273.2L369.2,273.2c0,0.7,0.7,1.1,1.4,0.8l32.5-18.7c0.3-0.2,0.5-0.5,0.5-0.8l0,0
				c0-0.7-0.7-1.1-1.4-0.8l-32.5,18.7C369.4,272.6,369.2,272.9,369.2,273.2z"/>
			<path class="st17" d="M369.2,277.6L369.2,277.6c0,0.7,0.7,1.1,1.4,0.8l32.5-18.7c0.3-0.2,0.5-0.5,0.5-0.8l0,0
				c0-0.7-0.7-1.1-1.4-0.8l-32.5,18.7C369.4,276.9,369.2,277.2,369.2,277.6z"/>
			<path class="st17" d="M369.2,281.9L369.2,281.9c0,0.7,0.7,1.1,1.4,0.8L403,264c0.3-0.2,0.5-0.5,0.5-0.8l0,0
				c0-0.7-0.7-1.1-1.4-0.8l-32.5,18.7C369.4,281.3,369.2,281.6,369.2,281.9z"/>
			<path class="st17" d="M369.2,286.2L369.2,286.2c0,0.7,0.7,1.1,1.4,0.8l32.5-18.7c0.3-0.2,0.5-0.5,0.5-0.8l0,0
				c0-0.7-0.7-1.1-1.4-0.8l-32.5,18.7C369.4,285.6,369.2,285.9,369.2,286.2z"/>
		</g>
		<g>
			<path class="st17" d="M369.2,298.1L369.2,298.1c0,0.7,0.7,1.1,1.4,0.8l32.5-18.7c0.3-0.2,0.5-0.5,0.5-0.8v0
				c0-0.7-0.7-1.1-1.4-0.8l-32.5,18.7C369.4,297.5,369.2,297.8,369.2,298.1z"/>
			<path class="st17" d="M369.2,302.4L369.2,302.4c0,0.7,0.7,1.1,1.4,0.8l32.5-18.7c0.3-0.2,0.5-0.5,0.5-0.8v0
				c0-0.7-0.7-1.1-1.4-0.8l-32.5,18.7C369.4,301.8,369.2,302.1,369.2,302.4z"/>
			<path class="st17" d="M369.2,306.7L369.2,306.7c0,0.7,0.7,1.1,1.4,0.8l32.5-18.7c0.3-0.2,0.5-0.5,0.5-0.8v0
				c0-0.7-0.7-1.1-1.4-0.8L369.6,306C369.4,306.1,369.2,306.4,369.2,306.7z"/>
			<path class="st17" d="M369.2,311.1L369.2,311.1c0,0.7,0.7,1.1,1.4,0.8l32.5-18.7c0.3-0.2,0.5-0.5,0.5-0.8l0,0
				c0-0.7-0.7-1.1-1.4-0.8l-32.5,18.7C369.4,310.5,369.2,310.8,369.2,311.1z"/>
		</g>
		<g>
			<path class="st17" d="M369.2,322.9L369.2,322.9c0,0.7,0.7,1.1,1.4,0.8L403,305c0.3-0.2,0.5-0.5,0.5-0.8l0,0
				c0-0.7-0.7-1.1-1.4-0.8l-32.5,18.7C369.4,322.3,369.2,322.6,369.2,322.9z"/>
			<path class="st17" d="M369.2,327.3L369.2,327.3c0,0.7,0.7,1.1,1.4,0.8l32.5-18.7c0.3-0.2,0.5-0.5,0.5-0.8l0,0
				c0-0.7-0.7-1.1-1.4-0.8l-32.5,18.7C369.4,326.6,369.2,326.9,369.2,327.3z"/>
			<path class="st17" d="M369.2,331.6L369.2,331.6c0,0.7,0.7,1.1,1.4,0.8l32.5-18.7c0.3-0.2,0.5-0.5,0.5-0.8l0,0
				c0-0.7-0.7-1.1-1.4-0.8l-32.5,18.7C369.4,331,369.2,331.3,369.2,331.6z"/>
			<path class="st17" d="M369.2,335.9L369.2,335.9c0,0.7,0.7,1.1,1.4,0.8L403,318c0.3-0.2,0.5-0.5,0.5-0.8l0,0
				c0-0.7-0.7-1.1-1.4-0.8l-32.5,18.7C369.4,335.3,369.2,335.6,369.2,335.9z"/>
		</g>
		<g>
			<path class="st18" d="M357.1,267.1c-0.2,0-0.4-0.1-0.5-0.2l-4-4.3c-0.2-0.3-0.2-0.7,0-0.9c0.3-0.2,0.7-0.2,0.9,0l3.3,3.6
				l8.5-20.7c0.1-0.3,0.5-0.5,0.9-0.4c0.3,0.1,0.5,0.5,0.4,0.9l-8.9,21.7c-0.1,0.2-0.3,0.4-0.5,0.4
				C357.2,267.1,357.1,267.1,357.1,267.1z"/>
		</g>
		<g>
			<path class="st18" d="M357.1,292.5c-0.2,0-0.4-0.1-0.5-0.2l-4-4.3c-0.2-0.3-0.2-0.7,0-0.9c0.3-0.2,0.7-0.2,0.9,0l3.3,3.6
				l8.5-20.7c0.1-0.3,0.5-0.5,0.9-0.4c0.3,0.1,0.5,0.5,0.4,0.9l-8.9,21.7c-0.1,0.2-0.3,0.4-0.5,0.4
				C357.2,292.5,357.1,292.5,357.1,292.5z"/>
		</g>
		<g>
			<path class="st18" d="M357.1,317.9c-0.2,0-0.4-0.1-0.5-0.2l-4-4.3c-0.2-0.3-0.2-0.7,0-0.9c0.3-0.2,0.7-0.2,0.9,0l3.3,3.6
				l8.5-20.7c0.1-0.3,0.5-0.5,0.9-0.4c0.3,0.1,0.5,0.5,0.4,0.9l-8.9,21.7c-0.1,0.2-0.3,0.4-0.5,0.4
				C357.2,317.9,357.1,317.9,357.1,317.9z"/>
		</g>
		<g>
			<path class="st18" d="M357.1,341.4c-0.2,0-0.4-0.1-0.5-0.2l-4-4.3c-0.2-0.3-0.2-0.7,0-0.9c0.3-0.2,0.7-0.2,0.9,0l3.3,3.6
				l8.5-20.7c0.1-0.3,0.5-0.5,0.9-0.4c0.3,0.1,0.5,0.5,0.4,0.9l-8.9,21.7c-0.1,0.2-0.3,0.4-0.5,0.4
				C357.2,341.4,357.1,341.4,357.1,341.4z"/>
		</g>
		<g>
			<polygon class="st14" points="352.4,221.2 352.4,229.4 388.7,208.5 390.7,202.2 388,200.8 			"/>
		</g>
		<g>
			<polygon class="st17" points="354.5,223.1 354.5,248.6 390.7,227.8 390.7,202.2 			"/>
		</g>
		<g>
			<polygon class="st19" points="354.5,235.1 354.5,248.6 390.7,227.8 390.7,214.2 			"/>
		</g>
	</g>
</g>
</svg>
