<?xml version="1.0" encoding="utf-8"?>
<!-- Generator: Adobe Illustrator 22.0.0, SVG Export Plug-In . SVG Version: 6.00 Build 0)  -->
<svg version="1.1" id="Layer_1" xmlns="http://www.w3.org/2000/svg" xmlns:xlink="http://www.w3.org/1999/xlink" x="0px" y="0px"
	 viewBox="0 0 265.2 100" style="enable-background:new 0 0 265.2 100;" xml:space="preserve">
<style type="text/css">
	.st0{fill:#999999;}
	.st1{fill:none;stroke:#999999;stroke-width:3.7464;stroke-miterlimit:10;}
	.st2{fill:#CFD4D7;}
</style>
<g>
	<g>
		<path class="st0" d="M35.3,14.3c-4.7,4.8-9.5,9.6-14.2,14.4c-1.7,1.7-4.1,3.4-5.4,5.4c-1.1,1.6-0.7,3.6-0.7,5.5c0,8,0,16.1,0,24.1
			c0,1.9-0.3,3.6,0.7,5.2c1.6,2.5,4.4,4.7,6.4,6.9c2.1,2.2,4.3,5.6,7,7.3c2.7,1.7,6.8,2.1,9.9,3c1.2,0.4,2.6-0.4,2.9-1.6
			c2.9-11.5,5.8-23,8.6-34.5c0.5-2-1.6-3.7-3.4-2.6c-6.9,4.1-13.9,8.2-20.8,12.2c-2.6,1.5-0.2,5.6,2.4,4c6.9-4.1,13.9-8.2,20.8-12.2
			c-1.1-0.9-2.3-1.8-3.4-2.6c-2.9,11.5-5.8,23-8.6,34.5c1-0.5,1.9-1.1,2.9-1.6c-2.9-0.9-6-1.6-8.9-2.7c-1-0.4,0.9,0.7,0.4,0.3
			c-0.3-0.3-0.6-0.6-0.8-0.9c-1.1-1.3-2.3-2.5-3.5-3.7C25,72,22.7,69.1,20,66.7c-1.9-1.7,0-0.1-0.3,0.3c0.3-0.3,0-2.2,0-2.6
			c0-7.5,0-15,0-22.5c0-1.4,0.7-4.8,0-6c0.6,1.1-1.4,2.1,0.6,0.3c1.1-1,2.1-2.2,3.2-3.2c5-5.1,10.1-10.2,15.1-15.3
			C40.7,15.5,37.4,12.2,35.3,14.3L35.3,14.3z"/>
	</g>
</g>
<g>
	<g>
		<path class="st0" d="M100.3,82.7c8-9.7,16-19.4,24-29.1c0.8-1,1-2.3,0-3.3C111.7,37.6,99.1,25,86.5,12.3c-1.5-1.5-4.9,0-3.9,2.3
			c2.4,5.7,4.8,11.5,7.2,17.2c1.6,3.9,3.3,7.9,4.9,11.8c0.5,1.2,0.9,2.5,1.5,3.7c0.2,0.3,0.8,2.5,0.7,1.1c-0.1-1.2-0.2,0.4-0.4,0.9
			c-0.4,1.3-0.8,2.7-1.1,4c-1.2,4.1-2.3,8.1-3.5,12.2c-1.7,5.9-3.4,11.8-5.1,17.7c-0.8,2.9,3.7,4.1,4.5,1.2
			c1.8-6.2,3.6-12.4,5.3-18.7c1.1-4,2.3-8,3.4-11.9c0.5-1.6,1.5-3.7,1.5-5.5c-0.1-1.8-1.4-3.8-2-5.3c-1.6-3.9-3.2-7.7-4.8-11.6
			c-2.5-6-5-12.1-7.6-18.1c-1.3,0.8-2.6,1.5-3.9,2.3C95.8,28.3,108.4,41,121,53.6c0-1.1,0-2.2,0-3.3c-8,9.7-16,19.4-24,29.1
			C95.1,81.7,98.4,85.1,100.3,82.7L100.3,82.7z"/>
	</g>
</g>
<line class="st1" x1="122.5" y1="51.7" x2="99" y2="48.2"/>
<g>
	<g>
		<g>
			<path class="st0" d="M183.6,69.2c11.9-6.9,23.8-13.9,35.7-20.8c-1-0.8-2-1.6-3.1-2.4c-3.6,13.1-7.2,26.2-10.8,39.3
				c0.9-0.5,1.7-1,2.6-1.5c-2.7-0.8-5.5-1.6-8.2-2.5c-0.6-0.2-1.2-0.3-1.8-0.5c-1-0.4,0.9,0.7,0.4,0.2c-0.8-0.6-1.4-1.5-2.1-2.2
				c-4.1-4.3-8.1-8.7-12.2-13c-1.8-2-4.8,1-3,3c4.3,4.6,8.6,9.2,12.9,13.8c3.3,3.5,8.4,4,12.9,5.3c1.1,0.3,2.3-0.4,2.6-1.5
				c3.6-13.1,7.2-26.2,10.8-39.3c0.5-1.8-1.5-3.3-3.1-2.4c-11.9,6.9-23.8,13.9-35.7,20.8C179.1,67,181.2,70.6,183.6,69.2z"/>
		</g>
	</g>
	<g>
		<g>
			<path class="st0" d="M202.3,10.7c4.6,12.2,9.2,24.3,13.8,36.5c0.3-0.8,0.6-1.6,1-2.4c-11.9,6.9-23.8,13.9-35.7,20.8
				c1,0.6,2.1,1.2,3.1,1.8c0-5.4,0-10.7,0-16.1c0-3.8,0-7.6,0-11.4c0-1.7,0.8-5.7,0-7.2c-0.3-0.5-1,0.9-0.3,0.7
				c0.7-0.2,1.7-1.8,2.2-2.2c2.4-2.5,4.9-5,7.3-7.4c4-4,8-8.1,12-12.1c1.9-1.9-1.1-4.9-3-3c-4.2,4.3-8.4,8.5-12.7,12.8
				c-2.5,2.5-5,5.1-7.5,7.6c-1.1,1.1-2,1.8-2.3,3.3c-0.4,1.8,0,4.1,0,6c0,4,0,8,0,12c0,5.7,0,11.4,0,17.1c0,1.6,1.8,2.6,3.1,1.8
				c11.9-6.9,23.8-13.9,35.7-20.8c0.7-0.4,1.3-1.5,1-2.4c-4.6-12.2-9.2-24.3-13.8-36.5C205.4,7.1,201.4,8.2,202.3,10.7z"/>
		</g>
	</g>
	<g>
		<g>
			<path class="st0" d="M245.1,48.3c-8.8-1.2-17.6-2.5-26.3-3.7c0.5,0.5,1,1,1.5,1.5c-4.6-12.2-9.2-24.3-13.8-36.5
				c-1.2,0.7-2.3,1.4-3.5,2C216.2,25,229.6,38.4,243,51.8c1.9,1.9,4.9-1.1,3-3c-13.4-13.4-26.8-26.8-40.2-40.2c-1.4-1.4-4.3,0-3.5,2
				c4.6,12.2,9.2,24.3,13.8,36.5c0.2,0.6,0.7,1.4,1.5,1.5c8.8,1.2,17.6,2.5,26.3,3.7C246.6,52.7,247.7,48.7,245.1,48.3z"/>
		</g>
	</g>
	<g>
		<g>
			<path class="st0" d="M217.2,80.8c-3.5,1-6.9,2.1-10.4,3.1c0.9,0.9,1.7,1.7,2.6,2.6c3.6-13.1,7.2-26.2,10.8-39.3
				c-0.9,0.5-1.7,1-2.6,1.5c8.8,1.2,17.6,2.5,26.3,3.7c-0.3-1.2-0.6-2.3-0.9-3.5c-8.9,10.8-17.8,21.7-26.8,32.5c-1.7,2.1,1.2,5,3,3
				c8.9-10.8,17.8-21.7,26.8-32.5c0.9-1.1,0.8-3.3-0.9-3.5c-8.8-1.2-17.6-2.5-26.3-3.7c-1.1-0.2-2.2,0.3-2.6,1.5
				c-3.6,13.1-7.2,26.2-10.8,39.3c-0.4,1.5,1,3,2.6,2.6c3.5-1,6.9-2.1,10.4-3.1C220.9,84.1,219.8,80.1,217.2,80.8z"/>
		</g>
	</g>
</g>
<g>
	<g>
		<path class="st2" d="M144.5,54c7.3,0,14.7,0,22,0c3.2,0,3.2-5,0-5c-7.3,0-14.7,0-22,0C141.3,49,141.3,54,144.5,54L144.5,54z"/>
	</g>
</g>
<g>
	<g>
		<path class="st2" d="M58,54c7.3,0,14.7,0,22,0c3.2,0,3.2-5,0-5c-7.3,0-14.7,0-22,0C54.8,49,54.8,54,58,54L58,54z"/>
	</g>
</g>
<g>
	<g>
		<path class="st2" d="M157.2,44.3c2.5,3,5,6,7.5,9c2.1,2.5,5.6-1.1,3.5-3.5c-2.5-3-5-6-7.5-9C158.7,38.3,155.2,41.8,157.2,44.3
			L157.2,44.3z"/>
	</g>
</g>
<g>
	<g>
		<path class="st2" d="M160.8,62.3c2.5-3,5-6,7.5-9c2-2.5-1.5-6-3.5-3.5c-2.5,3-5,6-7.5,9C155.2,61.2,158.7,64.7,160.8,62.3
			L160.8,62.3z"/>
	</g>
</g>
<g>
	<g>
		<path class="st2" d="M66.5,40.5c0,7.3,0,14.7,0,22c0,3.2,5,3.2,5,0c0-7.3,0-14.7,0-22C71.5,37.3,66.5,37.3,66.5,40.5L66.5,40.5z"
			/>
	</g>
</g>
</svg>
