<?xml version="1.0" encoding="utf-8"?>
<!-- Generator: Adobe Illustrator 22.0.0, SVG Export Plug-In . SVG Version: 6.00 Build 0)  -->
<svg version="1.1" id="Layer_1" xmlns="http://www.w3.org/2000/svg" xmlns:xlink="http://www.w3.org/1999/xlink" x="0px" y="0px"
	 viewBox="0 0 600 600" style="enable-background:new 0 0 600 600;" xml:space="preserve">
<style type="text/css">
	.st0{fill:#D5C09E;}
	.st1{fill:#906E4E;}
	.st2{fill:#A7A6A6;}
</style>
<rect width="600" height="600"/>
<g>
	<g>
		<path class="st0" d="M200.2,471.8c0,0.2,0,0.6,0,1c0,0.5,0,0.8,0,1c0,2.7-0.2,5.1-0.7,7.4c-0.5,2.3-1.2,4.4-2.2,6.5
			c-2.9,5.8-6.9,10.3-12,13.5c-5,3.2-10.7,4.8-17.1,4.8c-4.7,0-9-0.9-13-2.7c-4-1.8-7.6-4.4-10.7-8c-2.6-3-4.7-6.3-6-10.1
			c-1.4-3.7-2.1-7.7-2.1-11.9c0-4.3,0.8-8.4,2.5-12.3c1.7-3.9,4.1-7.4,7.4-10.6c3.1-3,6.5-5.3,10.2-6.8c3.8-1.5,7.9-2.2,12.5-2.2
			c6.7,0,12.4,1.6,17.3,4.9c4.9,3.3,8.6,8,11.2,14.3h-14.7c-1.8-2.2-3.9-3.9-6.3-5c-2.4-1.1-5.1-1.7-8.2-1.7
			c-5.3,0-9.8,1.9-13.5,5.8c-3.7,3.8-5.5,8.5-5.5,14c0,5.6,1.9,10.3,5.6,14.1c3.7,3.8,8.3,5.7,13.8,5.7c3.8,0,7.2-1,10.3-3.1
			c3.1-2,5.4-4.8,6.8-8.3h-24.4v-10.4H200.2z"/>
		<path class="st0" d="M231.9,504.8h-12.1v-62h14.7c4.7,0,8.2,0.2,10.5,0.5c2.3,0.3,4.2,0.9,5.9,1.6c3.5,1.6,6.2,3.9,8.1,6.9
			c1.8,3,2.8,6.4,2.8,10.4c0,4.8-1.3,8.9-4,12.2c-2.6,3.3-6.2,5.5-10.8,6.4l15.5,24.1h-14.5l-16-28.8V504.8z M231.9,472.9h2.7
			c4.9,0,8.6-0.9,11.2-2.7c2.5-1.8,3.8-4.4,3.8-7.8c0-3.3-1.1-5.7-3.2-7.3c-2.1-1.6-5.5-2.3-10-2.3h-4.5V472.9z"/>
		<path class="st0" d="M281.9,442.7H294v35.8c0,5.6,0.6,9.5,1.8,11.7c1.2,2.2,3.2,3.3,6.1,3.3c2.9,0,4.9-1.1,6.1-3.3
			c1.2-2.2,1.8-6.1,1.8-11.7v-35.8h12.1v39.4c0,4.4-0.2,7.7-0.7,9.8c-0.5,2.2-1.3,4.1-2.4,5.8c-1.9,2.8-4.3,4.9-7,6.3
			c-2.7,1.3-6,2-9.8,2s-7.1-0.7-9.8-2c-2.7-1.3-5.1-3.4-7-6.3c-1.1-1.6-1.9-3.5-2.4-5.5c-0.5-2-0.7-5.4-0.7-10.1V442.7z"/>
		<path class="st0" d="M353.4,504.8h-12.1v-62h15.4c3.9,0,7,0.2,9.3,0.6c2.3,0.4,4.1,1.1,5.5,2c2.6,1.7,4.6,4,6,6.9
			c1.5,2.8,2.2,5.9,2.2,9.1c0,5.9-2,10.7-5.9,14.2c-3.9,3.6-9.2,5.3-15.8,5.3h-4.5V504.8z M353.4,470.5h3.2c3.4,0,6-0.7,7.8-2.2
			c1.8-1.5,2.7-3.6,2.7-6.3c0-2.8-0.9-4.9-2.6-6.3c-1.7-1.4-4.4-2.1-7.9-2.1h-3.1V470.5z"/>
		<path class="st0" d="M399.1,473.6c0-3.4,0.5-6.6,1.4-9.7c0.9-3,2.3-5.9,4-8.5c3.1-4.5,6.9-7.9,11.5-10.3c4.6-2.4,9.7-3.6,15.2-3.6
			c4.1,0,8.1,0.8,11.9,2.4c3.8,1.6,7.2,3.9,10.2,6.9c3.1,3.1,5.5,6.6,7.1,10.4c1.6,3.9,2.4,7.9,2.4,12.2c0,4.4-0.8,8.6-2.3,12.5
			c-1.5,3.9-3.8,7.3-6.7,10.4c-3,3.2-6.5,5.6-10.4,7.3c-4,1.7-8.1,2.5-12.4,2.5c-4.6,0-8.9-0.8-12.8-2.5c-3.9-1.6-7.3-4.1-10.4-7.3
			c-2.9-3.1-5.1-6.5-6.6-10.3S399.1,478,399.1,473.6z M411.9,473.2c0,2.7,0.4,5.2,1.3,7.5s2.2,4.4,3.9,6.3c1.9,2.1,4.1,3.7,6.5,4.8
			c2.4,1.1,4.9,1.7,7.5,1.7c5.4,0,10-1.9,13.7-5.8c3.7-3.9,5.5-8.7,5.5-14.4c0-5.3-1.9-9.8-5.6-13.5c-3.7-3.7-8.2-5.6-13.4-5.6
			c-5.4,0-10,1.9-13.8,5.6C413.8,463.4,411.9,467.9,411.9,473.2z"/>
	</g>
	<g>
		<g>
			<path class="st0" d="M260,145.7c-16.4,9.1-36.2,30.8-45.9,41.9l-13,40.1c-0.3,2.8,0,25.8,0,28.7c0,29.6,27.5,53.9,49.5,69.8
				l45.9-100.1L260,145.7z"/>
			<path class="st0" d="M279.4,162.9l-10.7-20.8c-2,0.5-4.1,1.3-6.4,2.4L279.4,162.9z"/>
		</g>
		<path class="st0" d="M172.8,338.1L144.6,404h68.9l9.1-20.5C202.9,372.2,185.8,356.7,172.8,338.1z"/>
		<path class="st1" d="M349.2,322.6c-14,10-31.1,16-49.5,16c-18.6,0-35.8-6-49.9-16.2c-22-15.9-36.3-42.1-36.3-71.7
			c0-2.8,0.1-5.6,0.4-8.4c1.8-19.2,9.6-36.5,21.5-50.1c11.5-13.2,26.9-22.8,44.3-27L263,127.6l-11.6-26.2
			c-62,20.3-106.8,78.6-106.8,147.4c0,33.2,10.4,64,28.2,89.2c13.1,18.5,30.1,34.1,49.8,45.4c22.7,13,49,20.5,77.1,20.5
			c28.1,0,54.4-7.4,77.1-20.5l-27.1-61L349.2,322.6z"/>
		<path class="st1" d="M348,101.4c-8.2-2.7-16.7-4.7-25.4-6l13.8,32.2l26.3,61.4l28.1-65.6C377.9,114,363.5,106.5,348,101.4z"/>
		<polygon class="st0" points="426.6,338.1 420,322.8 349.7,322.6 376.8,383.5 385.9,404 454.8,404 		"/>
		<path class="st0" d="M386.8,245.4L364,192.1l-27.6-64.5l-13.8-32.2c-7.5-1.1-15.1-1.7-22.9-1.7c-7.8,0-15.4,0.6-22.9,1.7
			c-8.7,1.3-17.2,3.3-25.4,6l11.6,26.2l16.7,37.5l20,45l21.7,48.9l64.1-0.6l6.8-0.1L386.8,245.4z"/>
		<path class="st2" d="M349.2,322.6l0.5,0l-0.1-0.3C349.4,322.4,349.3,322.5,349.2,322.6z"/>
		<path class="st1" d="M392.4,258.3l-6.8,0.1l-64.1,0.6l-6.2,0.1l-27.4,63.3l61.3,0.2c0.1-0.1,0.2-0.2,0.4-0.3l0.1,0.3l70.3,0.3
			L392.4,258.3z"/>
	</g>
</g>
</svg>
