<?xml version="1.0" encoding="utf-8"?>
<!-- Generator: Adobe Illustrator 22.0.0, SVG Export Plug-In . SVG Version: 6.00 Build 0)  -->
<svg version="1.1" id="Layer_1" xmlns="http://www.w3.org/2000/svg" xmlns:xlink="http://www.w3.org/1999/xlink" x="0px" y="0px"
	 viewBox="0 0 600 600" style="enable-background:new 0 0 600 600;" xml:space="preserve">
<style type="text/css">
	.st0{fill:#FFFFFF;}
	.st1{enable-background:new    ;}
	.st2{fill:#1E1C1C;}
	.st3{fill:#404041;}
	.st4{fill:#6D6E70;}
	.st5{fill:#808184;}
	.st6{fill:#58595B;}
</style>
<rect class="st0" width="600" height="600"/>
<g class="st1">
	<path class="st2" d="M122.3,410.1c0,0.3,0,0.7,0,1.2c0,0.5,0,0.9,0,1.2c0,3-0.3,5.8-0.8,8.4c-0.5,2.6-1.4,5-2.5,7.3
		c-3.3,6.6-7.8,11.7-13.6,15.3c-5.7,3.6-12.2,5.4-19.4,5.4c-5.3,0-10.2-1-14.7-3s-8.6-5-12.2-9c-3-3.4-5.3-7.2-6.9-11.4
		c-1.6-4.3-2.4-8.8-2.4-13.5c0-4.9,1-9.5,2.9-13.9c1.9-4.4,4.7-8.4,8.4-12c3.5-3.4,7.4-6,11.6-7.7c4.3-1.7,9-2.5,14.2-2.5
		c7.6,0,14.1,1.9,19.6,5.6s9.8,9.1,12.8,16.2h-16.7c-2-2.5-4.4-4.5-7.2-5.7c-2.8-1.3-5.8-1.9-9.3-1.9c-6,0-11.1,2.2-15.3,6.5
		c-4.2,4.4-6.3,9.6-6.3,15.9c0,6.3,2.1,11.6,6.4,16c4.2,4.3,9.5,6.5,15.6,6.5c4.3,0,8.2-1.2,11.7-3.5c3.5-2.3,6.1-5.4,7.8-9.4H78.3
		v-11.8H122.3z"/>
	<path class="st2" d="M155.4,405.1c-4.8,0.4-8.2,1.6-10.1,3.8c-1.9,2.1-2.9,6-2.9,11.5v27.1h-12.4v-53.2h11.6v6.1
		c1.9-2.4,3.9-4.1,6.1-5.2c2.2-1.1,4.7-1.7,7.5-1.7V405.1z"/>
	<path class="st2" d="M196.8,447.5v-5.8c-1.8,2.4-3.9,4.2-6.2,5.4c-2.3,1.2-5,1.8-8,1.8c-6.7,0-11.8-2-15.4-6.1s-5.4-10-5.4-17.6
		v-30.8h12.5v23.9c0,7.2,0.8,12.1,2.5,14.7c1.6,2.6,4.5,4,8.5,4c4.1,0,7.1-1.5,8.9-4.4c1.8-3,2.7-8,2.7-15.1v-23.1h12.2v53.2H196.8z
		"/>
	<path class="st2" d="M231.3,443.2v21.5h-12.2v-70.4h12.2v4.4c2.5-2,5.1-3.4,7.8-4.4c2.7-1,5.6-1.4,8.8-1.4c3.4,0,6.5,0.5,9.5,1.6
		c3,1,5.6,2.6,8,4.7c3.2,2.8,5.6,6,7.4,9.8c1.7,3.8,2.6,7.8,2.6,12c0,4-0.8,7.8-2.3,11.4c-1.6,3.6-3.8,6.7-6.6,9.3
		c-2.4,2.3-5.2,4.1-8.4,5.3c-3.1,1.2-6.5,1.8-9.9,1.8c-3.4,0-6.4-0.5-9.1-1.4C236.1,446.6,233.6,445.2,231.3,443.2z M231.7,420.7
		c0,4.5,1.5,8.3,4.4,11.4c2.9,3,6.6,4.6,10.9,4.6c4.3,0,7.9-1.5,10.9-4.6c3-3.1,4.5-6.8,4.5-11.1c0-4.5-1.5-8.2-4.5-11.2
		c-3-3-6.8-4.4-11.5-4.4c-4.1,0-7.5,1.5-10.4,4.5C233.2,412.7,231.7,416.3,231.7,420.7z"/>
	<path class="st2" d="M280.5,420.7c0-3.7,0.7-7.3,2.1-10.7c1.4-3.4,3.4-6.4,6-9c2.7-2.7,5.7-4.7,9-6.2c3.4-1.4,6.8-2.2,10.4-2.2
		c3.8,0,7.4,0.6,10.6,1.9s6.2,3.2,8.9,5.7c2.8,2.7,4.9,5.8,6.4,9.3c1.5,3.5,2.3,7.1,2.3,10.8c0,4.1-0.7,7.8-2,11.1
		c-1.3,3.4-3.3,6.4-5.9,9.1c-2.6,2.7-5.7,4.8-9,6.2c-3.4,1.4-7.1,2.1-11,2.1c-4,0-7.6-0.7-10.9-2.1c-3.3-1.4-6.3-3.5-9-6.4
		c-2.6-2.8-4.5-5.8-5.8-9.2C281.1,427.9,280.5,424.4,280.5,420.7z M293.2,420.6c0,4.9,1.4,8.8,4.1,11.7c2.7,2.9,6.4,4.3,11,4.3
		c4.6,0,8.2-1.5,10.9-4.4s4.1-6.9,4.1-11.9c0-4.5-1.4-8.2-4.3-11c-2.9-2.9-6.4-4.3-10.8-4.3c-4.4,0-8.1,1.5-10.9,4.4
		C294.6,412.2,293.2,416,293.2,420.6z"/>
	<path class="st2" d="M442.4,410.1c0,0.3,0,0.7,0,1.2c0,0.5,0,0.9,0,1.2c0,3-0.3,5.8-0.8,8.4c-0.5,2.6-1.4,5-2.5,7.3
		c-3.3,6.6-7.8,11.7-13.6,15.3s-12.2,5.4-19.4,5.4c-5.3,0-10.2-1-14.7-3c-4.5-2-8.6-5-12.2-9c-3-3.4-5.3-7.2-6.9-11.4
		c-1.6-4.3-2.4-8.8-2.4-13.5c0-4.9,1-9.5,2.9-13.9c1.9-4.4,4.7-8.4,8.4-12c3.5-3.4,7.4-6,11.6-7.7c4.3-1.7,9-2.5,14.2-2.5
		c7.6,0,14.1,1.9,19.6,5.6c5.5,3.7,9.8,9.1,12.8,16.2h-16.7c-2-2.5-4.4-4.5-7.2-5.7c-2.8-1.3-5.8-1.9-9.3-1.9
		c-6,0-11.1,2.2-15.3,6.5c-4.2,4.4-6.3,9.6-6.3,15.9c0,6.3,2.1,11.6,6.4,16c4.2,4.3,9.5,6.5,15.6,6.5c4.3,0,8.2-1.2,11.7-3.5
		c3.5-2.3,6.1-5.4,7.8-9.4h-27.7v-11.8H442.4z"/>
	<path class="st2" d="M444.1,394.3h13.1l13,37.1l14.3-37.1h13l-28.7,70.4h-12.8l7.4-18.7L444.1,394.3z"/>
	<path class="st2" d="M512,432.7l-5.5,14.7h-14.3l27.3-70.4h11.9l26.9,70.4h-14.7l-5.6-14.7H512z M533.6,419.7l-8.3-22.7l-8.5,22.7
		H533.6z"/>
</g>
<g>
	<polygon class="st3" points="241,305.3 344.5,241.4 312.3,358.5 282.5,349.5 	"/>
</g>
<g>
	<polygon class="st4" points="303.7,141 341.6,243.4 241,305.3 241,204.5 	"/>
</g>
<g>
	<polygon class="st5" points="418.9,256.2 340,248.1 303.7,141 	"/>
</g>
<g>
	<polygon class="st6" points="342.1,349.5 312.3,358.5 338.9,245 418.9,256.2 	"/>
</g>
</svg>
