<?xml version="1.0" encoding="utf-8"?>
<!-- Generator: Adobe Illustrator 22.0.0, SVG Export Plug-In . SVG Version: 6.00 Build 0)  -->
<svg version="1.1" id="Layer_1" xmlns="http://www.w3.org/2000/svg" xmlns:xlink="http://www.w3.org/1999/xlink" x="0px" y="0px"
	 viewBox="0 0 600 600" style="enable-background:new 0 0 600 600;" xml:space="preserve">
<style type="text/css">
	.st0{fill:#FFFFFF;}
	.st1{fill:#828B8D;}
</style>
<rect width="600" height="600"/>
<g>
	<path class="st0" d="M291.5,272.6c-3.2,0.4-7.5,1-12.8,1.9c-5.4,0.9-9.7,2.1-13,3.7c-4,2-6.8,4.8-8.4,8.4c-1.7,3.6,28.8,77,29,80.6
		c-17.6,8-35.2,14.1-52.7,18.3c-17.5,4.2-34.7,6.4-51.5,6.4c-18,0-35.4-3.4-52.1-10.1c-16.7-6.8-31.3-16.4-43.7-28.8
		c-12.6-12.6-22.6-27.9-30-46c-7.4-18-11.1-38.2-11.1-60.5c0-21.5,3.5-41.4,10.6-59.8s17.1-34.3,30.1-47.9
		c12.6-13.3,27.6-23.6,45-30.9c17.4-7.4,36.1-11,56-11c15.9,0,29.8,1.9,41.6,5.8c11.8,3.8,22.2,8.5,31.2,13.9l8.2-13.5h15.9
		l1.8,98.6h-16.3c-2.8-10.9-6.2-21.6-10.4-32.1c-4.1-10.5-9.4-20-15.9-28.3c-6.5-8.4-14.4-15-23.8-20c-9.4-5-20.5-7.5-33.5-7.5
		c-14.2,0-26.9,2.9-38,8.7c-11.1,5.8-20.8,14.4-29.1,25.8c-8.1,11-14.3,24.7-18.7,41.2c-4.4,16.4-6.6,34.8-6.6,55.1
		c0,17.9,2.2,34.8,6.5,50.6c4.3,15.9,10.6,29.5,18.8,41.1c8.2,11.8,18.5,21.1,30.9,27.9c12.3,6.8,44,10.1,44,10.1
		c11.7,0,36-1.9,45.6-5.5c9.6-3.6,21.1-7.2,25-11.2c1.1-6.9-29.5-64.8-31-69.1c-1.5-4.3-4.7-7.5-9.4-9.4c-4.4-2-10.3-3.5-17.8-4.5
		s-13.4-1.6-17.6-1.9v-14.5h103.3v14.4H291.5z"/>
</g>
<path class="st0" d="M541.5,370.2c-5-1.3-9-2.9-12.1-4.7c-4.6-3.1-8.1-6.2-10.7-9.5c-2.6-3.2-4.8-7.4-6.8-12.7L416.7,96.9h-16.1
	c-13.6,34.9-29,74.7-46.3,119.4l-38.5,113.4c-0.1,0.3-0.2,0.5-0.3,0.8c0,0-19.1,50.2-35.8,86.3l0,0l-0.4,0.8
	c-3.2,6.8-6.3,13.1-9.1,18.4l-9,18.2c-8.5,14.2-15.9,23-22,26.4c-1.2-2.1-2.9-4.8-5-8s-4.1-5.8-5.9-7.6c-2.2-2.4-4.7-4.3-7.6-5.8
	c-2.8-1.5-6.2-2.2-10.1-2.2c-5,0-9.2,2-12.6,5.9c-3.4,3.9-5.1,9-5.1,15.3c0,6,2.7,11.3,8.2,15.9s13,6.9,22.6,6.9
	c4.9,0,9.7-0.9,14.3-2.7c4.6-1.8,9.7-5.3,15.4-10.6c5.8-5.6,11.7-13.3,17.8-23.2c6.1-9.8,13-23.5,20.7-41c3.9-9,9.1-21.3,15.5-37
	h59.8v-14.3c-10.6-0.5-20.1-2.3-28.6-5.2c-8.5-3-12.7-7.1-12.7-12.5c0-2.3,0.3-5.2,1-8.9s1.9-8.3,3.6-14.1c1.1-3.6,2.4-7.4,3.7-11.4
	c4.3-10.5,8.8-21.3,13.5-32.5h98.6l23.7,64c0.5,1.3,0.9,2.9,1.2,4.6c0.3,1.7,0.4,3.2,0.4,4.4c0,3-3.5,5.4-10.4,7.4s-15.6,3.4-26.1,4
	v14.3H554V372C550.6,372.1,546.5,371.4,541.5,370.2z M353.1,269.8l42.7-110.9l43.3,110.9H353.1z"/>
<g>
	<path class="st1" d="M361.4,444c-0.5,0.1-1.1,0.2-1.9,0.3c-0.8,0.1-1.4,0.3-1.9,0.6c-0.6,0.3-1,0.7-1.2,1.3
		c-0.2,0.6-0.4,1.2-0.4,1.9v3.3c0,2.4,0,4,0,4.9s0.1,1.5,0.1,2.1c-2.6,1.2-5.2,2.1-7.8,2.8c-2.6,0.6-5.1,1-7.6,1
		c-2.7,0-5.2-0.5-7.7-1.5s-4.6-2.5-6.5-4.4s-3.3-4.2-4.4-7c-1.1-2.7-1.6-5.8-1.6-9.2c0-3.3,0.5-6.3,1.6-9.1c1-2.8,2.5-5.2,4.5-7.2
		c1.9-2,4.1-3.6,6.7-4.7s5.3-1.7,8.3-1.7c2.4,0,4.4,0.3,6.2,0.9c1.7,0.6,3.3,1.3,4.6,2.1l1.2-2h2.4l0.3,14.9h-2.4
		c-0.4-1.6-0.9-3.3-1.5-4.9s-1.4-3-2.4-4.3s-2.1-2.3-3.5-3c-1.4-0.8-3-1.1-5-1.1c-2.1,0-4,0.4-5.6,1.3c-1.7,0.9-3.1,2.2-4.3,3.9
		c-1.2,1.7-2.1,3.7-2.8,6.2c-0.6,2.5-1,5.3-1,8.3c0,2.7,0.3,5.3,1,7.7s1.6,4.5,2.8,6.2c1.2,1.8,2.7,3.2,4.6,4.2
		c1.8,1,3.9,1.5,6.2,1.5c1.7,0,3.3-0.3,4.7-0.8c1.4-0.5,2.4-1.1,3-1.7c0.2-1,0.2-2.1,0.3-3.2c0-1.1,0-2,0-2.7v-2.3
		c0-0.8-0.1-1.6-0.3-2.2s-0.7-1.1-1.4-1.4c-0.6-0.3-1.5-0.5-2.6-0.7c-1.1-0.1-2-0.2-2.6-0.3v-2.2h18.3v2.2H361.4z"/>
	<path class="st1" d="M410.7,461.1h-11.2c-2.5-4-4.7-7.4-6.8-10.4c-2-2.9-4.2-5.9-6.5-9h-4.3v13.5c0,0.7,0.1,1.3,0.3,1.9
		c0.2,0.5,0.7,0.9,1.4,1.2c0.4,0.1,1,0.3,1.9,0.4s1.6,0.2,2.2,0.2v2.1H370v-2c0.5,0,1.2-0.1,2-0.2c0.9-0.1,1.5-0.2,1.9-0.4
		c0.6-0.3,1-0.6,1.3-1.1s0.4-1.1,0.4-1.9v-30.9c0-0.7-0.1-1.3-0.3-1.9c-0.2-0.5-0.7-1-1.4-1.2c-0.5-0.2-1.1-0.3-1.9-0.5
		c-0.8-0.1-1.5-0.2-2-0.3v-2.1h19.3c1.8,0,3.4,0.2,5,0.6c1.5,0.4,3,1,4.2,1.8s2.2,1.9,2.9,3.1c0.7,1.3,1.1,2.9,1.1,4.7
		c0,1.6-0.2,3.1-0.7,4.4s-1.2,2.4-2.2,3.3c-0.9,0.9-1.9,1.6-3.2,2.2c-1.2,0.6-2.6,1.2-4.1,1.6c2.1,2.8,3.8,5.1,5.1,7
		c1.4,1.9,3,4.2,5,7c0.9,1.2,1.6,2.1,2.3,2.7c0.7,0.6,1.4,1,2.1,1.4c0.5,0.3,1.1,0.5,1.9,0.6s1.4,0.2,1.9,0.2v2H410.7z M395.2,429.3
		c0-2.6-0.7-4.6-2.2-6.1s-3.5-2.3-6.2-2.3h-5v18.3h3.9c2.7,0,5-0.9,6.8-2.7C394.3,434.7,395.2,432.3,395.2,429.3z"/>
	<path class="st1" d="M459.8,420.5c-0.5,0-1.4,0.1-2.4,0.4c-1.1,0.2-1.9,0.6-2.6,1c-0.7,0.5-1.1,1.4-1.4,2.9
		c-0.3,1.4-0.4,3.2-0.4,5.3v18.6c0,2.4-0.5,4.4-1.4,6.2c-1,1.7-2.2,3.2-3.8,4.3c-1.5,1.1-3.2,1.9-4.9,2.3c-1.7,0.5-3.4,0.7-4.9,0.7
		c-2.5,0-4.7-0.3-6.7-1s-3.6-1.6-4.9-2.7s-2.3-2.5-3-3.9c-0.7-1.5-1-3-1-4.6v-25.3c0-0.7-0.1-1.3-0.3-1.8c-0.2-0.5-0.7-0.9-1.4-1.3
		c-0.5-0.3-1.1-0.5-1.9-0.7s-1.4-0.3-1.9-0.3v-2.1h17.4v2.1c-0.5,0-1.2,0.1-2.1,0.3c-0.8,0.2-1.4,0.3-1.8,0.5
		c-0.7,0.2-1.1,0.6-1.3,1.2c-0.2,0.6-0.3,1.2-0.3,1.8V448c0,1.1,0.1,2.3,0.4,3.6c0.2,1.3,0.7,2.4,1.5,3.5s1.8,2,3.1,2.7
		c1.3,0.7,3.1,1.1,5.4,1.1c2.2,0,4-0.4,5.4-1.1c1.5-0.7,2.6-1.6,3.5-2.8c0.8-1.1,1.4-2.2,1.7-3.4c0.3-1.2,0.5-2.4,0.5-3.6v-17.5
		c0-2.2-0.2-4-0.5-5.5c-0.3-1.4-0.8-2.3-1.4-2.8c-0.7-0.5-1.6-0.9-2.8-1.2c-1.2-0.3-2.1-0.4-2.7-0.5v-2.1H460v2.1H459.8z"/>
	<path class="st1" d="M500.5,428.9c0,2.2-0.4,4.2-1.3,5.9c-0.9,1.7-2,3.1-3.5,4.3c-1.5,1.1-3.1,1.9-4.9,2.5
		c-1.8,0.5-3.7,0.8-5.7,0.8h-4.7v12.9c0,0.7,0.1,1.3,0.3,1.9c0.2,0.5,0.7,0.9,1.4,1.2c0.4,0.1,1,0.3,1.9,0.4s1.7,0.2,2.5,0.2v2.1
		h-17.9V459c0.5,0,1.2-0.1,2-0.2c0.9-0.1,1.5-0.2,1.9-0.4c0.6-0.3,1-0.6,1.3-1.1s0.4-1.1,0.4-1.9v-30.8c0-0.7-0.1-1.3-0.3-1.9
		c-0.2-0.6-0.7-1-1.4-1.3c-0.7-0.3-1.5-0.4-2.2-0.6c-0.7-0.1-1.4-0.2-1.9-0.2v-2.1h19.1c3.9,0,7,1,9.5,2.9
		C499.3,423.2,500.5,425.7,500.5,428.9z M491.5,436.2c0.7-1,1.1-2,1.3-3c0.2-1,0.3-2,0.3-2.8c0-1.1-0.1-2.3-0.4-3.5
		s-0.7-2.2-1.4-3.1c-0.7-0.9-1.6-1.7-2.7-2.2s-2.5-0.8-4.2-0.8h-4.1v18.9h3c2.1,0,3.8-0.3,5.2-1S490.9,437.2,491.5,436.2z"/>
	<path class="st1" d="M544.3,423.4c1.8,2,3.3,4.3,4.3,7.1c1,2.8,1.6,5.9,1.6,9.2c0,3.4-0.5,6.5-1.6,9.2c-1.1,2.8-2.5,5.1-4.4,7.1
		c-1.8,1.9-3.9,3.4-6.4,4.5c-2.4,1-5,1.6-7.7,1.6c-2.9,0-5.6-0.6-8.1-1.7s-4.6-2.7-6.3-4.7c-1.8-1.9-3.2-4.3-4.2-7.1
		c-1-2.8-1.5-5.8-1.5-8.9c0-3.5,0.5-6.6,1.6-9.3c1.1-2.7,2.5-5.1,4.4-7.1c1.8-2,4-3.5,6.4-4.5s5-1.6,7.7-1.6c2.8,0,5.4,0.5,7.8,1.6
		C540.4,420,542.5,421.5,544.3,423.4z M539.9,453.7c1.1-1.8,1.9-3.9,2.4-6.2c0.5-2.3,0.7-4.9,0.7-7.7c0-2.9-0.3-5.6-0.8-8.1
		c-0.6-2.4-1.4-4.5-2.5-6.3c-1.1-1.7-2.4-3-4.1-4c-1.6-1-3.5-1.4-5.6-1.4c-2.4,0-4.4,0.6-6,1.7s-3,2.6-4,4.4s-1.7,3.8-2.2,6.2
		c-0.5,2.4-0.7,4.9-0.7,7.5c0,2.9,0.3,5.5,0.8,7.8s1.3,4.4,2.4,6.2c1.1,1.8,2.4,3.1,4,4.1s3.5,1.5,5.8,1.5c2.1,0,4-0.5,5.7-1.5
		C537.5,456.9,538.9,455.5,539.9,453.7z"/>
</g>
</svg>
