<?xml version="1.0" encoding="utf-8"?>
<!-- Generator: Adobe Illustrator 22.0.0, SVG Export Plug-In . SVG Version: 6.00 Build 0)  -->
<svg version="1.1" id="Layer_1" xmlns="http://www.w3.org/2000/svg" xmlns:xlink="http://www.w3.org/1999/xlink" x="0px" y="0px"
	 viewBox="0 0 600 600" style="enable-background:new 0 0 600 600;" xml:space="preserve">
<style type="text/css">
	.st0{fill:#FFFDFD;}
	.st1{enable-background:new    ;}
	.st2{fill:#FFFFFF;}
</style>
<rect width="600" height="600"/>
<g>
	<g>
		<g>
			<path class="st0" d="M250.9,316.4c25.6-14.9,51.2-29.8,76.8-44.7c3.7-2.2,7.4-4.3,11.1-6.5c-2.5-1.9-5-3.9-7.6-5.8
				c-7.8,28.2-15.5,56.5-23.3,84.7c-1.1,4.1-2.2,8.1-3.4,12.2c2.1-1.2,4.2-2.4,6.3-3.6c-7-2.1-14-4.2-21.1-6.3
				c-1.1-0.3-2.7-1.1-3.9-1.2c-1.9,0,2,2.3,1.2,0.7c-1-1.9-3.5-3.8-5-5.4c-10-10.7-20.1-21.4-30.1-32.2c-4.5-4.8-11.8,2.4-7.3,7.3
				c10.3,11,20.6,22,30.9,33c1.5,1.6,2.9,3.4,4.5,4.9c1.8,1.5,4,2,6.2,2.6c7.3,2.2,14.5,4.4,21.8,6.5c2.7,0.8,5.6-1,6.3-3.6
				c7.8-28.2,15.5-56.5,23.3-84.7c1.1-4.1,2.2-8.1,3.4-12.2c1.2-4.3-3.7-8.1-7.6-5.8c-25.6,14.9-51.2,29.8-76.8,44.7
				c-3.7,2.2-7.4,4.3-11.1,6.5C239.9,310.8,245.1,319.7,250.9,316.4z"/>
		</g>
	</g>
	<g>
		<g>
			<path class="st0" d="M297.1,172.3c9.9,26.2,19.9,52.4,29.8,78.6c1.4,3.7,2.8,7.5,4.2,11.2c0.8-1.9,1.6-3.9,2.4-5.8
				c-25.6,14.9-51.2,29.8-76.8,44.7c-3.7,2.2-7.4,4.3-11.1,6.5c2.6,1.5,5.2,3,7.7,4.4c0-25.2,0-50.3,0-75.5c0-3.7,0-7.3,0-11
				c-0.5,1.2-1,2.4-1.5,3.6c17.9-18.2,35.9-36.3,53.8-54.5c4.7-4.7-2.6-12-7.3-7.3c-16.7,17-33.5,33.9-50.2,50.9
				c-2.2,2.2-4.7,4.1-5,7.4c-0.3,3.1,0,6.4,0,9.5c0,14.5,0,29,0,43.5c0,11.1,0,22.2,0,33.4c0,3.9,4.4,6.4,7.7,4.4
				c25.6-14.9,51.2-29.8,76.8-44.7c3.7-2.2,7.4-4.3,11.1-6.5c1.8-1.1,3.2-3.7,2.4-5.8c-9.9-26.2-19.9-52.4-29.8-78.6
				c-1.4-3.7-2.8-7.5-4.2-11.2C304.7,163.4,294.7,166.1,297.1,172.3z"/>
		</g>
	</g>
	<g>
		<g>
			<path class="st0" d="M402.3,264.9c-21.6-3-43.2-6.1-64.9-9.1c1.2,1.2,2.4,2.4,3.6,3.6c-9.9-26.2-19.9-52.4-29.8-78.6
				c-1.4-3.7-2.8-7.5-4.2-11.2c-2.9,1.7-5.7,3.3-8.6,5c28.9,28.9,57.8,57.8,86.8,86.8c4.1,4.1,8.1,8.1,12.2,12.2
				c4.7,4.7,12-2.6,7.3-7.3c-28.9-28.9-57.8-57.8-86.8-86.8c-4.1-4.1-8.1-8.1-12.2-12.2c-3.4-3.4-10.5,0-8.6,5
				c9.9,26.2,19.9,52.4,29.8,78.6c1.4,3.7,2.8,7.5,4.2,11.2c0.6,1.5,1.8,3.3,3.6,3.6c21.6,3,43.2,6.1,64.9,9.1
				C406.1,275.7,408.9,265.8,402.3,264.9z"/>
		</g>
	</g>
	<g>
		<g>
			<path class="st0" d="M333.7,344.9c-8.5,2.6-17.1,5.1-25.6,7.7c2.1,2.1,4.2,4.2,6.3,6.3c7.8-28.2,15.5-56.5,23.3-84.7
				c1.1-4.1,2.2-8.1,3.4-12.2c-2.1,1.2-4.2,2.4-6.3,3.6c21.6,3,43.2,6.1,64.9,9.1c-0.8-2.9-1.5-5.7-2.3-8.6
				c-19.2,23.3-38.4,46.7-57.6,70c-2.7,3.3-5.5,6.7-8.2,10c-4.2,5.1,3.1,12.4,7.3,7.3c19.2-23.3,38.4-46.7,57.6-70
				c2.7-3.3,5.5-6.7,8.2-10c2.1-2.6,2-8-2.3-8.6c-21.6-3-43.2-6.1-64.9-9.1c-2.8-0.4-5.5,0.6-6.3,3.6c-7.8,28.2-15.5,56.5-23.3,84.7
				c-1.1,4.1-2.2,8.1-3.4,12.2c-1,3.7,2.5,7.5,6.3,6.3c8.5-2.6,17.1-5.1,25.6-7.7C342.8,353,340.1,343,333.7,344.9z"/>
		</g>
	</g>
</g>
<g>
	<g class="st1">
		<path class="st2" d="M116.9,406.4c0,0.3,0,0.7,0,1.2c0,0.5,0,0.9,0,1.2c0,3-0.3,5.8-0.8,8.4c-0.5,2.6-1.4,5-2.5,7.3
			c-3.3,6.6-7.8,11.7-13.6,15.3c-5.7,3.6-12.2,5.4-19.4,5.4c-5.3,0-10.2-1-14.7-3s-8.6-5-12.2-9c-3-3.4-5.3-7.2-6.9-11.4
			c-1.6-4.3-2.4-8.8-2.4-13.5c0-4.9,1-9.5,2.9-13.9c1.9-4.4,4.7-8.4,8.4-12c3.5-3.4,7.4-6,11.6-7.7c4.3-1.7,9-2.5,14.2-2.5
			c7.6,0,14.1,1.9,19.6,5.6s9.8,9.1,12.8,16.2H97.3c-2-2.5-4.4-4.5-7.2-5.7c-2.8-1.3-5.8-1.9-9.3-1.9c-6,0-11.1,2.2-15.3,6.5
			c-4.2,4.4-6.3,9.6-6.3,15.9c0,6.3,2.1,11.6,6.4,16c4.2,4.3,9.5,6.5,15.6,6.5c4.3,0,8.2-1.2,11.7-3.5c3.5-2.3,6.1-5.4,7.8-9.4H73
			v-11.8H116.9z"/>
		<path class="st2" d="M150.1,401.4c-4.8,0.4-8.2,1.6-10.1,3.8c-1.9,2.1-2.9,6-2.9,11.5v27.1h-12.4v-53.2h11.6v6.1
			c1.9-2.4,3.9-4.1,6.1-5.2c2.2-1.1,4.7-1.7,7.5-1.7V401.4z"/>
		<path class="st2" d="M191.4,443.8v-5.8c-1.8,2.4-3.9,4.2-6.2,5.4c-2.3,1.2-5,1.8-8,1.8c-6.7,0-11.8-2-15.4-6.1s-5.4-10-5.4-17.6
			v-30.8H169v23.9c0,7.2,0.8,12.1,2.5,14.7c1.6,2.6,4.5,4,8.5,4c4.1,0,7.1-1.5,8.9-4.4c1.8-3,2.7-8,2.7-15.1v-23.1h12.2v53.2H191.4z
			"/>
		<path class="st2" d="M225.9,439.6V461h-12.2v-70.4h12.2v4.4c2.5-2,5.1-3.4,7.8-4.4c2.7-1,5.6-1.4,8.8-1.4c3.4,0,6.5,0.5,9.5,1.6
			c3,1,5.6,2.6,8,4.7c3.2,2.8,5.6,6,7.4,9.8c1.7,3.8,2.6,7.8,2.6,12c0,4-0.8,7.8-2.3,11.4c-1.6,3.6-3.8,6.7-6.6,9.3
			c-2.4,2.3-5.2,4.1-8.4,5.3c-3.1,1.2-6.5,1.8-9.9,1.8c-3.4,0-6.4-0.5-9.1-1.4C230.7,442.9,228.2,441.5,225.9,439.6z M226.4,417
			c0,4.5,1.5,8.3,4.4,11.4c2.9,3,6.6,4.6,10.9,4.6c4.3,0,7.9-1.5,10.9-4.6c3-3.1,4.5-6.8,4.5-11.1c0-4.5-1.5-8.2-4.5-11.2
			c-3-3-6.8-4.4-11.5-4.4c-4.1,0-7.5,1.5-10.4,4.5C227.8,409,226.4,412.7,226.4,417z"/>
		<path class="st2" d="M275.1,417c0-3.7,0.7-7.3,2.1-10.7c1.4-3.4,3.4-6.4,6-9c2.7-2.7,5.7-4.7,9-6.2c3.4-1.4,6.8-2.2,10.4-2.2
			c3.8,0,7.4,0.6,10.6,1.9s6.2,3.2,8.9,5.7c2.8,2.7,4.9,5.8,6.4,9.3c1.5,3.5,2.3,7.1,2.3,10.8c0,4.1-0.7,7.8-2,11.1
			c-1.3,3.4-3.3,6.4-5.9,9.1c-2.6,2.7-5.7,4.8-9,6.2c-3.4,1.4-7.1,2.1-11,2.1c-4,0-7.6-0.7-10.9-2.1c-3.3-1.4-6.3-3.5-9-6.4
			c-2.6-2.8-4.5-5.8-5.8-9.2C275.8,424.2,275.1,420.7,275.1,417z M287.9,416.9c0,4.9,1.4,8.8,4.1,11.7c2.7,2.9,6.4,4.3,11,4.3
			c4.6,0,8.2-1.5,10.9-4.4s4.1-6.9,4.1-11.9c0-4.5-1.4-8.2-4.3-11c-2.9-2.9-6.4-4.3-10.8-4.3c-4.4,0-8.1,1.5-10.9,4.4
			C289.3,408.5,287.9,412.3,287.9,416.9z"/>
		<path class="st2" d="M437.1,406.4c0,0.3,0,0.7,0,1.2c0,0.5,0,0.9,0,1.2c0,3-0.3,5.8-0.8,8.4c-0.5,2.6-1.4,5-2.5,7.3
			c-3.3,6.6-7.8,11.7-13.6,15.3s-12.2,5.4-19.4,5.4c-5.3,0-10.2-1-14.7-3c-4.5-2-8.6-5-12.2-9c-3-3.4-5.3-7.2-6.9-11.4
			c-1.6-4.3-2.4-8.8-2.4-13.5c0-4.9,1-9.5,2.9-13.9c1.9-4.4,4.7-8.4,8.4-12c3.5-3.4,7.4-6,11.6-7.7c4.3-1.7,9-2.5,14.2-2.5
			c7.6,0,14.1,1.9,19.6,5.6c5.5,3.7,9.8,9.1,12.8,16.2h-16.7c-2-2.5-4.4-4.5-7.2-5.7c-2.8-1.3-5.8-1.9-9.3-1.9
			c-6,0-11.1,2.2-15.3,6.5c-4.2,4.4-6.3,9.6-6.3,15.9c0,6.3,2.1,11.6,6.4,16c4.2,4.3,9.5,6.5,15.6,6.5c4.3,0,8.2-1.2,11.7-3.5
			c3.5-2.3,6.1-5.4,7.8-9.4h-27.7v-11.8H437.1z"/>
		<path class="st2" d="M438.8,390.6h13.1l13,37.1l14.3-37.1h13L463.3,461h-12.8l7.4-18.7L438.8,390.6z"/>
		<path class="st2" d="M506.7,429.1l-5.5,14.7h-14.3l27.3-70.4h11.9l26.9,70.4h-14.7l-5.6-14.7H506.7z M528.2,416l-8.3-22.7
			l-8.5,22.7H528.2z"/>
	</g>
</g>
</svg>
