<?xml version="1.0" encoding="utf-8"?>
<!-- Generator: Adobe Illustrator 22.0.0, SVG Export Plug-In . SVG Version: 6.00 Build 0)  -->
<svg version="1.1" id="Layer_1" xmlns="http://www.w3.org/2000/svg" xmlns:xlink="http://www.w3.org/1999/xlink" x="0px" y="0px"
	 viewBox="0 0 300 300" style="enable-background:new 0 0 300 300;" xml:space="preserve">
<style type="text/css">
	.st0{fill:#3D838E;}
	.st1{fill:#6EC7DC;}
	.st2{fill:#004587;}
</style>
<g>
	<circle class="st0" cx="152" cy="152" r="111"/>
	<circle class="st1" cx="148" cy="148" r="111"/>
	<g>
		<path class="st2" d="M207.6,172.9c-0.5-7-8-9.3-8-9.3l-23.3-7.9l-9.9-3.7c-7.6,5.1-15.9,7-18.6,7.5c-2.7-0.5-11.1-2.4-18.6-7.5
			l-9.9,3.7l-23.3,7.9c0,0-7.5,2.2-7.9,9.3L80.8,213h66.2h1.9H215L207.6,172.9z"/>
		<path class="st2" d="M183.3,99.8c-0.5,24.1-16.7,43.2-36.3,42.9c-19.6-0.4-35.1-20.2-34.7-44.2c0.4-24.1,16.7-43.2,36.3-42.9
			C168.3,55.9,183.8,75.7,183.3,99.8z"/>
	</g>
</g>
</svg>
