<?xml version="1.0" encoding="utf-8"?>
<!-- Generator: Adobe Illustrator 22.0.0, SVG Export Plug-In . SVG Version: 6.00 Build 0)  -->
<svg version="1.1" id="Layer_1" xmlns="http://www.w3.org/2000/svg" xmlns:xlink="http://www.w3.org/1999/xlink" x="0px" y="0px"
	 viewBox="0 0 600 600" style="enable-background:new 0 0 600 600;" xml:space="preserve">
<style type="text/css">
	.st0{fill:#FFFFFF;}
</style>
<g>
	<rect x="387.4" y="259.2" class="st0" width="8.8" height="60.3"/>
	<path class="st0" d="M291.4,266.9c-12,0-21.4,10.1-21.4,22.7c0,12.4,9.6,22.2,21.8,22.2c12.1,0,21.7-9.8,21.7-22.2
		C313.5,276.5,304,266.9,291.4,266.9z M291.8,258.7c17.1,0,30.6,13.6,30.6,30.8c0,16.8-13.8,30.5-30.6,30.5
		c-16.9,0-30.7-13.7-30.7-30.5C261,272.3,274.6,258.7,291.8,258.7z"/>
	<path class="st0" d="M106.3,266.1c-5.5,0-10.3,3.8-9.6,9.5c0.3,2.4,1.5,3.9,3.9,5.5c0.7,0.4,2,0.9,3.7,1.6c1.7,0.6,3.9,1.3,6,2.1
		c4.3,1.5,8.7,3.3,10.6,5c3.2,3,5.1,6.9,5.1,11.5c0,11.4-9.2,19-20,19c-10.9,0-20-7.5-20.3-18.5h8.5c1.1,7.5,5.8,10.9,11.8,10.9
		c5.5,0,11.2-3.5,11.2-10c0-3.5-1.7-6.1-4.9-7.9c-0.8-0.4-2-0.9-3.5-1.5c-1.5-0.5-3.1-1-4.7-1.6c-3.4-1.1-6.9-2.3-9.1-3.6
		c-4.3-2.6-7.1-7.1-7.1-12.2c0-10.1,7.7-17.6,18.7-17.6c8.6,0,17.5,6.7,18,16.4H116C115.6,269.6,111.1,266.1,106.3,266.1z"/>
	<path class="st0" d="M343,259.3h28.5v8.1h-25.5v19.5h25.5v8.1h-25.5v24.6h-8.8v-54.4C337.1,261.8,339.8,259.3,343,259.3z"/>
	<path class="st0" d="M208.6,273.3l-0.1,46.2h-8.8v-54.7c0-3.4,2.7-6.1,6.1-6.1c2.2,0,4,0.9,5.2,2.9c8.7,14.1,24.8,40.9,26.5,43.8
		l0.1-46.2h8.8v54.7c0,3.4-2.7,6.1-6.1,6.1c-2.2,0-4-0.9-5.2-2.9C226.4,302.9,210.4,276.2,208.6,273.3z"/>
	<path class="st0" d="M160.2,270.3l-8.9,24.3H169L160.2,270.3z M148.4,302.5l-6.2,17H133l21.7-57c0.8-2.2,3.1-3.8,5.5-3.8
		s4.7,1.6,5.5,3.8l21.7,57h-9.2l-6.2-17H148.4z"/>
	<path class="st0" d="M517.3,275.4c-14.9-21.9-31.6-2.7-48.4-5c-16.6-2.3-17.2-25.2,3.3-27.1c0.5-0.1,1-0.1,1.5-0.1
		C494.1,243.3,511.4,256.8,517.3,275.4z"/>
	<path class="st0" d="M517.6,276.7c1.2,4,1.7,8.3,1.7,12.7c0,25.5-20.7,46.2-46.2,46.2c-11.2,0-21.5-4-29.5-10.6
		c3.1,1.2,6.9,1.7,10.1,1.8C495.6,327,477.7,271.3,517.6,276.7z"/>
	<path class="st0" d="M456.2,321.2c-5.8,3.6-15,2.5-21.4-6.3c-1.4-2-2.6-3.9-3.6-5.9c-2.8-6-4.4-12.6-4.4-19.7
		c0-1.9,0.1-3.7,0.4-5.5c10.1,13.6,21.7,13.2,29.1,17.6c3.3,2,5.5,5.7,5.5,9.8C461.8,315.4,459.5,319.1,456.2,321.2z"/>
</g>
</svg>
