<?xml version="1.0" encoding="utf-8"?>
<!-- Generator: Adobe Illustrator 22.0.0, SVG Export Plug-In . SVG Version: 6.00 Build 0)  -->
<svg version="1.1" id="Layer_1" xmlns="http://www.w3.org/2000/svg" xmlns:xlink="http://www.w3.org/1999/xlink" x="0px" y="0px"
	 viewBox="0 0 600 600" style="enable-background:new 0 0 600 600;" xml:space="preserve">
<style type="text/css">
	.st0{fill:#FFFFFF;}
	.st1{fill:#B6D810;}
	.st2{fill:#FEFEFE;}
	.st3{fill:#FEFDFD;}
</style>
<g>
	<path class="st0" d="M500.8,222H116.9c-20,0-44.5,17-44.5,37l-13.7,82.6c0,20,16.4,36.4,36.4,36.4h389.5c20,0,43.7-22.6,43.7-42.6
		l12.1-67.5C544.5,232.5,520.8,222,500.8,222z M525.6,273l-11.3,55c-3.5,26.5-16.4,34.7-50.2,34.7H100.6
		c-18.8,0-29.8-12.4-27.3-28.1l14.5-70.1c4.8-28.9,30.2-28.9,49.1-28.9h351.6C515.5,235.7,530.8,239,525.6,273z"/>
	<path class="st1" d="M539.3,273c0.3-2.1,0.5-3.1,0.8-5.2C540.5,270,540.9,271.1,539.3,273z"/>
	<path class="st2" d="M539.3,245.6v3.6c0.2,0.6,0.3,1,0.5,1.6C539.4,249.2,539.3,247.3,539.3,245.6z"/>
	<path class="st2" d="M539.3,245.6v-1.1C539.3,244.8,539.3,245.2,539.3,245.6z"/>
	<path class="st3" d="M484.1,290.6c-1.3-2.3-3.4-2.8-5.9-2.3c-2.7,0.6-4.8,2-7,3.5c-2.4,1.8-4.8,3.6-8.3,4.5
		c0.2-2.6,1.6-3.9,2.8-5.5c1.8-2.3,4.2-4.4,5.4-7.2c0.8-1.8,1-3.6-0.4-5.3c-1.4-1.8-3.4-2-5.5-1.5c-4.7,1.1-7.6,5.3-6.9,10.1
		c0.3,2.1,0.7,4.2,0.9,6.3c0.1,1.1,0.1,2.6-0.9,3.1c-1.3,0.6-2.3-0.7-3.1-1.4c-0.6-0.6-1.2-1.3-1.7-2c-1.2-1.6-2.4-3.2-4.3-4.1
		c-3.5-1.4-6.4-0.4-8.9,1.9c-1.8,1.6-3,3.6-1.8,6c1.6,3.1,4.6,3,7.6,2.9c3.1-0.1,6.4,0,10.5,0c-3.1,2.6-6,3.7-8.8,5
		c-2.5,1.1-5.1,2.2-6.9,4.3c-1.6,1.9-3.3,4.1-1.4,6.7c1.9,2.5,4.6,2.2,7.2,1c3.3-1.4,5.1-4.3,6.7-7.4c1.5-2.8,2.8-5.8,5.8-7.6
		c1.6,3.5,0,6.8,0.1,10.2c0.1,4.6,3.4,6.9,7.6,5.2c2.8-1.1,4.9-3.1,5.4-6.3c0.5-3.1-1.8-4.4-3.9-5.8c-2.1-1.4-4.6-2.3-5.5-5.3
		c3.9-0.5,7.6-0.3,11.2-0.1c3.6,0.2,6.7-1,9.2-3.6C484.3,294.5,485.2,292.7,484.1,290.6z"/>
	<g>
		<path class="st3" d="M147.7,275.5c-8.4,2.1-16.2,5-23.3,10.2c-1.8,1.1-3.2,2.8-4.8,4.3c-0.8,1-2,2.5-2.7,3.5
			c-4,6.9-7.7,16.6-4.9,27.3c2.5,9.4,11.3,13.3,20.7,14.9c12.2,2,23.8-1.2,35.4-4.7c1.2-0.3,2.3-0.9,2.6-2.4c0.3-2-3.2-8.4-5.3-9.6
			c-2.8,0.5-5.5,1.8-8.4,1.8c-0.4,0-0.8,0-1.1,0.2c-1.8,0.4-4.5-0.1-6.6-0.5c-3.9-0.9-6.9-3.7-8-7.5v-0.1c-2-7.2,0.1-13.3,5.1-18.6
			c5.7-6,12.7-8.1,20.8-6.1c5.2,1.3,5.6,1.3,8.8-3c0.9-1.2,1.8-2.4,2.7-3.6c1.8-2.3,1.3-3.9-1.4-4.7
			C174.3,276.2,166.1,272.3,147.7,275.5"/>
		<path class="st3" d="M335.7,276.4c-1.7-0.6-3.4-1.1-5.2-1.4c-0.3-0.1-0.7-0.2-1-0.3c-1.4-0.4-12.1-0.8-15.2-0.2
			c-6.6,1.4-12.7,3.7-17.6,8.6c-1.5,3.2-3.7,6.2-3.1,10.1c-0.1,4.7,3.1,7.8,5.6,11c2.1,2.7,5,4.7,7,7.3c1.7,2.2,3.9,4.4,2.4,7.7
			c0.2,1.9-1.1,2.3-2.6,2.6c-3,1-6,0.1-8.9-0.2c-0.9-0.5-1.8-0.6-2.7-0.9c-1.4-0.5-2.7-0.8-3.9-1.6c-1-0.4-2-1-3.1-0.4
			c-0.4,0.9-0.8,1.8-1.2,2.7c-0.4,1-0.6,2.1-1.1,3c-0.4,1-1,1.9-1.5,2.9c-0.2,1.4-2,2.5-1,4.3c3.9,2.8,8.4,3.1,12.9,3.6
			c9.9,1,19.8,1.2,29.2-2.7c12.1-4.9,16.1-17.2,6.2-26.5c-1.2-1-8.5-8.8-10.3-12.4c-1.8-3.5-0.5-5.9,3.5-6.4
			c1.8-0.2,3.9-0.2,5.5,0.6c4,2,6.4,0.3,8.8-2.9C342.7,279.1,342.7,278.6,335.7,276.4z"/>
		<path class="st3" d="M291.7,254.4c-4.7-0.7-9.1,0.3-13.6,1.3c-4.8,1.9-9.9,3.5-13.1,8c-0.9,1.9-1.3,4-1.8,6.1
			c-0.2,0.6-13,58.8-13.8,61.1c-0.5,2.5,1,3.2,3,3.2c6.5,0.2,13,0.2,19.5,0c1,0,2-0.3,2.7-1.1c0.9-1,1.1-2.3,1.4-3.5
			c5.2-23.7,10.9-47.4,16.1-71.1C292.6,257.1,293.3,255.5,291.7,254.4z"/>
		<path class="st3" d="M250,275.6c-7.2,0-14.3-0.1-21.5,0.1l-0.2,0.1c-1.3,1-1,2.7-2.3,3.9c-1.4-1.6-3.5-2.3-5-3.7
			c-0.3,0-0.6-0.1-0.9-0.1c-1.8-1-3.8-1.4-5.7-1.8c-1.1-0.2-2.2,0-3.3-0.2c-1.6,0-3.3,0.1-4.9,0.1c-2.6,0.5-5.2,0.6-7.6,2.1
			c-9.1,4.2-16.4,10.3-21.1,19.2c-0.5,1.5-1,3.1-1.7,4.5c-0.1,0.5-0.2,0.9-0.4,1.3c-0.6,1.1-0.8,2.3-0.8,3.6v0.2
			c-1.4,4.2-1.1,8.5-0.8,12.8c-0.2,1.4,0.6,2.8,0.8,4.2c0.1,0.4,0.2,0.8,0.3,1.1c0.9,1.7,1.6,3.5,2.5,5.2c3.5,5,8.2,7.4,14.3,7.6
			c6.8,0.2,13.1-1.7,19.3-4.3c1.7-0.7,3.5-2.6,4.1,1.3c0.2,1.7,2.4,1.4,3.9,1.4c5.2,0.1,10.5,0.1,15.8,0c5.5,0,6.3-0.7,7.6-6.3
			c1.8-8.4,3.8-16.6,5.7-24.9c1.8-7.8,3.6-15.6,5.1-23.5C254,276,253.5,275.6,250,275.6z M204.7,322c-2.2-0.7-3.1-2.5-3.6-4.4
			c-2.9-9,1.8-23.6,9.5-29c5.1-3.7,9.5-3.1,12.3,1.7c2,8.6-3.1,21.6-6,25.2c-1.5,2.5-2.7,5.3-5.7,6.5c-1.7,0.5-4.7,1.1-6.4,0.2"/>
		<path class="st3" d="M419.7,275.6c-7.2,0-14.3-0.1-21.5,0.1l-0.2,0.1c-1.3,1-1,2.7-2.3,3.9c-1.4-1.6-9.6-5.2-11.6-5.5
			c-1.1-0.2-2.2,0-3.3-0.2c-1.6,0-3.3,0.1-4.9,0.1c-2.6,0.5-5.2,0.6-7.6,2.1c-9.1,4.2-16.4,10.3-21.1,19.2c-0.5,1.5-1,3.1-1.7,4.5
			c-0.1,0.5-0.2,0.9-0.4,1.3c-0.6,1.1-0.8,2.3-0.8,3.6v0.2c-1.4,4.2-1.1,8.5-0.8,12.8c-0.2,1.4,0.6,2.8,0.8,4.2
			c0.1,0.4,0.2,0.8,0.3,1.1c0.9,1.7,1.6,3.5,2.5,5.2c3.5,5,8.2,7.4,14.3,7.6c6.8,0.2,13.1-1.7,19.3-4.3c1.7-0.7,3.5-2.6,4.1,1.3
			c0.2,1.7,2.4,1.4,3.9,1.4c5.2,0.1,10.5,0.1,15.8,0c5.5,0,6.3-0.7,7.6-6.3c1.8-8.4,3.8-16.6,5.7-24.9c1.8-7.8,3.6-15.6,5.1-23.5
			C423.7,276,423.1,275.6,419.7,275.6z M380.8,321.9c-1.7,0.5-3.3,0.8-5,0l0,0c-0.2,0.6-0.9,0.4-1.4,0.2c-2.2-0.7-3.1-2.5-3.6-4.4
			c-2.9-9,1.8-23.6,9.5-29c5.1-3.7,9.5-3.1,12.3,1.7C394.5,298,391.3,319.7,380.8,321.9z"/>
	</g>
</g>
</svg>
