<?xml version="1.0" encoding="utf-8"?>
<!-- Generator: Adobe Illustrator 22.0.0, SVG Export Plug-In . SVG Version: 6.00 Build 0)  -->
<svg version="1.1" id="Layer_1" xmlns="http://www.w3.org/2000/svg" xmlns:xlink="http://www.w3.org/1999/xlink" x="0px" y="0px"
	 viewBox="0 0 600 600" style="enable-background:new 0 0 600 600;" xml:space="preserve">
<style type="text/css">
	.st0{fill:#FDFEFF;}
	.st1{fill:#FFFFFF;}
</style>
<g>
	<polygon class="st0" points="225.2,328.9 187.1,328.9 187.1,275.7 223.1,275.7 223.1,286.3 201.9,286.3 201.9,296 223.1,296 
		223.1,307.4 201.9,307.4 201.9,318.3 225.2,318.3 	"/>
	<path class="st0" d="M226.3,314.4v-24H241V314c0,2,0.5,3.5,1.3,4.6c1,1,2.4,1.4,4,1.4c1.2,0,2.7-0.2,3.7-0.8c1-0.5,1.7-1.4,2.2-2.5
		c0.3-1,0.5-2.7,0.5-4.9v-21.3h14.7V329h-14.7v-5.4c-0.8,1.7-1.2,2.5-2.4,3.4c-1.2,1.1-2.5,2-4.3,2.5c-1.9,0.5-3.7,0.5-6.1,0.5
		c-2.9,0-5.1-0.8-7.4-2c-2.2-1.1-4.1-2.7-5.1-4.7C226.6,321.2,226.3,318.1,226.3,314.4L226.3,314.4z"/>
	<path class="st0" d="M314.8,319.6c-1.1-0.7-2-1.9-2.7-3.5c-0.7-1.6-1.1-3.5-1.1-6.2c0-4.1,0.7-7,2-8.6c1.3-1.7,3.2-2.7,5.2-2.7
		s3.5,0.8,4.7,2.4c1.6,1.9,2.4,4.7,2.4,8.6c0,2.7-0.3,4.9-1,6.6c-0.5,1.7-1.6,2.9-2.5,3.5s-2.2,1-3.5,1
		C317.2,320.7,316,320.3,314.8,319.6L314.8,319.6z M302.3,295c-3.9,3.7-5.7,8.6-5.7,14.9c0,4.6,1,8.3,3,11.3c2,3.2,4.7,5.4,8.1,6.8
		s7,2,10.5,2c4.4,0,8.3-1,11.9-2.7c3.4-1.9,5.9-4.3,7.6-7.3c1.6-2.9,2.4-6.5,2.4-10.3c0-6.1-1.9-11.1-5.7-14.9
		c-3.7-3.5-9.1-5.4-16-5.4C311.4,289.4,306.2,291.2,302.3,295L302.3,295z"/>
	<path class="st0" d="M532.5,315c-0.2,1-0.5,1.9-0.8,2.4c-0.7,1-1.5,2.2-2.5,2.5c-1.1,0.5-2.4,0.8-3.5,0.8c-1.7,0-1.7-0.3-2.5-1.1
		c-0.7-0.5-1-1.9-1-3c0-0.8,0-1.9,0.5-2.5c0.7-0.7,0.7-1,2.4-1.7c2.5-0.7,4.4-0.8,5.2-1.1c0.8-0.2,2-0.2,2.5-0.5
		C532.7,313.1,532.7,314.5,532.5,315L532.5,315z M545,328.9v-23.5c0-2.9,0-4.7,0-5.7c0-1.7-0.3-3-1-4.4c-0.7-1-2.2-2.7-3.7-3.7
		c-1.6-0.7-5.4-2.5-7.8-2.7c0,0-12.2-1.7-17.8,1.4c0,0-5.6,2.9-5.6,11.3h13.7c0,0-0.3-6.8,5.9-5.6c0,0,2.9,1.5,2.5,5.1
		c-0.2,1-0.2,2.7-1.1,3.4c-0.7,0.3-2.2,0.7-4.7,1c-4.9,0.5-5.4,0.3-7.9,1c-2.5,0.7-4.5,1.6-5.9,2.5c-1.4,1-2.5,2.4-3.4,3.8
		c-0.7,1.7-1.2,3.4-1.2,5.2c0,3.2,1.2,5.9,3.4,8.3c2.4,2.2,2.7,2.5,7.4,3.4c2.7,0.5,4.9-0.2,7.3-1c2.2-0.8,5.2-2.5,7.3-4.4v4.6
		L545,328.9L545,328.9L545,328.9z"/>
	<path class="st0" d="M434.1,289.7v12.5c-1.6-0.3-1.2,0-2,0c-3,0-5.2,0.8-6.8,2.4c-1.6,1.6-2.9,4.3-2.9,7.9v16.4h-13.8v-38.5h13.7v7
		c1.3-3,2.4-4.6,4.3-5.9C428.5,290.1,431.2,289.7,434.1,289.7L434.1,289.7z"/>
	<path class="st0" d="M297.7,289.7v12.5c-1.6-0.3-1,0-1.9,0c-3,0-5.2,0.8-6.8,2.4c-1.6,1.6-3,4.3-3,7.9v16.4h-13.7v-38.5H286v7
		c1.3-3,2.2-4.6,4.3-5.9c1.9-1.4,4.7-1.7,7.6-1.7H297.7L297.7,289.7z"/>
	<path class="st0" d="M369.9,300.5h-9.2v28.4h-13.5v-28.2h-7.8v-11.1h7.8c0-3.7,0-7.1,0.2-9.3c0.2-1.9,1.6-4.4,2.7-5.6
		c1.4-1.1,3-1.7,4.4-1.9c2.2-0.7,4.3-0.8,8.4-0.8c0.8,0,5.6,0.3,7.6,0.3v9.5c-0.7,0-4.3,0-4.6,0c-2,0-3.4,0.3-4,1
		c-0.7,0.7-1,2-1,4.1v2.7h23.8L369.9,300.5L369.9,300.5z"/>
	<path class="st0" d="M482.5,298c5.4,0.2,5.4,5.4,5.4,5.4v25.5h15.5v-25.8c0,0,0.8-14.7-15.5-14.7c0,0-8.4-0.3-12.7,5.4
		c0,0-5.4-6.5-13.8-5.6c0,0-5.7,0.7-10.1,4.6v-3.4h-14.5v39.5h14.5v-25.5c0,0-0.2-5.4,5.7-5.4h-0.2c5.6,0,5.6,5.4,5.6,5.4v25.5h14.5
		v-25.5C477,303.4,477.1,298,482.5,298L482.5,298z"/>
	<path class="st0" d="M391.2,315c-0.2,1-0.5,1.9-1,2.4c-0.7,1-1.4,2.2-2.5,2.5c-1.1,0.5-2.2,0.8-3.4,0.8c-1.7,0-1.9-0.3-2.5-1.1
		c-0.7-0.5-1.2-1.9-1.2-3c0-0.8,0.2-1.9,0.7-2.5c0.7-0.7,0.8-1,2.4-1.7c2.4-0.7,4.3-0.8,5.2-1.1c0.8-0.2,1.9-0.2,2.4-0.5
		C391.2,313.1,391.2,314.5,391.2,315L391.2,315z M369.4,300.5h19.2c0,0,2.9,0.2,2.9,2c0,1.1-0.3,0.8-1,1.6c-0.7,0.5-2.4,1-4.9,1.4
		c-4.9,0.5-5.4,0.3-7.9,1c-2.5,0.7-4.6,1.6-5.9,2.5c-1.4,1-2.5,2.4-3.4,3.8c-0.7,1.7-1.1,3.4-1.1,5.2c0,3.2,1.1,5.9,3.4,8.3
		c2.4,2.2,2.7,2.5,7.4,3.4c2.9,0.5,4.9-0.2,7.3-1c2.2-0.8,5.2-2.5,7.3-4.4v4.6h12.5h0.2v-23.5c0-2.9,0-4.7,0-5.7
		c0-1.7-0.3-3.7-1.1-5.1c-0.7-1.2-1.3-2.2-2.9-3.2c-1.9-1.4-6.3-1.6-8.6-1.7c0,0-2.9-0.3-7.9-0.2L369.4,300.5L369.4,300.5z"/>
	<g>
		<path class="st1" d="M115,355.4c15.9-6.3,25.4-16.2,31.1-25.8h-12C130.5,338.7,124.7,348.2,115,355.4z"/>
		<path class="st1" d="M154.5,299.3c-0.2-10.1-2.5-18.4-5.7-25.2h-14.5c2.8,7.1,4.7,15.5,4.9,25.2H154.5z"/>
		<path class="st1" d="M154.5,301.9h-15.3c0,3.4-0.3,13.6-4.2,25h12.6C153.4,315.8,154.3,305.5,154.5,301.9z"/>
		<path class="st1" d="M153.4,274.2c3.3,6.8,5.6,15.1,5.8,25.2h7.4c-0.2-9.1-2.5-17.6-6.5-25.2H153.4z"/>
		<path class="st1" d="M121.3,247.9c-1.2-0.7-2.5-1.1-2.5-1.1l-1.4-0.5l-2.5-0.7c0,0,11.2,9.1,18.4,25.9l14.2-0.1
			C139.1,256.8,125.9,250.1,121.3,247.9z"/>
		<path class="st1" d="M150.7,329.6c-5.4,8.9-14.2,18.2-28.5,24.8l-0.3,0.2c-3.7,1.9-10,2.2-10,2.2c9.3-7.9,14.9-17.9,18.1-27.2
			h-15.1v-2.7h16c3.5-11.5,3.8-21.7,3.7-25h-19.6v-2.5h19.6c-0.2-9.5-1.9-18-4.4-25.2h-15.1v-2.5l14.2-0.1
			c-6.7-17.4-17.4-27-17.4-27s3.2-0.2,6.4,0.3c1.4,0.3,3.4,1.1,4.7,1.6c0,0,18.7,5.9,29.3,25.2h6.5c-9.9-16.5-27.9-27.6-48.4-27.6
			c-17.1,0-32.5,7.7-42.9,19.7h44.4V282h-55c-1.1,3-1.9,6.2-2.5,9.5h57.4V310H54.2c0.5,3.1,1.3,6.1,2.3,9h55.1v18.6H67.2
			c10.4,12,25.8,19.7,42.9,19.7c20.6,0,38.7-11.1,48.6-27.6H150.7z"/>
		<path class="st1" d="M160,327.3c4.1-7.6,6.5-16.3,6.7-25.4h-7.4c-0.1,2.9-0.8,13.4-7,25h7.9C160.1,327,160,327.1,160,327.3z"/>
	</g>
</g>
</svg>
