<?xml version="1.0" encoding="utf-8"?>
<!-- Generator: Adobe Illustrator 22.0.0, SVG Export Plug-In . SVG Version: 6.00 Build 0)  -->
<svg version="1.1" id="Layer_1" xmlns="http://www.w3.org/2000/svg" xmlns:xlink="http://www.w3.org/1999/xlink" x="0px" y="0px"
	 viewBox="0 0 600 600" style="enable-background:new 0 0 600 600;" xml:space="preserve">
<style type="text/css">
	.st0{fill:#FFFFFF;}
	.st1{opacity:0.53;fill:#FFFFFF;enable-background:new    ;}
	.st2{fill:#FFFFFF;stroke:#000000;stroke-width:0.75;stroke-miterlimit:10;}
</style>
<g>
	<path class="st0" d="M256.1,334.5c-6.4,1.9-12,2.9-17.2,2.9c-6.7,0-12.7-1.4-18.4-4.3c-5.6-2.9-9.9-7.2-13.1-12.8
		c-3.1-5.7-4.6-12.1-4.6-19.3c0-7.1,1.6-13.5,4.6-19.2c3.1-5.7,7.4-10,13-12.9c5.6-2.9,11.7-4.4,18.5-4.4c5,0,10.8,0.9,17.2,2.8v8.2
		c-5.9-2.8-11.7-4.2-17.5-4.2c-4.4,0-8.4,1.2-12,3.6c-3.6,2.4-6.6,6-8.8,10.6c-2.2,4.7-3.4,9.8-3.4,15.3c0,5.6,1.2,10.7,3.5,15.5
		c2.3,4.7,5.3,8.3,8.8,10.6c3.6,2.4,7.6,3.5,11.9,3.5c5.7,0,11.6-1.3,17.5-4.1L256.1,334.5L256.1,334.5z"/>
	<path class="st0" d="M308.1,327.8l3.8,7.6H276v-68.8H287v61.1L308.1,327.8L308.1,327.8z"/>
	<path class="st0" d="M377.1,327.8v7.6h-42.3v-68.8h41.4v6.9H346v23.4h21.9l2.5,6.8H346v24.1H377.1z"/>
	<polygon class="st0" points="431.7,266.6 420.5,266.6 394.3,335.3 406.9,335.3 421.4,292.3 421.4,292.3 423.3,287.3 425.5,280.3 
		427.9,287.3 436.9,312.1 419.2,312.1 418.4,320.2 440.6,320.2 446.5,335.3 458.1,335.3 	"/>
	<path class="st0" d="M514,335.3h13.2l-15.9-32.2c7.1-2.9,10-10.5,11.3-13.2c1.3-2.7,1.9-5.4,1.9-8c0-2.8-0.9-5.5-2.9-8
		c-1.9-2.4-3.4-4.3-6.9-5.6c-3.5-1.3-6.5-1.8-13.8-1.8H478v68.8h11.1v-18.3v-10.8v-6.8v-12.4v-13.4h8.3c24.7,0.5,11.6,21.7,9.7,23.1
		c-3.8,2.5-8,0.5-14.5,1.7c-1.4,0.3-2,2-1.1,3.1c0,0,11.8,6.4,14.9,18.1l0,0L514,335.3z"/>
	<path class="st1" d="M122.1,353.5c4.8-9.3,5.7-23.6-9-43.9c-10.5-14.4-15.9-28.1-18.6-39.7l-10.2,13.8l0,0
		c-3.4,4.2-6.1,8.9-8.2,13.9c-2.4,6.1-3.7,12.7-3.7,19.6c0,23.2,14.9,43,35.6,50.3c0,0,0.9-0.4,2-1.2
		C113,364.5,118.1,360.5,122.1,353.5z"/>
	<path class="st0" d="M167,283.6L167,283.6l-42.6-54.1l-0.6,0.6c-22.6,25-12.4,48.4-5.7,63.3c13.8,30.1,10.4,49,4,60.2
		c-3.5,6.8-9,10.9-12,12.7c-1.3,0.8-2,1.2-2,1.2c5.5,2,11.4,3,17.6,3c29.4,0,53.3-23.8,53.3-53.3C178.9,304.5,174.5,292.8,167,283.6
		z"/>
	<path class="st2" d="M108,367.4L108,367.4L108,367.4z"/>
</g>
</svg>
