<?xml version="1.0" encoding="utf-8"?>
<!-- Generator: Adobe Illustrator 22.0.0, SVG Export Plug-In . SVG Version: 6.00 Build 0)  -->
<svg version="1.1" id="Layer_1" xmlns="http://www.w3.org/2000/svg" xmlns:xlink="http://www.w3.org/1999/xlink" x="0px" y="0px"
	 viewBox="0 0 600 600" style="enable-background:new 0 0 600 600;" xml:space="preserve">
<style type="text/css">
	.st0{fill:#FCFCFC;}
</style>
<g>
	<g>
		<path class="st0" d="M154.5,253.4c-2.8,5.4-6.7,10.5-11.3,14.6c-3.4,3-7.5,5.7-12,7.2c-2,3.6-4.1,7.2-6.7,10.6
			c-3.3,4.4-7.3,9-13.1,11.1c-3,1.2-6.4,1.5-9.5,0.5c-2.9-0.9-5.1-3-5-5.9c0.1-2.5,1.4-5.3,4.2-6.1c1.3-0.3,2.7,0.3,2.5,1.5
			c-0.2,1.2-1.6,2.2-2.6,2.3c0.2-0.2,0.6-1,0.2-1.4s-2.1-0.4-3.1,1.5c-1.2,2.1-0.7,4.6,1.3,6.2c2.4,1.9,5.9,2.2,8.9,1.6
			c5.9-1.2,9.9-5.8,13-10.2c2.4-3.4,4.1-7,5.9-10.7c-6,1.1-13.2-0.5-16.9-5.1c-3.9-4.9-2.2-11.8,2.5-15.7c2.3-2.1,5.4-3.4,8.6-3.5
			c4-0.2,7.2,2.1,6.8,6c-0.1,0.7-0.6,0.4-0.6-0.1c0.6-3.9-3.6-6.2-7.8-5.2c-5.4,1.3-9,6.7-9.5,11.6c-0.3,2.8,0.4,5.7,2.5,7.7
			c3.5,3.7,9.2,4.8,14.6,3.9c3.2-6.4,6.2-12.9,10.9-19.6c2.6-3.7,5.5-7.4,9.4-10.2c2.1-1.4,6.7-3,8.2-0.1
			C157.1,247.9,155.2,252.1,154.5,253.4z M152.2,245.1c-4.5,1.2-7.7,6.6-9.9,10.4c-3.3,5.7-6.6,11.4-10.7,18.9
			c2.3-0.8,4.4-2,6.4-3.2c5.3-3.4,9.6-8,13-13.1c1.5-2.2,2.9-4.5,3.9-7C155.9,248.7,156.4,243.9,152.2,245.1z"/>
		<path class="st0" d="M152.4,285.3c-1.6,1.7-4.1,3.9-6.6,4.3c-1.3,2.6-3.5,4.9-6.1,6.6c-2.1,1.3-5.8,2.5-8,0.5
			c-2.2-2.1-1.7-6-0.6-8.4c1.9-3.9,6.2-7.2,10.9-7.6c1.4-0.2,3,0,4,1c0.6,0.6,1.2,1.9,0.7,3.1c-0.1,0.2-0.4,0.1-0.4-0.2
			c0.2-0.9,0.1-1.8-0.7-2.5c-2.3-1.8-6.2,0.9-8.1,2.6c-2.1,2.1-3.8,4.9-4.9,7.6c-0.6,1.2-1.1,2.9-0.2,4c0.8,1.2,2.5,1.2,3.8,0.7
			c2.6-1.2,5.5-5.4,7.1-7.7c-0.6-0.2-1-0.7-1.2-1.2c-0.4-1.2,0.6-2.6,1.7-3.2c0.9-0.5,1.9-0.3,2.4,0.6c0.6,1.2,0.2,2.5-0.3,3.7
			c2.1-0.6,4.7-2.5,5.9-4.1C152.2,284.9,152.7,285,152.4,285.3z M143.7,289c0.2-0.2,2.5-4.3,0.6-3.6c-1.1,0.3-1.8,1.6-1.5,2.6
			C143,288.6,143.3,288.8,143.7,289z"/>
		<path class="st0" d="M169.2,285.3c-1.8,2.1-3.9,4.4-5.9,6.5c-1.9,1.9-4,3.9-6.6,5c-2.2,1.2-5.6,1.6-7.2-0.5
			c-1.8-2.3-1.3-5.7,0.1-8.1c1.7-3.2,4.9-6.1,9.1-7.2c1.8-0.5,6.4-0.7,5.9,2.1c-0.1,0.3-0.2,1.2-1.3,2.5c-0.6,0.7-1.5,1.4-2.5,1.4
			c-0.8,0-1.4-0.6-1.3-1.2c0.1-0.7,0.9-1.5,1.6-1.6c-0.2,0.2-0.4,0.7,0,1c1.3,0.7,3.3-1.3,3-2.5c-0.2-1.5-2.1-1.6-3.4-1.3
			c-3,0.7-5.3,3.5-7,5.9c-1.3,1.8-2.4,3.9-2.9,6c-0.3,1.2-0.3,2.8,1.2,3.4c1.5,0.6,3.1,0.1,4.5-0.5c2.9-1.3,5.2-3.6,7.3-5.8
			c1.6-1.7,3.3-3.5,4.8-5.3C169.1,284.9,169.4,285.2,169.2,285.3z"/>
		<path class="st0" d="M174.9,291c-2.1,2.1-4.4,4.9-6.7,6.2c-0.8,0.5-2.4,0.9-3.5,0.2c-0.8-0.7-0.7-1.9-0.5-2.8
			c1.3-3,3.1-6.2,4.8-9.2c-0.2,0.2-0.7,0.1-0.3-0.4c0.7-0.8,1.4-1.7,2.1-2.9c0.3-0.6,0.7-1.1,1.2-1.2c1-0.4,2.1,0.2,2.1,1.2
			c0,0.3-0.6,1.3-0.9,1.9c-2.1,3.4-4.6,7-6.5,10.6c-0.6,1-0.6,2.1,1.2,1.7c0.8-0.2,1.4-0.6,2-1.2c3.3-3,6.6-6.7,9.5-10.2
			c0.2-0.2,0.6,0.2,0.4,0.3C178.3,287.2,176.6,289.2,174.9,291z M174.7,273.8c0.4-0.7,1.5-1.2,2.2-0.8c0.8,0.4,1.1,1.3,0.6,2.2
			c-0.5,0.8-1.5,1.2-2.3,0.8C174.5,275.7,174.2,274.7,174.7,273.8z"/>
		<path class="st0" d="M196.6,285.3c-3.7,4.2-7.2,8.6-12.4,11.3c-2.1,1.1-4.8,1.8-6.9,0.2c-2.6-2.1-2.1-6.2-0.2-9.2
			c1.6-2.5,4-4.6,6.9-5.9s4.8-1.1,5.2-1c0.8,0.2,1.6,0.5,2.3,1.2c1,1,0.7,2.5-0.2,3.9c-0.9,1.2-3.1,3-7.3,4c-1.2,0.2-3,0.4-4.4,0.3
			c-0.8,2-2.6,5.7,0.7,6.5c2.5,0.3,4.8-1.2,6.7-2.5c2.1-1.6,4.1-3.5,5.9-5.4c0.8-0.9,1.6-1.8,2.5-2.7l0.8-1
			C196.4,284.9,196.8,285.1,196.6,285.3z M179.8,289.7c0.8,0,1.6-0.1,2.4-0.2c5.1-0.3,9.1-6.4,7.7-7.8c-0.2-0.2-0.7-0.4-1.2-0.4
			c-1.6-0.1-3,0.9-4,1.8C182.7,285.1,180.9,287.2,179.8,289.7z"/>
		<path class="st0" d="M217.6,285c0.2-0.2,0.6,0.1,0.4,0.3c-2.1,2.5-5.9,6.7-8.9,9.6c-1.2,1.2-3.8,3.6-5.3,2.6
			c-1.6-1.2-0.8-3.5-0.4-5.2c-1.6,2.1-3.4,3.9-5.9,4.9c-1.3,0.5-2.9,0.7-4.1-0.2c-1.3-1-1.6-2.6-1.6-4.1c0.2-2.7,1.6-5.3,3.5-7.5
			c2.1-2.1,5-4.3,8.1-4.8c1.5-0.2,3.2,0,3.9,1.2c0.4,0.7,0.5,1.3,0.4,2.1c6-10.8,12.7-21,20.1-31.1c0.3-0.3,0.6-0.8,1-1.1
			c1.2-0.7,2.3,0.7,1.6,1.6c-5,7.2-9.9,14.3-14.4,21.8c-3.5,6-7.5,12-10.3,18.3c-0.9,2.1,0,3.4,3.7,0
			C212.3,290.9,215.5,287.6,217.6,285z M205.1,281.7c-4.7,0-10.2,8.4-10.9,12.5c-0.2,1.1,0,2.3,1.4,2.5c0.7,0.2,1.6,0,2.3-0.2
			c2.6-1,4.5-3.2,5.9-5.3l2.8-5.1C207.4,284.8,207.9,281.7,205.1,281.7z"/>
		<path class="st0" d="M239.4,285c0.2-0.2,0.6,0.1,0.4,0.3c-2.3,2.6-6.7,7.6-9.8,10.4c-1.6,1.3-3.4,2.5-5,1.7c-1.8-1-1-3.3-0.2-4.9
			c-1.6,1.9-3.4,3.9-5.8,4.8c-1.3,0.5-2.9,0.7-4.1-0.2c-1.3-1-1.6-2.6-1.6-4.1c0.2-2.7,1.7-5.7,3.7-7.7c2.1-2.1,4.8-4,8.1-4.5
			c1.5-0.2,3.2,0,3.9,1.2c0.6,1,0.5,2.1,0.2,3c0.7-1.1,1.4-2.1,2.1-3c0.5-0.7,1.5-0.9,2.2-0.5c0.9,0.6,0.7,1.6,0.3,2.3
			c-1.2,1.8-2.5,3.7-3.8,5.5c-1.1,1.5-2.3,3.2-3.3,5c-1,2.1,0.7,2.5,3.1,0.7C232.9,292.3,236.9,288,239.4,285z M225.3,291
			c1-1.5,2.8-4.1,3.4-5.7c0.4-1.5,0-3.6-2.1-3.6c-1.6,0-3,1-4.1,1.9c-3,2.4-6.1,6.6-6.9,10.6c-0.2,1.1,0,2.3,1.4,2.5
			c0.7,0.2,1.6,0,2.3-0.2C221.9,295.5,223.9,293.1,225.3,291z"/>
		<path class="st0" d="M260.8,285c0.2-0.2,0.6,0.1,0.4,0.3c-2.1,2.5-5.9,6.7-8.9,9.6c-1.2,1.2-3.8,3.6-5.3,2.6
			c-1.6-1.2-0.8-3.5-0.4-5.2c-1.6,2.1-3.4,3.9-5.9,4.9c-1.3,0.5-2.9,0.7-4.1-0.2c-1.3-1-1.6-2.6-1.6-4.1c0.2-2.7,1.6-5.3,3.5-7.5
			c2.1-2.1,5-4.3,8.1-4.8c1.5-0.2,3.2,0,3.9,1.2c0.4,0.7,0.5,1.3,0.4,2.1c6-10.8,12.7-21,20.1-31.1c0.3-0.3,0.6-0.8,1-1.1
			c1.2-0.7,2.3,0.7,1.6,1.6c-5,7.2-9.9,14.3-14.4,21.8c-3.5,6-7.5,12-10.3,18.3c-0.9,2.1,0,3.4,3.7,0
			C255.6,290.9,258.8,287.6,260.8,285z M248.3,281.7c-4.7,0-10.2,8.4-10.9,12.5c-0.2,1.1,0,2.3,1.4,2.5c0.7,0.2,1.6,0,2.3-0.2
			c2.6-1,4.5-3.2,5.9-5.3l2.8-5.1C250.6,284.8,251.1,281.7,248.3,281.7z"/>
		<path class="st0" d="M346.5,247c-1,3.4-5.9,7.6-9.8,11.1c-5.5,10.2-11.7,20.2-17,30.6c0.2,1.6,0.5,8.1-2.1,9
			c-1.8,0.7-1.6-1.7-1.5-2.6c0.5-3,1.6-6,2.6-8.8c-0.6-3.4-1.5-6.9-2.8-10.2c-7.9,6.2-15.9,12.5-24.4,17.8c-2.7,1.6-5.7,3.1-8.9,3.7
			c-2.9,0.6-6.3,0.2-8.1-2.2c-0.8-1.2-1.2-2.5-1-3.9c0.4-2.5,2.1-5.5,4.5-5.7c1.4-0.2,2.1,0.7,2,1.8c-0.2,1.3-1.1,2.1-2.3,2.3
			c0.2-0.2,0.7-1.2,0.2-1.5c-0.7-0.5-2.5-0.2-3.5,2c-0.9,2.1-0.2,4.8,2,6.1c2.7,1.6,6.4,0.9,9.2-0.2c2.7-1,5.1-2.5,7.5-4
			c7.9-5.2,15.3-10.9,22.5-16.6c-0.9-2.1-2.1-4.3-3.5-6.2c-3.4-4.9-9-9.1-15.7-7.9c-6.3,1.2-11.3,5.6-13.4,11.1
			c-1.8,5.2,0.9,11.7,8.1,10.6c3.8-0.6,7.6-3.3,7.7-7c0.1-1.6-0.7-3.5-2.6-3.9c-1.4-0.2-2.4,0.3-3.4,0.9c-0.3,0.2-0.5-0.2-0.2-0.3
			c1.1-0.7,2.4-1.3,3.8-1.1c1.5,0.2,2.4,1.5,2.7,2.7c0.8,2.8-0.8,5.7-3.3,7.4c-2.5,1.6-5.6,2.5-8.5,2c-6.6-1.2-8.5-7.7-6.2-12.9
			c1.2-2.6,3.2-4.9,5.8-6.7c5.1-3.5,12.3-5.2,18.2-2.1c5.3,2.7,8.7,8.1,10.9,13.2c4.4-3.6,8.9-7.2,13.2-11c2.5-3.9,5.2-7.9,8.1-11.5
			c1.8-2.3,3.8-5,6.5-6.7C345.1,245.2,346.9,245.2,346.5,247z M328.4,265.7c-3.9,3.4-8,6.7-12.1,10c1.3,3,2.3,6.2,2.8,9.5
			C321.7,278.5,324.8,272,328.4,265.7z M319.2,289.5l-1,2.3c-0.2,0.5-2.4,5.4-1,5.4c0.6,0,1.2-0.9,1.4-1.6
			C319.3,293.9,319.3,291.7,319.2,289.5z M345.8,246.5c-0.1-0.5-0.6-0.4-0.9-0.2c-1.3,0.7-2.3,2.1-3.1,3.4c-1.6,2.3-3.3,5.1-4.7,7.5
			c2.7-2.5,6-5.4,8.1-8.7C345.7,247.7,345.9,247,345.8,246.5z"/>
		<path class="st0" d="M346.4,285.3c-2.7,3-7.2,8.5-11,11.3c-1,0.7-2.4,1.6-3.6,1.2c-2.9-0.7-0.7-5.8,0.2-7.3
			c1.2-2.1,2.6-4.3,4.2-6.1c-1.5-0.2-2.9-0.3-4.2-1.1c-0.6,0.9-1.2,1.6-1.6,2.1c-0.3,0.3-0.7,0.2-0.4-0.3c0.5-0.6,0.9-1.2,1.5-2
			c-0.7-0.6-0.9-1.3-0.7-2.2c0.1-0.4,0.4-1.2,0.8-1.6c0.5-0.4,1.2-0.6,1.6,0.1c0.5,1.1-0.2,2.4-0.8,3.4c1.6,0.5,3.5,0.2,4.9-0.2
			c0.6-0.2,1.2-0.5,1.7-0.6c0.6,0,1.1,0.2,1.4,0.7c0.3,0.5,0.2,1.2-0.2,1.6c-0.6,0.6-1,1.2-1.5,1.7c-2.1,2.5-4.1,5.3-5.9,8.1
			c-0.4,0.6-1.4,2.5-0.6,2.8c0.7,0.2,1.8-0.2,2.5-0.7c3.9-2.5,8.5-8.1,11.3-11.2C346.2,284.9,346.7,285.1,346.4,285.3z M332.6,279.5
			c-0.5-0.3-1.2,0.7-1.2,1c-0.3,0.7-0.3,1.6,0.5,2.1C332.2,282.1,333.3,280.2,332.6,279.5z"/>
		<path class="st0" d="M367.1,285.3c-4.2,4.8-8.6,9.5-14.3,12.7c-3.5,5.8-6.8,11.8-10.9,17.3c-2,2.8-7.8,10.6-12.6,9.9
			c-3.5-0.6-2.2-5-1.4-7c0.9-2.2,2.5-4.3,3.9-6.2c3.9-4.6,9.1-7.7,14.4-10.8c0.7-0.4,1.3-0.7,2-1.2c1.1-1.9,2.1-3.7,3.5-6.1
			c-1.2,1.4-2.7,2.7-4.6,3.4c-1.3,0.5-3,0.7-4.1-0.2c-1.3-1-1.6-2.6-1.6-4.1c0.2-2.7,1.7-5.7,3.7-7.7c2-2.1,4.8-4,8.1-4.5
			c1.5-0.2,3.1,0,3.9,1.2c0.5,0.7,0.5,1.6,0.3,2.5c0.6-0.9,1-1.9,1.7-2.6c1-0.7,2.5-0.1,2.7,1c0.1,0.4-0.6,1.6-1.1,2.4
			c-1.1,1.7-2.5,3.9-3.5,5.6c-1.4,2.1-2.7,4.3-3.9,6.4c5-3,9.7-7.9,13.4-12.2C366.9,284.9,367.3,284.9,367.1,285.3z M347.9,300.9
			c-3.5,2-6.9,3.9-10,6.3c-2.1,1.6-4,3.5-5.8,5.7c-2,2.5-4.9,7-4.1,10.4c0.4,1.6,2.1,1.6,3.7,1.2c2.1-0.8,3.5-3.5,4.8-5.2
			c3.6-5,6.8-10.3,9.9-15.6C346.8,302.6,347.4,301.8,347.9,300.9z M353.2,291.4c0.8-1.3,3.9-6.2,3.8-7.2c0.1-1.3-0.6-2.5-2.2-2.5
			c-1.6,0-3,1-4.1,1.9c-2.9,2.5-6,6.6-6.8,10.6c-0.3,2.2,1.3,3,3.7,2.4C349.9,295.6,351.8,293.4,353.2,291.4z"/>
		<path class="st0" d="M383.7,285.3c-3.7,4.2-7.2,8.6-12.4,11.3c-2.1,1.1-4.8,1.8-6.9,0.2c-2.6-2.1-2.1-6.2-0.2-9.2
			c1.6-2.5,4-4.6,6.9-5.9s4.8-1.1,5.2-1c0.8,0.2,1.6,0.5,2.3,1.2c1,1,0.7,2.5-0.2,3.9c-0.9,1.2-3.1,3-7.3,4c-1.2,0.2-3,0.4-4.4,0.3
			c-0.8,2-2.6,5.7,0.7,6.5c2.5,0.3,4.8-1.2,6.7-2.5c2.1-1.6,4.1-3.5,5.9-5.4c0.8-0.9,1.6-1.8,2.5-2.7l0.8-1
			C383.6,284.9,384,285.1,383.7,285.3z M367,289.7c0.8,0,1.6-0.1,2.4-0.2c5.1-0.3,9.1-6.4,7.7-7.8c-0.2-0.2-0.7-0.4-1.2-0.4
			c-1.6-0.1-3,0.9-4,1.8C369.8,285.1,368.1,287.2,367,289.7z"/>
		<path class="st0" d="M397.7,295.2c3.3-3,6.6-6.7,9.5-10.2c0.2-0.2,0.6,0.2,0.4,0.3c-1.6,1.9-3.4,3.9-5,5.7c-2,2.1-4.2,4.8-6.3,6.1
			c-1,0.7-2.3,1-3.4,0.7c-0.8-0.3-1.4-1.2-1.4-2c0.1-3.7,4.6-8.7,6.7-13c0.2-0.5-0.1-0.8-0.7-1c-1.6-0.3-3.7,1.4-4.8,2.5
			c-1.9,1.6-3.6,3.8-5.1,5.8c-1.5,2.4-3,4.4-4.6,6.7c-0.6,0.7-1.4,1.3-2.4,0.8c-0.6-0.2-0.9-0.7-0.9-1.3c0-0.5,0.3-0.7,0.6-1.2
			c1.9-2.8,3.8-5.6,5.8-8.4c0.2-0.2,3.5-4.7,1.9-4.7c-0.7,0-1.6,0.7-2.1,1.2c-0.8,0.7-1.2,1.2-2.1,2.1c-0.4,0.4-0.9,0.2-0.4-0.3
			c0.7-0.8,1.2-1.4,2.5-2.6c1.2-1.2,3.5-2.4,4.6-0.9c0.7,1.2,0.1,2.9-1.1,5.4c0.9-1.1,2-2.2,3-3.2c1.1-0.9,2.1-1.6,3.5-2.4
			c2.7-1.4,5.5-0.2,4.6,3c-1.6,4-7,10.9-6.3,11.8C394.8,297.1,396.9,296,397.7,295.2z"/>
		<path class="st0" d="M434.9,267.3c-4.3,2.1-9.5,1.2-14.1,1.2c-4.6,6.7-8.9,13.8-13.3,22.3c-0.2,0.5-3.1,6.5-0.7,5.5
			c0.8-0.3,1.6-1,2.2-1.6c3.3-3,6.2-6.3,9.2-9.7c0.2-0.2,0.6,0.2,0.4,0.3c-2.7,3-5.4,6.1-8.2,8.8c-1.1,1.1-2,2.1-3.4,3
			c-0.5,0.3-1.8,0.9-2.7,0.5c-1.2-0.6-1.2-2.1-1-3.1c0.5-2.8,1.8-5.5,3.1-8.1c3.1-6.2,7-12.2,10.9-18.1c-2.6-0.1-5.3,0-8,0.4
			c-0.2,0.1-0.4-0.2-0.2-0.3c2.8-0.8,5.8-1.1,8.7-1.1c3.4-5.1,6.9-10.1,10.4-15c0.7-1,2.7-0.2,2.3,0.9c-0.2,0.3-0.7,1.2-1,1.6
			c-2.8,4.1-5.5,8.4-8.1,12.5c2.2,0.1,4.4,0.2,6.5,0.2c2.3,0,4.7,0,6.8-0.7C435.2,266.8,435.4,266.9,434.9,267.3z"/>
		<path class="st0" d="M424.2,291c-2.1,2.1-4.4,4.9-6.7,6.2c-0.8,0.5-2.4,0.9-3.5,0.2c-0.8-0.7-0.7-1.9-0.5-2.8
			c1.3-3,3.1-6.2,4.8-9.2c-0.2,0.2-0.7,0.1-0.3-0.4c0.7-0.8,1.4-1.7,2.1-2.9c0.3-0.6,0.7-1.1,1.2-1.2c1-0.4,2.1,0.2,2.1,1.2
			c0,0.3-0.6,1.3-0.9,1.9c-2.1,3.4-4.6,7-6.5,10.6c-0.6,1-0.6,2.1,1.2,1.7c0.8-0.2,1.4-0.6,2-1.2c3.3-3,6.6-6.7,9.5-10.2
			c0.2-0.2,0.6,0.2,0.4,0.3C427.5,287.2,425.8,289.2,424.2,291z M424,273.8c0.4-0.7,1.5-1.2,2.2-0.8c0.8,0.4,1.1,1.3,0.6,2.2
			c-0.5,0.8-1.5,1.2-2.3,0.8C423.8,275.7,423.4,274.7,424,273.8z"/>
		<path class="st0" d="M443.2,295.2c3.3-3,6.6-6.7,9.5-10.2c0.2-0.2,0.6,0.2,0.4,0.3c-1.6,1.9-3.4,3.9-5,5.7c-2,2.1-4.2,4.8-6.3,6.1
			c-1,0.7-2.3,1-3.4,0.7c-0.8-0.3-1.4-1.2-1.4-2c0.1-3.7,4.6-8.7,6.7-13c0.2-0.5-0.1-0.8-0.7-1c-1.6-0.3-3.7,1.4-4.8,2.5
			c-1.9,1.6-3.6,3.8-5.1,5.8c-1.5,2.4-3,4.4-4.6,6.7c-0.6,0.7-1.4,1.3-2.4,0.8c-0.6-0.2-0.9-0.7-0.9-1.3c0-0.5,0.3-0.7,0.6-1.2
			c1.9-2.8,3.8-5.6,5.8-8.4c0.2-0.2,3.5-4.7,1.9-4.7c-0.7,0-1.6,0.7-2.1,1.2c-0.8,0.7-1.2,1.2-2.1,2.1c-0.4,0.4-0.9,0.2-0.4-0.3
			c0.7-0.8,1.2-1.4,2.5-2.6c1.2-1.2,3.5-2.4,4.6-0.9c0.7,1.2,0.1,2.9-1.1,5.4c0.9-1.1,2-2.2,3-3.2c1.1-0.9,2.1-1.6,3.5-2.4
			c2.7-1.4,5.5-0.2,4.6,3c-1.6,4-7,10.9-6.3,11.8C440.3,297.1,442.3,296,443.2,295.2z"/>
		<path class="st0" d="M474.5,285c0.2-0.2,0.6,0.1,0.4,0.3c-2.3,2.6-6.7,7.6-9.8,10.4c-1.6,1.3-3.4,2.5-5,1.7c-1.8-1-1-3.3-0.2-4.9
			c-1.6,1.9-3.4,3.9-5.8,4.8c-1.3,0.5-2.9,0.7-4.1-0.2c-1.3-1-1.6-2.6-1.6-4.1c0.2-2.7,1.7-5.7,3.7-7.7c2.1-2.1,4.8-4,8.1-4.5
			c1.5-0.2,3.2,0,3.9,1.2c0.6,1,0.5,2.1,0.2,3c0.7-1.1,1.4-2.1,2.1-3c0.5-0.7,1.5-0.9,2.2-0.5c0.9,0.6,0.7,1.6,0.3,2.3
			c-1.2,1.8-2.5,3.7-3.8,5.5c-1.1,1.5-2.3,3.2-3.3,5c-1,2.1,0.7,2.5,3.1,0.7C468,292.3,472,288,474.5,285z M460.4,291
			c1-1.5,2.8-4.1,3.4-5.7c0.4-1.5,0-3.6-2.1-3.6c-1.6,0-3,1-4.1,1.9c-3,2.4-6.1,6.6-6.9,10.6c-0.2,1.1,0,2.3,1.4,2.5
			c0.7,0.2,1.6,0,2.3-0.2C457,295.5,458.9,293.1,460.4,291z"/>
		<path class="st0" d="M508.3,285c0.2-0.2,0.6,0.1,0.4,0.3c-2.1,2.5-5.9,6.7-8.9,9.6c-1.2,1.2-3.8,3.6-5.3,2.6
			c-1.6-1.2-0.8-3.5-0.4-5.2c-1.6,2.1-3.4,3.9-5.9,4.9c-1.3,0.5-2.9,0.7-4.1-0.2c-1.3-1-1.6-2.6-1.6-4.1c0.2-2.7,1.6-5.3,3.5-7.5
			c2.1-2.1,5-4.3,8.1-4.8c1.5-0.2,3.2,0,3.9,1.2c0.4,0.7,0.5,1.3,0.4,2.1c6-10.8,12.7-21,20.1-31.1c0.3-0.3,0.6-0.8,1-1.1
			c1.2-0.7,2.3,0.7,1.6,1.6c-5,7.2-9.9,14.3-14.4,21.8c-3.5,6-7.5,12-10.3,18.3c-0.9,2.1,0,3.4,3.7,0
			C503.1,290.9,506.3,287.6,508.3,285z M495.8,281.7c-4.7,0-10.2,8.4-10.9,12.5c-0.2,1.1,0,2.3,1.4,2.5c0.7,0.2,1.6,0,2.3-0.2
			c2.6-1,4.5-3.2,5.9-5.3l2.8-5.1C498.2,284.8,498.6,281.7,495.8,281.7z"/>
		<path class="st0" d="M525.4,285.3c-3.7,4.2-7.2,8.6-12.4,11.3c-2.1,1.1-4.8,1.8-6.9,0.2c-2.6-2.1-2.1-6.2-0.2-9.2
			c1.6-2.5,4-4.6,6.9-5.9s4.8-1.1,5.2-1c0.8,0.2,1.6,0.5,2.3,1.2c1,1,0.7,2.5-0.2,3.9c-0.9,1.2-3.1,3-7.3,4c-1.2,0.2-3,0.4-4.4,0.3
			c-0.8,2-2.6,5.7,0.7,6.5c2.5,0.3,4.8-1.2,6.7-2.5c2.1-1.6,4.1-3.5,5.9-5.4c0.8-0.9,1.6-1.8,2.5-2.7l0.8-1
			C525.3,284.9,525.6,285.1,525.4,285.3z M508.6,289.7c0.8,0,1.6-0.1,2.4-0.2c5.1-0.3,9.1-6.4,7.7-7.8c-0.2-0.2-0.7-0.4-1.2-0.4
			c-1.6-0.1-3,0.9-4,1.8C511.5,285.1,509.7,287.2,508.6,289.7z"/>
		<path class="st0" d="M124.1,348.7c-4.1,4.3-9.3,8.6-15.9,8.5c-2.9-0.1-6-1.2-7.6-3.5c-0.9-1.5-0.8-3.3-0.2-4.8
			c1-2.5,2.7-3.9,4.3-4.4c1.3-0.3,2.1,0.4,1.9,1.6s-1.3,2.1-2.3,2.3c0.2-0.2,0.7-1.1,0.2-1.4c-0.6-0.5-2.1-0.3-3.5,1.9
			c-0.5,0.7-0.7,1.7-0.6,2.6c0.5,4.4,6.4,5.7,10.8,4.6c5.9-1.5,9.9-6.3,13-10.8c2.2-3.1,4.3-7.1,5.9-10.1c5.3-10,11.5-20.2,21.5-27
			c-12.4,0-26.1,0.4-35.1,8.9c-3.7,3.4-9,9-7,14.5c0.9,2.5,3.5,3.9,6.2,4c2.9,0.1,5.8-0.8,8.1-2.4c2.5-1.6,4.8-4.2,5-7
			c0.2-1.2-0.2-2.4-1.2-3c-1.3-0.8-3-0.7-4.3-0.1c-1.2,0.7-1.9,1.4-2.5,2.2c-0.4,0.4-0.8,0.2-0.4-0.3c1.1-1.3,3.1-3,5.6-2.9
			c1.4,0.2,2.6,1,3,2.1c1.1,2.5-0.8,5.7-2.7,7.5c-2,2.1-4.7,3.4-7.5,4.1c-2.6,0.6-5.4,0.7-7.8-0.7c-2.6-1.6-3.9-4.3-3.9-7.1
			c-0.1-4.8,3.4-9.2,7.2-12.3c2.6-2,5.5-3.5,8.6-4.6c9-3,18.7-3.4,29.6-3.5c2.9-1.6,9.5-4.1,13.2-3c0.7,0.2,1.2,0.7,0.7,1.3
			c-0.4,0.7-1.2,1.1-1.9,1.2c-3.3,1.2-6.8,1-10.3,1c-9.8,6.2-14.3,17.2-19.9,26.4C131.3,340.2,128.2,344.7,124.1,348.7z M160,306.1
			c-1.6,0.4-3.2,1.1-4.7,1.8h3.2c1.7-0.1,3.5-0.2,5.1-0.7c0.4-0.2,2.6-0.8,2.4-1.6C165.4,304.9,161.4,305.7,160,306.1z"/>
		<path class="st0" d="M150.5,354.6c3.3-3,6.6-6.7,9.5-10.2c0.2-0.2,0.6,0.2,0.4,0.3c-1.6,1.9-3.4,3.9-5,5.7c-2,2.1-4.2,4.8-6.3,6.1
			c-1,0.7-2.3,1-3.4,0.7c-0.8-0.3-1.4-1.2-1.4-2c0.1-3.7,4.6-8.7,6.7-13c0.2-0.5-0.1-0.8-0.7-1c-1.6-0.3-3.7,1.4-4.8,2.5
			c-1.9,1.6-3.6,3.8-5.1,5.8c-1.5,2.4-3,4.4-4.6,6.7c-0.6,0.7-1.4,1.3-2.4,0.8c-0.6-0.2-0.9-0.7-0.9-1.3c0-0.5,0.3-0.7,0.5-1.2
			c1.9-2.8,3.8-5.6,5.8-8.4c0.2-0.2,3.5-4.7,1.9-4.7c-0.7,0-1.6,0.7-2.1,1.2c-0.8,0.7-1.2,1.2-2.1,2.1c-0.4,0.4-0.9,0.2-0.4-0.3
			c0.7-0.8,1.2-1.4,2.5-2.6c1.2-1.2,3.5-2.4,4.6-0.9c0.7,1.2,0.1,2.9-1.1,5.4c0.9-1.1,2-2.2,3-3.2c1.1-0.9,2.1-1.6,3.5-2.4
			c2.7-1.4,5.5-0.2,4.6,3c-1.6,4-7,10.9-6.3,11.8C147.6,356.5,149.7,355.4,150.5,354.6z"/>
		<path class="st0" d="M186.7,319c-1.4,2.7-3.2,5.3-5.1,7.7c-1.9,2.5-3.9,4.8-6.1,7.1c-3.8,4.1-8.1,8.3-12.5,11.9
			c-3.1,5.3-6.2,10.7-9.2,16.1c-3.3,6.1-6.9,12.5-8.8,19.2c-0.2,0.7-0.3,1.5,0.1,2.1c1.2,1.5,8.8-7.6,9.5-8.4
			c3.9-4.9,7.6-10.1,10-15.8c1.1-2.5,2.1-5.1,2.5-7.7c-0.7,0.2-1.4,0.2-2.1,0c-1.6-0.3-2.1-1.7-1.6-3c0.4-1.2,1.7-2.4,3.1-1.8
			c1.6,0.7,1.5,2.7,1.3,4.1c3-1.2,5.5-3.7,7.4-6c0.2-0.2,0.6,0,0.4,0.3c-2.1,2.5-4.5,5.1-7.9,6.2c-0.4,2.7-1.5,5.4-2.5,7.9
			c-2.5,5.8-6,11-10.1,16c-2,2.5-4.1,4.8-6.6,7c-0.7,0.7-2.7,2.2-3.5,2.1c-1.2-0.1-1.6-1.4-1.6-2.5c0.2-6.2,3.5-11.9,5.9-17.6
			c2.8-5.9,5.9-11.8,9.1-17.4c3.2-5.6,6.5-11.1,10-16.5c3.5-5.3,6.8-10.6,11.1-15.5c1.5-1.6,5.9-4.8,8-2.7
			C189.1,313.5,187.7,317.2,186.7,319z M164.6,350.5c0.7,0.3,1.7,0.3,2.5,0.1c0.2-1,0.4-3.1-0.8-3.7c-0.7-0.2-1.4,0.2-1.8,0.6
			c-0.5,0.5-0.7,1.2-0.7,1.8C163.8,349.9,164.1,350.3,164.6,350.5z M186.4,312.3c-2.6-0.6-6.7,6-7.9,7.7
			c-4.8,7.6-9.4,15.3-14.6,24.2c2.1-1.9,4.3-3.6,6.7-6.1c4.4-4.3,8.6-9,12.2-13.9c1.8-2.5,3.8-5.2,4.6-8.2
			C187.5,315.4,187.9,312.6,186.4,312.3z"/>
		<path class="st0" d="M192.2,344.9c-3.7,4.2-7.2,8.6-12.4,11.3c-2.1,1.1-4.8,1.8-6.9,0.2c-2.6-2.1-2.1-6.2-0.2-9.2
			c1.6-2.5,4-4.6,6.9-5.9c2.9-1.3,4.8-1.1,5.2-1c0.8,0.2,1.6,0.5,2.3,1.2c1,1,0.7,2.5-0.2,3.9c-0.9,1.2-3.1,3-7.3,4
			c-1.2,0.2-3,0.4-4.4,0.3c-0.8,2-2.6,5.7,0.7,6.5c2.5,0.3,4.8-1.2,6.7-2.5c2.1-1.6,4.1-3.5,5.9-5.4c0.8-0.9,1.6-1.8,2.5-2.7l0.8-1
			C192,344.3,192.4,344.5,192.2,344.9z M175.4,349.1c0.8,0,1.6-0.1,2.4-0.2c5.1-0.3,9.1-6.4,7.7-7.8c-0.2-0.2-0.7-0.4-1.2-0.4
			c-1.6-0.1-3,0.9-4,1.8C178.3,344.5,176.6,346.7,175.4,349.1z"/>
		<path class="st0" d="M208.9,344.9c-1.8,2.1-3.9,4.4-5.9,6.5c-1.9,1.9-4,3.9-6.6,5c-2.2,1.2-5.6,1.6-7.2-0.5
			c-1.8-2.3-1.3-5.7,0.1-8.1c1.7-3.2,4.9-6.1,9.1-7.2c1.8-0.5,6.4-0.7,5.9,2.1c-0.1,0.3-0.2,1.2-1.3,2.5c-0.6,0.7-1.5,1.4-2.5,1.4
			c-0.8,0-1.4-0.6-1.3-1.2c0.1-0.7,0.9-1.5,1.6-1.6c-0.2,0.2-0.4,0.7,0,1c1.3,0.7,3.3-1.3,3-2.5c-0.2-1.5-2.1-1.6-3.4-1.3
			c-3,0.7-5.3,3.5-7,5.9c-1.3,1.8-2.4,3.9-2.9,6c-0.3,1.2-0.3,2.8,1.2,3.4c1.5,0.6,3.1,0.1,4.5-0.5c2.9-1.3,5.2-3.6,7.3-5.8
			c1.6-1.7,3.3-3.5,4.8-5.3C208.8,344.3,209,344.6,208.9,344.9z"/>
		<path class="st0" d="M236,326.7c-4.3,2.1-9.5,1.2-14.1,1.2c-4.6,6.7-8.9,13.8-13.3,22.3c-0.2,0.5-3.1,6.5-0.7,5.5
			c0.8-0.3,1.6-1,2.2-1.6c3.3-3,6.2-6.3,9.2-9.7c0.2-0.2,0.6,0.2,0.4,0.3c-2.7,3-5.4,6.1-8.2,8.8c-1.1,1.1-2,2.1-3.4,3
			c-0.5,0.3-1.8,0.9-2.7,0.5c-1.2-0.6-1.2-2.1-1-3.1c0.5-2.8,1.8-5.5,3.1-8.1c3.1-6.2,7-12.2,10.9-18.1c-2.6-0.1-5.3,0-8,0.4
			c-0.2,0.1-0.4-0.2-0.2-0.3c2.8-0.8,5.8-1.1,8.7-1.1c3.4-5.1,6.9-10.1,10.4-15c0.7-1,2.7-0.2,2.3,0.9c-0.2,0.3-0.7,1.2-1,1.6
			c-2.8,4.1-5.5,8.4-8.1,12.5c2.2,0.1,4.4,0.2,6.5,0.2c2.3,0,4.7,0,6.8-0.7C236.4,326.2,236.7,326.4,236,326.7z"/>
		<path class="st0" d="M237.9,344.9c-1.6,1.7-4.1,3.9-6.6,4.3c-1.3,2.6-3.5,4.9-6.1,6.6c-2.1,1.3-5.8,2.5-8,0.5
			c-2.2-2.1-1.7-6-0.6-8.4c1.9-3.9,6.2-7.2,10.9-7.6c1.4-0.2,3,0,4,1c0.6,0.6,1.2,1.9,0.7,3.1c-0.1,0.2-0.4,0.1-0.4-0.2
			c0.2-0.9,0.1-1.8-0.7-2.5c-2.3-1.8-6.2,0.9-8.1,2.6c-2.1,2.1-3.8,4.9-4.9,7.6c-0.6,1.2-1.1,2.9-0.2,4s2.5,1.2,3.8,0.7
			c2.6-1.2,5.5-5.4,7.1-7.7c-0.6-0.2-1-0.7-1.2-1.2c-0.4-1.2,0.6-2.6,1.7-3.2c0.9-0.5,1.9-0.3,2.4,0.6c0.6,1.2,0.2,2.5-0.3,3.7
			c2.1-0.6,4.7-2.5,5.9-4.1C237.7,344.3,238.1,344.4,237.9,344.9z M229.2,348.5c0.2-0.2,2.5-4.3,0.6-3.6c-1.1,0.3-1.8,1.6-1.5,2.6
			C228.4,348,228.8,348.2,229.2,348.5z"/>
		<path class="st0" d="M263.5,314.8c-0.2,1.5-0.7,2.8-1.4,4.1c-1.4,2.8-3.3,5.3-5.2,7.7c-2,2.5-4,4.8-6.2,7.2
			c-3.9,4.4-8.1,8.6-12.7,12.9c-1.4,2.6-3.9,7.9-3.3,8.9c0.7,1.2,2.6,0.2,3.6-0.2c4.7-2.5,7.5-6.7,11.2-10.9
			c0.2-0.2,0.6,0.1,0.4,0.3c-3.8,4.3-7,9.2-12.2,11.9c-1.3,0.7-2.9,0.9-4-0.2c-1.3-1.2-0.4-4.8,0.2-6.9c3.8-10.4,10-19.8,16.2-29.1
			c2.1-3,4.4-6.2,7.7-8.3c1.2-0.7,2.9-1.6,4.4-1.2C263.5,311.7,263.6,313.5,263.5,314.8z M262.4,312.4c-1.1-1.2-3,0.7-3.7,1.3
			c-8,9.6-13.8,20.7-19.9,31.5c0.4-0.4,0.8-0.7,1.2-1.2c2.1-2.1,4.1-4.1,6.2-6.2c4.3-4.5,8.5-9.2,12.2-14.2c1.6-2.5,3.7-5.1,4.3-8
			C262.9,314.6,263.1,313.2,262.4,312.4z"/>
		<path class="st0" d="M268.1,344.9c-1.6,1.7-4.1,3.9-6.6,4.3c-1.3,2.6-3.5,4.9-6.1,6.6c-2.1,1.3-5.8,2.5-8,0.5
			c-2.2-2.1-1.7-6-0.6-8.4c1.9-3.9,6.2-7.2,10.9-7.6c1.4-0.2,3,0,4,1c0.6,0.6,1.2,1.9,0.7,3.1c-0.1,0.2-0.4,0.1-0.4-0.2
			c0.2-0.9,0.1-1.8-0.7-2.5c-2.3-1.8-6.2,0.9-8.1,2.6c-2.1,2.1-3.8,4.9-4.9,7.6c-0.6,1.2-1.1,2.9-0.2,4s2.5,1.2,3.8,0.7
			c2.6-1.2,5.5-5.4,7.1-7.7c-0.6-0.2-1-0.7-1.2-1.2c-0.4-1.2,0.6-2.6,1.7-3.2c0.9-0.5,1.9-0.3,2.4,0.6c0.6,1.2,0.2,2.5-0.3,3.7
			c2.1-0.6,4.7-2.5,5.9-4.1C267.8,344.3,268.3,344.4,268.1,344.9z M259.4,348.5c0.2-0.2,2.5-4.3,0.6-3.6c-1.1,0.3-1.8,1.6-1.5,2.6
			C258.6,348,258.9,348.2,259.4,348.5z"/>
		<path class="st0" d="M289.2,344.9c-4.2,4.8-8.6,9.5-14.3,12.7c-3.5,5.8-6.8,11.8-10.9,17.3c-2,2.8-7.8,10.6-12.6,9.9
			c-3.5-0.6-2.2-5-1.4-7c0.9-2.2,2.5-4.3,3.9-6.2c3.9-4.6,9.1-7.7,14.4-10.8c0.7-0.4,1.3-0.7,2-1.2c1.1-1.9,2.1-3.7,3.5-6.1
			c-1.2,1.4-2.7,2.7-4.6,3.4c-1.3,0.5-3,0.7-4.1-0.2c-1.3-1-1.6-2.6-1.6-4.1c0.2-2.7,1.7-5.7,3.7-7.7c2-2.1,4.8-4,8.1-4.5
			c1.5-0.2,3.1,0,3.9,1.2c0.5,0.7,0.5,1.6,0.3,2.5c0.6-0.9,1-1.9,1.7-2.6c1-0.7,2.5-0.1,2.7,1c0.1,0.4-0.6,1.6-1.1,2.4
			c-1.1,1.7-2.5,3.9-3.5,5.6c-1.4,2.1-2.7,4.3-3.9,6.4c5-3,9.7-7.9,13.4-12.2C288.9,344.4,289.4,344.4,289.2,344.9z M270,360.3
			c-3.5,2-6.9,3.9-10,6.3c-2.1,1.6-4,3.5-5.8,5.7c-2,2.5-4.9,7-4.1,10.4c0.4,1.6,2.1,1.6,3.7,1.2c2.1-0.8,3.5-3.5,4.8-5.2
			c3.6-5,6.8-10.3,9.9-15.6C269,362,269.5,361.2,270,360.3z M275.4,350.9c0.8-1.3,3.9-6.2,3.8-7.2c0.1-1.3-0.5-2.5-2.2-2.5
			c-1.6,0-3,1-4.1,1.9c-2.9,2.5-6,6.6-6.8,10.6c-0.3,2.2,1.3,3,3.7,2.4C272,355.1,273.9,352.8,275.4,350.9z"/>
		<path class="st0" d="M294.9,350.5c-2.1,2.1-4.4,4.9-6.7,6.2c-0.8,0.5-2.4,0.9-3.5,0.2c-0.8-0.7-0.7-1.9-0.5-2.8
			c1.3-3,3.1-6.2,4.8-9.2c-0.2,0.2-0.7,0.1-0.3-0.4c0.7-0.8,1.4-1.7,2.1-2.9c0.3-0.6,0.7-1.1,1.2-1.2c1-0.4,2.1,0.2,2.1,1.2
			c0,0.3-0.6,1.3-0.9,1.9c-2.1,3.4-4.6,7-6.5,10.6c-0.6,1-0.6,2.1,1.2,1.7c0.8-0.2,1.4-0.6,2-1.2c3.3-3,6.6-6.7,9.5-10.2
			c0.2-0.2,0.6,0.2,0.4,0.3C298.3,346.7,296.5,348.6,294.9,350.5z M290.4,336.2c2.3-0.6,4.8-1.3,6.6-3.1c0.3-0.3,0.4-0.7,0.9-0.8
			c0.4-0.1,0.8,0.1,1.1,0.3c1.2,1.2-1.7,2.5-2.7,2.8c-1.8,0.7-3.9,1-5.8,1.2C290.3,336.6,290.2,336.2,290.4,336.2z"/>
		<path class="st0" d="M321.3,344.4c0.2-0.2,0.6,0.1,0.4,0.3c-2.3,2.6-6.7,7.6-9.8,10.4c-1.6,1.3-3.4,2.5-5,1.7
			c-1.8-1-1-3.3-0.2-4.9c-1.6,1.9-3.4,3.9-5.8,4.8c-1.3,0.5-2.9,0.7-4.1-0.2c-1.3-1-1.6-2.6-1.6-4.1c0.2-2.7,1.7-5.7,3.7-7.7
			c2.1-2.1,4.8-4,8.1-4.5c1.5-0.2,3.2,0,3.9,1.2c0.6,1,0.5,2.1,0.2,3c0.7-1.1,1.4-2.1,2.1-3c0.5-0.7,1.5-0.9,2.2-0.5
			c0.9,0.6,0.7,1.6,0.3,2.3c-1.2,1.8-2.5,3.7-3.8,5.5c-1.1,1.5-2.3,3.2-3.3,5c-1,2.1,0.7,2.5,3.1,0.7
			C314.8,351.7,318.8,347.4,321.3,344.4z M307.2,350.5c1-1.5,2.8-4.1,3.4-5.7c0.4-1.5,0-3.6-2.1-3.6c-1.6,0-3,1-4.1,1.9
			c-3,2.4-6.1,6.6-6.9,10.6c-0.2,1.1,0,2.3,1.4,2.5c0.7,0.2,1.6,0,2.3-0.2C303.7,355,305.8,352.5,307.2,350.5z"/>
		<path class="st0" d="M397.9,316.4c0.1,6-5.3,10.9-10.5,13.8c-2.7,1.6-5.7,2.9-8.7,3.7c-2.1,0.7-4.4,1.1-6.7,0.7
			c-1.6-0.3-1.8-1.2-0.3-0.7c2.2,0.7,4.5,0.2,6.6-0.6c3-0.9,5.8-2.4,8.1-4.1c5.5-4.1,10.6-10.7,7.6-17.8c-1.3-2.5-4.3-4.3-7.2-5
			c-7.5,6.7-11.4,16-16.3,24.2c-3.1,5.6-6.7,11-10.6,16c-3.5,4.4-8.1,8.5-14,9.9c-3,0.7-6.7,0.7-9.2-1.2c-2.1-1.5-2.9-3.9-2.5-6.1
			c0.7-3,3-4.8,4.4-5.1c1.2-0.2,2.1,0.7,2,1.7c-0.2,1-1,2.2-2.3,2.3c0.4-0.1,0.6-1,0.4-1.2c-0.6-1.2-3-0.5-3.8,2
			c-0.7,2.1-0.1,4.5,2.1,6c2.6,1.6,6.2,1.6,9.1,0.5c5.9-2.1,9.5-6.9,12.5-11.8c3.4-5.5,6.3-11.2,9.9-16.6c4.9-7.5,9.5-15.6,17.3-21
			c-7.4-1.5-14.9,0.7-21.3,4.1c-5.7,3-10.4,7.4-13.5,12.7c-1.4,2.5-2.3,5.3-2,8c0.4,2.8,3.5,3.9,6.1,3.6c4-0.3,7.6-3.1,9.2-6.4
			c0.7-1.6,0.8-4-1.3-4.7c-1.4-0.3-2.8,0.2-3.9,0.8c-0.5,0.2-0.7,0.2-0.4-0.2c1.1-0.7,2.4-1.2,3.8-1.2c1.6,0.2,2.6,1.2,2.8,2.5
			c0.5,2.5-1.6,4.9-3.3,6.6c-2.1,2.1-5,3.4-8.1,3.5c-2.8,0.1-5.7-1.2-6.7-3.7c-2-5,1.8-11.1,5.8-14.7c4.8-4.3,10.4-7.7,16.7-9.9
			c5.3-1.7,11.5-2.7,17.3-1.6c1.6-0.9,3.5-1.6,5.4-1.6c0.4,0,1.6,0,1.2,0.2c-2,0-3.9,0.7-5.6,1.6C392.8,307,397.9,311,397.9,316.4z"
			/>
		<path class="st0" d="M392.8,344.9c-3.7,4.2-7.2,8.6-12.4,11.3c-2.1,1.1-4.8,1.8-6.9,0.2c-2.6-2.1-2.1-6.2-0.2-9.2
			c1.6-2.5,4-4.6,6.9-5.9c2.9-1.3,4.8-1.1,5.2-1c0.8,0.2,1.6,0.5,2.3,1.2c1,1,0.7,2.5-0.2,3.9c-0.9,1.2-3.1,3-7.3,4
			c-1.2,0.2-3,0.4-4.4,0.3c-0.8,2-2.6,5.7,0.7,6.5c2.5,0.3,4.8-1.2,6.7-2.5c2.1-1.6,4.1-3.5,5.9-5.4c0.8-0.9,1.6-1.8,2.5-2.7l0.8-1
			C392.6,344.3,393,344.5,392.8,344.9z M375.9,349.1c0.8,0,1.6-0.1,2.4-0.2c5.1-0.3,9.1-6.4,7.7-7.8c-0.2-0.2-0.7-0.4-1.2-0.4
			c-1.6-0.1-3,0.9-4,1.8C378.9,344.5,377.1,346.7,375.9,349.1z"/>
		<path class="st0" d="M413.8,344.4c0.2-0.2,0.6,0.1,0.4,0.3c-2.1,2.5-5.9,6.7-8.9,9.6c-1.2,1.2-3.8,3.6-5.3,2.6
			c-1.6-1.2-0.8-3.5-0.4-5.2c-1.6,2.1-3.4,3.9-5.9,4.9c-1.3,0.5-2.9,0.7-4.1-0.2c-1.3-1-1.6-2.6-1.6-4.1c0.2-2.7,1.6-5.3,3.5-7.5
			c2.1-2.1,5-4.3,8.1-4.8c1.5-0.2,3.2,0,3.9,1.2c0.4,0.7,0.5,1.3,0.4,2.1c6-10.8,12.7-21,20.1-31c0.3-0.3,0.6-0.8,1-1.1
			c1.2-0.7,2.3,0.7,1.6,1.6c-5,7.2-9.9,14.3-14.4,21.8c-3.5,6-7.5,12-10.3,18.3c-0.9,2.1,0,3.4,3.7,0
			C408.6,350.4,411.8,347,413.8,344.4z M401.3,341.2c-4.7,0-10.2,8.4-10.9,12.5c-0.2,1.1,0,2.3,1.4,2.5c0.7,0.2,1.6,0,2.3-0.2
			c2.6-1,4.5-3.2,5.9-5.3l2.8-5.1C403.6,344.2,404,341.2,401.3,341.2z"/>
		<path class="st0" d="M419.9,350.5c-2.1,2.1-4.4,4.9-6.7,6.2c-0.8,0.5-2.4,0.9-3.5,0.2c-0.8-0.7-0.7-1.9-0.5-2.8
			c1.3-3,3.1-6.2,4.8-9.2c-0.2,0.2-0.7,0.1-0.3-0.4c0.7-0.8,1.4-1.7,2.1-2.9c0.3-0.6,0.7-1.1,1.2-1.2c1-0.4,2.1,0.2,2.1,1.2
			c0,0.3-0.6,1.3-0.9,1.9c-2.1,3.4-4.6,7-6.5,10.6c-0.6,1-0.6,2.1,1.2,1.7c0.8-0.2,1.4-0.6,2-1.2c3.3-3,6.6-6.7,9.5-10.2
			c0.2-0.2,0.6,0.2,0.4,0.3C423.3,346.7,421.5,348.6,419.9,350.5z M419.7,333.3c0.4-0.7,1.5-1.2,2.2-0.8c0.8,0.4,1.1,1.3,0.6,2.2
			c-0.5,0.8-1.5,1.2-2.3,0.8C419.5,335.2,419.2,334.1,419.7,333.3z"/>
		<path class="st0" d="M446.3,344.4c0.2-0.2,0.6,0.1,0.4,0.3c-2.3,2.6-6.7,7.6-9.8,10.4c-1.6,1.3-3.4,2.5-5,1.7
			c-1.8-1-1-3.3-0.2-4.9c-1.6,1.9-3.4,3.9-5.8,4.8c-1.3,0.5-2.9,0.7-4.1-0.2c-1.3-1-1.6-2.6-1.6-4.1c0.2-2.7,1.7-5.7,3.7-7.7
			c2.1-2.1,4.8-4,8.1-4.5c1.5-0.2,3.2,0,3.9,1.2c0.6,1,0.5,2.1,0.2,3c0.7-1.1,1.4-2.1,2.1-3c0.5-0.7,1.5-0.9,2.2-0.5
			c0.9,0.6,0.7,1.6,0.3,2.3c-1.2,1.8-2.5,3.7-3.8,5.5c-1.1,1.5-2.3,3.2-3.3,5c-1,2.1,0.7,2.5,3.1,0.7
			C439.8,351.7,443.8,347.4,446.3,344.4z M432.2,350.5c1-1.5,2.8-4.1,3.4-5.7c0.4-1.5,0-3.6-2.1-3.6c-1.6,0-3,1-4.1,1.9
			c-3,2.4-6.1,6.6-6.9,10.6c-0.2,1.1,0,2.3,1.4,2.5c0.7,0.2,1.6,0,2.3-0.2C428.8,355,430.8,352.5,432.2,350.5z M431.2,336.2
			c2.3-0.6,4.8-1.3,6.6-3.1c0.3-0.3,0.4-0.7,0.9-0.8c0.4-0.1,0.8,0.1,1.1,0.3c1.2,1.2-1.7,2.5-2.7,2.8c-1.8,0.7-3.9,1-5.8,1.2
			C431,336.6,430.9,336.2,431.2,336.2z"/>
		<path class="st0" d="M473.9,326.7c-4.3,2.1-9.5,1.2-14.1,1.2c-4.6,6.7-8.9,13.8-13.3,22.3c-0.2,0.5-3.1,6.5-0.7,5.5
			c0.8-0.3,1.6-1,2.2-1.6c3.3-3,6.2-6.3,9.2-9.7c0.2-0.2,0.6,0.2,0.4,0.3c-2.7,3-5.4,6.1-8.2,8.8c-1.1,1.1-2,2.1-3.4,3
			c-0.5,0.3-1.8,0.9-2.7,0.5c-1.2-0.6-1.2-2.1-1-3.1c0.5-2.8,1.8-5.5,3.1-8.1c3.1-6.2,7-12.2,10.9-18.1c-2.6-0.1-5.3,0-8,0.4
			c-0.2,0.1-0.4-0.2-0.2-0.3c2.8-0.8,5.8-1.1,8.7-1.1c3.4-5.1,6.9-10.1,10.4-15c0.7-1,2.7-0.2,2.3,0.9c-0.2,0.3-0.7,1.2-1,1.6
			c-2.8,4.1-5.5,8.4-8.1,12.5c2.2,0.1,4.4,0.2,6.5,0.2c2.3,0,4.7,0,6.8-0.7C474.2,326.2,474.5,326.4,473.9,326.7z"/>
		<path class="st0" d="M473.5,344.9c-2.7,3-7.2,8.5-11,11.3c-1,0.7-2.4,1.6-3.6,1.2c-2.9-0.7-0.7-5.8,0.2-7.3
			c1.2-2.1,2.6-4.3,4.2-6.1c-1.5-0.2-2.9-0.3-4.2-1.1c-0.6,0.9-1.2,1.6-1.6,2.1c-0.3,0.3-0.7,0.2-0.4-0.3c0.5-0.6,0.9-1.2,1.5-2
			c-0.7-0.6-0.9-1.3-0.7-2.2c0.1-0.4,0.4-1.2,0.8-1.6c0.5-0.4,1.2-0.6,1.6,0.1c0.5,1.1-0.2,2.4-0.8,3.4c1.6,0.5,3.5,0.2,4.9-0.2
			c0.6-0.2,1.2-0.5,1.7-0.6c0.6,0,1.1,0.2,1.4,0.7c0.3,0.5,0.2,1.2-0.2,1.6c-0.6,0.6-1,1.2-1.5,1.7c-2.1,2.5-4.1,5.3-5.9,8.1
			c-0.4,0.6-1.4,2.5-0.6,2.8c0.7,0.2,1.8-0.2,2.5-0.7c3.9-2.5,8.5-8.1,11.3-11.2C473.3,344.3,473.7,344.5,473.5,344.9z M459.7,338.9
			c-0.5-0.3-1.2,0.7-1.2,1c-0.3,0.7-0.3,1.6,0.5,2.1C459.3,341.5,460.4,339.6,459.7,338.9z"/>
		<path class="st0" d="M479.2,350.5c-2.1,2.1-4.4,4.9-6.7,6.2c-0.8,0.5-2.4,0.9-3.5,0.2c-0.8-0.7-0.7-1.9-0.5-2.8
			c1.3-3,3.1-6.2,4.8-9.2c-0.2,0.2-0.7,0.1-0.3-0.4c0.7-0.8,1.4-1.7,2.1-2.9c0.3-0.6,0.7-1.1,1.2-1.2c1-0.4,2.1,0.2,2.1,1.2
			c0,0.3-0.6,1.3-0.9,1.9c-2.1,3.4-4.6,7-6.5,10.6c-0.6,1-0.6,2.1,1.2,1.7c0.8-0.2,1.4-0.6,2-1.2c3.3-3,6.6-6.7,9.5-10.2
			c0.2-0.2,0.6,0.2,0.4,0.3C482.5,346.7,480.8,348.6,479.2,350.5z M479,333.3c0.4-0.7,1.5-1.2,2.2-0.8c0.8,0.4,1.1,1.3,0.6,2.2
			c-0.5,0.8-1.5,1.2-2.3,0.8C478.8,335.2,478.4,334.1,479,333.3z"/>
		<path class="st0" d="M500.8,344.9c-1.8,2.1-3.9,4.4-5.9,6.5c-1.9,1.9-4,3.9-6.6,5c-2.2,1.2-5.6,1.6-7.2-0.5
			c-1.8-2.3-1.3-5.7,0.1-8.1c1.7-3.2,4.9-6.1,9.1-7.2c1.8-0.5,6.4-0.7,5.9,2.1c-0.1,0.3-0.2,1.2-1.3,2.5c-0.6,0.7-1.5,1.4-2.5,1.4
			c-0.8,0-1.4-0.6-1.3-1.2c0.1-0.7,0.9-1.5,1.6-1.6c-0.2,0.2-0.4,0.7,0,1c1.3,0.7,3.3-1.3,3-2.5c-0.2-1.5-2.1-1.6-3.4-1.3
			c-3,0.7-5.3,3.5-7,5.9c-1.3,1.8-2.4,3.9-2.9,6c-0.3,1.2-0.3,2.8,1.2,3.4c1.5,0.6,3.1,0.1,4.5-0.5c2.9-1.3,5.2-3.6,7.3-5.8
			c1.6-1.7,3.3-3.5,4.8-5.3C500.8,344.3,501,344.6,500.8,344.9z"/>
		<path class="st0" d="M522.2,344.4c0.2-0.2,0.6,0.1,0.4,0.3c-2.3,2.6-6.7,7.6-9.8,10.4c-1.6,1.3-3.4,2.5-5,1.7
			c-1.8-1-1-3.3-0.2-4.9c-1.6,1.9-3.4,3.9-5.8,4.8c-1.3,0.5-2.9,0.7-4.1-0.2c-1.3-1-1.6-2.6-1.6-4.1c0.2-2.7,1.7-5.7,3.7-7.7
			c2.1-2.1,4.8-4,8.1-4.5c1.5-0.2,3.2,0,3.9,1.2c0.6,1,0.5,2.1,0.2,3c0.7-1.1,1.4-2.1,2.1-3c0.5-0.7,1.5-0.9,2.2-0.5
			c0.9,0.6,0.7,1.6,0.3,2.3c-1.2,1.8-2.5,3.7-3.8,5.5c-1.1,1.5-2.3,3.2-3.3,5c-1,2.1,0.7,2.5,3.1,0.7
			C515.7,351.7,519.8,347.4,522.2,344.4z M508.2,350.5c1-1.5,2.8-4.1,3.4-5.7c0.4-1.5,0-3.6-2.1-3.6c-1.6,0-3,1-4.1,1.9
			c-3,2.4-6.1,6.6-6.9,10.6c-0.2,1.1,0,2.3,1.4,2.5c0.7,0.2,1.6,0,2.3-0.2C504.7,355,506.7,352.5,508.2,350.5z"/>
	</g>
	<path class="st0" d="M58.6,257.9c0,0,156.8-121.7,358.8-65.3v18.8C244.2,141.2,58.6,257.9,58.6,257.9z"/>
	<path class="st0" d="M189.1,235.3c0,0,156.8-121.7,358.8-65.3v18.8C374.8,118.6,189.1,235.3,189.1,235.3z"/>
</g>
</svg>
