<?xml version="1.0" encoding="utf-8"?>
<!-- Generator: Adobe Illustrator 22.0.0, SVG Export Plug-In . SVG Version: 6.00 Build 0)  -->
<svg version="1.1" id="Layer_1" xmlns="http://www.w3.org/2000/svg" xmlns:xlink="http://www.w3.org/1999/xlink" x="0px" y="0px"
	 viewBox="0 0 1370.6 321.3" style="enable-background:new 0 0 1370.6 321.3;" xml:space="preserve">
<style type="text/css">
	.st0{fill:#1A1A18;}
	.st1{fill:#FFFFFF;}
</style>
<title>logo</title>
<g>
	<path class="st0" d="M10.7,301.3h14.2L28,287h18l3.1,14.3h14.2l-17.9-67.7H28.6L10.7,301.3L10.7,301.3z M36.9,245.3h0.2l6.5,30.4
		H30.4L36.9,245.3L36.9,245.3z M110.7,256.4c0-9.9-1.4-24.2-21-24.2c-20.5,0-23,14.6-23,35.2s2.6,35.2,23,35.2
		c17.9,0,21.5-12.6,21.5-27.2H97.6c0,14.6-3.6,17.2-8.5,17.2c-5.9,0-8.7-3.7-8.7-24.2c0-19.2,1.6-26.1,8.5-26.1
		c6.2,0,8.2,4.3,8.2,14.1H110.7L110.7,256.4z M115.5,233.5v11.2h14.8v56.5H144v-56.5h14.8v-11.2L115.5,233.5L115.5,233.5z
		 M178.9,301.3v-67.7h-13.7v67.7H178.9L178.9,301.3z M184.6,233.5l15.6,67.7h17.5l15.6-67.7h-14.1l-10.1,50.1h-0.3l-9.6-50.1H184.6
		L184.6,233.5z M230,301.3l17.9-67.7h16.9l17.9,67.7h-14.2l-3.1-14.3h-18l-3.1,14.3H230L230,301.3z M256.3,245.3l-6.5,30.4H263
		l-6.5-30.4L256.3,245.3L256.3,245.3z M334.1,241.7h-16.5v-7.5h40.1v7.5h-16.6v61h-7.1V241.7z M370.8,234.1v40.6
		c0,15.4,5.4,21.9,12.6,21.9c8,0,13.2-6.7,13.2-21.9v-40.6h7.1v40c0,21-8.8,29.7-20.5,29.7c-11.1,0-19.5-8-19.5-29.3v-40.4H370.8z
		 M470.8,300.4c-2.6,1.6-7.7,3.3-14.3,3.3c-15.3,0-26.8-12.2-26.8-34.7c0-21.5,11.5-36,28.3-36c6.8,0,11,1.8,12.9,3.1l-1.7,7.2
		c-2.7-1.6-6.4-2.8-10.9-2.8c-12.7,0-21.2,10.3-21.2,28.3c0,16.8,7.6,27.6,20.8,27.6c4.3,0,8.6-1.1,11.4-2.8L470.8,300.4z
		 M488.6,281.1l-5.6,21.6h-7.2l18.4-68.5h8.4l18.5,68.5h-7.5l-5.8-21.6H488.6z M506.4,274.2l-5.3-19.7c-1.2-4.5-2-8.5-2.8-12.5h-0.2
		c-0.8,4.1-1.7,8.2-2.7,12.4l-5.3,19.8H506.4z M529.1,302.7v-68.5h7.6l17.4,34.7c4,8,7.2,15.3,9.7,22.3l0.2-0.1
		c-0.6-9.2-0.8-17.5-0.8-28.2v-28.7h6.6v68.5h-7.1l-17.2-34.8c-3.8-7.6-7.4-15.5-10.1-22.9l-0.2,0.1c0.4,8.6,0.6,16.9,0.6,28.3v29.3
		H529.1z M590.8,281.1l-5.6,21.6h-7.2l18.4-68.5h8.4l18.5,68.5h-7.5l-5.8-21.6H590.8z M608.6,274.2l-5.3-19.7
		c-1.2-4.5-2-8.5-2.8-12.5h-0.2c-0.8,4.1-1.7,8.2-2.7,12.4l-5.3,19.8H608.6z M631.3,234.1h7v61.1h23.2v7.4h-30.2V234.1z M686.3,235
		c4.3-0.8,9.3-1.4,14.9-1.4c10.1,0,17.2,2.9,22,8.5c4.8,5.6,7.6,13.5,7.6,24.6c0,11.2-2.7,20.3-7.8,26.6c-5.1,6.4-13.4,9.9-24,9.9
		c-5,0-9.2-0.3-12.7-0.8V235z M693.3,295.6c1.8,0.4,4.3,0.5,7.1,0.5c15,0,23.1-10.6,23.1-29.1c0.1-16.2-7.2-26.4-22-26.4
		c-3.6,0-6.4,0.4-8.2,0.9V295.6z M746.8,234.1v68.5h-7v-68.5H746.8z M800.3,299.6c-3.1,1.4-9.3,3.8-16.7,3.8c-8.2,0-15-2.6-20.3-9
		c-4.7-5.7-7.6-14.8-7.6-25.5c0.1-20.4,11.2-35.4,29.4-35.4c6.3,0,11.2,1.7,13.5,3.2l-1.7,7.2c-2.9-1.6-6.5-2.9-12-2.9
		c-13.2,0-21.8,10.4-21.8,27.6c0,17.4,8.3,27.7,20.9,27.7c4.6,0,7.7-0.8,9.3-1.8v-20.4h-11v-7.1h17.9V299.6z M818,234.1v68.5h-7
		v-68.5H818z M840.6,241.7h-16.5v-7.5h40.1v7.5h-16.6v61h-7.1V241.7z M873,281.1l-5.6,21.6h-7.2l18.4-68.5h8.4l18.5,68.5H898
		l-5.8-21.6H873z M890.8,274.2l-5.3-19.7c-1.2-4.5-2-8.5-2.8-12.5h-0.2c-0.8,4.1-1.7,8.2-2.7,12.4l-5.3,19.8H890.8z M913.4,234.1h7
		v61.1h23.2v7.4h-30.2V234.1z"/>
	<path class="st1" d="M1256.2,75.5c0.8-0.7,1.7-1.1,2.5-1.3c0.9-0.2,1.7-0.3,2.5-0.3h13.9c1.1,0,2.1,0.2,2.8,0.6
		c0.8,0.4,1.5,0.9,2,1.6c0.6,0.7,1,1.4,1.3,2.3s0.6,1.7,0.9,2.7l2.8,11.7c0.9-1.9,2.3-4,4-6.5c1.7-2.4,4-4.7,6.6-6.8
		c2.7-2.1,5.9-3.9,9.6-5.3s8-2.1,12.9-2.1c7,0,13.3,1.3,19,4s10.6,6.3,14.6,11c4,4.6,7.1,10,9.3,16.3c2.2,6.2,3.3,12.8,3.3,19.9
		v60.2c0,2.3-0.5,4.1-1.5,5.3s-2.6,1.8-4.8,1.8H1337c-2.6,0-4.4-0.5-5.4-1.3c-1-0.9-1.5-2.6-1.5-5.2v-59.8c0-2.6-0.6-5.1-1.8-7.5
		c-1.2-2.4-2.8-4.4-4.7-6.2c-2-1.8-4.2-3.2-6.6-4.3c-2.5-1-5-1.6-7.6-1.6c-2.2,0-4.4,0.5-6.7,1.5c-2.3,1-4.4,2.3-6.3,4.1
		c-1.9,1.7-3.6,3.8-4.9,6.2c-1.3,2.4-2.1,4.9-2.3,7.7v59.7c0,1-0.2,2.1-0.6,3.1s-1,1.8-1.8,2.4c-0.8,0.5-1.5,0.8-2.2,1
		s-1.5,0.3-2.5,0.3h-20.8c-2.6,0-4.5-0.6-5.7-1.9c-1.2-1.3-1.7-3-1.7-5.1v-103c0-1.2,0.3-2.2,0.8-3.2s1.2-1.7,2.1-2.3L1256.2,75.5
		L1256.2,75.5z M1153.4,132.4c0,4,0.6,7.8,1.9,11.3s3,6.6,5.3,9.1c2.3,2.6,5.1,4.6,8.4,6.1s7,2.2,11.1,2.2c4,0,7.6-0.7,10.8-2.2
		c3.2-1.5,5.9-3.6,8.2-6.1c2.2-2.5,4-5.6,5.1-9.1c1.2-3.5,1.8-7.3,1.8-11.3c0-3.9-0.6-7.6-1.8-11.2c-1.2-3.6-2.9-6.7-5.1-9.3
		c-2.2-2.7-5-4.8-8.2-6.4s-6.8-2.3-10.8-2.3c-4.1,0-7.8,0.8-11.1,2.3c-3.3,1.6-6.1,3.7-8.4,6.4c-2.3,2.7-4.1,5.8-5.3,9.3
		C1154.1,124.8,1153.4,128.5,1153.4,132.4L1153.4,132.4z M1119.9,132.4c0-5.6,0.7-11.1,2.2-16.3c1.4-5.2,3.5-10,6.1-14.5
		c2.6-4.4,5.7-8.5,9.4-12.1c3.6-3.6,7.7-6.8,12.2-9.3c4.5-2.6,9.3-4.6,14.5-6s10.6-2.1,16.2-2.1c8.3,0,16.2,1.6,23.5,4.7
		s13.7,7.4,19.1,12.8s9.7,11.8,12.9,19.1c3.2,7.4,4.7,15.3,4.7,23.8c0,5.7-0.7,11.1-2.1,16.2c-1.4,5.2-3.5,10-6.1,14.5
		s-5.7,8.5-9.4,12.2c-3.6,3.6-7.7,6.8-12.2,9.4c-4.5,2.6-9.3,4.6-14.4,6s-10.5,2.1-16.1,2.1s-11-0.7-16.2-2.1
		c-5.2-1.4-10-3.4-14.5-6s-8.5-5.7-12.2-9.4c-3.6-3.6-6.8-7.7-9.4-12.2s-4.6-9.3-6.1-14.5C1120.6,143.5,1119.9,138.1,1119.9,132.4
		L1119.9,132.4z M1071.1,34.6c0-2.6,0.6-4.4,1.7-5.5s2.8-1.6,5.1-1.6h21.3c2.1,0,3.9,0.5,5.2,1.6c1.3,1.1,2,2.9,2,5.5v17.9
		c0,0.7-0.2,1.5-0.5,2.4s-0.8,1.7-1.4,2.5s-1.3,1.4-2.2,2c-0.9,0.5-1.9,0.8-3,0.8H1078c-4.5,0-6.8-2.5-6.8-7.6L1071.1,34.6
		L1071.1,34.6z M1071.1,81.1c0-2,0.6-3.6,1.7-5.1c1.1-1.4,2.8-2.1,5.1-2.1h21c0.7,0,1.5,0.2,2.4,0.5s1.7,0.8,2.4,1.5
		c0.7,0.6,1.4,1.4,1.9,2.3s0.8,1.8,0.8,2.9v102.5c0,2.3-0.6,4.1-1.9,5.3s-3.1,1.8-5.5,1.8h-21c-4.5,0-6.8-2.4-6.8-7.1L1071.1,81.1
		L1071.1,81.1z M1004.4,55.7c0-1.9,0.6-3.3,1.9-4.3c1.3-1,3-1.8,5.4-2.7l20.9-7.3c0.3-0.1,0.6-0.1,0.9-0.1s0.5,0,0.8,0
		c2.3,0,3.8,0.6,4.6,2c0.8,1.3,1.1,3.1,1.1,5.2l-0.1,28.9h15.3c2,0,3.6,0.6,4.8,1.7c1.2,1.2,1.8,2.9,1.8,5.2V102
		c0,2.6-0.6,4.4-1.8,5.6c-1.2,1.2-2.8,1.8-4.8,1.8h-15.3l0.1,73.9c0,2.3-0.7,4.1-2,5.3s-3.2,1.8-5.6,1.8h-20.8
		c-4.7,0-7.1-2.4-7.1-7.1l-0.1-73.9h-6.7c-4.7,0-7.1-2.5-7.1-7.4V84.5c0-4.7,2.4-7,7.1-7h6.7L1004.4,55.7L1004.4,55.7z M889.7,132.4
		c0,4,0.6,7.8,1.9,11.3c1.3,3.5,3,6.6,5.4,9.1c2.3,2.6,5.1,4.6,8.4,6.1c3.3,1.5,6.9,2.2,10.9,2.2c4.1,0,7.9-0.7,11.5-2.2
		c3.5-1.5,6.6-3.6,9.2-6.1c2.6-2.5,4.6-5.6,6.1-9.1s2.2-7.3,2.2-11.3c0-3.9-0.7-7.6-2.2-11.2s-3.5-6.7-6.1-9.3
		c-2.6-2.7-5.7-4.8-9.2-6.4s-7.4-2.3-11.5-2.3c-4,0-7.6,0.8-10.9,2.3c-3.3,1.6-6.1,3.7-8.4,6.4c-2.3,2.7-4.1,5.8-5.4,9.3
		C890.3,124.8,889.7,128.5,889.7,132.4L889.7,132.4z M980.2,183.9c0,1-0.2,2.1-0.6,3c-0.4,0.9-1,1.7-1.8,2.2
		c-0.7,0.7-1.5,1.1-2.4,1.3s-1.7,0.3-2.4,0.3h-18c-1.3,0-2.3-0.2-3.1-0.5s-1.4-0.8-1.9-1.4c-0.5-0.6-0.9-1.3-1.2-2.2
		s-0.7-1.9-1.1-2.9l-2.7-6.9c-1.7,1.7-3.5,3.4-5.4,5.3c-2,1.9-4.1,3.6-6.5,5.2c-2.4,1.6-4.9,2.9-7.7,4s-5.7,1.6-8.8,1.6
		c-5.6,0-10.9-0.7-16-2.1c-5.1-1.4-9.9-3.4-14.3-6c-4.4-2.6-8.5-5.7-12.1-9.4c-3.6-3.6-6.7-7.7-9.3-12.2s-4.6-9.3-6-14.5
		s-2.1-10.6-2.1-16.2c0-8.5,1.6-16.4,4.7-23.8c3.1-7.3,7.4-13.7,12.8-19.1c5.4-5.4,11.7-9.7,19-12.8c7.3-3.1,15.1-4.7,23.4-4.7
		c3.8,0,7.3,0.6,10.5,1.7s6.1,2.6,8.7,4.5c2.6,1.8,5,3.9,7.1,6.2c2.1,2.3,4,4.7,5.6,7.1l3.6-11.2c0.6-1.6,1.1-2.8,1.5-3.8
		c0.4-0.9,0.8-1.7,1.3-2.1c0.5-0.5,1-0.8,1.7-0.9c0.7-0.2,1.6-0.2,2.8-0.2h13.7c0.7,0,1.5,0.1,2.4,0.3c0.9,0.2,1.7,0.6,2.4,1.3
		c0.9,0.7,1.5,1.4,1.8,2.3c0.4,0.9,0.6,1.8,0.6,2.9v103.7H980.2z M830.2,154.7c0.9-0.6,1.7-1,2.5-1.2s1.3-0.2,1.8-0.2
		c1,0,2,0.2,2.8,0.6c0.9,0.4,1.7,1.3,2.7,2.8l10.3,15.6c0.3,0.5,0.6,1,0.9,1.7s0.4,1.1,0.4,1.5c0,1.4-0.4,2.6-1.3,3.5
		c-0.9,0.9-1.9,1.7-2.9,2.4c-5,3.5-10.5,6.3-16.5,8.4c-6,2.1-12.3,3.2-19,3.2c-5.5,0-10.8-0.7-15.9-2.1c-5.1-1.4-9.9-3.4-14.3-6
		c-4.4-2.6-8.5-5.7-12.1-9.4c-3.7-3.6-6.8-7.7-9.4-12.2c-2.6-4.5-4.6-9.3-6-14.5s-2.2-10.6-2.2-16.2c0-5.6,0.7-11.1,2.2-16.3
		c1.4-5.2,3.4-10,6-14.5c2.6-4.4,5.7-8.5,9.4-12.1s7.7-6.8,12.1-9.3c4.4-2.6,9.2-4.6,14.3-6s10.4-2.1,15.9-2.1
		c6.7,0,12.9,0.9,18.5,2.7c5.7,1.8,11,4.4,15.9,7.9l-0.3-0.3c1.3,0.8,2.4,1.7,3.2,2.8c0.8,1.1,1.2,2.4,1.2,4c0,1.1-0.4,2.2-1.1,3.4
		l-8.2,13.9c-1.7,3-3.8,4.5-6.2,4.5c-0.6,0-1.2-0.2-2-0.4c-0.8-0.3-1.7-0.7-2.7-1.4c-2.7-1.8-5.6-3.2-8.7-4.4
		c-3.1-1.1-6.4-1.7-9.9-1.7c-3.9,0-7.4,0.8-10.7,2.3c-3.2,1.6-6,3.7-8.3,6.4c-2.3,2.7-4.1,5.8-5.4,9.3c-1.3,3.6-1.9,7.3-1.9,11.2
		c0,4,0.6,7.8,1.9,11.3c1.3,3.5,3.1,6.6,5.4,9.1c2.3,2.6,5.1,4.6,8.3,6.1s6.8,2.2,10.7,2.2c3.5,0,6.8-0.6,9.8-1.8
		C824.5,158.2,827.4,156.6,830.2,154.7L830.2,154.7z M736,189.1c-0.8,0.7-1.6,1.1-2.5,1.3s-1.7,0.3-2.5,0.3h-13.9
		c-1.1,0-2.1-0.2-2.8-0.6c-0.8-0.4-1.5-0.9-2-1.6c-0.6-0.7-1-1.4-1.4-2.3c-0.4-0.9-0.7-1.7-0.9-2.7l-2.8-11.7c-0.9,1.9-2.2,4-4,6.5
		c-1.7,2.4-4,4.7-6.7,6.8s-5.9,3.9-9.7,5.3c-3.7,1.4-8,2.1-12.9,2.1c-7,0-13.3-1.3-19-4s-10.5-6.4-14.6-11c-4-4.7-7.1-10.1-9.3-16.3
		s-3.3-12.8-3.3-19.9V81c0-2.3,0.5-4.1,1.5-5.3c1-1.2,2.6-1.8,4.8-1.8h21.2c2.6,0,4.4,0.5,5.4,1.3c1,0.9,1.5,2.6,1.5,5.2v59.9
		c0,2.6,0.6,5.1,1.8,7.5s2.8,4.4,4.7,6.2c2,1.8,4.2,3.2,6.7,4.3c2.5,1,5,1.6,7.6,1.6c2.2,0,4.5-0.5,6.9-1.6c2.4-1,4.5-2.5,6.5-4.2
		s3.6-3.8,4.9-6.2c1.3-2.4,1.9-4.9,1.9-7.5V80.7c0-1,0.2-2.1,0.6-3.1c0.4-1,1-1.8,1.8-2.4c0.8-0.5,1.6-0.8,2.3-1s1.5-0.3,2.4-0.3
		H731c2.6,0,4.5,0.6,5.7,1.9s1.7,3,1.7,5.1v102.8c0,1.2-0.2,2.2-0.8,3.2c-0.5,1-1.3,1.7-2.2,2.3L736,189.1L736,189.1z M520.1,132.4
		c0,4,0.6,7.8,1.9,11.3c1.3,3.5,3,6.6,5.4,9.1c2.3,2.6,5.1,4.6,8.4,6.1c3.3,1.5,6.9,2.2,10.9,2.2c3.9,0,7.6-0.7,11.1-2.1
		c3.5-1.4,6.5-3.3,9-5.8c2.6-2.5,4.7-5.4,6.2-8.8c1.6-3.4,2.4-7,2.6-10.8v-1.3c0-3.9-0.7-7.6-2.2-11.2s-3.5-6.7-6.1-9.3
		c-2.6-2.7-5.7-4.8-9.2-6.4s-7.4-2.3-11.5-2.3c-4,0-7.6,0.8-10.9,2.3c-3.3,1.6-6.1,3.7-8.4,6.4c-2.3,2.7-4.1,5.8-5.4,9.3
		C520.7,124.8,520.1,128.5,520.1,132.4L520.1,132.4z M572.9,176.4c-1.7,1.7-3.5,3.5-5.5,5.4s-4.2,3.7-6.6,5.3c-2.4,1.7-5,3-7.7,4.1
		c-2.8,1.1-5.7,1.6-8.9,1.6c-8.3,0-16-1.6-23-4.7c-7-3.1-13-7.4-18.1-12.8c-5.1-5.4-9-11.8-11.9-19.2c-2.8-7.4-4.3-15.3-4.3-23.7
		c0-8.5,1.4-16.4,4.3-23.8c2.9-7.3,6.8-13.7,11.9-19.1s11.1-9.7,18.1-12.8c7-3.1,14.7-4.7,23-4.7c3.4,0,6.5,0.5,9.3,1.5
		s5.3,2.2,7.6,3.8c2.3,1.5,4.4,3.2,6.3,5.2c1.9,1.9,3.7,3.8,5.5,5.7v-42c0-2,0.6-3.6,1.8-5c1.2-1.3,3-2,5.4-2h20.7
		c0.8,0,1.7,0.2,2.5,0.5c0.9,0.3,1.7,0.8,2.4,1.4c0.7,0.6,1.3,1.3,1.8,2.2s0.7,1.8,0.7,2.8v137.4c0,4.7-2.5,7.1-7.4,7.1h-18
		c-1.2,0-2.2-0.2-2.8-0.5c-0.7-0.3-1.2-0.7-1.7-1.3s-0.9-1.3-1.3-2.2c-0.4-0.9-0.8-1.9-1.4-3.1L572.9,176.4L572.9,176.4z
		 M375.5,58.3c0-1.3,0.4-2.3,1.1-3.1s1.7-1.2,3-1.2h91.3c1.3,0,2.4,0.4,3.1,1.2s1.1,1.9,1.1,3.2v22.8c0,1-0.4,2-1.1,3
		c-0.7,0.9-1.8,1.4-3.2,1.4h-59.6v22.8h46c1.2,0,2.1,0.3,2.9,0.8c0.8,0.6,1.1,1.5,1.1,2.8v20c0,0.9-0.3,1.7-1,2.5s-1.7,1.2-2.9,1.2
		h-46V159h61.8c2.8,0,4.1,1.4,4.1,4.2v23.2c0,0.6-0.2,1.2-0.7,1.7c-0.2,1.7-1.5,2.6-3.8,2.6h-93c-1.2,0-2.2-0.3-2.9-1
		c-0.7-0.6-1.1-1.6-1.1-3V58.3H375.5z M284.9,125.8c0-2.7,1.3-4,4-4h62.7c1.1,0,2.1,0.4,2.8,1.1c0.8,0.7,1.2,1.7,1.2,3v18.7
		c0,0.9-0.4,1.9-1.1,2.9s-1.7,1.5-2.9,1.5H289c-2.7,0-4-1.5-4-4.4v-18.8H284.9z"/>
	<path class="st1" d="M160.3,75.5c0.8-0.7,1.7-1.1,2.5-1.3c0.9-0.2,1.7-0.3,2.5-0.3h13.9c1.1,0,2.1,0.2,2.8,0.6
		c0.8,0.4,1.5,0.9,2,1.6c0.6,0.7,1,1.4,1.3,2.3s0.6,1.7,0.9,2.7l2.8,11.7c0.9-1.9,2.3-4,4-6.5c1.7-2.4,4-4.7,6.6-6.8
		c2.7-2.1,5.9-3.9,9.6-5.3c3.7-1.4,8-2.1,12.9-2.1c7,0,13.3,1.3,19,4s10.6,6.3,14.6,11c4,4.6,7.1,10,9.3,16.3
		c2.2,6.2,3.3,12.8,3.3,19.9v60.2c0,2.3-0.5,4.1-1.5,5.3s-2.6,1.8-4.8,1.8h-21c-2.6,0-4.4-0.5-5.4-1.3c-1-0.9-1.5-2.6-1.5-5.2v-59.8
		c0-2.6-0.6-5.1-1.8-7.5s-2.8-4.4-4.7-6.2c-2-1.8-4.2-3.2-6.6-4.3c-2.5-1-5-1.6-7.6-1.6c-2.2,0-4.4,0.5-6.7,1.5s-4.4,2.3-6.3,4.1
		c-1.9,1.7-3.6,3.8-4.9,6.2c-1.3,2.4-2.1,4.9-2.3,7.7v59.7c0,1-0.2,2.1-0.6,3.1c-0.4,1-1,1.8-1.8,2.4c-0.8,0.5-1.5,0.8-2.2,1
		s-1.5,0.3-2.5,0.3h-20.8c-2.6,0-4.5-0.6-5.7-1.9c-1.2-1.3-1.7-3-1.7-5.1v-103c0-1.2,0.3-2.2,0.8-3.2s1.2-1.7,2.1-2.3L160.3,75.5
		L160.3,75.5z M3.6,122.5c0-6.5,0.8-12.7,2.5-18.7s4-11.6,7.1-16.8c3.1-5.2,6.7-10,11-14.3s9-7.9,14.2-11c5.2-3,10.8-5.4,16.8-7.1
		c6-1.7,12.2-2.5,18.7-2.5c6.4,0,12.7,0.9,18.7,2.5c6,1.7,11.6,4,16.8,7.1c5.2,3,10,6.7,14.3,11s8,9.1,11,14.3
		c3,5.2,5.4,10.8,7.1,16.8c1.7,6,2.5,12.2,2.5,18.7s-0.9,12.7-2.5,18.7c-1.7,6-4,11.6-7.1,16.8c-3,5.2-6.7,9.9-11,14.2
		s-9.1,7.9-14.3,11c-5.2,3.1-10.8,5.4-16.8,7.1c-6,1.7-12.3,2.5-18.7,2.5c-6.5,0-12.8-0.8-18.7-2.5c-6-1.7-11.6-4-16.8-7.1
		s-10-6.7-14.2-11c-4.3-4.3-7.9-9-11-14.2s-5.5-10.8-7.1-16.8C4.4,135.2,3.6,129,3.6,122.5L3.6,122.5z M39.3,122.4
		c0,5.1,0.9,9.8,2.6,14.2c1.7,4.4,4.1,8.2,7.2,11.5c3.1,3.3,6.7,5.9,11,7.7c4.2,1.9,8.9,2.8,14,2.8s9.7-0.9,14-2.8
		c4.3-1.9,7.9-4.4,11-7.7s5.5-7.1,7.2-11.5s2.6-9.2,2.6-14.2s-0.9-9.8-2.6-14.2c-1.7-4.4-4.1-8.3-7.2-11.6c-3.1-3.3-6.8-5.9-11-7.8
		s-8.9-2.8-14-2.8s-9.7,0.9-14,2.8c-4.2,1.9-7.9,4.5-11,7.8s-5.5,7.2-7.2,11.6C40.1,112.6,39.3,117.3,39.3,122.4z"/>
	<path class="st0" d="M58.4,132.4c-3.2-9.5-3.7-13-5.6-18.6C51,108.3,51,102.7,58.4,99s13-1.9,16.7,9.3c3.7,11.1,5.6,9.3,13-1.9
		c7.4-11.1,41.4-62.6,50.1-70.6c8.8-8,14.4-7.1,19-7.4c3.7,0,10.3,0.8-4.3,18c-7.1,8.4-59.3,76.7-66.7,93.4c0,0-3.7,5-9.3,5.6
		C71.1,146,63.9,149.1,58.4,132.4z"/>
</g>
</svg>
