<?xml version="1.0" encoding="utf-8"?>
<!-- Generator: Adobe Illustrator 22.0.0, SVG Export Plug-In . SVG Version: 6.00 Build 0)  -->
<svg version="1.1" id="Layer_1" xmlns="http://www.w3.org/2000/svg" xmlns:xlink="http://www.w3.org/1999/xlink" x="0px" y="0px"
	 viewBox="0 0 1370.6 321.3" style="enable-background:new 0 0 1370.6 321.3;" xml:space="preserve">
<style type="text/css">
	.st0{fill-rule:evenodd;clip-rule:evenodd;fill:#1A1A18;}
	.st1{fill-rule:evenodd;clip-rule:evenodd;fill:#FFFFFF;}
</style>
<title>logo</title>
<g>
	<path class="st0" d="M10.7,301.3h14.2l3.1-14.3h18l3.1,14.3h14.2l-17.9-67.7H28.6L10.7,301.3L10.7,301.3z M36.9,245.3h0.2l6.5,30.4
		H30.4L36.9,245.3L36.9,245.3z M110.7,256.4c0-9.9-1.4-24.2-21-24.2c-20.5,0-23,14.6-23,35.2c0,20.6,2.6,35.2,23,35.2
		c17.9,0,21.5-12.6,21.5-27.2H97.6c0,14.6-3.6,17.2-8.5,17.2c-5.9,0-8.7-3.7-8.7-24.2c0-19.2,1.6-26.1,8.5-26.1
		c6.2,0,8.2,4.3,8.2,14.1H110.7L110.7,256.4z M115.5,233.5v11.2h14.8v56.5h13.7v-56.5h14.8v-11.2H115.5L115.5,233.5z M178.9,301.3
		v-67.7h-13.7v67.7H178.9L178.9,301.3z M184.6,233.5l15.6,67.7h17.5l15.6-67.7h-14.1l-10.1,50.1h-0.3l-9.6-50.1H184.6L184.6,233.5z
		 M230,301.3l17.9-67.7h16.9l17.9,67.7h-14.2l-3.1-14.3h-18l-3.1,14.3H230L230,301.3z M256.3,245.3l-6.5,30.4H263l-6.5-30.4H256.3
		L256.3,245.3z M335.2,301.3h6.1v-62.6h17.4v-5.1h-41v5.1h17.4V301.3L335.2,301.3z M363.6,282.3c0,14.2,6.9,20.1,19.3,20.1
		c12.4,0,19.3-5.9,19.3-20.1v-48.7h-6.1v48.7c0,10.1-4.4,15.1-13.3,15.1c-8.9,0-13.3-4.9-13.3-15.1v-48.7h-6.1V282.3L363.6,282.3z
		 M434.8,301.3h6.1v-32.8h25.7v-5.1h-25.7v-24.7h27.5v-5.1h-33.6V301.3L434.8,301.3z M474.6,267.4c0,24.3,7.8,35,21.6,35
		c13.8,0,21.6-10.7,21.6-35c0-24.3-7.8-35-21.6-35C482.4,232.4,474.6,243.1,474.6,267.4L474.6,267.4z M480.7,267.4
		c0-21.9,5.9-29.9,15.6-29.9c9.7,0,15.6,8,15.6,29.9c0,21.9-5.9,29.9-15.6,29.9C486.5,297.3,480.7,289.3,480.7,267.4L480.7,267.4z
		 M527.9,301.3h6.1v-30.9h11.5c10.9,0,13.1,3.8,13.5,15.7l0.2,5.7c0.1,3.6,0.4,7.1,1.8,9.5h7.1c-2.4-2.7-2.7-6.3-2.8-10l-0.2-7.4
		c-0.3-10.4-3.1-15.3-11.6-16v-0.2c9-1.7,12.2-9,12.2-17.2c0-10.5-6.3-17-17.5-17h-20.2V301.3L527.9,301.3z M534,238.7h11.1
		c11,0,14.5,5,14.5,13.3c0,8.9-5.6,13.3-15.2,13.3H534V238.7L534,238.7z M575.9,301.3h6.1v-62h0.2l17.5,62h5.7l17.5-62h0.2v62h6.1
		v-67.7h-10l-16.3,60.1h-0.2l-16.3-60.1h-10.5V301.3L575.9,301.3z M648.2,276.4l10.4-38.1h0.2l10.4,38.1H648.2L648.2,276.4z
		 M635,301.3h6.4l5.5-19.7h23.7l5.5,19.7h6.4l-20-67.7H655L635,301.3L635,301.3z M722.9,278.3c-0.7,11.7-5.5,19-14,19
		c-9.7,0-15.6-8-15.6-29.9c0-21.9,5.9-29.9,15.6-29.9c8.7,0,13.4,6.5,13.4,15.7h6.1c0-11.1-5.7-20.9-19.4-20.9
		c-13.8,0-21.6,10.7-21.6,35c0,24.3,7.8,35,21.6,35c12.1,0,19.3-8.6,20.1-24.1H722.9L722.9,278.3z M737.4,301.3h6.1v-67.7h-6.1
		V301.3L737.4,301.3z M753.9,267.4c0,24.3,7.8,35,21.6,35c13.8,0,21.6-10.7,21.6-35c0-24.3-7.8-35-21.6-35
		C761.7,232.4,753.9,243.1,753.9,267.4L753.9,267.4z M760,267.4c0-21.9,5.9-29.9,15.6-29.9c9.7,0,15.6,8,15.6,29.9
		c0,21.9-5.9,29.9-15.6,29.9C765.8,297.3,760,289.3,760,267.4L760,267.4z M778.5,216.9l-7.1,13.4h4.6l9.3-13.4H778.5L778.5,216.9z
		 M807.2,301.3h6.1v-59h0.2l25.9,59h8.2v-67.7h-6.1v59h-0.2l-25.9-59h-8.2V301.3z"/>
	<path class="st1" d="M1256.2,75.5c0.8-0.7,1.7-1.1,2.5-1.3c0.9-0.2,1.7-0.3,2.5-0.3h13.9c1.1,0,2.1,0.2,2.8,0.6
		c0.8,0.4,1.5,0.9,2,1.6c0.6,0.7,1,1.4,1.3,2.3c0.3,0.9,0.6,1.7,0.9,2.7l2.8,11.7c0.9-1.9,2.3-4,4-6.5c1.7-2.4,4-4.7,6.6-6.8
		c2.7-2.1,5.9-3.9,9.6-5.3c3.7-1.4,8-2.1,12.9-2.1c7,0,13.3,1.3,19,4c5.7,2.7,10.6,6.3,14.6,11c4,4.6,7.1,10,9.3,16.3
		c2.2,6.2,3.3,12.8,3.3,19.9v60.2c0,2.3-0.5,4.1-1.5,5.3c-1,1.2-2.6,1.8-4.8,1.8H1337c-2.6,0-4.4-0.5-5.4-1.3
		c-1-0.9-1.5-2.6-1.5-5.2v-59.8c0-2.6-0.6-5.1-1.8-7.5c-1.2-2.4-2.8-4.4-4.7-6.2c-2-1.8-4.2-3.2-6.6-4.3c-2.5-1-5-1.6-7.6-1.6
		c-2.2,0-4.4,0.5-6.7,1.5c-2.3,1-4.4,2.3-6.3,4.1c-1.9,1.7-3.6,3.8-4.9,6.2c-1.3,2.4-2.1,4.9-2.3,7.7v59.7c0,1-0.2,2.1-0.6,3.1
		c-0.4,1-1,1.8-1.8,2.4c-0.8,0.5-1.5,0.8-2.2,1c-0.7,0.2-1.5,0.3-2.5,0.3h-20.8c-2.6,0-4.5-0.6-5.7-1.9c-1.2-1.3-1.7-3-1.7-5.1V80.7
		c0-1.2,0.3-2.2,0.8-3.2c0.5-1,1.2-1.7,2.1-2.3L1256.2,75.5L1256.2,75.5z M1153.4,132.4c0,4,0.6,7.8,1.9,11.3c1.3,3.5,3,6.6,5.3,9.1
		c2.3,2.6,5.1,4.6,8.4,6.1c3.3,1.5,7,2.2,11.1,2.2c4,0,7.6-0.7,10.8-2.2c3.2-1.5,5.9-3.6,8.2-6.1c2.2-2.5,4-5.6,5.1-9.1
		c1.2-3.5,1.8-7.3,1.8-11.3c0-3.9-0.6-7.6-1.8-11.2c-1.2-3.6-2.9-6.7-5.1-9.3c-2.2-2.7-5-4.8-8.2-6.4c-3.2-1.6-6.8-2.3-10.8-2.3
		c-4.1,0-7.8,0.8-11.1,2.3c-3.3,1.6-6.1,3.7-8.4,6.4c-2.3,2.7-4.1,5.8-5.3,9.3C1154.1,124.8,1153.4,128.5,1153.4,132.4L1153.4,132.4
		z M1119.9,132.4c0-5.6,0.7-11.1,2.2-16.3c1.4-5.2,3.5-10,6.1-14.5c2.6-4.4,5.7-8.5,9.4-12.1c3.6-3.6,7.7-6.8,12.2-9.3
		c4.5-2.6,9.3-4.6,14.5-6c5.2-1.4,10.6-2.1,16.2-2.1c8.3,0,16.2,1.6,23.5,4.7c7.3,3.1,13.7,7.4,19.1,12.8
		c5.4,5.4,9.7,11.8,12.9,19.1c3.2,7.4,4.7,15.3,4.7,23.8c0,5.7-0.7,11.1-2.1,16.2c-1.4,5.2-3.5,10-6.1,14.5
		c-2.6,4.5-5.7,8.5-9.4,12.2c-3.6,3.6-7.7,6.8-12.2,9.4c-4.5,2.6-9.3,4.6-14.4,6c-5.1,1.4-10.5,2.1-16.1,2.1c-5.6,0-11-0.7-16.2-2.1
		c-5.2-1.4-10-3.4-14.5-6c-4.5-2.6-8.5-5.7-12.2-9.4c-3.6-3.6-6.8-7.7-9.4-12.2c-2.6-4.5-4.6-9.3-6.1-14.5
		C1120.6,143.5,1119.9,138.1,1119.9,132.4L1119.9,132.4z M1071.1,34.6c0-2.6,0.6-4.4,1.7-5.5c1.1-1.1,2.8-1.6,5.1-1.6h21.3
		c2.1,0,3.9,0.5,5.2,1.6c1.3,1.1,2,2.9,2,5.5v17.9c0,0.7-0.2,1.5-0.5,2.4c-0.3,0.9-0.8,1.7-1.4,2.5c-0.6,0.8-1.3,1.4-2.2,2
		c-0.9,0.5-1.9,0.8-3,0.8h-21.3c-4.5,0-6.8-2.5-6.8-7.6V34.6L1071.1,34.6z M1071.1,81.1c0-2,0.6-3.6,1.7-5.1
		c1.1-1.4,2.8-2.1,5.1-2.1h21c0.7,0,1.5,0.2,2.4,0.5c0.9,0.3,1.7,0.8,2.4,1.5c0.7,0.6,1.4,1.4,1.9,2.3c0.5,0.9,0.8,1.8,0.8,2.9
		v102.5c0,2.3-0.6,4.1-1.9,5.3c-1.3,1.2-3.1,1.8-5.5,1.8h-21c-4.5,0-6.8-2.4-6.8-7.1V81.1L1071.1,81.1z M1004.4,55.7
		c0-1.9,0.6-3.3,1.9-4.3c1.3-1,3-1.8,5.4-2.7l20.9-7.3c0.3-0.1,0.6-0.1,0.9-0.1c0.3,0,0.5,0,0.8,0c2.3,0,3.8,0.6,4.6,2
		c0.8,1.3,1.1,3.1,1.1,5.2l-0.1,28.9h15.3c2,0,3.6,0.6,4.8,1.7c1.2,1.2,1.8,2.9,1.8,5.2v17.7c0,2.6-0.6,4.4-1.8,5.6
		c-1.2,1.2-2.8,1.8-4.8,1.8h-15.3l0.1,73.9c0,2.3-0.7,4.1-2,5.3c-1.3,1.2-3.2,1.8-5.6,1.8h-20.8c-4.7,0-7.1-2.4-7.1-7.1l-0.1-73.9
		h-6.7c-4.7,0-7.1-2.5-7.1-7.4V84.5c0-4.7,2.4-7,7.1-7h6.7L1004.4,55.7L1004.4,55.7z M889.7,132.4c0,4,0.6,7.8,1.9,11.3
		c1.3,3.5,3,6.6,5.4,9.1c2.3,2.6,5.1,4.6,8.4,6.1c3.3,1.5,6.9,2.2,10.9,2.2c4.1,0,7.9-0.7,11.5-2.2c3.5-1.5,6.6-3.6,9.2-6.1
		c2.6-2.5,4.6-5.6,6.1-9.1c1.5-3.5,2.2-7.3,2.2-11.3c0-3.9-0.7-7.6-2.2-11.2c-1.5-3.6-3.5-6.7-6.1-9.3c-2.6-2.7-5.7-4.8-9.2-6.4
		c-3.5-1.6-7.4-2.3-11.5-2.3c-4,0-7.6,0.8-10.9,2.3c-3.3,1.6-6.1,3.7-8.4,6.4c-2.3,2.7-4.1,5.8-5.4,9.3
		C890.3,124.8,889.7,128.5,889.7,132.4L889.7,132.4z M980.2,183.9c0,1-0.2,2.1-0.6,3c-0.4,0.9-1,1.7-1.8,2.2
		c-0.7,0.7-1.5,1.1-2.4,1.3c-0.9,0.2-1.7,0.3-2.4,0.3H955c-1.3,0-2.3-0.2-3.1-0.5c-0.8-0.3-1.4-0.8-1.9-1.4
		c-0.5-0.6-0.9-1.3-1.2-2.2c-0.3-0.9-0.7-1.9-1.1-2.9l-2.7-6.9c-1.7,1.7-3.5,3.4-5.4,5.3c-2,1.9-4.1,3.6-6.5,5.2
		c-2.4,1.6-4.9,2.9-7.7,4c-2.8,1.1-5.7,1.6-8.8,1.6c-5.6,0-10.9-0.7-16-2.1c-5.1-1.4-9.9-3.4-14.3-6c-4.4-2.6-8.5-5.7-12.1-9.4
		c-3.6-3.6-6.7-7.7-9.3-12.2c-2.6-4.5-4.6-9.3-6-14.5c-1.4-5.2-2.1-10.6-2.1-16.2c0-8.5,1.6-16.4,4.7-23.8
		c3.1-7.3,7.4-13.7,12.8-19.1c5.4-5.4,11.7-9.7,19-12.8c7.3-3.1,15.1-4.7,23.4-4.7c3.8,0,7.3,0.6,10.5,1.7c3.2,1.1,6.1,2.6,8.7,4.5
		c2.6,1.8,5,3.9,7.1,6.2c2.1,2.3,4,4.7,5.6,7.1l3.6-11.2c0.6-1.6,1.1-2.8,1.5-3.8c0.4-0.9,0.8-1.7,1.3-2.1c0.5-0.5,1-0.8,1.7-0.9
		c0.7-0.2,1.6-0.2,2.8-0.2h13.7c0.7,0,1.5,0.1,2.4,0.3c0.9,0.2,1.7,0.6,2.4,1.3c0.9,0.7,1.5,1.4,1.8,2.3c0.4,0.9,0.6,1.8,0.6,2.9
		V183.9L980.2,183.9z M830.2,154.7c0.9-0.6,1.7-1,2.5-1.2c0.8-0.2,1.3-0.2,1.8-0.2c1,0,2,0.2,2.8,0.6c0.9,0.4,1.7,1.3,2.7,2.8
		l10.3,15.6c0.3,0.5,0.6,1,0.9,1.7s0.4,1.1,0.4,1.5c0,1.4-0.4,2.6-1.3,3.5c-0.9,0.9-1.9,1.7-2.9,2.4c-5,3.5-10.5,6.3-16.5,8.4
		c-6,2.1-12.3,3.2-19,3.2c-5.5,0-10.8-0.7-15.9-2.1c-5.1-1.4-9.9-3.4-14.3-6c-4.4-2.6-8.5-5.7-12.1-9.4c-3.7-3.6-6.8-7.7-9.4-12.2
		c-2.6-4.5-4.6-9.3-6-14.5c-1.4-5.2-2.2-10.6-2.2-16.2c0-5.6,0.7-11.1,2.2-16.3c1.4-5.2,3.4-10,6-14.5c2.6-4.4,5.7-8.5,9.4-12.1
		c3.7-3.6,7.7-6.8,12.1-9.3c4.4-2.6,9.2-4.6,14.3-6c5.1-1.4,10.4-2.1,15.9-2.1c6.7,0,12.9,0.9,18.5,2.7c5.7,1.8,11,4.4,15.9,7.9
		l-0.3-0.3c1.3,0.8,2.4,1.7,3.2,2.8c0.8,1.1,1.2,2.4,1.2,4c0,1.1-0.4,2.2-1.1,3.4l-8.2,13.9c-1.7,3-3.8,4.5-6.2,4.5
		c-0.6,0-1.2-0.2-2-0.4c-0.8-0.3-1.7-0.7-2.7-1.4c-2.7-1.8-5.6-3.2-8.7-4.4c-3.1-1.1-6.4-1.7-9.9-1.7c-3.9,0-7.4,0.8-10.7,2.3
		c-3.2,1.6-6,3.7-8.3,6.4c-2.3,2.7-4.1,5.8-5.4,9.3c-1.3,3.6-1.9,7.3-1.9,11.2c0,4,0.6,7.8,1.9,11.3c1.3,3.5,3.1,6.6,5.4,9.1
		c2.3,2.6,5.1,4.6,8.3,6.1c3.2,1.5,6.8,2.2,10.7,2.2c3.5,0,6.8-0.6,9.8-1.8C824.5,158.2,827.4,156.6,830.2,154.7L830.2,154.7z
		 M736,189.1c-0.8,0.7-1.6,1.1-2.5,1.3c-0.9,0.2-1.7,0.3-2.5,0.3h-13.9c-1.1,0-2.1-0.2-2.8-0.6c-0.8-0.4-1.5-0.9-2-1.6
		c-0.6-0.7-1-1.4-1.4-2.3c-0.4-0.9-0.7-1.7-0.9-2.7l-2.8-11.7c-0.9,1.9-2.2,4-4,6.5c-1.7,2.4-4,4.7-6.7,6.8
		c-2.7,2.1-5.9,3.9-9.7,5.3c-3.7,1.4-8,2.1-12.9,2.1c-7,0-13.3-1.3-19-4c-5.7-2.7-10.5-6.4-14.6-11c-4-4.7-7.1-10.1-9.3-16.3
		c-2.2-6.2-3.3-12.8-3.3-19.9V81c0-2.3,0.5-4.1,1.5-5.3c1-1.2,2.6-1.8,4.8-1.8h21.2c2.6,0,4.4,0.5,5.4,1.3c1,0.9,1.5,2.6,1.5,5.2
		v59.9c0,2.6,0.6,5.1,1.8,7.5c1.2,2.4,2.8,4.4,4.7,6.2c2,1.8,4.2,3.2,6.7,4.3c2.5,1,5,1.6,7.6,1.6c2.2,0,4.5-0.5,6.9-1.6
		c2.4-1,4.5-2.5,6.5-4.2c2-1.7,3.6-3.8,4.9-6.2c1.3-2.4,1.9-4.9,1.9-7.5V80.7c0-1,0.2-2.1,0.6-3.1c0.4-1,1-1.8,1.8-2.4
		c0.8-0.5,1.6-0.8,2.3-1c0.7-0.2,1.5-0.3,2.4-0.3H731c2.6,0,4.5,0.6,5.7,1.9c1.2,1.3,1.7,3,1.7,5.1v102.8c0,1.2-0.2,2.2-0.8,3.2
		c-0.5,1-1.3,1.7-2.2,2.3L736,189.1L736,189.1z M520.1,132.4c0,4,0.6,7.8,1.9,11.3c1.3,3.5,3,6.6,5.4,9.1c2.3,2.6,5.1,4.6,8.4,6.1
		c3.3,1.5,6.9,2.2,10.9,2.2c3.9,0,7.6-0.7,11.1-2.1c3.5-1.4,6.5-3.3,9-5.8c2.6-2.5,4.7-5.4,6.2-8.8c1.6-3.4,2.4-7,2.6-10.8v-1.3
		c0-3.9-0.7-7.6-2.2-11.2c-1.5-3.6-3.5-6.7-6.1-9.3c-2.6-2.7-5.7-4.8-9.2-6.4c-3.5-1.6-7.4-2.3-11.5-2.3c-4,0-7.6,0.8-10.9,2.3
		c-3.3,1.6-6.1,3.7-8.4,6.4c-2.3,2.7-4.1,5.8-5.4,9.3C520.7,124.8,520.1,128.5,520.1,132.4L520.1,132.4z M572.9,176.4
		c-1.7,1.7-3.5,3.5-5.5,5.4s-4.2,3.7-6.6,5.3c-2.4,1.7-5,3-7.7,4.1c-2.8,1.1-5.7,1.6-8.9,1.6c-8.3,0-16-1.6-23-4.7
		c-7-3.1-13-7.4-18.1-12.8c-5.1-5.4-9-11.8-11.9-19.2c-2.8-7.4-4.3-15.3-4.3-23.7c0-8.5,1.4-16.4,4.3-23.8
		c2.9-7.3,6.8-13.7,11.9-19.1c5.1-5.4,11.1-9.7,18.1-12.8c7-3.1,14.7-4.7,23-4.7c3.4,0,6.5,0.5,9.3,1.5c2.8,1,5.3,2.2,7.6,3.8
		c2.3,1.5,4.4,3.2,6.3,5.2c1.9,1.9,3.7,3.8,5.5,5.7v-42c0-2,0.6-3.6,1.8-5c1.2-1.3,3-2,5.4-2h20.7c0.8,0,1.7,0.2,2.5,0.5
		c0.9,0.3,1.7,0.8,2.4,1.4c0.7,0.6,1.3,1.3,1.8,2.2c0.5,0.9,0.7,1.8,0.7,2.8v137.4c0,4.7-2.5,7.1-7.4,7.1h-18
		c-1.2,0-2.2-0.2-2.8-0.5c-0.7-0.3-1.2-0.7-1.7-1.3c-0.5-0.6-0.9-1.3-1.3-2.2c-0.4-0.9-0.8-1.9-1.4-3.1L572.9,176.4L572.9,176.4z
		 M375.5,58.3c0-1.3,0.4-2.3,1.1-3.1c0.7-0.8,1.7-1.2,3-1.2h91.3c1.3,0,2.4,0.4,3.1,1.2c0.7,0.8,1.1,1.9,1.1,3.2v22.8
		c0,1-0.4,2-1.1,3c-0.7,0.9-1.8,1.4-3.2,1.4h-59.6v22.8h46c1.2,0,2.1,0.3,2.9,0.8c0.8,0.6,1.1,1.5,1.1,2.8V132c0,0.9-0.3,1.7-1,2.5
		c-0.7,0.8-1.7,1.2-2.9,1.2h-46V159h61.8c2.8,0,4.1,1.4,4.1,4.2v23.2c0,0.6-0.2,1.2-0.7,1.7c-0.2,1.7-1.5,2.6-3.8,2.6h-93
		c-1.2,0-2.2-0.3-2.9-1c-0.7-0.6-1.1-1.6-1.1-3V58.3L375.5,58.3z M284.9,125.8c0-2.7,1.3-4,4-4h62.7c1.1,0,2.1,0.4,2.8,1.1
		c0.8,0.7,1.2,1.7,1.2,3v18.7c0,0.9-0.4,1.9-1.1,2.9c-0.7,1-1.7,1.5-2.9,1.5H289c-2.7,0-4-1.5-4-4.4V125.8z"/>
	<path class="st1" d="M160.3,75.5c0.8-0.7,1.7-1.1,2.5-1.3c0.9-0.2,1.7-0.3,2.5-0.3h13.9c1.1,0,2.1,0.2,2.8,0.6
		c0.8,0.4,1.5,0.9,2,1.6c0.6,0.7,1,1.4,1.3,2.3c0.3,0.9,0.6,1.7,0.9,2.7l2.8,11.7c0.9-1.9,2.3-4,4-6.5c1.7-2.4,4-4.7,6.6-6.8
		c2.7-2.1,5.9-3.9,9.6-5.3c3.7-1.4,8-2.1,12.9-2.1c7,0,13.3,1.3,19,4c5.7,2.7,10.6,6.3,14.6,11c4,4.6,7.1,10,9.3,16.3
		c2.2,6.2,3.3,12.8,3.3,19.9v60.2c0,2.3-0.5,4.1-1.5,5.3c-1,1.2-2.6,1.8-4.8,1.8H241c-2.6,0-4.4-0.5-5.4-1.3c-1-0.9-1.5-2.6-1.5-5.2
		v-59.8c0-2.6-0.6-5.1-1.8-7.5c-1.2-2.4-2.8-4.4-4.7-6.2c-2-1.8-4.2-3.2-6.6-4.3c-2.5-1-5-1.6-7.6-1.6c-2.2,0-4.4,0.5-6.7,1.5
		c-2.3,1-4.4,2.3-6.3,4.1c-1.9,1.7-3.6,3.8-4.9,6.2c-1.3,2.4-2.1,4.9-2.3,7.7v59.7c0,1-0.2,2.1-0.6,3.1c-0.4,1-1,1.8-1.8,2.4
		c-0.8,0.5-1.5,0.8-2.2,1c-0.7,0.2-1.5,0.3-2.5,0.3h-20.8c-2.6,0-4.5-0.6-5.7-1.9c-1.2-1.3-1.7-3-1.7-5.1V80.7
		c0-1.2,0.3-2.2,0.8-3.2c0.5-1,1.2-1.7,2.1-2.3L160.3,75.5L160.3,75.5z M3.6,122.5c0-6.5,0.8-12.7,2.5-18.7c1.7-6,4-11.6,7.1-16.8
		c3.1-5.2,6.7-10,11-14.3c4.3-4.3,9-7.9,14.2-11c5.2-3,10.8-5.4,16.8-7.1c6-1.7,12.2-2.5,18.7-2.5c6.4,0,12.7,0.9,18.7,2.5
		c6,1.7,11.6,4,16.8,7.1c5.2,3,10,6.7,14.3,11c4.3,4.3,8,9.1,11,14.3c3,5.2,5.4,10.8,7.1,16.8c1.7,6,2.5,12.2,2.5,18.7
		c0,6.5-0.9,12.7-2.5,18.7c-1.7,6-4,11.6-7.1,16.8c-3,5.2-6.7,9.9-11,14.2c-4.3,4.3-9.1,7.9-14.3,11c-5.2,3.1-10.8,5.4-16.8,7.1
		c-6,1.7-12.3,2.5-18.7,2.5c-6.5,0-12.8-0.8-18.7-2.5c-6-1.7-11.6-4-16.8-7.1c-5.2-3.1-10-6.7-14.2-11c-4.3-4.3-7.9-9-11-14.2
		c-3.1-5.2-5.5-10.8-7.1-16.8C4.4,135.2,3.6,129,3.6,122.5L3.6,122.5z M39.3,122.4c0,5.1,0.9,9.8,2.6,14.2c1.7,4.4,4.1,8.2,7.2,11.5
		c3.1,3.3,6.7,5.9,11,7.7c4.2,1.9,8.9,2.8,14,2.8c5.1,0,9.7-0.9,14-2.8c4.3-1.9,7.9-4.4,11-7.7c3.1-3.3,5.5-7.1,7.2-11.5
		c1.7-4.4,2.6-9.2,2.6-14.2c0-5-0.9-9.8-2.6-14.2c-1.7-4.4-4.1-8.3-7.2-11.6c-3.1-3.3-6.8-5.9-11-7.8c-4.2-1.9-8.9-2.8-14-2.8
		c-5.1,0-9.7,0.9-14,2.8c-4.2,1.9-7.9,4.5-11,7.8c-3.1,3.3-5.5,7.2-7.2,11.6C40.1,112.6,39.3,117.3,39.3,122.4z"/>
	<path class="st0" d="M58.4,132.4c-3.2-9.5-3.7-13-5.6-18.6C51,108.3,51,102.7,58.4,99c7.4-3.7,13-1.9,16.7,9.3
		c3.7,11.1,5.6,9.3,13-1.9c7.4-11.1,41.4-62.6,50.1-70.6c8.8-8,14.4-7.1,19-7.4c3.7,0,10.3,0.8-4.3,18c-7.1,8.4-59.3,76.7-66.7,93.4
		c0,0-3.7,5-9.3,5.6C71.1,146,63.9,149.1,58.4,132.4z"/>
</g>
</svg>
