<?xml version="1.0" encoding="utf-8"?>
<!-- Generator: Adobe Illustrator 22.0.0, SVG Export Plug-In . SVG Version: 6.00 Build 0)  -->
<svg version="1.1" id="Layer_1" xmlns="http://www.w3.org/2000/svg" xmlns:xlink="http://www.w3.org/1999/xlink" x="0px" y="0px"
	 viewBox="0 0 1370.6 321.3" style="enable-background:new 0 0 1370.6 321.3;" xml:space="preserve">
<style type="text/css">
	.st0{fill:#FFFFFF;}
	.st1{fill:#1A1A18;}
	.st2{fill:#D34F7D;}
	.st3{fill:#D1497E;}
	.st4{fill:#D6567C;}
</style>
<title>logo</title>
<g>
	<path class="st0" d="M1256.2,75.5c0.8-0.7,1.7-1.1,2.5-1.3c0.9-0.2,1.7-0.3,2.5-0.3h13.9c1.1,0,2.1,0.2,2.8,0.6
		c0.8,0.4,1.5,0.9,2,1.6c0.6,0.7,1,1.4,1.3,2.3s0.6,1.7,0.9,2.7l2.8,11.7c0.9-1.9,2.3-4,4-6.5c1.7-2.4,4-4.7,6.6-6.8
		c2.7-2.1,5.9-3.9,9.6-5.3s8-2.1,12.9-2.1c7,0,13.3,1.3,19,4s10.6,6.3,14.6,11c4,4.6,7.1,10,9.3,16.3c2.2,6.2,3.3,12.8,3.3,19.9
		v60.2c0,2.3-0.5,4.1-1.5,5.3s-2.6,1.8-4.8,1.8H1337c-2.6,0-4.4-0.5-5.4-1.3c-1-0.9-1.5-2.6-1.5-5.2v-59.8c0-2.6-0.6-5.1-1.8-7.5
		c-1.2-2.4-2.8-4.4-4.7-6.2c-2-1.8-4.2-3.2-6.6-4.3c-2.5-1-5-1.6-7.6-1.6c-2.2,0-4.4,0.5-6.7,1.5c-2.3,1-4.4,2.3-6.3,4.1
		c-1.9,1.7-3.6,3.8-4.9,6.2c-1.3,2.4-2.1,4.9-2.3,7.7v59.7c0,1-0.2,2.1-0.6,3.1s-1,1.8-1.8,2.4c-0.8,0.5-1.5,0.8-2.2,1
		s-1.5,0.3-2.5,0.3h-20.8c-2.6,0-4.5-0.6-5.7-1.9c-1.2-1.3-1.7-3-1.7-5.1v-103c0-1.2,0.3-2.2,0.8-3.2s1.2-1.7,2.1-2.3L1256.2,75.5
		L1256.2,75.5z M1153.4,132.4c0,4,0.6,7.8,1.9,11.3s3,6.6,5.3,9.1c2.3,2.6,5.1,4.6,8.4,6.1s7,2.2,11.1,2.2c4,0,7.6-0.7,10.8-2.2
		c3.2-1.5,5.9-3.6,8.2-6.1c2.2-2.5,4-5.6,5.1-9.1c1.2-3.5,1.8-7.3,1.8-11.3c0-3.9-0.6-7.6-1.8-11.2c-1.2-3.6-2.9-6.7-5.1-9.3
		c-2.2-2.7-5-4.8-8.2-6.4s-6.8-2.3-10.8-2.3c-4.1,0-7.8,0.8-11.1,2.3c-3.3,1.6-6.1,3.7-8.4,6.4c-2.3,2.7-4.1,5.8-5.3,9.3
		C1154.1,124.8,1153.4,128.5,1153.4,132.4L1153.4,132.4z M1119.9,132.4c0-5.6,0.7-11.1,2.2-16.3c1.4-5.2,3.5-10,6.1-14.5
		c2.6-4.4,5.7-8.5,9.4-12.1c3.6-3.6,7.7-6.8,12.2-9.3c4.5-2.6,9.3-4.6,14.5-6s10.6-2.1,16.2-2.1c8.3,0,16.2,1.6,23.5,4.7
		s13.7,7.4,19.1,12.8s9.7,11.8,12.9,19.1c3.2,7.4,4.7,15.3,4.7,23.8c0,5.7-0.7,11.1-2.1,16.2c-1.4,5.2-3.5,10-6.1,14.5
		s-5.7,8.5-9.4,12.2c-3.6,3.6-7.7,6.8-12.2,9.4c-4.5,2.6-9.3,4.6-14.4,6s-10.5,2.1-16.1,2.1s-11-0.7-16.2-2.1
		c-5.2-1.4-10-3.4-14.5-6s-8.5-5.7-12.2-9.4c-3.6-3.6-6.8-7.7-9.4-12.2s-4.6-9.3-6.1-14.5C1120.6,143.5,1119.9,138.1,1119.9,132.4
		L1119.9,132.4z M1071.1,34.6c0-2.6,0.6-4.4,1.7-5.5s2.8-1.6,5.1-1.6h21.3c2.1,0,3.9,0.5,5.2,1.6c1.3,1.1,2,2.9,2,5.5v17.9
		c0,0.7-0.2,1.5-0.5,2.4s-0.8,1.7-1.4,2.5s-1.3,1.4-2.2,2c-0.9,0.5-1.9,0.8-3,0.8H1078c-4.5,0-6.8-2.5-6.8-7.6L1071.1,34.6
		L1071.1,34.6z M1071.1,81.1c0-2,0.6-3.6,1.7-5.1c1.1-1.4,2.8-2.1,5.1-2.1h21c0.7,0,1.5,0.2,2.4,0.5s1.7,0.8,2.4,1.5
		c0.7,0.6,1.4,1.4,1.9,2.3s0.8,1.8,0.8,2.9v102.5c0,2.3-0.6,4.1-1.9,5.3s-3.1,1.8-5.5,1.8h-21c-4.5,0-6.8-2.4-6.8-7.1L1071.1,81.1
		L1071.1,81.1z M1004.4,55.7c0-1.9,0.6-3.3,1.9-4.3c1.3-1,3-1.8,5.4-2.7l20.9-7.3c0.3-0.1,0.6-0.1,0.9-0.1s0.5,0,0.8,0
		c2.3,0,3.8,0.6,4.6,2c0.8,1.3,1.1,3.1,1.1,5.2l-0.1,28.9h15.3c2,0,3.6,0.6,4.8,1.7c1.2,1.2,1.8,2.9,1.8,5.2V102
		c0,2.6-0.6,4.4-1.8,5.6c-1.2,1.2-2.8,1.8-4.8,1.8h-15.3l0.1,73.9c0,2.3-0.7,4.1-2,5.3s-3.2,1.8-5.6,1.8h-20.8
		c-4.7,0-7.1-2.4-7.1-7.1l-0.1-73.9h-6.7c-4.7,0-7.1-2.5-7.1-7.4V84.5c0-4.7,2.4-7,7.1-7h6.7L1004.4,55.7L1004.4,55.7z M889.7,132.4
		c0,4,0.6,7.8,1.9,11.3c1.3,3.5,3,6.6,5.4,9.1c2.3,2.6,5.1,4.6,8.4,6.1c3.3,1.5,6.9,2.2,10.9,2.2c4.1,0,7.9-0.7,11.5-2.2
		c3.5-1.5,6.6-3.6,9.2-6.1c2.6-2.5,4.6-5.6,6.1-9.1s2.2-7.3,2.2-11.3c0-3.9-0.7-7.6-2.2-11.2s-3.5-6.7-6.1-9.3
		c-2.6-2.7-5.7-4.8-9.2-6.4s-7.4-2.3-11.5-2.3c-4,0-7.6,0.8-10.9,2.3c-3.3,1.6-6.1,3.7-8.4,6.4c-2.3,2.7-4.1,5.8-5.4,9.3
		C890.3,124.8,889.7,128.5,889.7,132.4L889.7,132.4z M980.2,183.9c0,1-0.2,2.1-0.6,3c-0.4,0.9-1,1.7-1.8,2.2
		c-0.7,0.7-1.5,1.1-2.4,1.3s-1.7,0.3-2.4,0.3h-18c-1.3,0-2.3-0.2-3.1-0.5s-1.4-0.8-1.9-1.4c-0.5-0.6-0.9-1.3-1.2-2.2
		s-0.7-1.9-1.1-2.9l-2.7-6.9c-1.7,1.7-3.5,3.4-5.4,5.3c-2,1.9-4.1,3.6-6.5,5.2c-2.4,1.6-4.9,2.9-7.7,4s-5.7,1.6-8.8,1.6
		c-5.6,0-10.9-0.7-16-2.1c-5.1-1.4-9.9-3.4-14.3-6c-4.4-2.6-8.5-5.7-12.1-9.4c-3.6-3.6-6.7-7.7-9.3-12.2s-4.6-9.3-6-14.5
		s-2.1-10.6-2.1-16.2c0-8.5,1.6-16.4,4.7-23.8c3.1-7.3,7.4-13.7,12.8-19.1c5.4-5.4,11.7-9.7,19-12.8c7.3-3.1,15.1-4.7,23.4-4.7
		c3.8,0,7.3,0.6,10.5,1.7s6.1,2.6,8.7,4.5c2.6,1.8,5,3.9,7.1,6.2c2.1,2.3,4,4.7,5.6,7.1l3.6-11.2c0.6-1.6,1.1-2.8,1.5-3.8
		c0.4-0.9,0.8-1.7,1.3-2.1c0.5-0.5,1-0.8,1.7-0.9c0.7-0.2,1.6-0.2,2.8-0.2h13.7c0.7,0,1.5,0.1,2.4,0.3c0.9,0.2,1.7,0.6,2.4,1.3
		c0.9,0.7,1.5,1.4,1.8,2.3c0.4,0.9,0.6,1.8,0.6,2.9v103.7L980.2,183.9L980.2,183.9z M830.2,154.7c0.9-0.6,1.7-1,2.5-1.2
		s1.3-0.2,1.8-0.2c1,0,2,0.2,2.8,0.6c0.9,0.4,1.7,1.3,2.7,2.8l10.3,15.6c0.3,0.5,0.6,1,0.9,1.7s0.4,1.1,0.4,1.5
		c0,1.4-0.4,2.6-1.3,3.5c-0.9,0.9-1.9,1.7-2.9,2.4c-5,3.5-10.5,6.3-16.5,8.4c-6,2.1-12.3,3.2-19,3.2c-5.5,0-10.8-0.7-15.9-2.1
		c-5.1-1.4-9.9-3.4-14.3-6c-4.4-2.6-8.5-5.7-12.1-9.4c-3.7-3.6-6.8-7.7-9.4-12.2c-2.6-4.5-4.6-9.3-6-14.5s-2.2-10.6-2.2-16.2
		c0-5.6,0.7-11.1,2.2-16.3c1.4-5.2,3.4-10,6-14.5c2.6-4.4,5.7-8.5,9.4-12.1s7.7-6.8,12.1-9.3c4.4-2.6,9.2-4.6,14.3-6
		s10.4-2.1,15.9-2.1c6.7,0,12.9,0.9,18.5,2.7c5.7,1.8,11,4.4,15.9,7.9l-0.3-0.3c1.3,0.8,2.4,1.7,3.2,2.8c0.8,1.1,1.2,2.4,1.2,4
		c0,1.1-0.4,2.2-1.1,3.4l-8.2,13.9c-1.7,3-3.8,4.5-6.2,4.5c-0.6,0-1.2-0.2-2-0.4c-0.8-0.3-1.7-0.7-2.7-1.4c-2.7-1.8-5.6-3.2-8.7-4.4
		c-3.1-1.1-6.4-1.7-9.9-1.7c-3.9,0-7.4,0.8-10.7,2.3c-3.2,1.6-6,3.7-8.3,6.4c-2.3,2.7-4.1,5.8-5.4,9.3c-1.3,3.6-1.9,7.3-1.9,11.2
		c0,4,0.6,7.8,1.9,11.3c1.3,3.5,3.1,6.6,5.4,9.1c2.3,2.6,5.1,4.6,8.3,6.1s6.8,2.2,10.7,2.2c3.5,0,6.8-0.6,9.8-1.8
		C824.5,158.2,827.4,156.6,830.2,154.7L830.2,154.7z M736,189.1c-0.8,0.7-1.6,1.1-2.5,1.3s-1.7,0.3-2.5,0.3h-13.9
		c-1.1,0-2.1-0.2-2.8-0.6c-0.8-0.4-1.5-0.9-2-1.6c-0.6-0.7-1-1.4-1.4-2.3c-0.4-0.9-0.7-1.7-0.9-2.7l-2.8-11.7c-0.9,1.9-2.2,4-4,6.5
		c-1.7,2.4-4,4.7-6.7,6.8s-5.9,3.9-9.7,5.3c-3.7,1.4-8,2.1-12.9,2.1c-7,0-13.3-1.3-19-4s-10.5-6.4-14.6-11c-4-4.7-7.1-10.1-9.3-16.3
		s-3.3-12.8-3.3-19.9V81c0-2.3,0.5-4.1,1.5-5.3c1-1.2,2.6-1.8,4.8-1.8h21.2c2.6,0,4.4,0.5,5.4,1.3c1,0.9,1.5,2.6,1.5,5.2v59.9
		c0,2.6,0.6,5.1,1.8,7.5s2.8,4.4,4.7,6.2c2,1.8,4.2,3.2,6.7,4.3c2.5,1,5,1.6,7.6,1.6c2.2,0,4.5-0.5,6.9-1.6c2.4-1,4.5-2.5,6.5-4.2
		s3.6-3.8,4.9-6.2c1.3-2.4,1.9-4.9,1.9-7.5V80.7c0-1,0.2-2.1,0.6-3.1c0.4-1,1-1.8,1.8-2.4c0.8-0.5,1.6-0.8,2.3-1s1.5-0.3,2.4-0.3
		H731c2.6,0,4.5,0.6,5.7,1.9s1.7,3,1.7,5.1v102.8c0,1.2-0.2,2.2-0.8,3.2c-0.5,1-1.3,1.7-2.2,2.3L736,189.1L736,189.1z M520.1,132.4
		c0,4,0.6,7.8,1.9,11.3c1.3,3.5,3,6.6,5.4,9.1c2.3,2.6,5.1,4.6,8.4,6.1c3.3,1.5,6.9,2.2,10.9,2.2c3.9,0,7.6-0.7,11.1-2.1
		c3.5-1.4,6.5-3.3,9-5.8c2.6-2.5,4.7-5.4,6.2-8.8c1.6-3.4,2.4-7,2.6-10.8v-1.3c0-3.9-0.7-7.6-2.2-11.2s-3.5-6.7-6.1-9.3
		c-2.6-2.7-5.7-4.8-9.2-6.4s-7.4-2.3-11.5-2.3c-4,0-7.6,0.8-10.9,2.3c-3.3,1.6-6.1,3.7-8.4,6.4c-2.3,2.7-4.1,5.8-5.4,9.3
		C520.7,124.8,520.1,128.5,520.1,132.4L520.1,132.4z M572.9,176.4c-1.7,1.7-3.5,3.5-5.5,5.4s-4.2,3.7-6.6,5.3c-2.4,1.7-5,3-7.7,4.1
		c-2.8,1.1-5.7,1.6-8.9,1.6c-8.3,0-16-1.6-23-4.7c-7-3.1-13-7.4-18.1-12.8c-5.1-5.4-9-11.8-11.9-19.2c-2.8-7.4-4.3-15.3-4.3-23.7
		c0-8.5,1.4-16.4,4.3-23.8c2.9-7.3,6.8-13.7,11.9-19.1s11.1-9.7,18.1-12.8c7-3.1,14.7-4.7,23-4.7c3.4,0,6.5,0.5,9.3,1.5
		s5.3,2.2,7.6,3.8c2.3,1.5,4.4,3.2,6.3,5.2c1.9,1.9,3.7,3.8,5.5,5.7v-42c0-2,0.6-3.6,1.8-5c1.2-1.3,3-2,5.4-2h20.7
		c0.8,0,1.7,0.2,2.5,0.5c0.9,0.3,1.7,0.8,2.4,1.4c0.7,0.6,1.3,1.3,1.8,2.2s0.7,1.8,0.7,2.8v137.4c0,4.7-2.5,7.1-7.4,7.1h-18
		c-1.2,0-2.2-0.2-2.8-0.5c-0.7-0.3-1.2-0.7-1.7-1.3s-0.9-1.3-1.3-2.2c-0.4-0.9-0.8-1.9-1.4-3.1L572.9,176.4L572.9,176.4z
		 M375.5,58.3c0-1.3,0.4-2.3,1.1-3.1s1.7-1.2,3-1.2h91.3c1.3,0,2.4,0.4,3.1,1.2s1.1,1.9,1.1,3.2v22.8c0,1-0.4,2-1.1,3
		c-0.7,0.9-1.8,1.4-3.2,1.4h-59.6v22.8h46c1.2,0,2.1,0.3,2.9,0.8c0.8,0.6,1.1,1.5,1.1,2.8v20c0,0.9-0.3,1.7-1,2.5s-1.7,1.2-2.9,1.2
		h-46V159h61.8c2.8,0,4.1,1.4,4.1,4.2v23.2c0,0.6-0.2,1.2-0.7,1.7c-0.2,1.7-1.5,2.6-3.8,2.6h-93c-1.2,0-2.2-0.3-2.9-1
		c-0.7-0.6-1.1-1.6-1.1-3V58.3H375.5z M284.9,125.8c0-2.7,1.3-4,4-4h62.7c1.1,0,2.1,0.4,2.8,1.1c0.8,0.7,1.2,1.7,1.2,3v18.7
		c0,0.9-0.4,1.9-1.1,2.9s-1.7,1.5-2.9,1.5H289c-2.7,0-4-1.5-4-4.4v-18.8H284.9z"/>
	<path class="st0" d="M160.3,75.5c0.8-0.7,1.7-1.1,2.5-1.3c0.9-0.2,1.7-0.3,2.5-0.3h13.9c1.1,0,2.1,0.2,2.8,0.6
		c0.8,0.4,1.5,0.9,2,1.6c0.6,0.7,1,1.4,1.3,2.3s0.6,1.7,0.9,2.7l2.8,11.7c0.9-1.9,2.3-4,4-6.5c1.7-2.4,4-4.7,6.6-6.8
		c2.7-2.1,5.9-3.9,9.6-5.3c3.7-1.4,8-2.1,12.9-2.1c7,0,13.3,1.3,19,4s10.6,6.3,14.6,11c4,4.6,7.1,10,9.3,16.3
		c2.2,6.2,3.3,12.8,3.3,19.9v60.2c0,2.3-0.5,4.1-1.5,5.3s-2.6,1.8-4.8,1.8h-21c-2.6,0-4.4-0.5-5.4-1.3c-1-0.9-1.5-2.6-1.5-5.2v-59.8
		c0-2.6-0.6-5.1-1.8-7.5s-2.8-4.4-4.7-6.2c-2-1.8-4.2-3.2-6.6-4.3c-2.5-1-5-1.6-7.6-1.6c-2.2,0-4.4,0.5-6.7,1.5s-4.4,2.3-6.3,4.1
		c-1.9,1.7-3.6,3.8-4.9,6.2c-1.3,2.4-2.1,4.9-2.3,7.7v59.7c0,1-0.2,2.1-0.6,3.1c-0.4,1-1,1.8-1.8,2.4c-0.8,0.5-1.5,0.8-2.2,1
		s-1.5,0.3-2.5,0.3h-20.8c-2.6,0-4.5-0.6-5.7-1.9c-1.2-1.3-1.7-3-1.7-5.1v-103c0-1.2,0.3-2.2,0.8-3.2s1.2-1.7,2.1-2.3L160.3,75.5
		L160.3,75.5z M3.6,122.5c0-6.5,0.8-12.7,2.5-18.7s4-11.6,7.1-16.8c3.1-5.2,6.7-10,11-14.3s9-7.9,14.2-11c5.2-3,10.8-5.4,16.8-7.1
		c6-1.7,12.2-2.5,18.7-2.5c6.4,0,12.7,0.9,18.7,2.5c6,1.7,11.6,4,16.8,7.1c5.2,3,10,6.7,14.3,11s8,9.1,11,14.3
		c3,5.2,5.4,10.8,7.1,16.8c1.7,6,2.5,12.2,2.5,18.7s-0.9,12.7-2.5,18.7c-1.7,6-4,11.6-7.1,16.8c-3,5.2-6.7,9.9-11,14.2
		s-9.1,7.9-14.3,11c-5.2,3.1-10.8,5.4-16.8,7.1c-6,1.7-12.3,2.5-18.7,2.5c-6.5,0-12.8-0.8-18.7-2.5c-6-1.7-11.6-4-16.8-7.1
		s-10-6.7-14.2-11c-4.3-4.3-7.9-9-11-14.2s-5.5-10.8-7.1-16.8C4.4,135.2,3.6,129,3.6,122.5L3.6,122.5z M39.3,122.4
		c0,5.1,0.9,9.8,2.6,14.2c1.7,4.4,4.1,8.2,7.2,11.5c3.1,3.3,6.7,5.9,11,7.7c4.2,1.9,8.9,2.8,14,2.8s9.7-0.9,14-2.8
		c4.3-1.9,7.9-4.4,11-7.7s5.5-7.1,7.2-11.5s2.6-9.2,2.6-14.2s-0.9-9.8-2.6-14.2c-1.7-4.4-4.1-8.3-7.2-11.6c-3.1-3.3-6.8-5.9-11-7.8
		s-8.9-2.8-14-2.8s-9.7,0.9-14,2.8c-4.2,1.9-7.9,4.5-11,7.8s-5.5,7.2-7.2,11.6C40.1,112.6,39.3,117.3,39.3,122.4z"/>
	<path class="st1" d="M58.4,132.4c-3.2-9.5-3.7-13-5.6-18.6C51,108.3,51,102.7,58.4,99s13-1.9,16.7,9.3c3.7,11.1,5.6,9.3,13-1.9
		c7.4-11.1,41.4-62.6,50.1-70.6c8.8-8,14.4-7.1,19-7.4c3.7,0,10.3,0.8-4.3,18c-7.1,8.4-59.3,76.7-66.7,93.4c0,0-3.7,5-9.3,5.6
		C71.1,146,63.9,149.1,58.4,132.4z"/>
</g>
<path class="st2" d="M192.9-284c-1.3,0-2.5-0.3-3.7-0.8c0.1-0.2,0.3-0.3,0.5-0.4c0.2-0.1,0.4-0.1,0.6-0.1c1.1,0.3,2.5-0.1,3.1,1.3
	C193.2-283.9,193.1-283.9,192.9-284z"/>
<path class="st3" d="M189.6-284.9c-0.2,0-0.3,0-0.5,0.1c-1,0-2-0.3-2.9-0.8c0.3,0,0.6,0,0.9,0C188.2-286.1,189.1-286.2,189.6-284.9z
	"/>
<path class="st4" d="M192.9-284c0.2,0,0.3,0,0.5-0.1c0.2-0.2,0.3-0.3,0.6-0.4c0.8-0.1,1.6-0.3,1.9,0.8c-0.1,0-0.3,0-0.4,0.1
	C194.5-283.7,193.6-283.5,192.9-284z"/>
<g>
	<path class="st0" d="M962.7,258.6c-0.8-8.3-6-13.8-14.2-15.4c-6.5-1.3-12.3,0.2-18.2,4.2c0.9-4-1.3-4.1-3.9-4
		c-4.1,0.1-8.2,0.1-12.4,0c-1.6,0-2.4,0.5-2.4,2.3c0.1,14,0.1,28,0,42c0,1.7,0.6,2.1,2.2,2.1c5-0.1,10-0.1,14.9,0
		c1.9,0,2.5-0.5,2.5-2.4c-0.1-6.4,0-12.8,0-19.3c0-2.1,0.3-4.2,1.4-6.1c1.4-2.4,3.6-3.3,6.3-3c2.7,0.3,4,2.1,4.4,4.6
		c0.2,1.2,0.4,2.5,0.4,3.7c0,6.7,0,13.4,0,20.1c0,1.4,0.1,2.4,1.9,2.3c5.3-0.1,10.5-0.1,15.8,0c1.4,0,1.8-0.6,1.8-1.9
		C963,278.1,963.7,268.4,962.7,258.6z"/>
	<path class="st0" d="M773,246c0-1.8-0.4-2.6-2.4-2.6c-4.8,0.1-9.6,0.1-14.4,0c-2,0-2.4,0.7-2.4,2.5c0.1,6.1,0.1,12.3,0,18.4
		c0,2.4-0.2,4.8-1.4,7c-1.4,2.5-3.5,3.4-6.3,3c-2.5-0.4-3.9-2-4.3-4.4c-0.2-1.2-0.4-2.5-0.4-3.7c0-6.8-0.1-13.6,0-20.4
		c0-1.7-0.3-2.4-2.2-2.4c-5,0.1-10,0.1-14.9,0c-1.7,0-2.1,0.6-2.1,2.2c0.1,8.8-0.1,17.6,0.1,26.4c0.2,7.7,3.3,14,10.9,17.1
		c7.5,3,14.6,2.2,21.6-3.5c-0.9,3.8,0.6,4.4,3.4,4.3c4.1-0.2,8.2-0.2,12.4,0c1.9,0.1,2.4-0.6,2.4-2.5
		C772.9,273.5,772.9,259.7,773,246z"/>
	<path class="st0" d="M455.6,258c3.5-0.9,6.2,0.2,8.7,4c1,1.5,1.8,1.6,3.3,0.9c3.6-1.9,7.3-3.7,11.1-5.5c1.5-0.7,1.6-1.6,1-2.9
		c-1.8-3.6-4.3-6.5-7.9-8.5c-6.5-3.5-13.4-3.9-20.6-2.8c-12.1,1.9-20.7,11.3-20.9,23c-0.2,9.2,4.6,17,12.8,21.1
		c6.5,3.3,13.5,4.3,20.6,2.8c6.9-1.4,12.8-4.5,16-11.3c0.7-1.4,0.5-2.1-1-2.8c-3.6-1.7-7.2-3.5-10.7-5.5c-1.8-1-2.7-0.7-3.8,1.1
		c-2.3,3.9-6.3,5-9.9,3.2c-3.4-1.7-4.9-5.2-4.3-10.1C450.2,261.4,452.4,258.9,455.6,258z"/>
	<path class="st0" d="M833.6,258.2c2.1,0.7,3.6,2.2,4.6,4.1c0.7,1.3,1.4,1.5,2.7,0.8c3.8-2,7.7-3.9,11.6-5.7
		c1.5-0.7,1.5-1.5,0.9-2.7c-2-3.7-4.5-6.9-8.3-8.8c-6.4-3.2-13.1-3.6-20.1-2.6c-12,1.7-20.8,11.3-21,25.7c0.2,6.5,3.9,13.6,11.9,18
		c7.7,4.2,16,5,24.4,2.5c5.5-1.6,10-4.6,12.7-10c0.8-1.6,1.3-2.7-1-3.6c-3.4-1.4-6.7-3.2-10-5c-2-1.1-3-1-4.3,1.1
		c-1.8,3.1-4.9,4.3-8.4,3.5c-3.2-0.7-5-3.1-5.6-6.3c-0.6-3.4-0.3-6.7,2.4-9.3C828.2,257.7,830.8,257.3,833.6,258.2z"/>
	<path class="st0" d="M601.3,243.4c-4.3,0-8.6,0.1-12.9,0c-2.4-0.1-3.6,0.8-4.4,3c-2.6,7-5.4,13.9-8.5,21.5c-3-7.9-5.7-15-8.3-22.2
		c-0.6-1.7-1.4-2.4-3.3-2.4c-4.9,0.1-9.8,0.1-14.6,0c-1.8,0-2.7,0.1-1.8,2.4c5.7,14.1,11.3,28.2,16.9,42.3c0.5,1.2,1.1,1.8,2.5,1.7
		c5.5-0.1,10.9-0.1,16.4,0c1.3,0,2.1-0.4,2.6-1.7c5.6-14.2,11.3-28.4,17-42.6C603.5,243.7,603,243.4,601.3,243.4z"/>
	<path class="st0" d="M714,276.9c-0.5-1.7-1.1-2-2.8-1.3c-3.8,1.4-6.1-0.3-6.2-4.4c0-2.8,0.1-5.6-0.1-8.3c-0.1-2.1,0.7-2.5,2.6-2.5
		c6.8,0,6.8-0.1,6.7-6.9c0-2.4,1-5.3-0.5-6.9c-1.5-1.5-4.4-0.5-6.6-0.5c-1.9,0-2.3-0.8-2.2-2.4c0.1-2.8,0-5.6,0.1-8.3
		c0-1.5-0.5-2.1-2-2c-2.6,0.1-5.2,0-7.8,0c-2.5,0-5,0.1-7.5,0c-1.7-0.1-2.4,0.4-2.3,2.2c0.1,2.2,0,4.4,0,6.6c0,3.8,0,3.9-3.8,3.8
		c-2.1-0.1-2.6,0.8-2.5,2.7c0.1,2.7,0,5.4,0,8c0,3.6,0,3.8,3.8,3.6c2.1-0.1,2.6,0.6,2.5,2.6c-0.2,3.2-0.2,6.5,0,9.8
		c0.4,6.7,2.4,12.7,9.1,15.7c6.9,3.1,14.1,3,21.2,0.6c1.7-0.6,1.9-1.3,1.3-3C716,283.1,715,280,714,276.9z"/>
	<path class="st0" d="M1282.2,277c-0.5-1.5-1-2.1-2.8-1.4c-3.9,1.5-6.2-0.2-6.3-4.3c-0.1-3.1,0-6.1,0-9.2c0-1.2,0.4-1.7,1.7-1.7
		c1.9,0.1,3.8-0.1,5.7,0c1.5,0.1,2-0.6,2-2c-0.1-2,0-4,0-6c0-6.3,0-6.4-6.3-6.3c-2.6,0.1-3.3-0.7-3.2-3.2c0.1-3,1.3-7-0.5-8.9
		c-2-2-6-0.3-8.6-0.6c-3,0-5.5,0.1-8,0c-1.8-0.1-2.3,0.6-2.2,2.3c0.1,2.1,0,4.2,0,6.3c0,4,0,4.1-3.9,4c-1.9,0-2.5,0.6-2.4,2.5
		c0.1,2.7,0,5.4,0,8c0,4.4-0.2,4,3.8,3.9c2.1-0.1,2.6,0.6,2.5,2.6c-0.1,3.2-0.2,6.3,0,9.5c0.3,5.2,1.1,10.5,5.7,13.9
		c7.6,5.5,16,5.4,24.6,2.8c1.5-0.5,1.8-1.4,1.2-2.8C1284.2,283.2,1283.2,280.1,1282.2,277z"/>
	<path class="st0" d="M515.7,277c-0.5-1.6-1-2-2.8-1.3c-3.8,1.4-6.1-0.4-6.1-4.5c0-2.8,0.1-5.6,0-8.3c-0.1-1.8,0.4-2.6,2.4-2.5
		c2.2,0.1,5,1,6.4-0.4c1.5-1.5,0.5-4.4,0.5-6.6c0-2.4,1.1-5.3-0.5-6.9c-1.4-1.4-4.2-0.3-6.4-0.4c-0.1,0-0.2,0-0.3,0
		c-1.5,0.2-2.1-0.4-2-1.9c0.1-2.9,0-5.7,0.1-8.6c0.1-1.6-0.5-2.2-2.1-2.2c-2.5,0.1-5,0-7.5,0c-2.6,0-5.2,0.1-7.8,0
		c-1.6-0.1-2.3,0.4-2.2,2.1c0.1,2.4-0.2,4.8,0.1,7.2c0.3,2.7-0.6,3.9-3.4,3.4c-2.2-0.4-2.8,0.7-2.7,2.8c0.2,2.6,0,5.2,0,7.8
		c0,3.7,0,3.9,3.7,3.8c2,0,2.4,0.8,2.3,2.5c-0.1,3.3-0.1,6.7,0,10.1c0.2,4.8,1.4,9.2,5,12.7c6.1,6.1,19.4,6.2,26,3.1
		c1.3-0.6,1-1.3,0.6-2.3C517.8,283.3,516.6,280.1,515.7,277z"/>
	<path class="st0" d="M1044.3,229.1c0-1.7-0.6-2.1-2.2-2.1c-4.9,0.1-9.8,0.2-14.7,0c-2.3-0.1-2.7,0.8-2.6,2.8c0.1,9.5,0,19,0,28.5
		c0,9.7,0,19.4,0,29c0,1.7,0.3,2.6,2.3,2.5c5-0.1,10-0.1,14.9,0c1.5,0,2.2-0.3,2.2-2C1044.2,268.2,1044.2,248.7,1044.3,229.1z"/>
	<path class="st0" d="M1363.5,258.6c0-9.7-0.1-19.3,0-29c0-2-0.6-2.6-2.6-2.6c-4.8,0.1-9.6,0.1-14.3,0c-1.9,0-2.5,0.6-2.5,2.5
		c0,19.3,0.1,38.7,0,58c0,2,0.8,2.4,2.5,2.3c4.8-0.1,9.6-0.1,14.3,0c2,0.1,2.6-0.6,2.5-2.6C1363.5,277.7,1363.5,268.1,1363.5,258.6z
		"/>
	<path class="st0" d="M541.3,243.4c-5,0.1-10,0.1-14.9,0c-1.9,0-2.4,0.6-2.4,2.4c0.1,7,0,14,0,21c0,6.9,0,13.8,0,20.7
		c0,1.7,0.3,2.4,2.2,2.3c5.2-0.1,10.3-0.1,15.5,0c2.1,0.1,2.3-0.8,2.3-2.5c-0.1-13.8-0.1-27.6,0-41.4
		C544,243.8,543.2,243.4,541.3,243.4z"/>
	<path class="st0" d="M1243.4,266.7c0-6.9-0.1-13.8,0-20.7c0-1.9-0.3-2.7-2.5-2.7c-4.8,0.2-9.6,0.1-14.4,0c-1.9,0-2.4,0.6-2.4,2.5
		c0.1,13.9,0.1,27.8,0,41.6c0,1.7,0.4,2.4,2.2,2.3c4.9-0.1,9.8-0.1,14.6,0c1.9,0,2.4-0.5,2.4-2.4
		C1243.3,280.5,1243.4,273.6,1243.4,266.7z"/>
	<path class="st0" d="M1156,266.6c0-7-0.1-14,0-21c0-1.8-0.5-2.3-2.3-2.3c-4.8,0.1-9.6,0.1-14.4,0c-1.8,0-2.5,0.5-2.5,2.4
		c0.1,13.9,0.1,27.8,0,41.6c0,2,0.7,2.4,2.5,2.4c4.6-0.1,9.2-0.1,13.8,0c2.2,0.1,3-0.4,2.9-2.8C1155.9,280.2,1156,273.4,1156,266.6z
		"/>
	<path class="st0" d="M539.5,221.4c-3.8-1.3-7.6-1.2-11.4,0.3c-4,1.6-5.9,4.2-5.9,8.9c-0.2,2.9,1.3,5.4,3.7,7.2
		c3.9,3,11.4,3.2,15.5,0.4c3.3-2.2,4.6-5.3,4.3-9.1C545.5,225.2,543.2,222.6,539.5,221.4z"/>
	<path class="st0" d="M1147.1,220.5c-7-0.2-12.2,3.6-11.8,9.7c0,5.5,3.3,8.9,9.5,9.9c8.5,1.3,15.3-5.4,13-13
		C1156.1,221.9,1151.7,220.6,1147.1,220.5z"/>
	<path class="st0" d="M1234.3,220.4c-5.8-0.5-10.9,3-11.7,7.9c-1.1,6.8,3.6,11.9,11.2,11.9c8,0,13.5-6.4,11.2-13.1
		C1243.3,221.9,1238.9,220.8,1234.3,220.4z"/>
	<path class="st0" d="M1214.1,243.4c-3.9,0.1-7.9,0-11.8,0c-4.3,0-4.3,0-4.8,4.2c-8.8-8.3-22.9-4.9-28.6,0.7
		c-8.4,8.2-9.3,20.7-2.7,30.3c5.4,7.8,20.3,12,30.3,4.7c0.2,4.8-2.4,8-7,8.8c-5.9,1-11.4-0.4-16.6-3.2c-1.7-0.9-2.2-0.6-2.9,1
		c-1.3,3-2.7,5.9-4.3,8.7c-1.1,2-0.7,3,1.3,3.9c6.5,3.2,13.4,4.2,20.6,4.3c17.7,0.3,28-8.5,28.5-25c0.4-12.1,0.1-24.3,0.1-36.5
		C1216.3,243.9,1215.7,243.4,1214.1,243.4z M1189.4,272.1c-4.5,0-8-3.1-8-7.2c0-4,3.4-7.1,7.7-7.2c4.3-0.1,7.7,3.1,7.7,7.1
		C1196.9,269.1,1193.8,272.1,1189.4,272.1z"/>
	<path class="st0" d="M1128.9,229.3c0-1.8-0.6-2.3-2.3-2.3c-4.9,0.1-9.8,0.1-14.7,0c-2.1-0.1-2.6,0.7-2.5,2.6c0.1,5.3,0,10.7,0,16.1
		c-10.7-5-22.1-3.2-28,4.1c-7.6,9.4-8,22.8-1.1,32.2c3.5,4.8,8.4,7.4,14.2,8.3c5.8,0.9,11.1-0.2,16.2-4c-0.8,3.3,0.7,3.5,2.9,3.4
		c4.3-0.1,8.6-0.1,12.9,0c1.6,0,2.4-0.2,2.4-2.1C1128.8,268.2,1128.8,248.7,1128.9,229.3z M1101.8,275.5c-1.4-0.1-2.6-0.6-3.6-1.5
		c-3.8-3.1-4.1-10.8-0.6-14.3c2-2,5.1-2.6,7.7-1.5c3.5,1.6,4.4,4.7,4.6,7.7C1109.8,272.2,1106.6,275.8,1101.8,275.5z"/>
	<path class="st0" d="M1336.3,263.5c-0.3-8.2-3.3-15.3-11.7-18.4c-11-4.1-21.8-2.7-32.4,1.7c-1.5,0.6-2,1.5-1.1,3.1
		c1.5,2.8,2.9,5.6,4.1,8.5c0.8,1.9,1.6,2.1,3.6,1.1c4.8-2.4,9.9-3.7,15.1-1.2c1.3,0.6,2.8,1.8,2.4,3.2c-0.3,1.5-2.1,0.6-3.2,0.7
		c-2,0.1-4,0-6,0c-3.5,0-6.9,0.6-10.1,1.8c-5,1.8-8.4,5-8.8,10.6c-0.4,5.9,1.5,10.8,6.9,13.7c6.1,3.3,16.3,4.2,22.7-2.7
		c0.5,0.3,0.4,0.9,0.3,1.3c-0.4,2.5,0.7,3.1,3,3c4.4-0.2,8.8-0.1,13.2,0c1.4,0,2-0.4,2-1.9C1336.4,279.7,1336.6,271.6,1336.3,263.5z
		 M1314.5,277.9c-0.8,0.5-1.7,0.8-2.7,1c-2.8,0.4-5-1-5.1-3.3c-0.1-2.2,1.5-3.6,4.4-3.7c0.7,0,1.3,0,2.2,0c1,0.4,2.9-0.9,3.5,0.9
		C1317.5,274.9,1316.3,276.7,1314.5,277.9z"/>
	<path class="st0" d="M638.6,245c-11-4-21.8-2.7-32.4,1.8c-1.7,0.7-1.8,1.7-1,3.1c1.5,2.9,3,5.8,4.3,8.8c0.7,1.7,1.4,1.8,3,0.9
		c3.3-1.9,6.9-2.8,10.7-2.6c4.2,0.1,6.5,1.8,7.3,5.1c-5,0.4-10.1-0.2-15.1,0.7c-11.4,1.9-16.9,12-11.1,21c3.9,5.9,10,7.2,16.6,6.9
		c4.5-0.2,8.4-1.9,11.5-6.1c0,1.1,0.1,1.6,0,2.1c-0.4,2.6,0.6,3.3,3.1,3.2c4.2-0.2,8.4-0.1,12.6,0c1.6,0,2.2-0.4,2.2-2.1
		c-0.1-8.4,0.3-16.9-0.1-25.3C650,254.5,646.6,247.9,638.6,245z M628.6,277.9c-1.1,0.8-2.4,1.1-3.8,1c-2.3-0.2-3.9-1.1-4-3.6
		c0-2.4,1.7-3.2,3.8-3.4c0.8-0.1,1.7,0,2.8,0c1,0.4,2.9-1,3.4,0.9C631.5,274.9,630.4,276.7,628.6,277.9z"/>
	<path class="st0" d="M423.7,262.2c-0.2-6.6-2.8-12.3-8.7-15.9c-3.4-2.1-7.2-2.8-11.2-3.3c-8.3-1.1-16.1,0.5-23.8,3.6
		c-1.8,0.7-2.3,1.7-1.3,3.5c1.5,2.7,2.9,5.6,4.2,8.4c0.7,1.7,1.4,2.1,3.1,1.1c3.3-1.9,6.9-2.8,10.7-2.6c4.1,0.2,6.5,1.9,7.4,5.1
		c-5.1,0.3-10.1-0.2-15.1,0.6c-10.5,1.7-15.9,9.4-12.6,18.5c2.6,7,10.2,9.8,17.7,9.5c4.4-0.2,8.4-1.8,11.1-5.6c0.1-0.1,0.3,0,0.7,0
		c0,0.5,0.1,0.9,0,1.4c-0.4,2.6,0.6,3.4,3.3,3.3c4.1-0.2,8.2-0.1,12.3,0c1.8,0.1,2.3-0.6,2.2-2.3C423.8,279.1,424,270.6,423.7,262.2
		z M401.3,278.3c-2,0.9-4.1,0.9-5.9-0.5c-0.9-0.7-1.5-1.8-1.2-3c0.4-1.5,1.4-2.6,2.9-2.8c2.1-0.2,4.2-0.2,6.3-0.2c1.3,0,1.1,1,1.2,2
		C404.5,276,403.2,277.5,401.3,278.3z"/>
	<path class="st0" d="M903.8,261.7c-0.3-8.6-5.1-14.8-12.8-17.2c-10.6-3.3-20.9-2-31,2.3c-1.8,0.8-2,1.7-1.1,3.3
		c1.4,2.5,2.7,5,3.8,7.7c0.9,2.3,1.7,2.9,4.3,1.6c4.8-2.4,9.9-3.6,15.1-0.8c1.3,0.7,2.5,1.9,2.2,3.1c-0.2,1.3-2,0.6-3,0.6
		c-5.6,0-11.3-0.2-16.7,1.8c-4.5,1.7-8,4.6-8.7,9.8c-0.7,5.6,0.8,10.4,5.8,13.7c7.7,5.1,17.1,4.3,24-2.4c0.8,0.5,0.4,1.2,0.3,1.8
		c-0.4,2.5,0.7,3,3.1,2.9c4.3-0.2,8.6-0.1,12.9,0c1.5,0,2-0.5,2-2C904,279.1,904.2,270.4,903.8,261.7z M881.8,278.1
		c-0.8,0.4-1.8,0.7-2.7,0.8c-2.6,0.2-4.8-1.4-4.8-3.4c-0.1-2,1.7-3.4,4.4-3.6c0.7,0,1.3,0,2.2,0c1,0.6,3.1-1.2,3.6,1.1
		C885.1,275.3,883.9,277.1,881.8,278.1z"/>
	<path class="st0" d="M1016.7,262.3c-0.7-11-5.9-16.1-14.7-18.4c-1.9-0.5-3.9-0.8-5.9-1c-8-0.7-15.6,0.6-22.9,3.8
		c-1.3,0.6-2.2,1.2-1.4,2.8c1.6,3.2,3.1,6.4,4.5,9.6c0.7,1.5,1.4,1.3,2.7,0.6c3.3-1.9,6.9-2.8,10.7-2.7c3.3,0.1,7.2,1.3,7.6,5.2
		c-2.6,0-5.1,0.1-7.6,0c-2.6-0.1-5.2,0.2-7.7,0.6c-7.6,1.2-12.5,5.6-12.9,11.7c-0.5,7.9,3.4,13.6,11.1,15.4c6.6,1.6,13,1.3,18-4.2
		c0.1-0.1,0.5-0.1,0.8-0.1c0.2,4.2,0.2,4.2,4.2,4.2c3.8,0,7.7-0.1,11.5,0c1.8,0.1,2.3-0.5,2.3-2.3
		C1016.7,279.1,1017.2,270.7,1016.7,262.3z M994.4,278.3c-1.1,0.6-2.4,0.8-3.6,0.5c-2-0.4-3.4-1.4-3.3-3.6c0-2.1,1.6-2.9,3.4-3.3
		c0.8-0.2,1.7,0,2.9,0c1,0.5,3-1.2,3.6,1.1C997.9,275.4,996.6,277.2,994.4,278.3z"/>
</g>
<path class="st4" d="M205.8-283.7c0.6-0.7,1.4-0.3,2.1-0.4C207.3-283.4,206.5-283.7,205.8-283.7z"/>
</svg>
