<?xml version="1.0" encoding="utf-8"?>
<!-- Generator: Adobe Illustrator 22.0.0, SVG Export Plug-In . SVG Version: 6.00 Build 0)  -->
<svg version="1.1" id="Layer_1" xmlns="http://www.w3.org/2000/svg" xmlns:xlink="http://www.w3.org/1999/xlink" x="0px" y="0px"
	 viewBox="0 0 600 600" style="enable-background:new 0 0 600 600;" xml:space="preserve">
<style type="text/css">
	.st0{fill:url(#SVGID_1_);}
	.st1{fill:url(#SVGID_2_);}
	.st2{fill:url(#SVGID_3_);}
	.st3{fill:url(#SVGID_4_);}
	.st4{fill:url(#SVGID_5_);}
</style>
<radialGradient id="SVGID_1_" cx="298.3767" cy="518.9986" r="471.8904" gradientUnits="userSpaceOnUse">
	<stop  offset="2.707080e-02" style="stop-color:#4CFFD5;stop-opacity:0.6"/>
	<stop  offset="0.575" style="stop-color:#B3FFED;stop-opacity:0.2621"/>
	<stop  offset="1" style="stop-color:#FFFFFF;stop-opacity:0"/>
</radialGradient>
<path class="st0" d="M87.2,422l280.5,156.3c2.4,1.3,6.1,1.5,8.2,0.3L548.2,479L584.5,5.5c0.7-1.3,2.1,1.2,0,0L261.9,30.8
	c-3-1.6-7.5-1.8-10-0.4l-236-1c-1.6,0.9-0.6-1.3,0,0L87.2,422z"/>
<g>
	<linearGradient id="SVGID_2_" gradientUnits="userSpaceOnUse" x1="74.4414" y1="414.3606" x2="488.561" y2="545.4001">
		<stop  offset="0" style="stop-color:#440070"/>
		<stop  offset="0.5446" style="stop-color:#290955"/>
		<stop  offset="1" style="stop-color:#0F123B"/>
	</linearGradient>
	<path class="st1" d="M557.5,478.2L557.5,478.2c-0.1,1.9-1.3,3.6-3.6,4.9l-177,102.2c-5.4,3.1-14.7,2.7-20.9-0.9L82.2,426.3
		c-3.3-1.9-5-4.3-5.1-6.6l0,0l0,6.9c0,2.5,1.5,5.2,5.1,7.3L356,592c6.2,3.6,15.6,4,20.9,0.9l177-102.2c2.6-1.5,3.6-3.6,3.6-5.7
		L557.5,478.2z"/>
	<linearGradient id="SVGID_3_" gradientUnits="userSpaceOnUse" x1="134.9643" y1="405.9883" x2="577.8402" y2="509.6771">
		<stop  offset="3.530000e-04" style="stop-color:#40C7DC"/>
		<stop  offset="0.1439" style="stop-color:#5FA4D5"/>
		<stop  offset="0.3683" style="stop-color:#8A74CB"/>
		<stop  offset="0.5662" style="stop-color:#A951C4"/>
		<stop  offset="0.7281" style="stop-color:#BC3CC0"/>
		<stop  offset="0.8335" style="stop-color:#C334BE"/>
		<stop  offset="0.8568" style="stop-color:#C73CC3"/>
		<stop  offset="0.8925" style="stop-color:#D351D0"/>
		<stop  offset="0.936" style="stop-color:#E774E4"/>
		<stop  offset="0.9816" style="stop-color:#FFA0FF"/>
	</linearGradient>
	<path class="st2" d="M553.9,483.1l-177,102.2c-5.4,3.1-14.7,2.7-20.9-0.9L82.2,426.3c-6.2-3.6-6.9-9-1.5-12.1l177-102.2
		c5.4-3.1,14.7-2.7,20.9,0.9L552.4,471C558.6,474.6,559.3,480,553.9,483.1z"/>
	<linearGradient id="SVGID_4_" gradientUnits="userSpaceOnUse" x1="75.4184" y1="375.7513" x2="437.0383" y2="485.7915">
		<stop  offset="0" style="stop-color:#94FFE6"/>
		<stop  offset="0.2051" style="stop-color:#9BBCCB"/>
		<stop  offset="0.4143" style="stop-color:#A27EB3"/>
		<stop  offset="0.606" style="stop-color:#A74DA0"/>
		<stop  offset="0.7736" style="stop-color:#AB2A92"/>
		<stop  offset="0.9104" style="stop-color:#AD1589"/>
		<stop  offset="0.9996" style="stop-color:#AE0D86"/>
	</linearGradient>
	<path class="st3" d="M359.6,584.1L85.8,426c-6.2-3.6-6.9-9-1.5-12.1l177-102.2c1.4-0.8,3.1-1.4,5-1.7c-3.2,0.1-6.2,0.8-8.5,2.1
		l-177,102.2c-5.4,3.1-4.7,8.5,1.5,12.1L356,584.4c4.6,2.6,10.8,3.5,16,2.6C367.7,587.1,363.1,586.1,359.6,584.1z"/>
	
		<linearGradient id="SVGID_5_" gradientUnits="userSpaceOnUse" x1="133.1403" y1="422.6003" x2="579.5148" y2="477.9203" gradientTransform="matrix(1.0231 -1.331021e-02 -1.331021e-02 1.0077 -5.9736 3.4489)">
		<stop  offset="0" style="stop-color:#CFFFF4"/>
		<stop  offset="5.651975e-02" style="stop-color:#C5FBF5"/>
		<stop  offset="0.3638" style="stop-color:#95E9F9"/>
		<stop  offset="0.6345" style="stop-color:#72DCFC"/>
		<stop  offset="0.8557" style="stop-color:#5DD4FE"/>
		<stop  offset="1" style="stop-color:#55D1FF"/>
	</linearGradient>
	<path class="st4" d="M548.2,479l-172.5,99.6c-2.1,1.2-5.7,1.1-8-0.2L88.9,423c-2.4-1.3-2.6-3.4-0.5-4.5l172.5-99.6
		c2.1-1.2,5.7-1.1,8,0.2l278.8,155.4C550.1,475.7,550.3,477.8,548.2,479z"/>
</g>
</svg>
