<?xml version="1.0" encoding="utf-8"?>
<!-- Generator: Adobe Illustrator 22.0.0, SVG Export Plug-In . SVG Version: 6.00 Build 0)  -->
<svg version="1.1" id="Layer_1" xmlns="http://www.w3.org/2000/svg" xmlns:xlink="http://www.w3.org/1999/xlink" x="0px" y="0px"
	 viewBox="0 0 600 600" style="enable-background:new 0 0 600 600;" xml:space="preserve">
<style type="text/css">
	.st0{fill:#FFFFFF;}
	.st1{fill:url(#SVGID_1_);}
	.st2{fill:none;}
	.st3{fill:#898989;}
	.st4{fill:#A7A6A6;}
</style>
<g>
	<path class="st0" d="M263.8,148.7c-31.4,7.6-59.2,24.9-79.8,48.6l-63.1,57.2c-0.5,4.9,23.8,43.2,23.8,48.3
		c0,53.4,25.9,100.5,65.5,129.4l90-202.3L263.8,148.7z"/>
	<linearGradient id="SVGID_1_" gradientUnits="userSpaceOnUse" x1="169.1949" y1="336.6914" x2="251.1949" y2="148.6914">
		<stop  offset="0" style="stop-color:#000000;stop-opacity:0"/>
		<stop  offset="1" style="stop-color:#000000;stop-opacity:0.3"/>
	</linearGradient>
	<path class="st1" d="M263.8,148.7c-31.4,7.6-59.2,24.9-79.8,48.6l-63.1,57.2c-0.5,4.9,23.8,43.2,23.8,48.3
		c0,53.4,25.9,100.5,65.5,129.4l90-202.3L263.8,148.7z"/>
	<path class="st2" d="M328.2,318.3l11.1-0.2L300.1,230l-90,202.3c25.4,18.3,56.4,29.2,90,29.2c33.2,0,64.1-10.7,89.3-28.9
		l-110.7-0.4L328.2,318.3z"/>
	<path class="st0" d="M71.3,460.8l-51,118.9h124.3l16.3-37C125.5,522.3,94.9,494.3,71.3,460.8z"/>
	<path class="st3" d="M389.4,432.8c-25.2,18.1-56.1,28.9-89.3,28.9c-33.6,0-64.6-10.9-90-29.2c-39.6-28.7-65.5-76-65.5-129.4
		c0-5.1,0.2-10.2,0.7-15.1c3.3-34.7,17.2-65.9,38.8-90.4c20.9-23.8,48.5-41,79.8-48.6l-30.1-67.7l-21-47.2
		C101,70.8,20.1,176.1,20.1,300.2c0,59.9,18.9,115.4,51,161c23.6,33.4,54.3,61.5,89.8,81.8c41,23.4,88.4,37,139,37s98-13.4,139-37
		l-48.8-110L389.4,432.8z"/>
	<path class="st3" d="M387.2,34c-14.7-4.9-30.1-8.5-45.9-10.9l24.9,58.1l47.4,110.7l50.8-118.3C441.3,56.5,415.1,43,387.2,34z"/>
	<polygon class="st0" points="529.1,460.8 517.1,433.2 390.3,432.8 439.1,542.8 455.6,579.6 579.9,579.6 	"/>
	<path class="st0" d="M457.4,293.6l-41.2-96.2L366.3,81.2l-24.9-58.1c-13.4-2-27.2-3.1-41.2-3.1c-14,0-27.8,1.1-41.2,3.1
		c-15.8,2.4-31,6-45.9,10.9l21,47.2l30.1,67.7l36.1,81.1l39.2,88.2l115.6-1.1l12.3-0.2L457.4,293.6z"/>
	<path class="st4" d="M389.4,432.8h0.9l-0.2-0.5C389.9,432.5,389.7,432.7,389.4,432.8z"/>
	<path class="st3" d="M467.4,316.9l-12.3,0.2l-115.6,1.1l-11.1,0.2l-49.5,114l110.7,0.4c0.2-0.2,0.4-0.4,0.7-0.4l0.2,0.5l126.8,0.5
		L467.4,316.9z"/>
</g>
</svg>
