<?xml version="1.0" encoding="utf-8"?>
<!-- Generator: Adobe Illustrator 22.0.0, SVG Export Plug-In . SVG Version: 6.00 Build 0)  -->
<svg version="1.1" id="Layer_1" xmlns="http://www.w3.org/2000/svg" xmlns:xlink="http://www.w3.org/1999/xlink" x="0px" y="0px"
	 viewBox="0 0 600 600" style="enable-background:new 0 0 600 600;" xml:space="preserve">
<style type="text/css">
	.st0{fill:#906E4E;}
	.st1{fill:none;}
	.st2{fill:url(#SVGID_1_);}
	.st3{fill:url(#SVGID_2_);}
	.st4{fill:#8D6C4B;}
	.st5{fill:url(#SVGID_3_);}
	.st6{fill:#D5C09E;}
	.st7{fill:#A7A6A6;}
</style>
<g>
	<path class="st0" d="M200.9,471c0,0.2,0,0.6,0,1c0,0.5,0,0.8,0,1c0,2.7-0.2,5.1-0.7,7.4s-1.2,4.4-2.2,6.4
		c-2.9,5.8-6.9,10.3-11.9,13.4s-10.7,4.7-17,4.7c-4.7,0-9-0.9-12.9-2.7c-4-1.8-7.5-4.4-10.7-7.9c-2.6-2.9-4.6-6.3-6-10
		s-2.1-7.7-2.1-11.9c0-4.3,0.8-8.4,2.5-12.2c1.7-3.9,4.1-7.4,7.3-10.5c3.1-3,6.4-5.3,10.2-6.7c3.7-1.5,7.9-2.2,12.4-2.2
		c6.6,0,12.4,1.6,17.2,4.9c4.8,3.2,8.6,8,11.2,14.2h-14.7c-1.8-2.2-3.9-3.9-6.3-5c-2.4-1.1-5.1-1.7-8.1-1.7c-5.3,0-9.8,1.9-13.4,5.7
		c-3.7,3.8-5.5,8.4-5.5,13.9s1.9,10.2,5.6,14c3.7,3.8,8.3,5.7,13.7,5.7c3.8,0,7.2-1,10.2-3c3.1-2,5.3-4.8,6.8-8.2h-24.2V471H200.9z"
		/>
	<path class="st0" d="M232.4,503.8h-12.1v-61.7H235c4.7,0,8.1,0.2,10.4,0.5c2.3,0.3,4.2,0.9,5.8,1.6c3.5,1.6,6.2,3.9,8,6.9
		c1.8,2.9,2.8,6.4,2.8,10.3c0,4.8-1.3,8.8-3.9,12.1c-2.6,3.3-6.2,5.4-10.7,6.3l15.4,23.9h-14.4l-15.9-28.6v28.7H232.4z M232.4,472.1
		h2.7c4.9,0,8.6-0.9,11.1-2.6c2.5-1.8,3.8-4.3,3.8-7.7c0-3.3-1.1-5.7-3.2-7.2c-2.1-1.6-5.4-2.3-9.9-2.3h-4.5L232.4,472.1
		L232.4,472.1z"/>
	<path class="st0" d="M282,442.1h12.1v35.6c0,5.6,0.6,9.4,1.8,11.6c1.2,2.2,3.2,3.2,6,3.2c2.9,0,4.9-1.1,6-3.2
		c1.2-2.2,1.8-6,1.8-11.6v-35.6h12.1v39.1c0,4.3-0.2,7.6-0.7,9.8c-0.5,2.2-1.3,4.1-2.4,5.7c-1.9,2.8-4.2,4.9-6.9,6.2
		c-2.7,1.3-6,2-9.8,2s-7.1-0.7-9.8-2c-2.7-1.3-5-3.4-6.9-6.2c-1.1-1.6-1.9-3.5-2.4-5.5s-0.7-5.4-0.7-10v-39.1H282z"/>
	<path class="st0" d="M353.2,503.8h-12.1v-61.7h15.3c3.9,0,7,0.2,9.2,0.6s4.1,1.1,5.4,2c2.5,1.7,4.5,4,6,6.8s2.2,5.8,2.2,9.1
		c0,5.9-2,10.6-5.8,14.1c-3.9,3.5-9.1,5.3-15.8,5.3h-4.5L353.2,503.8L353.2,503.8z M353.2,469.7h3.2c3.4,0,5.9-0.7,7.7-2.2
		c1.8-1.5,2.7-3.5,2.7-6.2c0-2.8-0.9-4.9-2.6-6.2c-1.7-1.4-4.4-2.1-7.9-2.1h-3.1L353.2,469.7L353.2,469.7z"/>
	<path class="st0" d="M398.6,472.8c0-3.4,0.5-6.6,1.4-9.6s2.2-5.8,4-8.4c3-4.4,6.9-7.9,11.5-10.3s9.6-3.6,15.1-3.6
		c4.1,0,8,0.8,11.8,2.4s7.2,3.9,10.2,6.8c3.1,3.1,5.4,6.5,7,10.4c1.6,3.8,2.4,7.9,2.4,12.1c0,4.4-0.8,8.5-2.3,12.4
		s-3.7,7.3-6.7,10.3c-3,3.1-6.4,5.5-10.4,7.2c-3.9,1.7-8.1,2.5-12.3,2.5c-4.6,0-8.8-0.8-12.7-2.5c-3.9-1.6-7.3-4.1-10.3-7.3
		c-2.9-3.1-5.1-6.5-6.5-10.3S398.6,477.1,398.6,472.8z M411.3,472.4c0,2.7,0.4,5.1,1.3,7.4s2.2,4.4,3.9,6.3c1.9,2.1,4,3.6,6.4,4.8
		c2.4,1.1,4.9,1.7,7.5,1.7c5.4,0,9.9-1.9,13.6-5.8c3.7-3.8,5.5-8.6,5.5-14.4c0-5.3-1.8-9.7-5.5-13.4c-3.7-3.7-8.1-5.6-13.3-5.6
		c-5.4,0-10,1.8-13.7,5.5C413.1,462.6,411.3,467.1,411.3,472.4z"/>
</g>
<g>
	<path class="st1" d="M315.2,259.6l6.1-0.1l-21.6-48.6l-49.6,111.5c14,10.1,31.1,16.1,49.6,16.1c18.3,0,35.3-5.9,49.2-15.9l-61-0.2
		L315.2,259.6z"/>
	
		<linearGradient id="SVGID_1_" gradientUnits="userSpaceOnUse" x1="160.9801" y1="162.9056" x2="209.6952" y2="264.2019" gradientTransform="matrix(1 0 0 -1 0 602)">
		<stop  offset="0.4872" style="stop-color:#D5C09E"/>
		<stop  offset="0.7575" style="stop-color:#B29F84"/>
		<stop  offset="1" style="stop-color:#342B21"/>
	</linearGradient>
	<path class="st2" d="M173.6,338.1l-28.1,65.5H214l9-20.4C203.5,372,186.6,356.6,173.6,338.1z"/>
	
		<linearGradient id="SVGID_2_" gradientUnits="userSpaceOnUse" x1="201.6984" y1="270.9962" x2="285.2099" y2="465.8564" gradientTransform="matrix(1 0 0 -1 0 602)">
		<stop  offset="0.4872" style="stop-color:#D5C09E"/>
		<stop  offset="0.7575" style="stop-color:#B29F84"/>
		<stop  offset="1" style="stop-color:#342B21"/>
	</linearGradient>
	<path class="st3" d="M279.7,166.1c-17.3,4.2-32.6,13.7-44,26.8l-34.8,31.5c-0.3,2.7,13.1,23.8,13.1,26.6
		c0,29.4,14.3,55.4,36.1,71.3l49.6-111.5L279.7,166.1z"/>
	<path class="st4" d="M348.9,322.7c-13.9,10-30.9,15.9-49.2,15.9c-18.5,0-35.6-6-49.6-16.1c-21.8-15.8-36.1-41.9-36.1-71.3
		c0-2.8,0.1-5.6,0.4-8.3c1.8-19.1,9.5-36.3,21.4-49.8c11.5-13.1,26.7-22.6,44-26.8L263.2,129l-11.6-26
		c-61.6,20.2-106.2,78.2-106.2,146.6c0,33,10.4,63.6,28.1,88.7c13,18.4,29.9,33.9,49.5,45.1c22.6,12.9,48.7,20.4,76.6,20.4
		s54-7.4,76.6-20.4l-26.9-60.6L348.9,322.7z"/>
	<path class="st4" d="M347.7,102.9c-8.1-2.7-16.6-4.7-25.3-6l13.7,32l26.1,61l28-65.2C377.5,115.3,363.1,107.9,347.7,102.9z"/>
	
		<linearGradient id="SVGID_3_" gradientUnits="userSpaceOnUse" x1="421.3786" y1="181.4257" x2="378.0763" y2="307.4663" gradientTransform="matrix(1 0 0 -1 0 602)">
		<stop  offset="0.4872" style="stop-color:#D5C09E"/>
		<stop  offset="0.7575" style="stop-color:#B29F84"/>
		<stop  offset="1" style="stop-color:#342B21"/>
	</linearGradient>
	<polygon class="st5" points="425.9,338.1 419.3,322.9 349.4,322.7 376.3,383.3 385.4,403.6 453.9,403.6 	"/>
	<path class="st6" d="M386.4,246l-22.7-53l-27.5-64.1l-13.7-32c-7.4-1.1-15-1.7-22.7-1.7s-15.3,0.6-22.7,1.7
		c-8.7,1.3-17.1,3.3-25.3,6l11.6,26l16.6,37.3l19.9,44.7l21.6,48.6l63.7-0.6l6.8-0.1L386.4,246z"/>
	<path class="st7" d="M348.9,322.7h0.5l-0.1-0.3C349.2,322.5,349.1,322.6,348.9,322.7z"/>
	<path class="st4" d="M391.9,258.8l-6.8,0.1l-63.7,0.6l-6.1,0.1L288,322.4l61,0.2c0.1-0.1,0.2-0.2,0.4-0.2l0.1,0.3l69.9,0.3
		L391.9,258.8z"/>
</g>
</svg>
