<?xml version="1.0" encoding="utf-8"?>
<!-- Generator: Adobe Illustrator 22.0.0, SVG Export Plug-In . SVG Version: 6.00 Build 0)  -->
<svg version="1.1" id="Layer_1" xmlns="http://www.w3.org/2000/svg" xmlns:xlink="http://www.w3.org/1999/xlink" x="0px" y="0px"
	 viewBox="0 0 427 29.2" style="enable-background:new 0 0 427 29.2;" xml:space="preserve">
<style type="text/css">
	.st0{fill:#FFFFFF;}
</style>
<g>
	<polygon class="st0" points="0,21.2 -2,21.2 -2,33.2 427,33.2 427,30.4 0,30.4 	"/>
	<rect x="-2" y="9.2" class="st0" width="2" height="6"/>
	<path class="st0" d="M430.9-17.1H0V9.2h38v6H0v6h8v5h35h1v-1h26v2h1h32h1v-3h25v1h1h21h1v-1h45h1v-1h40h1v-1h33v2h1h48v1h1h36v2h1
		h25v-2h37v-4h6v9.2h3.9V-17.1z M283,5.2h32v10h-32V5.2z M159,5.2h24v10h-24V5.2z M43,20.2v5H9v-5v-4h34V20.2z M70,20.2v4H44v-4v-4
		h26V20.2z M39,15.2v-5h33v5H39z M103,20.2v6H71v-6v-4h32V20.2z M73,15.2v-7h48v7H73z M129,20.2v3h-25v-3v-4h25V20.2z M151,20.2v4
		h-21v-4v-4h21V20.2z M122,15.2v-8h36v8H122z M197,20.2v3h-45v-3v-4h45V20.2z M184,15.2v-8h36v8H184z M238,20.2v2h-40v-2v-4h40V20.2
		z M221,15.2v-9h34v9H221z M272,20.2v1h-33v-1v-4h33V20.2z M256,15.2v-8h26v8H256z M321,23.2h-48v-3v-4h48V23.2z M316,15.2v-7h25v7
		H316z M358,20.2v4h-36v-4v-4h36V20.2z M342,15.2v-8h21v8H342z M383,20.2v6h-24v-6v-4h24V20.2z M364,15.2v-7h45v7H364z M420,20.2v4
		h-36v-4v-4h36V20.2z"/>
</g>
</svg>
