<?xml version="1.0" encoding="utf-8"?>
<!-- Generator: Adobe Illustrator 22.0.0, SVG Export Plug-In . SVG Version: 6.00 Build 0)  -->
<svg version="1.1" id="Layer_1" xmlns="http://www.w3.org/2000/svg" xmlns:xlink="http://www.w3.org/1999/xlink" x="0px" y="0px"
	 viewBox="0 0 427 29.2" style="enable-background:new 0 0 427 29.2;" xml:space="preserve">
<style type="text/css">
	.st0{fill:#FFFFFF;}
</style>
<g>
	<polygon class="st0" points="1,7.9 -1,7.9 -1,-4.1 428,-4.1 428,-1.3 1,-1.3 	"/>
	<rect x="-1" y="13.9" class="st0" width="2" height="6"/>
	<path class="st0" d="M431.9,46.2H1V19.9h38v-6H1v-6h8v-5h35h1v1h26v-2h1h32h1v3h25v-1h1h21h1v1h45h1v1h40h1v1h33v-2h1h48v-1h1h36
		v-2h1h25v2h37v4h6v-9.2h3.9V46.2z M284,23.9h32v-10h-32V23.9z M160,23.9h24v-10h-24V23.9z M44,8.9v-5H10v5v4h34V8.9z M71,8.9v-4H45
		v4v4h26V8.9z M40,13.9v5h33v-5H40z M104,8.9v-6H72v6v4h32V8.9z M74,13.9v7h48v-7H74z M130,8.9v-3h-25v3v4h25V8.9z M152,8.9v-4h-21
		v4v4h21V8.9z M123,13.9v8h36v-8H123z M198,8.9v-3h-45v3v4h45V8.9z M185,13.9v8h36v-8H185z M239,8.9v-2h-40v2v4h40V8.9z M222,13.9v9
		h34v-9H222z M273,8.9v-1h-33v1v4h33V8.9z M257,13.9v8h26v-8H257z M322,5.9h-48v3v4h48V5.9z M317,13.9v7h25v-7H317z M359,8.9v-4h-36
		v4v4h36V8.9z M343,13.9v8h21v-8H343z M384,8.9v-6h-24v6v4h24V8.9z M365,13.9v7h45v-7H365z M421,8.9v-4h-36v4v4h36V8.9z"/>
</g>
</svg>
