<?xml version="1.0" encoding="utf-8"?>
<!-- Generator: Adobe Illustrator 22.0.0, SVG Export Plug-In . SVG Version: 6.00 Build 0)  -->
<svg version="1.1" id="Layer_1" xmlns="http://www.w3.org/2000/svg" xmlns:xlink="http://www.w3.org/1999/xlink" x="0px" y="0px"
	 viewBox="0 0 600 600" style="enable-background:new 0 0 600 600;" xml:space="preserve">
<style type="text/css">
	.st0{fill:url(#SVGID_1_);}
	.st1{fill:url(#SVGID_2_);}
	.st2{fill:url(#SVGID_3_);}
	.st3{fill:url(#SVGID_4_);}
	.st4{fill:url(#SVGID_5_);}
	.st5{fill:url(#SVGID_6_);}
	.st6{fill:url(#SVGID_7_);}
	.st7{fill:url(#SVGID_8_);}
	.st8{fill:url(#SVGID_9_);}
	.st9{fill:url(#SVGID_10_);}
	.st10{fill:url(#SVGID_11_);}
	.st11{fill:url(#SVGID_12_);}
	.st12{fill:url(#SVGID_13_);}
	.st13{fill:url(#SVGID_14_);}
	.st14{fill:url(#SVGID_15_);}
</style>
<linearGradient id="SVGID_1_" gradientUnits="userSpaceOnUse" x1="357.2414" y1="495.0255" x2="618.8643" y2="495.0255" gradientTransform="matrix(1 0 0 -1 0 602)">
	<stop  offset="0" style="stop-color:#FDD100"/>
	<stop  offset="1" style="stop-color:#FB7E1A"/>
</linearGradient>
<path class="st0" d="M609.9,134.3L533.3,22.6C521.2,4.7,499.5-2.9,479.1,0.9c-14,1.9-27.4,9.6-36.4,22.3l-3.2,5.1L366.1,133
	c-7.7,10.8-10.2,23-8.3,35.1c2.6,25.5,25.5,45.9,53,45.9c18.5,0,34.5-8.9,44-22.3l33.8-48.5c0,0,0,0-0.6-0.6v-0.6l33.2,48.5
	c10.2,14.7,26.8,23,44,23c10.2,0,19.8-2.6,29.3-8.3C619.4,189.1,626.4,157.9,609.9,134.3z"/>
<linearGradient id="SVGID_2_" gradientUnits="userSpaceOnUse" x1="142.9272" y1="345.8815" x2="457.1844" y2="345.8815" gradientTransform="matrix(1 0 0 -1 0 602)">
	<stop  offset="0" style="stop-color:#FDD100"/>
	<stop  offset="1" style="stop-color:#FB7E1A"/>
</linearGradient>
<path class="st1" d="M446.7,289.4l-91.9-134c-14.6-21.3-40.9-31-65.5-26.3c-17.2,2.5-33.2,11.7-43.5,26.7l-4,5.9l-88.1,125.7
	c-9,12.8-12.2,27.7-10.2,42c3.2,30.8,30.5,54.9,63.6,54.9c22.1,0,41.6-10.7,53.1-27l40.5-58.3c0,0-0.2-0.2-0.5-0.6l0.3-0.5
	l40.1,58.5c12.2,17.8,32.5,27.4,53.1,27.4c12,0,24.1-3.3,34.9-10C457.9,355.3,466,317.5,446.7,289.4z"/>
<linearGradient id="SVGID_3_" gradientUnits="userSpaceOnUse" x1="-8.7884" y1="468.3" x2="304" y2="468.3" gradientTransform="matrix(1 0 0 -1 0 602)">
	<stop  offset="0" style="stop-color:#FDD100"/>
	<stop  offset="1" style="stop-color:#FB7E1A"/>
</linearGradient>
<path class="st2" d="M293.6,166.8L202.1,33.4C187.5,12,161.4,2.5,136.9,7.2c-17.1,2.6-33.1,11.6-43.3,26.7l-4,5.8L1.9,164.9
	c-9,12.7-12.1,27.6-10.1,41.8c3.1,30.7,30.4,54.7,63.3,54.7c22,0,41.4-10.7,52.8-26.9l40.3-58.1c0,0-0.2-0.2-0.5-0.6l0.3-0.5
	l39.9,58.2c12.1,17.7,32.4,27.4,52.8,27.4c12,0,24-3.3,34.7-10C304.7,232.5,312.8,194.9,293.6,166.8z"/>
<linearGradient id="SVGID_4_" gradientUnits="userSpaceOnUse" x1="27" y1="326.7498" x2="687.0591" y2="326.7498" gradientTransform="matrix(1 0 0 -1 0 602)">
	<stop  offset="0" style="stop-color:#FB0A87"/>
	<stop  offset="1" style="stop-color:#A408B0"/>
</linearGradient>
<path class="st3" d="M665.1,345.1L472,63.6c-30.8-44.8-85.9-65-137.6-55.2C298.2,13.7,264.7,33,243,64.6L234.5,77l-185,263.9
	c-18.8,26.8-25.5,58.3-21.4,88.1c6.7,64.9,64.1,115.4,133.6,115.4c46.4,0,87.3-22.5,111.4-56.7l85.1-122.5c0,0-0.3-0.5-1.1-1.3
	l0.8-1.1l84.3,122.8c25.7,37.4,68.2,57.6,111.6,57.6c25.2,0,50.6-6.9,73.2-21C688.5,483.5,705.6,404.2,665.1,345.1z"/>
<linearGradient id="SVGID_5_" gradientUnits="userSpaceOnUse" x1="-293.9471" y1="307.3093" x2="231.5163" y2="307.3093" gradientTransform="matrix(1 0 0 -1 114 602)">
	<stop  offset="0" style="stop-color:#FB0A87"/>
	<stop  offset="1" style="stop-color:#FB7E1A"/>
</linearGradient>
<path class="st4" d="M328,350.3l-153.8-224c-24.5-35.7-68.3-51.8-109.5-43.9C36,86.6,9.3,102-8,127l-6.7,9.8L-162,347
	c-15,21.4-20.3,46.4-17,70.1c5.4,51.6,50.9,91.8,106.4,91.8c36.9,0,69.5-17.9,88.7-45.1l67.7-97.5c0,0-0.3-0.3-0.9-1.1l0.5-0.9
	l67.1,97.8c20.4,29.8,54.3,45.9,88.8,45.9c20.1,0,40.4-5.4,58.3-16.8C346.7,460.6,360.3,397.3,328,350.3z"/>
<linearGradient id="SVGID_6_" gradientUnits="userSpaceOnUse" x1="400.1692" y1="451.65" x2="744.109" y2="451.65" gradientTransform="matrix(1 0 0 -1 0 602)">
	<stop  offset="0" style="stop-color:#02A0D0"/>
	<stop  offset="1" style="stop-color:#10D683"/>
</linearGradient>
<path class="st5" d="M732.7,186.6L632.1,40c-16-23.3-44.8-33.9-71.7-28.8c-18.8,2.8-36.3,12.9-47.6,29.3l-4.4,6.4l-96.5,137.6
	c-9.8,14.1-13.3,30.4-11.1,46c3.4,33.8,33.4,60.2,69.6,60.2c24.3,0,45.5-11.7,58.1-29.6l44.3-63.9c0,0-0.1-0.3-0.5-0.7l0.4-0.5
	l43.9,64c13.4,19.5,35.5,30.1,58.2,30.1c13.1,0,26.4-3.6,38.2-11C744.9,258.8,753.8,217.4,732.7,186.6z"/>
<linearGradient id="SVGID_7_" gradientUnits="userSpaceOnUse" x1="-47.3927" y1="296.579" x2="622" y2="296.579" gradientTransform="matrix(1 0 0 -1 0 602)">
	<stop  offset="0" style="stop-color:#02A0D0"/>
	<stop  offset="1" style="stop-color:#10D683"/>
</linearGradient>
<path class="st6" d="M599.7,374.3L404,96.8c-31.3-44.1-87-64.2-139.6-54.4c-36.6,5.1-70.7,24.3-92.6,55.4l-8.6,12.1L-24.5,370.2
	c-19,26.6-25.9,57.4-21.7,86.8c6.7,63.8,65,113.8,135.5,113.8c47,0,88.5-22.1,113-55.8l86.2-120.8c0,0-0.4-0.4-1-1.2l0.8-1
	l85.4,121.2C399.7,550,442.8,570,486.9,570c25.5,0,51.3-6.7,74.4-20.8C623.4,510.8,640.8,432.5,599.7,374.3z"/>
<linearGradient id="SVGID_8_" gradientUnits="userSpaceOnUse" x1="-486.8302" y1="379.387" x2="58.4567" y2="379.387" gradientTransform="matrix(1 0 0 -1 0 602)">
	<stop  offset="0" style="stop-color:#FDD100"/>
	<stop  offset="1" style="stop-color:#FB7E1A"/>
</linearGradient>
<path class="st7" d="M40.3,280.3L-119.2,47.8c-25.4-37.1-70.9-53.8-113.6-45.6c-29.8,4.4-57.7,20.3-75.5,46.3l-7,10.2l-152.8,218
	c-15.5,22.1-21.1,48.2-17.7,72.9c5.6,53.5,52.9,95.3,110.4,95.3c38.4,0,72.1-18.6,92-46.7l70.3-101.1c0,0-0.3-0.4-0.9-1l0.7-0.9
	l69.6,101.4c21.2,30.9,56.4,47.6,92.2,47.6c20.8,0,41.8-5.6,60.5-17.4C59.7,394.6,73.7,329.1,40.3,280.3z"/>
<linearGradient id="SVGID_9_" gradientUnits="userSpaceOnUse" x1="150.8929" y1="519.6964" x2="337.9866" y2="519.6964" gradientTransform="matrix(1 0 0 -1 0 602)">
	<stop  offset="0" style="stop-color:#FB0A87"/>
	<stop  offset="1" style="stop-color:#A408B0"/>
</linearGradient>
<path class="st8" d="M331.7,102L277,22.3c-8.8-12.6-24.4-18.4-38.9-15.6c-10.3,1.5-19.7,7.1-25.9,16l-2.4,3.4l-52.4,74.8
	c-5.3,7.7-7.3,16.5-6,25c1.9,18.4,18.2,32.7,37.8,32.7c13.2,0,24.8-6.4,31.6-16l24.1-34.6c0,0,0-0.2-0.2-0.4l0.2-0.2l23.9,34.8
	c7.3,10.7,19.2,16.2,31.6,16.2c7.1,0,14.3-1.9,20.7-6C338.3,141.3,343.3,118.9,331.7,102z"/>
<linearGradient id="SVGID_10_" gradientUnits="userSpaceOnUse" x1="487.9625" y1="350.1056" x2="793.0068" y2="350.1056" gradientTransform="matrix(1 0 0 -1 0 602)">
	<stop  offset="0" style="stop-color:#FB0A87"/>
	<stop  offset="1" style="stop-color:#FB7E1A"/>
</linearGradient>
<path class="st9" d="M782.8,284.1l-89.2-130c-14.2-20.7-39.7-30-63.6-25.5c-16.7,2.4-32.2,11.4-42.2,26l-3.9,5.7l-85.5,122
	c-8.7,12.4-11.8,26.9-9.9,40.7c3.1,29.9,29.6,53.3,61.7,53.3c21.4,0,40.4-10.4,51.5-26.2l39.3-56.6c0,0-0.2-0.2-0.5-0.6l0.3-0.5
	l38.9,56.8c11.9,17.3,31.5,26.6,51.6,26.6c11.6,0,23.4-3.2,33.8-9.7C793.7,348,801.6,311.4,782.8,284.1z"/>
<linearGradient id="SVGID_11_" gradientUnits="userSpaceOnUse" x1="-81.9771" y1="521.2491" x2="77.3519" y2="521.2491" gradientTransform="matrix(1 0 0 -1 0 602)">
	<stop  offset="0" style="stop-color:#FB0A87"/>
	<stop  offset="1" style="stop-color:#FB7E1A"/>
</linearGradient>
<path class="st10" d="M72.1,97.5L25.5,29.6C18.1,18.8,4.8,13.9-7.7,16.3c-8.7,1.3-16.8,5.9-22.1,13.6l-2,3l-44.7,63.7
	c-4.5,6.5-6.2,14.1-5.2,21.3c1.6,15.6,15.4,27.9,32.3,27.9c11.2,0,21.1-5.4,26.9-13.7L-2,102.4c0,0-0.1-0.1-0.3-0.3l0.2-0.3
	l20.3,29.7c6.2,9,16.5,13.9,26.9,13.9c6.1,0,12.2-1.6,17.7-5.1C77.7,130.9,81.8,111.8,72.1,97.5z"/>
<linearGradient id="SVGID_12_" gradientUnits="userSpaceOnUse" x1="741.1711" y1="213.9243" x2="913.8249" y2="213.9243" gradientTransform="matrix(-1 0 0 -1 1428.3827 602)">
	<stop  offset="0" style="stop-color:#FDD100"/>
	<stop  offset="1" style="stop-color:#FB7E1A"/>
</linearGradient>
<path class="st11" d="M520.3,406.3l50.5-73.6c8-11.7,22.5-17,36-14.4c9.4,1.4,18.2,6.4,23.9,14.7l2.2,3.2l48.4,69
	c4.9,7,6.7,15.2,5.6,23.1c-1.8,16.9-16.7,30.2-34.9,30.2c-12.1,0-22.8-5.9-29.2-14.8l-22.2-32c0,0,0.1-0.1,0.3-0.3l-0.2-0.3
	l-22,32.1c-6.7,9.8-17.8,15.1-29.2,15.1c-6.6,0-13.2-1.8-19.2-5.5C514.2,442.5,509.7,421.7,520.3,406.3z"/>
<linearGradient id="SVGID_13_" gradientUnits="userSpaceOnUse" x1="931.1321" y1="88.4102" x2="1018.6923" y2="88.4102" gradientTransform="matrix(-1 0 0 -1 1428.3827 602)">
	<stop  offset="0" style="stop-color:#FB0A87"/>
	<stop  offset="1" style="stop-color:#A408B0"/>
</linearGradient>
<path class="st12" d="M412.6,522.8l25.6-37.3c4.1-5.9,11.4-8.6,18.2-7.3c4.8,0.7,9.2,3.3,12.1,7.5l1.1,1.6l24.5,35
	c2.5,3.6,3.4,7.7,2.8,11.7c-0.9,8.6-8.5,15.3-17.7,15.3c-6.2,0-11.6-3-14.8-7.5l-11.3-16.2c0,0,0-0.1,0.1-0.2l-0.1-0.1l-11.2,16.3
	c-3.4,5-9,7.6-14.8,7.6c-3.3,0-6.7-0.9-9.7-2.8C409.5,541.1,407.2,530.6,412.6,522.8z"/>
<linearGradient id="SVGID_14_" gradientUnits="userSpaceOnUse" x1="1328.4535" y1="120.7831" x2="1566.1255" y2="120.7831" gradientTransform="matrix(-1 0 0 -1 1428.3827 602)">
	<stop  offset="0" style="stop-color:#FB0A87"/>
	<stop  offset="1" style="stop-color:#FB7E1A"/>
</linearGradient>
<path class="st13" d="M-129.8,506.4L-60.3,405c11.1-16.2,30.9-23.4,49.5-19.9c13,1.9,25.1,8.9,32.9,20.2l3,4.4l66.7,95.1
	c6.8,9.7,9.2,21,7.7,31.8c-2.4,23.3-23,41.6-48.1,41.6c-16.7,0-31.5-8.1-40.1-20.4l-30.6-44.1c0,0,0.1-0.2,0.4-0.5l-0.3-0.4
	L-49.6,557c-9.2,13.5-24.6,20.8-40.2,20.8c-9.1,0-18.2-2.5-26.4-7.6C-138.3,556.3-144.4,527.7-129.8,506.4z"/>
<linearGradient id="SVGID_15_" gradientUnits="userSpaceOnUse" x1="-106.9116" y1="448.3094" x2="209" y2="448.3094" gradientTransform="matrix(1 0 0 -1 0 602)">
	<stop  offset="0" style="stop-color:#02A0D0"/>
	<stop  offset="1" style="stop-color:#10D683"/>
</linearGradient>
<path class="st14" d="M198.4,187.1L105.9,52.5C91.1,30.9,64.8,21.4,40.2,26C22.8,28.6,6.7,37.9-3.5,52.9l-4,5.8l-88.6,126.4
	c-9,12.8-12.2,28-10.2,42.2c3.3,31.1,30.7,55.2,63.9,55.2c22.3,0,41.8-10.8,53.3-27l40.7-58.6c0,0-0.2-0.2-0.5-0.5l0.4-0.5
	l40.4,58.8c12.2,17.9,32.7,27.6,53.3,27.6c12.1,0,24.3-3.3,35.1-10C209.7,253.4,217.9,215.5,198.4,187.1z"/>
</svg>
