<?xml version="1.0" encoding="utf-8"?>
<!-- Generator: Adobe Illustrator 22.0.0, SVG Export Plug-In . SVG Version: 6.00 Build 0)  -->
<svg version="1.1" id="Layer_1" xmlns="http://www.w3.org/2000/svg" xmlns:xlink="http://www.w3.org/1999/xlink" x="0px" y="0px"
	 viewBox="0 0 1226.8 601" style="enable-background:new 0 0 1226.8 601;" xml:space="preserve">
<style type="text/css">
	.st0{fill:url(#SVGID_1_);}
	.st1{fill:none;}
	.st2{fill:url(#SVGID_2_);}
	.st3{fill:url(#SVGID_3_);}
	.st4{fill:url(#SVGID_4_);}
	.st5{fill:url(#SVGID_5_);}
	.st6{fill:url(#SVGID_6_);}
	.st7{fill:url(#SVGID_7_);}
	.st8{fill:url(#SVGID_8_);}
	.st9{fill:url(#SVGID_9_);}
	.st10{fill:url(#SVGID_10_);}
	.st11{fill:url(#SVGID_11_);}
	.st12{fill:url(#SVGID_12_);}
</style>
<linearGradient id="SVGID_1_" gradientUnits="userSpaceOnUse" x1="612.5463" y1="181.5014" x2="612.5463" y2="560.7294">
	<stop  offset="0" style="stop-color:#8F48B5"/>
	<stop  offset="1" style="stop-color:#E12B71"/>
</linearGradient>
<path class="st0" d="M1065.2-34.4c-0.4,0-0.4,0-0.7,0L657.7-47.1c-0.7-3.7-2.6-6.7-4.6-6.4l-91.5,3.4l-107.7-3.4
	c-2.4-0.3-4.8,2.8-5.5,6.7l0,0.9L134.6-34.4c-0.3,0-0.3,0-0.6,0L-12.3-70.9v411.2H9.4c2.6,0,5.1,4.3,5.1,9.3v0.8v2.7v3.8
	c1.1,1.5,2,3.1,4.1,4.3c3.5,2,7.7,3.5,11.8,3.1c0.3,0,4.4-0.8,6.7-1.5c2-0.5,3.8,0.8,4.7,3.8c5.8,16.4-0.3,43.5-4.7,66.1
	c-2.3,12-4.4,22.5-4.1,29.2c0.3,17.2,12.7,31.1,24.2,31.1c11.8,0,24.2-14.8,25.1-31.1c0.6-13.2-2.6-27.2-6.1-40.4
	c-1.1-3.8-2-7.7-2.6-11.7c-0.3-1.5-0.6-3.5-1.4-5.4c-2.6-11.7-6.1-26.1-1.4-36.6c3.2-7,8-10.9,13.9-10.9c6.4,0,12.4,4.6,17.3,12.8
	c2.6,4.6,1.4,9.7,0.3,15.2c-1.1,5.1-2.3,11.2,0,16.4c2.6,6.2,8.4,10.5,15.3,10.5c8,0,15.3-6.7,16.9-13.2c0.6-3.1,0.3-6.7-0.3-10.5
	c-0.6-5.4-1.7-11.2,1.7-14.8c2-2.3,6.1-3.1,11.5-3.1c12.4,0.5,12.4,11.2,12.4,23c0,9.3-0.3,19,5.8,24.5c3.2,3.1,7.7,4.3,13.5,4.3
	c5.1,0,11.5-1.2,18.9-3.1l1.4-0.5c5.1-1.5,9.8-2.7,13.9-2.7c5.4,0,9.5,2.3,12.7,7.4c5.4,8.2,2.3,24.8,0.3,36.9
	c-0.6,3.8-1.4,7.4-1.7,10.2c-0.3,2.7-1.1,6.2-1.4,10.5c-2.6,17.2-4.1,33.7-4.1,50.9c0,14,1.1,33.7,19.6,38.1
	c12.7,3.1,27.1-4.3,31.8-15.2c5.4-12.5,4.1-27.6,2.6-40.4c-0.6-7-2-14-3.5-20.7c-1.4-6.7-3.8-12.8-5.8-19.9c-4.4-14-9.2-28.4-8-42.4
	c0.6-8.2,7.1-17.5,15.6-17.5c3.2,0,6.1,1.2,8.8,3.8c9.8,8.5,6.4,21.7,3.5,33.7c-1.1,4.6-2.3,9.3-2.6,13.5c-0.6,11.2,3.2,21,6.1,24
	c3.2,3.1,7.4,4.6,11.8,4.6c5.1,0,9.8-2,13.2-5.9c4.1-4.6,5.4-14.8,3.8-22.2c-0.6-2.3-1.4-5.1-2-8.2c-5.1-17.9-12.7-45.6,8.8-52.4
	c1.7-0.8,3.5-0.8,5.1-0.8c11.2,0,15.9,16.4,18.9,28.4c0.6,3.1,1.7,5.9,2.3,8.2c4.7,13.5,14.2,24,22.2,24c4.7,0,12.1-4.6,15.6-24.5
	c0-0.8,0.3-1.5,0.3-2.3c1.4-7.7,2.3-15.2,11.2-19c2.3-1.2,4.7-1.5,7.1-1.5c13.2,0,22.5,12.8,33.1,17.9c17.9,8.5,26.3-7.7,30.7-21
	c2.6-8.5,5.4-16.7,13.2-16.7c1.1,0,1.7,0,2.6,0.5c10.7,2,9.5,23.3,9.2,32.2v1.2c-0.3,5.1-1.1,11.7-2,19c-3.2,26.1-7.4,64.1,6.1,79
	c4.1,4.3,9.2,6.7,15.6,6.7c5.8,0.5,10.1-2,13.5-5.9c8-10.2,7.1-34.2,5.1-50.6c-2.6-19.9-7.7-38.4-10.7-46.6c-0.6-1.5-1.4-3.5-2-5.1
	c-3.8-9.3-6.7-17.5-1.7-26.9c3.2-5.9,7.7-9,13.2-9c7.7,0,14.5,6.7,15.3,14.8c0.1,2.1-0.1,4.3-0.5,6.6c-7.8,12.3-16.4,26.3-7.9,39.2
	c3.6,5.5,11.2,6.7,19.9,6.7c1.2,0,2.3-0.1,3.5-0.1c1,0.1,1.9,0.1,2.9,0.1c7.4,0,13.9-1.2,16.9-6.7c0.4-0.7,0.7-1.4,1.1-2.1
	c6.1-7.7,2.9-19-0.1-28.1c-1.8-5.9-3.5-10.9-3.1-15.6c1-8.2,8.9-14.8,18-14.8c6.5,0,11.9,3.1,15.6,9c5.9,9.4,2.4,17.6-2,26.9
	c-0.7,1.5-1.7,3.5-2.4,5.1c-3.5,8.2-9.5,26.7-12.6,46.6c-2.4,16.4-3.5,40.4,6,50.6c4.1,3.8,9.1,6.4,16,5.9c7.6,0,13.6-2.3,18.4-6.7
	c16-14.8,10.9-52.9,7.2-79c-1.1-7.3-2-13.9-2.4-19V430c-0.4-8.9-1.8-30.2,10.8-32.2c1.1-0.5,1.8-0.5,3.1-0.5
	c9.2,0,12.5,8.2,15.6,16.7c5.2,13.3,15,29.5,36.1,21c12.5-5.1,23.4-17.9,39-17.9c2.9,0,5.6,0.3,8.4,1.5c10.4,3.8,11.5,11.3,13.2,19
	c0,0.8,0.4,1.5,0.4,2.3c4.1,19.9,12.8,24.5,18.4,24.5c9.5,0,20.6-10.5,26.1-24c0.7-2.3,2-5.1,2.8-8.2c3.6-12,9.1-28.4,22.3-28.4
	c1.9,0,4,0,6,0.8c25.3,6.9,16.3,34.5,10.3,52.4c-0.7,3.1-1.7,5.9-2.4,8.2c-1.9,7.4-0.4,17.6,4.4,22.2c4.1,3.8,9.6,5.9,15.6,5.9
	c5.2,0,10.2-1.5,13.9-4.6c3.5-3,7.9-12.8,7.2-24c-0.4-4.2-1.8-8.9-3.1-13.5c-3.5-12-7.4-25.3,4.1-33.7c3.1-2.6,6.6-3.8,10.3-3.8
	c10,0,17.6,9.3,18.4,17.5c1.3,14-4.3,28.4-9.5,42.4c-2.4,7.1-5.2,13.2-6.8,19.9s-3.4,13.7-4.1,20.7c-1.7,12.8-3.2,27.9,3.1,40.4
	c5.5,10.8,22.4,18.3,37.4,15.2c21.7-4.3,23-24,23-38.1c0-17.2-1.7-33.7-4.8-50.9c-0.4-4.3-1.3-7.8-1.7-10.5c-0.4-2.8-1.3-6.4-2-10.2
	c-2.4-12-6-28.7,0.4-36.9c3.8-5.1,8.6-7.4,15-7.4c4.8,0,10.3,1.2,16.3,2.7l1.7,0.5c8.8,1.9,16.3,3.1,22.3,3.1c6.8,0,12.2-1.2,16-4.3
	c7.2-5.6,6.8-15.3,6.8-24.5c0-11.8,0-22.5,14.6-23c6.4,0,11.2,0.8,13.6,3.1c4.1,3.6,2.8,9.5,2,14.8c-0.7,3.8-1.1,7.4-0.4,10.5
	c1.9,6.6,10.4,13.2,19.9,13.2c8.2,0,14.9-4.3,18-10.5c2.8-5.2,1.3-11.3,0-16.4c-1.3-5.5-2.8-10.5,0.4-15.2
	c5.8-8.2,12.8-12.8,20.4-12.8c6.8,0,12.6,3.9,16.3,10.9c5.5,10.5,1.4,24.8-1.7,36.6c-1,1.8-1.3,3.8-1.7,5.4c-0.7,4-1.8,7.9-3.1,11.7
	c-4.1,13.2-7.9,27.2-7.2,40.4c1,16.3,15.6,31.1,29.5,31.1c13.6,0,28.2-13.9,28.5-31.1c0.4-6.7-2-17.2-4.8-29.2
	c-5.2-22.5-12.4-49.7-5.5-66.1c1.1-3,3.1-4.3,5.5-3.8c2.8,0.7,7.6,1.5,7.9,1.5c4.8,0.4,9.8-1.1,13.9-3.1c2.4-1.2,3.5-2.8,4.8-4.3
	v-3.8v-2.7v-0.8c0-4.9,2.9-9.3,6-9.3h25.5V-70.9L1065.2-34.4z"/>
<path class="st1" d="M651.7,6.3l-3.1,4.2c-2.7,6.1-2.9,16.6-1.8,29.6c10-3.8,20.9-8.7,31.9-14.4C687.6,17.6,682.6,10.7,651.7,6.3z"
	/>
<path class="st1" d="M621,48l-5.3,7.2c11-4.1,21.8-8.2,31.3-12.3c-0.1-0.9-0.2-1.8-0.2-2.7C637,43.9,628.1,46.6,621,48z"/>
<linearGradient id="SVGID_2_" gradientUnits="userSpaceOnUse" x1="627.9643" y1="14.8658" x2="627.9643" y2="146.7284">
	<stop  offset="0.2364" style="stop-color:#CE4A00"/>
	<stop  offset="1" style="stop-color:#E12B71"/>
</linearGradient>
<path class="st2" d="M651.7,6.3C593.3,42.3,596,53,621,48l27.6-37.4C649.4,8.7,650.5,7.3,651.7,6.3z"/>
<linearGradient id="SVGID_3_" gradientUnits="userSpaceOnUse" x1="634.8173" y1="14.8658" x2="634.8173" y2="146.7284">
	<stop  offset="0.2364" style="stop-color:#CE4A00"/>
	<stop  offset="1" style="stop-color:#E12B71"/>
</linearGradient>
<path class="st3" d="M648.6,10.5L621,48c7.1-1.4,16-4.1,25.8-7.8C645.7,27.2,645.9,16.6,648.6,10.5z"/>
<linearGradient id="SVGID_4_" gradientUnits="userSpaceOnUse" x1="650.1799" y1="14.8658" x2="650.1799" y2="146.7284">
	<stop  offset="0.2364" style="stop-color:#CE4A00"/>
	<stop  offset="1" style="stop-color:#E12B71"/>
</linearGradient>
<path class="st4" d="M648.6,10.5l3.1-4.2C650.5,7.3,649.4,8.7,648.6,10.5z"/>
<linearGradient id="SVGID_5_" gradientUnits="userSpaceOnUse" x1="662.7382" y1="14.8658" x2="662.7382" y2="146.7284">
	<stop  offset="0.2364" style="stop-color:#CE4A00"/>
	<stop  offset="1" style="stop-color:#E12B71"/>
</linearGradient>
<path class="st5" d="M646.8,40.2c0.1,0.9,0.2,1.8,0.2,2.7c14.3-6,25.8-11.8,31.6-17.1C667.7,31.5,656.8,36.4,646.8,40.2z"/>
<linearGradient id="SVGID_6_" gradientUnits="userSpaceOnUse" x1="574.2714" y1="14.8658" x2="574.2714" y2="146.7284">
	<stop  offset="0.2364" style="stop-color:#CE4A00"/>
	<stop  offset="1" style="stop-color:#E12B71"/>
</linearGradient>
<path class="st6" d="M578.5,105.6l37.2-50.5C554.1,78.2,485.2,100.9,578.5,105.6z"/>
<linearGradient id="SVGID_7_" gradientUnits="userSpaceOnUse" x1="-192.455" y1="-265.9547" x2="-192.455" y2="6.5496">
	<stop  offset="0.2364" style="stop-color:#CE4A00"/>
	<stop  offset="1" style="stop-color:#E12B71"/>
</linearGradient>
<path class="st7" d="M-192.5,57.3c0.1,0,0.2,0,0.4,0C-193.2,56.7-192.9,57-192.5,57.3z"/>
<linearGradient id="SVGID_8_" gradientUnits="userSpaceOnUse" x1="-160.021" y1="15.2067" x2="-160.021" y2="145.757">
	<stop  offset="0.2364" style="stop-color:#CE4A00"/>
	<stop  offset="1" style="stop-color:#E12B71"/>
</linearGradient>
<path class="st8" d="M-159.2,63C-163.2,64.2-158.6,63.6-159.2,63L-159.2,63z"/>
<linearGradient id="SVGID_9_" gradientUnits="userSpaceOnUse" x1="-160.021" y1="-265.9547" x2="-160.021" y2="6.5496">
	<stop  offset="0.2364" style="stop-color:#CE4A00"/>
	<stop  offset="1" style="stop-color:#E12B71"/>
</linearGradient>
<path class="st9" d="M-159.2,63C-163.2,64.2-158.6,63.6-159.2,63L-159.2,63z"/>
<linearGradient id="SVGID_10_" gradientUnits="userSpaceOnUse" x1="-192.1441" y1="15.2067" x2="-192.1441" y2="145.757">
	<stop  offset="0.2364" style="stop-color:#CE4A00"/>
	<stop  offset="1" style="stop-color:#E12B71"/>
</linearGradient>
<path class="st10" d="M-192,57.3c-0.2,0-0.3,0-0.4,0C-192,57.5-191.5,57.8-192,57.3z"/>
<linearGradient id="SVGID_11_" gradientUnits="userSpaceOnUse" x1="-192.1441" y1="-265.9547" x2="-192.1441" y2="6.5496">
	<stop  offset="0.2364" style="stop-color:#CE4A00"/>
	<stop  offset="1" style="stop-color:#E12B71"/>
</linearGradient>
<path class="st11" d="M-192,57.3c-0.2,0-0.3,0-0.4,0C-192,57.5-191.5,57.8-192,57.3z"/>
<linearGradient id="SVGID_12_" gradientUnits="userSpaceOnUse" x1="612.5463" y1="69.168" x2="612.5463" y2="201.0304">
	<stop  offset="0.2364" style="stop-color:#CE4A00"/>
	<stop  offset="1" style="stop-color:#E12B71"/>
</linearGradient>
<path class="st12" d="M551-93.2c-193.7-44.2-257.9-29-563.3-3.6V127c1.7-0.1,3.6-0.2,5.7-0.2c19.4,0.6,18.8,14.5,18.8,30.3
	c0,12.2-0.6,24.4,8.8,32c4.7,4.1,11.7,5.8,20.5,5.8c7.6,0,17.6-1.2,28.8-4.1l1.8-0.6c7.6-1.7,14.7-3.5,21.1-3.5
	c8.2,0,14.7,2.9,20,9.9c8.2,10.5,3.5,32,0.6,47.7c-1.2,4.7-1.8,9.3-2.3,13.4c-0.6,3.5-1.2,8.1-2.3,14c-4.1,22.1-5.9,43.6-6.5,66.3
	c0,18.6,1.8,44.2,29.9,50c20,4.1,41.7-5.8,48.7-19.8c8.2-16.3,5.9-36.1,4.1-53c-1.2-9.3-2.9-18-5.3-26.8c-2.3-8.1-5.3-16.9-8.8-25.6
	c-7-18-14.1-37.2-12.3-54.7c1.2-11.1,11.2-22.7,24.1-22.7c4.7,0,9.4,1.7,13.5,4.7c14.7,11.1,10,28.5,5.3,44.2
	c-1.8,6.4-3.5,12.2-4.1,17.5c-1.2,14.5,4.7,27.3,9.4,31.4c4.7,4.1,11.2,6.4,18.2,6.4c7.6,0,14.7-2.9,20-7.6
	c6.5-5.8,8.2-19.2,5.9-28.5c-0.6-2.9-1.8-6.4-3.5-10.5c-7.6-23.3-19.4-58.8,13.5-68.7c2.9-0.6,5.3-1.2,7.6-1.2
	c17,0,24.1,21.5,28.8,37.2c1.2,4.1,2.3,7.6,3.5,11.1c7,17.5,21.7,31.4,34,31.4c7,0,18.2-6.4,23.5-32c0-1.2,0.6-1.7,0.6-2.9
	c1.8-9.9,3.5-19.8,17-24.4c3.5-1.2,7-2.3,10.6-2.3c20,0,34.6,16.9,50.5,23.3c27,11.1,39.9-9.9,47-27.3c4.1-11.1,8.2-21.5,20-21.5
	c1.2,0,2.9,0,4.1,0.6c16.4,2.9,14.7,30.3,14.1,41.9v1.7c-0.6,6.4-1.8,15.1-2.9,25c-1.8,12.9-3.8,28.1-4.5,43.1
	c-3,20.7-3.9,48.6,10,61c6.4,5.2,14.3,8.1,25,7.6c0.5,0,0.9-0.1,1.4-0.1c0.3,0,0.6,0.1,0.9,0.1c5.6,0.4,10.2-0.7,14.3-2.8
	c4.6-1.4,8.6-3.4,12-5.9c25-19.2,17.2-69.2,11.4-103c-1.4-9.9-2.9-18.6-3.6-25v-1.7c-0.7-11.6-2.9-39,17.2-41.9
	c1.4-0.6,3.6-0.6,5-0.6c14.3,0,19.3,10.5,24.3,21.5c8.6,17.5,24.3,38.4,57.2,27.3c19.3-6.4,37.2-23.3,61.5-23.3
	c4.3,0,8.6,1.2,12.9,2.3c16.4,4.7,18.6,14.5,20.7,24.4c0,1.2,0.7,1.7,0.7,2.9c6.4,25.6,20,32,28.6,32c15,0,32.9-14,41.5-31.4
	c1.4-3.5,2.9-7,4.3-11.1c5.7-15.7,14.3-37.2,35-37.2c2.9,0,5.7,0.6,9.3,1.2c40,9.9,25.7,45.4,16.4,68.7c-2.1,4.1-3.6,7.6-4.3,10.5
	c-2.9,9.3-0.7,22.7,7.2,28.5c6.4,4.7,15,7.6,24.3,7.6c8.6,0,16.4-2.3,22.2-6.4c5.7-4.1,12.9-16.9,11.4-31.4
	c-0.7-5.2-2.9-11.1-5-17.5c-5.7-15.7-11.4-33.2,6.4-44.2c5-2.9,10.7-4.7,16.4-4.7c15.7,0,27.9,11.6,29.3,22.7
	c2.1,17.5-6.4,36.7-15,54.7c-4.3,8.7-7.9,17.5-10.7,25.6c-2.9,8.7-5,17.5-6.4,26.8c-2.1,16.9-5,36.7,5,53c8.6,14,35,23.9,59.4,19.8
	c34.3-5.8,36.5-31.4,36.5-50c-0.7-22.7-2.9-44.2-7.9-66.3c-1.4-5.8-2.1-10.5-2.9-14c-0.7-4.1-1.4-8.7-2.9-13.4
	c-3.6-15.7-9.3-37.2,0.7-47.7c6.4-7,14.3-9.9,24.3-9.9c7.9,0,16.4,1.7,25.7,3.5l2.1,0.6c13.6,2.9,25.7,4.1,35,4.1
	c10.7,0,19.3-1.7,25-5.8c11.4-7.6,10.7-19.8,10.7-32c0-15.7-0.7-29.7,22.9-30.3c2.5,0,4.8,0.1,6.9,0.2V-96.8
	C865.2-122.1,787-137.4,551-93.2z"/>
</svg>
