<?xml version="1.0" encoding="utf-8"?>
<!-- Generator: Adobe Illustrator 22.0.0, SVG Export Plug-In . SVG Version: 6.00 Build 0)  -->
<svg version="1.1" id="Layer_1" xmlns="http://www.w3.org/2000/svg" xmlns:xlink="http://www.w3.org/1999/xlink" x="0px" y="0px"
	 viewBox="0 0 600 600" style="enable-background:new 0 0 600 600;" xml:space="preserve">
<style type="text/css">
	.st0{fill:#D27117;}
	.st1{fill:#C36515;}
	.st2{fill:#F6901B;}
	.st3{fill:#E47E17;}
	.st4{fill:#501627;}
	.st5{fill:#F56A82;}
	.st6{fill:#FFFFFF;}
	.st7{fill:#E7E7E7;}
	.st8{fill:#6B390B;}
	.st9{fill:#EFE40A;}
</style>
<path class="st0" d="M171.7,344.1l-13.5-14.7c0,0-35.7,38.8-18.7,104.7c15,58.2,51.8,26,39.8-8.8
	C167.3,390.5,171.7,344.1,171.7,344.1z"/>
<path class="st1" d="M179.3,425.3c-12-34.7-7.6-81.2-7.6-81.2l-20.4-5.2c-6.7,22.3,15.3,66.7,18.2,79.3c2.9,12.5,6.4,25.4,1.4,35.9
	c-5,10.5-21.2,3.7-21.2,3.7C166.6,480,189.1,453.5,179.3,425.3z"/>
<path class="st1" d="M433.5,344.1l13.5-14.7c0,0,35.7,38.8,18.7,104.7c-15,58.2-51.8,26-39.8-8.8
	C437.9,390.5,433.5,344.1,433.5,344.1z"/>
<path class="st0" d="M425.9,425.3c-2.7,8.8-3,17.2-1,24.2c2.8,9.5,14.6,11.3,16.4,0c0.7-4.2,2.3-14,0.2-20.2
	C438.1,419,429.4,413.8,425.9,425.3z"/>
<path class="st0" d="M254.3,553c29.3,0,35.1-2.9,36.5-27.2c1.4-24.3-7.4-63.4-7.4-63.4l-31.8-8.4c0,0-6.6,83.9-18.8,89.6"/>
<path class="st0" d="M370.9,543.7c-12.2-5.7-18.8-89.6-18.8-89.6l-31.8,8.4c0,0-8.8,39-7.4,63.4c1.4,24.3,7.2,27.2,36.5,27.2"/>
<path class="st1" d="M254.3,553c29.3,0,35.1-2.9,36.5-27.2c1.4-24.3-7.4-63.4-7.4-63.4l-31.8-8.4c0,0,5.2,5.1,16.3,10
	c11.1,4.9,21.5,31,16.8,55.7c-4.6,24.7-23.3,35.4-51.2,32.2"/>
<path class="st1" d="M370.9,543.7c-12.2-5.7-18.8-89.6-18.8-89.6l-31.8,8.4c0,0,8.7,2.9,16,2.9c7.3,0,14.5,14.1,16.6,38.2
	c2.1,24.1,18.6,50.5-14.3,49.2"/>
<path class="st2" d="M244,188.4c0,0-46.7,1-82,53.4c0,0,7.2,2,14.5-2.6c-8.5,8.8-23.3,27.5-27.3,54.1c0,0,5.6-1,9.8-7.5
	c-5.1,12.7-14,43.8-1.7,85.5c0,0,3.7-0.3,4.6-18.4c0,0,10.2,68.5,48.8,97.8c0,0,4.7-8.6-0.9-21.5c0,0,25.2,23.6,28,39.3
	c0,0,5.5-9.6,1.7-19.8c0,0,21.2,15.3,65.6,15.3c44.4,0,69.8-17.5,69.8-17.5c-2.5,8.8,5.3,17.5,5.3,17.5
	c0.7-14.5,20.2-34.8,20.2-34.8c-7.4,6.7-0.9,20.7-0.9,20.7c13.9-11.8,23.6-35,28-47.1c-1,8.4,4.3,14.2,4.3,14.2
	c18.6-20,17.7-68.8,17.7-68.8c1.3,12.1,11.6,22.3,11.6,22.3c8.6-45.1-13.3-93.3-13.3-93.3c5.3,6.9,13.3,11,13.3,11
	c-2.9-33.6-46.8-71.8-46.8-71.8c14.7,5.1,15,0.4,15,0.4c-42.9-43.4-92.8-40.7-92.8-40.7"/>
<path class="st3" d="M347.8,182.6c6.3,7.1,13.9,16.9,29.4,22.1c15.6,5.1,54.1,24.8,65.3,56.9c0,0-9.2-2.8-13.4-8.4
	c0,0,34.1,68.6,8.9,132.5c0,0-6.2-6.5-5-15.4c0,0-26.4,76-117.3,83.8c-73.1,6.2-106-24.8-106-24.8s25.2,23.6,28,39.3
	c0,0,5.5-9.6,1.7-19.8c0,0,21.2,15.3,65.6,15.3c44.4,0,69.8-17.5,69.8-17.5c-2.5,8.8,5.3,17.5,5.3,17.5
	c0.7-14.5,20.2-34.8,20.2-34.8c-7.4,6.7-0.9,20.7-0.9,20.7c13.9-11.8,23.6-35,28-47.1c-1,8.4,4.3,14.2,4.3,14.2
	c18.6-20,17.7-68.8,17.7-68.8c1.3,12.1,11.6,22.3,11.6,22.3c8.6-45.1-13.3-93.3-13.3-93.3c5.3,6.9,13.3,11,13.3,11
	c-2.9-33.6-46.8-71.8-46.8-71.8c14.7,5.1,15,0.4,15,0.4c-42.9-43.4-92.8-40.7-92.8-40.7"/>
<g>
	<path class="st4" d="M308,356.5c31.4,0,34.5-19.5,56.7-9.8c22.2,9.7,16.6,73.3-46.9,77.4c-63.5,4.1-91.8-53.7-67.7-73.3
		C276.1,329.7,282.2,356.5,308,356.5z"/>
	<path class="st5" d="M256.6,402.9c12.9,13.3,33.8,23,61.2,21.3c22.2-1.4,37.3-10.1,46.6-21.3c-0.2-0.2-9.8-12.8-54.5-12.8
		C264.9,390.1,256.6,402.9,256.6,402.9z"/>
	<path class="st6" d="M296.7,354.7c0.6,6.6,2.2,15.9,7,15.9c4.5,0,5.3-7.8,5.2-14c-0.3,0-0.6,0-0.9,0
		C303.8,356.5,300.1,355.8,296.7,354.7z"/>
	<path class="st6" d="M308,356.5C308,356.5,308,356.5,308,356.5c-0.1,5.6,0.6,12.9,4.7,12.9c4.2,0,5.7-7.9,6.3-13.8
		C315.7,356.2,312.1,356.5,308,356.5z"/>
</g>
<g>
	
		<ellipse transform="matrix(0.6514 -0.7587 0.7587 0.6514 -123.0778 283.963)" class="st6" cx="247.5" cy="275.9" rx="41.4" ry="41.4"/>
	<path class="st7" d="M288.8,273.6c-0.1-2.3-0.5-4.6-0.9-6.7c0.1,0.6,0.1,1.3,0.2,1.9c1.3,22.8-16.2,42.4-39,43.7
		c-20.5,1.2-38.4-12.8-42.8-32.3c2.3,21.9,21.4,38.3,43.6,37.1C272.7,316,290.2,296.4,288.8,273.6z"/>
	<path class="st2" d="M262.2,271.1c0.5,8.9-6.3,16.6-15.3,17.1c-8.9,0.5-16.6-6.3-17.1-15.3c-0.5-8.9,6.3-16.6,15.3-17.1
		C254.1,255.4,261.7,262.2,262.2,271.1z"/>
	<path class="st8" d="M255,271.6c0.3,4.9-3.5,9.2-8.4,9.4c-4.9,0.3-9.2-3.5-9.4-8.4c-0.3-4.9,3.5-9.2,8.4-9.4
		C250.5,262.9,254.7,266.6,255,271.6z"/>
	<path class="st6" d="M257.1,264.8c0.2,2.8-2,5.2-4.8,5.4c-2.8,0.2-5.2-2-5.4-4.8c-0.2-2.8,2-5.2,4.8-5.4
		C254.6,259.8,257,262,257.1,264.8z"/>
	<path class="st6" d="M403.8,273.6c1.3,22.8-16.2,42.4-39,43.7c-22.8,1.3-42.4-16.2-43.7-39c-1.3-22.8,16.2-42.4,39-43.7
		C382.9,233.3,402.5,250.7,403.8,273.6z"/>
	<path class="st7" d="M403.8,273.6c-0.1-2.3-0.5-4.6-0.9-6.7c0.1,0.6,0.1,1.3,0.2,1.9c1.3,22.8-16.2,42.4-39,43.7
		c-20.5,1.2-38.4-12.8-42.8-32.3c2.3,21.9,21.4,38.3,43.6,37.1C387.6,316,405.1,296.4,403.8,273.6z"/>
	<path class="st2" d="M377.2,271.1c0.5,8.9-6.3,16.6-15.3,17.1c-8.9,0.5-16.6-6.3-17.1-15.3c-0.5-8.9,6.3-16.6,15.3-17.1
		C369,255.4,376.6,262.2,377.2,271.1z"/>
	<path class="st8" d="M369.9,271.6c0.3,4.9-3.5,9.2-8.4,9.4c-4.9,0.3-9.2-3.5-9.4-8.4c-0.3-4.9,3.5-9.2,8.4-9.4
		C365.4,262.9,369.6,266.6,369.9,271.6z"/>
	<path class="st6" d="M372,264.8c0.2,2.8-2,5.2-4.8,5.4c-2.8,0.2-5.2-2-5.4-4.8c-0.2-2.8,2-5.2,4.8-5.4
		C369.5,259.8,371.9,262,372,264.8z"/>
</g>
<path class="st9" d="M116.7,224.8c-1.1-0.7-3.5,0.3-4.5,0.6c-3.3,1-6.6,2.1-9.8,3.2c-7.8,2.8-15.4,6.1-23.1,9.2
	c-2.8-4.9-5.8-9.7-9-14.3c-3.7-5.3-7.2-10.8-14.4-8.9c-2.8,0.7-6,5.5-6.2,8.3c-0.5,8.4-0.8,16.7-0.8,25.1c-4.8,1.2-9.7,2.4-14.6,3.4
	c-5.5,1.2-11.1,2.4-16.6,4c-4.7,1.3-8.6,4-10.5,8.8c-2.5,6.7,14.6,8.9,18.7,9.6c8.3,1.5,16.4,2.9,24.3,5.2c1,12.2,2.7,24.3,5,36.3
	c0.2,1.1,1.4,0.2,2.4-0.7c-0.1,0.3-0.1,0.6-0.2,0.9c-0.3,1.7,1.1,0.9,1.9,0.4c1.7-1.2,3.1-3.3,4.1-5.1c4-7.3,6-15.1,8.4-22.9
	c8.3,4,16.4,8.2,24.7,12.3c2,1,7.3-6.4,6.6-8.2c-4.3-11.2-8.7-22.5-13.6-33.5c0.3-0.3,0.5-0.6,0.8-0.9c7.3-7.9,15.4-15.1,22.4-23.2
	C114.3,232.9,119.7,226.8,116.7,224.8z M56.8,267.2c1.8-0.2,3.5-0.5,5.2-0.8c0,1.9-0.1,3.8-0.1,5.7c-1.6-0.6-3.2-1.2-4.9-1.7
	C56.9,269.4,56.9,268.3,56.8,267.2z M103.6,235.1c0.1,0,0.2-0.1,0.3-0.1c-0.6,0.8-1.2,1.6-1.8,2.3c0.4-0.6,0.7-1.3,0.9-1.9
	c0,0,0-0.1,0-0.1C103.2,235.3,103.4,235.2,103.6,235.1z M108.6,233.7c-0.1,0.1-0.3,0.2-0.4,0.3c0.1-0.1,0.1-0.2,0.2-0.2
	C108.4,233.7,108.5,233.7,108.6,233.7z M85.6,249.9c-0.2-0.4-0.4-0.8-0.6-1.2c1.2-0.6,2.3-1.2,3.5-1.8C87.6,248,86.6,249,85.6,249.9
	z M76.9,253.9c0.6,1.2,1.2,2.5,1.8,3.7c-0.2,0.3-0.3,0.7-0.4,1c-0.8-1.9-1.6-3.8-2.6-5.4c0.2-0.1,0.4-0.2,0.7-0.3
	C76.5,253.3,76.7,253.6,76.9,253.9z M73.6,247.7c-0.4,0.2-0.8,0.3-1.1,0.5c-0.1-0.3-0.2-0.6-0.3-0.9c0.3-0.1,0.6-0.3,1-0.4
	C73.3,247.2,73.4,247.5,73.6,247.7z M68.3,274.7c0.2-3.3,0.4-6.5,0.5-9.8c1.4,3.5,3,7,4.7,10.4c-0.3,0.4-0.5,0.9-0.8,1.3
	C71.2,275.9,69.8,275.3,68.3,274.7z M79.2,260.7c0.2-0.1,0.5-0.3,0.7-0.5c0,0,0,0,0.1,0c0.5,1.1,1.1,2.3,1.6,3.4
	c-0.3,0.3-0.5,0.6-0.8,1C80.3,263.3,79.7,262,79.2,260.7z M91.4,239.5c-2.9,1.5-5.9,2.9-8.8,4.3c-0.1-0.2-0.2-0.4-0.3-0.6
	C85.3,241.9,88.3,240.7,91.4,239.5z M56.1,223.8c2.3,1.1,4.2,3.1,5.8,5.5c-0.9,1.2-1.6,2.6-1.5,3.8c0.4,3.8,0.7,7.6,1,11.4
	c-1.9,0.6-3.7,1.1-5.6,1.7C55.7,238.8,55.8,231.3,56.1,223.8z M19.9,262.2c1.1-0.3,2.2-0.5,3.4-0.8c-0.3,0.6-0.6,1.1-0.8,1.6
	c-0.3-0.1-0.6-0.2-1-0.3C21.3,262.7,20.7,262.5,19.9,262.2z M28.1,264.5c2.6,0,5.1,0.1,7.7,0.1c-0.2,0.4-0.4,0.8-0.6,1.2
	c-0.6-0.1-1.1-0.2-1.7-0.3C31.7,265.2,29.9,264.9,28.1,264.5z M47.8,268c0.6,0,1.1,0,1.7-0.1c0,0.2,0,0.3,0,0.5
	C48.9,268.2,48.3,268.1,47.8,268z M58.2,281.9c0.9,0.4,1.8,0.7,2.7,1.1c0.2,0.1,0.3,0.1,0.5,0.2c-0.3,4.5-0.7,9-1.2,13.4
	C59.4,291.7,58.8,286.8,58.2,281.9z M66.9,290.9c0.2-1.7,0.4-3.3,0.5-5c0.3,0.2,0.7,0.3,1,0.5C67.9,287.9,67.4,289.4,66.9,290.9z
	 M90.9,285.5c-1.7-0.9-3.4-1.8-5.2-2.6c1-1.5,1.7-2.9,1.4-3.6c-1.7-3.9-3.3-7.7-5-11.6c0.3-0.4,0.5-0.7,0.8-1.1
	C85.8,272.9,88.4,279.2,90.9,285.5z M88.3,255.6c-0.2-0.4-0.4-0.9-0.6-1.3c1.1-0.8,2.1-1.6,3.2-2.4c0,0.3,0.1,0.5,0.3,0.5
	C90.2,253.5,89.3,254.6,88.3,255.6z"/>
<path class="st9" d="M86.6,156c0.8,1.1,3.5,1.1,4.6,1.2c3.6,0.4,7.2,0.7,10.8,0.9c8.7,0.5,17.5,0.5,26.2,0.6
	c0.7,5.9,1.6,11.8,2.8,17.6c1.4,6.6,2.5,13.4,10.3,14.6c3.1,0.5,8.1-2.8,9.5-5.5c4-7.9,7.7-15.9,11.1-24c5.2,0.8,10.4,1.7,15.6,2.7
	c5.9,1.1,11.8,2.2,17.7,3c5.1,0.7,10-0.3,13.8-4.2c5.3-5.5-10.5-14.7-14.2-17.1c-7.5-4.9-14.7-9.6-21.4-15.1
	c4-12.2,7.4-24.6,10.2-37.2c0.2-1.1-1.3-0.8-2.6-0.3c0.2-0.3,0.4-0.6,0.5-0.9c1-1.5-0.7-1.3-1.7-1.2c-2.2,0.4-4.4,1.9-6.1,3.2
	c-6.9,5.4-12,12.2-17.6,18.7c-6.4-7.3-12.5-14.8-18.8-22.1c-1.5-1.8-9.8,3.2-9.8,5.2c-0.5,12.7-0.9,25.4-0.7,38
	c-0.4,0.2-0.8,0.3-1.1,0.5c-10.3,4.6-21.1,8.3-31.3,13.3C92.3,149.1,84.5,152.9,86.6,156z M162.2,139.7c-1.8-0.5-3.6-1-5.4-1.4
	c0.8-1.8,1.6-3.7,2.5-5.5c1.3,1.2,2.7,2.5,4,3.6C162.9,137.6,162.6,138.6,162.2,139.7z M103.6,151.4c-0.1,0-0.2,0-0.3,0
	c0.9-0.5,1.8-1,2.7-1.5c-0.6,0.4-1.2,0.9-1.7,1.5c0,0-0.1,0.1-0.1,0.1C104,151.4,103.8,151.4,103.6,151.4z M98.1,150.7
	c0.2,0,0.3-0.1,0.5-0.1c-0.1,0.1-0.2,0.1-0.3,0.2C98.3,150.8,98.2,150.8,98.1,150.7z M127.1,144.5c0,0.5,0.1,0.9,0.1,1.4
	c-1.4,0.1-2.7,0.2-4.1,0.3C124.4,145.6,125.8,145.1,127.1,144.5z M137.2,144.2c-0.1-1.4-0.2-2.9-0.3-4.3c0.3-0.3,0.6-0.5,0.8-0.8
	c0,2.2,0,4.3,0.3,6.3c-0.3,0-0.5,0-0.8,0C137.3,145,137.3,144.6,137.2,144.2z M137.9,151.6c0.4,0,0.9,0,1.3,0c0,0.3-0.1,0.7-0.1,1
	c-0.4,0-0.7,0-1.1,0C138,152.3,137.9,152,137.9,151.6z M154.1,127.7c-1.5,3.1-3,6.2-4.5,9.3c0.1-4,0-8-0.3-12c0.4-0.3,0.9-0.6,1.3-1
	C151.8,125.3,153,126.5,154.1,127.7z M137.8,136.8c-0.3,0-0.5,0.1-0.9,0.1c0,0-0.1,0-0.1,0c-0.1-1.3-0.1-2.7-0.1-4
	c0.4-0.2,0.8-0.4,1.1-0.6C137.8,133.8,137.8,135.3,137.8,136.8z M117.2,152.2c3.4-0.2,6.9-0.4,10.3-0.5c0,0.2,0,0.5,0.1,0.7
	C124.2,152.4,120.7,152.3,117.2,152.2z M144.9,182c-1.8-2-2.7-4.8-3.4-7.7c1.3-0.8,2.6-1.9,3-3.1c1.2-3.9,2.5-7.7,3.8-11.5
	c2,0.2,4.1,0.4,6.1,0.7C151.5,167.7,148.3,174.9,144.9,182z M195.8,159.8c-1.2-0.2-2.4-0.4-3.6-0.6c0.6-0.4,1-0.9,1.4-1.2
	c0.3,0.2,0.5,0.4,0.8,0.7C194.7,158.8,195.2,159.2,195.8,159.8z M188.8,154.2c-2.5-1.1-4.9-2.2-7.4-3.3c0.4-0.3,0.8-0.6,1-0.9
	c0.5,0.3,1,0.7,1.5,1C185.6,152,187.2,153.1,188.8,154.2z M171.3,142.7c-0.6-0.2-1.1-0.4-1.7-0.6c0.1-0.1,0.1-0.3,0.2-0.4
	C170.2,142,170.7,142.3,171.3,142.7z M166.9,124.9c-0.7-0.7-1.4-1.4-2.2-2.2c-0.1-0.1-0.3-0.3-0.4-0.4c2.1-4.2,4.4-8.4,6.7-12.5
	C169.8,114.9,168.4,119.9,166.9,124.9z M162.2,112.6c-0.9,1.5-1.7,3.1-2.6,4.6c-0.3-0.3-0.5-0.6-0.8-0.9
	C160,115.1,161.1,113.9,162.2,112.6z M136.8,107.8c1.3,1.6,2.6,3.1,3.9,4.7c-1.6,1-2.9,2.1-2.9,2.9c0,4.4,0,8.9,0,13.3
	c-0.4,0.2-0.8,0.5-1.2,0.7C136.5,122.3,136.6,115,136.8,107.8z M126.8,137.9c0,0.5,0,1,0.1,1.5c-1.3,0.3-2.7,0.6-4,1
	c0.1-0.3,0.1-0.5-0.1-0.6C124.1,139.1,125.5,138.5,126.8,137.9z"/>
<path class="st9" d="M381.6,75.9c-0.9-1.3-4-1.3-5.3-1.4c-4.1-0.5-8.3-0.8-12.4-1.1c-10-0.6-20.1-0.6-30.1-0.7
	c-0.8-6.8-1.8-13.5-3.2-20.2c-1.6-7.6-2.9-15.4-11.8-16.8c-3.5-0.5-9.3,3.2-10.9,6.3c-4.6,9-8.8,18.2-12.8,27.5
	c-6-0.9-11.9-2-17.9-3.1c-6.8-1.3-13.5-2.6-20.3-3.5c-5.9-0.8-11.5,0.3-15.8,4.9c-6,6.3,12,16.8,16.3,19.6
	c8.6,5.6,16.8,11,24.5,17.4c-4.6,14-8.5,28.3-11.7,42.8c-0.3,1.3,1.5,0.9,3,0.4c-0.2,0.3-0.4,0.7-0.6,1c-1.1,1.7,0.8,1.5,1.9,1.3
	c2.5-0.5,5-2.2,7-3.7c7.9-6.2,13.8-14,20.2-21.5c7.3,8.4,14.4,16.9,21.6,25.3c1.8,2,11.2-3.7,11.3-6c0.6-14.5,1.1-29.1,0.8-43.7
	c0.4-0.2,0.9-0.4,1.3-0.6c11.8-5.3,24.3-9.5,35.9-15.2C375.1,83.8,384,79.5,381.6,75.9z M294.8,94.6c2.1,0.6,4.1,1.1,6.2,1.6
	c-0.9,2.1-1.9,4.2-2.8,6.3c-1.5-1.4-3-2.8-4.6-4.2C294,97.1,294.4,95.8,294.8,94.6z M362.1,81.2c0.1,0,0.2,0,0.4,0
	c-1,0.6-2.1,1.2-3.1,1.7c0.7-0.5,1.4-1.1,1.9-1.7c0,0,0.1-0.1,0.1-0.1C361.6,81.1,361.9,81.2,362.1,81.2z M368.3,82
	c-0.2,0-0.4,0.1-0.6,0.1c0.1-0.1,0.2-0.1,0.3-0.2C368.1,81.9,368.2,81.9,368.3,82z M335.1,89.1c0-0.5-0.1-1-0.1-1.6
	c1.6-0.1,3.1-0.2,4.7-0.3C338.2,87.8,336.6,88.5,335.1,89.1z M323.5,89.4c0.1,1.7,0.2,3.3,0.3,5c-0.4,0.3-0.7,0.6-1,0.9
	c0-2.5,0-5-0.3-7.3c0.3,0,0.6,0,0.9,0C323.4,88.5,323.4,88.9,323.5,89.4z M322.7,80.9c-0.5,0-1,0-1.5,0c0-0.4,0.1-0.8,0.1-1.1
	c0.4,0,0.8,0,1.3,0C322.6,80.2,322.7,80.5,322.7,80.9z M304,108.3c1.8-3.5,3.5-7.1,5.2-10.7c-0.1,4.6,0,9.2,0.3,13.8
	c-0.5,0.4-1,0.7-1.5,1.1C306.7,111.2,305.4,109.7,304,108.3z M322.8,97.9c0.3,0,0.6-0.1,1.1-0.2c0,0,0.1,0,0.1,0
	c0.1,1.5,0.1,3.1,0.2,4.6c-0.4,0.2-0.9,0.5-1.3,0.7C322.8,101.4,322.8,99.7,322.8,97.9z M346.4,80.2c-4,0.3-7.9,0.5-11.9,0.6
	c0-0.3,0-0.6-0.1-0.8C338.5,80,342.4,80.1,346.4,80.2z M314.6,46.1c2.1,2.3,3.2,5.5,3.9,8.8c-1.5,0.9-3,2.1-3.4,3.5
	c-1.4,4.4-2.8,8.8-4.4,13.2c-2.4-0.2-4.7-0.5-7-0.8C307.1,62.4,310.7,54.2,314.6,46.1z M256.2,71.6c1.4,0.2,2.7,0.5,4.1,0.7
	c-0.6,0.5-1.2,1-1.6,1.4c-0.3-0.3-0.6-0.5-0.9-0.8C257.5,72.7,256.9,72.2,256.2,71.6z M264.2,78c2.8,1.2,5.7,2.5,8.5,3.8
	c-0.5,0.3-0.9,0.7-1.2,1c-0.6-0.4-1.2-0.7-1.8-1.1C267.9,80.4,266,79.2,264.2,78z M284.4,91.2c0.6,0.3,1.3,0.5,1.9,0.7
	c-0.1,0.2-0.1,0.3-0.2,0.5C285.6,92,285,91.6,284.4,91.2z M289.4,111.6c0.8,0.8,1.7,1.7,2.5,2.5c0.2,0.2,0.3,0.3,0.4,0.5
	c-2.5,4.8-5,9.6-7.7,14.4C286.1,123.1,287.7,117.3,289.4,111.6z M294.8,125.7c1-1.7,2-3.5,2.9-5.3c0.3,0.3,0.6,0.7,0.9,1
	C297.3,122.9,296,124.3,294.8,125.7z M324,131.2c-1.5-1.8-3-3.6-4.5-5.4c1.8-1.1,3.3-2.4,3.3-3.3c0-5.1,0-10.2,0-15.3
	c0.5-0.3,0.9-0.5,1.4-0.8C324.3,114.6,324.2,122.9,324,131.2z M335.4,96.7c0-0.6,0-1.1-0.1-1.7c1.5-0.4,3.1-0.7,4.6-1.1
	c-0.1,0.3-0.1,0.6,0.1,0.7C338.5,95.3,336.9,96,335.4,96.7z"/>
<path class="st9" d="M409.3,130.6c0.7-1.1,3.3-1,4.3-1.2c3.4-0.4,6.8-0.7,10.1-0.9c8.2-0.5,16.4-0.5,24.6-0.6
	c0.6-5.5,1.5-11,2.6-16.5c1.3-6.2,2.4-12.6,9.6-13.7c2.9-0.4,7.6,2.6,8.9,5.1c3.7,7.4,7.2,14.9,10.4,22.5c4.9-0.8,9.7-1.6,14.6-2.5
	c5.5-1,11-2.1,16.6-2.8c4.8-0.6,9.4,0.3,12.9,4c4.9,5.1-9.8,13.7-13.3,16c-7,4.6-13.7,9-20,14.2c3.8,11.5,7,23.1,9.5,34.9
	c0.2,1-1.2,0.7-2.5,0.3c0.2,0.3,0.3,0.5,0.5,0.8c0.9,1.4-0.6,1.3-1.6,1.1c-2-0.4-4.1-1.8-5.7-3c-6.5-5.1-11.3-11.4-16.5-17.5
	c-6,6.8-11.7,13.8-17.6,20.7c-1.4,1.7-9.1-3-9.2-4.9c-0.5-11.9-0.9-23.8-0.7-35.6c-0.4-0.2-0.7-0.3-1.1-0.5
	c-9.7-4.4-19.8-7.8-29.3-12.4C414.6,137,407.3,133.5,409.3,130.6z M480.2,145.8c-1.7,0.5-3.4,0.9-5.1,1.3c0.8,1.7,1.5,3.4,2.3,5.1
	c1.2-1.2,2.5-2.3,3.8-3.4C480.8,147.8,480.5,146.8,480.2,145.8z M425.2,134.8c-0.1,0-0.2,0-0.3,0c0.8,0.5,1.7,1,2.6,1.4
	c-0.6-0.4-1.2-0.9-1.6-1.4c0,0-0.1-0.1-0.1-0.1C425.6,134.8,425.4,134.8,425.2,134.8z M420.1,135.5c0.1,0,0.3,0.1,0.5,0.1
	c-0.1-0.1-0.2-0.1-0.2-0.2C420.3,135.4,420.2,135.4,420.1,135.5z M447.3,141.3c0-0.4,0.1-0.8,0.1-1.3c-1.3-0.1-2.6-0.2-3.9-0.3
	C444.7,140.3,446,140.8,447.3,141.3z M456.7,141.5c-0.1,1.4-0.2,2.7-0.2,4.1c0.3,0.2,0.6,0.5,0.8,0.7c0-2.1,0-4.1,0.3-5.9
	c-0.2,0-0.5,0-0.7,0C456.8,140.8,456.8,141.2,456.7,141.5z M457.4,134.6c0.4,0,0.8,0,1.2,0c0-0.3-0.1-0.6-0.1-0.9c-0.3,0-0.7,0-1,0
	C457.4,134,457.4,134.3,457.4,134.6z M472.6,157c-1.5-2.9-2.9-5.8-4.2-8.7c0.1,3.8,0,7.5-0.2,11.3c0.4,0.3,0.8,0.6,1.2,0.9
	C470.4,159.3,471.5,158.2,472.6,157z M457.3,148.5c-0.2,0-0.5-0.1-0.9-0.1c0,0-0.1,0-0.1,0c-0.1,1.3-0.1,2.5-0.1,3.8
	c0.4,0.2,0.7,0.4,1.1,0.6C457.3,151.3,457.3,149.9,457.3,148.5z M438,134.1c3.2,0.2,6.5,0.4,9.7,0.5c0-0.2,0-0.4,0.1-0.7
	C444.5,133.9,441.2,134,438,134.1z M464,106.2c-1.7,1.9-2.6,4.5-3.2,7.2c1.3,0.8,2.4,1.7,2.8,2.9c1.1,3.6,2.3,7.2,3.6,10.7
	c1.9-0.2,3.8-0.4,5.7-0.7C470.1,119.5,467.1,112.8,464,106.2z M511.7,127c-1.1,0.2-2.2,0.4-3.3,0.6c0.5,0.4,1,0.8,1.3,1.2
	c0.2-0.2,0.5-0.4,0.8-0.6C510.6,127.9,511.1,127.5,511.7,127z M505.1,132.2c-2.3,1-4.6,2-6.9,3.1c0.4,0.3,0.7,0.6,1,0.8
	c0.5-0.3,1-0.6,1.4-0.9C502.1,134.2,503.6,133.2,505.1,132.2z M488.6,143c-0.5,0.2-1.1,0.4-1.6,0.6c0.1,0.1,0.1,0.3,0.2,0.4
	C487.7,143.7,488.2,143.3,488.6,143z M484.6,159.6c-0.7,0.7-1.4,1.4-2,2.1c-0.1,0.1-0.2,0.3-0.4,0.4c2,4,4.1,7.9,6.3,11.7
	C487.3,169.1,486,164.3,484.6,159.6z M480.2,171.2c-0.8-1.4-1.6-2.9-2.4-4.3c-0.2,0.3-0.5,0.5-0.7,0.8
	C478.1,168.9,479.2,170,480.2,171.2z M456.3,175.7c1.2-1.5,2.4-2.9,3.7-4.4c-1.5-0.9-2.7-1.9-2.7-2.7c0-4.2,0-8.3,0-12.5
	c-0.4-0.2-0.8-0.4-1.1-0.6C456,162.2,456.1,168.9,456.3,175.7z M447,147.5c0-0.5,0-0.9,0-1.4c-1.3-0.3-2.5-0.6-3.8-0.9
	c0.1,0.3,0.1,0.5-0.1,0.6C444.5,146.4,445.7,146.9,447,147.5z"/>
<path class="st9" d="M586.6,278.8c-0.7,1.1-3.2,1-4.2,1.1c-3.3,0.4-6.6,0.7-10,0.8c-8,0.5-16.1,0.5-24.1,0.6
	c-0.6,5.4-1.4,10.8-2.6,16.2c-1.3,6.1-2.3,12.3-9.5,13.4c-2.8,0.4-7.5-2.6-8.7-5c-3.7-7.2-7.1-14.6-10.2-22.1
	c-4.8,0.7-9.5,1.6-14.3,2.5c-5.4,1-10.8,2.1-16.3,2.8c-4.7,0.6-9.2-0.3-12.7-3.9c-4.8-5,9.6-13.5,13-15.7
	c6.9-4.5,13.5-8.8,19.7-13.9c-3.7-11.2-6.8-22.7-9.3-34.3c-0.2-1,1.2-0.7,2.4-0.3c-0.2-0.3-0.3-0.5-0.5-0.8
	c-0.9-1.4,0.6-1.2,1.6-1.1c2,0.4,4,1.7,5.6,3c6.3,5,11.1,11.2,16.2,17.2c5.9-6.7,11.5-13.6,17.3-20.3c1.4-1.6,9,2.9,9.1,4.8
	c0.4,11.7,0.9,23.3,0.6,35c0.3,0.2,0.7,0.3,1,0.5c9.5,4.3,19.4,7.6,28.8,12.2C581.3,272.5,588.5,275.9,586.6,278.8z M517,263.8
	c1.6-0.5,3.3-0.9,5-1.3c-0.7-1.7-1.5-3.4-2.3-5.1c-1.2,1.1-2.4,2.3-3.7,3.3C516.3,261.8,516.6,262.8,517,263.8z M571,274.6
	c0.1,0,0.2,0,0.3,0c-0.8-0.5-1.7-0.9-2.5-1.4c0.6,0.4,1.1,0.9,1.6,1.4c0,0,0.1,0.1,0.1,0.1C570.6,274.6,570.8,274.6,571,274.6z
	 M575.9,273.9c-0.1,0-0.3-0.1-0.5-0.1c0.1,0,0.2,0.1,0.2,0.1C575.8,274,575.9,274,575.9,273.9z M549.3,268.2c0,0.4-0.1,0.8-0.1,1.2
	c1.3,0.1,2.5,0.2,3.8,0.3C551.8,269.2,550.5,268.7,549.3,268.2z M540,268c0.1-1.3,0.2-2.7,0.2-4c-0.3-0.2-0.6-0.5-0.8-0.7
	c0,2,0,4-0.3,5.8c0.2,0,0.5,0,0.7,0C539.9,268.7,539.9,268.3,540,268z M539.4,274.8c-0.4,0-0.8,0-1.2,0c0,0.3,0.1,0.6,0.1,0.9
	c0.3,0,0.7,0,1,0C539.3,275.4,539.3,275.1,539.4,274.8z M524.4,252.8c1.4,2.8,2.8,5.7,4.1,8.6c-0.1-3.7,0-7.4,0.2-11.1
	c-0.4-0.3-0.8-0.6-1.2-0.9C526.6,250.5,525.5,251.7,524.4,252.8z M539.4,261.1c0.2,0,0.5,0.1,0.8,0.1c0,0,0.1,0,0.1,0
	c0.1-1.2,0.1-2.5,0.1-3.7c-0.3-0.2-0.7-0.4-1-0.6C539.4,258.4,539.4,259.8,539.4,261.1z M558.4,275.3c-3.2-0.2-6.3-0.4-9.5-0.5
	c0,0.2,0,0.4-0.1,0.7C552,275.5,555.2,275.4,558.4,275.3z M532.9,302.7c1.7-1.8,2.5-4.4,3.1-7.1c-1.2-0.8-2.4-1.7-2.7-2.8
	c-1.1-3.5-2.3-7.1-3.5-10.5c-1.9,0.2-3.8,0.4-5.6,0.6C526.9,289.6,529.8,296.2,532.9,302.7z M486.1,282.2c1.1-0.2,2.2-0.4,3.3-0.6
	c-0.5-0.4-1-0.8-1.3-1.1c-0.2,0.2-0.5,0.4-0.7,0.6C487.1,281.3,486.6,281.7,486.1,282.2z M492.5,277.1c2.3-1,4.5-2,6.8-3
	c-0.4-0.3-0.7-0.6-1-0.8c-0.5,0.3-0.9,0.6-1.4,0.9C495.4,275.2,494,276.1,492.5,277.1z M508.7,266.6c0.5-0.2,1-0.4,1.6-0.6
	c-0.1-0.1-0.1-0.3-0.2-0.4C509.6,265.9,509.1,266.2,508.7,266.6z M512.7,250.2c0.7-0.7,1.3-1.3,2-2c0.1-0.1,0.2-0.3,0.4-0.4
	c-2-3.9-4-7.7-6.2-11.5C510,240.9,511.3,245.6,512.7,250.2z M517,238.9c0.8,1.4,1.6,2.8,2.4,4.2c0.2-0.3,0.5-0.5,0.7-0.8
	C519,241.2,518,240,517,238.9z M540.4,234.5c-1.2,1.4-2.4,2.9-3.6,4.3c1.5,0.9,2.6,1.9,2.6,2.7c0,4.1,0,8.2,0,12.2
	c0.4,0.2,0.7,0.4,1.1,0.6C540.7,247.7,540.6,241.1,540.4,234.5z M549.5,262.1c0,0.5,0,0.9,0,1.4c1.2,0.3,2.5,0.6,3.7,0.9
	c-0.1-0.3-0.1-0.5,0.1-0.6C552,263.2,550.8,262.7,549.5,262.1z"/>
</svg>
