<?xml version="1.0" encoding="utf-8"?>
<!-- Generator: Adobe Illustrator 22.0.0, SVG Export Plug-In . SVG Version: 6.00 Build 0)  -->
<svg version="1.1" id="Layer_1" xmlns="http://www.w3.org/2000/svg" xmlns:xlink="http://www.w3.org/1999/xlink" x="0px" y="0px"
	 viewBox="0 0 600 6282.4" style="enable-background:new 0 0 600 6282.4;" xml:space="preserve">
<style type="text/css">
	.st0{fill:url(#SVGID_1_);}
	.st1{fill:url(#SVGID_2_);}
	.st2{fill:url(#SVGID_3_);}
	.st3{fill:url(#SVGID_4_);}
	.st4{fill:url(#SVGID_5_);}
	.st5{fill:url(#SVGID_6_);}
	.st6{fill:url(#SVGID_7_);}
	.st7{fill:url(#SVGID_8_);}
	.st8{fill:url(#SVGID_9_);}
	.st9{fill:url(#SVGID_10_);}
	.st10{fill:url(#SVGID_11_);}
	.st11{fill:url(#SVGID_12_);}
	.st12{fill:url(#SVGID_13_);}
	.st13{fill:url(#SVGID_14_);}
	.st14{fill:url(#SVGID_15_);}
	.st15{fill:url(#SVGID_16_);}
	.st16{fill:url(#SVGID_17_);}
	.st17{fill:url(#SVGID_18_);}
	.st18{fill:url(#SVGID_19_);}
	.st19{fill:url(#SVGID_20_);}
	.st20{fill:url(#SVGID_21_);}
	.st21{fill:url(#SVGID_22_);}
	.st22{fill:url(#SVGID_23_);}
	.st23{fill:url(#SVGID_24_);}
</style>
<linearGradient id="SVGID_1_" gradientUnits="userSpaceOnUse" x1="313" y1="243.158" x2="627.2136" y2="243.158">
	<stop  offset="0" style="stop-color:#FDD100"/>
	<stop  offset="1" style="stop-color:#FB7E1A"/>
</linearGradient>
<path class="st0" d="M616.7,276.4l-91.9-134c-14.6-21.3-40.9-31-65.5-26.3c-17.2,2.5-33.2,11.7-43.5,26.7l-4,5.9l-88.1,125.7
	c-9,12.8-12.2,27.7-10.2,42c3.2,30.8,30.5,54.9,63.6,54.9c22.1,0,41.6-10.7,53.1-27l40.5-58.3c0,0-0.2-0.2-0.5-0.6l0.3-0.5
	l40.1,58.5c12.2,17.8,32.5,27.4,53.1,27.4c12,0,24.1-3.3,34.9-10C627.9,342.3,636,304.5,616.7,276.4z"/>
<linearGradient id="SVGID_2_" gradientUnits="userSpaceOnUse" x1="-30.8255" y1="407.8025" x2="238" y2="407.8025">
	<stop  offset="0" style="stop-color:#FDD100"/>
	<stop  offset="1" style="stop-color:#FB7E1A"/>
</linearGradient>
<path class="st1" d="M229,436.2l-78.6-114.6c-12.5-18.3-35-26.5-56-22.5c-14.7,2.2-28.4,10-37.2,22.9l-3.4,5l-75.4,107.5
	c-7.7,10.9-10.4,23.7-8.7,35.9c2.7,26.4,26.1,47,54.4,47c18.9,0,35.6-9.2,45.4-23.1l34.6-49.9c0,0-0.2-0.2-0.4-0.5l0.3-0.4l34.3,50
	c10.4,15.2,27.8,23.5,45.4,23.5c10.3,0,20.6-2.8,29.8-8.6C238.6,492.6,245.5,460.3,229,436.2z"/>
<linearGradient id="SVGID_3_" gradientUnits="userSpaceOnUse" x1="-76.1473" y1="101.6943" x2="335" y2="101.6943">
	<stop  offset="0" style="stop-color:#FB0A87"/>
	<stop  offset="1" style="stop-color:#A408B0"/>
</linearGradient>
<path class="st2" d="M321.3,145.2L201-30.1c-19.2-27.9-53.5-40.5-85.7-34.4c-22.5,3.3-43.4,15.3-56.9,35l-5.3,7.7L-62.1,142.6
	c-11.7,16.7-15.9,36.3-13.3,54.9c4.2,40.4,39.9,71.9,83.2,71.9c28.9,0,54.4-14,69.4-35.3l53-76.3c0,0-0.2-0.3-0.7-0.8l0.5-0.7
	l52.5,76.5c16,23.3,42.5,35.9,69.5,35.9c15.7,0,31.5-4.3,45.6-13.1C335.9,231.4,346.5,182,321.3,145.2z"/>
<linearGradient id="SVGID_4_" gradientUnits="userSpaceOnUse" x1="307.468" y1="2151.5605" x2="892.3627" y2="2151.5605">
	<stop  offset="0" style="stop-color:#FB0A87"/>
	<stop  offset="1" style="stop-color:#A408B0"/>
</linearGradient>
<path class="st3" d="M872.9,2213.4l-171.1-249.4c-27.3-39.7-76.1-57.6-121.9-48.9c-32,4.7-61.8,21.8-81,49.8l-7.5,10.9l-164,233.9
	c-16.7,23.8-22.6,51.6-19,78.1c5.9,57.4,56.7,102.2,118.4,102.2c41.1,0,77.4-19.9,98.8-50.2l75.3-108.5c0,0-0.3-0.4-1-1.1l0.6-0.9
	l74.7,108.8c22.7,33.1,60.4,51.1,98.9,51.1c22.3,0,44.9-6.1,64.9-18.7C893.7,2336.1,908.8,2265.7,872.9,2213.4z"/>
<linearGradient id="SVGID_5_" gradientUnits="userSpaceOnUse" x1="-96" y1="738.007" x2="391" y2="738.007">
	<stop  offset="0" style="stop-color:#FB0A87"/>
	<stop  offset="1" style="stop-color:#FB7E1A"/>
</linearGradient>
<path class="st4" d="M374.8,789.5L232.3,581.9c-22.7-33.1-63.3-48-101.5-40.7c-26.6,3.9-51.4,18.2-67.4,41.4l-6.2,9.1L-79.3,786.5
	c-13.9,19.8-18.8,43-15.8,65c5,47.8,47.2,85.1,98.6,85.1c34.2,0,64.4-16.6,82.2-41.8l62.7-90.4c0,0-0.3-0.3-0.8-1l0.5-0.8l62.2,90.6
	c18.9,27.6,50.3,42.5,82.3,42.5c18.6,0,37.4-5,54-15.6C392.1,891.7,404.7,833.1,374.8,789.5z"/>
<linearGradient id="SVGID_6_" gradientUnits="userSpaceOnUse" x1="497.4677" y1="476.7386" x2="757" y2="476.7386">
	<stop  offset="0" style="stop-color:#02A0D0"/>
	<stop  offset="1" style="stop-color:#10D683"/>
</linearGradient>
<path class="st5" d="M748.4,504.2l-75.9-110.6c-12.1-17.6-33.8-25.6-54.1-21.7c-14.2,2.1-27.4,9.7-35.9,22.1l-3.3,4.8l-72.8,103.8
	c-7.4,10.6-10,22.9-8.4,34.7c2.6,25.5,25.2,45.4,52.5,45.4c18.3,0,34.3-8.8,43.8-22.3l33.4-48.2c0,0-0.1-0.2-0.4-0.5l0.3-0.4
	l33.1,48.3c10.1,14.7,26.8,22.7,43.9,22.7c9.9,0,19.9-2.7,28.8-8.3C757.6,558.6,764.3,527.4,748.4,504.2z"/>
<linearGradient id="SVGID_7_" gradientUnits="userSpaceOnUse" x1="313.3933" y1="-27.8705" x2="641" y2="-27.8705">
	<stop  offset="0" style="stop-color:#02A0D0"/>
	<stop  offset="1" style="stop-color:#10D683"/>
</linearGradient>
<path class="st6" d="M630.1,5.8l-95.8-135.8c-15.3-21.6-42.6-31.4-68.3-26.6c-17.9,2.5-34.6,11.9-45.3,27.1l-4.2,5.9L324.6,3.8
	c-9.3,13-12.7,28.1-10.6,42.5c3.3,31.2,31.8,55.7,66.3,55.7c23,0,43.3-10.8,55.3-27.3l42.2-59.1c0,0-0.2-0.2-0.5-0.6l0.4-0.5
	l41.8,59.3c12.7,18,33.8,27.8,55.4,27.8c12.5,0,25.1-3.3,36.4-10.2C641.7,72.6,650.2,34.3,630.1,5.8z"/>
<linearGradient id="SVGID_8_" gradientUnits="userSpaceOnUse" x1="391.1414" y1="1368.0835" x2="810.0384" y2="1368.0835">
	<stop  offset="0" style="stop-color:#FDD100"/>
	<stop  offset="1" style="stop-color:#FB7E1A"/>
</linearGradient>
<path class="st7" d="M796.1,1412.4l-122.5-178.6c-19.5-28.5-54.5-41.3-87.3-35c-22.9,3.4-44.3,15.6-58,35.6l-5.4,7.8l-117.4,167.5
	c-11.9,17-16.2,37-13.6,56c4.3,41.1,40.6,73.2,84.8,73.2c29.5,0,55.4-14.3,70.7-35.9l54-77.7c0,0-0.2-0.3-0.7-0.8l0.5-0.7l53.5,77.9
	c16.3,23.7,43.3,36.6,70.8,36.6c16,0,32.1-4.3,46.5-13.4C811,1500.2,821.8,1449.9,796.1,1412.4z"/>
<linearGradient id="SVGID_9_" gradientUnits="userSpaceOnUse" x1="269.2715" y1="455.075" x2="356.8317" y2="455.075">
	<stop  offset="0" style="stop-color:#FB0A87"/>
	<stop  offset="1" style="stop-color:#A408B0"/>
</linearGradient>
<path class="st8" d="M353.9,464.3L328.3,427c-4.1-5.9-11.4-8.6-18.2-7.3c-4.8,0.7-9.2,3.3-12.1,7.5l-1.1,1.6l-24.5,35
	c-2.5,3.6-3.4,7.7-2.8,11.7c0.9,8.6,8.5,15.3,17.7,15.3c6.2,0,11.6-3,14.8-7.5l11.3-16.2c0,0,0-0.1-0.1-0.2l0.1-0.1l11.2,16.3
	c3.4,5,9,7.6,14.8,7.6c3.3,0,6.7-0.9,9.7-2.8C357,482.7,359.3,472.2,353.9,464.3z"/>
<linearGradient id="SVGID_10_" gradientUnits="userSpaceOnUse" x1="447.9955" y1="707.8226" x2="753" y2="707.8226">
	<stop  offset="0" style="stop-color:#FB0A87"/>
	<stop  offset="1" style="stop-color:#FB7E1A"/>
</linearGradient>
<path class="st9" d="M742.8,740.1l-89.2-130c-14.2-20.7-39.7-30-63.6-25.5c-16.7,2.4-32.2,11.4-42.2,26l-3.9,5.7l-85.5,122
	c-8.7,12.4-11.8,26.9-9.9,40.7c3.1,29.9,29.6,53.3,61.7,53.3c21.4,0,40.4-10.4,51.5-26.2l39.3-56.6c0,0-0.2-0.2-0.5-0.6l0.3-0.5
	l38.9,56.8c11.9,17.3,31.5,26.6,51.6,26.6c11.6,0,23.4-3.2,33.8-9.7C753.7,804,761.6,767.4,742.8,740.1z"/>
<linearGradient id="SVGID_11_" gradientUnits="userSpaceOnUse" x1="-72.9741" y1="1501.6541" x2="86.3773" y2="1501.6541">
	<stop  offset="0" style="stop-color:#FB0A87"/>
	<stop  offset="1" style="stop-color:#FB7E1A"/>
</linearGradient>
<path class="st10" d="M81.1,1518.5l-46.6-67.9c-7.4-10.8-20.7-15.7-33.2-13.3c-8.7,1.3-16.8,5.9-22.1,13.6l-2,3l-44.7,63.7
	c-4.5,6.5-6.2,14.1-5.2,21.3c1.6,15.6,15.4,27.9,32.3,27.9c11.2,0,21.1-5.4,26.9-13.7L7,1523.4c0,0-0.1-0.1-0.3-0.3l0.2-0.3
	l20.3,29.7c6.2,9,16.5,13.9,26.9,13.9c6.1,0,12.2-1.6,17.7-5.1C86.7,1551.9,90.8,1532.8,81.1,1518.5z"/>
<linearGradient id="SVGID_12_" gradientUnits="userSpaceOnUse" x1="879.4979" y1="3141.4841" x2="1052.149" y2="3141.4841" gradientTransform="matrix(-1 0 0 1 1426.3827 0)">
	<stop  offset="0" style="stop-color:#FDD100"/>
	<stop  offset="1" style="stop-color:#FB7E1A"/>
</linearGradient>
<path class="st11" d="M380,3159.7l50.5-73.6c8-11.7,22.5-17,36-14.4c9.4,1.4,18.2,6.4,23.9,14.7l2.2,3.2l48.4,69
	c4.9,7,6.7,15.2,5.6,23.1c-1.8,16.9-16.7,30.2-34.9,30.2c-12.1,0-22.8-5.9-29.2-14.8l-22.2-32c0,0,0.1-0.1,0.3-0.3l-0.2-0.3
	l-22,32.1c-6.7,9.8-17.8,15.1-29.2,15.1c-6.6,0-13.2-1.8-19.2-5.5C373.9,3196,369.4,3175.2,380,3159.7z"/>
<linearGradient id="SVGID_13_" gradientUnits="userSpaceOnUse" x1="713.1385" y1="1031.0089" x2="885.7896" y2="1031.0089" gradientTransform="matrix(-1 0 0 1 1426.3827 0)">
	<stop  offset="0" style="stop-color:#FDD100"/>
	<stop  offset="1" style="stop-color:#FB7E1A"/>
</linearGradient>
<path class="st12" d="M546.3,1049.3l50.5-73.6c8-11.7,22.5-17,36-14.4c9.4,1.4,18.2,6.4,23.9,14.7l2.2,3.2l48.4,69
	c4.9,7,6.7,15.2,5.6,23.1c-1.8,16.9-16.7,30.2-34.9,30.2c-12.1,0-22.8-5.9-29.2-14.8l-22.2-32c0,0,0.1-0.1,0.3-0.3l-0.2-0.3
	l-22,32.1c-6.7,9.8-17.8,15.1-29.2,15.1c-6.6,0-13.2-1.8-19.2-5.5C540.2,1085.5,535.7,1064.7,546.3,1049.3z"/>
<linearGradient id="SVGID_14_" gradientUnits="userSpaceOnUse" x1="1258.1873" y1="2895.1577" x2="1421.1265" y2="2895.1577" gradientTransform="matrix(-1 0 0 1 1426.3827 0)">
	<stop  offset="0" style="stop-color:#FB0A87"/>
	<stop  offset="1" style="stop-color:#A408B0"/>
</linearGradient>
<path class="st13" d="M10.7,2912.4l47.7-69.5c7.6-11.1,21.2-16.1,34-13.6c8.9,1.3,17.2,6.1,22.6,13.9l2.1,3l45.7,65.2
	c4.6,6.6,6.3,14.4,5.3,21.8c-1.7,16-15.8,28.5-33,28.5c-11.5,0-21.6-5.5-27.5-14l-21-30.2c0,0,0.1-0.1,0.3-0.3l-0.2-0.3l-20.8,30.3
	c-6.3,9.2-16.8,14.2-27.5,14.2c-6.2,0-12.5-1.7-18.1-5.2C4.9,2946.6,0.7,2927,10.7,2912.4z"/>
<linearGradient id="SVGID_15_" gradientUnits="userSpaceOnUse" x1="908.7885" y1="2488.6631" x2="1071.7277" y2="2488.6631" gradientTransform="matrix(-1 0 0 1 1426.3827 0)">
	<stop  offset="0" style="stop-color:#FB0A87"/>
	<stop  offset="1" style="stop-color:#A408B0"/>
</linearGradient>
<path class="st14" d="M360.1,2505.9l47.7-69.5c7.6-11.1,21.2-16.1,34-13.6c8.9,1.3,17.2,6.1,22.6,13.9l2.1,3l45.7,65.2
	c4.6,6.6,6.3,14.4,5.3,21.8c-1.7,16-15.8,28.5-33,28.5c-11.5,0-21.6-5.5-27.5-14l-21-30.2c0,0,0.1-0.1,0.3-0.3l-0.2-0.3l-20.8,30.3
	c-6.3,9.2-16.8,14.2-27.5,14.2c-6.2,0-12.5-1.7-18.1-5.2C354.3,2540.1,350.1,2520.5,360.1,2505.9z"/>
<linearGradient id="SVGID_16_" gradientUnits="userSpaceOnUse" x1="-2524.6172" y1="532.4474" x2="-2418.3032" y2="532.4474" gradientTransform="matrix(-1 0 0 1 1426.3827 0)">
	<stop  offset="0" style="stop-color:#FB0A87"/>
	<stop  offset="1" style="stop-color:#FB7E1A"/>
</linearGradient>
<path class="st15" d="M3848.2,543.7l31.1-45.3c5-7.2,13.8-10.5,22.2-8.9c5.8,0.9,11.2,4,14.7,9l1.4,2l29.8,42.5
	c3,4.3,4.1,9.4,3.4,14.2c-1.1,10.4-10.3,18.6-21.5,18.6c-7.5,0-14.1-3.6-18-9.1l-13.7-19.7c0,0,0.1-0.1,0.2-0.2l-0.1-0.2l-13.6,19.8
	c-4.1,6-11,9.3-18,9.3c-4.1,0-8.2-1.1-11.8-3.4C3844.4,566,3841.7,553.2,3848.2,543.7z"/>
<linearGradient id="SVGID_17_" gradientUnits="userSpaceOnUse" x1="1335.7882" y1="2364.3992" x2="1476.8033" y2="2364.3992" gradientTransform="matrix(-1 0 0 1 1426.3827 0)">
	<stop  offset="0" style="stop-color:#02A0D0"/>
	<stop  offset="1" style="stop-color:#10D683"/>
</linearGradient>
<path class="st16" d="M-45.7,2379.3l41.2-60.1c6.6-9.6,18.3-13.9,29.4-11.8c7.7,1.1,14.9,5.3,19.5,12l1.8,2.6l39.5,56.4
	c4,5.7,5.5,12.4,4.6,18.8c-1.4,13.8-13.7,24.6-28.5,24.6c-9.9,0-18.7-4.8-23.8-12.1l-18.2-26.2c0,0,0.1-0.1,0.2-0.3l-0.2-0.2
	l-18,26.2c-5.5,8-14.6,12.3-23.8,12.3c-5.4,0-10.8-1.5-15.6-4.5C-50.7,2408.9-54.4,2391.9-45.7,2379.3z"/>
<linearGradient id="SVGID_18_" gradientUnits="userSpaceOnUse" x1="1299.3827" y1="1008.7738" x2="1553.3827" y2="1008.7738" gradientTransform="matrix(-1 0 0 1 1426.3827 0)">
	<stop  offset="0" style="stop-color:#02A0D0"/>
	<stop  offset="1" style="stop-color:#10D683"/>
</linearGradient>
<path class="st17" d="M-118.5,1035.6l74.3-108.3c11.8-17.3,33-25,52.9-21.2c13.9,2,26.8,9.5,35.2,21.6l3.3,4.7l71.2,101.6
	c7.2,10.3,9.8,22.4,8.2,33.9c-2.6,24.9-24.6,44.4-51.4,44.4c-17.9,0-33.6-8.6-42.9-21.8l-32.7-47.1c0,0,0.1-0.2,0.4-0.5l-0.3-0.4
	l-32.4,47.3c-9.9,14.4-26.2,22.2-42.9,22.2c-9.7,0-19.5-2.6-28.2-8.1C-127.6,1088.9-134.1,1058.4-118.5,1035.6z"/>
<linearGradient id="SVGID_19_" gradientUnits="userSpaceOnUse" x1="919.5128" y1="3570.8853" x2="1012.2921" y2="3570.8853" gradientTransform="matrix(-1 0 0 1 1426.3827 0)">
	<stop  offset="0" style="stop-color:#FDD100"/>
	<stop  offset="1" style="stop-color:#FB7E1A"/>
</linearGradient>
<path class="st18" d="M417.2,3580.7l27.1-39.6c4.3-6.3,12.1-9.1,19.3-7.8c5.1,0.7,9.8,3.5,12.8,7.9l1.2,1.7l26,37.1
	c2.6,3.8,3.6,8.2,3,12.4c-0.9,9.1-9,16.2-18.8,16.2c-6.5,0-12.3-3.2-15.7-8l-11.9-17.2c0,0,0.1-0.1,0.2-0.2l-0.1-0.1l-11.8,17.3
	c-3.6,5.3-9.6,8.1-15.7,8.1c-3.5,0-7.1-1-10.3-3C413.9,3600.2,411.5,3589,417.2,3580.7z"/>
<linearGradient id="SVGID_20_" gradientUnits="userSpaceOnUse" x1="864.1321" y1="1161.495" x2="951.6923" y2="1161.495" gradientTransform="matrix(-1 0 0 1 1426.3827 0)">
	<stop  offset="0" style="stop-color:#FB0A87"/>
	<stop  offset="1" style="stop-color:#A408B0"/>
</linearGradient>
<path class="st19" d="M477.6,1170.8l25.6-37.3c4.1-5.9,11.4-8.6,18.2-7.3c4.8,0.7,9.2,3.3,12.1,7.5l1.1,1.6l24.5,35
	c2.5,3.6,3.4,7.7,2.8,11.7c-0.9,8.6-8.5,15.3-17.7,15.3c-6.2,0-11.6-3-14.8-7.5l-11.3-16.2c0,0,0-0.1,0.1-0.2l-0.1-0.1l-11.2,16.3
	c-3.4,5-9,7.6-14.8,7.6c-3.3,0-6.7-0.9-9.7-2.8C474.5,1189.1,472.2,1178.6,477.6,1170.8z"/>
<linearGradient id="SVGID_21_" gradientUnits="userSpaceOnUse" x1="1044.101" y1="2151.9978" x2="1101.2321" y2="2151.9978" gradientTransform="matrix(-1 0 0 1 1426.3827 0)">
	<stop  offset="0" style="stop-color:#FB0A87"/>
	<stop  offset="1" style="stop-color:#FB7E1A"/>
</linearGradient>
<path class="st20" d="M327.1,2158l16.7-24.4c2.7-3.9,7.4-5.6,11.9-4.8c3.1,0.5,6,2.1,7.9,4.9l0.7,1.1l16,22.8c1.6,2.3,2.2,5,1.9,7.6
	c-0.6,5.6-5.5,10-11.6,10c-4,0-7.6-1.9-9.6-4.9l-7.4-10.6c0,0,0,0,0.1-0.1l-0.1-0.1l-7.3,10.6c-2.2,3.2-5.9,5-9.7,5
	c-2.2,0-4.4-0.6-6.3-1.8C325,2170,323.5,2163.2,327.1,2158z"/>
<linearGradient id="SVGID_22_" gradientUnits="userSpaceOnUse" x1="1243.3827" y1="1250.2764" x2="1481.1479" y2="1250.2764" gradientTransform="matrix(-1 0 0 1 1426.3827 0)">
	<stop  offset="0" style="stop-color:#FB0A87"/>
	<stop  offset="1" style="stop-color:#FB7E1A"/>
</linearGradient>
<path class="st21" d="M-46.8,1275.4l69.5-101.4c11.1-16.2,30.9-23.4,49.5-19.9c13,1.9,25.1,8.9,32.9,20.2l3,4.4l66.7,95.1
	c6.8,9.7,9.2,21,7.7,31.8c-2.4,23.3-23,41.6-48.1,41.6c-16.7,0-31.5-8.1-40.1-20.4l-30.6-44.1c0,0,0.1-0.2,0.4-0.5l-0.3-0.4
	l-30.4,44.2c-9.2,13.5-24.6,20.8-40.2,20.8c-9.1,0-18.2-2.5-26.4-7.6C-55.3,1325.3-61.4,1296.7-46.8,1275.4z"/>
<linearGradient id="SVGID_23_" gradientUnits="userSpaceOnUse" x1="322" y1="561.4447" x2="495" y2="561.4447">
	<stop  offset="0" style="stop-color:#02A0D0"/>
	<stop  offset="1" style="stop-color:#10D683"/>
</linearGradient>
<path class="st22" d="M489.2,579.7L438.6,506c-8.1-11.8-22.5-17-36-14.5c-9.5,1.4-18.3,6.5-23.9,14.7l-2.2,3.2l-48.5,69.2
	c-4.9,7-6.7,15.3-5.6,23.1c1.8,17,16.8,30.2,35,30.2c12.2,0,22.9-5.9,29.2-14.8l22.3-32.1c0,0-0.1-0.1-0.3-0.3l0.2-0.3l22.1,32.2
	c6.7,9.8,17.9,15.1,29.2,15.1c6.6,0,13.3-1.8,19.2-5.5C495.4,616,499.9,595.2,489.2,579.7z"/>
<linearGradient id="SVGID_24_" gradientUnits="userSpaceOnUse" x1="88.9919" y1="936.6782" x2="130" y2="936.6782">
	<stop  offset="0" style="stop-color:#FDD100"/>
	<stop  offset="1" style="stop-color:#FB7E1A"/>
</linearGradient>
<path class="st23" d="M128.6,941l-12-17.5c-1.9-2.8-5.3-4-8.5-3.4c-2.2,0.3-4.3,1.5-5.7,3.5l-0.5,0.8l-11.5,16.4
	c-1.2,1.7-1.6,3.6-1.3,5.5c0.4,4,4,7.2,8.3,7.2c2.9,0,5.4-1.4,6.9-3.5l5.3-7.6c0,0,0,0-0.1-0.1l0-0.1l5.2,7.6
	c1.6,2.3,4.2,3.6,6.9,3.6c1.6,0,3.1-0.4,4.6-1.3C130.1,949.6,131.2,944.7,128.6,941z"/>
</svg>
