<?xml version="1.0" encoding="utf-8"?>
<!-- Generator: Adobe Illustrator 22.0.0, SVG Export Plug-In . SVG Version: 6.00 Build 0)  -->
<svg version="1.1" id="Layer_1" xmlns="http://www.w3.org/2000/svg" xmlns:xlink="http://www.w3.org/1999/xlink" x="0px" y="0px"
	 viewBox="0 0 600 251.6" style="enable-background:new 0 0 600 251.6;" xml:space="preserve">
<style type="text/css">
	.st0{fill:#D3CDCD;}
	.st1{fill:#FED130;}
	.st2{fill:#E8D06B;}
	.st3{fill:#F7BC14;}
	.st4{fill:#FFB125;}
	.st5{fill:#FF901D;}
	.st6{fill:#54A2A2;}
	.st7{fill:#498B89;}
	.st8{fill:#65C8D0;}
	.st9{fill:#60B7B9;}
	.st10{fill:#501627;}
	.st11{fill:#F56A82;}
	.st12{fill:#FFFFFF;}
	.st13{fill:#E7E7E7;}
	.st14{fill:#DC519B;}
	.st15{fill:#4F1837;}
</style>
<path class="st0" d="M456.3,147.8c-36.5-0.4-66.3,16.4-66.6,37.6c-0.2,13.8-19.6,24.8-43.4,24.6c-23.8-0.3-43-11.7-42.9-25.6
	c0.2-13.7-12-25.8-30.4-32.8v18.2c4.8,4.1,7.5,9,7.5,14.3c-0.2,21.2,29.2,38.7,65.7,39.2c36.5,0.4,66.3-16.4,66.6-37.6
	c0.2-13.8,19.6-24.8,43.4-24.6c23.8,0.3,43,11.7,42.9,25.6l23,0.3C522.2,165.8,492.8,148.2,456.3,147.8z"/>
<path class="st1" d="M237.8,145.3c-36.5-0.4-66.3,16.4-66.6,37.6c-0.2,13.8-19.6,24.8-43.4,24.6c-23.8-0.3-43-11.7-42.9-25.6
	l-23-0.3c-0.2,21.2,29.2,38.7,65.7,39.2c36.5,0.4,66.3-16.4,66.6-37.6c0.2-13.8,19.6-24.8,43.4-24.6c14.7,0.2,27.7,4.6,35.4,11.2
	v-18.2C262.8,147.8,250.8,145.5,237.8,145.3z"/>
<ellipse class="st1" cx="74.5" cy="187.5" rx="34.5" ry="13.5"/>
<ellipse class="st1" cx="172.5" cy="200.5" rx="34.5" ry="13.5"/>
<ellipse class="st1" cx="276.5" cy="158.5" rx="34.5" ry="13.5"/>
<ellipse class="st0" cx="348.5" cy="215.5" rx="34.5" ry="13.5"/>
<ellipse class="st0" cx="435.5" cy="155.5" rx="34.5" ry="13.5"/>
<ellipse class="st0" cx="512.5" cy="197.5" rx="34.5" ry="13.5"/>
<g>
	<g>
		<g>
			<path class="st1" d="M494.7,162.4c-0.1-0.1-0.2-0.2-0.4-0.3c-1-1-1.4-2.4-1-3.9c0.2-0.6,0.8-1,1.5-0.9c0.6,0.2,1,0.8,0.9,1.5
				c-0.2,0.7-0.1,1.2,0.3,1.6c0.5,0.5,1.3,0.7,1.9,0.5c0.6-0.2,1.1-0.6,1.4-1.2c0.2-0.4,0.3-1-0.1-1.6c-1.1-2-3.5-2.8-6.3-3.7
				c-5.1-1.7-11.4-3.7-11.7-14.4l-0.1-4.4c0-0.9,0.3-1.8,0.9-2.4c0.6-0.7,1.4-1,2.3-1.1c2.4-0.1,4.7,1.1,6.2,3l0.9,1.2
				c0.5,0.6,1.2,1,2,1l5-0.2c0.7,0,1.2,0.5,1.2,1.2c0,0.7-0.5,1.2-1.2,1.2l-5,0.2c-1.6,0-3.1-0.7-4-1.9l-0.9-1.2
				c-1-1.3-2.5-2.1-4.2-2c-0.3,0-0.5,0.1-0.7,0.3c-0.2,0.2-0.3,0.4-0.3,0.7l0.1,4.4c0.3,9,5,10.6,10,12.2c3,1,6.1,2,7.7,4.9
				c0.6,1.2,0.7,2.5,0.1,3.8c-0.6,1.3-1.7,2.2-3,2.5C497.3,163.5,495.8,163.2,494.7,162.4z"/>
			<path class="st1" d="M524.3,161.4c-0.5-0.4-0.9-0.9-1.2-1.5c-0.6-1.2-0.7-2.5-0.1-3.8c1.3-3,4.4-4.2,7.3-5.4
				c4.9-1.9,9.5-3.8,9.2-12.8l-0.1-4.4c0-0.3-0.1-0.5-0.3-0.7c-0.2-0.2-0.4-0.3-0.7-0.3c-1.6,0.1-3.1,0.9-4,2.3l-0.8,1.2
				c-0.9,1.3-2.3,2.1-3.9,2.2l-5,0.2c-0.7,0-1.2-0.5-1.2-1.2c0-0.7,0.5-1.2,1.2-1.2l5-0.2c0.8,0,1.5-0.4,1.9-1.1l0.8-1.2
				c1.3-2,3.5-3.3,6-3.4c0.9,0,1.8,0.3,2.4,0.9c0.7,0.6,1,1.4,1.1,2.3l0.1,4.4c0.4,10.7-5.8,13.2-10.8,15.1c-2.7,1.1-5.1,2-6,4.1
				c-0.3,0.7-0.2,1.3,0,1.6c0.3,0.6,0.9,1,1.5,1.1c0.7,0.1,1.5-0.2,1.9-0.6c0.4-0.4,0.4-1,0.2-1.6c-0.2-0.6,0.1-1.3,0.8-1.5
				c0.6-0.2,1.3,0.1,1.5,0.8c0.5,1.5,0.2,2.9-0.7,4c-1,1.1-2.7,1.7-4.2,1.4C525.6,162.2,524.9,161.9,524.3,161.4z"/>
		</g>
		<path class="st2" d="M513.3,177.2l0.1,1.7c-0.6-0.4-1-1-1-1.7l-0.1-1.6C512.8,176,513.2,176.6,513.3,177.2z"/>
		<polygon class="st1" points="522.2,195.5 505.4,195.9 509.9,162.1 515,161.9 		"/>
		<path class="st1" d="M494.5,130.4l0.4,12.1c0.3,8.6,5.1,16.5,13,21.3l1.2,0.7c2.1,1.3,4.8,1.2,6.8-0.2l1.2-0.8
			c7.6-5.3,11.9-13.5,11.7-22l-0.4-12.1L494.5,130.4z"/>
		<path class="st3" d="M528.7,141.4l-0.4-12.1l-7.2,0.2l0.4,12.7c0.3,8.6-4.1,16.7-11.7,22l-0.5,0.4l0,0c1.9,1.2,4.4,1.1,6.3-0.2
			l1.4-1C524.6,158.2,528.9,150,528.7,141.4z"/>
		<path class="st4" d="M529.6,131.6l-36.3,1.1c-0.5,0-1-0.4-1-0.9l-0.1-2.7c0-0.5,0.4-1,0.9-1l36.3-1.1c0.5,0,1,0.4,1,0.9l0.1,2.7
			C530.6,131.2,530.2,131.6,529.6,131.6z"/>
		<path class="st5" d="M530.6,130.7l-0.1-2.7c0-0.5-0.5-0.9-1-0.9l-6.4,0.2l0.1,4.6l6.4-0.2C530.2,131.6,530.6,131.2,530.6,130.7z"
			/>
		<path class="st4" d="M525.7,199l-23.4,0.7c-1,0-1.8-0.9-1.7-1.8l0.7-5.6c0.1-0.8,0.8-1.4,1.6-1.5l21.7-0.6c0.8,0,1.5,0.6,1.7,1.4
			l1,5.5C527.4,198,526.7,199,525.7,199z"/>
		<path class="st5" d="M527.3,197l-1-5.5c-0.1-0.8-0.9-1.4-1.7-1.4l-6.3,0.2l1.6,8.9l5.8-0.2C526.7,199,527.4,198,527.3,197z"/>
	</g>
</g>
<path class="st6" d="M230.5,88.3l-4.6-5.1c0,0-12.3,13.3-6.4,35.9c5.1,20,17.8,8.9,13.7-3C229,104.2,230.5,88.3,230.5,88.3z"/>
<path class="st7" d="M233.1,116.1c-4.1-11.9-2.6-27.9-2.6-27.9l-7-1.8c-2.3,7.7,5.2,22.9,6.2,27.2c1,4.3,2.2,8.7,0.5,12.3
	c-1.7,3.6-7.3,1.3-7.3,1.3C228.7,134.9,236.4,125.8,233.1,116.1z"/>
<path class="st7" d="M320.4,88.3l4.6-5.1c0,0,12.3,13.3,6.4,35.9c-5.1,20-17.8,8.9-13.7-3C321.9,104.2,320.4,88.3,320.4,88.3z"/>
<path class="st6" d="M317.8,116.1c-0.9,3-1,5.9-0.3,8.3c1,3.3,5,3.9,5.6,0c0.2-1.5,0.8-4.8,0.1-6.9C321.9,114,319,112.2,317.8,116.1
	z"/>
<path class="st6" d="M257.9,126c0,0-2.3,28.8-6.4,30.8c-4.2,2-2.7,3.2,7.4,3.2c10.1,0,12-1,12.5-9.3c0.5-8.4-2.5-21.8-2.5-21.8
	L257.9,126z"/>
<path class="st6" d="M298.9,156.8c-4.2-2-6.4-30.8-6.4-30.8l-10.9,2.9c0,0-3,13.4-2.5,21.8c0.5,8.4,2.5,9.3,12.5,9.3
	C301.6,160,303,158.8,298.9,156.8z"/>
<path class="st7" d="M269.3,148.6c-1.6,8.5-8,12.2-17.6,11.1c1.6,0.2,3.9,0.4,7.1,0.4c10.1,0,12-1,12.5-9.3
	c0.5-8.4-2.5-21.8-2.5-21.8l-10.9-2.9c0,0,1.8,1.7,5.6,3.4C267.3,131.1,270.9,140.1,269.3,148.6z"/>
<path class="st7" d="M292.7,143c0.7,8.3,6.4,17.3-4.9,16.9l0,0c1.1,0.1,2.3,0.1,3.7,0.1c10.1,0,11.5-1.2,7.4-3.2
	c-4.2-2-6.4-30.8-6.4-30.8l-10.9,2.9c0,0,3,1,5.5,1C289.5,129.9,292,134.8,292.7,143z"/>
<path class="st8" d="M325.2,65.3c1.8,2.4,4.6,3.8,4.6,3.8c-1-11.5-16.1-24.7-16.1-24.7c5.1,1.7,5.1,0.1,5.1,0.1
	c-14.7-14.9-31.9-14-31.9-14c1.8-0.1,3-2.3,3-2.3c-7.3-2.4-13.4,1.3-13.4,1.3s-7.2-1.9-9.8-5.5c0,0-2.3,4.6,2,6.9
	c0,0-8.8-3.6-20.3,1.6c0,0,3.3,2.3,6.9,2.3c0,0-16,0.3-28.2,18.3c0,0,2.5,0.7,5-0.9c-2.9,3-8,9.4-9.4,18.6c0,0,1.9-0.4,3.4-2.6
	c-1.7,4.4-4.8,15.1-0.6,29.3c0,0,1.3-0.1,1.6-6.3c0,0,3.5,23.5,16.8,33.6c0,0,1.6-2.9-0.3-7.4c0,0,8.6,8.1,9.6,13.5
	c0,0,1.9-3.3,0.6-6.8c0,0,7.3,5.3,22.5,5.3c15.2,0,24-6,24-6c-0.8,3,1.8,6,1.8,6c0.2-5,6.9-12,6.9-12c-2.5,2.3-0.3,7.1-0.3,7.1
	c4.8-4.1,8.1-12,9.6-16.2c-0.3,2.9,1.5,4.9,1.5,4.9c6.4-6.9,6.1-23.6,6.1-23.6c0.4,4.1,4,7.6,4,7.6
	C332.8,81.9,325.2,65.3,325.2,65.3z"/>
<path class="st9" d="M243.5,117.5c0,0,8.6,8.1,9.6,13.5c0,0,1.9-3.3,0.6-6.8c0,0,7.3,5.3,22.5,5.3c15.2,0,24-6,24-6
	c-0.8,3,1.8,6,1.8,6c0.2-5,6.9-12,6.9-12c-2.5,2.3-0.3,7.1-0.3,7.1c4.8-4.1,8.1-12,9.6-16.2c-0.3,2.9,1.5,4.9,1.5,4.9
	c6.4-6.9,6.1-23.6,6.1-23.6c0.4,4.1,4,7.6,4,7.6c2.9-15.5-4.6-32-4.6-32c1.8,2.4,4.6,3.8,4.6,3.8c-1-11.5-16.1-24.7-16.1-24.7
	c5.1,1.7,5.1,0.1,5.1,0.1c-14.7-14.9-31.9-14-31.9-14s1.8-0.2,3.9,2.2c2.2,2.4,4.8,5.8,10.1,7.6c5.3,1.8,18.6,8.5,22.4,19.5
	c0,0-3.1-1-4.6-2.9c0,0,11.7,23.5,3,45.5c0,0-2.1-2.2-1.7-5.3c0,0-9.1,26.1-40.3,28.8C254.8,128.2,243.5,117.5,243.5,117.5z"/>
<g>
	<path class="st10" d="M277,96.4c9.4,0.1,15.8-1.1,18.1-3.7c2.3-2.6,10.7,1.1,5.7,9.5c-5,8.4-16.8,9.2-23.8,9.1
		c-7-0.1-24.2-7.3-20.8-15.8C259.8,87,268.6,96.3,277,96.4z"/>
	<path class="st11" d="M266.5,108.6c0,0,9.8-10.1,28.6-0.8C295.1,107.8,281.8,115.7,266.5,108.6z"/>
	<path class="st12" d="M266.5,93.4c0,0-0.3,5.5,0.8,6c1.1,0.5,1.6-1.9,1.6-1.9s7.8,2.7,19.3,1c0,0,0.1,1.8,1,1.9
		c0.9,0.1,2.1-5.4,2.1-5.4s-4,1.5-12.1,1.5C273.4,96.4,266.5,93.4,266.5,93.4z"/>
</g>
<g>
	<path class="st12" d="M299.4,63.1c0.7,12.4-8.8,23.1-21.2,23.8c-12.4,0.7-23.1-8.8-23.8-21.2c-0.7-12.4,8.8-23.1,21.2-23.8
		C288.1,41.2,298.7,50.7,299.4,63.1z"/>
	<path class="st13" d="M299.4,63.1c-0.1-1.3-0.2-2.5-0.5-3.7c0,0.3,0.1,0.7,0.1,1c0.7,12.4-8.8,23.1-21.2,23.8
		c-11.2,0.6-20.9-7-23.3-17.5c1.2,11.9,11.6,20.8,23.7,20.2C290.7,86.2,300.2,75.5,299.4,63.1z"/>
	<path class="st14" d="M285,63.9c0.3,4.9-3.4,9-8.3,9.3c-4.9,0.3-9-3.4-9.3-8.3c-0.3-4.9,3.4-9,8.3-9.3
		C280.5,55.3,284.7,59,285,63.9z"/>
	<path class="st15" d="M281,64.1c0.2,2.7-1.9,5-4.6,5.1c-2.7,0.2-5-1.9-5.1-4.6c-0.2-2.7,1.9-5,4.6-5.1
		C278.6,59.4,280.9,61.4,281,64.1z"/>
	<path class="st12" d="M282.2,60.4c0.1,1.5-1.1,2.8-2.6,2.9c-1.5,0.1-2.8-1.1-2.9-2.6c-0.1-1.5,1.1-2.8,2.6-2.9
		C280.8,57.7,282.1,58.9,282.2,60.4z"/>
</g>
</svg>
