<?xml version="1.0" encoding="utf-8"?>
<!-- Generator: Adobe Illustrator 22.0.0, SVG Export Plug-In . SVG Version: 6.00 Build 0)  -->
<svg version="1.1" id="Layer_1" xmlns="http://www.w3.org/2000/svg" xmlns:xlink="http://www.w3.org/1999/xlink" x="0px" y="0px"
	 viewBox="0 0 1483.2 438.3" style="enable-background:new 0 0 1483.2 438.3;" xml:space="preserve">
<style type="text/css">
	.st0{fill:#C4C2C2;}
	.st1{fill:#96AF2F;}
	.st2{fill:#232020;}
	.st3{fill:#B0D133;}
	.st4{fill:#FFFFFF;}
	.st5{fill:#E7E7E7;}
	.st6{fill:#5B6D13;}
	.st7{fill:#501627;}
	.st8{fill:#ECECEC;}
</style>
<path class="st0" d="M1381.1,416.4c-1.7-21.4-12.2-39.7-20.4-51.2c-1-2.2-2-4.3-3.1-6.4c3.9,2.3,7.2,2.7,9.3,2.7
	c1.7,0,2.7-0.3,2.7-0.3c-12.6-26.1-31.2-40.5-43.8-47.8c4.4-5.2,11.8-15.7,14.4-29.6c10.3-3.5,16.4-9.9,19.9-15.2
	c12.4-18.8,5.9-44.2,5.1-47.1c-2.1-7.4-9.8-11.8-17.2-9.7c-7.4,2.1-11.8,9.7-9.7,17.1c1.1,4,3.1,16.8-1.3,23.9
	c-3.9-9.3-10.6-18.1-20-26.1c-5.8-5-14.7-4.4-19.7,1.5c-5,5.8-4.4,14.7,1.5,19.7c9.3,8,14.1,16.3,14.5,24.6c0.3,7-2.6,13.3-5.3,17.8
	c-25.7-15.5-52.5-22.3-60.5-24.1c0,0,0,0,0.1,0c-0.1,0-0.1,0-0.2,0c-20.9-7.2-43.6-11.2-67.5-11.2c-25.5,0-48.4,4-68.8,10.7
	c0,0-31.8,6-62.1,24.2c-2.7-4.4-5.3-10.6-5.1-17.4c0.4-8.3,5.2-16.6,14.5-24.6c5.9-5,6.5-13.9,1.5-19.7c-5-5.9-13.9-6.5-19.7-1.5
	c-10.4,8.9-17.5,18.7-21.2,29.2c-1.3-0.9-2.1-1.8-2.6-2.7c-4.7-7-2.6-20.2-1.5-24.3c2.1-7.4-2.3-15-9.7-17.1
	c-7.4-2.1-15.1,2.3-17.2,9.7c-0.8,2.9-7.3,28.3,5.1,47.1c3.9,6,11.2,13.3,24.1,16.4c2.8,12.9,9.6,22.8,13.9,27.9
	c-12.6,7.2-31.5,21.6-44.4,48.1c0,0,7.2,2.2,16-5.3c-0.2,0.4-0.4,0.8-0.6,1.2c-7.7,9-24.7,31.7-26.8,59.3c0,0,6,0.5,8.6-5.6
	c-2.1,7.3-7.6,31.3,7.2,50.8c0,0,3.9-0.3,6.2-4.2c0.5,0.4,1,0.7,1.6,1.1c-1.1-0.6-1.7-0.9-1.7-0.9c39,28.4,177.2,20,234.7,20
	c44.7,0,101.5,6,127.4-19.4c2.3,3.3,5.8,3.5,5.8,3.5c2-2.7,3.7-5.5,5-8.3c7.3-15.2,5.1-31.4,3.2-39.5c0-0.5-0.1-1-0.1-1.5
	c1.4,2.1,3.2,3.2,4.8,3.7c0,0,0,0,0.1,0c0.1,0,0.2,0,0.2,0.1c1.2,0.3,2.1,0.4,2.5,0.4C1381,416.4,1381.1,416.4,1381.1,416.4z"/>
<g>
	<path class="st1" d="M128,370.9c0,3.7-0.8,7.6-2.6,11.9s-4.6,8.5-8.3,12.6c-3.7,4.1-8.6,7.4-14.4,10c-5.9,2.6-12.6,3.8-20.5,3.8
		c-5.9,0-11.3-0.6-16.2-1.7c-4.9-1.2-9.2-2.9-13.2-5.4c-3.9-2.4-7.6-5.6-10.9-9.6c-3-3.6-5.5-7.7-7.6-12.1
		c-2.1-4.5-3.6-9.2-4.7-14.3c-1-5.1-1.6-10.5-1.6-16.2c0-9.3,1.3-17.6,3.9-24.9c2.6-7.3,6.4-13.6,11.3-18.8
		c4.9-5.2,10.6-9.2,17.2-11.9c6.5-2.7,13.6-4.1,21-4.1c9,0,17.1,1.9,24.3,5.6c7,3.7,12.5,8.3,16.3,13.8c3.7,5.5,5.7,10.6,5.7,15.5
		c0,2.7-0.9,5-2.8,7.1c-1.9,2-4,3.1-6.6,3.1c-2.9,0-5.1-0.7-6.5-2.1c-1.5-1.4-3.1-3.8-4.9-7.3c-3-5.7-6.4-10-10.5-12.8
		c-4-2.8-8.9-4.2-14.8-4.2c-9.3,0-16.8,3.6-22.3,10.9s-8.3,17.6-8.3,31c0,8.9,1.2,16.4,3.6,22.3c2.5,5.9,5.9,10.4,10.4,13.3
		s9.7,4.4,15.8,4.4c6.5,0,12-1.7,16.6-5c4.5-3.3,7.9-8.2,10.2-14.6c0.9-3,2.2-5.5,3.6-7.4s3.7-2.9,6.8-2.9c2.7,0,5,1,6.9,2.9
		C127,365.6,128,368,128,370.9z"/>
	<path class="st1" d="M197.7,290.2c11.6,0,21.6,2.4,30,7.3c8.3,4.8,14.6,11.7,18.9,20.6s6.4,19.4,6.4,31.4c0,8.9-1.1,17-3.5,24.3
		c-2.4,7.3-5.9,13.6-10.6,18.9s-10.5,9.4-17.3,12.2c-6.8,2.8-14.6,4.2-23.4,4.2c-8.8,0-16.6-1.5-23.5-4.4s-12.8-7-17.3-12.3
		c-4.7-5.3-8.2-11.6-10.5-19.1c-2.4-7.4-3.5-15.5-3.5-24.1c0-8.8,1.2-17,3.7-24.3c2.5-7.4,6-13.7,10.8-18.8
		c4.7-5.2,10.4-9.1,17.1-11.9S189.2,290.2,197.7,290.2z M229.9,349.4c0-8.4-1.3-15.7-3.9-21.9c-2.7-6.2-6.4-10.8-11.3-14
		c-4.9-3.2-10.6-4.7-16.9-4.7c-4.6,0-8.7,0.9-12.5,2.6c-3.8,1.8-7.2,4.3-10,7.7c-2.8,3.3-5,7.6-6.5,12.8c-1.6,5.2-2.4,11.1-2.4,17.5
		c0,6.5,0.8,12.5,2.4,17.7c1.6,5.3,3.8,9.7,6.8,13.1c2.9,3.5,6.3,6.1,10.1,7.8c3.8,1.7,8,2.6,12.5,2.6c5.8,0,11.2-1.5,16-4.5
		c4.9-3,8.7-7.6,11.6-13.8C228.5,366.2,229.9,358.5,229.9,349.4z"/>
	<path class="st1" d="M310.2,389.9l-17.9-73.3V396c0,4.4-0.9,7.7-2.9,9.9c-1.9,2.2-4.5,3.3-7.6,3.3c-3,0-5.6-1.1-7.5-3.3
		c-2-2.2-2.9-5.5-2.9-9.9v-91c0-5,1.2-8.4,3.8-10.2c2.6-1.8,6-2.6,10.4-2.6h7c4.3,0,7.3,0.4,9.2,1.2c1.9,0.8,3.3,2.2,4.3,4.2
		c0.9,2,2,5.4,3.1,10l16.3,63l16.3-63c1.1-4.6,2.2-7.9,3.1-10s2.3-3.5,4.3-4.2c1.9-0.8,5-1.2,9.2-1.2h7c4.4,0,7.8,0.9,10.4,2.6
		c2.6,1.8,3.8,5.1,3.8,10.2v91c0,4.4-0.9,7.7-2.9,9.9c-1.9,2.2-4.5,3.3-7.7,3.3c-3,0-5.5-1.1-7.5-3.3c-2-2.2-2.9-5.5-2.9-9.9v-79.4
		L340.8,390c-1.1,4.8-2.2,8.3-2.9,10.5s-2.1,4.3-4,6.1c-2,1.8-4.8,2.7-8.3,2.7c-2.7,0-4.9-0.6-6.7-1.8s-3.2-2.7-4.3-4.5
		s-1.9-3.9-2.4-6.1C311.4,394.6,310.8,392.3,310.2,389.9z"/>
	<path class="st1" d="M446.3,362.4h-20.8V395c0,4.7-1,8.2-3.2,10.6c-2.2,2.4-4.9,3.6-8.1,3.6c-3.4,0-6.1-1.2-8.3-3.6
		c-2.1-2.4-3.1-5.9-3.1-10.5v-88.7c0-5.1,1.1-8.8,3.4-11c2.3-2.2,5.9-3.3,10.9-3.3h29.1c8.6,0,15.2,0.7,19.9,2
		c4.6,1.3,8.5,3.5,11.9,6.5c3.3,3,5.9,6.8,7.6,11.1c1.8,4.4,2.6,9.3,2.6,14.8c0,11.7-3.5,20.6-10.6,26.6
		C470.7,359.4,460.2,362.4,446.3,362.4z M440.8,309.8h-15.2V345h15.2c5.4,0,9.8-0.6,13.4-1.7c3.6-1.2,6.3-3,8.2-5.7
		c1.9-2.6,2.8-6,2.8-10.3c0-5.1-1.5-9.2-4.4-12.4C457.6,311.4,451,309.8,440.8,309.8z"/>
	<path class="st1" d="M565.1,394.2l-5.4-14.4h-45.5l-5.4,14.8c-2.1,5.8-3.8,9.6-5.4,11.7c-1.5,2-3.9,3-7.3,3c-2.9,0-5.4-1.1-7.6-3.2
		c-2.2-2.1-3.3-4.6-3.3-7.3c0-1.6,0.2-3.2,0.7-4.9c0.5-1.7,1.3-4,2.5-7l28.6-74.7c0.8-2.1,1.8-4.7,2.9-7.7c1.1-3,2.4-5.5,3.6-7.5
		c1.3-2,3-3.6,5.1-4.8c2.1-1.2,4.8-1.8,7.9-1.8s5.8,0.6,7.9,1.8c2.1,1.2,3.8,2.8,5.1,4.7c1.3,1.9,2.4,4,3.3,6.2
		c0.9,2.2,2.1,5.2,3.4,8.9l29.2,74.3c2.3,5.7,3.4,9.8,3.4,12.3c0,2.7-1,5.1-3.2,7.3c-2.2,2.2-4.8,3.3-7.9,3.3c-1.8,0-3.3-0.3-4.6-1
		s-2.4-1.5-3.2-2.7c-0.8-1.1-1.8-2.9-2.8-5.2C566.7,398,565.9,396,565.1,394.2z M520.2,362.3h33.5l-16.9-47.5L520.2,362.3z"/>
	<path class="st1" d="M636.6,358h-8v37c0,4.9-1,8.5-3.1,10.8c-2.1,2.3-4.8,3.5-8.2,3.5c-3.6,0-6.4-1.2-8.4-3.6c-2-2.4-3-5.9-3-10.6
		v-88.5c0-5,1.1-8.7,3.3-10.9c2.2-2.2,5.7-3.4,10.6-3.4h36.9c5.1,0,9.4,0.2,13.1,0.7c3.6,0.4,6.8,1.3,9.7,2.7
		c3.5,1.5,6.6,3.7,9.3,6.5s4.8,6.1,6.1,9.9c1.5,3.7,2.1,7.7,2.1,11.9c0,8.6-2.4,15.4-7,20.6c-4.7,5.1-11.8,8.8-21.5,10.9
		c4,2.2,7.9,5.4,11.5,9.7c3.6,4.3,6.9,8.9,9.8,13.7c2.9,4.8,5.1,9.2,6.7,13.1c1.6,3.9,2.4,6.6,2.4,8c0,1.5-0.5,3-1.5,4.5
		s-2.3,2.7-3.8,3.5c-1.7,0.9-3.5,1.3-5.7,1.3c-2.6,0-4.7-0.6-6.4-1.8c-1.8-1.2-3.2-2.8-4.5-4.7c-1.2-1.9-2.9-4.7-5.1-8.3l-9.1-15.5
		c-3.2-5.7-6.2-10-8.7-13c-2.6-3-5.2-5-7.9-6.1C643.9,358.6,640.6,358,636.6,358z M649.5,309.8h-20.9v31.6h20.3
		c5.5,0,10.1-0.5,13.8-1.5s6.5-2.6,8.5-4.9s2.9-5.5,2.9-9.6c0-3.2-0.8-6-2.4-8.4c-1.6-2.4-3.7-4.3-6.5-5.5
		C662.6,310.2,657.4,309.8,649.5,309.8z"/>
	<path class="st1" d="M783.7,311.4h-24.8V395c0,4.8-1,8.4-3.1,10.7c-2.1,2.3-4.8,3.5-8.1,3.5c-3.3,0-6.1-1.2-8.2-3.5
		c-2.1-2.4-3.2-5.9-3.2-10.7v-83.6h-24.8c-3.8,0-6.7-0.9-8.6-2.6c-1.9-1.8-2.8-4.1-2.8-6.9c0-3,0.9-5.3,2.9-7.1
		c2-1.7,4.8-2.6,8.5-2.6h72.2c3.9,0,6.8,0.9,8.7,2.7c1.9,1.8,2.9,4.1,2.9,7s-0.9,5.2-2.9,6.9C790.4,310.5,787.5,311.4,783.7,311.4z"
		/>
	<path class="st1" d="M809.6,395v-90.7c0-4.7,1-8.2,3.1-10.6c2.1-2.4,4.8-3.5,8.1-3.5c3.4,0,6.2,1.2,8.3,3.5s3.2,5.9,3.2,10.6V395
		c0,4.8-1,8.3-3.2,10.7c-2.1,2.4-4.9,3.5-8.3,3.5c-3.2,0-5.9-1.2-8.1-3.6C810.6,403.2,809.6,399.8,809.6,395z"/>
	<path class="st1" d="M888.2,358h-8v37c0,4.9-1,8.5-3.1,10.8c-2.1,2.3-4.8,3.5-8.2,3.5c-3.6,0-6.4-1.2-8.4-3.6s-3-5.9-3-10.6v-88.5
		c0-5,1.1-8.7,3.3-10.9s5.7-3.4,10.6-3.4h37c5.1,0,9.4,0.2,13.1,0.7c3.6,0.4,6.8,1.3,9.7,2.7c3.5,1.5,6.6,3.7,9.3,6.5
		s4.8,6.1,6.1,9.9c1.5,3.7,2.1,7.7,2.1,11.9c0,8.6-2.4,15.4-7,20.6c-4.7,5.1-11.8,8.8-21.5,10.9c4,2.2,7.9,5.4,11.5,9.7
		c3.6,4.3,6.9,8.9,9.8,13.7c2.9,4.8,5.1,9.2,6.7,13.1c1.6,3.9,2.4,6.6,2.4,8c0,1.5-0.5,3-1.5,4.5s-2.3,2.7-3.8,3.5
		c-1.7,0.9-3.5,1.3-5.7,1.3c-2.6,0-4.7-0.6-6.4-1.8c-1.8-1.2-3.2-2.8-4.5-4.7s-2.9-4.7-5.1-8.3l-9.1-15.5c-3.2-5.7-6.2-10-8.7-13
		c-2.6-3-5.2-5-7.9-6.1C895.5,358.6,892.2,358,888.2,358z M901.2,309.8h-20.9v31.6h20.3c5.5,0,10.1-0.5,13.8-1.5
		c3.7-1,6.5-2.6,8.5-4.9c2-2.3,2.9-5.5,2.9-9.6c0-3.2-0.8-6-2.4-8.4s-3.7-4.3-6.5-5.5C914.2,310.2,909,309.8,901.2,309.8z"/>
</g>
<g>
	<path class="st2" d="M873.8,162c-0.8-8.9-4.4-17-9.8-23.1c0.5-0.3,1.1-0.6,1.6-1c0.7-0.4,0.1-1.4-0.6-1c-0.6,0.4-1.2,0.7-1.9,1.1
		c-0.2-0.2-0.4-0.4-0.6-0.6l-0.1-0.1c0.4-0.2,0.9-0.5,1.3-0.8c0.6-0.4,0.1-1.3-0.5-0.9c-0.5,0.3-1,0.6-1.6,0.9
		c-7.1-6.7-16.3-10.1-25.4-7.9c-4.8,1.2-9.5,3.7-13.4,7.3c-3.6,3.4-6.3,7.8-9.6,11.6c-3.6-3.5-6.5-7.7-10.4-10.7
		c-4.1-3.3-9-5.3-13.8-6.1c-9.6-1.4-18.9,3.2-25.6,11.2c-5.8,6.8-9.3,15.8-9.6,25.5c-0.2,9.2,2.8,18.2,7.3,25.5
		c5.5,9.1,13.6,15.9,22,20.7c10.1,5.9,21,9.4,32.1,11.6c0.2,0,0.4,0,0.5-0.1c0.2,0.1,0.4,0.1,0.6,0.1c10.9-3.2,21.5-7.7,31.2-14.5
		c8-5.6,15.7-13.1,20.6-22.7C872.1,180.4,874.6,171.2,873.8,162z M865.8,186c-4.9,9.6-12.4,16.8-20.3,22.5
		c-9.2,6.6-19.4,11.3-29.7,15c0,0,0,0-0.1,0c0,0-0.1,0-0.1-0.1c-10.5-2.7-21-6.5-30.6-12.2c-8.3-4.9-16.2-11.5-21.7-20.5
		c-4.5-7.5-7.2-16.8-6.3-26c1-10.5,6.7-19.5,14.1-25.1c6.3-4.8,13.9-6.2,21.1-4c3.8,1.2,7.6,3.4,10.7,6.4c3.2,3,5.7,6.8,8.9,9.7
		c0.7,0.8,1.9,1.2,2.8,0.2c3.1-3.3,5.5-7.5,8.6-10.9c2.9-3.2,6.5-5.8,10.3-7.3c7.1-2.9,14.7-2.2,21.3,2c1.3,0.8,2.5,1.8,3.7,2.8
		c-0.4,0.3-0.7,0.5-1.1,0.8c-0.4,0.3-0.9,0.9-1.4,1.1l0,0c-0.3,0.2-0.1,0.6,0.2,0.5c1-0.3,2-1.2,2.9-1.8c0.3,0.3,0.7,0.6,1,0.9
		c-0.9,0.6-1.8,1.3-2.8,2c-0.4,0.3-0.1,1,0.4,0.7c1-0.7,2.1-1.3,3.1-1.9c4.7,4.9,8.3,11.3,9.5,18.7
		C871.9,168.7,869.8,178.2,865.8,186z"/>
	<path class="st2" d="M773.5,132c5.5-4.3,15-3.4,21.1-1.2c3.9,1.4,7.5,3.7,10.7,6.4c3,2.5,5.2,5.4,7.5,8.5c0.5,0.6,1.3-0.2,0.9-0.8
		c-1.3-1.8-2.6-3.6-4.1-5.3c-1.3-1.5-3-2.8-4.6-4.1c-3.4-2.6-7.3-4.7-11.4-6c-6.1-1.9-15.4-2.2-20.5,2.3
		C772.9,131.8,773.3,132.2,773.5,132z"/>
	<path class="st2" d="M784.1,127c5.4,0.6,10.6,0.9,15.5,3.5c2.5,1.3,4.8,3.3,7.2,4.9c1.3,0.9,2.6,1.7,3.8,2.7
		c1.2,1.1,1.9,2.5,2.7,3.9c0.4,0.7,1.5,0.1,1.1-0.6c-1.6-2.7-3.1-4.5-5.7-6.2c-2.8-1.9-5.5-4-8.4-5.6c-4.6-2.6-10.9-3.7-16.1-3.2
		C783.7,126.4,783.7,127,784.1,127z"/>
	<path class="st2" d="M846.8,213.5c-5,2.3-9.6,5.4-14.6,7.8c-5.4,2.5-11.1,3.6-16.8,5c-0.7,0.2-0.4,1.3,0.3,1.1
		c5.6-1.4,11.2-2.4,16.5-4.9c5.2-2.4,10.2-5.5,14.9-8.7C847.1,213.7,847,213.4,846.8,213.5z"/>
	<path class="st2" d="M840.2,219.6c-7.5,3.7-15.5,8.3-24,8.9c-0.7,0-0.7,1.2,0,1.1c8.8-0.6,16.8-5.3,24.4-9.4
		C840.9,220,840.6,219.4,840.2,219.6z"/>
	<path class="st2" d="M773.5,175.9c0.3-0.3-0.1-0.7-0.4-0.4c-2,1.9-4.2,3.7-6,5.8c-0.4,0.4,0.2,1,0.6,0.6
		C769.6,180,771.5,177.9,773.5,175.9z"/>
	<path class="st2" d="M775.3,175.7c-2.5,2.9-5.2,5.6-7.5,8.7c-0.3,0.5,0.4,1.1,0.8,0.6c2.4-3,4.9-5.8,7.3-8.7
		C776.2,175.9,775.6,175.3,775.3,175.7z"/>
	<path class="st2" d="M775.8,179.3c-2,2.9-4.4,5.7-6.4,8.6c-0.4,0.6,0.5,1.1,0.9,0.6c2-3,4.3-5.7,6.3-8.7
		C776.9,179.3,776.1,178.8,775.8,179.3z"/>
	<path class="st2" d="M778,181.2c-2.1,2.8-4.4,5.4-6.3,8.4c-0.4,0.6,0.5,1.1,0.9,0.6c1.9-2.9,4.1-5.7,6.2-8.5
		C779.1,181.2,778.3,180.7,778,181.2z"/>
	<path class="st2" d="M779,184.2c-2,2.6-4.3,5.1-5.9,7.9c-0.3,0.6,0.6,1.2,0.9,0.6c1.8-2.8,3.8-5.4,5.8-8
		C780.2,184.2,779.4,183.7,779,184.2z"/>
	<path class="st2" d="M780,186.9c-1.5,2.4-3.2,4.6-4.6,7.1c-0.4,0.6,0.6,1.2,1,0.6c1.5-2.4,3.1-4.7,4.6-7.1
		C781.3,186.8,780.4,186.3,780,186.9z"/>
	<path class="st2" d="M782.5,189.3c-1.3,2.1-2.9,4.1-4,6.3c-0.3,0.5,0.5,1,0.8,0.5c1.2-2.2,2.5-4.3,3.5-6.6
		C783,189.2,782.6,189.1,782.5,189.3z"/>
	<path class="st2" d="M783.3,192.2c-1.1,1.9-2.3,3.8-3.1,5.9c-0.2,0.5,0.6,0.8,0.8,0.4c0.9-2,1.9-4,2.9-5.9
		C784,192.1,783.5,191.8,783.3,192.2z"/>
	<path class="st2" d="M784.4,195.3c-0.7,1.5-1.5,3-2.1,4.5c-0.2,0.5,0.7,0.9,0.9,0.4c0.8-1.5,1.3-3,2-4.6
		C785.4,195.2,784.6,194.8,784.4,195.3z"/>
	<path class="st2" d="M786.6,197.7c-0.6,1.2-1.2,2.5-1.4,3.8c-0.1,0.6,0.8,0.7,1,0.2c0.4-1.2,0.8-2.3,1.3-3.4
		C787.8,197.7,787,197.1,786.6,197.7z"/>
	<path class="st2" d="M788.8,199.2c-0.5,0.9-1,2-1.2,3.1c-0.1,0.5,0.6,0.9,0.9,0.4c0.5-0.9,0.7-2,1.1-3
		C789.8,199.2,789.1,198.7,788.8,199.2z"/>
	<path class="st2" d="M790.2,201c-0.3,0.7-1.1,1.7-0.9,2.5c0.1,0.4,0.6,0.4,0.8,0.1s0.3-0.8,0.4-1.2c0.2-0.4,0.3-0.8,0.5-1.2
		C791.1,200.7,790.4,200.5,790.2,201z"/>
	<path class="st2" d="M791.7,203.6c-0.1,0.2-0.1,0.5-0.2,0.7c-0.1,0.2-0.1,0.5,0.2,0.7c0.2,0.1,0.5,0.1,0.7-0.2
		c0.1-0.3,0.2-0.6,0.3-0.9C792.8,203.3,791.9,203.1,791.7,203.6z"/>
	<path class="st2" d="M772.5,174.4c0.5-0.4-0.2-1.2-0.7-0.7c-1.8,1.7-3.3,3.7-5.4,5.1c-0.6,0.4-0.1,1.4,0.6,1
		C769.1,178.2,770.6,176.1,772.5,174.4z"/>
	<path class="st2" d="M766.8,176.2c1.2-0.7,2.1-1.8,2.9-2.8c0.4-0.4-0.2-1-0.6-0.6c-0.9,0.9-1.7,1.9-2.8,2.6
		C765.8,175.7,766.2,176.6,766.8,176.2z"/>
	<path class="st2" d="M766.8,173.3c0.4,0.1,0.8-0.1,1.1-0.3c0.4-0.2,0.7-0.6,1.1-0.9c0.4-0.4-0.2-0.9-0.6-0.6
		c-0.3,0.2-0.5,0.5-0.8,0.7s-0.7,0.3-1,0.5C766.5,172.9,766.6,173.2,766.8,173.3z"/>
	<path class="st2" d="M766.4,171.5c0.3-0.1,0.6-0.2,0.8-0.5c0.4-0.4-0.2-1.1-0.6-0.7c-0.1,0.1-0.3,0.2-0.5,0.3s-0.3,0.3-0.2,0.5
		C765.9,171.4,766.1,171.6,766.4,171.5z"/>
	<path class="st2" d="M875.2,159.9c-0.2-1.8-0.3-3.7-1.1-5.4c-0.1-0.2-0.4-0.1-0.3,0.1c1.2,3.9,1.3,8.5,0.9,12.5c-0.2,2-0.4,4-0.6,6
		c-0.3,2.6-1.3,5.1-1.9,7.6c-0.1,0.3,0.4,0.3,0.4,0.1c0.3-2.6,1.2-5.1,1.8-7.6c0.5-2.2,0.7-4.5,1-6.7
		C875.6,164.3,875.5,162.1,875.2,159.9z"/>
	<path class="st2" d="M872.3,183C872.3,183.1,872.3,183,872.3,183L872.3,183z"/>
	<path class="st2" d="M872.3,183L872.3,183L872.3,183L872.3,183c0-0.1,0-0.2,0-0.2c0-0.1,0-0.1,0-0.2c0-0.2-0.4-0.2-0.4,0l0,0
		c-0.2,0.1-0.3,0.2-0.2,0.4c0,0.2,0.1,0.4,0.4,0.4c0.1,0,0.2-0.1,0.3-0.2C872.3,183.2,872.3,183.1,872.3,183L872.3,183L872.3,183z"
		/>
	<path class="st2" d="M872.3,183L872.3,183L872.3,183z"/>
	<path class="st2" d="M760.5,178.8c-0.9-3.2-1.4-6.6-1.6-9.9c-0.2-3.3,0.4-6.5,1-9.7c0.5-2.8,1.2-5.6,2.7-8.1
		c0.1-0.2-0.2-0.4-0.3-0.2c-3.4,4.9-4.4,12.1-4.4,18c0,3.4,0.8,6.9,1.6,10.2c0.6,2.3,0.8,5.1,2.5,6.9c0.4,0.5,1.1-0.2,0.7-0.7
		C761.2,183.6,761.1,180.9,760.5,178.8z"/>
</g>
<g>
	<path class="st2" d="M1103,55.3c-1-2.9-2.9-4.8-5.9-5c-4.2-0.2-8.4,0-12.6,0c-8.7,0-17.5-0.2-26.2-0.7c-8.7-0.5-17.5-0.2-26.2,0
		c-4.3,0.1-8.6,0.4-12.9,0.6c-3.3,0.1-6.6,0-9.9,0.2c-2.5,0.2-5.5,0.6-7.1,2.9c-1,1.5-0.6,3.7-0.5,5.3c0.2,2.2,0,4.4,0.1,6.7
		c-2.5,0-5,0-7.5,0.1c-8.7,0.1-17.5,0-26.2,0.2c-4.3,0.1-8.6,0.3-13,0.8c-3.8,0.4-7.7,0.8-11.3,2.2c-1.3,0.5-2.3,1-3.1,2.1
		s-1,2.6-1.2,3.9c-0.1,1.4,0,2.8,0.1,4.1c0.1,1.8,0.1,3.6,0.2,5.3c0.3,4.3,0.9,8.5,1.1,12.8c0.2,4.3,0.2,8.5,0.2,12.8
		c0.1,4.3,0.2,8.5,0.1,12.8c0,2-0.1,4.1,0,6.1c0.1,1.7,1,3.2,1.8,4.6c1,1.8,3.2,2.6,5.1,3.1c2.8,0.8,5.6,0.9,8.5,1
		c3.3,0,6.6,0,9.9-0.1c1.6-0.1,3.2-0.2,4.7-0.4c1.3-0.2,2.6-0.6,4-0.7c0.8,3.3,2.3,6.8,5,9c1.4,1.2,2.9,2.2,4.6,3.1
		c1.6,0.8,3.2,1.6,5.1,1.7c0.9,0,1-1.1,0.3-1.5c-1.4-1-2.2-3.2-2.5-4.7c-0.4-2-0.3-4.3,0.2-6.2c0.1-0.4,0.2-0.7,0.4-1.1
		c0.1-0.2,0.4-0.6,0.2-0.6c0.5-0.1,1.3,0.1,1.7,0.1c2.3,0.1,4.6,0,6.9,0c8.8,0,17.6-0.2,26.3-0.8c2.1-0.1,4.2-0.2,6.3-0.4
		c1.7-0.1,3.4-0.3,4.8-1.3c2.2-1.6,2.4-5,2.8-7.4c0.5-3.3,0.3-6.8,0.1-10.1c3.7,0,7.5-0.2,11.2-0.3c3.7-0.1,7.4,0,11.1-0.4
		c0.2,3.5-0.3,7.3-3.5,9.4c-0.8,0.5-0.3,2,0.7,1.7c3.2-1.2,6.8-1.7,9.4-3.9c2.2-1.8,2.2-4.6,2.5-7.2c8-0.3,16,0.4,24.1-0.8
		c2.8-0.4,6.1-0.8,7.3-3.9c0.6-1.6,0.6-3.5,1-5.1c0.5-2,1-3.9,1.2-5.9c1.1-8.5,1.5-17.1,1.6-25.6c0-3,0.2-6,0.2-9.1
		C1104,61.9,1103.9,58.1,1103,55.3z M1034.8,128.5c-0.3,1.4-0.7,2.8-1.8,3.7c-0.7,0.6-2.1,0.7-3,0.8c-1.2,0.1-2.5,0.2-3.7,0.3
		c-4.4,0.3-8.8,0.5-13.2,0.6c-4.4,0.2-8.8,0.2-13.2,0.3c-3.9,0-7.9-0.1-11.9,0c-1.2,0-1.5,1.1-1.8,2.1c-0.5,1.7-0.7,3.2-0.7,5
		c0.1,2.2,0.6,4.9,2.1,6.8c-0.9-0.3-1.8-0.8-2.7-1.3c-1.5-0.7-3-1.7-4.1-2.9c-2.1-2.4-3.6-5.8-4-8.9c-0.1-0.5-0.6-0.8-1-0.8
		c-1.8-0.1-3.6,0.3-5.4,0.6c-2.2,0.4-4.4,0.3-6.6,0.4c-4.1,0-8.2,0.3-12.3-0.2c-1.4-0.2-2.9-0.5-4.3-1c-1.6-0.6-2.3-1.5-3.1-2.9
		c-1-1.9-0.8-3.7-0.8-5.8c0-2.2,0-4.4,0-6.7c0-4.3-0.2-8.5-0.3-12.8s-0.1-8.6-0.5-12.8c-0.4-4.2-0.9-8.4-0.9-12.6
		c0-2.6-0.8-5.7,0.6-8.2c0.7-1.3,2.5-1.7,3.8-2.1c2-0.6,4.1-0.8,6.1-1.1c4.4-0.6,8.8-0.9,13.2-1.1c8.7-0.4,17.5-0.2,26.2-0.3
		c8.8-0.1,17.5-0.3,26.3-0.1c2.1,0,4.2,0.1,6.3,0.2c2.2,0.1,4.5-0.1,6.4,1.1c1.5,1,2.7,2.4,3.1,4.1c0.5,1.9,0.5,3.9,0.6,5.8
		c0.4,4.4,0.8,8.8,1,13.2c0.1,2.1,0.1,4.2,0,6.2c-0.1,2.2-0.7,4.3-0.7,6.6C1034.5,112.5,1036.4,120.6,1034.8,128.5z M1101.8,69.9
		c-0.1,3.8-0.1,7.7-0.2,11.5c-0.2,4.3-0.5,8.6-0.9,12.9c-0.2,2.1-0.3,4.2-0.7,6.3c-0.3,2.1-0.9,4.1-1.4,6.1
		c-0.4,1.7-0.1,3.6-1.7,4.6c-1.4,0.9-3.2,1-4.8,1.2c-4.2,0.6-8.4,0.7-12.6,0.7c-4-0.1-7.9-0.2-11.9,0c-0.4,0-0.9,0.3-1,0.7
		c-0.4,2.4-0.1,5.2-2,7.1c-1.4,1.4-3.5,2.1-5.5,2.6c1.5-2.7,1.5-6,1.7-9.2c0-0.4-0.4-0.7-0.7-0.8c-3.9-0.4-7.9,0-11.8,0.1
		c-3.8,0.1-7.6,0.2-11.3,0.2c0-0.2,0-0.3,0-0.5c-0.2-4.3-0.8-8.5-0.1-12.7c0.7-4.2,0.4-8.6,0.2-12.8c-0.3-4.3-0.7-8.5-1-12.8
		c-0.1-1.5-0.2-3-0.8-4.4c-0.6-1.6-1.8-2.8-3.2-3.8s-3-1.3-4.7-1.4c-2.3-0.1-4.6-0.1-6.8-0.2c-5.7-0.2-11.5-0.2-17.2-0.1
		c0.1-1.7,0.5-3.4,0.3-5.2c-0.2-1.7-0.6-3.9,0-5.6c0.7-2.1,4.6-2.2,6.4-2.3c3.5-0.2,7.1-0.1,10.6-0.3c4.3-0.2,8.6-0.5,12.9-0.6
		c8.7-0.2,17.5-0.4,26.2,0.1c8.7,0.5,17.4,0.7,26.2,0.8c2.1,0,4.2,0,6.3,0c1.9,0,4.1-0.2,5.9,0.2c3.1,0.7,3.5,6.3,3.7,8.8
		C1102.2,64.1,1101.9,67,1101.8,69.9z"/>
	<path class="st2" d="M969.6,96.4L969.6,96.4c-0.4,0.3-0.7,0.5-1,0.8c-0.9,1.1-1.3,2.6-1.1,3.9c0.2,1.6,1.8,2.4,3.2,2.5
		s2.8-0.9,3.4-2.2c0.6-1.5,0.3-3-0.6-4.3C972.4,95.9,970.9,95.3,969.6,96.4z M972.7,101.2c-0.5,0.9-1.4,1.2-2.3,1.1
		c0-0.1-0.1-0.1-0.1-0.2c-0.6-0.6-1.3-0.9-1.4-1.9c0-0.8,0.4-1.7,0.9-2.3c0.2-0.3,0.5-0.6,0.9-0.7c0.2,0,0.4-0.1,0.6-0.1
		c0.5,0.1,1,0.8,1.2,1.2C973.2,99.2,973.2,100.2,972.7,101.2z"/>
	<path class="st2" d="M986.8,96.6c-0.8,0.3-1.3,0.9-1.8,1.6c-0.6,0.7-0.9,1.7-0.5,2.7c0.7,1.7,3.1,2.9,4.8,1.8
		c1.8-1.2,1.8-4,0.4-5.4C989,96.4,987.8,96.2,986.8,96.6z M988.7,101.5c-0.8,0.8-2.1-0.1-2.7-0.7c-0.2-0.3-0.3-0.6-0.3-0.9
		c0.1-0.1,0.2-0.2,0.3-0.3c0.2-0.6,0.7-1.1,1.2-1.4c0.2-0.1,0.5-0.1,0.7-0.1c0.1,0,0.2,0,0.2-0.1c0.3,0.1,0.6,0.2,0.8,0.5
		C989.7,99.2,989.4,100.7,988.7,101.5z"/>
	<path class="st2" d="M1004.8,96.2c-1.2,0.1-2.1,0.9-2.5,1.9c-0.4,0.4-0.7,1-0.7,1.8c0,2.3,2.6,3.9,4.7,3.3c2.4-0.7,2.9-3.8,1.6-5.6
		C1007.1,96.6,1005.9,96.1,1004.8,96.2z M1005.5,102c-1.4,0.3-2.8-1.2-2.6-2.5c0-0.1,0-0.1,0-0.2c0.3,0,0.5-0.2,0.6-0.5
		c0.1-0.1,0.1-0.3,0.2-0.4c0.7-0.4,1.6-0.5,2.2-0.5c0.3,0.2,0.6,0.4,0.8,0.8C1007.6,100,1007,101.7,1005.5,102z"/>
	<path class="st2" d="M939.6,70.4c0.7-1.5,2.3-2,3.7-2.6c1.6-0.6,3.3-0.9,4.9-1.3c3.5-0.7,7.2-0.6,10.7-1c0.6-0.1,0.4-1.1-0.3-1
		c-3.9,0.5-7.8,0.4-11.7,1.2c-1.6,0.3-3.2,0.7-4.7,1.3c-1.1,0.4-2.6,1-3.3,2.1c-1.5,2.5-1.3,5.6-1.3,8.4c0.1,4.1,0.4,8.2,0.7,12.2
		c0,0.3,0.5,0.3,0.5,0c0.2-3.5-0.1-7-0.1-10.5C938.7,76.4,938.3,73.1,939.6,70.4z"/>
	<path class="st2" d="M948.4,64.7c0.7-0.2,0.4-1.2-0.3-1c-3.7,1.1-8.9,1.2-11.1,5c-0.5,0.9-0.7,2-0.9,3c-0.2,1.1-0.5,2.3-0.6,3.4
		c-0.3,2.6,0.5,5.3,0.7,7.9c0,0.3,0.4,0.3,0.5,0c0.1-2.1-0.1-4.2-0.2-6.4c-0.1-2.3,0.5-4.7,1.1-6.9
		C938.7,65.7,945.2,65.6,948.4,64.7z"/>
	<path class="st2" d="M947.4,116.2c1.7-2.5,4-4.7,6-7c0.3-0.4-0.2-1-0.6-0.6c-1.1,1.2-2.2,2.4-3.3,3.5s-2.3,2.2-3,3.5
		C946.2,116.2,947,116.7,947.4,116.2z"/>
	<path class="st2" d="M947.4,119.8c-0.3,0.4,0.4,0.8,0.7,0.4c2.3-2.9,4.5-6.1,7.2-8.7c0.3-0.3-0.2-0.8-0.5-0.5
		c-1.3,1.3-2.4,2.7-3.6,4.1C949.9,116.7,948.6,118.2,947.4,119.8z"/>
	<path class="st2" d="M948,124.7c1.6-1.4,2.8-3.4,4.1-5.1c1.6-2.2,3.5-4.1,5.3-6.2c0.1-0.2-0.1-0.4-0.2-0.2
		c-3.4,3.5-6.5,7.2-9.8,10.8C947,124.5,947.5,125,948,124.7z"/>
	<path class="st2" d="M959.1,116.1c0.3-0.3-0.2-0.9-0.5-0.5c-3.7,4.2-7.5,8.3-11.1,12.6c-0.3,0.4,0.1,1.1,0.6,0.7
		c1-0.6,1.5-1.7,2.2-2.6c1-1.1,1.9-2.2,2.9-3.3C955.2,120.8,957.1,118.4,959.1,116.1z"/>
	<path class="st2" d="M960,119c-2.7,3.8-6.2,7.1-9.2,10.6c-0.4,0.5,0.3,1.1,0.7,0.6C954.4,126.5,957.4,123,960,119L960,119z"/>
	<path class="st2" d="M962.1,121.4c-2.7,3-5.8,5.7-8,9.1c-0.3,0.5,0.4,1,0.8,0.5c2.4-3.2,4.9-6.2,7.4-9.3
		C962.5,121.5,962.2,121.2,962.1,121.4z"/>
	<path class="st2" d="M963,123.4c-1.7,2.7-4.1,4.9-6,7.5c-0.4,0.5,0.5,1.1,0.9,0.5c1.9-2.6,4.1-4.9,5.7-7.7
		C963.8,123.4,963.2,123.1,963,123.4z"/>
	<path class="st2" d="M965.8,125c-1.5,2.1-3.1,4.1-4.8,6.1c-0.5,0.5,0.3,1.2,0.7,0.6c1.5-2.1,3.2-4.2,4.3-6.5
		C966.1,125,965.9,124.9,965.8,125z"/>
	<path class="st2" d="M966.9,127.5c-0.6,1.3-1.4,2.5-2.1,3.7c-0.2,0.4,0.5,0.9,0.7,0.4c0.6-1.3,1.4-2.6,1.8-4
		C967.3,127.4,967,127.3,966.9,127.5z"/>
	<path class="st2" d="M968.7,128.9c-0.3,0.6-0.7,1.1-0.9,1.7c-0.1,0.4,0.5,0.6,0.7,0.2c0.2-0.6,0.5-1.1,0.7-1.6
		C969.4,128.8,968.9,128.5,968.7,128.9z"/>
	<path class="st2" d="M976.9,143.9c-0.7-0.8-1.4-1.8-1.8-2.8c-0.6-1.2-0.7-2.6-1-3.8c-0.1-0.5-0.8-0.3-0.7,0.2
		c0.5,2.2,0.8,4.2,2.2,6c0.7,0.9,1.4,1.7,2.3,2.4c1,0.9,2.3,1.5,3.2,2.4c0.1,0.1,0.4,0,0.3-0.2C980.1,146.5,978.3,145.4,976.9,143.9
		z"/>
	<path class="st2" d="M972.5,137.8c-0.1-0.5-0.7-0.3-0.8,0.1c-0.4,3,1.7,6.5,3.8,8.4c0.2,0.2,0.4-0.1,0.3-0.3
		C973.8,143.8,973,140.8,972.5,137.8z"/>
	<path class="st2" d="M970.3,141.3c-0.3-0.8-0.3-1.7-0.6-2.5c-0.2-0.5-0.9-0.3-0.8,0.2c0.2,1.9,1.1,3.5,2.2,5.1
		c0.2,0.2,0.5,0,0.4-0.2C971,143.1,970.6,142.2,970.3,141.3z"/>
	<path class="st2" d="M1023.9,137.8c1.7-0.1,3.4-0.1,5.2-0.2c1.8-0.1,3.6-0.4,5.4-0.5c0.7,0,0.7-1,0-1c-1.6,0-3.2,0.3-4.8,0.5
		c-1.9,0.2-3.8,0.3-5.7,0.3c-3.4,0.2-7-0.1-10.4,0.5c-0.2,0-0.2,0.4,0,0.4C1017,137.4,1020.5,137.9,1023.9,137.8z"/>
	<path class="st2" d="M1034.8,138c-3,0.3-6,0.7-9,0.7c-1.5,0-3,0-4.5,0c-1.6,0-3.2-0.3-4.8-0.1c-0.3,0-0.3,0.5,0,0.5
		c1.5,0.1,2.9,0.3,4.3,0.5c1.6,0.2,3.3,0.1,4.9,0.2c3.1,0,6.1-0.3,9.1-0.6C1035.5,139,1035.4,137.9,1034.8,138z"/>
	<path class="st2" d="M1032.9,115.4c0.3,2.6,0.7,5.2,0.7,7.8c-0.1,2-0.2,4.5-2,5.6c-2,1.3-5.1,1.3-7.4,1.6c-2.7,0.3-5.2,0.3-7.9,0
		c-0.3,0-0.3,0.4-0.1,0.5c3,0.6,5.9,0.6,8.9,0.3c2.3-0.2,5.4-0.3,7.3-1.8c1.6-1.2,1.8-3.2,2-5c0.3-3.1,0-6.2-0.5-9.2
		C1033.8,114.5,1032.8,114.8,1032.9,115.4z"/>
	<path class="st2" d="M1021.3,128.5c2.6,0.2,5.9,0.5,8.1-1.3c2.4-2,2.5-6.1,2.2-8.9c-0.1-0.8-1.3-0.7-1.1,0.1
		c0.4,2.6,0.3,6.3-1.8,8.1c-1.9,1.7-5.1,1.4-7.4,1.6C1021.1,128.1,1021.1,128.5,1021.3,128.5z"/>
	<path class="st2" d="M1040.1,87.8c2.6-3.5,5.3-6.8,7.7-10.4c0.2-0.3-0.3-0.7-0.5-0.3c-2.5,3.5-5.6,6.6-7.9,10.2
		C1039,87.8,1039.7,88.2,1040.1,87.8z"/>
	<path class="st2" d="M1039.9,92c1.7-1.8,3.2-3.9,4.9-5.8c1.6-1.8,3.2-3.6,4.5-5.6c0.2-0.3-0.2-0.5-0.4-0.3c-2.9,4-6.7,7.2-9.7,11.1
		C1038.9,91.8,1039.6,92.3,1039.9,92z"/>
	<path class="st2" d="M1046.5,86.1c-2,3.3-4.8,6-7.1,9.1c-0.2,0.3,0.3,0.7,0.6,0.4c2.6-2.7,5.1-6,6.9-9.3
		C1047,86.1,1046.7,85.9,1046.5,86.1z"/>
	<path class="st2" d="M1039.7,99.3c2.6-3.3,5.2-6.7,7.3-10.3c0.2-0.4-0.3-0.7-0.6-0.4c-2.2,3.6-5.1,6.7-7.5,10.2
		C1038.6,99.3,1039.4,99.7,1039.7,99.3z"/>
	<path class="st2" d="M1045.4,93.7c-1.9,2.9-4.1,5.5-6,8.4c-0.3,0.4,0.3,0.9,0.6,0.5c2.2-2.7,4.2-5.6,6.1-8.5
		C1046.3,93.7,1045.6,93.3,1045.4,93.7z"/>
	<path class="st2" d="M1046.1,95.7c-2.1,3.8-5.2,6.8-7.8,10.2c-0.3,0.4,0.4,0.9,0.7,0.6c2.8-3.2,5.7-6.6,7.7-10.4
		C1047,95.7,1046.3,95.3,1046.1,95.7z"/>
	<path class="st2" d="M1040.9,107.4c1.9-2.4,3.9-4.9,5.6-7.5c0.3-0.4-0.3-0.7-0.6-0.4c-1.8,2.6-3.8,4.9-5.7,7.4
		C1040,107.4,1040.6,107.8,1040.9,107.4z"/>
	<path class="st2" d="M1046.2,102.9c-2,2.6-4.2,5-6,7.7c-0.3,0.5,0.4,0.9,0.8,0.5c1.9-2.6,3.9-5.2,5.8-7.8
		C1047.2,102.9,1046.5,102.5,1046.2,102.9z"/>
	<path class="st2" d="M1048.4,105.5c-1.5,1.9-3.1,3.7-4.6,5.7c-0.3,0.4,0.4,0.8,0.7,0.4c1.3-2.1,2.9-3.9,4.3-5.8
		C1049,105.5,1048.5,105.2,1048.4,105.5z"/>
	<path class="st2" d="M1049.1,108.3c-0.5,0.8-1.1,1.5-1.4,2.4c-0.2,0.4,0.4,0.7,0.7,0.4c0.6-0.7,0.9-1.6,1.4-2.4
		C1049.9,108.2,1049.3,107.9,1049.1,108.3z"/>
	<path class="st2" d="M1050.9,108.7c-0.3,0.5-0.5,1-0.8,1.5c-0.3,0.5,0.5,1,0.8,0.5c0.3-0.5,0.5-1,0.8-1.5
		C1051.9,108.7,1051.2,108.2,1050.9,108.7z"/>
	<path class="st2" d="M1052.7,109.7c-0.1-0.1-0.4-0.2-0.5,0c0,0,0,0-0.1,0.1s-0.2,0.3-0.2,0.4c0.1,0.2,0.3,0.3,0.5,0.3
		c0.1,0,0.2-0.1,0.2-0.1l0.1-0.1l0,0C1052.8,110.1,1052.8,109.8,1052.7,109.7z"/>
	<path class="st2" d="M1056.1,121.6c0.7-1.4,1.6-3.1,1.1-4.7c-0.2-0.5-0.9-0.3-0.8,0.2c0.4,1.2-0.3,2.5-0.8,3.6s-1.1,2.5-2.4,2.7
		c-0.3,0.1-0.2,0.6,0.1,0.5C1054.6,123.8,1055.4,122.7,1056.1,121.6z"/>
	<path class="st2" d="M1069.7,116.1c-0.1,7.5-8.5,11.2-15,11.6c-0.3,0-0.3,0.5,0,0.5c4,0.1,8-1.2,11.3-3.5c2.9-2,4.5-5.1,4.7-8.6
		C1070.8,115.5,1069.7,115.4,1069.7,116.1z"/>
	<path class="st2" d="M1098.3,94.2c-0.3,0.8-0.2,1.8-0.3,2.7c-0.2,1.3-0.4,2.6-0.7,3.9c-0.4,2.6-0.5,5.4-1.3,8
		c-0.5,1.5-2.4,1.6-3.7,1.8c-1.4,0.3-2.8,0.4-4.2,0.5c-2.8,0.2-5.7,0.1-8.5-0.2c-0.2,0-0.3,0.4-0.1,0.4c2.9,0.7,6.1,0.7,9.1,0.5
		c1.3-0.1,2.6-0.3,3.9-0.5c1-0.2,2.6-0.2,3.4-0.9c0.8-0.7,1.1-1.5,1.3-2.6c0.2-1.5,0.4-3,0.6-4.4c0.2-1.8,0.6-3.6,0.9-5.4
		c0.2-1.1,0.2-2.5,0.6-3.5C1099.6,93.9,1098.6,93.5,1098.3,94.2z"/>
	<path class="st2" d="M1084.4,109.7c3.2,0,7.7,0.2,9.9-2.6c2.5-3.3,2.1-7.4,2.7-11.3c0-0.3-0.3-0.4-0.4-0.1
		c-0.7,3.1-0.8,6.5-2.2,9.4c-0.9,1.8-2.2,2.7-4.2,3.1c-1.9,0.3-3.9,0.4-5.8,0.4C1083.7,108.6,1083.7,109.7,1084.4,109.7z"/>
	<path class="st2" d="M1066.1,48.7c10.4,0.4,20.8,0.2,31.1,1.4c0.8,0.1,0.8-1.1,0-1.2c-10.3-1.1-20.8-1-31.1-0.6
		C1065.9,48.3,1065.9,48.7,1066.1,48.7z"/>
	<path class="st2" d="M1072.1,46.6c8.4,0,16.9,0.6,25.3,1.1c0.8,0.1,0.8-1.2,0-1.2c-4.2-0.2-8.5-0.6-12.7-0.7
		c-4.2-0.1-8.5-0.2-12.6,0.6C1072,46.5,1072,46.6,1072.1,46.6z"/>
	<path class="st2" d="M1077.4,44.7c3.1,0,6.3,0.1,9.4,0.1c1.5,0,3,0,4.4,0.1c1.3,0.1,2.9,0,4.1,0.4c0.7,0.3,1-0.9,0.3-1.1
		c-0.9-0.3-2.1-0.3-3-0.3c-1.6,0-3.2-0.1-4.8-0.1c-3.5,0-7,0.1-10.5,0.2C1077,44.1,1077,44.7,1077.4,44.7z"/>
	<path class="st2" d="M1017.2,63.8c-4,0.1-8,0-11.9,0.3V64c-0.2-0.9,0.2-1.9,0.2-2.8c0.1-1.3-0.1-2.7-0.2-4c0-0.2-0.3-0.2-0.3,0
		c-0.2,1.3-0.3,2.7-0.4,4c-0.1,1-0.5,2-0.3,3c0.1,0.4,0.6,0.4,0.8,0.2c4,0.3,8,0.2,12,0.3C1017.7,64.7,1017.7,63.8,1017.2,63.8z"/>
	<path class="st2" d="M1007.1,62.7c0.3,0.2,0.7,0.1,1.1,0.1c0.7-0.1,1.4,0,2.1,0c1.6,0,3.2-0.2,4.8-0.2c0.2,0,0.2-0.3,0-0.3
		c-2.2,0-4.4-0.3-6.6-0.3c-0.3,0-0.9,0.2-0.9-0.4c0-0.4,0.1-0.8,0.1-1.2c0.1-1,0.1-2.1,0.1-3.1c0-0.6-0.9-0.6-0.9,0
		c0,1.2,0,2.4-0.1,3.7C1006.7,61.4,1006.6,62.4,1007.1,62.7z"/>
</g>
<g>
	<path class="st2" d="M1325.7,89.4c-0.8-6-8.1-8-13.4-9.4c-1.1-0.3-2.1-0.6-3-0.9c-5.2-1.7-9.9-2.9-14.3-3.6
		c-0.6-0.1-1.1-0.2-1.7-0.3c-1.6-0.3-3.3-0.6-5-0.8c-0.6-0.1-1.3-0.1-2.1,0c-0.4,0-0.8,0-1.1,0c-0.5,0-0.9,0-1.2-0.1
		c-0.1-0.1-0.1-0.2-0.2-0.3c-1.8-2.2-3.1-5-4.3-7.7c-0.5-1.1-1-2.2-1.5-3.3c-0.8-1.6-1.7-3.2-2.5-4.8c-1.1-2-2.1-4-3.1-6.1
		c-2.9-6.1-7.2-13.1-14.2-13.4c-0.3,0-0.6,0-1,0c-2.4,0-6.9,0.4-9.9,3.1c-2.9,2.6-4.7,6-6.5,9.3c-0.3,0.5-0.5,1-0.8,1.5
		c-1.1,2-2.4,3.8-3.7,5.6l-0.3,0.4c-1.1,1.5-1.9,3.1-2.6,4.7c-0.4,0.8-0.8,1.6-1.2,2.3c-0.4,0.7-0.8,1.4-1.2,2
		c-1.3,2.2-2.5,4.4-3.3,6.8c-0.1,0-0.1,0-0.2,0h-0.1c-2.7,0.1-5.5,0.6-8.2,1c-1.7,0.3-3.5,0.6-5.2,0.8c-4,0.4-8,1.5-11.8,2.5
		l-2.3,0.6c-6.1,1.5-14.4,3.6-16.9,10.2c-1.5,3.9,0.5,7.7,2.2,10.1c1.2,1.8,2.6,3.6,3.9,5.3c1.5,1.9,3,3.8,4.3,5.9
		c1.9,2.9,4.5,5.3,6.9,7.7c0.5,0.5,1,0.9,1.4,1.4l0.9,0.9c2.4,2.3,4.8,4.7,7.6,6.5c-0.5,4.2-1.1,8.5-1.7,12.7
		c-0.6,4.4-1.2,8.9-1.8,13.4l-0.1,0.6c-0.8,6.8-1.7,14.6,5.2,19.1c2.2,1.5,4.8,2.2,7.7,2.2c5.1,0,10.4-2.3,14.4-4.3
		c3.3-1.6,6.5-3.6,9.6-5.4c0.7-0.4,1.4-0.8,2-1.2l0.2-0.1c1.7-1,3.5-2.1,5.3-3l0.1-0.1c1.4-0.7,2.2-1.1,3-1.1c0.6,0,1.3,0.2,2.3,0.8
		c6.2,3.7,13,7,21.6,10.4c0.7,0.3,1.4,0.6,2.2,0.9c3.6,1.5,7.8,3.2,11.8,3.2l0,0c2.4,0,4.5-0.6,6.3-1.8c7.3-4.7,5.8-12.7,4.4-19.7
		v-0.1c-0.6-3.1-1-6.3-1.3-9.5c-0.1-1.1-0.2-2.2-0.4-3.2c-0.1-1-0.3-2-0.4-3c-0.2-1.5-0.4-3-0.6-4.5c-0.1-0.9-0.1-1.8-0.1-2.7
		c0-1.1,0-2.3-0.2-3.5c0-0.1,0-0.2-0.1-0.4c3-2.6,5.6-5.7,8-8.5c1.5-1.8,3.1-3.6,4.6-5.4c1.4-1.6,2.8-3.2,4.2-4.9
		c0.8-0.9,1.7-1.9,2.5-2.7c1.9-2.1,3.9-4.2,5.3-6.8C1325.9,96.3,1326.3,93.3,1325.7,89.4z M1319.8,99.5c-0.8,1.1-1.8,2.1-2.8,3.1
		c-0.3,0.3-0.6,0.6-0.9,0.9c-0.7,0.7-1.3,1.5-1.9,2.2c-0.6,0.8-1.2,1.6-1.9,2.2c-2.7,2.7-5.1,5.8-7.4,8.8c-2.6,3.4-5.3,6.8-8.4,9.7
		c-0.4,0.4-0.5,0.8-0.3,1.3c0,0.1,0,0.2,0,0.4c0.3,1.7,0.4,3.4,0.5,5.2c0.1,1.7,0.2,3.4,0.5,5.2c0.4,2.7,0.7,5.5,0.9,8.3
		c0.1,1.4,0.3,2.9,0.4,4.3c0.1,1.1,0.3,2.4,0.5,3.7c1.1,6.7,2.4,14.4-5,16.2c-0.8,0.2-1.7,0.3-2.6,0.3c-3.9,0-7.9-1.8-11.8-3.6
		c-1.7-0.8-3.2-1.5-4.8-2c-2.2-0.8-4.4-1.9-6.5-3c-1.2-0.6-2.5-1.3-3.7-1.9c-1.4-0.7-2.8-1.5-4.1-2.3c-1.5-1-3.1-2-4.9-2.7
		c-0.4-0.2-0.8-0.3-1.3-0.3c-1.5,0-3,0.8-4.2,1.5c-0.3,0.2-0.7,0.4-1,0.5c-2.5,1.2-4.9,2.7-7.3,4.2c-1,0.6-2,1.3-3.1,1.9l-1.1,0.6
		c-5.4,3.3-11.6,7-17.8,7c-1.4,0-2.7-0.2-3.9-0.5c-7.4-2.2-6.2-10.5-5.2-17.3c0.1-0.7,0.2-1.4,0.3-2.1c0.1-1,0.3-2,0.4-3
		c0.4-3.1,0.8-6.4,1.1-9.6c0.1-0.8,0.1-1.5,0.2-2.3c0.3-2.6,0.5-5.3,0.5-7.9c0.4-0.2,0.7-0.5,0.9-0.9c0.2-0.6,0-1.2-0.6-1.6
		c-2.4-1.7-4.4-3.9-6.4-6.1c-0.4-0.5-0.8-0.9-1.3-1.4c-1-1.1-2.1-2.2-3.1-3.2c-1.5-1.5-3-3-4.4-4.6c-1.2-1.5-2.3-3.1-3.4-4.8
		c-0.8-1.3-1.7-2.6-2.6-3.8c-0.5-0.6-1-1.3-1.6-1.9c-2.3-2.7-4.9-5.7-4.2-8.8c1.3-5.3,9.5-7.1,15-8.4c0.8-0.2,1.6-0.4,2.2-0.5
		c4.5-1.1,8.3-2,12.3-2.4c1.6-0.2,3.2-0.4,4.7-0.7c2.1-0.4,4.3-0.7,6.5-0.8c0.1,0,0.1,0,0.2,0c0.3,0.3,0.6,0.4,1.1,0.4
		c0.8,0,1.5-0.6,1.6-1.4c0.3-2.8,2.2-5.7,3.9-8.3c0.6-0.9,1.1-1.8,1.6-2.6c0.5-0.8,0.9-1.7,1.3-2.5c0.4-0.9,0.9-1.8,1.4-2.6
		c0.6-1,1.4-2.1,2.1-3.1c0.7-0.9,1.4-1.9,2-2.9c0.7-1.1,1.3-2.2,1.9-3.3c1.2-2.3,2.4-4.5,4.1-6.4c1.7-2,4.5-3.1,7.5-3.1
		c1.2,0,2.3,0.2,3.3,0.5c4.7,1.6,7.2,7.5,9.3,12.2c0.3,0.7,0.6,1.4,0.9,2.1c0.8,1.7,1.6,3.3,2.5,4.9c0.9,1.8,1.9,3.6,2.7,5.4
		c1.5,3.4,3.1,6.9,5.5,9.4c0.3,0.4,0.7,0.6,1.2,0.7c0.2,0.1,0.4,0.2,0.6,0.3c0.8,0.3,1.5,0.4,2.1,0.4c0.3,0,0.6,0,0.9,0
		c2-0.1,4.1,0.3,5.8,0.5c3.8,0.6,7.8,1.4,11.8,2.4c1.8,0.5,3.7,1.1,5.5,1.6c1.8,0.6,3.6,1.1,5.4,1.6c0.3,0.1,0.6,0.2,0.9,0.2
		c3,0.8,6.4,1.7,7.4,4.4C1323.3,93.2,1321.5,97,1319.8,99.5z"/>
	<path class="st2" d="M1230.9,80c0.1,0,0.1-0.1,0.2-0.2c0.5-1.4,1.2-2.5,2-3.8s1.2-2.7,1.7-4.1c0.1-0.2-0.3-0.4-0.4-0.2
		c-0.7,1.5-1.3,3-2.2,4.4c-0.6,1-1.2,2-1.6,3.1h-0.1c-5.6,0.5-11,2.2-16.4,3.4c-0.4,0.1-0.3,0.7,0.2,0.7c5.5-0.8,10.7-2.3,16.2-2.8
		C1230.6,80.4,1230.8,80.2,1230.9,80z"/>
	<path class="st2" d="M1235.2,73.6c-0.5,1.4-1.6,2.6-2.2,3.9c-0.6,1.2-1.2,2.4-1.8,3.6c-0.1-0.1-0.3-0.1-0.5,0
		c-3.7,1.3-7.5,1.6-11.3,2.4c-0.4,0.1-0.3,0.7,0.2,0.6c3.8-0.6,7.8-0.5,11.5-1.8c0.2-0.1,0.3-0.2,0.4-0.4c0.1,0,0.2,0,0.3-0.2
		c0.8-1.4,1.5-2.9,2.1-4.4c0.6-1.2,1.4-2.4,1.7-3.7C1235.6,73.5,1235.3,73.4,1235.2,73.6z"/>
	<path class="st2" d="M1242.9,46.3c3.4-8.4,14.3-9.7,21.5-6.1c0.5,0.3,1-0.5,0.5-0.8C1257,35.5,1246.2,37.2,1242.9,46.3
		C1242.7,46.3,1242.8,46.4,1242.9,46.3z"/>
	<path class="st2" d="M1246.4,39.9c4.1-3.6,9.5-3.7,14.5-2.1c0.5,0.2,0.7-0.6,0.2-0.8c-5.1-1.8-11.1-1.5-15,2.6
		C1246,39.8,1246.3,40.1,1246.4,39.9z"/>
	<path class="st2" d="M1249.5,36.3c1.2-0.3,2.3-0.8,3.6-0.9c1.4-0.1,2.8-0.1,4.1,0.2c0.5,0.1,0.7-0.7,0.2-0.8
		c-1.4-0.3-2.9-0.2-4.3,0c-1.4,0.1-2.5,0.7-3.7,1.3C1249.2,36.1,1249.3,36.3,1249.5,36.3z"/>
	<path class="st2" d="M1224.2,104.8c-1.3,1.1-2.7,2-4,3.1c-0.2,0.2,0.1,0.5,0.3,0.4c1.4-0.9,2.8-2,4.1-3.1
		C1224.8,104.9,1224.4,104.6,1224.2,104.8z"/>
	<path class="st2" d="M1225.5,105.6c-1.5,1.7-3.5,3-5.2,4.6c-0.2,0.2,0.1,0.6,0.4,0.4c1.7-1.6,3.6-2.9,5.1-4.7
		C1225.9,105.7,1225.7,105.4,1225.5,105.6z"/>
	<path class="st2" d="M1218.1,115.6c2.4-2.5,5.1-4.7,7.2-7.5c0.1-0.1-0.1-0.2-0.2-0.1c-2.2,2.7-5,4.8-7.4,7.2
		C1217.5,115.5,1217.9,115.9,1218.1,115.6z"/>
	<path class="st2" d="M1227.3,109c-1.3,2-3.2,3.3-4.9,4.9c-1.7,1.5-3.5,3-5.1,4.7c-0.2,0.2,0.1,0.6,0.4,0.4c1.8-1.7,3.6-3.5,5.4-5.2
		c1.6-1.5,3.2-2.8,4.4-4.6C1227.6,109,1227.4,108.9,1227.3,109z"/>
	<path class="st2" d="M1227,113.7c0.3-0.3-0.1-0.7-0.4-0.4c-3.5,3.4-7,6.8-10.4,10.3c-0.3,0.3,0.2,0.8,0.5,0.5
		C1220.3,120.7,1223.6,117.1,1227,113.7z"/>
	<path class="st2" d="M1227.3,116.2c-2.6,3.5-6.5,6.1-9.4,9.4c-0.3,0.3,0.1,0.7,0.4,0.4c1.9-1.8,3.7-3.7,5.6-5.6
		c1.2-1.1,2.9-2.5,3.7-4.1C1227.7,116.2,1227.4,116,1227.3,116.2z"/>
	<path class="st2" d="M1218,130.6c3.2-3.4,6.7-6.7,9.6-10.4c0.2-0.3-0.2-0.5-0.4-0.3c-2.9,3.6-6.4,6.8-9.6,10.2
		C1217.2,130.4,1217.7,130.9,1218,130.6z"/>
	<path class="st2" d="M1216.6,136c3.3-4.7,8.1-8.4,11.8-12.8c0.2-0.2-0.1-0.6-0.3-0.3c-3.8,4.3-8.9,7.9-12.1,12.7
		C1215.7,136,1216.3,136.4,1216.6,136z"/>
	<path class="st2" d="M1230,125.3c-3.7,5.6-9.5,9.6-13.9,14.6c-0.4,0.4,0.2,1,0.6,0.6c2.5-2.7,5.1-5.4,7.7-8c2.2-2.2,4.4-4.3,5.9-7
		C1230.3,125.3,1230.1,125.2,1230,125.3z"/>
	<path class="st2" d="M1229,130.5c-2,2.6-4.3,4.8-6.7,7.1c-2.2,2.1-4.1,4.5-6.1,6.8c-0.3,0.4,0.2,0.9,0.5,0.5
		c2.3-2.4,4.3-5.2,6.7-7.6c2.1-2.1,4.2-4.2,5.9-6.7C1229.5,130.4,1229.2,130.3,1229,130.5z"/>
	<path class="st2" d="M1227.7,134.8c-3.9,5.1-8.5,9.5-12.4,14.6c-0.3,0.4,0.3,0.9,0.6,0.5c4-5,8.5-9.6,12.4-14.8
		C1228.5,134.8,1228,134.5,1227.7,134.8z"/>
	<path class="st2" d="M1215.2,154.8c3.9-4.6,8.2-9,11.8-14c0.2-0.3-0.3-0.7-0.5-0.3c-3.5,4.9-7.9,9.1-11.8,13.7
		C1214.3,154.6,1214.9,155.2,1215.2,154.8z"/>
	<path class="st2" d="M1224.5,145.7c-2.8,4.4-6.5,8.1-9.4,12.4c-0.3,0.4,0.4,0.8,0.7,0.4c3-4.2,6.5-8.1,9.2-12.5
		C1225.2,145.7,1224.7,145.4,1224.5,145.7z"/>
	<path class="st2" d="M1224.7,149.5c-2.6,4.8-6.7,8.6-9.6,13.1c-0.3,0.4,0.4,0.8,0.7,0.4c3.1-4.4,7.1-8.4,9.6-13.2
		C1225.4,149.4,1224.9,149.1,1224.7,149.5z"/>
	<path class="st2" d="M1224.7,154.3c-2.4,3.9-5.5,7.5-8.1,11.3c-0.3,0.4,0.4,0.8,0.7,0.4c1.6-1.9,2.8-4.1,4.4-6.1
		c1.4-1.7,2.6-3.4,3.7-5.2C1225.6,154.3,1225,153.9,1224.7,154.3z"/>
	<path class="st2" d="M1224.5,161.4c-1.6,2.1-3,4.2-4.4,6.4c-0.2,0.3,0.3,0.7,0.5,0.4c0.7-0.9,1.2-2,1.8-2.9
		c0.8-1.2,1.7-2.4,2.5-3.6C1225.2,161.4,1224.7,161.1,1224.5,161.4z"/>
	<path class="st2" d="M1227.4,164.1c-0.5,0.6-0.9,1.2-1.2,1.9c-0.2,0.4,0.4,0.7,0.6,0.2c0.3-0.7,0.5-1.3,1-1.9
		C1227.8,164.2,1227.5,164,1227.4,164.1z"/>
	<path class="st2" d="M1260.4,163.9c-1.8-1-3.7-1.7-5.4-2.9c0,0,0,0-0.1,0c-0.1-0.2-0.2-0.3-0.4-0.2c-1.6,0.6-3.1,1.9-4.6,2.7
		c-2.4,1.3-4.7,2.9-6.9,4.4c-0.1,0.1,0,0.3,0.1,0.2c2.1-1.3,4.2-2.6,6.4-3.7c1.7-0.9,3.4-2,5.1-2.9c0,0,0,0,0.1,0.1
		c1.3,1,2.8,1.6,4.3,2.3c1.6,0.7,3.7,1.5,5,2.7c0.2,0.2,0.6-0.1,0.3-0.3C1263.2,165.2,1261.7,164.6,1260.4,163.9z"/>
	<path class="st2" d="M1254.4,163.4L1254.4,163.4c-0.1-0.1-0.2-0.2-0.4-0.1c-2.6,1-4.4,3.3-7,4.5c-0.3,0.1,0,0.5,0.2,0.4
		c2.5-1,4.2-3.2,6.7-4.2c1.9,1.5,4.4,2.3,6.3,3.8c0.1,0.1,0.3-0.1,0.2-0.2C1258.7,165.8,1256.4,164.9,1254.4,163.4z"/>
	<path class="st2" d="M1250.3,169.4c1.3-1,2.6-2,3.9-2.9c0.5,0.4,1,0.9,1.6,1.3c0.4,0.4,0.9,0.7,1.5,0.8c0.2,0,0.4-0.3,0.2-0.4
		c-1.1-0.5-1.7-1.6-2.7-2.2c0-0.2-0.2-0.5-0.4-0.3c-1.5,1-2.8,2.2-4.2,3.4C1249.9,169.2,1250.1,169.5,1250.3,169.4z"/>
	<path class="st2" d="M1202.6,123.4c1.9,1.7,4.1,2.9,6.1,4.5c0.5,0.4,1.1-0.3,0.6-0.7c-2-1.5-4.2-2.8-6.1-4.4
		c-1.8-1.5-3.4-3.4-5-5.2c-1.6-1.8-3.1-3.7-4.6-5.6c-1.6-2-3.5-3.9-4.7-6.2c-0.1-0.2-0.5,0-0.4,0.2c2,4.1,5.6,7.9,8.5,11.3
		C1198.7,119.5,1200.5,121.6,1202.6,123.4z"/>
	<path class="st2" d="M1208.5,130.2c0.5,0.4,1-0.5,0.5-0.8c-2.8-1.9-5.4-4.1-8-6.2c-2.2-1.8-5.3-3.8-6.7-6.3c-0.1-0.3-0.5,0-0.4,0.2
		c1.4,2.6,4.3,4.7,6.5,6.7C1203,126,1205.6,128.2,1208.5,130.2z"/>
	<path class="st2" d="M1208.1,132.4c0.5,0.3,1-0.5,0.5-0.8c-1.9-1.2-3.7-2.2-5.4-3.7c-1.6-1.4-3.7-3-4.9-4.7c-0.2-0.2-0.5,0-0.4,0.2
		c1,1.7,2.8,3.2,4.2,4.5C1203.9,129.8,1205.9,131.2,1208.1,132.4z"/>
	<path class="st2" d="M1207.5,133.3c-1.1-0.7-2.3-1.3-3.4-2.1c-1.2-0.9-2.4-1.9-3.7-2.7c-0.2-0.1-0.4,0.2-0.2,0.3
		c1.2,0.9,2.2,2,3.4,3c1.1,0.9,2.2,1.6,3.4,2.3C1207.5,134.4,1208,133.6,1207.5,133.3z"/>
	<path class="st2" d="M1316.1,86.4c-0.6-0.2-0.8,0.6-0.3,0.9c2.8,1.2,4.9,3.7,4.3,6.9c-0.5,2.4-3,5-4.4,6.9
		c-2.9,4.2-7.2,7.1-9.9,11.5c-0.2,0.3,0.3,0.5,0.4,0.3c2.1-3.2,5-5.6,7.6-8.3c2.3-2.4,3.9-5.2,5.9-7.8
		C1322.7,92.8,1320.4,88,1316.1,86.4z"/>
	<path class="st2" d="M1308,106.8c3.2-2.2,6.1-5.9,8.2-9.2c1.8-2.8,2.2-6.9-0.9-8.9c-0.5-0.3-1,0.5-0.5,0.8
		c4.4,2.9,0.7,8.1-1.6,10.9c-1.7,2-3.3,4.4-5.4,6C1307.5,106.6,1307.7,107,1308,106.8z"/>
	<path class="st2" d="M1311.1,101.3c0.4-0.9,1.2-1.5,1.8-2.3c0.6-0.8,1-1.8,1.4-2.7c0.7-1.6,0.7-2.9-0.4-4.3
		c-0.3-0.4-0.9,0.1-0.6,0.5c1.3,1.9,0.4,3.9-0.7,5.7c-0.6,1.1-1.5,1.8-2,2.9C1310.5,101.4,1311,101.6,1311.1,101.3z"/>
	<path class="st2" d="M1303.9,150.4c0-0.1-0.2-0.2-0.2,0c-0.2,4.1,1.4,8,1.3,12.1c0,4.8-3.5,11.4-8.4,12.7c-0.5,0.1-0.3,0.9,0.2,0.7
		c3.8-1,6.7-5.1,8.2-8.6C1307.4,161.9,1304.4,156,1303.9,150.4z"/>
	<path class="st2" d="M1307.2,158.4c-0.3,5.3,0.3,12.2-4.4,16c-0.4,0.3,0.2,0.9,0.6,0.6c4.7-3.8,4.5-11.2,4.1-16.6
		C1307.5,158.1,1307.2,158.1,1307.2,158.4z"/>
	<path class="st2" d="M1294.9,142.3c0.7,4.1,1.5,8.2,1.8,12.3c0.2,2.7,0.3,5.7,1.4,8.3c0.2,0.4,0.8,0.1,0.6-0.3
		c-1-2.9-0.9-6.1-1.3-9.1c-0.6-3.8-1.4-7.5-2.2-11.3C1295.2,142,1294.9,142.1,1294.9,142.3z"/>
	<path class="st2" d="M1294.6,152.2c-0.1-0.3-0.5-0.2-0.5,0.1c0.5,3.5,0.9,7.1,1.2,10.6c0.1,1.3,0.1,2.9,0.9,4
		c0.2,0.2,0.6,0,0.5-0.3c-0.8-2.2-0.8-4.6-1-6.9C1295.4,157.1,1295.1,154.7,1294.6,152.2z"/>
	<path class="st2" d="M1292.9,158.2c0-0.3-0.5-0.4-0.5,0c0,1.5,0.2,2.9,0.5,4.3c0.4,1.9,0.4,3.8,0.7,5.8c0.1,0.5,0.7,0.3,0.7-0.2
		c-0.2-1.4-0.3-2.9-0.5-4.3C1293.4,161.8,1292.9,160.1,1292.9,158.2z"/>
	<path class="st2" d="M1290.7,161.4c-0.1-0.4-0.6-0.2-0.6,0.1c0.2,1.1,0.3,2.3,0.5,3.4c0.2,1,0.2,2.1,0.6,3.1
		c0.2,0.4,0.8,0.3,0.7-0.2C1291.4,165.8,1291.1,163.6,1290.7,161.4z"/>
	<path class="st2" d="M1269,57c0-0.3-0.5-0.3-0.5,0c-0.1,1.7-1.3,3.4-2.1,4.9c-0.9,1.9-2,3.7-3,5.6c-0.2,0.4,0.4,0.7,0.5,0.3
		c1.2-2.4,2.5-4.6,3.6-7C1268.2,59.5,1269,58.4,1269,57z"/>
	<path class="st2" d="M1269.5,61.1c-1.2,3-2.8,5.7-4.2,8.6c-0.2,0.4,0.4,0.7,0.6,0.3c1.6-2.9,3.1-5.8,4.3-8.8
		C1270.2,60.9,1269.6,60.8,1269.5,61.1z"/>
	<path class="st2" d="M1270,64.1c-1.2,3-2.7,5.8-4.1,8.6c-0.2,0.4,0.4,0.7,0.6,0.4c1.5-2.8,2.9-5.8,4-8.8
		C1270.5,64,1270.1,63.9,1270,64.1z"/>
	<path class="st2" d="M1270.1,68c-0.8,2.2-1.7,4.3-2.9,6.3c-0.2,0.4,0.3,0.7,0.5,0.3c1.3-2,2.1-4.3,2.8-6.5
		C1270.7,67.8,1270.2,67.7,1270.1,68z"/>
	<path class="st2" d="M1270.3,71.8c-0.3,0.8-0.6,1.5-0.8,2.3c-0.1,0.4,0.5,0.6,0.6,0.2c0.2-0.8,0.5-1.5,0.8-2.3
		C1271.1,71.6,1270.5,71.4,1270.3,71.8z"/>
	<path class="st2" d="M1272.1,72.8c-0.6,1.3-1.2,2.7-1.6,4.1c-0.1,0.4,0.4,0.6,0.6,0.3c0.7-1.3,1-2.8,1.6-4.1
		C1272.8,72.7,1272.2,72.5,1272.1,72.8z"/>
	<path class="st2" d="M1272.8,75.2c-0.2,0.5-0.4,1-0.7,1.4c-0.2,0.3,0.3,0.7,0.5,0.3c0.3-0.5,0.5-1,0.7-1.6
		C1273.5,75,1273,74.8,1272.8,75.2z"/>
	<path class="st2" d="M1273.7,76.6c-0.1,0.3-0.3,0.7-0.4,1c-0.2,0.5,0.6,0.7,0.7,0.2c0.1-0.3,0.3-0.7,0.4-1
		C1274.7,76.4,1273.9,76.2,1273.7,76.6z"/>
	<path class="st2" d="M1250.5,177.1c-1.9,16-10.9,29-22.8,39.4c-0.7,0.6,0.3,1.6,1,1c13.6-10.4,23.1-23.1,25.4-40.4
		C1254.4,174.9,1250.7,174.8,1250.5,177.1z"/>
	<path class="st2" d="M1248.7,177.3c0.4-2-2.7-2.9-3.1-0.9c-2.9,14-12.3,23.5-24.1,30.8c-0.7,0.4-0.1,1.3,0.6,1
		C1235.1,202.2,1246,192,1248.7,177.3z"/>
	<path class="st2" d="M1255.2,177.2c0,11.6,1.8,28-6,37.7c-0.2,0.3,0.2,0.8,0.4,0.5c9.2-10.6,9.4-24.7,9.4-38.1
		C1259,174.8,1255.2,174.8,1255.2,177.2z"/>
</g>
<g>
	<path class="st2" d="M1443.1,45.9c0.3-1.9-1.7-3.2-3.2-4.1c-0.3-0.2-0.6-0.4-0.8-0.5c-1.4-1-2.7-1.8-4-2.4
		c-0.2-0.1-0.3-0.2-0.5-0.2c-0.5-0.2-1-0.5-1.5-0.7c-0.2-0.1-0.4-0.1-0.6-0.2c-0.1,0-0.2-0.1-0.3-0.1c-0.2,0-0.3-0.1-0.4-0.1v-0.1
		c-0.4-0.8-0.5-1.8-0.6-2.7c0-0.4-0.1-0.8-0.2-1.2c-0.1-0.6-0.2-1.1-0.3-1.7c-0.1-0.7-0.3-1.4-0.4-2.1c-0.3-2.1-1-4.7-3.1-5.4
		c-0.1,0-0.2-0.1-0.3-0.1c-0.7-0.2-2.1-0.5-3.3,0c-1.1,0.5-2,1.4-2.8,2.2c-0.1,0.1-0.3,0.2-0.4,0.4c-0.5,0.5-1.1,0.9-1.7,1.4
		l-0.1,0.1c-0.5,0.3-0.9,0.8-1.2,1.2c-0.2,0.2-0.4,0.4-0.6,0.6s-0.4,0.3-0.5,0.5c-0.6,0.5-1.2,1.1-1.6,1.8c0,0,0,0-0.1,0l0,0
		c-0.8-0.2-1.7-0.3-2.6-0.5c-0.5-0.1-1.1-0.2-1.7-0.3c-1.3-0.2-2.6-0.3-3.8-0.4h-0.7c-2-0.1-4.7-0.3-6.1,1.5
		c-0.8,1.1-0.6,2.4-0.3,3.3c0.2,0.7,0.5,1.3,0.7,2c0.3,0.7,0.5,1.4,0.8,2.2c0.3,1.1,0.8,2,1.4,3c0.1,0.2,0.2,0.4,0.3,0.6l0.2,0.4
		c0.5,0.9,1,1.9,1.7,2.7c-0.6,1.2-1.1,2.5-1.7,3.7c-0.6,1.3-1.2,2.6-1.8,3.9l-0.1,0.2c-0.9,2-1.9,4.3-0.2,6.3
		c0.5,0.7,1.3,1.1,2.1,1.4c1.5,0.5,3.4,0.3,4.8,0c1.2-0.2,2.3-0.5,3.4-0.7c0.2-0.1,0.5-0.1,0.7-0.2h0.1c0.6-0.1,1.2-0.3,1.9-0.4l0,0
		c0.5-0.1,0.8-0.1,1-0.1c0.2,0.1,0.4,0.2,0.6,0.5c1.5,1.7,3.3,3.4,5.6,5.2c0.2,0.1,0.4,0.3,0.6,0.5c1,0.8,2.1,1.7,3.3,2.1l0,0
		c0.7,0.2,1.4,0.2,2.1,0.1c2.7-0.7,2.9-3.3,3.2-5.5l0,0c0.1-1,0.3-2,0.5-3c0.1-0.3,0.1-0.7,0.2-1s0.1-0.6,0.2-0.9
		c0.1-0.5,0.2-0.9,0.3-1.4c0.1-0.3,0.1-0.6,0.2-0.8c0.1-0.3,0.2-0.7,0.3-1.1v-0.1c1.2-0.5,2.3-1.2,3.2-1.8c0.6-0.4,1.3-0.8,1.9-1.2
		c0.6-0.3,1.2-0.7,1.7-1.1c0.3-0.2,0.7-0.4,1-0.6c0.8-0.4,1.6-0.9,2.2-1.6C1442.5,48,1442.9,47.1,1443.1,45.9z M1430.7,54.4
		c-0.1,0.1-0.2,0.2-0.2,0.4v0.1c-0.1,0.5-0.2,1.1-0.3,1.6c-0.1,0.5-0.3,1.1-0.3,1.6c-0.1,0.9-0.3,1.7-0.5,2.6
		c-0.1,0.4-0.2,0.9-0.3,1.4c-0.1,0.4-0.1,0.7-0.2,1.2c-0.3,2.1-0.6,4.6-3,4.4c-0.3,0-0.5-0.1-0.8-0.2c-1.2-0.4-2.2-1.3-3.2-2.2
		c-0.4-0.4-0.8-0.8-1.3-1.1c-0.6-0.5-1.1-1-1.7-1.5c-0.3-0.3-0.6-0.6-1-0.9c-0.4-0.3-0.7-0.7-1-1.1c-0.4-0.4-0.8-0.9-1.2-1.3
		c-0.1-0.1-0.2-0.2-0.4-0.2c-0.4-0.1-1,0-1.4,0.1c-0.1,0-0.2,0-0.3,0.1c-0.9,0.1-1.8,0.4-2.6,0.6c-0.4,0.1-0.7,0.2-1.1,0.3l-0.4,0.1
		c-2,0.5-4.2,1-6.1,0.4c-0.4-0.1-0.8-0.3-1.1-0.5c-2-1.3-0.9-3.8,0-5.7c0.1-0.2,0.2-0.4,0.3-0.6c0.1-0.3,0.3-0.6,0.4-0.9
		c0.4-0.9,0.9-1.9,1.2-2.8c0.1-0.2,0.2-0.5,0.3-0.7c0.3-0.8,0.7-1.6,0.9-2.4c0.1,0,0.3-0.1,0.4-0.2c0.1-0.2,0.1-0.4,0-0.5
		c-0.6-0.7-1-1.6-1.4-2.4c-0.1-0.2-0.2-0.4-0.3-0.5c-0.2-0.4-0.4-0.8-0.6-1.3c-0.3-0.6-0.6-1.2-0.9-1.8c-0.2-0.6-0.4-1.2-0.6-1.8
		c-0.1-0.5-0.3-0.9-0.4-1.4c-0.1-0.2-0.2-0.5-0.3-0.7c-0.4-1-1-2.2-0.4-3.1c0.9-1.5,3.6-1.3,5.3-1.1c0.3,0,0.5,0,0.7,0.1
		c1.5,0.1,2.7,0.2,3.9,0.4c0.5,0.1,1,0.2,1.5,0.2c0.7,0.1,1.4,0.2,2,0.4c0,0,0,0,0.1,0c0.1,0.1,0.2,0.2,0.3,0.2
		c0.3,0.1,0.5,0,0.6-0.3c0.4-0.8,1.2-1.5,2-2.1c0.3-0.2,0.5-0.4,0.7-0.6s0.4-0.4,0.6-0.6s0.4-0.5,0.7-0.7c0.3-0.3,0.6-0.5,0.9-0.7
		s0.6-0.5,0.9-0.7c0.3-0.3,0.6-0.6,0.9-0.8c0.6-0.6,1.2-1.1,1.8-1.6c0.7-0.4,1.7-0.5,2.6-0.2c0.4,0.1,0.7,0.3,0.9,0.5
		c1.3,0.9,1.5,3,1.7,4.6c0,0.3,0.1,0.5,0.1,0.7c0.1,0.6,0.2,1.2,0.3,1.7c0.1,0.6,0.2,1.3,0.3,1.9c0.1,1.2,0.3,2.4,0.8,3.4
		c0.1,0.1,0.2,0.2,0.3,0.3c0,0.1,0.1,0.1,0.1,0.2c0.2,0.2,0.4,0.3,0.6,0.3c0.1,0,0.2,0.1,0.3,0.1c0.6,0.2,1.2,0.5,1.7,0.7
		c1.1,0.5,2.2,1.1,3.4,1.8c0.5,0.3,1,0.7,1.5,1s1,0.7,1.5,1c0.1,0.1,0.2,0.1,0.3,0.2c0.8,0.5,1.8,1.1,1.8,2c0.1,1.3-0.8,2.2-1.6,2.8
		c-0.3,0.3-0.7,0.5-1.1,0.7c-0.1,0.1-0.3,0.1-0.4,0.2c-0.3,0.2-0.5,0.3-0.8,0.5s-0.5,0.4-0.8,0.5c-1.1,0.6-2.1,1.3-3.1,2
		C1433,53.1,1431.9,53.9,1430.7,54.4z"/>
	<path class="st2" d="M1415.2,34.1L1415.2,34.1c0.4-0.4,0.7-0.7,1-1s0.6-0.7,0.9-1.1c0.1-0.1-0.1-0.2-0.1-0.1
		c-0.4,0.4-0.7,0.8-1.1,1.1c-0.3,0.2-0.5,0.5-0.8,0.8l0,0c-1.7-0.4-3.5-0.4-5.3-0.5c-0.1,0-0.1,0.2,0,0.2c1.7,0.3,3.5,0.3,5.2,0.7
		C1415.1,34.2,1415.1,34.2,1415.2,34.1z"/>
	<path class="st2" d="M1417.1,32.6c-0.3,0.4-0.7,0.7-1.1,1c-0.3,0.3-0.6,0.6-0.9,0.9l-0.1-0.1c-1.2,0-2.4-0.2-3.7-0.3
		c-0.1,0-0.1,0.2,0,0.2c1.2,0.2,2.4,0.6,3.7,0.5c0.1,0,0.1,0,0.2-0.1h0.1c0.4-0.3,0.7-0.7,1.1-1.1C1416.6,33.3,1417,33,1417.1,32.6
		C1417.2,32.6,1417.1,32.5,1417.1,32.6z"/>
	<path class="st2" d="M1422,25c1.8-2.2,5.3-1.6,7.1,0.2c0.1,0.1,0.3-0.1,0.2-0.2C1427.3,23.1,1423.8,22.6,1422,25
		C1421.9,25,1422,25,1422,25z"/>
	<path class="st2" d="M1423.7,23.4c1.6-0.7,3.2-0.2,4.6,0.7c0.1,0.1,0.3-0.1,0.1-0.2C1427,22.9,1425.2,22.5,1423.7,23.4
		C1423.6,23.4,1423.6,23.5,1423.7,23.4z"/>
	<path class="st2" d="M1424.9,22.6c0.4,0,0.8,0,1.2,0.1c0.4,0.1,0.9,0.2,1.2,0.4c0.1,0.1,0.3-0.1,0.1-0.2c-0.4-0.2-0.8-0.3-1.3-0.4
		C1425.7,22.4,1425.4,22.5,1424.9,22.6C1424.9,22.5,1424.9,22.6,1424.9,22.6z"/>
	<path class="st2" d="M1410.8,41c-0.5,0.2-1,0.4-1.5,0.6c-0.1,0,0,0.2,0,0.1c0.5-0.1,1-0.3,1.5-0.5C1411,41.1,1410.9,41,1410.8,41z"
		/>
	<path class="st2" d="M1411.1,41.4c-0.6,0.4-1.3,0.6-2,0.9c-0.1,0,0,0.2,0.1,0.1C1409.9,42.1,1410.6,41.9,1411.1,41.4
		C1411.3,41.4,1411.2,41.3,1411.1,41.4z"/>
	<path class="st2" d="M1408,43.7c1-0.5,2-0.9,2.9-1.6V42c-0.9,0.6-2,1-2.9,1.5C1407.8,43.6,1407.9,43.8,1408,43.7z"/>
	<path class="st2" d="M1411.4,42.6c-0.6,0.5-1.3,0.7-1.9,1c-0.7,0.3-1.3,0.6-2,0.9c-0.1,0.1,0,0.2,0.1,0.1c0.7-0.3,1.4-0.7,2.1-1.1
		C1410.3,43.3,1410.9,43.1,1411.4,42.6L1411.4,42.6z"/>
	<path class="st2" d="M1410.8,44c0.1-0.1,0-0.2-0.1-0.2c-1.4,0.7-2.8,1.4-4.1,2.1c-0.1,0.1,0,0.3,0.1,0.2
		C1408.1,45.5,1409.5,44.7,1410.8,44z"/>
	<path class="st2" d="M1410.7,44.8c-1.1,0.8-2.5,1.2-3.7,2c-0.1,0.1,0,0.2,0.1,0.2c0.7-0.4,1.5-0.8,2.2-1.2
		C1409.7,45.5,1410.4,45.2,1410.7,44.8C1410.8,44.8,1410.7,44.7,1410.7,44.8z"/>
	<path class="st2" d="M1406.5,48.2c1.3-0.7,2.7-1.4,3.9-2.3c0.1-0.1,0-0.2-0.1-0.1c-1.2,0.8-2.6,1.5-3.9,2.2
		C1406.3,48.1,1406.4,48.3,1406.5,48.2z"/>
	<path class="st2" d="M1405.6,49.7c1.4-1.1,3.2-1.8,4.8-2.8c0.1-0.1,0-0.2-0.1-0.1c-1.6,1-3.4,1.6-4.9,2.7
		C1405.3,49.7,1405.4,49.8,1405.6,49.7z"/>
	<path class="st2" d="M1410.6,47.8c-1.6,1.3-3.8,2-5.6,3.1c-0.1,0.1,0,0.3,0.1,0.2c1-0.6,2.1-1.1,3.1-1.7
		C1409.1,49,1410,48.5,1410.6,47.8C1410.7,47.8,1410.7,47.7,1410.6,47.8z"/>
	<path class="st2" d="M1409.9,49.2c-0.9,0.6-1.8,1.1-2.7,1.5c-0.9,0.4-1.7,1-2.5,1.5c-0.1,0.1,0,0.3,0.1,0.2
		c0.9-0.5,1.8-1.2,2.7-1.7C1408.4,50.4,1409.2,49.9,1409.9,49.2C1410,49.3,1409.9,49.2,1409.9,49.2z"/>
	<path class="st2" d="M1409.1,50.4c-1.7,1.2-3.5,2.1-5.1,3.3c-0.1,0.1,0,0.3,0.1,0.2c1.7-1.1,3.5-2.1,5.1-3.3
		C1409.3,50.5,1409.2,50.4,1409.1,50.4z"/>
	<path class="st2" d="M1403.4,55.3c1.6-1,3.3-2,4.9-3.1c0.1-0.1,0-0.2-0.1-0.2c-1.5,1.2-3.3,2-4.9,3.1
		C1403.1,55.2,1403.3,55.4,1403.4,55.3z"/>
	<path class="st2" d="M1407.1,53.4c-1.3,1.1-2.7,1.8-4,2.9c-0.1,0.1,0,0.3,0.2,0.2c1.3-1,2.7-1.8,4-2.9
		C1407.3,53.5,1407.1,53.4,1407.1,53.4z"/>
	<path class="st2" d="M1406.8,54.6c-1.2,1.2-2.8,2-4.2,3.1c-0.1,0.1,0,0.3,0.2,0.2c1.4-1,2.9-1.9,4.1-3.1
		C1407,54.7,1406.9,54.5,1406.8,54.6z"/>
	<path class="st2" d="M1406.3,56.1c-1.1,1-2.4,1.8-3.5,2.6c-0.1,0.1,0,0.3,0.2,0.2c0.7-0.4,1.2-1,1.9-1.4c0.6-0.4,1.1-0.8,1.6-1.2
		C1406.6,56.1,1406.4,56,1406.3,56.1z"/>
	<path class="st2" d="M1405.6,58.2c-0.7,0.5-1.3,1-1.9,1.5c-0.1,0.1,0,0.2,0.1,0.2c0.3-0.2,0.5-0.5,0.8-0.7c0.4-0.3,0.7-0.6,1.1-0.8
		C1405.8,58.3,1405.7,58.1,1405.6,58.2z"/>
	<path class="st2" d="M1406.2,59.3c-0.2,0.1-0.4,0.3-0.5,0.5c-0.1,0.1,0.1,0.2,0.1,0.1C1405.9,59.7,1406.1,59.6,1406.2,59.3
		C1406.3,59.4,1406.3,59.3,1406.2,59.3z"/>
	<path class="st2" d="M1416.2,62.3c-0.5-0.5-1-0.9-1.4-1.4l0,0c0-0.1,0-0.1-0.1-0.1c-0.6,0-1.1,0.3-1.7,0.4
		c-0.9,0.2-1.7,0.4-2.5,0.7V62c0.8-0.2,1.5-0.4,2.3-0.5c0.6-0.1,1.2-0.3,1.8-0.4l0,0c0.3,0.4,0.7,0.7,1.1,1.1c0.4,0.4,1,0.8,1.3,1.3
		c0,0.1,0.2,0,0.1-0.1C1417,63,1416.6,62.7,1416.2,62.3z"/>
	<path class="st2" d="M1414.5,61.6L1414.5,61.6L1414.5,61.6c-1,0-1.8,0.5-2.6,0.6c-0.1,0-0.1,0.2,0,0.1c0.8-0.1,1.6-0.6,2.4-0.6
		c0.4,0.7,1.1,1.1,1.6,1.7c0,0,0.1,0,0.1-0.1C1415.5,62.8,1414.9,62.3,1414.5,61.6z"/>
	<path class="st2" d="M1414.9,63.4c-0.3-0.3-0.4-0.7-0.6-0.9c0-0.1,0-0.2-0.1-0.1c-0.6,0.2-1.1,0.4-1.6,0.6c-0.1,0,0,0.1,0,0.1
		c0.5-0.2,1-0.4,1.5-0.5c0.1,0.2,0.2,0.4,0.3,0.5C1414.6,63.2,1414.7,63.4,1414.9,63.4C1414.9,63.5,1415,63.4,1414.9,63.4z"/>
	<path class="st2" d="M1402.5,44.6c0.4,0.7,1,1.3,1.4,1.9c0.1,0.2,0.4,0,0.3-0.2c-0.5-0.7-1-1.2-1.4-1.9c-0.4-0.6-0.7-1.3-1-2
		s-0.6-1.4-0.9-2.1c-0.3-0.8-0.7-1.5-0.9-2.3c0-0.1-0.1-0.1-0.1,0c0.2,1.4,0.9,2.9,1.5,4.2C1401.7,43.1,1402.1,43.9,1402.5,44.6z"/>
	<path class="st2" d="M1403.7,47.2c0.1,0.2,0.4-0.1,0.2-0.2c-0.7-0.8-1.3-1.7-1.8-2.6c-0.5-0.8-1.2-1.6-1.4-2.5c0-0.1-0.2-0.1-0.1,0
		c0.2,0.9,0.9,1.8,1.4,2.6C1402.4,45.4,1403,46.4,1403.7,47.2z"/>
	<path class="st2" d="M1403.3,47.9c0.1,0.1,0.3-0.1,0.2-0.2c-0.5-0.5-0.9-1-1.3-1.6s-0.8-1.3-1-1.9c0-0.1-0.2-0.1-0.1,0
		c0.1,0.6,0.5,1.2,0.8,1.8C1402.3,46.7,1402.8,47.3,1403.3,47.9z"/>
	<path class="st2" d="M1403.1,48.1c-0.3-0.3-0.6-0.6-0.8-1c-0.3-0.4-0.5-0.8-0.9-1.2c-0.1-0.1-0.1,0-0.1,0.1
		c0.3,0.4,0.5,0.8,0.8,1.2c0.2,0.4,0.5,0.7,0.8,1C1403,48.4,1403.2,48.2,1403.1,48.1z"/>
	<path class="st2" d="M1435,51.2c0.9-0.8,2-1.2,3.1-1.8c0.9-0.5,1.7-1.2,2.5-1.8c1.3-0.9,1-2.6-0.2-3.5c-0.1-0.1-0.3,0.1-0.2,0.2
		c0.7,0.6,1.1,1.6,0.7,2.5c-0.4,0.7-1.4,1.2-2,1.7c-1.3,1-2.9,1.5-4.1,2.6C1434.8,51.1,1434.9,51.3,1435,51.2z"/>
	<path class="st2" d="M1436,49.5c1.2-0.4,2.4-1.2,3.3-2c0.8-0.7,1.3-1.9,0.6-2.8c-0.1-0.1-0.3,0-0.2,0.2c1.1,1.3-0.5,2.5-1.5,3.2
		C1437.5,48.6,1436.8,49.1,1436,49.5C1435.9,49.4,1435.9,49.5,1436,49.5z"/>
	<path class="st2" d="M1437.5,48.1c0.2-0.2,0.5-0.4,0.8-0.5c0.3-0.2,0.5-0.4,0.7-0.7c0.4-0.4,0.5-0.8,0.3-1.3c0-0.1-0.3-0.1-0.2,0.1
		c0.2,0.7-0.3,1.2-0.7,1.7C1438.1,47.7,1437.8,47.8,1437.5,48.1C1437.3,48.1,1437.4,48.2,1437.5,48.1z"/>
	<path class="st2" d="M1430.7,62.4C1430.7,62.3,1430.6,62.3,1430.7,62.4c-0.5,1.2-0.4,2.5-0.8,3.8c-0.5,1.5-2.1,3.1-3.8,3.1
		c-0.2,0-0.2,0.2,0,0.2c1.3,0.1,2.5-0.9,3.3-1.8C1430.7,66.1,1430.3,64.1,1430.7,62.4z"/>
	<path class="st2" d="M1430.9,65.1c-0.6,1.6-1.1,3.7-2.8,4.4c-0.2,0.1,0,0.3,0.1,0.2C1430,69,1430.7,66.8,1430.9,65.1
		C1431.1,65,1431,65,1430.9,65.1z"/>
	<path class="st2" d="M1428.7,59c-0.2,1.3-0.3,2.6-0.6,3.9c-0.2,0.9-0.5,1.8-0.4,2.6c0,0.1,0.2,0.1,0.2,0c0-1,0.3-1.9,0.4-2.9
		C1428.5,61.4,1428.6,60.2,1428.7,59C1428.9,59,1428.7,59,1428.7,59z"/>
	<path class="st2" d="M1427.3,64.4c0.2-0.8,0.3-1.6,0.4-2.4c0-0.1-0.1-0.1-0.2,0c-0.2,1.1-0.4,2.2-0.6,3.3c-0.1,0.4-0.3,0.9-0.1,1.3
		c0,0.1,0.2,0.1,0.2,0C1427,65.8,1427.2,65.1,1427.3,64.4z"/>
	<path class="st2" d="M1426.6,63.7c0-0.1-0.1-0.2-0.2-0.1c-0.1,0.4-0.2,0.9-0.3,1.4c-0.1,0.6-0.2,1.2-0.3,1.8c0,0.1,0.2,0.2,0.2,0
		c0.1-0.5,0.2-0.9,0.2-1.4C1426.4,64.8,1426.4,64.2,1426.6,63.7z"/>
	<path class="st2" d="M1425.7,64.4c0-0.1-0.2-0.1-0.2,0c-0.1,0.4-0.1,0.7-0.2,1.1c0,0.3-0.1,0.7-0.1,1c0,0.1,0.2,0.2,0.2,0
		C1425.4,65.8,1425.6,65.1,1425.7,64.4z"/>
	<path class="st2" d="M1428.9,30.7c0-0.1-0.1-0.2-0.2-0.1c-0.2,0.5-0.7,0.9-1.1,1.3c-0.5,0.5-1,0.9-1.4,1.4c-0.1,0.1,0,0.2,0.1,0.2
		c0.6-0.6,1.2-1.2,1.8-1.8C1428.4,31.4,1428.8,31.1,1428.9,30.7z"/>
	<path class="st2" d="M1428.7,32c-0.6,0.8-1.4,1.5-2.1,2.2c-0.1,0.1,0,0.3,0.1,0.2c0.7-0.7,1.5-1.5,2.1-2.3
		C1428.9,32,1428.7,31.9,1428.7,32z"/>
	<path class="st2" d="M1428.6,33c-0.6,0.8-1.3,1.5-2.1,2.2c-0.1,0.1,0,0.3,0.1,0.2c0.7-0.7,1.4-1.5,2-2.3
		C1428.7,33,1428.6,32.9,1428.6,33z"/>
	<path class="st2" d="M1428.2,34.2c-0.5,0.6-0.9,1.1-1.5,1.6c-0.1,0.1,0,0.2,0.1,0.2C1427.4,35.5,1427.8,34.9,1428.2,34.2
		C1428.4,34.2,1428.3,34.1,1428.2,34.2z"/>
	<path class="st2" d="M1427.9,35.3c-0.2,0.2-0.3,0.4-0.5,0.6c-0.1,0.1,0.1,0.2,0.2,0.1c0.1-0.2,0.3-0.4,0.5-0.6
		C1428.2,35.4,1428,35.2,1427.9,35.3z"/>
	<path class="st2" d="M1428.3,35.8c-0.3,0.3-0.6,0.7-0.9,1.1c-0.1,0.1,0.1,0.2,0.2,0.1c0.3-0.3,0.6-0.8,0.9-1.1
		C1428.6,35.9,1428.4,35.7,1428.3,35.8z"/>
	<path class="st2" d="M1428.4,36.6c-0.1,0.1-0.2,0.3-0.3,0.4c-0.1,0.1,0,0.2,0.1,0.1c0.1-0.1,0.2-0.3,0.4-0.4
		C1428.6,36.6,1428.4,36.5,1428.4,36.6z"/>
	<path class="st2" d="M1428.5,37.1c-0.1,0.1-0.1,0.2-0.2,0.3s0.1,0.3,0.2,0.1c0.1-0.1,0.1-0.2,0.2-0.3
		C1428.8,37.1,1428.6,37,1428.5,37.1z"/>
</g>
<g>
	<path class="st2" d="M1408.7,153.9c-0.7-1.2-2.4-0.9-3.6-0.8c-0.3,0-0.5,0.1-0.7,0.1c-1.2,0.1-2.3,0.3-3.2,0.5
		c-0.1,0-0.2,0.1-0.4,0.1c-0.4,0.1-0.7,0.2-1.1,0.3c-0.1,0-0.3,0.1-0.4,0.2c-0.1,0-0.2,0.1-0.2,0.1c-0.1,0-0.2,0.1-0.3,0.1
		c0,0,0,0-0.1,0c-0.6-0.3-1.1-0.8-1.6-1.2c-0.2-0.2-0.4-0.4-0.6-0.5c-0.3-0.3-0.6-0.5-0.9-0.8c-0.4-0.3-0.8-0.6-1.2-1
		c-1.1-1-2.6-2.1-4.1-1.5c-0.1,0-0.1,0.1-0.2,0.1c-0.5,0.2-1.4,0.7-1.8,1.5s-0.4,1.6-0.5,2.5c0,0.1,0,0.2,0,0.4c0,0.5-0.2,1-0.3,1.5
		v0.1c-0.1,0.4-0.1,0.8-0.1,1.2c0,0.2,0,0.4,0,0.6c0,0.2,0,0.3-0.1,0.5c-0.1,0.6-0.1,1.1-0.1,1.7l0,0l0,0c-0.6,0.3-1.1,0.6-1.6,0.9
		c-0.3,0.2-0.7,0.4-1,0.6c-0.8,0.4-1.5,1-2.2,1.5l-0.4,0.3c-1.1,0.8-2.6,2-2.6,3.6c0,0.9,0.8,1.5,1.3,1.9c0.4,0.3,0.9,0.5,1.3,0.7
		c0.5,0.3,0.9,0.5,1.4,0.8c0.6,0.4,1.4,0.7,2.1,1c0.1,0.1,0.3,0.1,0.4,0.2l0.3,0.1c0.7,0.3,1.4,0.5,2.1,0.7c0.3,0.9,0.5,1.8,0.8,2.7
		c0.3,1,0.5,1.9,0.8,2.9v0.1c0.4,1.5,0.9,3.1,2.7,3.5c0.6,0.1,1.2,0,1.8-0.2c1-0.4,1.9-1.4,2.6-2.2c0.5-0.6,1-1.3,1.5-2
		c0.1-0.1,0.2-0.3,0.3-0.4v-0.1c0.3-0.4,0.5-0.7,0.8-1.1l0,0c0.2-0.3,0.3-0.4,0.5-0.5c0.1-0.1,0.3-0.1,0.5,0
		c1.6,0.2,3.3,0.3,5.4,0.2c0.2,0,0.3,0,0.5,0c0.9,0,1.9,0,2.7-0.4l0,0c0.5-0.2,0.9-0.5,1.1-0.9c1.1-1.6,0.1-3.1-0.8-4.4l0,0
		c-0.4-0.6-0.8-1.2-1.1-1.8c-0.1-0.2-0.2-0.4-0.4-0.6c-0.1-0.2-0.2-0.4-0.3-0.6c-0.2-0.3-0.3-0.6-0.5-0.9c-0.1-0.2-0.2-0.4-0.3-0.5
		c-0.1-0.2-0.2-0.5-0.3-0.7c0,0,0,0,0-0.1c0.4-0.8,0.7-1.7,0.9-2.5c0.2-0.5,0.3-1,0.5-1.5c0.1-0.4,0.3-0.9,0.4-1.4
		c0.1-0.3,0.2-0.5,0.3-0.8c0.2-0.6,0.4-1.2,0.5-1.9C1409.3,155.4,1409.1,154.7,1408.7,153.9z M1405.9,164.2c0,0.1,0,0.2,0,0.3
		c0,0,0,0,0,0.1c0.2,0.3,0.4,0.7,0.6,1s0.3,0.7,0.6,1c0.3,0.5,0.6,1.1,0.9,1.6c0.2,0.3,0.3,0.6,0.5,0.9c0.1,0.2,0.3,0.5,0.4,0.7
		c0.8,1.3,1.8,2.7,0.4,3.8c-0.2,0.1-0.3,0.2-0.5,0.3c-0.8,0.3-1.8,0.3-2.7,0.3c-0.4,0-0.8,0-1.2,0c-0.5,0-1.1,0-1.6-0.1
		c-0.3,0-0.6,0-0.9-0.1c-0.3,0-0.7-0.1-1-0.1c-0.4-0.1-0.8-0.1-1.2-0.1c-0.1,0-0.2,0-0.3,0.1c-0.3,0.1-0.5,0.4-0.7,0.7
		c-0.1,0.1-0.1,0.1-0.2,0.2c-0.4,0.5-0.8,1-1.1,1.5c-0.2,0.2-0.3,0.4-0.5,0.7l-0.2,0.2c-0.8,1.2-1.8,2.5-3,3
		c-0.3,0.1-0.6,0.2-0.9,0.2c-1.7,0.2-2.2-1.6-2.6-3.1c0-0.2-0.1-0.3-0.1-0.4c-0.1-0.2-0.1-0.4-0.2-0.7c-0.2-0.7-0.4-1.4-0.6-2.1
		c-0.1-0.2-0.1-0.3-0.2-0.5c-0.2-0.6-0.4-1.1-0.6-1.7c0.1-0.1,0.1-0.2,0.1-0.3s-0.1-0.3-0.3-0.3c-0.6-0.1-1.3-0.4-1.8-0.7
		c-0.1-0.1-0.3-0.1-0.4-0.2c-0.3-0.1-0.6-0.3-0.9-0.4c-0.4-0.2-0.9-0.4-1.3-0.6c-0.4-0.2-0.8-0.4-1.1-0.7c-0.3-0.2-0.6-0.4-0.9-0.6
		c-0.1-0.1-0.3-0.2-0.5-0.3c-0.7-0.4-1.5-0.7-1.6-1.4c-0.2-1.2,1.3-2.3,2.4-3c0.1-0.1,0.3-0.2,0.4-0.3c0.8-0.6,1.5-1.1,2.3-1.6
		c0.3-0.2,0.6-0.4,0.9-0.6c0.4-0.3,0.8-0.5,1.3-0.7l0,0c0.1,0,0.2,0,0.3,0c0.2-0.1,0.3-0.3,0.2-0.4c-0.2-0.6,0-1.4,0.1-2
		c0-0.2,0.1-0.5,0.1-0.7s0-0.4,0.1-0.6c0-0.2,0-0.4,0.1-0.7c0-0.3,0.1-0.5,0.2-0.8s0.1-0.5,0.2-0.8c0-0.3,0.1-0.6,0.1-0.8
		c0.1-0.6,0.1-1.1,0.3-1.7c0.2-0.6,0.7-1,1.3-1.3c0.2-0.1,0.5-0.2,0.7-0.2c1.1-0.1,2.1,0.9,3,1.7c0.1,0.1,0.3,0.2,0.4,0.4
		c0.3,0.3,0.6,0.5,0.9,0.8s0.7,0.6,1,0.9c0.6,0.6,1.3,1.1,2,1.4c0.1,0,0.2,0.1,0.3,0h0.1c0.2,0,0.3-0.1,0.5-0.1
		c0.1,0,0.1-0.1,0.2-0.1c0.4-0.2,0.9-0.3,1.2-0.4c0.8-0.2,1.7-0.4,2.6-0.5c0.4-0.1,0.9-0.1,1.3-0.1s0.8-0.1,1.3-0.1
		c0.1,0,0.1,0,0.2,0c0.7-0.1,1.5-0.2,1.9,0.3c0.6,0.6,0.6,1.6,0.4,2.3c-0.1,0.3-0.2,0.6-0.3,0.9c0,0.1-0.1,0.2-0.1,0.3
		c-0.1,0.2-0.1,0.4-0.2,0.6c-0.1,0.2-0.1,0.4-0.2,0.6c-0.3,0.8-0.5,1.6-0.8,2.5C1406.5,162.4,1406.3,163.3,1405.9,164.2z"/>
	<path class="st2" d="M1388.3,160.3L1388.3,160.3c0-0.4,0-0.7,0.1-1c0-0.3,0-0.7,0-1c0-0.1-0.1-0.1-0.1,0c0,0.4,0,0.7-0.1,1.1
		c0,0.3-0.1,0.5-0.1,0.8l0,0c-1.1,0.6-2.1,1.4-3.1,2.1c-0.1,0.1,0,0.2,0.1,0.1c1.1-0.6,2-1.4,3.1-2
		C1388.3,160.4,1388.3,160.4,1388.3,160.3z"/>
	<path class="st2" d="M1388.7,158.6c0,0.3-0.1,0.7-0.1,1s0,0.6-0.1,0.9h-0.1c-0.6,0.6-1.4,1-2.1,1.5c-0.1,0.1,0,0.2,0.1,0.1
		c0.7-0.5,1.6-0.8,2.2-1.4c0,0,0.1-0.1,0-0.1c0,0,0,0,0-0.1c0-0.4,0.1-0.7,0.1-1.1C1388.7,159.2,1388.8,158.9,1388.7,158.6
		C1388.7,158.6,1388.6,158.6,1388.7,158.6z"/>
	<path class="st2" d="M1387.8,152.4c0-2,2.1-3.3,3.9-3.1c0.1,0,0.2-0.2,0-0.2C1389.8,148.9,1387.7,150.2,1387.8,152.4L1387.8,152.4z
		"/>
	<path class="st2" d="M1388,150.7c0.5-1.1,1.6-1.6,2.8-1.7c0.1,0,0.1-0.2,0-0.2C1389.6,148.9,1388.4,149.5,1388,150.7
		C1387.9,150.7,1388,150.8,1388,150.7z"/>
	<path class="st2" d="M1388.3,149.7c0.2-0.2,0.4-0.4,0.7-0.5c0.3-0.1,0.6-0.3,0.9-0.3c0.1,0,0.1-0.2,0-0.2c-0.3,0.1-0.6,0.2-0.9,0.4
		C1388.6,149.2,1388.5,149.4,1388.3,149.7C1388.2,149.7,1388.3,149.7,1388.3,149.7z"/>
	<path class="st2" d="M1389.1,166c-0.2,0.3-0.4,0.7-0.6,1c0,0.1,0.1,0.1,0.1,0.1c0.2-0.3,0.4-0.7,0.6-1
		C1389.3,166,1389.2,165.9,1389.1,166z"/>
	<path class="st2" d="M1389.5,166.1c-0.2,0.5-0.5,0.9-0.7,1.4c0,0.1,0.1,0.1,0.1,0C1389.1,167,1389.4,166.6,1389.5,166.1
		C1389.6,166,1389.5,166,1389.5,166.1z"/>
	<path class="st2" d="M1388.8,168.8c0.3-0.7,0.6-1.4,0.8-2.2l0,0C1389.4,167.3,1389,168,1388.8,168.8
		C1388.7,168.8,1388.8,168.8,1388.8,168.8z"/>
	<path class="st2" d="M1390.1,166.6c-0.1,0.5-0.4,1-0.6,1.4c-0.2,0.5-0.5,0.9-0.6,1.4c0,0.1,0.1,0.1,0.1,0c0.2-0.5,0.4-1,0.7-1.5
		C1389.9,167.5,1390.1,167.1,1390.1,166.6C1390.2,166.6,1390.2,166.6,1390.1,166.6z"/>
	<path class="st2" d="M1390.5,167.6c0-0.1-0.1-0.1-0.1-0.1c-0.4,1-0.8,2-1.2,3c0,0.1,0.1,0.2,0.1,0.1
		C1389.7,169.6,1390.1,168.6,1390.5,167.6z"/>
	<path class="st2" d="M1390.8,168.1c-0.2,1-0.8,1.8-1.1,2.7c0,0.1,0.1,0.1,0.1,0.1c0.2-0.5,0.4-1.1,0.7-1.6
		C1390.6,168.9,1390.8,168.5,1390.8,168.1C1390.8,168.1,1390.8,168,1390.8,168.1z"/>
	<path class="st2" d="M1390.1,171.9c0.4-1,0.8-2,1.1-3c0-0.1-0.1-0.1-0.1,0c-0.3,1-0.7,2-1.1,2.9
		C1389.9,171.9,1390.1,172,1390.1,171.9z"/>
	<path class="st2" d="M1390.3,173.1c0.3-1.3,0.9-2.4,1.3-3.7c0-0.1-0.1-0.1-0.1,0c-0.4,1.2-1.1,2.4-1.4,3.7
		C1390.1,173.2,1390.3,173.2,1390.3,173.1z"/>
	<path class="st2" d="M1392.1,169.7c-0.3,1.5-1.1,2.8-1.6,4.2c0,0.1,0.1,0.2,0.2,0.1c0.3-0.8,0.6-1.6,0.9-2.3
		C1391.8,171.1,1392.1,170.4,1392.1,169.7C1392.2,169.7,1392.1,169.7,1392.1,169.7z"/>
	<path class="st2" d="M1392.4,170.9c-0.2,0.7-0.5,1.4-0.8,2s-0.4,1.3-0.7,1.9c0,0.1,0.1,0.2,0.2,0.1c0.3-0.7,0.4-1.4,0.7-2.1
		C1392.1,172.1,1392.3,171.5,1392.4,170.9C1392.5,170.8,1392.4,170.8,1392.4,170.9z"/>
	<path class="st2" d="M1392.5,171.9c-0.4,1.4-0.9,2.7-1.3,4.1c0,0.1,0.1,0.1,0.2,0C1391.8,174.6,1392.3,173.3,1392.5,171.9
		C1392.7,171.8,1392.5,171.8,1392.5,171.9z"/>
	<path class="st2" d="M1391.7,177.1c0.4-1.3,0.9-2.6,1.2-3.9c0-0.1-0.1-0.1-0.1,0C1392.5,174.5,1392,175.8,1391.7,177.1
		C1391.5,177.1,1391.6,177.2,1391.7,177.1z"/>
	<path class="st2" d="M1392.8,174.4c-0.2,1.1-0.6,2.2-0.8,3.4c0,0.1,0.1,0.1,0.2,0c0.3-1.1,0.6-2.2,0.8-3.4
		C1392.9,174.3,1392.8,174.3,1392.8,174.4z"/>
	<path class="st2" d="M1393.1,175.2c-0.1,1.2-0.6,2.4-0.8,3.5c0,0.1,0.1,0.1,0.2,0c0.3-1.2,0.7-2.3,0.8-3.5
		C1393.3,175.1,1393.2,175.1,1393.1,175.2z"/>
	<path class="st2" d="M1393.6,176.2c-0.1,1-0.5,2-0.7,3c0,0.1,0.1,0.1,0.2,0c0.2-0.5,0.2-1.1,0.4-1.6c0.1-0.5,0.2-0.9,0.3-1.4
		C1393.8,176.1,1393.6,176.1,1393.6,176.2z"/>
	<path class="st2" d="M1394.2,177.6c-0.1,0.6-0.3,1.1-0.3,1.7c0,0.1,0.1,0.1,0.1,0c0.1-0.2,0.1-0.5,0.1-0.8c0.1-0.3,0.1-0.6,0.2-1
		C1394.3,177.6,1394.2,177.5,1394.2,177.6z"/>
	<path class="st2" d="M1395,177.9c-0.1,0.2-0.1,0.3-0.1,0.5c0,0.1,0.1,0.1,0.1,0C1395,178.3,1395,178.1,1395,177.9
		C1395.1,177.9,1395,177.9,1395,177.9z"/>
	<path class="st2" d="M1401.8,175c-0.5,0-0.9,0-1.4-0.1l0,0h-0.1c-0.3,0.3-0.5,0.7-0.7,1c-0.4,0.5-0.7,1-1,1.5c0,0,0,0.1,0,0
		c0.3-0.5,0.6-0.9,1-1.3c0.3-0.3,0.5-0.7,0.8-1l0,0c0.4,0.1,0.7,0.1,1.1,0.1s0.9,0,1.3,0.1c0.1,0,0.1-0.1,0-0.1
		C1402.5,175,1402.1,175,1401.8,175z"/>
	<path class="st2" d="M1400.5,175.4L1400.5,175.4C1400.4,175.4,1400.4,175.4,1400.5,175.4c-0.5,0.5-0.7,1.1-1.1,1.5
		c0,0.1,0,0.1,0.1,0.1c0.4-0.4,0.6-1,1-1.4c0.5,0.1,1.1,0.1,1.6,0.2c0,0,0.1-0.1,0-0.1C1401.6,175.5,1401,175.6,1400.5,175.4z"/>
	<path class="st2" d="M1401.5,176.2c-0.3,0-0.5-0.2-0.7-0.2c0,0-0.1-0.1-0.1,0c-0.2,0.3-0.4,0.7-0.6,1.1c0,0,0,0.1,0.1,0
		c0.2-0.3,0.4-0.6,0.6-0.9c0.1,0,0.3,0.1,0.4,0.1C1401.3,176.2,1401.4,176.3,1401.5,176.2C1401.6,176.2,1401.6,176.2,1401.5,176.2z"
		/>
	<path class="st2" d="M1386.3,171.7c0.5,0.2,1.1,0.2,1.7,0.4c0.2,0,0.2-0.2,0.1-0.2c-0.5-0.1-1.1-0.2-1.6-0.4s-1-0.4-1.5-0.6
		c-0.5-0.2-1-0.5-1.4-0.7c-0.5-0.3-1.1-0.5-1.5-0.9c0,0-0.1,0-0.1,0.1c0.8,0.7,1.8,1.1,2.7,1.6
		C1385.2,171.3,1385.7,171.5,1386.3,171.7z"/>
	<path class="st2" d="M1388.1,172.6c0.1,0,0.2-0.2,0-0.2c-0.7-0.1-1.5-0.4-2.2-0.6c-0.6-0.2-1.4-0.3-1.9-0.7c-0.1,0-0.1,0-0.1,0.1
		c0.5,0.4,1.3,0.6,1.9,0.8C1386.6,172.2,1387.4,172.5,1388.1,172.6z"/>
	<path class="st2" d="M1388.2,173.1c0.1,0,0.2-0.2,0-0.2c-0.5-0.1-1-0.1-1.4-0.3c-0.4-0.1-1-0.3-1.4-0.5c-0.1,0-0.1,0-0.1,0.1
		c0.4,0.3,0.8,0.4,1.3,0.6C1387.1,172.9,1387.7,173.1,1388.2,173.1z"/>
	<path class="st2" d="M1388.2,173.4c-0.3,0-0.6-0.1-0.9-0.1c-0.3-0.1-0.7-0.2-1-0.2c-0.1,0-0.1,0.1,0,0.1c0.3,0.1,0.6,0.2,1,0.3
		c0.3,0.1,0.6,0.1,0.9,0.2C1388.3,173.6,1388.3,173.4,1388.2,173.4z"/>
	<path class="st2" d="M1406.7,160.5c0.1-0.8,0.5-1.6,0.8-2.4c0.3-0.7,0.4-1.4,0.5-2.1c0.2-1.1-0.6-1.9-1.7-1.8c-0.1,0-0.1,0.2,0,0.2
		c0.7,0,1.3,0.3,1.5,1c0.1,0.5-0.2,1.3-0.3,1.8c-0.2,1.1-0.9,2.1-1,3.2C1406.6,160.5,1406.7,160.6,1406.7,160.5z"/>
	<path class="st2" d="M1406.5,159.1c0.5-0.7,0.7-1.8,0.9-2.6c0.1-0.7-0.2-1.6-1-1.8c-0.1,0-0.2,0.2,0,0.2c1.2,0.2,0.9,1.6,0.6,2.4
		C1406.9,157.9,1406.7,158.5,1406.5,159.1C1406.4,159.1,1406.5,159.1,1406.5,159.1z"/>
	<path class="st2" d="M1406.7,157.7c0-0.2,0.1-0.4,0.2-0.6c0-0.2,0.1-0.5,0.1-0.7c0-0.4-0.1-0.7-0.5-0.8c-0.1,0-0.2,0.1-0.1,0.2
		c0.4,0.3,0.4,0.8,0.4,1.2C1406.8,157.3,1406.6,157.5,1406.7,157.7C1406.6,157.7,1406.7,157.7,1406.7,157.7z"/>
	<path class="st2" d="M1409.5,168.4L1409.5,168.4c0.3,0.9,0.9,1.5,1.3,2.4c0.4,1,0.3,2.6-0.6,3.4c-0.1,0.1,0,0.2,0.1,0.1
		c0.7-0.5,0.9-1.6,0.9-2.5C1411.2,170.5,1410.1,169.5,1409.5,168.4z"/>
	<path class="st2" d="M1410.9,169.8c0.4,1.1,1.1,2.5,0.5,3.7c-0.1,0.1,0.1,0.2,0.2,0.1C1412.2,172.3,1411.5,170.8,1410.9,169.8
		C1410.9,169.7,1410.9,169.7,1410.9,169.8z"/>
	<path class="st2" d="M1407,167.5c0.5,0.8,1,1.5,1.5,2.4c0.3,0.5,0.6,1.2,1,1.6c0.1,0.1,0.2,0,0.1-0.1c-0.5-0.5-0.7-1.2-1.1-1.8
		C1408,168.9,1407.5,168.2,1407,167.5C1407,167.4,1406.9,167.5,1407,167.5z"/>
	<path class="st2" d="M1408.6,171c-0.3-0.5-0.6-1-0.9-1.4c0-0.1-0.1,0-0.1,0.1c0.4,0.7,0.8,1.4,1.2,2.1c0.1,0.3,0.3,0.6,0.5,0.7
		c0.1,0,0.1-0.1,0.1-0.1C1409.1,172,1408.9,171.5,1408.6,171z"/>
	<path class="st2" d="M1407.9,171C1407.9,170.9,1407.8,171,1407.9,171c0,0.3,0.2,0.6,0.4,0.8c0.2,0.4,0.4,0.8,0.7,1.1
		c0.1,0.1,0.2,0,0.1-0.1c-0.2-0.3-0.3-0.6-0.5-0.8C1408.4,171.7,1408.1,171.4,1407.9,171z"/>
	<path class="st2" d="M1407.8,171.8c0-0.1-0.1,0-0.1,0.1c0.1,0.2,0.3,0.4,0.4,0.6c0.1,0.2,0.2,0.4,0.4,0.6c0.1,0.1,0.2,0,0.1-0.1
		C1408.3,172.7,1408,172.2,1407.8,171.8z"/>
	<path class="st2" d="M1394.2,152.3C1394.2,152.2,1394.1,152.3,1394.2,152.3c0,0.4-0.1,0.8-0.1,1.2c0,0.5-0.1,0.9-0.1,1.4
		c0,0.1,0.1,0.1,0.1,0c0-0.6,0.1-1.2,0.1-1.8C1394.2,152.9,1394.3,152.5,1394.2,152.3z"/>
	<path class="st2" d="M1394.6,153.1c0,0.7-0.1,1.4-0.1,2.1c0,0.1,0.1,0.1,0.1,0C1394.7,154.5,1394.7,153.7,1394.6,153.1
		C1394.7,153,1394.6,153,1394.6,153.1z"/>
	<path class="st2" d="M1395,153.6c0,0.7,0,1.4-0.1,2.1c0,0.1,0.1,0.1,0.1,0C1395.1,155.1,1395.1,154.3,1395,153.6
		C1395.1,153.6,1395,153.6,1395,153.6z"/>
	<path class="st2" d="M1395.3,154.4c0,0.5,0,1,0,1.6c0,0.1,0.1,0.1,0.1,0C1395.5,155.5,1395.4,154.9,1395.3,154.4
		C1395.4,154.3,1395.3,154.3,1395.3,154.4z"/>
	<path class="st2" d="M1395.7,155.2c0,0.2,0,0.4,0,0.5s0.2,0.1,0.1,0C1395.8,155.5,1395.8,155.3,1395.7,155.2
		C1395.9,155.1,1395.7,155.1,1395.7,155.2z"/>
	<path class="st2" d="M1396.2,155.2c0,0.3,0,0.7,0,1c0,0.1,0.1,0.1,0.2,0c0-0.3,0-0.7,0-1C1396.3,155.2,1396.2,155.2,1396.2,155.2z"
		/>
	<path class="st2" d="M1396.5,155.7c0,0.1,0,0.2,0,0.3s0.1,0.1,0.1,0S1396.6,155.7,1396.5,155.7
		C1396.7,155.6,1396.5,155.6,1396.5,155.7z"/>
	<path class="st2" d="M1396.8,155.9c0,0.1,0,0.2,0,0.2c0,0.1,0.2,0.1,0.2,0s0-0.2,0-0.2C1397,155.8,1396.8,155.8,1396.8,155.9z"/>
</g>
<path class="st3" d="M1320,314.9c3.5,0,7-1.3,9.7-4c2-1.9,19.4-19.7,18.6-45c-0.5-16.6-8.7-31.8-24.2-45.1c-5.8-5-14.7-4.4-19.7,1.5
	c-5,5.8-4.4,14.7,1.5,19.7c9.3,8,14.1,16.3,14.5,24.6c0.5,13.3-10.2,24.3-10.3,24.4c-5.4,5.4-5.4,14.3,0,19.7
	C1312.8,313.5,1316.4,314.9,1320,314.9z"/>
<path class="st3" d="M1335.8,280.2c0.6,0,1.2,0,1.8-0.1c16.4-2.1,25.2-10.6,29.6-17.4c12.4-18.8,5.9-44.2,5.1-47.1
	c-2.1-7.4-9.8-11.8-17.2-9.7c-7.4,2.1-11.8,9.7-9.7,17.1c1.1,4.1,3.2,17.3-1.5,24.3c-1.2,1.8-3.5,4.3-9.9,5.1c-7.6,1-13,8-12,15.6
	C1322.9,275.1,1328.9,280.2,1335.8,280.2z"/>
<path class="st3" d="M1051.4,314.9c-3.5,0-7-1.3-9.7-4c-2-1.9-19.4-19.7-18.6-45c0.5-16.6,8.7-31.8,24.2-45.1
	c5.8-5,14.7-4.4,19.7,1.5c5,5.8,4.4,14.7-1.5,19.7c-9.3,8-14.1,16.3-14.5,24.6c-0.5,13.3,10.2,24.3,10.3,24.4
	c5.4,5.4,5.4,14.3,0,19.7C1058.5,313.5,1054.9,314.9,1051.4,314.9z"/>
<path class="st3" d="M1031.6,280.2c-0.6,0-1.2,0-1.8-0.1c-16.4-2.1-25.2-10.6-29.6-17.4c-12.4-18.8-5.9-44.2-5.1-47.1
	c2.1-7.4,9.8-11.8,17.2-9.7s11.8,9.7,9.7,17.1c-1.1,4.1-3.2,17.3,1.5,24.3c1.2,1.8,3.5,4.3,9.9,5.1c7.6,1,13,8,12,15.6
	C1044.5,275.1,1038.5,280.2,1031.6,280.2z"/>
<path class="st3" d="M1388,410.4c-1.7-21.4-12.2-39.7-20.4-51.2c-1-2.2-2-4.4-3.1-6.5c6.9,4.1,12.1,2.5,12.1,2.5
	c-14-28.9-35.3-43.5-47.7-49.9c-1.6-1.5-3.2-3-4.8-4.5c5.9-0.7,9.3-3.3,9.3-3.3c-29.7-25-69-35-78.9-37.2
	c-20.9-7.2-43.6-11.2-67.5-11.2c-25.5,0-48.4,4-68.8,10.7l0,0c0,0-47,8.9-81.2,37.7c0,0,4.1,3.2,11.1,3.5c-0.8,0.7-1.6,1.5-2.4,2.2
	c-11.1,5-36.1,19.4-51.9,51.9c0,0,7.2,2.2,16-5.3c-0.2,0.4-0.4,0.8-0.6,1.2c-7.7,9-24.7,31.7-26.8,59.3c0,0,6,0.5,8.6-5.6
	c-2.1,7.3-7.6,31.3,7.2,50.8c0,0,3.9-0.3,6.2-4.2c39,28.4,177.2,20,234.7,20c44.7,0,101.5,6,127.4-19.4c2.3,3.3,5.8,3.5,5.8,3.5
	c13.1-17.2,10.4-38,8.1-47.6c0-0.6-0.1-1.3-0.1-1.9C1382.9,410.7,1388,410.4,1388,410.4z"/>
<path class="st1" d="M1004.3,451.5c39,28.4,177.2,20,234.7,20c44.7,0,101.5,6,127.4-19.4c2.3,3.3,5.8,3.5,5.8,3.5
	c13.1-17.2,10.4-38,8.1-47.6c0-0.6-0.1-1.3-0.1-1.9c2.8,4.6,7.9,4.3,7.9,4.3c-1.7-21.4-12.2-39.7-20.4-51.2c-1-2.2-2-4.4-3.1-6.5
	c6.9,4.1,12.1,2.5,12.1,2.5c-14-28.9-35.3-43.5-47.7-49.9c-1.6-1.5-3.2-3-4.8-4.5c5.9-0.7,9.3-3.3,9.3-3.3c-29.7-25-69-35-78.9-37.2
	c0,0,83.6,44.2,103.3,79.6c0,0-3.1,1.3-9.5-4.7c0,0,32.7,67,26.4,105.1c0,0-4.4-6-5.4-14c0,0-11.2,34.2-93.5,40
	c-82.4,5.8-60.9-13.5-146.1-2.3C1044.7,475.2,1004.3,451.5,1004.3,451.5z"/>
<g>
	<g>
		<ellipse class="st4" cx="1115.5" cy="339.9" rx="50.5" ry="50.5"/>
		<path class="st5" d="M1165.9,337c-0.2-2.8-0.6-5.6-1.2-8.2c0.1,0.8,0.1,1.6,0.2,2.3c1.6,27.8-19.7,51.7-47.5,53.3
			c-25,1.4-46.8-15.6-52.2-39.3c2.8,26.7,26.1,46.7,53.1,45.2C1146.2,388.7,1167.5,364.8,1165.9,337z"/>
		<path class="st3" d="M1133.5,334.1c0.6,10.9-7.7,20.2-18.6,20.9c-10.9,0.6-20.2-7.7-20.9-18.6c-0.6-10.9,7.7-20.2,18.6-20.9
			C1123.5,314.8,1132.8,323.2,1133.5,334.1z"/>
		<path class="st6" d="M1124.6,334.6c0.3,6-4.2,11.2-10.3,11.5c-6,0.3-11.2-4.2-11.5-10.3c-0.3-6,4.2-11.2,10.3-11.5
			C1119.1,324,1124.3,328.6,1124.6,334.6z"/>
		<path class="st4" d="M1127.2,326.3c0.2,3.4-2.4,6.4-5.8,6.5c-3.4,0.2-6.4-2.4-6.5-5.8c-0.2-3.4,2.4-6.4,5.8-6.5
			C1124.1,320.3,1127,322.9,1127.2,326.3z"/>
	</g>
	<g>
		<path class="st4" d="M1306,337c1.6,27.8-19.7,51.7-47.5,53.3c-27.8,1.6-51.7-19.7-53.3-47.5c-1.6-27.8,19.7-51.7,47.5-53.3
			C1280.5,287.9,1304.4,309.2,1306,337z"/>
		<path class="st5" d="M1306,337c-0.2-2.8-0.6-5.6-1.2-8.2c0.1,0.8,0.1,1.6,0.2,2.3c1.6,27.8-19.7,51.7-47.5,53.3
			c-25,1.4-46.8-15.6-52.2-39.3c2.8,26.7,26.1,46.7,53.1,45.2C1286.3,388.7,1307.6,364.8,1306,337z"/>
		<path class="st3" d="M1273.6,334.1c0.6,10.9-7.7,20.2-18.6,20.9c-10.9,0.6-20.2-7.7-20.9-18.6c-0.6-10.9,7.7-20.2,18.6-20.9
			C1263.6,314.8,1272.9,323.2,1273.6,334.1z"/>
		<path class="st6" d="M1264.7,334.6c0.3,6-4.2,11.2-10.3,11.5c-6,0.3-11.2-4.2-11.5-10.3c-0.3-6,4.2-11.2,10.3-11.5
			C1259.2,324,1264.4,328.6,1264.7,334.6z"/>
		<path class="st4" d="M1267.3,326.3c0.2,3.4-2.4,6.4-5.8,6.5c-3.4,0.2-6.4-2.4-6.6-5.8s2.4-6.4,5.8-6.5
			C1264.2,320.3,1267.1,322.9,1267.3,326.3z"/>
	</g>
</g>
<path class="st7" d="M1185.2,421.4c-10.6,0-19.2-8.6-19.2-19.2c0-1.5,1.2-2.8,2.8-2.8c1.5,0,2.8,1.2,2.8,2.8
	c0,7.5,6.1,13.6,13.6,13.6s13.6-6.1,13.6-13.6c0-1.5,1.2-2.8,2.8-2.8s2.8,1.2,2.8,2.8C1204.3,412.8,1195.7,421.4,1185.2,421.4z"/>
<ellipse class="st8" cx="736.3" cy="498.1" rx="928.1" ry="81.6"/>
</svg>
