<?xml version="1.0" encoding="utf-8"?>
<!-- Generator: Adobe Illustrator 22.0.0, SVG Export Plug-In . SVG Version: 6.00 Build 0)  -->
<svg version="1.1" id="Layer_1" xmlns="http://www.w3.org/2000/svg" xmlns:xlink="http://www.w3.org/1999/xlink" x="0px" y="0px"
	 viewBox="0 0 1329.2 200" style="enable-background:new 0 0 1329.2 200;" xml:space="preserve">
<style type="text/css">
	.st0{fill:#F3DB22;}
	.st1{fill:#E5C823;}
	.st2{fill:#18662B;}
	.st3{fill:#175622;}
	.st4{fill:#218942;}
	.st5{fill:#1F7736;}
	.st6{fill:#491B2D;}
	.st7{fill:#230812;}
	.st8{fill:#501627;}
	.st9{fill:#3D101F;}
	.st10{fill:#96B127;}
	.st11{fill:#91A325;}
	.st12{fill:#B0D133;}
	.st13{fill:#D27117;}
	.st14{fill:#C36515;}
	.st15{fill:#F6901B;}
	.st16{fill:#E47E17;}
	.st17{fill:#C0A01D;}
	.st18{fill:#D2B420;}
	.st19{fill:#582D7A;}
	.st20{fill:#4C296B;}
	.st21{fill:#753B95;}
	.st22{fill:#663386;}
	.st23{fill:#DC519B;}
	.st24{fill:#A73983;}
	.st25{fill:#BA428D;}
	.st26{fill:#CA4791;}
	.st27{fill:#FFFFFF;}
	.st28{fill:#FCAC34;}
	.st29{fill:#8C5710;}
	.st30{fill:#E7E7E7;}
	.st31{fill:#F56A82;}
	.st32{fill:#5B6D13;}
	.st33{fill:#603D48;}
	.st34{fill:#6B390B;}
	.st35{fill:#66C1C6;}
	.st36{fill:#266363;}
</style>
<path class="st0" d="M785.7,95.7l-5.8-6.4c0,0-15.4,16.8-8.1,45.2c6.5,25.1,22.4,11.2,17.2-3.8C783.8,115.8,785.7,95.7,785.7,95.7z"
	/>
<path class="st1" d="M789,130.8c-5.2-15-3.3-35.1-3.3-35.1l-8.8-2.2c-2.9,9.6,6.6,28.8,7.8,34.3c1.2,5.4,2.8,11,0.6,15.5
	c-2.2,4.6-9.1,1.6-9.1,1.6C783.5,154.5,793.2,143,789,130.8z"/>
<path class="st2" d="M978.7,94.7l-5.8-6.4c0,0-15.4,16.8-8.1,45.2c6.5,25.1,22.4,11.2,17.2-3.8C976.8,114.8,978.7,94.7,978.7,94.7z"
	/>
<path class="st3" d="M982,129.8c-5.2-15-3.3-35.1-3.3-35.1l-8.8-2.2c-2.9,9.6,6.6,28.8,7.8,34.3c1.2,5.4,2.8,11,0.6,15.5
	c-2.2,4.6-9.1,1.6-9.1,1.6C976.5,153.5,986.2,142,982,129.8z"/>
<path class="st3" d="M1091.8,94.7l5.8-6.4c0,0,15.4,16.8,8.1,45.2c-6.5,25.1-22.4,11.2-17.2-3.8
	C1093.7,114.8,1091.8,94.7,1091.8,94.7z"/>
<path class="st2" d="M1088.5,129.8c-1.2,3.8-1.3,7.4-0.4,10.5c1.2,4.1,6.3,4.9,7.1,0c0.3-1.8,1-6.1,0.1-8.7
	C1093.8,127.1,1090.1,124.8,1088.5,129.8z"/>
<path class="st2" d="M1013.2,142.2c0,0-2.9,36.3-8.1,38.7c-5.3,2.5-3.4,4,9.3,4c12.7,0,15.1-1.2,15.8-11.7
	c0.6-10.5-3.2-27.4-3.2-27.4L1013.2,142.2z"/>
<path class="st2" d="M1064.8,181c-5.3-2.5-8.1-38.7-8.1-38.7l-13.7,3.6c0,0-3.8,16.9-3.2,27.4c0.6,10.5,3.1,11.7,15.8,11.7
	C1068.2,185,1070,183.5,1064.8,181z"/>
<path class="st3" d="M1027.5,170.6c-2,10.7-10.1,15.3-22.1,13.9c2,0.3,4.9,0.5,9,0.5c12.7,0,15.1-1.2,15.8-11.7
	c0.6-10.5-3.2-27.4-3.2-27.4l-13.7-3.6c0,0,2.2,2.2,7,4.3C1025,148.7,1029.5,160,1027.5,170.6z"/>
<path class="st3" d="M1057,163.6c0.9,10.4,8,21.8-6.2,21.3l0,0c1.4,0.1,2.9,0.1,4.6,0.1c12.7,0,14.5-1.5,9.3-4
	c-5.3-2.5-8.1-38.7-8.1-38.7l-13.7,3.6c0,0,3.8,1.3,6.9,1.3S1056.1,153.2,1057,163.6z"/>
<path class="st4" d="M1098,65.8c2.3,3,5.7,4.8,5.7,4.8c-1.2-14.5-20.2-31-20.2-31c6.4,2.2,6.5,0.2,6.5,0.2
	c-18.5-18.7-40.1-17.6-40.1-17.6c2.2-0.2,3.7-3,3.7-3c-9.2-3-16.8,1.6-16.8,1.6s-9.1-2.4-12.4-6.9c0,0-2.9,5.8,2.5,8.7
	c0,0-11.1-4.5-25.6,2.1c0,0,4.1,2.9,8.7,2.9c0,0-20.2,0.4-35.5,23.1c0,0,3.1,0.9,6.3-1.1c-3.7,3.8-10.1,11.9-11.8,23.4
	c0,0,2.4-0.4,4.2-3.2c-2.2,5.5-6,18.9-0.7,36.9c0,0,1.6-0.1,2-7.9c0,0,4.4,29.6,21.1,42.3c0,0,2-3.7-0.4-9.3c0,0,10.9,10.2,12.1,17
	c0,0,2.4-4.2,0.7-8.6c0,0,9.2,6.6,28.3,6.6c19.2,0,30.2-7.6,30.2-7.6c-1.1,3.8,2.3,7.6,2.3,7.6c0.3-6.3,8.7-15,8.7-15
	c-3.2,2.9-0.4,9-0.4,9c6-5.1,10.2-15.1,12.1-20.3c-0.4,3.6,1.8,6.1,1.8,6.1c8.1-8.7,7.6-29.7,7.6-29.7c0.5,5.2,5,9.6,5,9.6
	C1107.4,86.7,1098,65.8,1098,65.8z"/>
<path class="st5" d="M995.1,131.5c0,0,10.9,10.2,12.1,17c0,0,2.4-4.2,0.7-8.6c0,0,9.2,6.6,28.3,6.6c19.2,0,30.2-7.6,30.2-7.6
	c-1.1,3.8,2.3,7.6,2.3,7.6c0.3-6.3,8.7-15,8.7-15c-3.2,2.9-0.4,9-0.4,9c6-5.1,10.2-15.1,12.1-20.3c-0.4,3.6,1.8,6.1,1.8,6.1
	c8.1-8.7,7.6-29.7,7.6-29.7c0.5,5.2,5,9.6,5,9.6c3.7-19.5-5.7-40.3-5.7-40.3c2.3,3,5.7,4.8,5.7,4.8c-1.2-14.5-20.2-31-20.2-31
	c6.4,2.2,6.5,0.2,6.5,0.2c-18.5-18.7-40.1-17.6-40.1-17.6s2.2-0.2,4.9,2.8c2.7,3.1,6,7.3,12.7,9.5c6.7,2.2,23.4,10.7,28.2,24.6
	c0,0-4-1.2-5.8-3.6c0,0,14.7,29.6,3.8,57.3c0,0-2.7-2.8-2.1-6.7c0,0-11.4,32.9-50.7,36.2C1009.3,144.9,995.1,131.5,995.1,131.5z"/>
<path class="st6" d="M1160.7,92.7l-5.8-6.4c0,0-15.4,16.8-8.1,45.2c6.5,25.1,22.4,11.2,17.2-3.8
	C1158.8,112.8,1160.7,92.7,1160.7,92.7z"/>
<path class="st7" d="M1164,127.8c-5.2-15-3.3-35.1-3.3-35.1l-8.8-2.2c-2.9,9.6,6.6,28.8,7.8,34.3c1.2,5.4,2.8,11,0.6,15.5
	c-2.2,4.6-9.1,1.6-9.1,1.6C1158.5,151.5,1168.2,140,1164,127.8z"/>
<path class="st7" d="M1273.8,92.7l5.8-6.4c0,0,15.4,16.8,8.1,45.2c-6.5,25.1-22.4,11.2-17.2-3.8
	C1275.7,112.8,1273.8,92.7,1273.8,92.7z"/>
<path class="st6" d="M1270.5,127.8c-1.2,3.8-1.3,7.4-0.4,10.5c1.2,4.1,6.3,4.9,7.1,0c0.3-1.8,1-6.1,0.1-8.7
	C1275.8,125.1,1272.1,122.8,1270.5,127.8z"/>
<path class="st6" d="M1195.2,140.2c0,0-2.9,36.3-8.1,38.7c-5.3,2.5-3.4,4,9.3,4c12.7,0,15.1-1.2,15.8-11.7
	c0.6-10.5-3.2-27.4-3.2-27.4L1195.2,140.2z"/>
<path class="st6" d="M1246.8,179c-5.3-2.5-8.1-38.7-8.1-38.7l-13.7,3.6c0,0-3.8,16.9-3.2,27.4c0.6,10.5,3.1,11.7,15.8,11.7
	C1250.2,183,1252,181.5,1246.8,179z"/>
<path class="st7" d="M1209.5,168.6c-2,10.7-10.1,15.3-22.1,13.9c2,0.3,4.9,0.5,9,0.5c12.7,0,15.1-1.2,15.8-11.7
	c0.6-10.5-3.2-27.4-3.2-27.4l-13.7-3.6c0,0,2.2,2.2,7,4.3C1207,146.7,1211.5,158,1209.5,168.6z"/>
<path class="st7" d="M1239,161.6c0.9,10.4,8,21.8-6.2,21.3l0,0c1.4,0.1,2.9,0.1,4.6,0.1c12.7,0,14.5-1.5,9.3-4
	c-5.3-2.5-8.1-38.7-8.1-38.7l-13.7,3.6c0,0,3.8,1.3,6.9,1.3S1238.1,151.2,1239,161.6z"/>
<path class="st8" d="M1280,63.8c2.3,3,5.7,4.8,5.7,4.8c-1.2-14.5-20.2-31-20.2-31c6.4,2.2,6.5,0.2,6.5,0.2
	c-18.5-18.7-40.1-17.6-40.1-17.6c2.2-0.2,3.7-3,3.7-3c-9.2-3-16.8,1.6-16.8,1.6s-9.1-2.4-12.4-6.9c0,0-2.9,5.8,2.5,8.7
	c0,0-11.1-4.5-25.6,2.1c0,0,4.1,2.9,8.7,2.9c0,0-20.2,0.4-35.5,23.1c0,0,3.1,0.9,6.3-1.1c-3.7,3.8-10.1,11.9-11.8,23.4
	c0,0,2.4-0.4,4.2-3.2c-2.2,5.5-6,18.9-0.7,36.9c0,0,1.6-0.1,2-7.9c0,0,4.4,29.6,21.1,42.3c0,0,2-3.7-0.4-9.3c0,0,10.9,10.2,12.1,17
	c0,0,2.4-4.2,0.7-8.6c0,0,9.2,6.6,28.3,6.6c19.2,0,30.2-7.6,30.2-7.6c-1.1,3.8,2.3,7.6,2.3,7.6c0.3-6.3,8.7-15,8.7-15
	c-3.2,2.9-0.4,9-0.4,9c6-5.1,10.2-15.1,12.1-20.3c-0.4,3.6,1.8,6.1,1.8,6.1c8.1-8.7,7.6-29.7,7.6-29.7c0.5,5.2,5,9.6,5,9.6
	C1289.4,84.7,1280,63.8,1280,63.8z"/>
<path class="st9" d="M1177.1,129.5c0,0,10.9,10.2,12.1,17c0,0,2.4-4.2,0.7-8.6c0,0,9.2,6.6,28.3,6.6c19.2,0,30.2-7.6,30.2-7.6
	c-1.1,3.8,2.3,7.6,2.3,7.6c0.3-6.3,8.7-15,8.7-15c-3.2,2.9-0.4,9-0.4,9c6-5.1,10.2-15.1,12.1-20.3c-0.4,3.6,1.8,6.1,1.8,6.1
	c8.1-8.7,7.6-29.7,7.6-29.7c0.5,5.2,5,9.6,5,9.6c3.7-19.5-5.7-40.3-5.7-40.3c2.3,3,5.7,4.8,5.7,4.8c-1.2-14.5-20.2-31-20.2-31
	c6.4,2.2,6.5,0.2,6.5,0.2c-18.5-18.7-40.1-17.6-40.1-17.6s2.2-0.2,4.9,2.8c2.7,3.1,6,7.3,12.7,9.5c6.7,2.2,23.4,10.7,28.2,24.6
	c0,0-4-1.2-5.8-3.6c0,0,14.7,29.6,3.8,57.3c0,0-2.7-2.8-2.1-6.7c0,0-11.4,32.9-50.7,36.2C1191.3,142.9,1177.1,129.5,1177.1,129.5z"
	/>
<path class="st10" d="M422.7,96.7l-5.8-6.4c0,0-15.4,16.8-8.1,45.2c6.5,25.1,22.4,11.2,17.2-3.8C420.8,116.8,422.7,96.7,422.7,96.7z
	"/>
<path class="st11" d="M426,131.8c-5.2-15-3.3-35.1-3.3-35.1l-8.8-2.2c-2.9,9.6,6.6,28.8,7.8,34.3c1.2,5.4,2.8,11,0.6,15.5
	c-2.2,4.6-9.1,1.6-9.1,1.6C420.5,155.5,430.2,144,426,131.8z"/>
<path class="st11" d="M535.8,96.7l5.8-6.4c0,0,15.4,16.8,8.1,45.2c-6.5,25.1-22.4,11.2-17.2-3.8C537.7,116.8,535.8,96.7,535.8,96.7z
	"/>
<path class="st10" d="M532.5,131.8c-1.2,3.8-1.3,7.4-0.4,10.5c1.2,4.1,6.3,4.9,7.1,0c0.3-1.8,1-6.1,0.1-8.7
	C537.8,129.1,534.1,126.8,532.5,131.8z"/>
<path class="st10" d="M457.2,144.2c0,0-2.9,36.3-8.1,38.7c-5.3,2.5-3.4,4,9.3,4c12.7,0,15.1-1.2,15.8-11.7
	c0.6-10.5-3.2-27.4-3.2-27.4L457.2,144.2z"/>
<path class="st10" d="M508.8,183c-5.3-2.5-8.1-38.7-8.1-38.7l-13.7,3.6c0,0-3.8,16.9-3.2,27.4c0.6,10.5,3.1,11.7,15.8,11.7
	C512.2,187,514,185.5,508.8,183z"/>
<path class="st11" d="M471.5,172.6c-2,10.7-10.1,15.3-22.1,13.9c2,0.3,4.9,0.5,9,0.5c12.7,0,15.1-1.2,15.8-11.7
	c0.6-10.5-3.2-27.4-3.2-27.4l-13.7-3.6c0,0,2.2,2.2,7,4.3C469,150.7,473.5,162,471.5,172.6z"/>
<path class="st11" d="M501,165.6c0.9,10.4,8,21.8-6.2,21.3l0,0c1.4,0.1,2.9,0.1,4.6,0.1c12.7,0,14.5-1.5,9.3-4
	c-5.3-2.5-8.1-38.7-8.1-38.7l-13.7,3.6c0,0,3.8,1.3,6.9,1.3S500.1,155.2,501,165.6z"/>
<path class="st12" d="M542,67.8c2.3,3,5.7,4.8,5.7,4.8c-1.2-14.5-20.2-31-20.2-31c6.4,2.2,6.5,0.2,6.5,0.2
	c-18.5-18.7-40.1-17.6-40.1-17.6c2.2-0.2,3.7-3,3.7-3c-9.2-3-16.8,1.6-16.8,1.6s-9.1-2.4-12.4-6.9c0,0-2.9,5.8,2.5,8.7
	c0,0-11.1-4.5-25.6,2.1c0,0,4.1,2.9,8.7,2.9c0,0-20.2,0.4-35.5,23.1c0,0,3.1,0.9,6.3-1.1c-3.7,3.8-10.1,11.9-11.8,23.4
	c0,0,2.4-0.4,4.2-3.2c-2.2,5.5-6,18.9-0.7,36.9c0,0,1.6-0.1,2-7.9c0,0,4.4,29.6,21.1,42.3c0,0,2-3.7-0.4-9.3c0,0,10.9,10.2,12.1,17
	c0,0,2.4-4.2,0.7-8.6c0,0,9.2,6.6,28.3,6.6c19.2,0,30.2-7.6,30.2-7.6c-1.1,3.8,2.3,7.6,2.3,7.6c0.3-6.3,8.7-15,8.7-15
	c-3.2,2.9-0.4,9-0.4,9c6-5.1,10.2-15.1,12.1-20.3c-0.4,3.6,1.8,6.1,1.8,6.1c8.1-8.7,7.6-29.7,7.6-29.7c0.5,5.2,5,9.6,5,9.6
	C551.4,88.7,542,67.8,542,67.8z"/>
<path class="st10" d="M439.1,133.5c0,0,10.9,10.2,12.1,17c0,0,2.4-4.2,0.7-8.6c0,0,9.2,6.6,28.3,6.6c19.2,0,30.2-7.6,30.2-7.6
	c-1.1,3.8,2.3,7.6,2.3,7.6c0.3-6.3,8.7-15,8.7-15c-3.2,2.9-0.4,9-0.4,9c6-5.1,10.2-15.1,12.1-20.3c-0.4,3.6,1.8,6.1,1.8,6.1
	c8.1-8.7,7.6-29.7,7.6-29.7c0.5,5.2,5,9.6,5,9.6c3.7-19.5-5.7-40.3-5.7-40.3c2.3,3,5.7,4.8,5.7,4.8c-1.2-14.5-20.2-31-20.2-31
	c6.4,2.2,6.5,0.2,6.5,0.2c-18.5-18.7-40.1-17.6-40.1-17.6s2.2-0.2,4.9,2.8c2.7,3.1,6,7.3,12.7,9.5c6.7,2.2,23.4,10.7,28.2,24.6
	c0,0-4-1.2-5.8-3.6c0,0,14.7,29.6,3.8,57.3c0,0-2.7-2.8-2.1-6.7c0,0-11.4,32.9-50.7,36.2C453.3,146.9,439.1,133.5,439.1,133.5z"/>
<path class="st13" d="M604.7,94.7l-5.8-6.4c0,0-15.4,16.8-8.1,45.2c6.5,25.1,22.4,11.2,17.2-3.8C602.8,114.8,604.7,94.7,604.7,94.7z
	"/>
<path class="st14" d="M608,129.8c-5.2-15-3.3-35.1-3.3-35.1l-8.8-2.2c-2.9,9.6,6.6,28.8,7.8,34.3c1.2,5.4,2.8,11,0.6,15.5
	c-2.2,4.6-9.1,1.6-9.1,1.6C602.5,153.5,612.2,142,608,129.8z"/>
<path class="st14" d="M717.8,94.7l5.8-6.4c0,0,15.4,16.8,8.1,45.2c-6.5,25.1-22.4,11.2-17.2-3.8C719.7,114.8,717.8,94.7,717.8,94.7z
	"/>
<path class="st13" d="M714.5,129.8c-1.2,3.8-1.3,7.4-0.4,10.5c1.2,4.1,6.3,4.9,7.1,0c0.3-1.8,1-6.1,0.1-8.7
	C719.8,127.1,716.1,124.8,714.5,129.8z"/>
<path class="st13" d="M639.2,142.2c0,0-2.9,36.3-8.1,38.7c-5.3,2.5-3.4,4,9.3,4s15.1-1.2,15.8-11.7c0.6-10.5-3.2-27.4-3.2-27.4
	L639.2,142.2z"/>
<path class="st13" d="M690.8,181c-5.3-2.5-8.1-38.7-8.1-38.7l-13.7,3.6c0,0-3.8,16.9-3.2,27.4c0.6,10.5,3.1,11.7,15.8,11.7
	C694.2,185,696,183.5,690.8,181z"/>
<path class="st14" d="M653.5,170.6c-2,10.7-10.1,15.3-22.1,13.9c2,0.3,4.9,0.5,9,0.5c12.7,0,15.1-1.2,15.8-11.7
	c0.6-10.5-3.2-27.4-3.2-27.4l-13.7-3.6c0,0,2.2,2.2,7,4.3C651,148.7,655.5,160,653.5,170.6z"/>
<path class="st14" d="M683,163.6c0.9,10.4,8,21.8-6.2,21.3l0,0c1.4,0.1,2.9,0.1,4.6,0.1c12.7,0,14.5-1.5,9.3-4
	c-5.3-2.5-8.1-38.7-8.1-38.7l-13.7,3.6c0,0,3.8,1.3,6.9,1.3C679,147.1,682.1,153.2,683,163.6z"/>
<path class="st15" d="M724,65.8c2.3,3,5.7,4.8,5.7,4.8c-1.2-14.5-20.2-31-20.2-31c6.4,2.2,6.5,0.2,6.5,0.2
	c-18.5-18.7-40.1-17.6-40.1-17.6c2.2-0.2,3.7-3,3.7-3c-9.2-3-16.8,1.6-16.8,1.6s-9.1-2.4-12.4-6.9c0,0-2.9,5.8,2.5,8.7
	c0,0-11.1-4.5-25.6,2.1c0,0,4.1,2.9,8.7,2.9c0,0-20.2,0.4-35.5,23.1c0,0,3.1,0.9,6.3-1.1c-3.7,3.8-10.1,11.9-11.8,23.4
	c0,0,2.4-0.4,4.2-3.2c-2.2,5.5-6,18.9-0.7,36.9c0,0,1.6-0.1,2-7.9c0,0,4.4,29.6,21.1,42.3c0,0,2-3.7-0.4-9.3c0,0,10.9,10.2,12.1,17
	c0,0,2.4-4.2,0.7-8.6c0,0,9.2,6.6,28.3,6.6c19.2,0,30.2-7.6,30.2-7.6c-1.1,3.8,2.3,7.6,2.3,7.6c0.3-6.3,8.7-15,8.7-15
	c-3.2,2.9-0.4,9-0.4,9c6-5.1,10.2-15.1,12.1-20.3c-0.4,3.6,1.8,6.1,1.8,6.1c8.1-8.7,7.6-29.7,7.6-29.7c0.5,5.2,5,9.6,5,9.6
	C733.4,86.7,724,65.8,724,65.8z"/>
<path class="st16" d="M621.1,131.5c0,0,10.9,10.2,12.1,17c0,0,2.4-4.2,0.7-8.6c0,0,9.2,6.6,28.3,6.6c19.2,0,30.2-7.6,30.2-7.6
	c-1.1,3.8,2.3,7.6,2.3,7.6c0.3-6.3,8.7-15,8.7-15c-3.2,2.9-0.4,9-0.4,9c6-5.1,10.2-15.1,12.1-20.3c-0.4,3.6,1.8,6.1,1.8,6.1
	c8.1-8.7,7.6-29.7,7.6-29.7c0.5,5.2,5,9.6,5,9.6c3.7-19.5-5.7-40.3-5.7-40.3c2.3,3,5.7,4.8,5.7,4.8c-1.2-14.5-20.2-31-20.2-31
	c6.4,2.2,6.5,0.2,6.5,0.2c-18.5-18.7-40.1-17.6-40.1-17.6s2.2-0.2,4.9,2.8c2.7,3.1,6,7.3,12.7,9.5c6.7,2.2,23.4,10.7,28.2,24.6
	c0,0-4-1.2-5.8-3.6c0,0,14.7,29.6,3.8,57.3c0,0-2.7-2.8-2.1-6.7c0,0-11.4,32.9-50.7,36.2C635.3,144.9,621.1,131.5,621.1,131.5z"/>
<path class="st17" d="M899.8,94.7l5.8-6.4c0,0,15.4,16.8,8.1,45.2c-6.5,25.1-22.4,11.2-17.2-3.8C901.7,114.8,899.8,94.7,899.8,94.7z
	"/>
<path class="st18" d="M896.5,129.8c-1.2,3.8-1.3,7.4-0.4,10.5c1.2,4.1,6.3,4.9,7.1,0c0.3-1.8,1-6.1,0.1-8.7
	C901.8,127.1,898.1,124.8,896.5,129.8z"/>
<path class="st18" d="M821.2,142.2c0,0-2.9,36.3-8.1,38.7c-5.3,2.5-3.4,4,9.3,4s15.1-1.2,15.8-11.7c0.6-10.5-3.2-27.4-3.2-27.4
	L821.2,142.2z"/>
<path class="st18" d="M872.8,181c-5.3-2.5-8.1-38.7-8.1-38.7l-13.7,3.6c0,0-3.8,16.9-3.2,27.4c0.6,10.5,3.1,11.7,15.8,11.7
	C876.2,185,878,183.5,872.8,181z"/>
<path class="st17" d="M835.5,170.6c-2,10.7-10.1,15.3-22.1,13.9c2,0.3,4.9,0.5,9,0.5c12.7,0,15.1-1.2,15.8-11.7
	c0.6-10.5-3.2-27.4-3.2-27.4l-13.7-3.6c0,0,2.2,2.2,7,4.3C833,148.7,837.5,160,835.5,170.6z"/>
<path class="st17" d="M865,163.6c0.9,10.4,8,21.8-6.2,21.3l0,0c1.4,0.1,2.9,0.1,4.6,0.1c12.7,0,14.5-1.5,9.3-4
	c-5.3-2.5-8.1-38.7-8.1-38.7l-13.7,3.6c0,0,3.8,1.3,6.9,1.3C861,147.1,864.1,153.2,865,163.6z"/>
<path class="st0" d="M906,65.8c2.3,3,5.7,4.8,5.7,4.8c-1.2-14.5-20.2-31-20.2-31c6.4,2.2,6.5,0.2,6.5,0.2
	c-18.5-18.7-40.1-17.6-40.1-17.6c2.2-0.2,3.7-3,3.7-3c-9.2-3-16.8,1.6-16.8,1.6s-9.1-2.4-12.4-6.9c0,0-2.9,5.8,2.5,8.7
	c0,0-11.1-4.5-25.6,2.1c0,0,4.1,2.9,8.7,2.9c0,0-20.2,0.4-35.5,23.1c0,0,3.1,0.9,6.3-1.1c-3.7,3.8-10.1,11.9-11.8,23.4
	c0,0,2.4-0.4,4.2-3.2c-2.2,5.5-6,18.9-0.7,36.9c0,0,1.6-0.1,2-7.9c0,0,4.4,29.6,21.1,42.3c0,0,2-3.7-0.4-9.3c0,0,10.9,10.2,12.1,17
	c0,0,2.4-4.2,0.7-8.6c0,0,9.2,6.6,28.3,6.6c19.2,0,30.2-7.6,30.2-7.6c-1.1,3.8,2.3,7.6,2.3,7.6c0.3-6.3,8.7-15,8.7-15
	c-3.2,2.9-0.4,9-0.4,9c6-5.1,10.2-15.1,12.1-20.3c-0.4,3.6,1.8,6.1,1.8,6.1c8.1-8.7,7.6-29.7,7.6-29.7c0.5,5.2,5,9.6,5,9.6
	C915.4,86.7,906,65.8,906,65.8z"/>
<path class="st1" d="M803.1,131.5c0,0,10.9,10.2,12.1,17c0,0,2.4-4.2,0.7-8.6c0,0,9.2,6.6,28.3,6.6c19.2,0,30.2-7.6,30.2-7.6
	c-1.1,3.8,2.3,7.6,2.3,7.6c0.3-6.3,8.7-15,8.7-15c-3.2,2.9-0.4,9-0.4,9c6-5.1,10.2-15.1,12.1-20.3c-0.4,3.6,1.8,6.1,1.8,6.1
	c8.1-8.7,7.6-29.7,7.6-29.7c0.5,5.2,5,9.6,5,9.6c3.7-19.5-5.7-40.3-5.7-40.3c2.3,3,5.7,4.8,5.7,4.8c-1.2-14.5-20.2-31-20.2-31
	c6.4,2.2,6.5,0.2,6.5,0.2c-18.5-18.7-40.1-17.6-40.1-17.6s2.2-0.2,4.9,2.8c2.7,3.1,6,7.3,12.7,9.5c6.7,2.2,23.4,10.7,28.2,24.6
	c0,0-4-1.2-5.8-3.6c0,0,14.7,29.6,3.8,57.3c0,0-2.7-2.8-2.1-6.7c0,0-11.4,32.9-50.7,36.2C817.3,144.9,803.1,131.5,803.1,131.5z"/>
<path class="st19" d="M61.7,102.7l-5.8-6.4c0,0-15.4,16.8-8.1,45.2c6.5,25.1,22.4,11.2,17.2-3.8C59.8,122.8,61.7,102.7,61.7,102.7z"
	/>
<path class="st20" d="M65,137.8c-5.2-15-3.3-35.1-3.3-35.1l-8.8-2.2c-2.9,9.6,6.6,28.8,7.8,34.3c1.2,5.4,2.8,11,0.6,15.5
	c-2.2,4.6-9.1,1.6-9.1,1.6C59.5,161.5,69.2,150,65,137.8z"/>
<path class="st20" d="M174.8,102.7l5.8-6.4c0,0,15.4,16.8,8.1,45.2c-6.5,25.1-22.4,11.2-17.2-3.8
	C176.7,122.8,174.8,102.7,174.8,102.7z"/>
<path class="st19" d="M171.5,137.8c-1.2,3.8-1.3,7.4-0.4,10.5c1.2,4.1,6.3,4.9,7.1,0c0.3-1.8,1-6.1,0.1-8.7
	C176.8,135.1,173.1,132.8,171.5,137.8z"/>
<path class="st19" d="M96.2,150.2c0,0-2.9,36.3-8.1,38.7c-5.3,2.5-3.4,4,9.3,4s15.1-1.2,15.8-11.7c0.6-10.5-3.2-27.4-3.2-27.4
	L96.2,150.2z"/>
<path class="st19" d="M147.8,189c-5.3-2.5-8.1-38.7-8.1-38.7l-13.7,3.6c0,0-3.8,16.9-3.2,27.4c0.6,10.5,3.1,11.7,15.8,11.7
	C151.2,193,153,191.5,147.8,189z"/>
<path class="st20" d="M110.5,178.6c-2,10.7-10.1,15.3-22.1,13.9c2,0.3,4.9,0.5,9,0.5c12.7,0,15.1-1.2,15.8-11.7
	c0.6-10.5-3.2-27.4-3.2-27.4l-13.7-3.6c0,0,2.2,2.2,7,4.3C108,156.7,112.5,168,110.5,178.6z"/>
<path class="st20" d="M140,171.6c0.9,10.4,8,21.8-6.2,21.3l0,0c1.4,0.1,2.9,0.1,4.6,0.1c12.7,0,14.5-1.5,9.3-4
	c-5.3-2.5-8.1-38.7-8.1-38.7l-13.7,3.6c0,0,3.8,1.3,6.9,1.3C136,155.1,139.1,161.2,140,171.6z"/>
<path class="st21" d="M181,73.8c2.3,3,5.7,4.8,5.7,4.8c-1.2-14.5-20.2-31-20.2-31c6.4,2.2,6.5,0.2,6.5,0.2
	c-18.5-18.7-40.1-17.6-40.1-17.6c2.2-0.2,3.7-3,3.7-3c-9.2-3-16.8,1.6-16.8,1.6s-9.1-2.4-12.4-6.9c0,0-2.9,5.8,2.5,8.7
	c0,0-11.1-4.5-25.6,2.1c0,0,4.1,2.9,8.7,2.9c0,0-20.2,0.4-35.5,23.1c0,0,3.1,0.9,6.3-1.1c-3.7,3.8-10.1,11.9-11.8,23.4
	c0,0,2.4-0.4,4.2-3.2c-2.2,5.5-6,18.9-0.7,36.9c0,0,1.6-0.1,2-7.9c0,0,4.4,29.6,21.1,42.3c0,0,2-3.7-0.4-9.3c0,0,10.9,10.2,12.1,17
	c0,0,2.4-4.2,0.7-8.6c0,0,9.2,6.6,28.3,6.6c19.2,0,30.2-7.6,30.2-7.6c-1.1,3.8,2.3,7.6,2.3,7.6c0.3-6.3,8.7-15,8.7-15
	c-3.2,2.9-0.4,9-0.4,9c6-5.1,10.2-15.1,12.1-20.3c-0.4,3.6,1.8,6.1,1.8,6.1c8.1-8.7,7.6-29.7,7.6-29.7c0.5,5.2,5,9.6,5,9.6
	C190.4,94.7,181,73.8,181,73.8z"/>
<path class="st22" d="M78.1,139.5c0,0,10.9,10.2,12.1,17c0,0,2.4-4.2,0.7-8.6c0,0,9.2,6.6,28.3,6.6c19.2,0,30.2-7.6,30.2-7.6
	c-1.1,3.8,2.3,7.6,2.3,7.6c0.3-6.3,8.7-15,8.7-15c-3.2,2.9-0.4,9-0.4,9c6-5.1,10.2-15.1,12.1-20.3c-0.4,3.6,1.8,6.1,1.8,6.1
	c8.1-8.7,7.6-29.7,7.6-29.7c0.5,5.2,5,9.6,5,9.6c3.7-19.5-5.7-40.3-5.7-40.3c2.3,3,5.7,4.8,5.7,4.8c-1.2-14.5-20.2-31-20.2-31
	c6.4,2.2,6.5,0.2,6.5,0.2c-18.5-18.7-40.1-17.6-40.1-17.6s2.2-0.2,4.9,2.8c2.7,3.1,6,7.3,12.7,9.5c6.7,2.2,23.4,10.7,28.2,24.6
	c0,0-4-1.2-5.8-3.6c0,0,14.7,29.6,3.8,57.3c0,0-2.7-2.8-2.1-6.7c0,0-11.4,32.9-50.7,36.2C92.3,152.9,78.1,139.5,78.1,139.5z"/>
<path class="st23" d="M242.7,99.7l-5.8-6.4c0,0-15.4,16.8-8.1,45.2c6.5,25.1,22.4,11.2,17.2-3.8C240.8,119.8,242.7,99.7,242.7,99.7z
	"/>
<path class="st24" d="M247,135.8c-5.2-15-3.3-35.1-3.3-35.1l-8.8-2.2c-2.9,9.6,6.6,28.8,7.8,34.3c1.2,5.4,2.8,11,0.6,15.5
	c-2.2,4.6-9.1,1.6-9.1,1.6C241.5,159.5,251.2,148,247,135.8z"/>
<path class="st24" d="M356.8,100.7l5.8-6.4c0,0,15.4,16.8,8.1,45.2c-6.5,25.1-22.4,11.2-17.2-3.8
	C358.7,120.8,356.8,100.7,356.8,100.7z"/>
<path class="st25" d="M353.5,135.8c-1.2,3.8-1.3,7.4-0.4,10.5c1.2,4.1,6.3,4.9,7.1,0c0.3-1.8,1-6.1,0.1-8.7
	C358.8,133.1,355.1,130.8,353.5,135.8z"/>
<path class="st25" d="M278.2,148.2c0,0-2.9,36.3-8.1,38.7c-5.3,2.5-3.4,4,9.3,4c12.7,0,15.1-1.2,15.8-11.7
	c0.6-10.5-3.2-27.4-3.2-27.4L278.2,148.2z"/>
<path class="st25" d="M329.8,187c-5.3-2.5-8.1-38.7-8.1-38.7l-13.7,3.6c0,0-3.8,16.9-3.2,27.4c0.6,10.5,3.1,11.7,15.8,11.7
	C333.2,191,335,189.5,329.8,187z"/>
<path class="st24" d="M292.5,176.6c-2,10.7-10.1,15.3-22.1,13.9c2,0.3,4.9,0.5,9,0.5c12.7,0,15.1-1.2,15.8-11.7
	c0.6-10.5-3.2-27.4-3.2-27.4l-13.7-3.6c0,0,2.2,2.2,7,4.3C290,154.7,294.5,166,292.5,176.6z"/>
<path class="st24" d="M322,169.6c0.9,10.4,8,21.8-6.2,21.3l0,0c1.4,0.1,2.9,0.1,4.6,0.1c12.7,0,14.5-1.5,9.3-4
	c-5.3-2.5-8.1-38.7-8.1-38.7l-13.7,3.6c0,0,3.8,1.3,6.9,1.3S321.1,159.2,322,169.6z"/>
<path class="st23" d="M363,71.8c2.3,3,5.7,4.8,5.7,4.8c-1.2-14.5-20.2-31-20.2-31c6.4,2.2,6.5,0.2,6.5,0.2
	c-18.5-18.7-40.1-17.6-40.1-17.6c2.2-0.2,3.7-3,3.7-3c-9.2-3-16.8,1.6-16.8,1.6s-9.1-2.4-12.4-6.9c0,0-2.9,5.8,2.5,8.7
	c0,0-11.1-4.5-25.6,2.1c0,0,4.1,2.9,8.7,2.9c0,0-20.2,0.4-35.5,23.1c0,0,3.1,0.9,6.3-1.1c-3.7,3.8-10.1,11.9-11.8,23.4
	c0,0,2.4-0.4,4.2-3.2c-2.2,5.5-6,18.9-0.7,36.9c0,0,1.6-0.1,2-7.9c0,0,4.4,29.6,21.1,42.3c0,0,2-3.7-0.4-9.3c0,0,10.9,10.2,12.1,17
	c0,0,2.4-4.2,0.7-8.6c0,0,9.2,6.6,28.3,6.6c19.2,0,30.2-7.6,30.2-7.6c-1.1,3.8,2.3,7.6,2.3,7.6c0.3-6.3,8.7-15,8.7-15
	c-3.2,2.9-0.4,9-0.4,9c6-5.1,10.2-15.1,12.1-20.3c-0.4,3.6,1.8,6.1,1.8,6.1c8.1-8.7,7.6-29.7,7.6-29.7c0.5,5.2,5,9.6,5,9.6
	C372.4,92.7,363,71.8,363,71.8z"/>
<path class="st26" d="M260.1,137.5c0,0,10.9,10.2,12.1,17c0,0,2.4-4.2,0.7-8.6c0,0,9.2,6.6,28.3,6.6c19.2,0,30.2-7.6,30.2-7.6
	c-1.1,3.8,2.3,7.6,2.3,7.6c0.3-6.3,8.7-15,8.7-15c-3.2,2.9-0.4,9-0.4,9c6-5.1,10.2-15.1,12.1-20.3c-0.4,3.6,1.8,6.1,1.8,6.1
	c8.1-8.7,7.6-29.7,7.6-29.7c0.5,5.2,5,9.6,5,9.6c3.7-19.5-5.7-40.3-5.7-40.3c2.3,3,5.7,4.8,5.7,4.8c-1.2-14.5-20.2-31-20.2-31
	c6.4,2.2,6.5,0.2,6.5,0.2c-18.5-18.7-40.1-17.6-40.1-17.6s2.2-0.2,4.9,2.8c2.7,3.1,6,7.3,12.7,9.5c6.7,2.2,23.4,10.7,28.2,24.6
	c0,0-4-1.2-5.8-3.6c0,0,14.7,29.6,3.8,57.3c0,0-2.7-2.8-2.1-6.7c0,0-11.4,32.9-50.7,36.2C274.3,150.9,260.1,137.5,260.1,137.5z"/>
<g>
	<path class="st27" d="M430.3,72.5c0,10,8.1,18.1,18.1,18.1c10,0,18.1-8.1,18.1-18.1H430.3z"/>
	<path class="st28" d="M441.7,72.5c0,5,4.1,9.1,9.1,9.1c5,0,9.1-4.1,9.1-9.1H441.7z"/>
	<path class="st27" d="M507.9,72.5c0,1.5,1.2,2.7,2.7,2.7c1.5,0,2.7-1.2,2.7-2.7H507.9z"/>
	<g>
		<path class="st29" d="M446.2,72.5c0,2.5,2,4.5,4.5,4.5c2.5,0,4.5-2,4.5-4.5H446.2z"/>
		<path class="st27" d="M452.9,72.5c0,1.5,1.2,2.7,2.7,2.7c1.5,0,2.7-1.2,2.7-2.7H452.9z"/>
		<path class="st27" d="M487.4,72.5c0,10,8.1,18.1,18.1,18.1c10,0,18.1-8.1,18.1-18.1H487.4z"/>
		<path class="st30" d="M448.4,87.7c-10,0-18.1-6.8-18.1-15.2c0,10,8.1,18.1,18.1,18.1c10,0,18.1-8.1,18.1-18.1
			C466.5,80.9,458.4,87.7,448.4,87.7z"/>
		<path class="st30" d="M505.6,87.7c-10,0-18.1-6.8-18.1-15.2c0,10,8.1,18.1,18.1,18.1c10,0,18.1-8.1,18.1-18.1
			C523.7,80.9,515.6,87.7,505.6,87.7z"/>
		<path class="st28" d="M498.9,72.5c0,5,4.1,9.1,9.1,9.1s9.1-4.1,9.1-9.1H498.9z"/>
		<path class="st29" d="M503.4,72.5c0,2.5,2,4.5,4.5,4.5c2.5,0,4.5-2,4.5-4.5H503.4z"/>
		<path class="st27" d="M509.8,72.5c0,1.5,1.2,2.7,2.7,2.7c1.5,0,2.7-1.2,2.7-2.7H509.8z"/>
	</g>
</g>
<g>
	<path class="st8" d="M663.6,100.1c13.6,0,14.9-8.4,24.5-4.2c9.6,4.2,7.2,31.7-20.3,33.5c-27.5,1.8-39.7-23.2-29.2-31.7
		C649.8,88.5,652.4,100.1,663.6,100.1z"/>
	<path class="st31" d="M641.4,120.1c5.6,5.7,14.6,10,26.4,9.2c9.6-0.6,16.1-4.4,20.1-9.2c-0.1-0.1-4.2-5.5-23.6-5.5
		C645,114.6,641.4,120.1,641.4,120.1z"/>
	<path class="st27" d="M658.7,99.3c0.2,2.8,1,6.9,3,6.9c1.9,0,2.3-3.4,2.3-6.1c-0.1,0-0.3,0-0.4,0
		C661.8,100.1,660.2,99.8,658.7,99.3z"/>
	<path class="st27" d="M663.6,100.1C663.6,100.1,663.6,100.1,663.6,100.1c0,2.4,0.2,5.6,2,5.6c1.8,0,2.5-3.4,2.7-6
		C666.9,99.9,665.4,100.1,663.6,100.1z"/>
</g>
<g>
	<g>
		
			<ellipse transform="matrix(0.1231 -0.9924 0.9924 0.1231 987.8987 1243.5358)" class="st27" cx="1197.6" cy="62.8" rx="14.9" ry="14.9"/>
		<path class="st30" d="M1212.4,61.9c0-0.8-0.2-1.6-0.3-2.4c0,0.2,0,0.5,0.1,0.7c0.5,8.2-5.8,15.2-14,15.7
			c-7.4,0.4-13.8-4.6-15.3-11.6c0.8,7.8,7.7,13.7,15.6,13.3C1206.6,77.1,1212.9,70.1,1212.4,61.9z"/>
		<path class="st12" d="M1202.9,61.1c0.2,3.2-2.3,6-5.5,6.1c-3.2,0.2-6-2.3-6.1-5.5c-0.2-3.2,2.3-6,5.5-6.1
			C1199.9,55.4,1202.7,57.9,1202.9,61.1z"/>
		<path class="st32" d="M1200.3,61.2c0.1,1.8-1.2,3.3-3,3.4s-3.3-1.2-3.4-3c-0.1-1.8,1.2-3.3,3-3.4
			C1198.7,58.1,1200.2,59.4,1200.3,61.2z"/>
		<path class="st27" d="M1201,58.8c0.1,1-0.7,1.9-1.7,1.9c-1,0.1-1.9-0.7-1.9-1.7c-0.1-1,0.7-1.9,1.7-1.9
			C1200.1,57,1201,57.8,1201,58.8z"/>
	</g>
	<g>
		<path class="st27" d="M1253.6,61.9c0.5,8.2-5.8,15.2-14,15.7c-8.2,0.5-15.2-5.8-15.7-14s5.8-15.2,14-15.7
			C1246.1,47.5,1253.2,53.7,1253.6,61.9z"/>
		<path class="st30" d="M1253.6,61.9c0-0.8-0.2-1.6-0.3-2.4c0,0.2,0,0.5,0.1,0.7c0.5,8.2-5.8,15.2-14,15.7
			c-7.4,0.4-13.8-4.6-15.3-11.6c0.8,7.8,7.7,13.7,15.6,13.3C1247.8,77.1,1254.1,70.1,1253.6,61.9z"/>
		<path class="st12" d="M1244.1,61.1c0.2,3.2-2.3,6-5.5,6.1c-3.2,0.2-6-2.3-6.1-5.5c-0.2-3.2,2.3-6,5.5-6.1
			C1241.2,55.4,1243.9,57.9,1244.1,61.1z"/>
		<path class="st32" d="M1241.5,61.2c0.1,1.8-1.2,3.3-3,3.4c-1.8,0.1-3.3-1.2-3.4-3c-0.1-1.8,1.2-3.3,3-3.4
			C1239.9,58.1,1241.4,59.4,1241.5,61.2z"/>
		<path class="st27" d="M1242.3,58.8c0.1,1-0.7,1.9-1.7,1.9c-1,0.1-1.9-0.7-1.9-1.7c-0.1-1,0.7-1.9,1.7-1.9
			C1241.3,57,1242.2,57.8,1242.3,58.8z"/>
	</g>
</g>
<g>
	<g>
		
			<ellipse transform="matrix(0.1231 -0.9924 0.9924 0.1231 178.8002 337.8925)" class="st27" cx="280.6" cy="67.8" rx="14.9" ry="14.9"/>
		<path class="st30" d="M295.4,66.9c0-0.8-0.2-1.6-0.3-2.4c0,0.2,0,0.5,0.1,0.7c0.5,8.2-5.8,15.2-14,15.7
			c-7.4,0.4-13.8-4.6-15.3-11.6c0.8,7.8,7.7,13.7,15.6,13.3C289.6,82.1,295.9,75.1,295.4,66.9z"/>
		<path class="st12" d="M285.9,66.1c0.2,3.2-2.3,6-5.5,6.1c-3.2,0.2-6-2.3-6.1-5.5c-0.2-3.2,2.3-6,5.5-6.1
			C282.9,60.4,285.7,62.9,285.9,66.1z"/>
		<path class="st32" d="M283.3,66.2c0.1,1.8-1.2,3.3-3,3.4s-3.3-1.2-3.4-3c-0.1-1.8,1.2-3.3,3-3.4C281.7,63.1,283.2,64.4,283.3,66.2
			z"/>
		<path class="st27" d="M284,63.8c0.1,1-0.7,1.9-1.7,1.9c-1,0.1-1.9-0.7-1.9-1.7c-0.1-1,0.7-1.9,1.7-1.9C283.1,62,284,62.8,284,63.8
			z"/>
	</g>
	<g>
		<path class="st27" d="M336.6,66.9c0.5,8.2-5.8,15.2-14,15.7c-8.2,0.5-15.2-5.8-15.7-14c-0.5-8.2,5.8-15.2,14-15.7
			C329.1,52.5,336.2,58.7,336.6,66.9z"/>
		<path class="st30" d="M336.6,66.9c0-0.8-0.2-1.6-0.3-2.4c0,0.2,0,0.5,0.1,0.7c0.5,8.2-5.8,15.2-14,15.7
			c-7.4,0.4-13.8-4.6-15.3-11.6c0.8,7.8,7.7,13.7,15.6,13.3C330.8,82.1,337.1,75.1,336.6,66.9z"/>
		<path class="st12" d="M327.1,66.1c0.2,3.2-2.3,6-5.5,6.1c-3.2,0.2-6-2.3-6.1-5.5c-0.2-3.2,2.3-6,5.5-6.1
			C324.2,60.4,326.9,62.9,327.1,66.1z"/>
		<path class="st32" d="M324.5,66.2c0.1,1.8-1.2,3.3-3,3.4s-3.3-1.2-3.4-3c-0.1-1.8,1.2-3.3,3-3.4C322.9,63.1,324.4,64.4,324.5,66.2
			z"/>
		<path class="st27" d="M325.3,63.8c0.1,1-0.7,1.9-1.7,1.9c-1,0.1-1.9-0.7-1.9-1.7c-0.1-1,0.7-1.9,1.7-1.9
			C324.3,62,325.2,62.8,325.3,63.8z"/>
	</g>
</g>
<g>
	<g>
		
			<ellipse transform="matrix(0.1231 -0.9924 0.9924 0.1231 12.5794 160.8653)" class="st27" cx="97.3" cy="73.3" rx="17.3" ry="17.3"/>
		<path class="st30" d="M114.6,72.3c-0.1-1-0.2-1.9-0.4-2.8c0,0.3,0.1,0.5,0.1,0.8c0.5,9.5-6.7,17.7-16.3,18.3
			c-8.6,0.5-16.1-5.4-17.9-13.5c0.9,9.1,8.9,16,18.2,15.5C107.9,90.1,115.1,81.9,114.6,72.3z"/>
		<path class="st12" d="M103.5,71.3c0.2,3.7-2.6,6.9-6.4,7.2c-3.7,0.2-6.9-2.6-7.2-6.4c-0.2-3.7,2.6-6.9,6.4-7.2
			C100.1,64.7,103.3,67.6,103.5,71.3z"/>
		<path class="st32" d="M100.4,71.5c0.1,2.1-1.5,3.8-3.5,3.9c-2.1,0.1-3.8-1.5-3.9-3.5c-0.1-2.1,1.5-3.8,3.5-3.9
			C98.6,67.9,100.3,69.4,100.4,71.5z"/>
		<path class="st27" d="M101.3,68.7c0.1,1.2-0.8,2.2-2,2.2c-1.2,0.1-2.2-0.8-2.2-2c-0.1-1.2,0.8-2.2,2-2.2
			C100.3,66.6,101.3,67.5,101.3,68.7z"/>
	</g>
	<g>
		<path class="st27" d="M162.6,72.3c0.5,9.5-6.7,17.7-16.3,18.3s-17.7-6.7-18.3-16.3c-0.5-9.5,6.7-17.7,16.3-18.3
			C153.9,55.5,162.1,62.8,162.6,72.3z"/>
		<path class="st30" d="M162.6,72.3c-0.1-1-0.2-1.9-0.4-2.8c0,0.3,0.1,0.5,0.1,0.8c0.5,9.5-6.7,17.7-16.3,18.3
			c-8.6,0.5-16.1-5.4-17.9-13.5c0.9,9.1,8.9,16,18.2,15.5C155.9,90.1,163.2,81.9,162.6,72.3z"/>
		<path class="st12" d="M151.5,71.3c0.2,3.7-2.6,6.9-6.4,7.2c-3.7,0.2-6.9-2.6-7.2-6.4c-0.2-3.7,2.6-6.9,6.4-7.2
			C148.1,64.7,151.3,67.6,151.5,71.3z"/>
		<path class="st32" d="M148.5,71.5c0.1,2.1-1.5,3.8-3.5,3.9c-2.1,0.1-3.8-1.5-3.9-3.5c-0.1-2.1,1.5-3.8,3.5-3.9
			C146.6,67.9,148.4,69.4,148.5,71.5z"/>
		<path class="st27" d="M149.4,68.7c0.1,1.2-0.8,2.2-2,2.2c-1.2,0.1-2.2-0.8-2.2-2c-0.1-1.2,0.8-2.2,2-2.2
			C148.3,66.6,149.3,67.5,149.4,68.7z"/>
	</g>
</g>
<path class="st8" d="M479.6,119.4c-4.3,0-7.8-3.5-7.8-7.8c0-0.6,0.5-1.1,1.1-1.1c0.6,0,1.1,0.5,1.1,1.1c0,3,2.5,5.5,5.5,5.5
	c3,0,5.5-2.5,5.5-5.5c0-0.6,0.5-1.1,1.1-1.1c0.6,0,1.1,0.5,1.1,1.1C487.3,115.9,483.9,119.4,479.6,119.4z"/>
<g>
	<path class="st8" d="M1027.4,103.1c0,0,16,4,24.2-8.4c8.2-12.4,25.5,11.2,3.3,24.2C1032.8,131.9,1018.8,117.5,1027.4,103.1z"/>
	<path class="st31" d="M1041.3,123.9c0,0-3-23,23.7-16.2C1065,107.7,1061.5,121.8,1041.3,123.9z"/>
</g>
<g>
	<path class="st8" d="M294.4,101.9c0,0,7.5,5.9,14.8,1.3c7.3-4.6,10.8,12-3.9,13.6C290.4,118.4,286.4,107.5,294.4,101.9z"/>
	<path class="st31" d="M296.8,116.1c0,0,3.8-12.9,16.4-3C313.2,113.2,308,119.8,296.8,116.1z"/>
</g>
<g>
	<path class="st8" d="M110.4,108.1c0,0,16,4,24.2-8.4c8.2-12.4,25.5,11.2,3.3,24.2C115.8,136.9,101.8,122.5,110.4,108.1z"/>
	<path class="st31" d="M124.3,128.9c0,0-3-23,23.7-16.2C148,112.7,144.5,126.8,124.3,128.9z"/>
</g>
<g>
	<path class="st27" d="M1192.6,108.8c0,0,0,4.7,2.3,5.1c2.4,0.3,3.3-5.4,3.3-5.4L1192.6,108.8z"/>
	<path class="st27" d="M1244.5,108.8c0,0,0,4.7-2.3,5.1c-2.4,0.3-3.3-5.4-3.3-5.4L1244.5,108.8z"/>
	<path class="st33" d="M1195.6,109.4c-1.9,0-3.3-0.5-4.1-1.6c-1.9-2.6,0.3-7.1,0.4-7.3c0.2-0.3,0.6-0.5,0.9-0.3
		c0.3,0.2,0.5,0.6,0.3,0.9c-0.6,1.1-1.7,4.4-0.5,5.9c1,1.3,3.5,1.2,5.4,0.8c2.6-0.5,4.9-1.1,7.1-1.7c6.7-1.8,12.4-3.4,23.5-0.6
		c3.7,0.9,14.8,3.7,16.6,1.5c0.5-0.6,0.3-1.8-0.6-3.5c-0.2-0.3-0.1-0.7,0.3-0.9c0.3-0.2,0.7-0.1,0.9,0.3c1.2,2.3,1.4,3.9,0.5,5
		c-1.7,2.1-6.7,1.8-18-1c-10.8-2.7-16.4-1.2-22.9,0.6c-2.2,0.6-4.5,1.2-7.2,1.8C1197.3,109.3,1196.4,109.4,1195.6,109.4z"/>
</g>
<g>
	
		<ellipse transform="matrix(0.6514 -0.7587 0.7587 0.6514 309.907 787.0212)" class="st27" cx="1011.4" cy="56.2" rx="17.9" ry="17.9"/>
	<path class="st30" d="M1029.3,55.2c-0.1-1-0.2-2-0.4-2.9c0,0.3,0.1,0.6,0.1,0.8c0.6,9.9-7,18.3-16.9,18.9
		c-8.9,0.5-16.6-5.5-18.5-13.9c1,9.5,9.2,16.6,18.8,16C1022.3,73.6,1029.9,65.1,1029.3,55.2z"/>
	<path class="st15" d="M1017.8,54.2c0.2,3.9-2.7,7.2-6.6,7.4c-3.9,0.2-7.2-2.7-7.4-6.6c-0.2-3.9,2.7-7.2,6.6-7.4
		C1014.3,47.4,1017.6,50.3,1017.8,54.2z"/>
	<path class="st34" d="M1014.7,54.4c0.1,2.1-1.5,4-3.6,4.1c-2.1,0.1-4-1.5-4.1-3.6c-0.1-2.1,1.5-4,3.6-4.1
		C1012.7,50.6,1014.6,52.2,1014.7,54.4z"/>
	<path class="st27" d="M1015.6,51.4c0.1,1.2-0.9,2.3-2.1,2.3c-1.2,0.1-2.3-0.9-2.3-2.1c-0.1-1.2,0.9-2.3,2.1-2.3
		C1014.5,49.3,1015.5,50.2,1015.6,51.4z"/>
	<path class="st27" d="M1079,55.2c0.6,9.9-7,18.3-16.9,18.9c-9.9,0.6-18.3-7-18.9-16.9c-0.6-9.9,7-18.3,16.9-18.9
		C1070,37.8,1078.4,45.4,1079,55.2z"/>
	<path class="st30" d="M1079,55.2c-0.1-1-0.2-2-0.4-2.9c0,0.3,0.1,0.6,0.1,0.8c0.6,9.9-7,18.3-16.9,18.9
		c-8.9,0.5-16.6-5.5-18.5-13.9c1,9.5,9.2,16.6,18.8,16C1072,73.6,1079.6,65.1,1079,55.2z"/>
	<path class="st15" d="M1067.5,54.2c0.2,3.9-2.7,7.2-6.6,7.4c-3.9,0.2-7.2-2.7-7.4-6.6c-0.2-3.9,2.7-7.2,6.6-7.4
		C1064,47.4,1067.3,50.3,1067.5,54.2z"/>
	<path class="st34" d="M1064.3,54.4c0.1,2.1-1.5,4-3.6,4.1c-2.1,0.1-4-1.5-4.1-3.6s1.5-4,3.6-4.1
		C1062.4,50.6,1064.2,52.2,1064.3,54.4z"/>
	<path class="st27" d="M1065.3,51.4c0.1,1.2-0.9,2.3-2.1,2.3c-1.2,0.1-2.3-0.9-2.3-2.1c-0.1-1.2,0.9-2.3,2.1-2.3
		C1064.2,49.3,1065.2,50.2,1065.3,51.4z"/>
</g>
<g>
	
		<ellipse transform="matrix(0.6514 -0.7587 0.7587 0.6514 172.7031 506.3929)" class="st27" cx="637.4" cy="65.2" rx="17.9" ry="17.9"/>
	<path class="st30" d="M655.3,64.2c-0.1-1-0.2-2-0.4-2.9c0,0.3,0.1,0.6,0.1,0.8c0.6,9.9-7,18.3-16.9,18.9
		c-8.9,0.5-16.6-5.5-18.5-13.9c1,9.5,9.2,16.6,18.8,16C648.3,82.6,655.9,74.1,655.3,64.2z"/>
	<path class="st15" d="M643.8,63.2c0.2,3.9-2.7,7.2-6.6,7.4c-3.9,0.2-7.2-2.7-7.4-6.6c-0.2-3.9,2.7-7.2,6.6-7.4
		C640.3,56.4,643.6,59.3,643.8,63.2z"/>
	<path class="st34" d="M640.7,63.4c0.1,2.1-1.5,4-3.6,4.1c-2.1,0.1-4-1.5-4.1-3.6c-0.1-2.1,1.5-4,3.6-4.1
		C638.7,59.6,640.6,61.2,640.7,63.4z"/>
	<path class="st27" d="M641.6,60.4c0.1,1.2-0.9,2.3-2.1,2.3c-1.2,0.1-2.3-0.9-2.3-2.1c-0.1-1.2,0.9-2.3,2.1-2.3
		C640.5,58.3,641.5,59.2,641.6,60.4z"/>
	<path class="st27" d="M705,64.2c0.6,9.9-7,18.3-16.9,18.9c-9.9,0.6-18.3-7-18.9-16.9c-0.6-9.9,7-18.3,16.9-18.9
		C696,46.8,704.4,54.4,705,64.2z"/>
	<path class="st30" d="M705,64.2c-0.1-1-0.2-2-0.4-2.9c0,0.3,0.1,0.6,0.1,0.8c0.6,9.9-7,18.3-16.9,18.9c-8.9,0.5-16.6-5.5-18.5-13.9
		c1,9.5,9.2,16.6,18.8,16C698,82.6,705.6,74.1,705,64.2z"/>
	<path class="st15" d="M693.5,63.2c0.2,3.9-2.7,7.2-6.6,7.4c-3.9,0.2-7.2-2.7-7.4-6.6c-0.2-3.9,2.7-7.2,6.6-7.4
		C690,56.4,693.3,59.3,693.5,63.2z"/>
	<path class="st34" d="M690.3,63.4c0.1,2.1-1.5,4-3.6,4.1c-2.1,0.1-4-1.5-4.1-3.6c-0.1-2.1,1.5-4,3.6-4.1
		C688.4,59.6,690.2,61.2,690.3,63.4z"/>
	<path class="st27" d="M691.3,60.4c0.1,1.2-0.9,2.3-2.1,2.3c-1.2,0.1-2.3-0.9-2.3-2.1c-0.1-1.2,0.9-2.3,2.1-2.3
		C690.2,58.3,691.2,59.2,691.3,60.4z"/>
</g>
<ellipse transform="matrix(0.9775 -0.2109 0.2109 0.9775 4.7752 179.5872)" class="st27" cx="844.5" cy="67.4" rx="23.9" ry="23.9"/>
<path class="st30" d="M868.4,66c-0.1-1.3-0.3-2.6-0.5-3.9c0,0.4,0.1,0.7,0.1,1.1c0.8,13.2-9.3,24.5-22.5,25.3
	c-11.9,0.7-22.2-7.4-24.7-18.6c1.3,12.6,12.3,22.1,25.2,21.4C859.1,90.5,869.2,79.2,868.4,66z"/>
<path class="st35" d="M853.1,57.5c0.3,5.2-3.7,9.6-8.8,9.9c-5.2,0.3-9.6-3.7-9.9-8.8c-0.3-5.2,3.7-9.6,8.8-9.9
	C848.3,48.4,852.8,52.3,853.1,57.5z"/>
<path class="st36" d="M848.9,57.7c0.2,2.8-2,5.3-4.9,5.5c-2.8,0.2-5.3-2-5.5-4.9c-0.2-2.8,2-5.3,4.9-5.5
	C846.3,52.7,848.7,54.9,848.9,57.7z"/>
<path class="st8" d="M848.9,113.5c0.2,2.8-2,5.3-4.9,5.5c-2.8,0.2-5.3-2-5.5-4.9c-0.2-2.8,2-5.3,4.9-5.5
	C846.3,108.5,848.7,110.7,848.9,113.5z"/>
<path class="st31" d="M843.4,113.8c-1.8,0.1-3.3,1.1-4.2,2.6c0.9,1.6,2.8,2.7,4.8,2.6c1.8-0.1,3.3-1.1,4.2-2.6
	C847.2,114.8,845.4,113.7,843.4,113.8z"/>
</svg>
