<?xml version="1.0" encoding="utf-8"?>
<!-- Generator: Adobe Illustrator 22.0.0, SVG Export Plug-In . SVG Version: 6.00 Build 0)  -->
<svg version="1.1" id="Layer_1" xmlns="http://www.w3.org/2000/svg" xmlns:xlink="http://www.w3.org/1999/xlink" x="0px" y="0px"
	 viewBox="0 0 664.9 1133.1" style="enable-background:new 0 0 664.9 1133.1;" xml:space="preserve">
<style type="text/css">
	.st0{fill:#54A2A2;}
	.st1{fill:#498B89;}
	.st2{fill:#65C8D0;}
	.st3{fill:#60B7B9;}
	.st4{fill:#501627;}
	.st5{fill:#F56A82;}
	.st6{fill:#FFFFFF;}
	.st7{fill:#E7E7E7;}
	.st8{fill:#DC519B;}
	.st9{fill:#4F1837;}
</style>
<path class="st0" d="M154.7,839.3l-18-19.7c0,0-47.7,51.9-25,139.9c20,77.7,69.3,34.7,53.2-11.7
	C148.8,901.3,154.7,839.3,154.7,839.3z"/>
<path class="st1" d="M164.9,947.7c-16.1-46.4-10.1-108.5-10.1-108.5l-27.2-6.9c-9,29.8,20.4,89.2,24.2,105.9s8.6,33.9,1.9,48
	c-6.7,14.1-28.3,4.9-28.3,4.9C147.9,1020.9,177.9,985.4,164.9,947.7z"/>
<g>
	<path class="st1" d="M509.9,752.1l17.9,19.8c0,0,48-51.6,25.7-139.8c-19.6-77.8-69.1-35.1-53.3,11.4
		C516.2,690.2,509.9,752.1,509.9,752.1z"/>
	<path class="st0" d="M500.3,643.7c-3.5-11.7-3.9-23-1.1-32.3c3.8-12.7,19.6-14.9,21.9,0.1c0.9,5.6,2.9,18.7,0.1,27
		C516.6,652.2,505,659,500.3,643.7z"/>
</g>
<path class="st0" d="M261.4,986.2c0,0-8.8,112.1-25.1,119.7c-16.2,7.6-10.5,12.4,28.7,12.4s46.8-3.8,48.7-36.3s-9.9-84.6-9.9-84.6
	L261.4,986.2z"/>
<path class="st0" d="M420.8,1106c-16.2-7.6-25.1-119.7-25.1-119.7l-42.4,11.1c0,0-11.8,52.1-9.9,84.6s9.6,36.3,48.7,36.3
	C431.3,1118.4,437.1,1113.6,420.8,1106z"/>
<path class="st1" d="M305.6,1074c-6.2,33-31.1,47.4-68.3,43c6.1,0.9,15.2,1.4,27.7,1.4c39.2,0,46.8-3.8,48.7-36.3
	c1.9-32.5-9.9-84.6-9.9-84.6l-42.4-11.2c0,0,6.9,6.8,21.7,13.3C298,1006.1,311.8,1041,305.6,1074z"/>
<path class="st1" d="M396.9,1052.3c2.9,32.1,24.8,67.4-19.1,65.8l0,0c4.2,0.2,9,0.3,14.4,0.3c39.2,0,44.9-4.8,28.7-12.4
	c-16.2-7.6-25.1-119.7-25.1-119.7l-42.5,11.1c0,0,11.7,3.9,21.4,3.9S394,1020.2,396.9,1052.3z"/>
<path class="st2" d="M523.5,750.1c7.1,9.2,17.8,14.7,17.8,14.7c-3.8-44.9-62.5-96-62.5-96c19.7,6.8,20,0.5,20,0.5
	c-57.3-58-124-54.4-124-54.4c6.8-0.5,11.5-9.1,11.5-9.1c-28.4-9.4-52.1,4.9-52.1,4.9s-28.1-7.5-38.3-21.5c0,0-8.9,17.8,7.6,26.8
	c0,0-34.4-14-79,6.4c0,0,12.7,8.9,26.8,8.9c0,0-62.4,1.3-109.6,71.4c0,0,9.6,2.7,19.3-3.5c-11.3,11.7-31.2,36.8-36.5,72.3
	c0,0,7.5-1.4,13.1-10c-6.8,17-18.7,58.6-2.3,114.2c0,0,4.9-0.4,6.1-24.6c0,0,13.6,91.5,65.2,130.7c0,0,6.3-11.5-1.1-28.7
	c0,0,33.6,31.5,37.5,52.6c0,0,7.4-12.9,2.3-26.5c0,0,28.3,20.4,87.6,20.4s93.2-23.4,93.2-23.4c-3.3,11.7,7.1,23.4,7.1,23.4
	c1-19.4,27-46.5,27-46.5c-9.9,9-1.2,27.7-1.2,27.7c18.6-15.8,31.6-46.8,37.4-62.9c-1.3,11.2,5.7,18.9,5.7,18.9
	c24.9-26.8,23.6-91.9,23.6-91.9c1.7,16.1,15.5,29.7,15.5,29.7C552.7,814.5,523.5,750.1,523.5,750.1z"/>
<path class="st3" d="M205.6,953.1c0,0,33.6,31.5,37.5,52.6c0,0,7.4-12.9,2.3-26.5c0,0,28.3,20.4,87.6,20.4s93.2-23.4,93.2-23.4
	c-3.3,11.7,7.1,23.4,7.1,23.4c1-19.4,27-46.5,27-46.5c-9.9,9-1.2,27.7-1.2,27.7c18.6-15.8,31.6-46.8,37.4-62.9
	c-1.3,11.2,5.7,18.9,5.7,18.9c24.9-26.8,23.6-91.9,23.6-91.9c1.7,16.1,15.5,29.7,15.5,29.7c11.5-60.2-17.8-124.6-17.8-124.6
	c7.1,9.2,17.8,14.7,17.8,14.7c-3.8-44.9-62.5-96-62.5-96c19.7,6.8,20,0.5,20,0.5c-57.3-58-124-54.4-124-54.4s6.9-0.8,15.3,8.7
	c8.4,9.4,18.5,22.6,39.3,29.5s72.2,33.2,87.2,76c0,0-12.2-3.7-17.9-11.2c0,0,45.5,91.6,11.8,177c0,0-8.2-8.7-6.6-20.6
	c0,0-35.2,101.6-156.7,111.9C249.4,994.6,205.6,953.1,205.6,953.1z"/>
<g>
	<path class="st4" d="M335.6,871.1c36.6,0.5,61.5-4.2,70.4-14.2s41.8,4.2,22.2,36.9c-19.6,32.7-65.2,35.8-92.6,35.3
		c-27.4-0.4-94.3-28.6-80.7-61.3C268.7,834.4,302.9,870.6,335.6,871.1z"/>
	<path class="st5" d="M294.8,918.2c0,0,38.3-39.3,111.2-3.1C406,915.1,354.3,946.1,294.8,918.2z"/>
	<path class="st6" d="M294.8,859.2c0,0-1.3,21.4,3.2,23.2c4.4,1.8,6.2-7.6,6.2-7.6s30.2,10.7,75.1,4c0,0,0.4,7.1,4,7.6
		c3.6,0.4,8.2-21.1,8.2-21.1s-15.5,5.9-47,5.9C321.9,871.1,294.8,859.2,294.8,859.2z"/>
</g>
<g>
	<path class="st6" d="M423.1,741.3c2.8,48.3-34.2,89.7-82.5,92.5s-89.7-34.2-92.5-82.5s34.2-89.7,82.5-92.5
		C378.9,656.1,420.3,693,423.1,741.3z"/>
	<path class="st7" d="M423.1,741.3c-0.3-4.9-1-9.6-2-14.2c0.1,1.3,0.3,2.7,0.3,4.1c2.8,48.3-34.2,89.7-82.5,92.5
		c-43.4,2.5-81.3-27.1-90.5-68.2c4.8,46.3,45.2,81.1,92.2,78.4C388.9,831.1,425.8,789.7,423.1,741.3z"/>
	<path class="st8" d="M366.7,701.2c1.1,18.9-13.4,35.1-32.3,36.2c-18.9,1.1-35.1-13.4-36.2-32.3s13.4-35.1,32.3-36.2
		C349.5,667.8,365.7,682.3,366.7,701.2z"/>
	<path class="st9" d="M351.4,702.1c0.6,10.4-7.4,19.4-17.8,20s-19.4-7.4-20-17.8c-0.6-10.4,7.4-19.4,17.8-20
		C341.9,683.7,350.8,691.6,351.4,702.1z"/>
	<path class="st6" d="M355.9,687.8c0.3,5.9-4.2,11-10.1,11.4c-5.9,0.3-11-4.2-11.4-10.1c-0.3-5.9,4.2-11,10.1-11.4
		C350.5,677.3,355.6,681.8,355.9,687.8z"/>
</g>
</svg>
