<?xml version="1.0" encoding="utf-8"?>
<!-- Generator: Adobe Illustrator 22.0.0, SVG Export Plug-In . SVG Version: 6.00 Build 0)  -->
<svg version="1.1" id="Layer_1" xmlns="http://www.w3.org/2000/svg" xmlns:xlink="http://www.w3.org/1999/xlink" x="0px" y="0px"
	 viewBox="0 0 596.7 1133.1" style="enable-background:new 0 0 596.7 1133.1;" xml:space="preserve">
<style type="text/css">
	.st0{fill:#582D7A;}
	.st1{fill:#4C296B;}
	.st2{fill:#753B95;}
	.st3{fill:#663386;}
	.st4{fill:#FFFFFF;}
	.st5{fill:#E7E7E7;}
	.st6{fill:#66C1C6;}
	.st7{fill:#266363;}
	.st8{fill:#501627;}
	.st9{fill:#F56A82;}
</style>
<g>
	<path class="st0" d="M72.9,863.1l-17.3-19c0,0-46,50.1-24.3,135.1c19.3,75.1,66.9,33.4,51.2-11.3C67.1,923.1,72.9,863.1,72.9,863.1
		z"/>
	<path class="st1" d="M82.6,967.8C67.1,923.1,72.9,863,72.9,863l-26.3-6.6c-8.6,28.8,19.8,86.1,23.5,102.1
		c3.7,16.2,8.3,32.7,1.8,46.4c-6.4,13.7-27.4,4.7-27.4,4.7C66.2,1038.5,95.1,1004.2,82.6,967.8z"/>
	<g>
		<path class="st1" d="M410.8,829.5L395.1,809c0,0,57.5-36.2,137.2,0.3c70.4,32.3,21.1,71.8-20.2,48.6
			C470.9,834.7,410.8,829.5,410.8,829.5z"/>
		<path class="st0" d="M512,857.8c10.6,5.5,21.1,7.7,30.5,6.8c12.8-1.3,17.7-15.9,3.9-20.9c-5.2-1.8-17.2-6.1-25.7-5
			C507,840.8,498.5,850.7,512,857.8z"/>
	</g>
	<path class="st0" d="M175.9,1005.1c0,0-8.5,108.2-24.3,115.5c-15.8,7.4-10.2,12,27.6,12s45.2-3.7,47.1-35.1
		c1.8-31.4-9.5-81.6-9.5-81.6L175.9,1005.1z"/>
	<path class="st0" d="M329.7,1120.6c-15.8-7.4-24.3-115.5-24.3-115.5l-40.8,10.8c0,0-11.5,50.2-9.5,81.6
		c1.8,31.4,9.3,35.1,47.1,35.1C339.7,1132.6,345.2,1128.1,329.7,1120.6z"/>
	<path class="st1" d="M218.5,1089.7c-6,31.8-30,45.6-66,41.5c6,0.9,14.7,1.3,26.7,1.3c37.8,0,45.2-3.7,47.1-35.1
		c1.8-31.4-9.5-81.6-9.5-81.6L176,1005c0,0,6.6,6.5,21,12.9C211.1,1024.3,224.5,1057.9,218.5,1089.7z"/>
	<path class="st1" d="M306.5,1068.9c2.9,31,24,65.1-18.4,63.6l0,0c4.2,0.3,8.6,0.3,13.8,0.3c37.8,0,43.4-4.6,27.6-12
		c-15.8-7.4-24.3-115.5-24.3-115.5l-40.8,10.8c0,0,11.3,3.7,20.6,3.7S303.8,1037.8,306.5,1068.9z"/>
	<path class="st2" d="M428.7,777.1c6.8,8.9,17.2,14.1,17.2,14.1c-3.7-43.4-60.5-92.6-60.5-92.6c19,6.5,19.3,0.4,19.3,0.4
		C349.4,643,285,646.6,285,646.6c6.5-0.7,11.1-8.7,11.1-8.7c-27.5-9.1-50.2,4.7-50.2,4.7s-27-7.2-37-20.9c0,0-8.6,17.2,7.4,25.8
		c0,0-33.1-13.6-76.3,6.1c0,0,12.4,8.6,25.8,8.6c0,0-60.4,1.3-105.6,68.8c0,0,9.3,2.5,18.8-3.4c-11,11.3-30.1,35.5-35.2,69.9
		c0,0,7.3-1.3,12.6-9.6c-6.5,16.3-18,56.5-2.2,110.3c0,0,4.7-0.3,6-23.7c0,0,13,88.3,63,126.2c0,0,6.1-11-1.2-27.6
		c0,0,32.6,30.5,36.2,50.7c0,0,7.2-12.5,2.2-25.6c0,0,27.4,19.8,84.6,19.8s90-22.4,90-22.4c-3.3,11.3,7,22.4,7,22.4
		c0.9-18.8,25.9-44.9,25.9-44.9c-9.5,8.6-1.2,26.7-1.2,26.7c17.9-15.1,30.5-45.2,36.1-60.6c-1.3,10.8,5.5,18.3,5.5,18.3
		c24-25.8,22.9-88.8,22.9-88.8c1.7,15.6,15,28.7,15,28.7C456.8,839.3,428.7,777.1,428.7,777.1z"/>
	<path class="st3" d="M121.7,973c0,0,32.6,30.5,36.2,50.7c0,0,7.2-12.5,2.2-25.6c0,0,27.4,19.8,84.6,19.8s90-22.4,90-22.4
		c-3.3,11.3,7,22.4,7,22.4c0.9-18.8,25.9-44.9,25.9-44.9c-9.5,8.6-1.2,26.7-1.2,26.7c17.9-15.1,30.5-45.2,36.1-60.6
		c-1.3,10.8,5.5,18.3,5.5,18.3c24-25.8,22.9-88.8,22.9-88.8c1.7,15.6,15,28.7,15,28.7c11-58.1-17.2-120.2-17.2-120.2
		c6.8,8.9,17.2,14.1,17.2,14.1c-3.7-43.4-60.5-92.6-60.5-92.6c19,6.5,19.3,0.4,19.3,0.4c-55.3-55.9-119.7-52.4-119.7-52.4
		s6.6-0.8,14.7,8.5c8.1,9.1,17.9,21.9,37.9,28.6c20.1,6.5,69.8,32.1,84.1,73.3c0,0-11.7-3.5-17.2-10.8c0,0,43.9,88.4,11.5,170.9
		c0,0-8.1-8.5-6.4-19.8c0,0-34,98-151.2,108.1C164.1,1013.2,121.7,973,121.7,973z"/>
	<ellipse class="st4" cx="264.4" cy="759.1" rx="90.7" ry="90.7"/>
	<path class="st5" d="M354.9,754.1c-0.3-5.1-1-10.2-2.1-14.7c0.1,1.3,0.3,2.9,0.3,4.3c2.9,50.1-35.3,92.8-85.4,95.8
		c-45,2.5-84.1-28-93.7-70.8c5,48,46.8,84,95.4,81.1C319.5,847,357.9,804.1,354.9,754.1z"/>
	<path class="st6" d="M343.8,757.1c1.2,19.6-13.8,36.2-33.4,37.4c-19.6,1.2-36.2-13.8-37.4-33.4c-1.2-19.6,13.8-36.2,33.4-37.4
		C325.9,722.5,342.6,737.6,343.8,757.1z"/>
	<path class="st7" d="M327.8,758.1c0.7,10.8-7.6,20.1-18.4,20.6c-10.8,0.7-20.1-7.6-20.6-18.4c-0.7-10.8,7.6-20.1,18.4-20.6
		C317.9,738.9,327.3,747.3,327.8,758.1z"/>
	<path class="st4" d="M332.7,743.2c0.3,6.1-4.3,11.5-10.6,11.7c-6.1,0.3-11.5-4.3-11.7-10.6c-0.3-6.1,4.3-11.5,10.6-11.7
		C326.9,732.4,332.1,737,332.7,743.2z"/>
	<path class="st8" d="M250.7,900c37.6,0,41.2-23.2,67.8-11.7c26.6,11.5,19.9,87.6-56,92.5c-75.9,4.9-109.6-64.1-80.8-87.6
		C212.7,868,219.8,900,250.7,900z"/>
	<path class="st9" d="M189.3,955.4c15.5,15.8,40.3,27.5,73.2,25.4c26.5-1.8,44.6-12,55.7-25.4c-0.2-0.2-11.7-15.3-65.1-15.3
		C199.1,940.1,189.3,955.4,189.3,955.4z"/>
	<path class="st1" d="M552.3,862.1c0.7-0.3,1.4-0.1,2.1-0.3c5.2-0.7,8.2-6.3,5.7-11.5l0,0c-9.6-21.9-35.2-30.8-54-18.8
		C484.1,846.4,495.7,893.4,552.3,862.1z"/>
</g>
</svg>
