<?xml version="1.0" encoding="utf-8"?>
<!-- Generator: Adobe Illustrator 22.0.0, SVG Export Plug-In . SVG Version: 6.00 Build 0)  -->
<svg version="1.1" id="Layer_1" xmlns="http://www.w3.org/2000/svg" xmlns:xlink="http://www.w3.org/1999/xlink" x="0px" y="0px"
	 viewBox="0 0 600 600" style="enable-background:new 0 0 600 600;" xml:space="preserve">
<style type="text/css">
	.st0{fill:#AFAFAF;}
	.st1{fill:#563B24;}
	.st2{fill:#957659;}
	.st3{clip-path:url(#SVGID_2_);}
	.st4{opacity:0.49;fill:#957659;enable-background:new    ;}
	.st5{clip-path:url(#SVGID_4_);}
	.st6{clip-path:url(#SVGID_6_);}
	.st7{clip-path:url(#SVGID_8_);}
	.st8{fill:url(#SVGID_9_);}
</style>
<ellipse class="st0" cx="300" cy="577.4" rx="74.5" ry="11.5"/>
<g>
	<g>
		<path class="st1" d="M337.9,582.1c-20.6-106.7-7.4-209.3-1.6-316.7c3.9-70.9-3.4-141.9-5.1-212.8c-2.2-0.7-3.7-2.7-6.8-4.4
			c-0.6-3.3-0.6,9.2-1.2,5.8c-6.5-0.5-10.8,0.4-17.4-0.1c-1.2,6.9-3.4,13.7-6.8,20.3c-1.8-5.9-0.9-12-1.3-18
			c-6.4-1.4-13.5-0.7-20.1,0c-11,61.2-9.8,123-8.8,184.6c2.1,116,3,226.6,5.1,342.6C296.2,581.9,315.5,580.9,337.9,582.1z"/>
		<path class="st2" d="M331.7,582.7c-20.6-106.7-8.8-214.7-3-322.2c3.9-70.9-3.4-141.9-5.1-212.8c0,3.7-2.2,7.3-5.9,10.1
			c-0.6-3.3-1.5-5.3-2.1-8.6c-6.5-0.5-10.8,0.4-17.4-0.1c-1.2,6.9-3.4,13.7-6.8,20.3c-1.8-5.9-0.9-12-1.3-18
			c-6.4-1.4-13.5-0.7-20.1,0c-11,61.2-9.8,123-8.8,184.6c2.1,116,4.2,232.1,6.4,348C290.1,582.6,309.4,581.4,331.7,582.7z"/>
		<g>
			<g>
				<g>
					<defs>
						<path id="SVGID_1_" d="M331.7,582.7c-20.6-106.7-8.8-214.7-3-322.2c3.9-70.9-3.4-141.9-5.1-212.8c0,3.7-2.2,7.3-5.9,10.1
							c-0.6-3.3-1.5-5.3-2.1-8.6c-6.5-0.5-10.8,0.4-17.4-0.1c-1.2,6.9-3.4,13.7-6.8,20.3c-1.8-5.9-0.9-12-1.3-18
							c-6.4-1.4-13.5-0.7-20.1,0c-11,61.2-9.8,123-8.8,184.6c2.1,116,4.2,232.1,6.4,348C290.1,582.6,309.4,581.4,331.7,582.7z"/>
					</defs>
					<clipPath id="SVGID_2_">
						<use xlink:href="#SVGID_1_"  style="overflow:visible;"/>
					</clipPath>
					<g class="st3">
						<path class="st4" d="M322.6,335.7c7.9-11.4,18.9-21.7,30.2-31.9c1.3-1.3-0.1-3-1.9-1.5c-21.8,17.6-37.6,36.9-44.7,59.2
							c-8.2,25.5-10.2,52-10,78c0.4,28.1,7.3,55.7,10.7,83.7c1.5,12.7,2.8,25.2,7.1,37.6c3.7,10.7,10.4,23.5,5.9,34.5
							c-0.1,0.5,0.6,0.4,0.7,0c3.6-7.9,1.6-16.2-0.7-24.2c-3.1-10.7-6.4-21.1-7.7-32c-3.3-27.9-9.2-55.7-11.1-83.7
							c-1.9-27.4-0.4-54.9,5.9-82C309.9,360.3,314.3,347.6,322.6,335.7z"/>
						<path class="st4" d="M345.4,294.7c-56,34-71.2,89.9-71,137.8c0,27.8,5.3,55.5,12.8,82.9c3.4,12.3,6.7,24.6,9.8,36.9
							c3,11.7,6.7,24.9,1.5,36.5c-0.1,0.3,0.4,0.4,0.6,0.1c9.8-17.9,0.1-38.7-4.2-56.9c-6.7-27.8-14.1-55.4-16.2-83.6
							c-3.9-55.1,10.8-110.1,67.7-152.4C347.3,295.3,346.9,293.8,345.4,294.7z"/>
						<path class="st4" d="M335.4,281.8c-25.6,18-38.8,43.1-51.1,65.9c-14.7,27-22,54.7-23.6,83.2c-1.6,29,0.7,58,8,86.7
							c3.3,12.7,5.2,25.7,9.1,38.3c3.7,12.2,10.8,25.4,6.5,37.9c-0.3,0.8,0.9,1.1,1.3,0.3c4.5-8.3,1.6-17.5-0.9-26
							c-3.6-12.1-6.4-24.1-9.2-36.3c-6.7-28.9-12-57.2-11.9-86.5c0.1-56.5,21.5-116.3,73.1-162.4
							C337.3,282.3,336.8,280.9,335.4,281.8z"/>
						<path class="st4" d="M321.9,277c-20.5,14.9-36.5,32.6-49.9,50.5c-12.3,16.5-26,35.8-26.7,54.5c0,0.5,0.9,0.2,1-0.1
							c7-19.2,15.6-37.2,29.1-55.1c13.4-17.5,29.6-33.8,47.4-49.4C323.4,277,322.5,276.5,321.9,277z"/>
						<path class="st4" d="M278.2,300.2c-10,7-17.1,17.4-23.2,26.1c-0.3,0.4,0.4,0.4,0.7,0.2c4.8-3.5,8-7.8,11.6-11.9
							c4-4.8,8.6-9.3,12.6-14C280.9,299.6,279,299.7,278.2,300.2z"/>
						<path class="st4" d="M338.8,531.9c-8-15.7-16.9-30.9-21.2-47.4c-4.3-16.7-2.5-32.7-2.7-49.4c0-0.2-0.7-0.7-0.9-0.4
							c-7.4,15-3.6,34,0.3,49.3c4.2,16.2,10.5,33.7,23,48.1C337.8,532.6,339.1,532.7,338.8,531.9z"/>
						<path class="st4" d="M328.4,35.2c0-4.1-0.9-8-3.3-11.6c-0.3-0.5-2.2-0.2-2.1,0.3c4.2,16.6-5.2,33.4-12,49.1
							c-8.3,19.3-10.8,39.3-9.7,59.4c0,0.6,2.1,0.4,2.1-0.2c1.5-22.1,4.3-43,13.7-64.2c3.3-7.3,8.2-16.3,10.2-25.1
							c-0.4,15.8-11,31.7-14.1,47.1c-3.7,18.7,1.3,37.9,2.1,56.6c0,1.1,1.6,1.2,1.8,0c1.5-9.2-0.6-18.7-1.6-27.8
							c-1.3-12.7-1.8-25.1,2.5-37.5C323.2,66.5,331.9,50.7,328.4,35.2z"/>
						<path class="st4" d="M313.7,28.5c-0.3-1.2-2.5,0.2-2.5,0.9c-1.3,18.8-6.7,35.4-15.6,53.3c-7.4,14.9-15.9,30.2-15.2,46.1
							c0,0.6,1,0.1,1-0.3c2.2-18.3,12-35.3,20.5-52.5C309.1,61.4,318.2,43.9,313.7,28.5z"/>
						<path class="st4" d="M300.1,26.2c-4.5,18.9-16.6,35.7-26.7,53.4c-8.9,15.6-14.3,32.2-16.3,48.9c0,0.4,0.7,0.9,0.9,0.3
							c6.1-18.4,11.3-36.4,22.1-54c9.7-15.5,20.9-31.1,21.4-48.2C301.3,26,300.2,25.5,300.1,26.2z"/>
					</g>
				</g>
			</g>
		</g>
	</g>
	<g>
		<path class="st1" d="M573,315.2c-3.7,0.7-4.5-7.6-8.2-6.8C390.4,340.5,208.9,341.1,34,370.9c2.1,4.5,5.2,8.5,9.1,11.6
			c-0.7,3.3-6.1,1.9-8.3,4.5c-0.9,1-1,2.7-1,4c-0.1,9.8-4.6,23.5-3.4,33.1c0.4,3.9,3.6,5.5,6.7,7.7c178-28.1,360.7-15.6,537.5-49.9
			c1.3-5.5,3.4-11.4,3-17.1c-5.9,0-12-0.1-18-0.1c5.1-2.5,10.2-5.2,15.3-7.7C575,343,572.7,329.3,573,315.2z"/>
		<path class="st2" d="M565.7,307.9c-178,34.6-360.4,25.3-539.1,55.7c2.1,4.5,5.2,8.5,9.1,11.6c-0.7,3.3-6.1,1.9-8.3,4.5
			c-0.9,1-1,2.7-1,4c-0.1,13.7,1,27.3,3.4,40.9c178-28.1,360.7-15.6,537.5-49.9c1.3-5.5,3.4-11.4,3-17.1c-5.9,0-12-0.1-18-0.1
			c5.1-2.5,10.2-5.2,15.3-7.7C567.8,335.6,565.4,321.9,565.7,307.9z"/>
		<g>
			<g>
				<g>
					<defs>
						<path id="SVGID_3_" d="M565.7,307.9c-178,34.6-360.4,25.3-539.1,55.7c2.1,4.5,5.2,8.5,9.1,11.6c-0.7,3.3-6.1,1.9-8.3,4.5
							c-0.9,1-1,2.7-1,4c-0.1,13.7,1,27.3,3.4,40.9c178-28.1,360.7-15.6,537.5-49.9c1.3-5.5,3.4-11.4,3-17.1c-5.9,0-12-0.1-18-0.1
							c5.1-2.5,10.2-5.2,15.3-7.7C567.8,335.6,565.4,321.9,565.7,307.9z"/>
					</defs>
					<clipPath id="SVGID_4_">
						<use xlink:href="#SVGID_3_"  style="overflow:visible;"/>
					</clipPath>
					<g class="st5">
						<path class="st4" d="M589.4,315.9c-45.2,17.1-90.3,36.2-139.2,38.9c-24.1,1.3-48.1,0.6-72,2.7c-21.5,1.9-42.8,5.3-64,8.6
							c-47.1,7-96.1,9.1-141.7,23.5c-41.6,13.1-79.6,36.5-115.7,60.6c-1.2,0.7-0.7,4,0.9,3c39.4-24.5,78.4-50.1,123.6-62.5
							c45.6-12.6,93.6-15.2,140.1-22.3c25-3.9,49.8-7.7,75-8.8c22.3-1,44.7-0.3,67.1-2.5c21.2-2.1,41.4-8,61.6-14.4
							c21.8-6.8,44.6-14.1,64.8-25C590.3,317.4,590.2,315.6,589.4,315.9z"/>
						<path class="st4" d="M598.4,328.1c-41.7,19-82.3,34.5-128.1,40.7c-40.1,5.3-80.4,7.4-120.8,10.2
							c-79.5,5.5-161.3,14.1-230.7,56.4c-0.6,0.4,0.3,1.8,1,1.5c72.3-42,157.8-49,239.5-54.5c80.8-5.5,169.8-7.3,241.1-51.1
							C602.1,330.4,599.8,327.4,598.4,328.1z"/>
						<path class="st4" d="M615.1,352.6c-26,6.1-51.5,13.8-77.8,18.9c-26.3,5.2-52.7,9.4-79.2,13.2c-26.3,3.9-52.9,6.4-79.2,10.7
							c-18.9,3.1-40,5.9-55.1,18.4c-0.6,0.6-0.6,2.7,0.4,2.1c16.2-12.2,38.2-14.7,57.6-17.7c26.7-4.2,53.8-6.7,80.5-10.7
							c25.1-3.7,50.1-7.7,75-12.6c26-5.1,53.2-10.1,77.7-20.1C616,354.6,616.3,352.3,615.1,352.6z"/>
						<path class="st4" d="M225.3,334.4c-42.9,10.4-85.6,22.4-128.6,32.4c-18.9,4.3-37,9.5-55.1,16.2c-8.6,3.1-24.7,6.7-29.6,15.6
							c-0.4,0.7,0.9,1.9,1.5,1.3c9.2-8.9,24.1-12.3,35.9-16.6c18.3-6.5,36.8-11.1,55.7-15.4c40.3-9.2,82.7-16.6,121.4-31.6
							C227.7,335.9,226.2,334.2,225.3,334.4z"/>
						<path class="st4" d="M86.6,355.9c-29.3,5.3-58.8,13.1-85.7,25.7c-1.2,0.6,0.4,1.6,1.3,1.3c27.6-11.7,56.4-17.4,85.1-25.6
							C88.5,356.9,87.5,355.8,86.6,355.9z"/>
					</g>
				</g>
			</g>
		</g>
	</g>
	<g>
		<path class="st1" d="M575.2,219.4c0.4,9.8,1,19.6,1.5,29.6c-7.6,0.4-15.2,1.8-22.4,4c7.6,0.4,11.6-4.9,18.7-4.8
			c1,0,7.4,8.6,7.4,9.7c0,12.3,0,27.3,0,39.7c-13.2,2.1-26.3,4.3-39.5,6.4c-1.9,0.3-4.2,0.9-4.9,2.7c-0.7,1.8,0.3,4-0.7,5.6
			c-0.7,1.3-2.4,1.8-3.9,2.1c-48.3,9.8-94.3,17.8-143.4,21.4c-42.9,3.1-85.7,6.4-128.6,9.5c-76.8,5.6-229.7,4.3-229.7,4.3
			c-2.7-2.1-5.8-4.2-7.3-7.1c4.6-11.9,9.8-30.7,12.6-40.7c0.7-2.7,1.6-5.8,0.4-8.3c-0.6-1.5-1.9-2.5-2.8-3.9
			c-4-5.3-3.1-12.8-2.1-19.3c103.7-13.2,208-29.1,311.7-42.3c27.8-3.6,55.6-7,83.5-8.5c19.9-0.9,39.8-0.9,59.9-0.7
			c25.1,0.1,58.7-12.6,82.7-6.7C569.5,212.7,573,216.1,575.2,219.4z"/>
		<path class="st2" d="M567.8,212.1c0.4,9.8,1,19.6,1.5,29.6c-7.6,0.4-15.2,1.8-22.4,4c7.6,0.4,15.2,0.9,22.7,1.3
			c0.9,0,1.9,0.1,2.7,0.9c0.7,0.7,0.7,1.8,0.7,2.8c0,12.3,0,27.3,0,39.7c-13.2,2.1-26.3,4.3-39.5,6.4c-1.9,0.3-4.2,0.9-4.9,2.7
			c-0.7,1.8,0.3,4-0.7,5.6c-0.7,1.3-2.4,1.8-3.9,2.1c-48.3,9.8-94.3,17.8-143.4,21.4c-42.9,3.1-85.7,6.4-128.6,9.5
			c-76.8,5.6-229.7,4.3-229.7,4.3c-0.9-16,0.9-32.2,5.5-47.7c0.7-2.7,1.6-5.8,0.4-8.3c-0.6-1.5-1.9-2.5-2.8-3.9
			c-4-5.3-3.1-12.8-2.1-19.3C127,250,231.3,234.1,335,220.9c27.8-3.6,55.6-7,83.5-8.5c19.9-0.9,39.8-0.9,59.9-0.7
			C508.6,212,537.4,211.8,567.8,212.1z"/>
		<g>
			<g>
				<g>
					<defs>
						<path id="SVGID_5_" d="M567.8,212.1c0.4,9.8,1,19.6,1.5,29.6c-7.6,0.4-15.2,1.8-22.4,4c7.6,0.4,15.2,0.9,22.7,1.3
							c0.9,0,1.9,0.1,2.7,0.9c0.7,0.7,0.7,1.8,0.7,2.8c0,12.3,0,27.3,0,39.7c-13.2,2.1-26.3,4.3-39.5,6.4c-1.9,0.3-4.2,0.9-4.9,2.7
							c-0.7,1.8,0.3,4-0.7,5.6c-0.7,1.3-2.4,1.8-3.9,2.1c-48.3,9.8-94.3,17.8-143.4,21.4c-42.9,3.1-85.7,6.4-128.6,9.5
							c-76.8,5.6-229.7,4.3-229.7,4.3c-0.9-16,0.9-32.2,5.5-47.7c0.7-2.7,1.6-5.8,0.4-8.3c-0.6-1.5-1.9-2.5-2.8-3.9
							c-4-5.3-3.1-12.8-2.1-19.3C127,250,231.3,234.1,335,220.9c27.8-3.6,55.6-7,83.5-8.5c19.9-0.9,39.8-0.9,59.9-0.7
							C508.6,212,537.4,211.8,567.8,212.1z"/>
					</defs>
					<clipPath id="SVGID_6_">
						<use xlink:href="#SVGID_5_"  style="overflow:visible;"/>
					</clipPath>
					<g class="st6">
						<path class="st4" d="M427.4,244.3c-34.6,2.4-69.4,11.3-103.5,17.4c-35.5,6.4-70.7,9.8-106.7,11.3
							c-40.6,1.6-81.3,5.2-121.8,5.5c-31,0.1-69.5-5.9-98,9.4c-0.4,0.3-0.4,1.6,0.1,1.2c26-12.6,60.2-7.6,88.1-7.4
							c31.5,0.1,62.7-2.7,94.2-3.9c32.7-1.3,65.4-1.8,97.7-5.3c32.4-3.4,64.5-10.1,96.4-16c14.7-2.7,29.6-5.9,44.4-7.7
							c7.1-0.9,15.2-2.1,22.3-0.7c5.3,1,6.5,0.6,6.8,5.9c0.4,7.1-8.5,9.4-14.1,10.8c-10.8,2.8-22.4,2.2-33.6,3.1
							c-16.8,1.5-33.6,3-50.2,4.5c-33.3,3-66.7,6.1-99.8,11c-29.1,4.3-57.8,8.8-87.2,10.8c-61.5,4.6-125.4,6.2-181.1,35.9
							c-1.6,0.9-1.5,5.1,0.7,4c56.6-30.3,121.8-31.5,184.4-36.4c32.8-2.5,64.8-8.5,97.4-12.9c35.9-4.9,72.2-8.2,108.4-11.4
							c14.6-1.3,29.1-2.7,43.7-3.6c10.8-0.6,24.2-1.3,32.5-9.5C462.9,246.3,437.2,243.6,427.4,244.3z"/>
						<path class="st4" d="M522.7,231.1c-22.3-1.8-44.4,3.6-66.4,6.2c-46.6,5.6-93.7,9.1-140.5,11.7c-27.3,1.6-53.9,6.5-81,9.2
							c-26.1,2.7-52.6,4.9-78.9,6.2c-51,2.5-102.8-0.6-152.9,10.7c-0.6,0.1-1,1.3-0.1,1c44.3-7.6,89-7.1,133.8-8.5
							c44-1.2,88.4-4.6,131.9-11.1c43.8-6.7,89.1-7,133.2-11c28.4-2.5,56.3-6.1,84.5-9.5c10.1-1.2,63.6-8.3,51.5,15.2
							c-5.5,10.7-20.2,16-30.7,19.9c-12.2,4.5-25,7.4-37.6,10c-28.2,5.6-56.6,7.7-85.4,8c-46.2,0.4-91.2,2.7-137.1,7.7
							c-48.7,5.2-97.3,11.7-146,16.6c-41.9,4.3-84.5,9.7-122.6,28.7c-2.1,1-1.9,4.3,0.7,3c40.6-20.4,86.3-24.7,130.7-29.3
							c47.7-4.8,95.2-11.4,143.1-16.5c23.8-2.5,47.7-5.5,71.6-6.4c24.1-1,48.3-0.4,72.5-1c27.5-0.7,54.7-3.9,81.4-10
							c19.6-4.5,47.5-10.1,60.6-27C550.5,240.2,537.1,232.3,522.7,231.1z"/>
						<path class="st4" d="M595.2,268.7c-39.5,11.6-77.4,25.1-118.4,30.2c-40.9,5.1-82.4,5.1-123.4,6.1c-40.6,1-81.1,1.8-121.5,4.9
							c-37.4,2.8-75.3,3.4-112.5,9.1c-42.9,6.5-82.3,26.6-125.1,34.2c-0.6,0.1-0.9,1.5-0.1,1.3c36.4-4.6,69.8-20.6,105.5-28.7
							c39.1-8.8,79.6-8,119.3-11.3c83-6.5,167-2.2,249.7-10.7c42.8-4.5,86.9-15.2,126.3-32.7C596.1,270.9,596.9,268.3,595.2,268.7z"
							/>
						<path class="st4" d="M559.9,306c-34.3,13.7-68.9,23.5-104.7,29.9c-64-1.6-128.1-3.4-192.1-6.2c-58.5-2.7-116.5-3.1-172.2,18.1
							c-0.6,0.3,0.1,0.7,0.6,0.6c59.1-20.1,120-18.4,181.5-15.7c57.3,2.5,114.8,5.3,172.2,4.9c-7.6,1.2-15.3,2.4-23,3.3
							c-50.4,6.1-101.2,8.5-151.8,12.6c-48.3,4-95.8,9.7-142.3,23.8c-44.6,13.4-87.9,31.5-129.4,52.7c-0.7,0.4-0.9,1.8,0.1,1.3
							c45-20.4,90-40.3,137.6-53.8c48.9-13.8,99.1-18.3,149.6-22c49.3-3.6,98.8-6.1,147.8-12.8c42.8-5.8,87.5-14.4,126-34.9
							C560.5,307.5,560.9,305.5,559.9,306z"/>
						<path class="st4" d="M578.1,225.3c-44.4-5.2-89-2.2-133.4,2.2c-45.3,4.5-90.8,8.3-136.2,12.5c-43.4,4-86.8,10-130.3,12
							c-19.3,0.9-38.5,1-57.6,3c-19.5,1.9-40.4,4.5-59.4-1.2c-0.4-0.1-0.6,0.7-0.1,0.9c17.5,5.5,35.2,5.1,53.5,3.6
							c19-1.5,37.7-2.2,56.7-2.7c44.3-1,88.2-7.1,132.4-11.3c45.3-4.2,90.8-7.7,136.1-12c46.1-4.5,92-7,138.2-3
							C579.9,229.6,580.1,225.6,578.1,225.3z"/>
					</g>
				</g>
			</g>
		</g>
	</g>
	<g>
		<path class="st1" d="M569.8,108c0.4,22.1,0.7,46.9,1,69.1c-7.6,0.9-15.2,3.1-22,6.5c4.2,0.1,11.1-7.3,15.3-7.3
			c3.4,0,3.6,3.6,7.6,7.1c0.6,7,0.3,15.4-0.9,22.3c-65.2,4.5-130.4,9.2-195.3,16.9C263.7,236,151.8,258.2,39.4,252.1
			c-3.3-2.1-5.3-3.1-7.6-6.7c-1-1.8,3.3-14.4,3-16.8c4.8-2.1,9.5-4.3,14.4-6.4c-3.9-2.5-8.5-3.7-13.1-3.4c0-9.7-2.4-20.2-2.4-29.9
			c0-1.6,0-3.3,0.7-4.6c0.7-1.3,1.9-2.2,3.3-3c8.3-5.1,18.7-5.5,28.5-5.6c-10.1-2.4-20.1-4.8-30.2-7.1c0-4.5-0.1-9.1-0.1-13.5
			c120.9-16.5,239.8-24.5,361.4-34.6c52.4-4.3,111.6-15.3,164-19.3C566.1,101,567.2,104.6,569.8,108z"/>
		<path class="st2" d="M562.4,100.7c0.4,22.1,0.7,46.9,1,69.1c-7.6,0.9-15.2,3.1-22,6.5c7.6,0.1,15.2,0.1,22.9-0.1
			c0.6,7,0.3,15.4-0.9,22.3c-65.2,4.5-130.4,9.2-195.3,16.9c-111.9,13.4-223.7,35.5-336.2,29.4c-1.3-7.3-3.6-16.2-4.6-23.5
			c4.8-2.1,9.5-4.3,14.4-6.4c-3.9-2.5-8.5-3.7-13.1-3.4c0-9.7-2.4-20.2-2.4-29.9c0-1.6,0-3.3,0.7-4.6c0.7-1.3,1.9-2.2,3.3-3
			c8.3-5.1,18.7-5.5,28.5-5.6c-10.1-2.4-20.1-4.8-30.2-7.1c0-4.5-0.1-9.1-0.1-13.5c120.9-16.5,239.8-24.5,361.4-34.6
			C447.1,108.6,505.4,105.5,562.4,100.7z"/>
		<g>
			<g>
				<g>
					<defs>
						<path id="SVGID_7_" d="M562.4,100.7c0.4,22.1,0.7,46.9,1,69.1c-7.6,0.9-15.2,3.1-22,6.5c7.6,0.1,15.2,0.1,22.9-0.1
							c0.6,7,0.3,15.4-0.9,22.3c-65.2,4.5-130.4,9.2-195.3,16.9c-111.9,13.4-223.7,35.5-336.2,29.4c-1.3-7.3-3.6-16.2-4.6-23.5
							c4.8-2.1,9.5-4.3,14.4-6.4c-3.9-2.5-8.5-3.7-13.1-3.4c0-9.7-2.4-20.2-2.4-29.9c0-1.6,0-3.3,0.7-4.6c0.7-1.3,1.9-2.2,3.3-3
							c8.3-5.1,18.7-5.5,28.5-5.6c-10.1-2.4-20.1-4.8-30.2-7.1c0-4.5-0.1-9.1-0.1-13.5c120.9-16.5,239.8-24.5,361.4-34.6
							C447.1,108.6,505.4,105.5,562.4,100.7z"/>
					</defs>
					<clipPath id="SVGID_8_">
						<use xlink:href="#SVGID_7_"  style="overflow:visible;"/>
					</clipPath>
					<g class="st7">
						<path class="st4" d="M368.7,225.9c-29.1-7-58.7-13.2-88.5-14.6c-31.8-1.5-63.9,1.8-95.5,5.5c-30.2,3.6-60.2,7.7-90,12.9
							c-30.9,5.3-61.2,9.4-92.7,8c-0.7,0-1.6,1.8-0.7,1.9c27.8,3.9,56.3-0.9,83.8-5.3c30.5-5.1,61.1-9.2,91.8-12.9
							c30.9-3.7,61.9-6.7,93-6.2c33,0.4,65.1,8,97.4,13.7C368.5,229,370.3,226.4,368.7,225.9z"/>
						<path class="st4" d="M460.6,211.8c-29.7-15.3-65.5-18.9-98.5-17.7c-41.4,1.3-82.7,2.2-123.7,7.9
							c-41.7,5.6-83.3,12.5-125.4,16.2c-17.8,1.6-35.5,3-53.2,5.8c-16.9,2.8-36.1,7.3-52.7,1.2c-1.2-0.4-0.9,1.2-0.1,1.5
							c11.7,4.8,24.4,3.9,36.7,2.5c17.4-1.9,34.6-4.9,52.1-6.2c40.1-3.3,79.8-8.3,119.6-13.8c43.4-5.9,86.2-8.6,130-10.2
							c39.8-1.5,77.2,0.1,114.5,15.9C462.6,215.8,462.7,212.9,460.6,211.8z"/>
						<path class="st4" d="M574.9,207.8c-37.1-21.1-82.1-28.1-124-31.6c-46.3-3.9-92.7-2.2-139,2.7c-48.9,5.2-97.2,13.8-145.7,20.8
							c-25.1,3.6-50.4,5.9-75.6,8.9c-25.3,3.1-50.5,9.1-75.9,3.9c-1.3-0.3-1.9,1.2-0.4,1.5c19.9,4.9,40.1,2.2,60.2-0.6
							c23-3.1,46.1-4.9,69.1-7.9c49-6.1,97.7-14.4,146.8-20.4c94.5-11.4,194-14.7,282.7,24.8C575,211.1,577.4,209.3,574.9,207.8z"/>
						<path class="st4" d="M585.3,168.3c-32.1-9.4-63.4-20.6-97-22.3c-34.9-1.8-70,1.8-104.6,5.8c-73.8,8.8-146.8,23.6-220.4,33.1
							c-16.8,2.2-33.7,3.9-50.5,6.2c-12.2,1.8-24.5,6.2-36.8,6.2c-3.9,0-7.4,0-10.5-3c-4.2-4.2-3.6-3.6,1.6-6.7
							c5.5-3.3,13.4-4.2,19.6-4.9c14-1.8,28.2-1.2,42.3-1.5c32.7-0.4,66.1-5.3,98.3-10c36.8-5.3,73.2-13.2,109.5-22
							c39.2-9.5,78.3-19.9,117.7-28.8c42.8-9.7,85-11.3,128.6-12.3c3,0,1-3.3-1-3.3c-23.3,0-46.6-0.1-70,1.8
							c-25,2.1-49.5,7.4-73.7,13.2c-47.5,11.4-94.9,24.2-142.6,34.8c-48,10.5-96.3,17.4-145.1,22.1c-18.4,1.8-36.8,0.9-55.4,2.1
							c-12.9,0.7-26.7,2.4-37.6,10.1c-0.4,0.3-0.3,1,0,1.3c8.2,16.8,34,7.7,47.7,4.9c36.5-7.6,74.6-9.7,111.6-15.4
							c79.5-12.2,159.7-28.8,240.7-31.5c22.1-0.7,44.3,0,66,4.6c20.9,4.5,41.1,11.7,61.8,17.1C586.9,170.5,586.6,168.7,585.3,168.3z
							"/>
						<path class="st4" d="M393.1,105.2c-11.9,20.4-46.9,23.6-67.9,28.4c-39.7,9.1-80.1,13.5-120.5,18.3
							c-38,4.5-76.1,9.2-113.9,15.2c-29.3,4.6-59.9,8.9-82.6,29.7c-1.8,1.6,2.2,3.4,3.6,2.1c27.6-25,68.3-27.2,103.5-32.2
							c40.4-5.8,80.8-10.5,121.4-15.3c35.7-4.3,70.6-10.7,105.5-19c15.9-3.9,45.5-8.6,51.7-26.6C394.2,105,393.2,104.9,393.1,105.2z
							"/>
						<path class="st4" d="M226.7,118.7C183,131.1,141.4,145,96,149.6c-19.8,1.9-39.1,5.5-58.5,9.5c-11.1,2.2-28.1,3.9-35.4,14
							c-0.6,0.7,1,1.5,1.6,1c11.6-9.2,26.7-10.7,40.7-13.7c22.7-4.6,45.5-7,68.3-10c39.2-4.9,78.4-15.7,115.1-30.3
							C229.5,119.7,227.7,118.4,226.7,118.7z"/>
					</g>
				</g>
			</g>
		</g>
	</g>
	<g>
		<circle class="st2" cx="291.9" cy="161.8" r="8.3"/>
		
			<radialGradient id="SVGID_9_" cx="287.6099" cy="-141.436" r="10.3942" gradientTransform="matrix(1 0 0 1 0 300)" gradientUnits="userSpaceOnUse">
			<stop  offset="0" style="stop-color:#E6E7E8"/>
			<stop  offset="1" style="stop-color:#58595B"/>
		</radialGradient>
		<circle class="st8" cx="290.1" cy="160.6" r="8.3"/>
	</g>
</g>
<text transform="matrix(1 0 0 1 -218.5337 363.9893)" style="font-family:'Raleway-ExtraBold'; font-size:320.3921px;">8</text>
<g>
	<path d="M383.8,307.1c0,10.9-2.2,20.7-6.7,29.5c-4.5,8.8-10.5,16.3-18.1,22.6c-7.6,6.3-16.5,11.2-26.8,14.6
		c-10.3,3.4-21.1,5.1-32.7,5.1c-11.3,0-22.1-1.8-32.2-5.3c-10.1-3.5-19.1-8.5-26.8-14.9c-7.7-6.4-13.8-14.1-18.3-23.2
		c-4.5-9.1-6.7-19.2-6.7-30.3c0-6,1-11.6,2.9-16.8c1.9-5.2,4.4-10,7.4-14.3c3-4.3,6.4-8,10.3-11.2c3.8-3.2,7.6-6,11.2-8.3
		c-7-3.8-13-9.5-17.8-17c-4.8-7.5-7.2-15.4-7.2-23.7c0-10.5,2.4-19.8,7.2-28c4.8-8.2,10.9-15.1,18.4-20.5
		c7.5-5.4,15.7-9.6,24.8-12.5c9.1-2.9,18-4.3,26.8-4.3c8.8,0,17.7,1.4,26.9,4.2c9.2,2.8,17.6,6.9,25.2,12.3
		c7.6,5.4,13.8,12.2,18.6,20.3c4.8,8.1,7.2,17.4,7.2,27.9c0,4.3-0.7,8.4-2.1,12.5c-1.4,4.1-3.2,8-5.4,11.7c-2.2,3.7-5,7-8.2,9.9
		c-3.2,2.9-6.5,5.3-9.9,7.2c3.8,2.4,7.7,5.2,11.5,8.7c3.8,3.4,7.3,7.3,10.4,11.7c3.1,4.4,5.6,9.2,7.4,14.6
		C382.9,294.8,383.8,300.7,383.8,307.1z M331.9,303.9c0-4.5-0.9-8.5-2.7-12c-1.8-3.5-4.2-6.5-7.2-8.8c-3-2.3-6.4-4.2-10.3-5.4
		c-3.8-1.3-7.9-1.9-12.2-1.9c-9,0-16.6,2.6-22.7,7.7c-6.2,5.1-9.3,12.1-9.3,20.8c0,4.3,0.9,8.1,2.7,11.5c1.8,3.4,4.2,6.4,7.2,8.8
		c3,2.5,6.4,4.4,10.3,5.8c3.8,1.4,7.9,2.1,12.2,2.1c4.3,0,8.4-0.7,12.3-2.1c3.9-1.4,7.4-3.4,10.3-5.9c2.9-2.6,5.2-5.6,6.9-9.1
		C331,311.8,331.9,308,331.9,303.9z M274.2,214.8c0,3.8,0.7,7.2,2.2,9.9c1.5,2.8,3.5,5.1,5.9,6.9c2.5,1.8,5.2,3.2,8.2,4.2
		c3,1,6,1.4,9,1.4c3,0,6-0.5,9.1-1.4c3.1-1,5.9-2.4,8.3-4.3c2.5-1.9,4.4-4.3,5.9-7c1.5-2.8,2.2-6,2.2-9.6c0-6.2-2.5-11.3-7.5-15.2
		c-5-3.9-11.1-5.9-18.1-5.9s-13,2-17.9,5.9C276.7,203.6,274.2,208.6,274.2,214.8z"/>
</g>
</svg>
