<?xml version="1.0" encoding="utf-8"?>
<!-- Generator: Adobe Illustrator 22.0.0, SVG Export Plug-In . SVG Version: 6.00 Build 0)  -->
<svg version="1.1" id="Layer_1" xmlns="http://www.w3.org/2000/svg" xmlns:xlink="http://www.w3.org/1999/xlink" x="0px" y="0px"
	 viewBox="0 0 1483.2 438.3" style="enable-background:new 0 0 1483.2 438.3;" xml:space="preserve">
<style type="text/css">
	.st0{fill:#C4C2C2;}
	.st1{enable-background:new    ;}
	.st2{fill:#753B95;}
	.st3{fill:#582D7A;}
	.st4{fill:#4C296B;}
	.st5{fill:#663386;}
	.st6{fill:#FFFFFF;}
	.st7{fill:#E7E7E7;}
	.st8{fill:#66C1C6;}
	.st9{fill:#266363;}
	.st10{fill:#501627;}
	.st11{fill:#F56A82;}
	.st12{fill:#F6901B;}
	.st13{fill:#E77E16;}
	.st14{fill:#FCAD68;}
	.st15{fill:#ECECEC;}
</style>
<path class="st0" d="M561.8,377.7c8.2,10.4,20.2,16.6,20.2,16.6c0-0.1,0-0.1,0-0.2c0.1,0,0.1,0.1,0.1,0.1
	c-4.2-50.2-67.8-106.9-72.2-110.8c15.6,5.3,20.5,3.4,22.1,1.8c0.8-0.8,0.8-1.5,0.8-1.5c-14.4-14.6-29.3-25.8-43.9-34.4
	c77.8-69.2-1.2-126-1.2-126c0,0,0,0.1,0,0.1c-0.1-0.1-0.1-0.1-0.1-0.1s0.1,0.1,0.2,0.2c20,50.7-36.6,86.2-65.3,100.5
	c-17-3.3-29.1-3.3-32.3-3.2c7.4-1.3,12.3-10.5,12.3-10.5c-32.8-10.9-60.2,5.7-60.2,5.7s-32.5-8.6-44.3-24.8c0,0-10.3,20.6,8.8,31
	c0,0-22.2-9-54.9-3.8c-29.9-16.8-72.6-49.9-54.8-94.9c0.1-0.1,0.2-0.2,0.2-0.2s0,0-0.1,0.1c0,0,0-0.1,0-0.1c0,0-81.5,58.5,2.5,129.2
	c-24.3,11-54.1,31.5-80.1,70c0,0,11.1,3.1,22.4-4.1c-13.1,13.6-36,42.5-42.3,83.7c0,0,8.7-1.6,15.2-11.6
	c-7.8,19.7-21.6,67.8-2.6,132.1c0,0,5.7-0.4,7.1-28.4c0,0,15.8,105.8,75.5,151.2c0,0,7.3-13.3-1.3-33.2c0,0,38.9,36.5,43.4,60.8
	c0,0,4.8-8.4,4.7-19.3c0-3.6-0.6-7.5-2.1-11.4c1,0.7,33.8,23.7,101.3,23.7c67.5,0,106.7-26.2,107.9-27c-0.5,1.7-0.7,3.4-0.7,5
	c-0.3,11.6,8.9,22,8.9,22c0.9-18.8,22.1-43.8,29-51.4c-2.6,3.6-3.4,8-3.3,12.3c0.2,8.9,4.2,17.5,4.2,17.5
	c21.5-18.3,36.5-54.1,43.2-72.8c-0.1,0.8-0.1,1.6-0.2,2.3c-0.4,11.6,6.8,19.5,6.8,19.5c26.1-28.1,27.3-92.7,27.3-104.4
	c0-1,0-1.6,0-1.8c2,18.7,18,34.4,18,34.4c0.6-3.3,1.1-6.6,1.6-9.8C591.9,448.3,564.6,384,561.8,377.7z M390.2,220.8
	c0.2,0,0.5,0,0.8,0.1c-1.1,0-1.7,0-1.7,0C389.6,220.9,389.9,220.8,390.2,220.8z"/>
<g class="st1">
	<path class="st2" d="M868.3,362.6c0,3.7-0.9,7.6-2.7,11.9s-4.6,8.5-8.5,12.6s-8.8,7.4-14.8,10s-13,3.8-21,3.8
		c-6.1,0-11.6-0.6-16.6-1.7c-5-1.2-9.5-2.9-13.5-5.4c-4.1-2.4-7.8-5.6-11.2-9.6c-3-3.6-5.6-7.7-7.8-12.1c-2.1-4.5-3.8-9.2-4.8-14.3
		c-1.1-5.1-1.6-10.5-1.6-16.2c0-9.3,1.3-17.6,4-24.9s6.6-13.6,11.6-18.8s10.9-9.2,17.7-11.9c6.8-2.7,13.9-4.1,21.6-4.1
		c9.3,0,17.6,1.9,24.9,5.6c7.3,3.7,12.8,8.3,16.7,13.8s5.8,10.6,5.8,15.5c0,2.7-0.9,5-2.8,7.1c-1.9,2-4.2,3.1-6.8,3.1
		c-3,0-5.2-0.7-6.7-2.1s-3.2-3.8-5-7.3c-3-5.7-6.6-10-10.7-12.8c-4.1-2.8-9.2-4.2-15.2-4.2c-9.6,0-17.2,3.6-22.9,10.9
		s-8.5,17.6-8.5,31c0,8.9,1.3,16.4,3.8,22.3s6.1,10.4,10.7,13.3c4.6,2.9,10,4.4,16.2,4.4c6.7,0,12.4-1.7,17-5s8.1-8.2,10.5-14.6
		c1-3,2.2-5.5,3.7-7.4s3.8-2.9,7.1-2.9c2.8,0,5.2,1,7.1,2.9C867.3,357.3,868.3,359.7,868.3,362.6z"/>
	<path class="st2" d="M920.6,349.7h-8.2v37c0,4.9-1.1,8.5-3.2,10.8c-2.1,2.3-4.9,3.5-8.4,3.5c-3.7,0-6.6-1.2-8.6-3.6
		s-3.1-5.9-3.1-10.6v-88.5c0-5,1.1-8.7,3.4-10.9c2.2-2.2,5.9-3.4,10.9-3.4h37.9c5.2,0,9.7,0.2,13.4,0.7c3.7,0.4,7.1,1.3,10,2.7
		c3.6,1.5,6.8,3.7,9.6,6.5s4.9,6.1,6.3,9.9c1.4,3.7,2.2,7.7,2.2,11.9c0,8.6-2.4,15.4-7.3,20.6c-4.8,5.1-12.2,8.8-22,10.9
		c4.1,2.2,8.1,5.4,11.9,9.7c3.8,4.3,7.1,8.9,10.1,13.7c3,4.8,5.3,9.2,6.9,13.1c1.6,3.9,2.5,6.6,2.5,8c0,1.5-0.5,3-1.5,4.5
		s-2.3,2.7-4,3.5c-1.7,0.9-3.6,1.3-5.8,1.3c-2.6,0-4.8-0.6-6.6-1.8c-1.8-1.2-3.3-2.8-4.6-4.7s-3-4.7-5.2-8.3l-9.3-15.5
		c-3.3-5.7-6.3-10-9-13c-2.6-3-5.3-5-8-6.1C928.2,350.3,924.7,349.7,920.6,349.7z M934,301.4h-21.5V333h20.9
		c5.6,0,10.3-0.5,14.1-1.5s6.7-2.6,8.8-4.9c2-2.3,3-5.5,3-9.6c0-3.2-0.8-6-2.4-8.4c-1.6-2.4-3.9-4.3-6.8-5.5
		C947.3,301.9,942,301.4,934,301.4z"/>
	<path class="st2" d="M1080.7,301.8h-52.5v28.3h48.4c3.6,0,6.2,0.8,8,2.4s2.6,3.7,2.6,6.3c0,2.6-0.9,4.7-2.6,6.4s-4.4,2.5-8,2.5
		h-48.4v32.7h54.3c3.7,0,6.4,0.9,8.3,2.6s2.8,4,2.8,6.8c0,2.7-0.9,4.9-2.8,6.6s-4.6,2.6-8.3,2.6h-63.3c-5.1,0-8.7-1.1-11-3.4
		c-2.2-2.2-3.3-5.9-3.3-10.9v-86.5c0-3.3,0.5-6.1,1.5-8.2s2.6-3.7,4.7-4.6c2.1-1,4.8-1.5,8.1-1.5h61.5c3.7,0,6.5,0.8,8.3,2.5
		c1.8,1.6,2.7,3.8,2.7,6.5s-0.9,4.9-2.7,6.6C1087.2,301,1084.4,301.8,1080.7,301.8z"/>
	<path class="st2" d="M1185.8,385.9l-5.5-14.4h-46.8l-5.5,14.8c-2.1,5.8-4,9.6-5.5,11.7c-1.5,2-4,3-7.5,3c-2.9,0-5.5-1.1-7.8-3.2
		s-3.4-4.6-3.4-7.3c0-1.6,0.3-3.2,0.8-4.9c0.5-1.7,1.4-4,2.6-7l29.4-74.7c0.8-2.1,1.8-4.7,3-7.7s2.4-5.5,3.8-7.5
		c1.3-2,3.1-3.6,5.3-4.8c2.2-1.2,4.9-1.8,8-1.8c3.2,0,6,0.6,8.1,1.8c2.2,1.2,3.9,2.8,5.3,4.7c1.3,1.9,2.5,4,3.4,6.2s2.1,5.2,3.5,8.9
		l30.1,74.3c2.4,5.7,3.5,9.8,3.5,12.3c0,2.7-1.1,5.1-3.3,7.3c-2.2,2.2-4.9,3.3-8,3.3c-1.8,0-3.4-0.3-4.7-1c-1.3-0.7-2.4-1.5-3.3-2.7
		c-0.9-1.1-1.8-2.9-2.9-5.2C1187.4,389.7,1186.5,387.7,1185.8,385.9z M1139.6,353.9h34.4l-17.3-47.5L1139.6,353.9z"/>
	<path class="st2" d="M1259.1,349.7h-8.2v37c0,4.9-1.1,8.5-3.2,10.8s-4.9,3.5-8.4,3.5c-3.7,0-6.6-1.2-8.6-3.6s-3.1-5.9-3.1-10.6
		v-88.5c0-5,1.1-8.7,3.4-10.9s5.9-3.4,10.9-3.4h37.9c5.2,0,9.7,0.2,13.4,0.7c3.7,0.4,7.1,1.3,10,2.7c3.6,1.5,6.8,3.7,9.6,6.5
		c2.8,2.8,4.9,6.1,6.3,9.9c1.4,3.7,2.2,7.7,2.2,11.9c0,8.6-2.4,15.4-7.3,20.6c-4.8,5.1-12.2,8.8-22,10.9c4.1,2.2,8.1,5.4,11.9,9.7
		c3.8,4.3,7.1,8.9,10.1,13.7c3,4.8,5.3,9.2,6.9,13.1s2.5,6.6,2.5,8c0,1.5-0.5,3-1.5,4.5s-2.3,2.7-4,3.5s-3.6,1.3-5.8,1.3
		c-2.6,0-4.8-0.6-6.6-1.8c-1.8-1.2-3.3-2.8-4.6-4.7s-3-4.7-5.2-8.3l-9.3-15.5c-3.3-5.7-6.3-10-9-13c-2.6-3-5.3-5-8-6.1
		C1266.6,350.3,1263.2,349.7,1259.1,349.7z M1272.4,301.4h-21.5V333h20.9c5.6,0,10.3-0.5,14.1-1.5c3.8-1,6.7-2.6,8.8-4.9
		c2-2.3,3-5.5,3-9.6c0-3.2-0.8-6-2.4-8.4s-3.9-4.3-6.8-5.5C1285.8,301.9,1280.4,301.4,1272.4,301.4z"/>
</g>
<path class="st3" d="M144.9,472.5L124,449.7c0,0-55.2,60-29,161.8c23.2,90,80.2,40.1,61.6-13.5C138,544.3,144.9,472.5,144.9,472.5z"
	/>
<path class="st4" d="M156.6,598c-18.6-53.7-11.7-125.5-11.7-125.5l-31.5-8C103,499,137,567.6,141.4,587s10,39.3,2.2,55.5
	c-7.7,16.3-32.7,5.7-32.7,5.7C136.9,682.6,171.7,641.6,156.6,598z"/>
<path class="st4" d="M549.5,472.5l20.9-22.8c0,0,55.2,60,29,161.8c-23.2,90-80.2,40.1-61.6-13.5
	C556.4,544.3,549.5,472.5,549.5,472.5z"/>
<path class="st3" d="M537.8,598c-4.2,13.6-4.7,26.6-1.5,37.4c4.3,14.7,22.6,17.4,25.3,0c1-6.5,3.5-21.7,0.3-31.2
	C556.6,588.2,543.3,580.3,537.8,598z"/>
<path class="st3" d="M268.3,642.5c0,0-10.2,129.7-29,138.5s-12.2,14.4,33.2,14.4s54.2-4.4,56.4-42c2.2-37.6-11.4-97.9-11.4-97.9
	L268.3,642.5z"/>
<path class="st3" d="M452.7,781.1c-18.8-8.8-29-138.5-29-138.5l-49.1,13c0,0-13.6,60.3-11.4,97.9c2.2,37.6,11.1,42,56.4,42
	C464.9,795.4,471.5,789.9,452.7,781.1z"/>
<path class="st4" d="M319.5,744c-7.2,38.2-35.9,54.8-79.1,49.8c7,1.1,17.6,1.6,32.1,1.6c45.3,0,54.2-4.4,56.4-42
	c2.2-37.6-11.4-97.9-11.4-97.9l-49.1-13c0,0,8,7.9,25.2,15.4C310.6,665.5,326.6,705.9,319.5,744z"/>
<path class="st4" d="M425.1,719c3.3,37.2,28.7,78-22.1,76.1l0,0c4.9,0.2,10.4,0.3,16.6,0.3c45.3,0,52-5.5,33.2-14.4
	c-18.8-8.8-29-138.5-29-138.5l-49.1,13c0,0,13.5,4.5,24.8,4.5S421.7,681.8,425.1,719z"/>
<path class="st2" d="M571.5,369.3c8.2,10.6,20.5,17,20.5,17c-4.4-52-72.4-111-72.4-111c22.8,7.8,23.2,0.5,23.2,0.5
	c-66.3-67.1-143.5-62.9-143.5-62.9c7.9-0.6,13.3-10.6,13.3-10.6c-32.8-10.9-60.2,5.7-60.2,5.7s-32.5-8.6-44.3-24.8
	c0,0-10.3,20.6,8.8,31c0,0-39.8-16.2-91.4,7.4c0,0,14.7,10.3,31,10.3c0,0-72.2,1.5-126.8,82.6c0,0,11.1,3.1,22.4-4.1
	c-13.1,13.6-36,42.5-42.3,83.7c0,0,8.7-1.6,15.2-11.6c-7.8,19.7-21.6,67.8-2.6,132.1c0,0,5.7-0.4,7.1-28.4
	c0,0,15.8,105.8,75.5,151.2c0,0,7.3-13.3-1.3-33.2c0,0,38.9,36.5,43.4,60.8c0,0,8.6-14.9,2.6-30.7c0,0,32.8,23.7,101.3,23.7
	c68.6,0,107.9-27,107.9-27c-3.8,13.5,8.2,27,8.2,27c1.1-22.5,31.2-53.8,31.2-53.8c-11.5,10.4-1.3,32.1-1.3,32.1
	c21.5-18.3,36.5-54.1,43.2-72.8c-1.5,12.9,6.6,21.9,6.6,21.9c28.8-31,27.3-106.3,27.3-106.3c2,18.7,18,34.4,18,34.4
	C605.3,443.8,571.5,369.3,571.5,369.3z"/>
<path class="st5" d="M203.7,604.1c0,0,38.9,36.5,43.4,60.8c0,0,8.6-14.9,2.6-30.7c0,0,32.8,23.7,101.3,23.7
	c68.6,0,107.9-27,107.9-27c-3.8,13.5,8.2,27,8.2,27c1.1-22.5,31.2-53.8,31.2-53.8c-11.5,10.4-1.3,32.1-1.3,32.1
	c21.5-18.3,36.5-54.1,43.2-72.8c-1.5,12.9,6.6,21.9,6.6,21.9c28.8-31,27.3-106.3,27.3-106.3c2,18.7,18,34.4,18,34.4
	c13.3-69.7-20.5-144.2-20.5-144.2c8.2,10.6,20.5,17,20.5,17c-4.4-52-72.4-111-72.4-111c22.8,7.8,23.2,0.5,23.2,0.5
	c-66.3-67.1-143.5-62.9-143.5-62.9s8-0.9,17.7,10s21.5,26.2,45.5,34.1c24,7.9,83.6,38.4,100.9,88c0,0-14.2-4.3-20.7-13
	c0,0,52.6,106,13.7,204.8c0,0-9.5-10.1-7.7-23.8c0,0-40.8,117.5-181.4,129.5C254.4,652.2,203.7,604.1,203.7,604.1z"/>
<ellipse class="st6" cx="351" cy="347.9" rx="108.8" ry="108.8"/>
<path class="st7" d="M459.6,341.7c-0.3-6.1-1.2-12-2.5-17.7c0.2,1.7,0.3,3.4,0.4,5.1c3.4,60-42.4,111.4-102.4,114.8
	c-53.9,3.1-100.9-33.7-112.4-84.7c5.9,57.5,56.1,100.7,114.4,97.4C417.2,453.1,463,401.7,459.6,341.7z"/>
<path class="st8" d="M389.7,302.9c1.3,23.5-16.6,43.6-40.1,44.9s-43.6-16.6-44.9-40.1s16.6-43.6,40.1-44.9
	C368.2,261.5,388.4,279.4,389.7,302.9z"/>
<path class="st9" d="M370.6,304c0.7,12.9-9.2,24-22.1,24.8c-12.9,0.7-24-9.2-24.8-22.1c-0.7-12.9,9.2-24,22.1-24.8
	C358.8,281.1,369.9,291,370.6,304z"/>
<path class="st10" d="M370.6,557.7c0.7,12.9-9.2,24-22.1,24.8c-12.9,0.7-24-9.2-24.8-22.1c-0.7-12.9,9.2-24,22.1-24.8
	C358.8,534.8,369.9,544.7,370.6,557.7z"/>
<path class="st11" d="M345.8,559.1c-8.2,0.5-15.1,5.1-19,11.7c4.3,7.4,12.5,12.2,21.7,11.7c8.2-0.5,15.1-5.1,19-11.7
	C363.2,563.3,355,558.5,345.8,559.1z"/>
<path class="st6" d="M376.3,286.2c0.4,7.4-5.2,13.7-12.6,14.1s-13.7-5.2-14.1-12.6s5.2-13.7,12.6-14.1
	C369.5,273.2,375.8,278.8,376.3,286.2z"/>
<g>
	<path class="st12" d="M288,222.9c0,0-107.4-40.5-80.7-107.6c0,0-82.2,59,3.6,130.1C210.9,245.4,254.3,267.8,288,222.9z"/>
	<path class="st12" d="M417.1,222.9c0,0,107.4-40.5,80.7-107.6c0,0,82.2,59-3.6,130.1C494.1,245.4,450.7,267.8,417.1,222.9z"/>
	<path class="st13" d="M417.1,222.9c33.7,44.8,77,22.5,77,22.5c85.8-71.1,3.6-130.1,3.6-130.1s39.3,40,24.9,81.1
		c-14.4,41.1-36.8,52.1-62.9,47.6C433.7,239.6,417.1,222.9,417.1,222.9z"/>
	<path class="st13" d="M288,222.9c-33.7,44.8-77,22.5-77,22.5c-85.8-71.1-3.6-130.1-3.6-130.1s-39.3,40-24.9,81.1
		c14.4,41.1,36.8,52.1,62.9,47.6C271.4,239.6,288,222.9,288,222.9z"/>
</g>
<path class="st14" d="M201.1,231.1c0,0,4,0.3,9.8,0.3c2.9-0.1,6.3-0.1,9.8-0.6c1.8-0.1,3.6-0.5,5.4-0.8c1.8-0.3,3.6-0.9,5.4-1.3
	c1.7-0.7,3.6-1.1,5.2-2c1.6-0.9,3.3-1.5,4.7-2.6c1.5-0.9,2.9-1.9,4-3c1.2-1.1,2.4-2,3.3-3.2c0.9-1.1,1.8-2.1,2.6-3
	c0.6-1,1.2-1.9,1.7-2.6c1-1.4,1.6-2.3,1.6-2.3s-0.3,1-0.8,2.6c-0.3,0.8-0.6,1.9-1,3c-0.5,1.1-1.2,2.3-2,3.6c-0.7,1.4-1.8,2.7-3,4
	c-0.6,0.6-1.2,1.4-1.9,2s-1.5,1.2-2.2,1.8c-1.5,1.3-3.3,2.2-5.1,3.2s-3.8,1.6-5.7,2.3c-2,0.4-4,1.1-6,1.3c-2,0.3-4,0.5-5.9,0.5
	c-3.8,0.2-7.3-0.3-10.3-0.7C204.7,232.8,201.1,231.1,201.1,231.1z"/>
<path class="st14" d="M187.4,206.6c0,0,2.8,0.8,6.8,1.1c2,0.2,4.4,0.2,6.8,0c1.2,0,2.5-0.3,3.8-0.5c1.3-0.1,2.5-0.6,3.8-0.9
	c1.2-0.4,2.5-0.8,3.7-1.2c1.2-0.6,2.4-1,3.5-1.5c1.1-0.6,2.2-1.2,3.2-1.7c1-0.6,1.9-1.2,2.8-1.7c1.8-1,3.2-2.1,4.2-2.7
	c1.1-0.7,1.7-1,1.7-1s-0.4,0.6-1.1,1.6c-0.7,1-1.7,2.6-3.3,4.1c-0.8,0.8-1.6,1.6-2.5,2.4c-1,0.8-2,1.6-3.2,2.3s-2.4,1.4-3.7,2
	c-1.4,0.5-2.8,1.1-4.2,1.5c-1.5,0.3-2.9,0.7-4.4,0.8c-1.5,0.2-2.9,0.2-4.3,0.1c-1.4,0-2.7-0.3-4-0.5c-1.2-0.3-2.4-0.6-3.4-1
	C189.5,208.6,187.4,206.6,187.4,206.6z"/>
<path class="st14" d="M178,173.4c0,0,2,0.5,5,1.4c1.5,0.4,3.1,0.8,4.9,1.2c1.8,0.4,3.6,0.7,5.4,0.9c0.9,0.1,1.8,0.1,2.7,0.1
	c0.9-0.1,1.8,0,2.6-0.2s1.7-0.2,2.4-0.5s1.5-0.4,2.1-0.7s1.3-0.5,1.8-0.8s1-0.6,1.4-0.8c0.8-0.4,1.3-0.7,1.3-0.7s-0.2,0.5-0.7,1.3
	c-0.2,0.4-0.5,0.9-0.9,1.5c-0.4,0.5-1,1-1.6,1.6s-1.4,1.1-2.2,1.6c-0.8,0.6-1.8,0.9-2.8,1.2c-2,0.7-4.3,0.8-6.5,0.6
	c-2.2-0.3-4.3-0.8-6.2-1.6c-1.9-0.7-3.5-1.7-4.8-2.6C179.3,175.2,178,173.4,178,173.4z"/>
<path class="st14" d="M503.6,231.1c0,0-3.6,1.7-9.6,2.7c-3,0.5-6.5,0.9-10.3,0.7c-1.9,0-3.9-0.2-5.9-0.5c-2-0.2-4-0.9-6-1.3
	c-1.9-0.8-3.9-1.3-5.7-2.3c-1.8-1-3.6-1.9-5.1-3.2c-0.8-0.6-1.5-1.2-2.2-1.8s-1.3-1.4-1.9-2c-1.2-1.3-2.3-2.6-3-4
	c-0.8-1.3-1.5-2.5-2-3.6c-0.4-1.2-0.7-2.2-1-3c-0.5-1.7-0.8-2.6-0.8-2.6s0.6,0.8,1.6,2.3c0.5,0.7,1,1.6,1.7,2.6
	c0.7,0.9,1.7,1.9,2.6,3c0.8,1.1,2.1,2.1,3.3,3.2c1.1,1.1,2.6,2,4,3c1.4,1.1,3.1,1.7,4.7,2.6c1.6,0.9,3.4,1.3,5.2,2
	c1.8,0.4,3.6,1.1,5.4,1.3c1.8,0.3,3.6,0.7,5.4,0.8c3.5,0.4,6.9,0.5,9.8,0.6C499.7,231.4,503.6,231.1,503.6,231.1z"/>
<path class="st14" d="M517.3,206.6c0,0-2.1,2.1-6.3,3.5c-1,0.4-2.2,0.7-3.4,1c-1.2,0.2-2.6,0.5-4,0.5c-1.4,0.1-2.8,0.1-4.3-0.1
	c-1.5-0.1-2.9-0.6-4.4-0.8c-1.4-0.5-2.8-1-4.2-1.5c-1.3-0.6-2.6-1.3-3.7-2c-1.1-0.8-2.2-1.6-3.2-2.3c-1-0.8-1.8-1.7-2.5-2.4
	c-1.6-1.5-2.5-3.1-3.3-4.1c-0.7-1-1.1-1.6-1.1-1.6s0.6,0.4,1.7,1s2.4,1.7,4.2,2.7c0.9,0.5,1.8,1.1,2.8,1.7c1,0.5,2.1,1.1,3.2,1.7
	c1.1,0.5,2.3,0.9,3.5,1.5c1.2,0.4,2.5,0.8,3.7,1.2c1.3,0.3,2.5,0.7,3.8,0.9s2.5,0.4,3.8,0.5c2.5,0.2,4.8,0.1,6.8,0
	C514.5,207.3,517.3,206.6,517.3,206.6z"/>
<path class="st14" d="M526.7,173.4c0,0-1.3,1.8-3.9,3.6c-1.3,0.9-2.9,1.9-4.8,2.6c-1.8,0.8-4,1.3-6.2,1.6c-2.2,0.2-4.5,0-6.5-0.6
	c-1-0.3-2-0.7-2.8-1.2s-1.6-0.9-2.2-1.6c-0.6-0.6-1.1-1.1-1.6-1.6c-0.4-0.6-0.7-1.1-0.9-1.5c-0.5-0.8-0.7-1.3-0.7-1.3
	s0.5,0.2,1.3,0.7c0.4,0.2,0.8,0.5,1.4,0.8c0.6,0.2,1.2,0.5,1.8,0.8c0.6,0.3,1.4,0.4,2.1,0.7s1.6,0.3,2.4,0.5s1.7,0,2.6,0.2
	c0.9,0,1.8,0,2.7-0.1c1.8-0.2,3.7-0.5,5.4-0.9c1.8-0.4,3.4-0.9,4.9-1.2C524.7,173.9,526.7,173.4,526.7,173.4z"/>
<g>
	<g>
		<path d="M328.1,130.7c4.7,1.7,9.6,4,14.5,4.9c4.6,0.8,9.4,0.9,13.9,1.9c4.2,1,8.2,2.6,12.4,3.5c2.9,0.6,5.3,1.1,6.6,4.1
			c1.4,3,0.7,6-2.8,6.8c-4.7,1.1-11-0.3-15.8-1.3c-4.6-0.9-9.1-3.1-13.6-4.7c-2.2-0.8-4.5-1.4-6.7-2.3c-2.2-0.9-3.6-2.5-5.5-3.8
			c-1.4-1-3.6-1.4-4.7-2.6c-0.8-0.9-1.5-3.4-1.2-4.7c0.6-2.1,1.8-2.1,3.4-1.4c1.4,0.6,2-1.7,0.6-2.2c-3-1.2-5.3-1.4-6.1,2.3
			c-0.6,2.8,0,6.5,2.4,8.4c1.9,1.4,4,2.2,5.9,3.7c1.5,1.3,3.1,2.2,5,2.9c5.4,2.1,10.9,3.8,16.4,5.8c4.9,1.8,10.7,2.4,15.9,2.9
			c2.7,0.2,7.4-0.5,9.1-2.9c1.9-2.6,0.6-7.3-1.2-9.6c-2.4-3.2-6.5-3-10-4.1c-3-0.9-5.9-1.9-8.9-2.7s-6-0.8-9.1-1.2
			c-7-1.1-13.3-3.2-20-5.7C327.3,127.9,326.7,130.2,328.1,130.7L328.1,130.7z"/>
	</g>
	<g>
		<path d="M376.3,151.7c2.7,3,1.9,7.6-2.2,8.6c-3,0.8-6.4,0-9.5-0.1c-6.1-0.3-12.1-1.9-17.8-4c-5.8-2.1-11.8-3.7-16.6-7.7
			c-1.7-1.5-3-3.2-4.5-4.9c-0.8-0.9-1.2-0.2-1.4-1.9c-0.1-1,1-2.7,1.6-3.5c-0.4,0.2-0.9,0.4-1.3,0.5c0.2,0,0.4,0.1,0.6,0.1
			c1.5,0.3,2.1-2,0.6-2.2c-0.2,0-0.4-0.1-0.6-0.1c-0.6-0.1-1,0.1-1.3,0.5c-1.1,1.5-2.6,4.5-1.7,6.5c0.6,1.3,2.3,2.1,3.1,3.2
			c1.1,1.4,1.9,2.2,3.3,3.5c2.6,2.3,5.8,4.1,9.1,5.3c4.4,1.6,8.9,3.6,13.4,4.6c4.2,0.9,7.8,2.3,12.2,2.5c4,0.1,8.6,1.2,12.4-0.2
			c5.3-2,5.9-8.3,2.3-12.2C377,148.9,375.3,150.6,376.3,151.7L376.3,151.7z"/>
	</g>
	<g>
		<path d="M321.9,144.2c-1.2,3.1-2.9,6.1-1.5,9.4c1.2,2.9,4.3,6.1,6.7,8c3.4,2.7,7.8,3.5,11.6,5.6c3.6,1.9,7.4,3.3,11.2,4.6
			c3.8,1.2,8.2,2,12.2,2.3c3.3,0.2,7.3,0.7,10.2-1.1c3.8-2.3,10-9,4.3-12.3c-1.3-0.7-2.5,1.3-1.2,2c3.4,1.9-2.6,7.5-4.7,8.5
			c-2.3,1.1-6.1,0.7-8.6,0.5c-5.8-0.4-11.6-2.2-17-4.2c-2.5-0.9-4.7-2.2-7.1-3.3c-2.6-1.1-5.3-1.8-7.7-3.3c-2.4-1.5-4.1-3.6-5.9-5.7
			c-3.2-3.9-1.8-6.4-0.2-10.5C324.6,143.4,322.4,142.8,321.9,144.2L321.9,144.2z"/>
	</g>
	<g>
		<path d="M330.8,166.2c0.6,0.6,0.2,3.4,0.3,4.3c0.3,1.6,0.9,3.4,1.8,4.8c1.8,2.5,5.1,3.6,7.9,4.6c5.9,2,17.2,1.7,20.2-4.9
			c0.6-1.3-1.4-2.5-2-1.2c-1.7,3.6-6.8,4.4-10.4,4.8c-3.2,0.3-6.2-0.4-9.1-1.6c-3.3-1.3-5.7-3.3-6.2-7c-0.3-2.3,0.8-3.6-0.9-5.3
			C331.4,163.4,329.8,165.1,330.8,166.2L330.8,166.2z"/>
	</g>
	<g>
		<path d="M338.6,173.9c1.6,1.7,5.2,3,7.5,3.4c1.1,0.2,2-1,1.1-1.9c-2.3-2.5-10.1-5.6-12.9-2.7c-0.6,0.6-0.4,1.4,0.2,1.8
			c2.1,1.5,8.4,7.5,10.4,2.7c1.5-3.4-4.3-7.4-7.1-7.9c-0.6-0.1-1.3,0.2-1.4,0.8c-0.8,3.2,4,10.4,7.4,7c3.7-3.8-5-9.6-8.2-9.9
			c-0.8-0.1-1.2,0.8-1.1,1.5c0.5,3.1,3.7,7.3,7.2,7c0.5,0,1-0.3,1.1-0.9c0.9-3.5-4.7-7.3-7.7-7.8c-0.6-0.1-1.2,0.2-1.4,0.8
			c-0.4,1.3,0.1,1.9,1,2.8c1.4,1.2,2.9,2.9,4.6,3.8c0.5,0.3,1.3,0.2,1.6-0.4c1.8-3.5-2.1-7.6-4.9-9.5c-0.9-0.6-2.2,0.6-1.6,1.6
			c1,1.4,2.2,2.4,3.5,3.5c1.4,1.1,2.5,2.6,4.1,3.3c0.8,0.4,1.7-0.1,1.7-1c0.2-3.1-5.7-5-8.1-5.2c-0.5-0.1-1,0.4-1.1,0.9
			c-0.7,3.4,5.6,7.1,8.5,5.8c0.4-0.2,0.6-0.6,0.6-1c0.2-3.2-4-5.3-6.8-5.5c-4.1-0.3-4.2,4.3-1.9,6.6c1.8,1.9,7.2,5.9,8.8,1.6
			c1.3-3.8-4.7-8.3-7.8-8.8c-6.3-1.2,2.1,14,5.2,7.6c0.6-1.3,0.3-2.3-0.6-3.5c-1-1.4-3.1-4.1-4.8-4.6c-3-0.9-3.6,2.5-2.3,4.5
			c1.2,2,4.8,5.4,7.4,5.1c3.6-0.4,1.3-4.4-0.1-5.8c-1.5-1.5-5.5-4.9-6.9-1.3c-0.9,2.4,1.9,4.6,3.6,5.8c2.5,1.7,6.2,3.8,9.4,3.3
			c2.9-0.4,3.1-2.5,1.3-4.5c-2-2.1-6.6-5.3-9.4-3c-2.4,1.9,0.1,4.4,1.8,5.7c2.1,1.6,7.6,5.1,9.4,1.5c1.6-3.2-3.6-5.7-5.7-6.7
			c-1.4-0.7-6.5-2.5-5.9,1.1c0.5,3.1,8.9,6.5,11.4,5.1c0.6-0.3,0.7-1.1,0.4-1.6c-1.9-3.4-6.7-3.9-9.4-6.5c-0.4,0.6-0.8,1.3-1.1,1.9
			c4.8,1.9,9.5,4.1,14.3,6c0.2-0.7,0.4-1.5,0.6-2.2c-2.4-0.9-15-4.1-14.6,2.1c0.3,4.1,8.1,2.6,10.5,2.3c1.3-0.1,1.6-1.8,0.3-2.3
			c-2.4-0.8-6.3-1.7-8.3,0.5c-0.6,0.7-0.3,1.6,0.5,1.9c2.6,0.9,9.6,0,9.2-4c-0.5-4-6.3-1.8-7.7,0.4c-0.2,0.4-0.2,0.8,0,1.2
			c1.9,3.7,9.3,0.6,11.6-1.3c0.5-0.4,0.4-1.2,0-1.6c-1.2-1.1-1.9-1-3.4-0.6c-1.7,0.5-3.8,1.1-5.2,2.1c-0.5,0.3-0.6,0.7-0.5,1.3
			c0.5,4,6.2,1.3,8.4,0.3c3.5-1.5,1.8-5.3-1.7-4.2c-2,0.6-7.8,4.3-4.3,6.7c2.5,1.7,7.6-1.6,8.5-4.1c0.2-0.6-0.2-1.2-0.8-1.4
			c-1.5-0.5-2.4,0-3.3,1.3c-0.4,0.7,0,1.5,0.7,1.7c2,0.7,3.5-0.5,4.7-2.1c0.4-0.6,0-1.5-0.7-1.7c-2.2-0.6-7.7-0.9-9.6,0.8
			c-0.6,0.6-0.3,1.7,0.5,1.9c2.4,0.6,6,1.8,8.2,0.4c0.5-0.4,0.7-1,0.4-1.6c-1.5-2.6-7.7-4.9-10.5-3.7c-0.4,0.2-0.7,0.9-0.5,1.3
			c0.8,2.3,3.5,2.9,5.7,3.2c1.2,0.2,4.9-0.2,2.5,1c-1.2,0.6-2.9,0.7-4.2,1c0.4,0.6,0.8,1.3,1.1,1.9c0.6-0.7,2.1-1.8,3.1-1.4
			c0-0.7,0-1.3,0-2c-5,2.7-9.8,2.6-14-1.4c-1.6-1.5-1.6-2.3-1.9-4.3c-0.1-0.9-0.3-1.5-1-2.1c-0.5-0.4-1.1-0.5-1.6,0
			c-2.2,2-1.4,5.1,0.1,7.4c0.5,0.8,1.5,0.7,2,0c1.6-2.4-0.5-5.7-2.2-7.4c-0.4-0.4-1.2-0.5-1.6,0c-1.7,1.8-0.8,5.5,0.8,7.1
			c0.6,0.5,1.4,0.4,1.8-0.2c1.3-2.3-0.4-6.7-3.2-6.9c-0.5,0-1,0.4-1.1,0.9c-0.4,1.8-0.1,2.6,0.8,4.2c0.7,1.3,2.7,0.2,2-1.2
			c-1-2.1-2.1-4.1-2.7-6.4c-0.3-1.3-2.4-1-2.3,0.3c0.1,1.4,0,2.7,0.4,4c0.3,0.9,1.6,1.2,2.1,0.3c0.9-1.4,1.1-2.9,1.5-4.5
			c-0.5,0.3-1,0.5-1.4,0.8c0.8,0.8,1.5,1.5,2.3,2.3c0.5-0.5,1-1,1.4-1.4c-1.4-0.5-2.7-1.3-3.9-2.2c-0.2,0.7-0.4,1.4-0.6,2.2
			c4.2-0.3,6.9,2.7,10.1,4.8c1.2,0.8,3.3,2.4,4.7,1c3.1-3.2-6.2-6.3-7.9-7c-1.4-0.5-2,1.7-0.6,2.2c3,1.1,5.9,2.5,8.9,3.5
			c1.5,0.5,5,2,6.3,0.3c0.4-0.5,0.5-1.2,0-1.6c-2.2-1.9-5.6-3-8.4-3.3c-0.8-0.1-1.5,1.1-1,1.7c1.6,2.1,4.2,2.5,6.6,3.3
			c2.5,0.8,4.8,2.5,7.5,1.9c0.8-0.2,1.2-1.4,0.5-1.9c-0.1-0.1-0.3-0.2-0.4-0.3c-1.2-0.9-2.8,0.7-1.6,1.6c0.1,0.1,0.3,0.2,0.4,0.3
			c0.2-0.6,0.3-1.3,0.5-1.9c-1.9,0.4-3.9-1.1-5.6-1.7c-1.7-0.6-4.6-0.8-5.8-2.4c-0.3,0.6-0.7,1.2-1,1.7c2.2,0.2,5.1,1.1,6.8,2.6
			c0-0.5,0-1.1,0-1.6c-1.1,1.4-11.3-3.7-13-4.3c-0.2,0.7-0.4,1.5-0.6,2.2c1.8,0.7,3.4,1.9,5.2,2.5c3.3,1.1-1-1.4-1.8-2
			c-3-2.2-5.8-4.2-9.7-4c-1.2,0.1-1.5,1.5-0.6,2.2c1.4,1,2.8,1.8,4.4,2.4c0.9,0.3,1.6-0.6,1.4-1.4c-0.4-2.1-2.1-3.1-3.9-3.9
			c-0.6-0.2-1.3,0.3-1.4,0.8c-0.3,1.4-0.5,2.7-1.2,4c0.7,0.1,1.4,0.2,2.1,0.3c-0.4-1.1-0.3-2.3-0.3-3.4c-0.8,0.1-1.5,0.2-2.3,0.3
			c0.6,2.5,1.8,4.7,2.9,6.9c0.7-0.4,1.3-0.8,2-1.2c-0.2-0.8-0.3-1.6-0.5-2.4c-0.4,0.3-0.7,0.6-1.1,0.9c0.9,0.1,1.5,3,1.2,3.4
			c0.6-0.1,1.2-0.2,1.8-0.2c-0.7-0.6-1.6-3-0.8-3.8c-0.5,0-1.1,0-1.6,0c0.9,0.9,2.8,3.3,1.9,4.6c0.7,0,1.3,0,2,0
			c-0.8-1.2-1.9-3.3-0.4-4.5c-0.5,0-1.1,0-1.6,0c1.1,0.9,0.2,3.7,1.1,5.1c0.9,1.3,3.2,2.7,4.4,3.5c4.5,3,9.8,2,14.3-0.4
			c0.7-0.4,0.8-1.6,0-2c-2.1-0.9-4.4,0.1-5.9,1.7c-0.8,0.9,0,2.2,1.1,1.9c3-0.6,7.4-1,7.7-4.7c0-0.4-0.2-0.8-0.6-1
			c-2-1.1-8.6,0.2-9.5-2.3c-0.2,0.4-0.4,0.9-0.5,1.3c1.5-0.6,6.6,1.5,7.3,2.8c0.1-0.5,0.3-1.1,0.4-1.6c-1.6,1.1-4.7-0.2-6.5-0.6
			c0.2,0.6,0.3,1.3,0.5,1.9c0.9-0.8,6-0.6,7.3-0.2c-0.2-0.6-0.5-1.1-0.7-1.7c-0.7,0.3-1.4,0.7-2.1,1c0.2,0.6,0.5,1.1,0.7,1.7
			c0.2-0.1,0.5-0.2,0.7-0.3c-0.3-0.5-0.5-1-0.8-1.4c-0.4,1.1-2.7,2.4-3.8,2.5c-2.4,0.3,1.3-1.6,2.1-2.1c1.9-1.2-0.3-0.1-1.2,0.2
			c-0.5,0.2-3.4,1.7-3.5,0.6c-0.2,0.4-0.4,0.9-0.5,1.3c0.4-0.3,5.4-2.3,5.8-1.9c0-0.5,0-1.1,0-1.6c-1.1,1-2.8,1.4-4.2,1.8
			c-0.6,0.2-3.7,0.7-2.5,0.3c0.6-0.2,1-0.6,1.6-0.2c1,0.7-1,1-1.6,1.2c-1.2,0.4-2.8,0.6-4,0.1c0.2,0.6,0.3,1.3,0.5,1.9
			c1.3-1.4,4.5-0.4,6.1,0.1c0.1-0.8,0.2-1.5,0.3-2.3c-1.6,0.2-5.7,1.2-7.1,0.2c-1.7-1.1,2.4-1.6,3.3-1.7c2.5-0.1,4.9,0.8,7.2,1.6
			c1.4,0.5,2-1.7,0.6-2.2c-4.8-1.8-9.5-4-14.3-6c-1.1-0.4-1.9,1.2-1.1,1.9c1.2,1.2,2.6,2,4.1,2.8c1.7,0.9,4,1.4,5,3.2
			c0.1-0.5,0.3-1.1,0.4-1.6c-1.1,0.6-7.5-2.4-8-3c0.6,0.7,3.4,1.3,4.4,2c0.9,0.5,4.1,2.4,1.1,2.6c-1,0.1-3-1.5-3.9-2.1
			c0.1,0-2-1.4-1.9-1.6c0.5-1.7,3-0.1,3.8,0.4c1.7,1,4.2,2.8,0.8,2.3c-2.7-0.4-6.3-2.3-8.1-4.3c-2.2-2.5,1.3-0.3,2.2,0.6
			c0.6,0.7,2.5,2.1,0.4,1.4c-0.4-0.1-1-0.6-1.4-0.9c-1-0.7-4.2-4.4-1.6-2.4c0.5,0.4,1.5,1.4,1.8,2c0.5,0.8,0.8,1.3-0.1,0.6
			c-0.4-0.3-1.5-1.6-1.6-2.1c-0.4-1.4-0.1-0.6,0.9-0.3c1.5,0.5,3.5,2,2.8,3.5c-0.1,1.2-0.6,1.3-1.3,0.3c-0.8-0.5-1.6-1-2.4-1.6
			c0.1-0.9,0.2-1.8,0.3-2.6c0.5,0.1,0.9,0.3,1.4,0.4c0.1,0,3.2,1.5,3.1,1.7c-0.2,0.4-4.7-2.5-4.5-3.2c-0.4,0.3-0.7,0.6-1.1,0.9
			c1,0.1,5.8,1.6,5.7,2.9c0.6-0.3,1.2-0.7,1.7-1c-2-0.9-5.6-4.2-6.8-5.9c-0.5,0.5-1.1,1.1-1.6,1.6c1.3,0.9,5.1,4.5,4.1,6.3
			c0.5-0.1,1.1-0.3,1.6-0.4c0.1,0.1-4.5-4-4.5-3.9c-0.5,0.3-1,0.5-1.4,0.8c1.5,0.2,6.6,2.9,6,4.9c0.4-0.3,0.7-0.6,1.1-0.9
			c-2.4,0.2-4.7-3.4-5-5.3c-0.4,0.5-0.7,1-1.1,1.5c1.5,0.2,5.5,2.5,5.9,4.2c0.3,1.2-0.1,1.6-1.4,0.8c-1.1-0.7-1.9-2.5-1.6-3.7
			c-0.5,0.3-1,0.5-1.4,0.8c0.9,0.2,1.7,0.6,2.4,1.1c0.6,0.4,1.1,0.8,1.6,1.3c0.8,0.8,1.8,1.1,0.3,1.8c-1.9,0.9-4.4-2.2-6-3.3
			c0.1,0.6,0.2,1.2,0.2,1.8c1.6-1.7,8.5,1.5,9.7,2.7c0.4-0.6,0.8-1.3,1.1-1.9c-1.9-0.3-5.1-1.3-6.5-2.8
			C339.2,171.2,337.6,172.8,338.6,173.9L338.6,173.9z"/>
	</g>
	<g>
		<path d="M335.4,167.9c2.9-0.4,5.3,1.3,8,2.3c1.9,0.7,4.5,0.8,6,2.2c0.3-0.7,0.5-1.3,0.8-2c-1.6,0.1-8.6-1.7-9.6-3.3
			c-0.4,0.6-0.9,1.1-1.3,1.7c2.2,0.4,3.8,1.8,5.8,2.7c1.5,0.6,3.1,0.9,4.5,1.8c0.1-0.7,0.2-1.4,0.3-2.1c-3.6,0.6-9.3-4.6-11.4-7.1
			c-0.3,0.7-0.5,1.3-0.8,2c2.4,0.2,4.4,1.4,6.6,2.3c2.2,0.9,4.6,1.3,6.4,3.1c0.5-0.5,1.1-1.1,1.6-1.6c-2.2-2.1-5-2.8-7.9-3.8
			c-0.2,0.7-0.4,1.5-0.6,2.2c5.6,1.9,12.2,1.9,17.2,5c-0.1-0.5-0.3-1.1-0.4-1.6c-0.3,0.6-1.9,1-2.5,1.5c-1.1,1,0.5,2.6,1.6,1.6
			s2.1-0.5,2.9-2c0.3-0.6,0.1-1.2-0.4-1.6c-5.3-3.2-12-3.2-17.8-5.2c-1.4-0.5-2,1.8-0.6,2.2c2.4,0.8,5,1.3,6.9,3.2
			c1.1,1,2.7-0.6,1.6-1.6c-2.1-2-4.6-2.5-7.2-3.6c-2.5-1-4.7-2.3-7.4-2.5c-1.1-0.1-1.4,1.3-0.8,2c2.9,3.5,8.7,8.5,13.6,7.7
			c1.1-0.2,1-1.6,0.3-2.1c-1.7-1.1-3.7-1.4-5.5-2.2c-1.9-0.9-3.2-2.1-5.4-2.4c-0.9-0.2-1.9,0.8-1.3,1.7c1,1.6,2.7,1.9,4.3,2.5
			c2.4,0.8,4.7,2.2,7.3,2c0.9-0.1,1.6-1.2,0.8-2c-1.8-1.6-4.2-1.9-6.4-2.6c-3.1-1-5.8-3-9.2-2.5C333.9,165.7,333.9,168,335.4,167.9
			L335.4,167.9z"/>
	</g>
	<g>
		<path d="M329.8,163.6c0.3,3.7-0.9,8.1,2,11.1c3.2,3.2,8.8,4.8,13,6.1c3.7,1.2,7.6,2.8,11.5,1.4c3.4-1.2,5.4-5.2,6.8-8.3
			c0.6-1.4-1.4-2.5-2-1.2c-0.7,1.5-2.3,3.3-3.4,4.3c-0.6,0.5-4.5,3.6-5.3,1.9c-0.2,0.6-0.5,1.1-0.7,1.7c1.9-0.3,3.8-0.1,4.7-2
			c0.7-1.3-1.3-2.5-2-1.2c-0.4,0.8-2.5,0.8-3.4,0.9c-0.8,0.1-1,1.1-0.7,1.7c0.8,1.7,4.1,1.7,5.6,1.2c2.7-0.9,6-4.9,7.1-7.4
			c-0.7-0.4-1.3-0.8-2-1.2c-1.5,3.3-3.2,7.1-7.3,7.5c-2.8,0.3-5.7-0.9-8.3-1.7c-3.5-1.1-7.5-2.3-10.5-4.5c-3.8-2.9-2.4-6.3-2.8-10.4
			C331.9,162.1,329.6,162.1,329.8,163.6L329.8,163.6z"/>
	</g>
	<g>
		<path d="M332.9,128.6c0.9-2.1,1.5-4.6,1.4-7c-0.3-4.1-4.4-6.2-6.8-9.2c-5.5-6.9-7.2-17.5-8.2-26.1c-2.6-22.4,4.2-44.5,22-59
			c19.8-16.2,51.5-14.6,70.1,2.8c8.4,7.9,14.6,18.7,17.1,30c2.7,12.2,0.1,25.3-6,36c-6.8,12-16.8,22.8-28.1,30.8
			c-2.2,1.5-4.3,3.2-6.8,4.1c-2.5,0.9-5.2,0.9-7.7,1.8c-3.9,1.3-5.2,5.3-6.9,8.7c-0.5,1,1.8,0.7,2.1,0c0.9-2,1.8-4.3,3.1-6
			c2-2.6,6.4-2.4,9.4-3.3c4-1.3,7.3-3.9,10.6-6.4c9.8-7.3,18.6-17,25-27.5c6.4-10.3,9.6-22.4,8.2-34.6c-1.4-11.9-7.7-23.8-15.9-32.4
			c-15.6-16.3-43.1-21.4-63.8-12c-20.1,9.1-33.1,29.6-34.9,51.2c-1,12.4,0.9,25,5.1,36.6c1.6,4.4,4.5,7.5,7.9,10.7
			c3.2,3.1,2.5,7.3,0.9,11.1C330.4,129.6,332.6,129.3,332.9,128.6L332.9,128.6z"/>
	</g>
	<g>
		<path d="M348,134.3c1.9-6,1.8-12.6,3.1-18.7c0.4-1.9,1.5-5,0.5-7c-0.4-0.8-1.4-1.3-2-2.1c-1-1.4-1.4-3.1-1.8-4.8
			c-1.3-6.1-2.9-14.1,0.8-19.7c4.5-6.9,7.3-1.1,8.2,2.8c0.3,1.2,1,8.8-1.1,9.3c0.4,0,0.8,0.1,1.2,0.1c-2-2,0.8-9.2,2-11.2
			c1.9-3.2,6.7-7.8,9.6-2.7c1.4,2.5,2.5,5.2,2.8,8.1c0.2,1.8,0.8,6.3-0.5,7.9c0,0.7-0.1,0.9-0.5,0.5c-0.2-0.8-0.2-1.6-0.1-2.4
			c0.1-0.9,0.3-1.9,0.7-2.7c1.3-3.3,7.2-6.7,10.1-3c1.8,2.2,0.2,6.7-0.7,8.9c-0.3,0.8-0.7,2.2-1.3,2.7c-1.5,1.2-0.9-1-0.6-2.1
			c0.8-3.3,3.8-8.9,8-8.5c4.3,0.4,1.8,5.7,1,7.9c-1.2,3.1-2.7,6.2-5.3,8.4c-2.6,2.3-5.6,1.5-8.5,2.7c-0.9,0.4-1.4,0.6-2,1.5
			c-0.9,1.5-1.4,3.8-2.2,5.4c-0.4,0.9-0.9,1.7-1.3,2.6c-2.7,6-4.5,12.2-6.5,18.4c-0.3,0.8,2,0.5,2.2-0.3c1.6-4.9,3.1-9.8,5-14.6
			c1-2.5,2.2-4.8,3.3-7.3c0.3-0.6,0.5-1.2,0.8-1.8c0.8-2,1.1-2.5,3.1-3.1c3.1-1,5.1-0.8,7.8-3.1c2.9-2.6,4.7-6,5.9-9.6
			c0.7-2,2.4-5.9,0.4-7.7c-1.5-1.3-4.3-0.6-6,0c-2.9,1-5.3,3.1-6.8,5.8c-0.8,1.6-3.3,6.6-0.9,7.9c5,2.7,14-20.9-1.2-16.5
			c-2.1,0.6-4.4,1.9-5.7,3.7c-1.2,1.7-2.8,6.2-1.2,8.1c3.9,4.6,5.2-6,5.3-7.4c0.1-5.1-2.6-16.9-9.9-14.2c-2.9,1-5.4,3.9-7,6.4
			c-1.5,2.5-4.4,9.6-2,12.1c0.3,0.3,0.9,0.2,1.2,0.1c5.4-1.5,3.5-11.9,1.5-15.4c-3.3-5.9-10.1-0.3-11.8,3.9
			c-1.6,3.9-1.8,8.4-1.2,12.5c0.5,3.4,0.9,7.6,2.7,10.5c0.5,0.7,1.3,1.2,1.7,1.9c0.9,1.5,0.6,2.6,0.4,4.3c-0.4,2.4-1,4.8-1.5,7.3
			c-0.8,4.7-0.7,9.5-2.1,14.1C345.5,135.4,347.7,135.1,348,134.3L348,134.3z"/>
	</g>
</g>
<g>
	<g>
		<path d="M98.3,128.5c-5.8-12.7-12.7-25-22.3-35.1C67,84,56.1,76.5,44.2,71.3c-0.3-0.1-0.8,0-0.9,0.3c-1.3,3.7-0.6,7.9-0.2,11.7
			c0.4,4.2,1,8.3,1.9,12.5c1.6,8,4.1,15.9,7.3,23.4c3.2,7.3,7.1,14.4,11.6,20.9c1.1,1.6,2.3,3.2,3.5,4.8c0.8,1,1.4,1.8,2.8,1.8
			c3.1-0.1,6.9-2,9.7-3.3c3.9-1.7,7.5-3.9,10.9-6.4s6.6-5.3,8.2-9.3c0.1-0.3-0.9-0.2-1,0.1c-2.8,7.1-11.5,11.9-18.1,14.9
			c-1.8,0.8-3.7,1.6-5.6,2.2c-2,0.7-4,1.5-5.6-0.2c-2.4-2.5-4.4-5.8-6.2-8.7c-7.8-12.1-13.3-25.7-16.3-39.8
			c-0.8-3.8-1.4-7.7-1.9-11.6c-0.5-4.2-1.4-9.1,0-13.2c-0.3,0.1-0.6,0.2-0.9,0.3c11.9,5.1,22.7,12.6,31.7,22
			c9.6,10.1,16.5,22.3,22.3,35C97.4,129.2,98.5,128.9,98.3,128.5L98.3,128.5z"/>
	</g>
	<g>
		<path d="M58.1,101.1c4.3-4,10.9-4.7,15.2-0.4c1.5,1.5,2.6,3.6,2.9,5.7c0.4,2.8-1.1,5.1-2.8,7.2c-2.3,2.7-5.2,4.9-8.9,4.2
			c-2.4-0.5-4.5-1.9-5.9-4c-2.4-3.4-4-10.2-0.1-13.1c0.5-0.3-0.6-0.4-0.8-0.2c-4.9,3.6-2.1,12.5,1.8,15.8c4.4,3.7,10.2,2.4,13.9-1.6
			c2.2-2.4,4.3-5.2,3.8-8.6c-0.4-2.8-2.1-5.4-4.4-7C68,95.6,61.4,97,57.2,101C56.8,101.4,57.8,101.4,58.1,101.1L58.1,101.1z"/>
	</g>
	<g>
		<path d="M61.5,102.9c2.9-3.2,8.3-2.3,11.1,0.8c2.8,3.1,0.2,6.4-2.6,8.3c-1.9,1.3-4.5,2.2-6.7,1.2c-1.1-0.5-2.1-1.3-2.9-2.1
			c-2.4-2.7-0.4-5.6,1.2-8.1c0.3-0.4-0.8-0.3-1,0c-1.1,1.6-2.7,3.9-2.5,6c0.2,1.9,1.9,3.3,3.4,4.3c3.8,2.4,7,0.9,10.3-1.8
			c3.5-2.9,4-6.9-0.1-9.5c-3.6-2.2-8.2-2.5-11.2,0.8C60.2,103.2,61.2,103.2,61.5,102.9L61.5,102.9z"/>
	</g>
	<g>
		<path d="M56.6,78.2c-0.9,2.3-2.1,4.4-3.8,6.3c-0.9,1-1.9,1.8-3,2.5c-1.5,0.9-3.3,0.9-4.8,1.7c0.6-0.3-0.3-0.5-0.6-0.3
			c-0.2,0.1-0.3,0.2-0.5,0.3c-0.3,0.2-0.2,0.5,0.1,0.5c6.7,0,11.3-5.2,13.7-11C57.7,77.8,56.7,77.9,56.6,78.2L56.6,78.2z"/>
	</g>
	<g>
		<path d="M85.2,104.2c6-2.6,12.7-0.8,17.5,3.4c4.3,3.7,7,8.9,9.2,14c0.3-0.1,0.6-0.3,0.8-0.4c-3.8-1.2-7.7-2.6-11.6-3.4
			c-2.6-0.6-5.1-0.6-7.5,0.7c-0.6,0.3,0.3,0.5,0.6,0.3c3.3-1.7,6.9-0.3,10.1,0.7c2.6,0.8,5.1,1.5,7.7,2.3c0.2,0.1,1-0.1,0.8-0.4
			c-2.6-6.1-6-12.3-11.7-16c-4.9-3.1-11-3.9-16.4-1.5C84.1,104.1,84.7,104.4,85.2,104.2L85.2,104.2z"/>
	</g>
	<g>
		<path d="M54.4,122.6c-5,1.7-8.6,5.9-10.5,10.7c-2.6,6.6-1.4,13.9,0.5,20.6c0.1,0.4,1,0.1,1-0.2c0.5-3.5,2-6.7,4-9.6
			c2.4-3.3,6.9-8.6,11.4-8c0.3,0,1.2-0.5,0.6-0.6c-4.3-0.5-7.7,2.6-10.5,5.5c-3.4,3.6-5.9,7.9-6.7,12.8c0.3-0.1,0.7-0.1,1-0.2
			c-1.7-6-2.8-12.3-1.2-18.4c1.5-5.4,5.1-10.3,10.5-12.2C55.5,122.8,54.9,122.4,54.4,122.6L54.4,122.6z"/>
	</g>
	<g>
		<path d="M93.9,135.6c0,0,2,1.1,2.3,1.3c0.7,0.5,1.4,1.1,2,1.7c1.1,1.1,2.1,2.2,3,3.5c0.7,1,2.2,2.5,1.3,3.9
			c-0.4,0.6-2,1.1-2.5,1.4c-1.8,1-3.7,2-5.5,3s-3.7,2-5.5,3c-0.8,0.5-1.7,0.9-2.5,1.4c-1.2,0.7-2,1.4-2.9-0.1
			c-0.8-1.3-2.9-11.6-1.2-12.2c0.7-0.2,0.1-0.6-0.4-0.4c-1.7,0.6-1.1,3.5-1,4.9c0.1,1.7,0.4,3.4,0.8,5.1c0.2,1,0.5,3.4,1.2,4.1
			c0.8,0.9,1.5,0.3,2.5-0.2c3.4-1.8,6.8-3.6,10.2-5.5c1.7-0.9,3.4-1.8,5.1-2.7c0.9-0.5,2.4-0.9,3.1-1.7c1.1-1.3-1.2-3.8-1.9-4.9
			c-1.7-2.2-3.7-4.3-6.1-5.8c-1.1-0.7-1.9-1.1-2.8,0c0,0,0,0.1,0,0.2c0.1,0.1,0.1,0.3,0.2,0.4C93,136.2,94,135.9,93.9,135.6
			L93.9,135.6z"/>
	</g>
	<g>
		<path d="M100.3,148.6c4.2,0.1,7.8,6,9.9,9.1c0.3-0.2,0.5-0.3,0.8-0.5c-1.8-0.2-3.8-0.6-5.6-0.7c-0.5,0-1-0.1-1.4,0.1
			c-1.7,0.9,0,3.8,0.4,5.2c1.9,7.3,2.7,14.8,2.3,22.3c0.3-0.1,0.6-0.2,0.9-0.3c-7.5-4-12.6-11.5-13.8-19.9c0-0.4-1.1-0.1-1,0.3
			c0.1,1.2-0.2,2.2-1.1,3c0.3,0,0.6,0,0.9-0.1c-0.3-1-3.9-13.1-2.9-13.2c0.4,0,1.1-0.6,0.4-0.6c-1.7,0-1.7,1.4-1.5,2.8
			c0.6,3.8,1.6,7.6,2.9,11.2c0.1,0.3,0.8,0.1,0.9-0.1c1.1-0.9,1.5-2,1.3-3.4c-0.3,0.1-0.7,0.2-1,0.3c1.2,8.5,6.3,16.1,14,20.1
			c0.2,0.1,0.9,0,0.9-0.3c0.3-5.1,0-10.3-0.8-15.4c-0.4-2.5-0.9-5-1.6-7.5c-0.4-1.4-1.6-3.4,0.4-3.9c1.2-0.3,3.5,0.4,4.7,0.6
			c0.2,0,1.1-0.1,0.8-0.5c-2.3-3.4-5.8-9.2-10.4-9.3C100.3,148,99.6,148.6,100.3,148.6L100.3,148.6z"/>
	</g>
	<g>
		<path d="M98.7,152.3c0.5-0.5,2.7,1.8,2.9,2.2c1.2,1,0.5,1.5-2.1,1.5c-0.2,0-0.5,0-0.7,0c-0.5,0.3-0.7,0-1,0.8
			c-0.2,0.6,0.3,1.9,0.4,2.4c0.2,1.2,0.5,2.4,0.7,3.6c0.3,1.7,2,5.9,0.7,7.4c0.3,0,0.7-0.1,1-0.1c-1.8-3.9-3.5-7.8-5.3-11.6
			c-0.1-0.3-0.9-0.1-1,0.1c-0.6,1.2-1.1,2.4-1.7,3.6c0.3,0,0.7-0.1,1-0.1c-1.3-3.3-1.3-6.8,0.1-10.1c0.1-0.3-0.9-0.2-1,0.1
			c-1.4,3.3-1.5,6.8-0.1,10.2c0.1,0.3,0.9,0.1,1-0.1c0.6-1.2,1.1-2.4,1.7-3.6c-0.3,0-0.7,0.1-1,0.1c1.8,3.9,3.5,7.8,5.3,11.6
			c0.2,0.4,0.8,0.1,1-0.1c0.8-1,0.4-2,0.2-3.1c-0.4-2.3-0.9-4.5-1.4-6.8c-0.1-0.5-0.9-2.8-0.6-3.2c0.5-0.7,0.9-0.3,1.5-0.4
			c1.1-0.3,2-0.4,3-1.1c0.1-0.1,0.3-0.2,0.2-0.4c-1.1-1.3-3.7-5.1-5.7-3.1C97.5,152.6,98.5,152.6,98.7,152.3L98.7,152.3z"/>
	</g>
	<g>
		<path d="M56.5,79.1c-3.7,9.8-6.3,20-7.9,30.3c-0.1,0.4,1,0.2,1-0.1c1.6-10.4,4.3-20.5,7.9-30.3C57.7,78.6,56.6,78.7,56.5,79.1
			L56.5,79.1z"/>
	</g>
	<g>
		<path d="M52.7,84.8c-2.5,6.6-4.3,13.4-5.3,20.4c-0.1,0.4,1,0.2,1-0.1c1-7,2.8-13.8,5.3-20.4C53.9,84.3,52.9,84.4,52.7,84.8
			L52.7,84.8z"/>
	</g>
	<g>
		<path d="M50.2,87.1c-1.5,4.5-2.8,9.1-3.7,13.7c-0.1,0.4,1,0.2,1-0.1c1-4.6,2.2-9.2,3.7-13.7C51.3,86.6,50.3,86.8,50.2,87.1
			L50.2,87.1z"/>
	</g>
	<g>
		<path d="M47.9,88.7c-1.1,3.1-1.9,6.3-2.5,9.6c-0.1,0.4,1,0.2,1-0.1c0.6-3.3,1.4-6.5,2.5-9.6C49.1,88.3,48,88.4,47.9,88.7
			L47.9,88.7z"/>
	</g>
	<g>
		<path d="M47,88.9c-0.1-0.1-0.1-0.3-0.2-0.4c-0.1-0.4-1-0.1-1,0.2c-0.5,1.7-0.8,3.4-1.1,5.1c-0.1,0.4,1,0.2,1-0.1
			c0.3-1.7,0.7-3.4,1.1-5.1c-0.3,0.1-0.7,0.1-1,0.2c0.1,0.1,0.1,0.3,0.2,0.4C46.1,89.6,47.1,89.2,47,88.9L47,88.9z"/>
	</g>
	<g>
		<path d="M58.4,80c-3.8,10.7-6.8,21.6-9,32.8c-0.1,0.4,1,0.2,1-0.1c2.2-11.1,5.3-22.1,9-32.8C59.6,79.5,58.5,79.7,58.4,80L58.4,80z
			"/>
	</g>
	<g>
		<path d="M60.1,81c-3.9,11.3-6.9,23-9,34.8c-0.1,0.4,1,0.2,1-0.1c2.1-11.8,5.1-23.4,9-34.8C61.2,80.6,60.2,80.7,60.1,81L60.1,81z"
			/>
	</g>
	<g>
		<path d="M62.2,82.6c-1.8,6.2-3.5,12.3-5.3,18.5c-0.1,0.4,0.9,0.2,1-0.1c1.8-6.2,3.5-12.3,5.3-18.5C63.4,82.1,62.3,82.2,62.2,82.6
			L62.2,82.6z"/>
	</g>
	<g>
		<path d="M54.9,107c-0.9,4.1-1.8,8.2-2.7,12.2c-0.1,0.4,1,0.2,1-0.1c0.9-4.1,1.8-8.2,2.7-12.2C56,106.5,54.9,106.6,54.9,107
			L54.9,107z"/>
	</g>
	<g>
		<path d="M64.9,84.2C64.9,84.1,64.9,84.1,64.9,84.2c0.2-0.1,0.6-0.2,0.5-0.4v-0.1c-0.1-0.4-0.9-0.1-1,0.1c-0.5,0.6-0.6,1.7-0.8,2.5
			c-0.4,1.5-0.7,2.9-1.1,4.4c-0.7,2.8-1.4,5.6-2.1,8.4c-0.1,0.4,1,0.2,1-0.1c0.6-2.5,1.3-5,1.9-7.5c0.3-1.2,0.6-2.3,0.9-3.5
			c0.3-1.1,0.4-3.3,1.2-4.1c-0.3,0-0.7,0.1-1,0.1v0.1c0.2-0.1,0.3-0.3,0.5-0.4c0,0,0,0-0.1,0C64.1,83.8,64.2,84.3,64.9,84.2
			L64.9,84.2z"/>
	</g>
	<g>
		<path d="M56.5,112.5c-0.4,3.3-2,6.3-2.5,9.6c-0.1,0.4,1,0.2,1-0.1c0.5-3.3,2.1-6.3,2.5-9.6C57.6,112,56.6,112.2,56.5,112.5
			L56.5,112.5z"/>
	</g>
	<g>
		<path d="M67.2,86.1C67.3,86.1,67.3,86.1,67.2,86.1c0.1-0.1,0.1-0.2,0-0.3c0,0,0,0-0.1-0.1c-0.2-0.3-0.8,0-1,0.2
			c-0.9,1.2-1,3.7-1.4,5.2c-0.3,1-0.5,2.1-0.8,3.2c-0.2,1-0.3,3-1,3.7c0.3,0,0.7-0.1,1-0.1v-0.1c-0.2,0.1-0.4,0.3-0.6,0.4
			c0,0,0,0,0.1,0c0.5,0,0.9-0.6,0.1-0.6c0,0,0,0-0.1,0c-0.2,0-0.6,0.2-0.6,0.4v0.1c0.1,0.4,0.9,0,1-0.1c1-1.1,1-3.8,1.4-5.2
			c0.3-1.1,0.5-2.1,0.8-3.1c0.2-1,0.4-2.9,1-3.7c-0.3,0.1-0.6,0.1-1,0.2v-0.1C66,86.4,67,86.3,67.2,86.1L67.2,86.1z"/>
	</g>
	<g>
		<path d="M58.5,114.6c-0.7,4.4-2,8.7-2.8,13.1c-0.1,0.4,1,0.2,1-0.1c0.8-4.4,2.1-8.7,2.8-13.1C59.6,114.1,58.6,114.2,58.5,114.6
			L58.5,114.6z"/>
	</g>
	<g>
		<path d="M69.5,87.1c-0.1-0.3,0-0.3-0.3-0.5s-0.9-0.1-1,0.3c-0.6,2-1.2,4-1.8,6c-0.3,1.2-1.5,3.6-1.1,4.7c0,0.1,0.2,0.2,0.3,0.2
			h0.1c0.4,0,1.1-0.6,0.4-0.6c0.5,0,1.4-4.8,1.6-5.2c0.5-1.8,1-3.5,1.5-5.2c-0.3,0.1-0.7,0.2-1,0.3c0.1,0.1,0.1,0.2,0.2,0.4
			C68.5,87.7,69.6,87.5,69.5,87.1L69.5,87.1z"/>
	</g>
	<g>
		<path d="M70.6,89.1c-1.1,1.4-1.2,3.4-1.5,5.1c-0.2,0.9-1.2,3.4-0.7,4.2c0.2,0.3,0.8,0,1-0.2c0,0,0-0.1,0.1-0.1
			c0.1-0.1,0-0.2-0.1-0.3c0,0,0,0-0.1,0c-0.3-0.2-1.2,0.2-0.8,0.5l-0.1-0.1c0.3-0.1,0.6-0.1,1-0.2c-0.4-0.5,0.7-3.5,0.8-4.2
			c0.3-1.5,0.4-3.4,1.4-4.6C71.9,88.8,70.8,88.9,70.6,89.1L70.6,89.1z"/>
	</g>
	<g>
		<path d="M72.4,91c-0.7,0.8-1.1,2-1.4,3.1c-0.5,1.5-0.9,3-1.3,4.5c-0.1,0.3,0.5,0.2,0.6,0.2h0.1c0.1,0,0.4-0.2,0.5-0.3
			c0-0.1,0-0.1,0-0.2c0.1-0.4-1-0.2-1,0.1c0,0.1,0,0.1,0,0.2c0.2-0.1,0.3-0.2,0.5-0.3h-0.1c0.2,0.1,0.4,0.1,0.6,0.2
			c0.3-1.2,0.6-2.3,0.9-3.4c0.4-1.1,0.8-2.9,1.6-3.8C73.7,90.7,72.7,90.8,72.4,91L72.4,91z"/>
	</g>
	<g>
		<path d="M74.7,93.1c-0.6,1.2-1.1,2.4-1.4,3.7c-0.2,0.9-0.9,2.4-0.3,3.2c0.2,0.3,1.2-0.1,1-0.4c-0.5-0.6,0.3-2.4,0.5-3.1
			c0.3-1.1,0.8-2.2,1.3-3.3C75.8,92.7,74.8,92.8,74.7,93.1L74.7,93.1z"/>
	</g>
	<g>
		<path d="M77.5,95.5c0-0.2-0.1-0.3-0.1-0.5c-0.1-0.4-1-0.1-1,0.2c-0.4,1.5-0.8,3-1.2,4.5c-0.3,1.1-1,2.4-0.9,3.5
			c0,0.1,0.1,0.1,0.2,0.1h0.1c0.3,0,0.7,0,0.8-0.3c0,0,0,0,0-0.1c0.1-0.3-0.9-0.2-1,0.1c0,0,0,0,0,0.1c0.3-0.1,0.6-0.2,0.8-0.3
			c0.3,0,2.1-7,2.3-7.7c-0.3,0.1-0.7,0.1-1,0.2c0,0.2,0.1,0.3,0.1,0.5C76.5,96.2,77.6,95.9,77.5,95.5L77.5,95.5z"/>
	</g>
	<g>
		<path d="M78.8,97.9c-1.2,2.5-2.1,5-2.7,7.7c-0.1,0.4,1,0.2,1-0.1c0.5-2.6,1.4-5.2,2.6-7.6C80,97.5,78.9,97.6,78.8,97.9L78.8,97.9z
			"/>
	</g>
	<g>
		<path d="M80,100.6c-5.7,12.9-11.2,25.9-16.4,39c-0.1,0.3,0.9,0.2,1-0.1c5.3-13.1,10.7-26.1,16.4-39
			C81.2,100.2,80.2,100.3,80,100.6L80,100.6z"/>
	</g>
	<g>
		<path d="M70.7,116.6c-1,3.4-2.9,6.4-4.3,9.6c-1.6,3.5-3,7.1-4.3,10.7c-0.1,0.3,0.9,0.2,1-0.1c1.3-3.6,2.7-7.2,4.3-10.7
			c1.4-3.2,3.4-6.3,4.3-9.6C71.9,116.1,70.8,116.3,70.7,116.6L70.7,116.6z"/>
	</g>
	<g>
		<path d="M67.4,118.3c0.4,0.5-1.1,3.3-1.3,3.9c-0.6,1.5-1.2,2.9-1.8,4.4c-1.2,2.9-2.4,5.8-3.5,8.8c-0.1,0.3,0.9,0.2,1-0.1
			c1.4-3.4,2.7-6.7,4.1-10.1c0.6-1.6,1.3-3.2,1.9-4.8c0.3-0.7,1.1-1.7,0.6-2.4C68.1,117.6,67.1,118,67.4,118.3L67.4,118.3z"/>
	</g>
	<g>
		<path d="M64.7,118.5c-2.1,4.4-4,9-5.7,13.6c-0.1,0.3,0.9,0.2,1-0.1c1.7-4.6,3.6-9.1,5.7-13.6C65.8,118.1,64.8,118.2,64.7,118.5
			L64.7,118.5z"/>
	</g>
	<g>
		<path d="M62.5,118.1c0.2,0.9-0.8,2.3-1.1,3.1c-0.4,1-0.8,1.9-1.2,2.9c-0.8,2.1-1.6,4.2-2.3,6.3c-0.1,0.4,0.9,0.2,1-0.1
			c0.8-2.4,1.7-4.8,2.6-7.2c0.5-1.3,2.3-3.8,2-5.3C63.5,117.5,62.5,117.8,62.5,118.1L62.5,118.1z"/>
	</g>
	<g>
		<path d="M60.7,117.5c-1.3,3.7-2.6,7.4-3.9,11.1c-0.1,0.3,0.9,0.2,1-0.1c1.3-3.7,2.6-7.4,3.9-11.1C61.9,117,60.8,117.2,60.7,117.5
			L60.7,117.5z"/>
	</g>
	<g>
		<path d="M81.9,101.8c-7,12.5-9.6,26.9-17.2,39.2c-0.3,0.4,0.8,0.3,1,0c7.6-12.2,10.2-26.6,17.2-39.2
			C83.1,101.4,82,101.5,81.9,101.8L81.9,101.8z"/>
	</g>
	<g>
		<path d="M82.9,103.5c-5,13.8-9.6,27.7-16.6,40.6c-0.2,0.4,0.8,0.3,1,0c7-13,11.7-26.9,16.7-40.8C84.1,103,83,103.1,82.9,103.5
			L82.9,103.5z"/>
	</g>
	<g>
		<path d="M84.5,105c-3.1,7.1-5.4,14.5-7.9,21.8c-1.2,3.5-2.4,7-3.9,10.4c-0.9,2.1-1.8,4.1-2.8,6.1c-0.4,0.8-1.5,2.1-1.3,3.1
			c0,0.1,0.2,0.2,0.3,0.2c0.4,0,0.7-0.1,1-0.4c0.1-0.1,0.1-0.1,0-0.2l-0.1-0.1c-0.2-0.3-1.2,0.1-1,0.4c0.3,0.4,2.9-4.7,3.2-5.2
			c0.7-1.5,1.4-3.1,2-4.7c1.4-3.4,2.6-6.9,3.8-10.5c2.4-7,4.6-14.1,7.6-21C85.7,104.6,84.6,104.7,84.5,105L84.5,105z"/>
	</g>
	<g>
		<path d="M85.7,107.4c-2.7,6.3-5.3,12.4-7.2,19c-2.1,6.9-4.7,13.6-7.9,20c-0.2,0.4,0.8,0.3,1,0c3.2-6.2,5.7-12.7,7.7-19.4
			c2.1-6.8,4.6-13.3,7.5-19.8C86.9,107,85.8,107.1,85.7,107.4L85.7,107.4z"/>
	</g>
	<g>
		<path d="M87.5,109.9L87.5,109.9c0.3,0,0.7-0.2,0.7-0.4c0-0.1,0-0.1,0-0.2c0-0.2-0.3-0.2-0.5-0.1c-1.5,0.1-2,2.4-2.4,3.5
			c-1.3,3.7-2.5,7.4-3.8,11.1c-2.6,7.4-5.4,14.7-8.3,22c-0.1,0.3,0.9,0.2,1-0.1c2.4-6,4.7-12,6.9-18c1.1-3,2.1-5.9,3.1-8.9
			c0.5-1.5,1-3,1.5-4.5c0.4-1.2,1.5-3.4,1.4-4.5c0.2-0.1,0.4-0.3,0.6-0.4h-0.1C87.1,109.4,86.8,110,87.5,109.9L87.5,109.9z"/>
	</g>
	<g>
		<path d="M89.3,111c0-0.1,0-0.2,0-0.2c0-0.1-0.1-0.1-0.1-0.1c-0.8-0.3-1.1,0.1-1.5,0.7c-0.9,1.3-1.3,3.7-1.8,5.3
			c-0.6,1.9-1.3,3.8-1.9,5.7c-2.3,7.2-4.4,14.5-6.3,21.9c-0.1,0.4,1,0.2,1-0.1c1.5-5.7,3-11.4,4.7-17c0.8-2.7,1.7-5.3,2.5-8
			c0.5-1.5,1-2.9,1.5-4.4c0.4-1,0.6-3.1,1.5-3.8c-0.3,0.1-0.6,0.1-0.8,0.2c0.1,0.1,0.1,0.1,0.2,0.2C88.3,111.6,89.4,111.4,89.3,111
			L89.3,111z"/>
	</g>
	<g>
		<path d="M88.7,112.5c-2.4,10-5.1,20-8.1,29.9c-0.1,0.4,0.9,0.2,1-0.1c3-9.9,5.7-19.8,8.1-29.9C89.8,112,88.8,112.1,88.7,112.5
			L88.7,112.5z"/>
	</g>
	<g>
		<path d="M90.1,114.8c-2.5,9.1-5,18.1-7.5,27.2c-0.1,0.4,0.9,0.2,1-0.1c2.5-9.1,5-18.1,7.5-27.2C91.2,114.3,90.1,114.4,90.1,114.8
			L90.1,114.8z"/>
	</g>
	<g>
		<path d="M91.5,117.4c-1.9,7.5-3.9,14.9-6.2,22.3c-0.1,0.4,0.9,0.2,1-0.1c2.2-7.4,4.3-14.8,6.2-22.3
			C92.6,116.9,91.6,117.1,91.5,117.4L91.5,117.4z"/>
	</g>
	<g>
		<path d="M93.1,119.9c-0.8,3.3-1.7,6.6-2.6,9.9c-0.4,1.5-0.9,3-1.4,4.4c-0.4,1.3-1.2,2.7-1.1,4c0,0.1,0.2,0.2,0.3,0.2
			c0.1,0,0.1,0,0.2,0c0.2,0,0.7-0.1,0.7-0.4v-0.1c0.1-0.4-1-0.2-1,0.1v0.1c0.2-0.1,0.5-0.2,0.7-0.4c0.6,0,2.6-8.1,2.9-9
			c0.9-3,1.6-6,2.4-9C94.3,119.3,93.2,119.5,93.1,119.9L93.1,119.9z"/>
	</g>
	<g>
		<path d="M94.2,122.4c-0.8,4.6-1.9,9.1-3.3,13.5c-0.1,0.4,0.9,0.2,1-0.1c1.4-4.4,2.5-8.9,3.3-13.5
			C95.3,121.9,94.3,122.1,94.2,122.4L94.2,122.4z"/>
	</g>
	<g>
		<path d="M96.4,125.3c0-0.1,0-0.3,0-0.4c0-0.4-1-0.1-1,0.2c-0.4,2.3-1,4.5-1.7,6.7c-0.3,1-1.9,3.3-1.1,4.2c0.2,0.3,1.2-0.1,1-0.4
			c-0.5-0.6,1.3-4.3,1.6-5.1c0.6-1.8,1-3.7,1.4-5.5c-0.3,0.1-0.7,0.1-1,0.2c0,0.1,0,0.3,0,0.4C95.4,126,96.5,125.7,96.4,125.3
			L96.4,125.3z"/>
	</g>
	<g>
		<path d="M96.2,127.6c-0.8,1.7-1.4,3.5-1.9,5.4c-0.1,0.4,1,0.2,1-0.1c0.5-1.9,1.1-3.6,1.9-5.4C97.4,127.2,96.4,127.3,96.2,127.6
			L96.2,127.6z"/>
	</g>
	<g>
		<path d="M98.3,153c1.5,0,2.2,0.8,2.6,2c0.3-0.1,0.7-0.2,1-0.3c-0.6-0.4-1-1-1.2-1.6c-0.3,0.1-0.6,0.3-0.9,0.4
			c0.2,0.2,0.4,0.3,0.6,0.5c0.3-0.1,0.6-0.3,1-0.4c-0.5-0.6-1-1-1.7-1.3c-0.2-0.1-0.9,0-0.9,0.3c-0.1,1.3-0.1,2.4,0.2,3.7
			c0.3-0.1,0.7-0.2,1-0.3c-0.4-1.5-0.9-3-1.3-4.5c-0.1-0.4-1.1-0.1-1,0.3c0.2,1.6,0.3,3.1,0.5,4.7c0.3-0.1,0.7-0.2,1-0.3
			c-0.7-1.3-1.2-2.6-1.4-4.1c-0.1-0.4-1.1-0.1-1,0.3c0,1.6,0.1,3.1,0.1,4.7c0.3-0.1,0.7-0.2,1-0.3c-0.5-1.7-0.9-3.4-1.4-5.1
			c-0.1-0.4-1.1-0.1-1,0.3c0.1,2,0.1,4,0.2,5.9c0.3-0.1,0.7-0.2,1-0.3c-0.4-2.1-0.8-4.2-1-6.4c0-0.4-1-0.1-1,0.3c0,2.2,0,4.3,0,6.5
			c0.3-0.1,0.7-0.2,1-0.3c-0.6-1.7-0.9-3.3-1.2-5.1c-0.1-0.3-1-0.1-1,0.2c-0.1,1.8-0.3,3.6-0.4,5.4c0.3-0.1,0.7-0.2,1-0.3
			c-0.4-0.5-0.6-1.1-0.6-1.7c-0.3,0.1-0.7,0.2-1,0.3c0.2,0.8,0.3,1.7,0.5,2.5c0.1,0.4,1,0.1,1-0.2c0.5-1.7,1-3.4,1.6-5.1
			c0.2-0.7,0.3-2.2,1.2-2.3c0.7-0.1,1.9,1.4,2.3,1.8c0.3-0.2,0.5-0.3,0.8-0.5c-1.3-0.4-2.5-2.4-0.2-0.6c-0.1-0.1,1.1,1.2,1,1.2
			c-0.3,0-1.4-1.5-1.2-1.6c0.6-0.3,1.7,2.2,1.7,2.5c0.3-0.1,0.6-0.3,0.9-0.4c-1-0.4-2.7-1.6-3.8-1c-1,0.6-0.9,2.3-0.5,3.2
			c0.1,0.1,0.2,0.1,0.3,0.2c1.3,0.1,2.5-0.5,3.6-1.1c-0.3,0-0.6-0.1-0.8-0.1c-0.3,1-1,1.7-1.9,2.2c0.2,0.1,0.4,0.2,0.6,0.3
			c1-0.6,1.7-1.4,2.2-2.5c0.2-0.4-0.7-0.1-0.8-0.1c-1.9,1.1-3.5,2.5-4.8,4.2c0.3,0,0.7,0,1-0.1c0.1-1.1,0.3-2.1,0.8-3.1
			c-0.3,0-0.7,0.1-1,0.1c-0.1,1.1-0.3,1.8-0.8,2.9c0.3,0,0.7-0.1,1-0.1c-0.2-0.5-0.4-0.9-0.6-1.4c-0.2-0.3-1.2-0.1-1,0.3
			c0.8,2.6,1.9,5.1,3.2,7.5c0.2,0.3,1.2,0.1,1-0.3c-1-2.4-1.7-4.8-2.1-7.4c-0.3,0.1-0.7,0.2-1,0.3c1,2.4,1.8,4.9,2.5,7.4
			c0.1,0.4,1.1,0.1,1-0.3c-0.4-2.1-0.8-4.1-1.2-6.2c-0.3,0.1-0.7,0.2-1,0.3c0.7,3.2,1.4,6.4,2.1,9.6c0.3-0.1,0.7-0.2,1-0.3
			c-2-3.8-3.7-7.6-5.2-11.6c-0.1-0.4-1.1-0.1-1,0.3c0.1,0.8,0.2,1.6,0.4,2.5c0.3-0.1,0.7-0.2,1-0.3c-0.6-0.7-0.5-1.7-1.6-1.5
			c-0.2,0-0.5,0.1-0.6,0.4c-0.2,0.9-0.1,1.8,0,2.7c0,0.3,1.1,0.1,1-0.3c-0.1-1.8-0.2-3.5-0.2-5.3c0-0.3-1-0.1-1,0.2
			c-0.1,1.9-0.3,3.7-0.4,5.6c0.3-0.1,0.7-0.1,1-0.2c-0.2-1.9-0.4-3.9-0.6-5.8c-0.3,0.1-0.7,0.2-1,0.3c0.2,1.2,0.3,2.4,0.5,3.5
			c0,0.3,1,0.1,1-0.2c0-1.2,0-5.1,1.2-5.8c2-1.2,4.1,1.3,5.4,2.6c0.3-0.2,0.6-0.3,0.9-0.5c-1.2-0.7-2.2-1.5-3.2-2.5
			c-0.3,0.2-0.6,0.3-0.9,0.5c1.3,0.7,2.5,1.3,3.8,2c0.3-0.2,0.6-0.3,0.8-0.5c-1.6-0.7-3.1-1.6-4.6-2.5c-0.3,0.2-0.6,0.3-0.8,0.5
			c0.6,0.2,1.1,0.6,1.5,1c1.1,1,0.3,1.5-2.3,1.5c-0.3-0.2-1.3,0.3-0.8,0.5c1.3,0.6,3.2,0.9,4.4-0.2c1.4-1.3-0.7-2.7-1.9-3.3
			c-0.3-0.1-1.3,0.2-0.8,0.5c1.5,1,3,1.8,4.6,2.5c0.3,0.1,1.3-0.3,0.8-0.5c-1.3-0.7-2.5-1.3-3.8-2c-0.2-0.1-1.2,0.2-0.9,0.5
			c1,1,2.1,1.8,3.3,2.6c0.2,0.1,1.2-0.1,0.9-0.5c-1.3-1.4-3.7-4.1-5.9-3.4c-2.5,0.8-2.7,5.1-2.7,7.1c0.3-0.1,0.7-0.1,1-0.2
			c-0.2-1.2-0.3-2.4-0.5-3.5c-0.1-0.4-1.1-0.1-1,0.3c0.2,1.9,0.4,3.9,0.6,5.8c0,0.3,1,0.1,1-0.2c0.1-1.9,0.3-3.7,0.4-5.6
			c-0.3,0.1-0.7,0.1-1,0.2c0.1,1.8,0.2,3.5,0.2,5.3c0.3-0.1,0.7-0.2,1-0.3c0-0.8-0.2-1.8,0-2.5c-0.2,0.1-0.4,0.2-0.6,0.4
			c0.1,0,0.6,1.1,0.8,1.3c0.2,0.2,1.1,0,1-0.3c-0.1-0.8-0.2-1.6-0.4-2.5c-0.3,0.1-0.7,0.2-1,0.3c1.5,4,3.2,7.9,5.2,11.6
			c0.2,0.3,1.1,0.1,1-0.3c-0.7-3.2-1.4-6.4-2.1-9.6c-0.1-0.4-1.1-0.1-1,0.3c0.4,2.1,0.8,4.1,1.2,6.2c0.3-0.1,0.7-0.2,1-0.3
			c-0.7-2.5-1.5-5-2.5-7.4c-0.1-0.4-1.1-0.1-1,0.3c0.4,2.6,1.1,5,2.1,7.4c0.3-0.1,0.7-0.2,1-0.3c-1.3-2.4-2.4-4.9-3.2-7.5
			c-0.3,0.1-0.7,0.2-1,0.3c0.2,0.5,0.4,0.9,0.6,1.4c0.1,0.3,0.9,0.1,1-0.1c0.5-1,0.8-1.9,0.9-3c0-0.5-0.9-0.2-1,0.1
			c-0.4,1-0.6,2-0.8,3.1c0,0.5,0.9,0.1,1-0.1c1.3-1.6,2.7-2.9,4.5-3.9c-0.3,0-0.6-0.1-0.8-0.1c-0.3,0.9-0.9,1.6-1.8,2.1
			c-0.6,0.4,0.3,0.5,0.6,0.3c1.1-0.6,1.8-1.4,2.3-2.6c0.2-0.4-0.7-0.1-0.8-0.1c-0.8,0.8-1.6,0.9-2.4,0.5c-0.3-0.7-0.2-1.2,0.2-1.6
			c0.6-0.3,1.7,0.4,2.4,0.7c0.2,0.1,1,0,0.9-0.4c-0.4-1.6-2.3-4.1-4.1-2.6c-0.1,0-0.1,0.1-0.1,0.2c0.4,1.5,2.2,3.6,3.8,2.6
			c0.1-0.1,0.2-0.2,0.2-0.3c-0.4-1.6-2.9-3.8-4.7-2.9c-0.1,0.1-0.2,0.2-0.2,0.3c0,1.2,1,1.8,2,2.1c0.2,0.1,1.1-0.2,0.8-0.5
			c-0.9-1-2.7-2.8-4.2-1.9c-0.7,0.4-0.8,1.3-1.1,2c-0.6,2-1.2,4-1.8,5.9c0.3-0.1,0.7-0.1,1-0.2c-0.2-0.8-0.3-1.7-0.5-2.5
			c-0.1-0.4-1.1-0.1-1,0.3c0.1,0.7,0.3,1.2,0.7,1.9c0.2,0.3,1,0,1-0.3c0.1-1.8,0.3-3.6,0.4-5.4c-0.3,0.1-0.7,0.1-1,0.2
			c0.3,1.7,0.6,3.4,1.2,5.1c0.1,0.4,1,0.1,1-0.3c0-2.2,0-4.3,0-6.5c-0.3,0.1-0.7,0.2-1,0.3c0.2,2.1,0.6,4.2,1,6.4
			c0.1,0.4,1.1,0.1,1-0.3c-0.1-2-0.1-4-0.2-5.9c-0.3,0.1-0.7,0.2-1,0.3c0.5,1.7,0.9,3.4,1.4,5.1c0.1,0.4,1.1,0.1,1-0.3
			c0-1.6-0.1-3.1-0.1-4.7c-0.3,0.1-0.7,0.2-1,0.3c0.2,1.5,0.7,2.8,1.4,4.1c0.2,0.3,1.1,0.1,1-0.3c-0.2-1.6-0.3-3.1-0.5-4.7
			c-0.3,0.1-0.7,0.2-1,0.3c0.4,1.5,0.9,3,1.3,4.5c0.1,0.4,1.1,0.1,1-0.3c-0.2-1.2-0.3-2.4-0.2-3.6c-0.3,0.1-0.6,0.2-0.9,0.3
			c0.6,0.3,1.1,0.7,1.5,1.2c0.2,0.3,1.2-0.1,1-0.4c-0.4-0.5-0.2-0.4-0.8-0.6c-0.2-0.1-1.1,0-0.9,0.4c0.3,0.8,0.7,1.2,1.3,1.8
			c0.2,0.2,1.1,0,1-0.3c-0.4-1.6-1.6-2.4-3.2-2.3C98.3,152.4,97.6,153,98.3,153L98.3,153z"/>
	</g>
</g>
<g>
	<g>
		<path d="M700.8,184.2c-0.5-0.1,9.2-33.4,9.9-36.8c0.4-1.8,0.5-6,2-7.2c1-0.8,6.9-0.5,8-0.7c5.8-1,11.3-2.8,16.9-4.4
			c28.4-8.1,58-11.2,87.3-14.1c13.4-1.3,26.8-1.6,40.1-3c0.1,0,4.9-0.6,4.8-0.7c1.2,0.9,1-1.6,0,0.5c-0.9,1.8-7.5,3.8-9.5,4.6
			c-5.9,2.2-12,3.8-17.8,6.1c-13.6,5.3-27.6,8.9-41.4,13.6c-12.5,4.3-25.2,8.5-37.7,12.9c-7.2,2.5-14.5,4.5-21.8,6.9
			c-6.2,2.1-12.8,3.3-18.8,5.7c-5.1,2-8.1,4.7-12.3,8.3c-5,4.2-10.2,7.9-14.6,12.7c-0.4,0.5-0.1,0.8,0.5,0.8c0.2,0,0.4,0,0.6,0
			c0.8,0,2.4-1.2,0.9-1.3c2.4,0,5.9-5.1,7.6-6.5c2.6-2.3,5.6-4.2,8.3-6.5c7.2-6.4,15.1-7.6,23.9-10.5c14.9-4.9,30.1-9,44.8-14.3
			c16.8-6.1,33.8-11.1,50.7-16.7c7.6-2.5,15-5.8,22.6-8.3c6.5-2.2,12.7-4.6,18.2-8.6c0.8-0.6,0.2-1-0.5-1
			c-9.5,0.5-18.9,2.4-28.4,2.8c-9.2,0.4-18.2,1.1-27.3,2c-19.5,2-39,4.2-58.2,8.1c-9.7,2-19.3,4.6-28.8,7.3
			c-5.8,1.6-11.2,2.2-17.1,3.1c-1,0.1-1.8-0.1-2.7,0.5c-1.6,1.1-1.6,4.6-2,6.2c-0.9,4.2-1.9,8.3-2.9,12.5
			c-2.2,8.7-7.3,17.9-7.7,26.7c0,0.3,0.2,0.4,0.4,0.5s0.5,0.1,0.7,0.2C700.1,185.6,702,184.5,700.8,184.2L700.8,184.2z"/>
	</g>
	<g>
		<path d="M871.2,116.1c-2,0.8-3.2,2.3-4.7,3.8c-3.2,3.2-6.8,6-10.2,8.9c-6.3,5.3-13.2,9.9-19.7,15c-15.4,12.1-30.7,24.2-47.2,34.7
			c-14.8,9.4-30.9,16-44.8,26.9c-1.1,0.8-2.7,2.7-4.3,2c-1.4-0.6-3-5.4-3.7-7c-1.7-3.9-3.2-8-4.6-12.1c-2.4-7.1-4.3-15.1-9.1-21
			c-0.4-0.5-1.8-0.1-2.1,0.4c-0.1,0.2-0.2,0.4-0.3,0.5c-0.5,0.9,1.7,0.7,2.1,0c0.1-0.2,0.2-0.4,0.3-0.5c-0.7,0.1-1.4,0.3-2.1,0.4
			c5.9,7.2,7.9,18.1,11.1,26.8c1.2,3.2,3.8,14,8.4,14.3c4,0.3,9-5.7,11.8-7.8c8.9-6.5,18.8-10.9,28.4-16.3
			c16.7-9.4,32.2-20.9,47.3-32.7c7.7-6,15.4-11.9,23.2-17.7c3.8-2.8,7.3-5.9,10.9-8.9c2.8-2.3,6.9-7.7,10.3-9
			C873.6,116.5,872.3,115.7,871.2,116.1L871.2,116.1z"/>
	</g>
	<g>
		<path d="M697.8,189.2c9.3-4.5,19.9-6,28.8-11.2c1.3-0.8-0.7-1.1-1.4-0.7c-8.7,5-19.2,6.5-28.3,10.9
			C695.5,189,696.8,189.7,697.8,189.2L697.8,189.2z"/>
	</g>
	<g>
		<path d="M698.4,188.6c0.9-4.1,1.9-8.2,2.8-12.3c0.2-0.8-2.1-0.5-2.2,0.3c-0.9,4.1-1.9,8.2-2.8,12.3
			C696,189.7,698.3,189.4,698.4,188.6L698.4,188.6z"/>
	</g>
	<g>
		<path d="M872.6,115.1c-7.8-1.4-15.8-0.3-23.7-0.1c-9.4,0.2-18.9-0.5-28.3-0.9c-19.2-0.7-38.4-1.8-57.5-3.1
			c-18.7-1.3-37.4-2.8-56.2-3.2c-7.6-0.2-15.4-0.9-23,0.1c-4.9,0.6-11,1-15.4,3.2c-0.3,0.2-1.1,0.7-0.4,1c9.1,5.3,17,11.7,25.5,17.9
			c3,2.2,6.1,3.8,9.3,5.6c2.5,1.4,4.4,3.2,7.2,4c0.7,0.2,2.6-0.9,1.4-1.2c-3.4-0.9-9.1-4.9-12.1-6.7c-4.6-2.9-8.7-6.5-12.9-9.9
			c-3.2-2.6-6.7-4.8-10.2-7c-1.9-1.2-5.7-2-3-3.8c0.7-0.5,2.6-0.4,3.5-0.6c20.9-3.7,42.9-0.6,64,0.5c21.2,1.1,42.4,2.7,63.6,3.8
			c11.2,0.6,22.4,0.9,33.6,1.3c11,0.4,22.6-1.7,33.4,0.3C871.9,116.4,873.8,115.3,872.6,115.1L872.6,115.1z"/>
	</g>
	<g>
		<path d="M711.5,139.1c-1.4,1.5-1.6,2-2.1,4.6c-0.5,2.2-1,4.3-1.5,6.5c-1,4.4-1.9,9-3.3,13.3c-2.9,8.9-8.3,17.1-9.5,26.5
			c-0.1,0.9,1.5,0.4,1.8,0.2c1.9-1,3.7-3.1,5.7-3.9c1.4-0.6,0.1-1.4-0.9-0.9c-2.3,1-4,3-6.2,4.2c0.6,0.1,1.2,0.1,1.8,0.2
			c1.2-9.4,6.6-17.6,9.5-26.5c1.4-4.3,2.3-8.8,3.3-13.3c0.8-3.6,2.4-7.6,2.5-11.3c0-0.2,0-0.3-0.2-0.4c-0.2-0.1-0.3-0.1-0.5-0.2
			c-0.5-0.2-1.4-0.1-1.8,0.4c-0.1,0.1-0.3,0.3-0.4,0.4C708.8,139.7,711,139.7,711.5,139.1L711.5,139.1z"/>
	</g>
	<g>
		<path d="M688.6,202.9c-0.1-0.1-0.1-0.3-0.2-0.4c-0.3-0.6-1.6-0.3-2,0.1c-7.9,7.8-15.2,17.6-20.6,27.3c-4.7,8.4-9.6,19.7-9.4,29.6
			c0.1,6,4.6,12.6,11.3,11.8c6.3-0.7,9.9-7.9,9.9-13.6c0-5.6-3.3-9.8-9.1-8.5c-7.4,1.7-10.6,10.6-13.6,16.6
			c-5.1,10.2-7.9,21.3-10.7,32.3c-1.5,6.1-3.4,12.4-3.5,18.6c-0.1,5.4,2.2,10.4,2.1,15.8c0,0.9,2.2,0.5,2.2-0.3
			c0.2-6.6-2.5-12.5-1.8-19.3c0.8-7.5,3.1-15,5-22.2c2.2-8.2,4.4-16.3,8.2-23.9c1.5-3,3-5.8,4.7-8.7c0.7-1.2,1.3-3.1,2.4-4
			c3.4-0.7,6.7-1.4,10.1-2.1c0.7,0.9,1.1,2,1.3,3.1c0.7,2.7,0.3,5.7-0.7,8.3c-2.4,6.2-9.2,8.3-13.5,2.6c-4.6-6.1-1-16,1.2-22.5
			c5-14.8,15-29.7,26.2-40.6c-0.7,0-1.3,0.1-2,0.1c0.1,0.1,0.1,0.3,0.2,0.4C686.8,204.3,689,203.5,688.6,202.9L688.6,202.9z"/>
	</g>
</g>
<ellipse class="st15" cx="736.3" cy="498.1" rx="928.1" ry="81.6"/>
</svg>
