<?xml version="1.0" encoding="utf-8"?>
<!-- Generator: Adobe Illustrator 22.0.0, SVG Export Plug-In . SVG Version: 6.00 Build 0)  -->
<svg version="1.1" id="Layer_1" xmlns="http://www.w3.org/2000/svg" xmlns:xlink="http://www.w3.org/1999/xlink" x="0px" y="0px"
	 viewBox="0 0 1483.2 438.3" style="enable-background:new 0 0 1483.2 438.3;" xml:space="preserve">
<style type="text/css">
	.st0{fill:none;}
	.st1{fill:#60B7B9;}
	.st2{fill:#D27117;}
	.st3{fill:#C36515;}
	.st4{fill:#F6901B;}
	.st5{fill:#E47E17;}
	.st6{fill:#501627;}
	.st7{fill:#F56A82;}
	.st8{fill:#FFFFFF;}
	.st9{fill:#E7E7E7;}
	.st10{fill:#6B390B;}
	.st11{enable-background:new    ;}
	.st12{fill:#ECECEC;}
</style>
<g>
	<path class="st0" d="M893.1,679.1c0.1,0.1,0.1,0.2,0.2,0.3C893.2,679.3,893.2,679.2,893.1,679.1z"/>
	<path class="st1" d="M893.3,679.5c0.9,1.7,1.7,3.4,2.5,5.1C895,682.8,894.2,681.1,893.3,679.5z"/>
	<path class="st1" d="M893.1,679.1c-0.9-1.8-1.9-3.6-2.9-5.4l0,0C891.2,675.5,892.2,677.3,893.1,679.1z"/>
	<path class="st2" d="M554.8,586.6l-22.1-24.4c0,0-58.7,64-30.9,172.2c24.8,95.6,85.4,42.7,65.5-14.5
		C547.6,663.2,554.8,586.6,554.8,586.6z"/>
	<path class="st3" d="M567.4,720.4c-19.8-57.2-12.6-133.8-12.6-133.8l-33.5-8.4C510.2,614.8,546.4,688,551,708.9
		c4.6,20.6,10.7,41.9,2.3,59.1c-8.4,17.5-34.7,6.1-34.7,6.1C546.4,810.7,583.4,766.8,567.4,720.4z"/>
	<path class="st3" d="M985.8,586.6l22.1-24.4c0,0,58.7,64,30.9,172.2c-24.8,95.6-85.4,42.7-65.5-14.5
		C993,663.2,985.8,586.6,985.8,586.6z"/>
	<path class="st2" d="M973.2,720.4c-4.6,14.5-5,28.2-1.5,40c4.6,15.6,24,18.7,27.1,0c1.1-6.9,3.8-23.2,0.4-33.2
		C993.4,710.1,979.3,701.3,973.2,720.4z"/>
	<path class="st2" d="M686.3,767.6c0,0-11.1,138.3-30.9,147.5c-20.2,9.5-13,15.2,35.4,15.2s57.5-4.6,60.2-44.6
		c2.3-40-12.2-104.4-12.2-104.4L686.3,767.6z"/>
	<path class="st2" d="M882.9,915.5C862.7,905.9,852,768,852,768l-52.2,13.7c0,0-14.5,64.4-12.2,104.4s11.8,44.6,60.2,44.6
		C895.8,930.7,902.7,925,882.9,915.5z"/>
	<path class="st3" d="M740.8,875.8c-7.6,40.8-38.5,58.3-84.2,53c7.6,1.1,18.7,1.9,34.3,1.9c48.4,0,57.5-4.6,60.2-44.6
		c2.3-40-12.2-104.4-12.2-104.4L686.6,768c0,0,8.4,8.4,26.7,16.4C731.2,792.4,748.4,835.4,740.8,875.8z"/>
	<path class="st3" d="M853.2,849.2c3.4,39.6,30.5,83.1-23.6,81.2l0,0c5.3,0.4,11.1,0.4,17.5,0.4c48.4,0,55.3-5.7,35.4-15.2
		c-20.2-9.5-30.9-147.5-30.9-147.5l-52.2,13.7c0,0,14.5,5,26.3,5C837.9,786.3,849.7,809.5,853.2,849.2z"/>
	<path class="st4" d="M1009.4,476.5c8.8,11.4,21.7,18.3,21.7,18.3c-4.6-55.3-77-118.1-77-118.1c24.4,8.4,24.8,0.8,24.8,0.8
		c-70.5-71.3-152.8-67.1-152.8-67.1c8.4-0.8,14.1-11.4,14.1-11.4c-35.1-11.4-64,6.1-64,6.1s-34.7-9.1-47.3-26.3
		c0,0-11.1,22.1,9.5,33.2c0,0-42.3-17.1-97.6,8c0,0,15.6,11.1,33.2,11.1c0,0-77,1.5-135.3,88c0,0,11.8,3.4,24-4.2
		c-14.1,14.5-38.5,45.3-45,89.2c0,0,9.1-1.5,16-12.2c-8.4,21-22.9,72-2.7,140.6c0,0,6.1-0.4,7.6-30.1c0,0,16.8,112.8,80.4,161.2
		c0,0,7.6-14.1-1.5-35.4c0,0,41.5,38.9,46.1,64.8c0,0,9.1-16,2.7-32.8c0,0,35.1,25.2,107.8,25.2c73.2,0,115.1-29,115.1-29
		c-4.2,14.5,8.8,29,8.8,29c1.1-24,33.2-57.2,33.2-57.2c-12.2,11.1-1.5,34.3-1.5,34.3c22.9-19.4,38.9-57.5,46.1-77.4
		c-1.5,13.7,6.9,23.2,6.9,23.2c30.9-33.2,29-113.2,29-113.2c1.9,19.8,19.1,36.6,19.1,36.6C1045.2,556.1,1009.4,476.5,1009.4,476.5z"
		/>
	<path class="st5" d="M617.3,726.8c0,0,41.5,38.9,46.1,64.8c0,0,9.1-16,2.7-32.8c0,0,35.1,25.2,107.8,25.2c73.2,0,115.1-29,115.1-29
		c-4.2,14.5,8.8,29,8.8,29c1.1-24,33.2-57.2,33.2-57.2c-12.2,11.1-1.5,34.3-1.5,34.3c22.9-19.4,38.9-57.5,46.1-77.4
		c-1.5,13.7,6.9,23.2,6.9,23.2c30.9-33.2,29-113.2,29-113.2c1.9,19.8,19.1,36.6,19.1,36.6c14.1-74.3-21.7-153.6-21.7-153.6
		c8.8,11.4,21.7,18.3,21.7,18.3c-4.6-55.3-77-118.1-77-118.1c24.4,8.4,24.8,0.8,24.8,0.8c-70.5-71.3-152.8-67.1-152.8-67.1
		s8.4-0.8,18.7,10.7c10.3,11.8,22.9,27.8,48.4,36.2c25.5,8.4,89.2,40.8,107.5,93.7c0,0-15.2-4.6-22.1-13.7c0,0,56,112.8,14.5,218.3
		c0,0-10.3-10.7-8-25.5c0,0-43.4,125.4-193.2,137.9C671.4,777.9,617.3,726.8,617.3,726.8z"/>
	<g>
		<path class="st6" d="M779.2,607.2c51.8,0,56.8-32,93.4-16c36.6,16,27.4,120.8-77.4,127.7C690.5,725.7,644,630.4,684,598
			C726.7,563,736.6,607.2,779.2,607.2z"/>
		<path class="st7" d="M694.6,683.4c21.3,21.7,55.6,38.1,100.6,35.1c36.6-2.3,61.4-16.8,76.6-35.1c-0.4-0.4-16-21-89.9-21
			C708.4,662.4,694.6,683.4,694.6,683.4z"/>
		<path class="st8" d="M760.6,604.1c0.8,10.7,3.8,26.3,11.4,26.3c7.2,0,8.8-13,8.8-23.2c-0.4,0-1.1,0-1.5,0
			C772.4,607.2,766.3,606,760.6,604.1z"/>
		<path class="st8" d="M779.2,607.2L779.2,607.2c0,9.1,0.8,21.3,7.6,21.3c6.9,0,9.5-13,10.3-22.9
			C791.8,606.4,786.1,607.2,779.2,607.2z"/>
	</g>
	<g>
		
			<ellipse transform="matrix(0.7071 -0.7071 0.7071 0.7071 -91.3964 610.5479)" class="st8" cx="691.3" cy="415.6" rx="68.2" ry="68.2"/>
		<path class="st9" d="M759.6,411.5c-0.4-3.8-0.8-7.6-1.5-11.1c0,1.1,0.4,2.3,0.4,3c2.3,37.7-26.7,69.7-64.4,72
			c-33.9,1.9-63.3-21-70.5-53c3.8,36.2,35.1,63.3,71.6,61C732.9,481.6,761.9,449.2,759.6,411.5z"/>
		<path class="st4" d="M715.8,381c0.8,14.9-10.3,27.4-25.2,28.2c-14.9,0.8-27.4-10.3-28.2-25.2c-0.8-14.9,10.3-27.4,25.2-28.2
			C702.5,355.1,715,366.1,715.8,381z"/>
		<path class="st10" d="M704,381.8c0.4,8-5.7,15.2-13.7,15.6s-15.2-5.7-15.6-13.7s5.7-15.2,13.7-15.6
			C696.4,367.3,703.6,373.4,704,381.8z"/>
		<path class="st8" d="M707.4,370.3c0.4,4.6-3.4,8.8-8,8.8c-4.6,0.4-8.8-3.4-8.8-8c-0.4-4.6,3.4-8.8,8-8.8S707,365.8,707.4,370.3z"
			/>
		
			<ellipse transform="matrix(0.7071 -0.7071 0.7071 0.7071 -42.592 728.4419)" class="st8" cx="858" cy="415.6" rx="68.2" ry="68.2"/>
		<path class="st9" d="M926.4,411.5c-0.4-3.8-0.8-7.6-1.5-11.1c0,1.1,0.4,2.3,0.4,3c2.3,37.7-26.7,69.7-64.4,72
			c-33.9,1.9-63.3-21-70.5-53c3.8,36.2,35.1,63.3,71.6,61C899.7,481.6,928.6,449.2,926.4,411.5z"/>
		<path class="st4" d="M882.5,381c0.8,14.9-10.3,27.4-25.2,28.2c-14.9,0.8-27.4-10.3-28.2-25.2c-0.8-14.9,10.3-27.4,25.2-28.2
			C869.2,355.1,881.8,366.1,882.5,381z"/>
		<path class="st10" d="M870.7,381.8c0.4,8-5.7,15.2-13.7,15.6s-15.2-5.7-15.6-13.7c-0.4-8,5.7-15.2,13.7-15.6
			C863.1,367.3,870.3,373.4,870.7,381.8z"/>
		<path class="st8" d="M874.2,370.3c0.4,4.6-3.4,8.8-8,8.8c-4.6,0.4-8.8-3.4-8.8-8c-0.4-4.6,3.4-8.8,8-8.8S873.8,365.8,874.2,370.3z
			"/>
	</g>
</g>
<g class="st11">
	<path class="st4" d="M357.2,91h-18.6v28.3c0,4-1,7.1-2.9,9.2c-1.9,2.1-4.3,3.1-7.2,3.1c-3,0-5.5-1-7.4-3.1
		c-1.9-2.1-2.8-5.1-2.8-9.1V42.4c0-4.5,1-7.6,3.1-9.5s5.3-2.9,9.8-2.9h26c7.7,0,13.6,0.6,17.7,1.8c4.1,1.1,7.6,3,10.6,5.7
		c3,2.6,5.2,5.9,6.8,9.7c1.5,3.8,2.3,8.1,2.3,12.9c0,10.2-3.1,17.9-9.4,23.2C378.9,88.4,369.6,91,357.2,91z M352.3,45.2h-13.6v30.6
		h13.6c4.8,0,8.8-0.5,12-1.5c3.2-1,5.7-2.6,7.3-4.9c1.7-2.3,2.5-5.3,2.5-8.9c0-4.4-1.3-8-3.9-10.8C367.3,46.7,361.3,45.2,352.3,45.2
		z"/>
	<path class="st4" d="M438.8,87.2h-7.1v32.1c0,4.2-0.9,7.3-2.8,9.3c-1.9,2-4.3,3-7.3,3c-3.2,0-5.7-1-7.5-3.1
		c-1.8-2.1-2.7-5.2-2.7-9.2V42.4c0-4.4,1-7.5,2.9-9.5c2-2,5.1-2.9,9.5-2.9h32.9c4.5,0,8.4,0.2,11.7,0.6c3.2,0.4,6.1,1.2,8.7,2.4
		c3.1,1.3,5.9,3.2,8.3,5.7c2.4,2.5,4.2,5.3,5.5,8.6c1.2,3.3,1.9,6.7,1.9,10.3c0,7.5-2.1,13.4-6.3,17.9c-4.2,4.5-10.6,7.6-19.1,9.5
		c3.6,1.9,7,4.7,10.3,8.5c3.3,3.7,6.2,7.7,8.8,11.9c2.6,4.2,4.6,8,6,11.4c1.4,3.4,2.1,5.7,2.1,7c0,1.3-0.4,2.6-1.3,3.9
		c-0.8,1.3-2,2.3-3.4,3.1c-1.5,0.8-3.1,1.1-5,1.1c-2.3,0-4.2-0.5-5.7-1.6c-1.5-1.1-2.9-2.4-4-4.1c-1.1-1.6-2.6-4-4.5-7.2l-8.1-13.5
		c-2.9-5-5.5-8.7-7.8-11.3c-2.3-2.6-4.6-4.4-7-5.3C445.3,87.7,442.3,87.2,438.8,87.2z M450.4,45.2h-18.7v27.5h18.1
		c4.9,0,9-0.4,12.3-1.3c3.3-0.8,5.9-2.3,7.6-4.3c1.8-2,2.6-4.8,2.6-8.4c0-2.8-0.7-5.2-2.1-7.3c-1.4-2.1-3.4-3.7-5.9-4.7
		C462,45.7,457.3,45.2,450.4,45.2z"/>
	<path class="st4" d="M577.9,45.6h-45.6v24.6h42c3.1,0,5.4,0.7,6.9,2.1c1.5,1.4,2.3,3.2,2.3,5.5c0,2.3-0.8,4.1-2.3,5.6
		c-1.5,1.4-3.8,2.1-7,2.1h-42v28.4h47.2c3.2,0,5.6,0.7,7.2,2.2c1.6,1.5,2.4,3.4,2.4,5.9c0,2.4-0.8,4.3-2.4,5.8
		c-1.6,1.5-4,2.2-7.2,2.2h-55.1c-4.4,0-7.6-1-9.5-2.9c-1.9-2-2.9-5.1-2.9-9.5V42.4c0-2.9,0.4-5.3,1.3-7.1c0.9-1.8,2.2-3.2,4.1-4
		c1.8-0.8,4.2-1.3,7.1-1.3h53.5c3.2,0,5.6,0.7,7.2,2.1s2.4,3.3,2.4,5.6c0,2.4-0.8,4.3-2.4,5.7S581.1,45.6,577.9,45.6z"/>
	<path class="st4" d="M696.5,89.3v19.2c0,2.5-0.2,4.6-0.8,6.1c-0.5,1.5-1.4,2.9-2.8,4.1c-1.3,1.2-3.1,2.4-5.2,3.5
		c-6,3.3-11.9,5.7-17.5,7.2s-11.7,2.3-18.3,2.3c-7.7,0-14.7-1.2-21-3.5c-6.3-2.4-11.7-5.8-16.2-10.3c-4.5-4.5-7.9-10-10.3-16.4
		c-2.4-6.4-3.6-13.6-3.6-21.5c0-7.8,1.2-14.9,3.5-21.4c2.3-6.5,5.7-11.9,10.2-16.4c4.5-4.5,10-7.9,16.4-10.3
		c6.5-2.4,13.8-3.6,22-3.6c6.7,0,12.7,0.9,17.9,2.7c5.2,1.8,9.4,4.1,12.6,6.8c3.2,2.7,5.7,5.6,7.3,8.7s2.5,5.8,2.5,8.1
		c0,2.5-0.9,4.7-2.8,6.5c-1.9,1.8-4.2,2.7-6.8,2.7c-1.5,0-2.9-0.3-4.2-1c-1.3-0.7-2.5-1.6-3.4-2.9c-2.5-3.9-4.6-6.9-6.3-8.9
		c-1.7-2-4.1-3.7-7-5c-2.9-1.4-6.7-2-11.2-2c-4.7,0-8.9,0.8-12.6,2.4c-3.7,1.6-6.8,4-9.4,7c-2.6,3.1-4.6,6.8-6,11.3
		c-1.4,4.5-2.1,9.4-2.1,14.8c0,11.7,2.7,20.8,8.1,27.1c5.4,6.3,12.9,9.5,22.5,9.5c4.7,0,9.1-0.6,13.2-1.8c4.1-1.2,8.3-3,12.5-5.3
		V92.7h-15.7c-3.8,0-6.6-0.6-8.6-1.7s-2.9-3.1-2.9-5.8c0-2.2,0.8-4.1,2.4-5.5c1.6-1.5,3.8-2.2,6.6-2.2h23c2.8,0,5.2,0.2,7.2,0.8
		c2,0.5,3.5,1.6,4.7,3.3C695.9,83.3,696.5,85.9,696.5,89.3z"/>
	<path class="st4" d="M716,88.6V40.5c0-4.1,0.9-7.2,2.8-9.2s4.3-3.1,7.3-3.1c3.1,0,5.6,1,7.5,3.1s2.8,5.1,2.8,9.2v49.2
		c0,5.6,0.6,10.3,1.9,14c1.2,3.8,3.5,6.7,6.7,8.7c3.2,2.1,7.6,3.1,13.4,3.1c7.9,0,13.5-2.1,16.8-6.3c3.3-4.2,4.9-10.6,4.9-19.1V40.5
		c0-4.1,0.9-7.2,2.7-9.2c1.8-2,4.3-3,7.3-3s5.5,1,7.4,3c1.9,2,2.8,5.1,2.8,9.2v48.1c0,7.8-0.8,14.3-2.3,19.6
		c-1.5,5.2-4.4,9.8-8.6,13.8c-3.6,3.4-7.9,5.8-12.7,7.4c-4.8,1.5-10.5,2.3-16.9,2.3c-7.7,0-14.3-0.8-19.9-2.5
		c-5.5-1.7-10.1-4.2-13.6-7.7c-3.5-3.5-6.1-7.9-7.7-13.4C716.8,102.7,716,96.2,716,88.6z"/>
	<path class="st4" d="M848.4,40.4l39,58.9V39.9c0-3.9,0.8-6.8,2.5-8.7c1.7-1.9,3.9-2.9,6.7-2.9c2.9,0,5.2,1,6.9,2.9
		c1.7,1.9,2.5,4.8,2.5,8.7v78.7c0,8.8-3.6,13.2-10.9,13.2c-1.8,0-3.5-0.3-4.9-0.8c-1.5-0.5-2.8-1.4-4.1-2.5c-1.3-1.1-2.5-2.5-3.5-4
		c-1.1-1.5-2.2-3.1-3.3-4.7l-38-58.3v58.6c0,3.8-0.9,6.7-2.7,8.7c-1.8,2-4,2.9-6.8,2.9c-2.9,0-5.2-1-6.9-3c-1.7-2-2.6-4.9-2.6-8.6
		V42.9c0-3.3,0.4-5.8,1.1-7.7c0.9-2,2.3-3.7,4.3-5c2-1.3,4.2-1.9,6.5-1.9c1.8,0,3.4,0.3,4.7,0.9c1.3,0.6,2.4,1.4,3.4,2.4
		c1,1,2,2.3,3,3.9C846.2,37,847.3,38.7,848.4,40.4z"/>
	<path class="st4" d="M993.1,46.7H971v72.7c0,4.2-0.9,7.3-2.8,9.3c-1.9,2-4.3,3-7.2,3c-3,0-5.4-1-7.3-3.1c-1.9-2-2.8-5.1-2.8-9.3
		V46.7h-22.1c-3.5,0-6-0.8-7.7-2.3c-1.7-1.5-2.5-3.5-2.5-6c0-2.6,0.9-4.6,2.6-6.1c1.8-1.5,4.3-2.3,7.6-2.3h64.4
		c3.5,0,6.1,0.8,7.8,2.3c1.7,1.5,2.6,3.6,2.6,6.1c0,2.5-0.9,4.5-2.6,6C999.1,45.9,996.5,46.7,993.1,46.7z"/>
	<path class="st4" d="M1070.6,118.6l-4.8-12.6h-40.7l-4.8,12.8c-1.9,5-3.5,8.4-4.8,10.1c-1.3,1.8-3.5,2.6-6.5,2.6
		c-2.5,0-4.8-0.9-6.8-2.8c-2-1.9-2.9-4-2.9-6.3c0-1.4,0.2-2.8,0.7-4.2c0.5-1.5,1.2-3.5,2.3-6.1l25.6-64.9c0.7-1.9,1.6-4.1,2.6-6.7
		c1-2.6,2.1-4.8,3.3-6.5c1.2-1.7,2.7-3.1,4.6-4.2c1.9-1.1,4.2-1.6,7-1.6c2.8,0,5.2,0.5,7.1,1.6c1.9,1.1,3.4,2.4,4.6,4.1
		c1.2,1.7,2.1,3.5,2.9,5.4c0.8,1.9,1.8,4.5,3,7.7l26.1,64.5c2,4.9,3.1,8.5,3.1,10.7c0,2.3-1,4.4-2.9,6.4c-1.9,1.9-4.3,2.9-7,2.9
		c-1.6,0-3-0.3-4.1-0.9c-1.1-0.6-2.1-1.3-2.9-2.3c-0.8-1-1.6-2.5-2.5-4.5C1072,122,1071.3,120.2,1070.6,118.6z M1030.5,90.9h29.9
		l-15.1-41.3L1030.5,90.9z"/>
	<path class="st4" d="M1183.1,100c0,6-1.6,11.5-4.7,16.3c-3.1,4.8-7.7,8.6-13.7,11.3s-13.1,4.1-21.4,4.1c-9.9,0-18-1.9-24.4-5.6
		c-4.5-2.7-8.2-6.3-11.1-10.7c-2.8-4.5-4.3-8.8-4.3-13.1c0-2.5,0.9-4.6,2.6-6.3c1.7-1.8,3.9-2.6,6.5-2.6c2.1,0,3.9,0.7,5.4,2
		c1.5,1.4,2.7,3.4,3.8,6.1c1.3,3.2,2.6,5.8,4.1,8c1.5,2.1,3.6,3.9,6.2,5.3c2.7,1.4,6.2,2.1,10.6,2.1c6,0,10.9-1.4,14.6-4.2
		s5.6-6.3,5.6-10.5c0-3.3-1-6-3-8.1c-2-2.1-4.6-3.6-7.8-4.7c-3.2-1.1-7.5-2.3-12.9-3.5c-7.2-1.7-13.2-3.6-18-5.9
		c-4.8-2.3-8.7-5.3-11.5-9.2c-2.8-3.9-4.3-8.7-4.3-14.5c0-5.5,1.5-10.4,4.5-14.7c3-4.3,7.3-7.6,13-9.9c5.7-2.3,12.4-3.4,20.1-3.4
		c6.1,0,11.4,0.8,15.9,2.3c4.5,1.5,8.2,3.5,11.2,6.1c3,2.5,5.1,5.2,6.5,7.9c1.4,2.8,2,5.5,2,8.1c0,2.4-0.9,4.6-2.6,6.5
		c-1.7,1.9-3.8,2.9-6.4,2.9c-2.3,0-4.1-0.6-5.3-1.7c-1.2-1.2-2.5-3.1-3.9-5.7c-1.8-3.8-4-6.7-6.5-8.8c-2.5-2.1-6.6-3.2-12.3-3.2
		c-5.2,0-9.4,1.1-12.7,3.4c-3.2,2.3-4.8,5.1-4.8,8.3c0,2,0.5,3.7,1.6,5.2c1.1,1.5,2.6,2.7,4.5,3.8c1.9,1,3.8,1.9,5.8,2.5
		c2,0.6,5.2,1.5,9.7,2.6c5.6,1.3,10.7,2.8,15.3,4.4c4.6,1.6,8.5,3.5,11.7,5.8s5.7,5.1,7.5,8.6C1182.2,90.6,1183.1,94.9,1183.1,100z"
		/>
</g>
<g class="st11">
	<path class="st4" d="M360.6,171.6h-39.9v25.6h33.4c3.1,0,5.4,0.7,6.9,2.1c1.5,1.4,2.3,3.2,2.3,5.6s-0.8,4.2-2.3,5.5
		c-1.5,1.4-3.8,2-6.9,2h-33.4v32.9c0,4.2-0.9,7.3-2.8,9.3c-1.9,2-4.3,3-7.3,3c-3,0-5.4-1-7.3-3.1c-1.9-2-2.8-5.1-2.8-9.3v-76.9
		c0-2.9,0.4-5.3,1.3-7.1c0.9-1.8,2.2-3.2,4.1-4c1.8-0.8,4.2-1.3,7.1-1.3h47.8c3.2,0,5.6,0.7,7.2,2.1c1.6,1.4,2.4,3.3,2.4,5.6
		c0,2.4-0.8,4.3-2.4,5.7C366.2,170.9,363.8,171.6,360.6,171.6z"/>
	<path class="st4" d="M412.5,213.2h-7.1v32.1c0,4.2-0.9,7.3-2.8,9.3c-1.9,2-4.3,3-7.3,3c-3.2,0-5.7-1-7.5-3.1
		c-1.8-2.1-2.7-5.2-2.7-9.2v-76.9c0-4.4,1-7.5,2.9-9.5c2-2,5.1-2.9,9.5-2.9h32.9c4.5,0,8.4,0.2,11.7,0.6c3.2,0.4,6.1,1.2,8.7,2.4
		c3.1,1.3,5.9,3.2,8.3,5.7c2.4,2.5,4.2,5.3,5.5,8.6c1.2,3.3,1.9,6.7,1.9,10.3c0,7.5-2.1,13.4-6.3,17.9c-4.2,4.5-10.6,7.6-19.1,9.5
		c3.6,1.9,7,4.7,10.3,8.5c3.3,3.7,6.2,7.7,8.8,11.9c2.6,4.2,4.6,8,6,11.4c1.4,3.4,2.1,5.7,2.1,7c0,1.3-0.4,2.6-1.3,3.9
		c-0.8,1.3-2,2.3-3.4,3.1c-1.5,0.8-3.1,1.1-5,1.1c-2.3,0-4.2-0.5-5.7-1.6c-1.5-1.1-2.9-2.4-4-4.1c-1.1-1.6-2.6-4-4.5-7.2l-8.1-13.5
		c-2.9-5-5.5-8.7-7.8-11.3c-2.3-2.6-4.6-4.4-7-5.3C419,213.7,416,213.2,412.5,213.2z M424.1,171.2h-18.7v27.5h18.1
		c4.9,0,9-0.4,12.3-1.3c3.3-0.8,5.9-2.3,7.6-4.3c1.8-2,2.6-4.8,2.6-8.4c0-2.8-0.7-5.2-2.1-7.3c-1.4-2.1-3.4-3.7-5.9-4.7
		C435.7,171.7,431,171.2,424.1,171.2z"/>
	<path class="st4" d="M551.6,171.6H506v24.6h42c3.1,0,5.4,0.7,6.9,2.1c1.5,1.4,2.3,3.2,2.3,5.5c0,2.3-0.8,4.1-2.3,5.6
		c-1.5,1.4-3.8,2.1-7,2.1h-42v28.4h47.2c3.2,0,5.6,0.7,7.2,2.2c1.6,1.5,2.4,3.4,2.4,5.9c0,2.4-0.8,4.3-2.4,5.8
		c-1.6,1.5-4,2.2-7.2,2.2h-55.1c-4.4,0-7.6-1-9.5-2.9c-1.9-2-2.9-5.1-2.9-9.5v-75.2c0-2.9,0.4-5.3,1.3-7.1c0.9-1.8,2.2-3.2,4.1-4
		c1.8-0.8,4.2-1.3,7.1-1.3h53.5c3.2,0,5.6,0.7,7.2,2.1s2.4,3.3,2.4,5.6c0,2.4-0.8,4.3-2.4,5.7S554.8,171.6,551.6,171.6z"/>
	<path class="st4" d="M664.1,224.4c0,3.2-0.8,6.6-2.4,10.3c-1.6,3.7-4,7.3-7.4,10.9c-3.4,3.6-7.7,6.5-12.9,8.7
		c-5.2,2.2-11.3,3.3-18.3,3.3c-5.3,0-10.1-0.5-14.4-1.5c-4.3-1-8.2-2.6-11.8-4.7c-3.5-2.1-6.8-4.9-9.7-8.4
		c-2.6-3.1-4.9-6.7-6.8-10.5c-1.9-3.9-3.3-8-4.2-12.4c-0.9-4.4-1.4-9.1-1.4-14.1c0-8,1.2-15.3,3.5-21.6c2.3-6.4,5.7-11.8,10.1-16.3
		c4.4-4.5,9.5-8,15.3-10.3c5.9-2.4,12.1-3.5,18.8-3.5c8.1,0,15.3,1.6,21.6,4.8c6.3,3.2,11.2,7.2,14.5,12c3.4,4.8,5,9.2,5,13.5
		c0,2.3-0.8,4.4-2.5,6.1s-3.6,2.7-5.9,2.7c-2.6,0-4.5-0.6-5.8-1.8c-1.3-1.2-2.7-3.3-4.3-6.3c-2.6-5-5.7-8.7-9.3-11.1
		c-3.6-2.5-8-3.7-13.2-3.7c-8.3,0-15,3.2-19.9,9.5s-7.4,15.3-7.4,26.9c0,7.8,1.1,14.2,3.3,19.4c2.2,5.2,5.3,9,9.3,11.6
		c4,2.5,8.7,3.8,14.1,3.8c5.8,0,10.7-1.4,14.8-4.3c4-2.9,7.1-7.1,9.1-12.7c0.9-2.6,1.9-4.8,3.2-6.4c1.3-1.7,3.3-2.5,6.1-2.5
		c2.4,0,4.5,0.8,6.2,2.5C663.2,219.8,664.1,221.9,664.1,224.4z"/>
	<path class="st4" d="M682.5,214.6v-48.1c0-4.1,0.9-7.2,2.8-9.2s4.3-3.1,7.3-3.1c3.1,0,5.6,1,7.5,3.1s2.8,5.1,2.8,9.2v49.2
		c0,5.6,0.6,10.3,1.9,14c1.2,3.8,3.5,6.7,6.7,8.7c3.2,2.1,7.6,3.1,13.4,3.1c7.9,0,13.5-2.1,16.8-6.3c3.3-4.2,4.9-10.6,4.9-19.1
		v-49.6c0-4.1,0.9-7.2,2.7-9.2c1.8-2,4.3-3,7.3-3s5.5,1,7.4,3c1.9,2,2.8,5.1,2.8,9.2v48.1c0,7.8-0.8,14.3-2.3,19.6
		c-1.5,5.2-4.4,9.8-8.6,13.8c-3.6,3.4-7.9,5.8-12.7,7.4c-4.8,1.5-10.5,2.3-16.9,2.3c-7.7,0-14.3-0.8-19.9-2.5
		c-5.5-1.7-10.1-4.2-13.6-7.7c-3.5-3.5-6.1-7.9-7.7-13.4C683.3,228.7,682.5,222.2,682.5,214.6z"/>
	<path class="st4" d="M854.4,171.6h-45.6v24.6h42c3.1,0,5.4,0.7,6.9,2.1c1.5,1.4,2.3,3.2,2.3,5.5c0,2.3-0.8,4.1-2.3,5.6
		s-3.8,2.1-7,2.1h-42v28.4h47.2c3.2,0,5.6,0.7,7.2,2.2c1.6,1.5,2.4,3.4,2.4,5.9c0,2.4-0.8,4.3-2.4,5.8c-1.6,1.5-4,2.2-7.2,2.2h-55.1
		c-4.4,0-7.6-1-9.5-2.9c-1.9-2-2.9-5.1-2.9-9.5v-75.2c0-2.9,0.4-5.3,1.3-7.1c0.9-1.8,2.2-3.2,4.1-4c1.8-0.8,4.2-1.3,7.1-1.3h53.5
		c3.2,0,5.6,0.7,7.2,2.1c1.6,1.4,2.4,3.3,2.4,5.6c0,2.4-0.8,4.3-2.4,5.7C860,170.9,857.6,171.6,854.4,171.6z"/>
	<path class="st4" d="M908,166.4l39,58.9v-59.5c0-3.9,0.8-6.8,2.5-8.7c1.7-1.9,3.9-2.9,6.7-2.9c2.9,0,5.2,1,6.9,2.9
		c1.7,1.9,2.5,4.8,2.5,8.7v78.7c0,8.8-3.6,13.2-10.9,13.2c-1.8,0-3.5-0.3-4.9-0.8c-1.5-0.5-2.8-1.4-4.1-2.5c-1.3-1.1-2.5-2.5-3.5-4
		c-1.1-1.5-2.2-3.1-3.3-4.7l-38-58.3v58.6c0,3.8-0.9,6.7-2.7,8.7c-1.8,2-4,2.9-6.8,2.9c-2.9,0-5.2-1-6.9-3c-1.7-2-2.6-4.9-2.6-8.6
		v-77.2c0-3.3,0.4-5.8,1.1-7.7c0.9-2,2.3-3.7,4.3-5c2-1.3,4.2-1.9,6.5-1.9c1.8,0,3.4,0.3,4.7,0.9c1.3,0.6,2.4,1.4,3.4,2.4
		c1,1,2,2.3,3,3.9C905.9,163,907,164.7,908,166.4z"/>
	<path class="st4" d="M1052.7,172.7h-22.1v72.7c0,4.2-0.9,7.3-2.8,9.3c-1.9,2-4.3,3-7.2,3c-3,0-5.4-1-7.3-3.1
		c-1.9-2-2.8-5.1-2.8-9.3v-72.7h-22.1c-3.5,0-6-0.8-7.7-2.3c-1.7-1.5-2.5-3.5-2.5-6c0-2.6,0.9-4.6,2.6-6.1c1.8-1.5,4.3-2.3,7.6-2.3
		h64.4c3.5,0,6.1,0.8,7.8,2.3c1.7,1.5,2.6,3.6,2.6,6.1c0,2.5-0.9,4.5-2.6,6C1058.8,171.9,1056.2,172.7,1052.7,172.7z"/>
	<path class="st4" d="M1141,171.6h-45.6v24.6h42c3.1,0,5.4,0.7,6.9,2.1c1.5,1.4,2.3,3.2,2.3,5.5c0,2.3-0.8,4.1-2.3,5.6
		s-3.8,2.1-7,2.1h-42v28.4h47.2c3.2,0,5.6,0.7,7.2,2.2c1.6,1.5,2.4,3.4,2.4,5.9c0,2.4-0.8,4.3-2.4,5.8c-1.6,1.5-4,2.2-7.2,2.2h-55.1
		c-4.4,0-7.6-1-9.5-2.9c-1.9-2-2.9-5.1-2.9-9.5v-75.2c0-2.9,0.4-5.3,1.3-7.1c0.9-1.8,2.2-3.2,4.1-4c1.8-0.8,4.2-1.3,7.1-1.3h53.5
		c3.2,0,5.6,0.7,7.2,2.1c1.6,1.4,2.4,3.3,2.4,5.6c0,2.4-0.8,4.3-2.4,5.7C1146.6,170.9,1144.2,171.6,1141,171.6z"/>
	<path class="st4" d="M1244.3,226c0,6-1.6,11.5-4.7,16.3c-3.1,4.8-7.7,8.6-13.7,11.3s-13.1,4.1-21.4,4.1c-9.9,0-18-1.9-24.4-5.6
		c-4.5-2.7-8.2-6.3-11.1-10.7c-2.8-4.5-4.3-8.8-4.3-13.1c0-2.5,0.9-4.6,2.6-6.3c1.7-1.8,3.9-2.6,6.5-2.6c2.1,0,3.9,0.7,5.4,2
		c1.5,1.4,2.7,3.4,3.8,6.1c1.3,3.2,2.6,5.8,4.1,8c1.5,2.1,3.6,3.9,6.2,5.3c2.7,1.4,6.2,2.1,10.6,2.1c6,0,10.9-1.4,14.6-4.2
		s5.6-6.3,5.6-10.5c0-3.3-1-6-3-8.1c-2-2.1-4.6-3.6-7.8-4.7c-3.2-1.1-7.5-2.3-12.9-3.5c-7.2-1.7-13.2-3.6-18-5.9
		c-4.8-2.3-8.7-5.3-11.5-9.2c-2.8-3.9-4.3-8.7-4.3-14.5c0-5.5,1.5-10.4,4.5-14.7c3-4.3,7.3-7.6,13-9.9c5.7-2.3,12.4-3.4,20.1-3.4
		c6.1,0,11.4,0.8,15.9,2.3c4.5,1.5,8.2,3.5,11.2,6.1c3,2.5,5.1,5.2,6.5,7.9c1.4,2.8,2,5.5,2,8.1c0,2.4-0.9,4.6-2.6,6.5
		c-1.7,1.9-3.8,2.9-6.4,2.9c-2.3,0-4.1-0.6-5.3-1.7c-1.2-1.2-2.5-3.1-3.9-5.7c-1.8-3.8-4-6.7-6.5-8.8c-2.5-2.1-6.6-3.2-12.3-3.2
		c-5.2,0-9.4,1.1-12.7,3.4c-3.2,2.3-4.8,5.1-4.8,8.3c0,2,0.5,3.7,1.6,5.2c1.1,1.5,2.6,2.7,4.5,3.8c1.9,1,3.8,1.9,5.8,2.5
		c2,0.6,5.2,1.5,9.7,2.6c5.6,1.3,10.7,2.8,15.3,4.4c4.6,1.6,8.5,3.5,11.7,5.8s5.7,5.1,7.5,8.6C1243.4,216.6,1244.3,220.9,1244.3,226
		z"/>
</g>
<ellipse class="st12" cx="736.3" cy="498.1" rx="928.1" ry="81.6"/>
</svg>
