<?xml version="1.0" encoding="utf-8"?>
<!-- Generator: Adobe Illustrator 22.0.0, SVG Export Plug-In . SVG Version: 6.00 Build 0)  -->
<svg version="1.1" id="Layer_1" xmlns="http://www.w3.org/2000/svg" xmlns:xlink="http://www.w3.org/1999/xlink" x="0px" y="0px"
	 viewBox="0 0 496.2 496.2" style="enable-background:new 0 0 496.2 496.2;" xml:space="preserve">
<style type="text/css">
	.st0{fill:#EBBA16;}
	.st1{fill:#FFFFFF;}
</style>
<circle class="st0" cx="247.8" cy="247.8" r="248.3"/>
<g>
	<path class="st1" d="M217.3,333.9c-14.4,0-28.9,0-43.3,0c16.9-16.9,33.8-33.8,50.8-50.8c10.7-10.7-6-27.3-16.7-16.6
		c-16.9,16.9-33.8,33.8-50.7,50.7c0-14.4,0-28.8,0-43.2c0-15.2-23.5-15.3-23.5-0.2c0,23.9,0,47.8,0,71.6c0,6.4,5.2,11.8,11.7,11.8
		c23.9,0,47.8,0,71.7,0C232.4,357.5,232.5,333.9,217.3,333.9z"/>
	<path class="st1" d="M352.2,127.5c-23.9,0-47.8,0-71.7,0c-15.2,0-15.3,23.5-0.2,23.5c14.4,0,28.9,0,43.3,0
		c-16.9,16.9-33.8,33.8-50.8,50.8c-10.7,10.7,6,27.3,16.7,16.6c16.9-16.9,33.8-33.8,50.7-50.7c0,14.4,0,28.8,0,43.2
		c0,15.2,23.5,15.3,23.5,0.2c0-23.9,0-47.8,0-71.6C363.8,132.9,358.6,127.5,352.2,127.5z"/>
	<path class="st1" d="M411.2,118.7c0-1.3-0.2-2.5-0.6-3.6c-4.2-23-21.8-30.6-43.9-30.6c-23.6,0-47.2,0-70.8,0
		c-55.5,0-111.1,0-166.6,0c-23.2,0-41.7,8.1-44.7,34.1c-1.5,13.3,0,27.7,0,41.1c0,59.7,0,119.4,0,179.1c0,14.3-1.1,29.1,0.6,43.3
		c2.8,24.5,25.6,29.1,45.7,29.1c56.2,0,112.4,0,168.6,0c22.9,0,45.9,0,68.8,0c21.2,0,43.1-9,43.1-34.1c0-45,0-90,0-135
		c0-40.2,0-80.3,0-120.5C411.3,120.6,411.3,119.7,411.2,118.7z M377.1,387.6c-13.3,1.5-27.7,0-41.1,0c-30,0-60,0-90.1,0
		c-29.7,0-59.4,0-89.1,0c-9.1,0-46.9,6.4-48.9-10.5c-1.5-13.3,0-27.7,0-41.1c0-30,0-60,0-90.1c0-29.7,0-59.4,0-89.1
		c0-9.1-6.4-46.9,10.5-48.9c13.3-1.5,27.7,0,41.1,0c30,0,60,0,90.1,0c29.7,0,59.4,0,89.1,0c9.1,0,46.9-6.4,48.9,10.5
		c0,43.7,0,87.4,0,131.2c0,29.7,0,59.4,0,89.1C387.6,347.8,394,385.7,377.1,387.6z"/>
</g>
</svg>
