<?xml version="1.0" encoding="utf-8"?>
<!-- Generator: Adobe Illustrator 22.0.0, SVG Export Plug-In . SVG Version: 6.00 Build 0)  -->
<svg version="1.1" id="Layer_1" xmlns="http://www.w3.org/2000/svg" xmlns:xlink="http://www.w3.org/1999/xlink" x="0px" y="0px"
	 viewBox="0 0 800 600" style="enable-background:new 0 0 800 600;" xml:space="preserve">
<style type="text/css">
	.st0{fill:url(#SVGID_1_);}
	.st1{opacity:0.9;fill:#FFFFFF;enable-background:new    ;}
</style>
<radialGradient id="SVGID_1_" cx="400.9" cy="297.5" r="221" gradientUnits="userSpaceOnUse">
	<stop  offset="0" style="stop-color:#000000;stop-opacity:0.5"/>
	<stop  offset="1" style="stop-color:#020202;stop-opacity:0"/>
</radialGradient>
<circle class="st0" cx="400.9" cy="297.5" r="221"/>
<path class="st1" d="M400.9,155.4c-76.5,0-138.5,63.7-138.5,142.1s62,142.1,138.5,142.1S539.4,376,539.4,297.5
	S477.6,155.4,400.9,155.4z M475.3,301.6l-105.2,73.7c-1,0.5-1.7,1-2.6,1c-0.7,0-1.7-0.3-2.1-0.5c-1.7-1-2.6-2.6-2.6-4.4v-147
	c0-1.7,1-3.4,2.6-4.4c1.7-1,3.4-0.7,4.9,0.3l105.2,73.7c1.1,1,2.1,2.5,2.1,4.1C477.6,299.7,476.7,300.7,475.3,301.6z"/>
</svg>
