<?xml version="1.0" encoding="utf-8"?>
<!-- Generator: Adobe Illustrator 22.0.0, SVG Export Plug-In . SVG Version: 6.00 Build 0)  -->
<svg version="1.1" id="Layer_1" xmlns="http://www.w3.org/2000/svg" xmlns:xlink="http://www.w3.org/1999/xlink" x="0px" y="0px"
	 viewBox="0 0 800 600" style="enable-background:new 0 0 800 600;" xml:space="preserve">
<style type="text/css">
	.st0{fill:url(#SVGID_1_);}
	.st1{fill:#F4F4F4;}
	.st2{fill:#FFFFFF;}
	.st3{fill:#FED130;}
	.st4{fill:#E8D06B;}
	.st5{fill:#F7BC14;}
	.st6{fill:#FFB125;}
	.st7{fill:#FF901D;}
</style>
<g>
	<linearGradient id="SVGID_1_" gradientUnits="userSpaceOnUse" x1="398.9511" y1="532.5555" x2="403.1549" y2="-329.2195">
		<stop  offset="0" style="stop-color:#000000;stop-opacity:0"/>
		<stop  offset="1" style="stop-color:#000000"/>
	</linearGradient>
	<path class="st0" d="M15.6,599.4c-8.3,0-15-6.7-15-15v-569c0-8.3,6.7-15,15-15h769c8.3,0,15,6.7,15,15v569c0,8.3-6.7,15-15,15H15.6
		z"/>
	<path class="st1" d="M784.6,0.9c8,0,14.5,6.5,14.5,14.5v569c0,8-6.5,14.5-14.5,14.5h-769c-8,0-14.5-6.5-14.5-14.5v-569
		c0-8,6.5-14.5,14.5-14.5H784.6 M784.6-0.1h-769C7-0.1,0.1,6.8,0.1,15.4v569c0,8.6,6.9,15.5,15.5,15.5h769c8.6,0,15.5-6.9,15.5-15.5
		v-569C800.1,6.8,793.1-0.1,784.6-0.1L784.6-0.1z"/>
</g>
<path class="st2" d="M415.6,117.3l36.7,113.1c2.2,6.7,8.4,11.3,15.5,11.3h118.9c15.8,0,22.4,20.2,9.6,29.5L500.2,341
	c-5.7,4.2-8.1,11.5-5.9,18.2L531,472.3c4.9,15-12.3,27.5-25.1,18.2l-96.2-69.9c-5.7-4.2-13.5-4.2-19.2,0l-96.2,69.9
	c-12.8,9.3-30-3.2-25.1-18.2l36.7-113.1c2.2-6.7-0.2-14.1-5.9-18.2l-96.2-69.9c-12.8-9.3-6.2-29.5,9.6-29.5h118.9
	c7.1,0,13.3-4.6,15.5-11.3l36.7-113.1C389.5,102.2,410.7,102.2,415.6,117.3z"/>
<g>
	<g>
		<g>
			<path class="st3" d="M326.1,295.5c-0.6-0.4-1-0.9-1.5-1.4c-4.4-4.5-5.9-10.5-4.2-17.2c0.7-2.8,3.6-4.5,6.4-3.8s4.5,3.6,3.8,6.4
				c-0.7,2.9-0.2,5.3,1.5,7c2,2.1,5.6,3,8.5,2.3c2.6-0.7,5-2.7,6.1-5.2c0.7-1.7,1.3-4.2-0.3-7.2c-4.7-8.8-15.3-12.3-27.5-16.3
				c-22.2-7.2-49.8-16.2-51.1-63.2l-0.6-19.4c-0.1-3.9,1.3-7.7,4-10.5c2.7-2.9,6.3-4.5,10.2-4.6c10.6-0.3,20.7,4.7,27,13.2l3.8,5.1
				c2,2.8,5.2,4.3,8.6,4.2l21.8-0.7c2.9-0.1,5.3,2.2,5.5,5.1c0.1,2.9-2.2,5.3-5.1,5.5l-21.8,0.7c-6.9,0.2-13.4-3-17.5-8.5l-3.8-5.1
				c-4.2-5.8-11-9.1-18.2-8.9c-1.1,0-2.1,0.5-2.9,1.3c-0.7,0.8-1.2,1.8-1.1,2.9l0.6,19.4c1.2,39.5,21.9,46.3,43.9,53.5
				c13.2,4.3,26.8,8.8,33.5,21.4c2.8,5.3,3,11.1,0.6,16.4c-2.5,5.6-7.4,9.7-13.2,11.2C337.3,300.7,330.8,299.2,326.1,295.5z"/>
			<path class="st3" d="M455.5,291.5c-2.1-1.7-4-3.9-5.3-6.4c-2.7-5.2-2.9-11-0.4-16.4c5.9-13,19.2-18.3,32.1-23.4
				c21.5-8.5,41.7-16.5,40.4-56.1l-0.6-19.4c-0.1-1.1-0.5-2.1-1.3-2.9c-0.8-0.7-1.8-1.2-2.9-1.1c-7.2,0.2-13.7,4-17.7,10.1l-3.4,5.4
				c-3.7,5.8-10.1,9.4-16.9,9.6l-21.8,0.7c-2.9,0.1-5.3-2.2-5.5-5.1c-0.1-2.9,2.2-5.3,5.1-5.5l21.8-0.7c3.4-0.1,6.5-1.9,8.3-4.7
				l3.4-5.4c5.8-8.9,15.5-14.5,26.2-14.9c3.9-0.1,7.7,1.3,10.5,3.9c2.9,2.7,4.5,6.3,4.7,10.2l0.6,19.4c1.5,46.9-25.4,57.7-47.1,66.3
				c-12,4.7-22.3,8.8-26.4,18c-1.4,3.1-0.7,5.6,0.1,7.2c1.3,2.5,3.8,4.4,6.4,4.8c2.9,0.6,6.4-0.7,8.3-2.8c1.7-1.8,2-4.3,1-7.2
				c-0.9-2.8,0.6-5.8,3.4-6.7c2.8-0.9,5.8,0.6,6.7,3.4c2.1,6.5,1,12.6-3.1,17.3c-4.4,5-11.6,7.5-18.2,6.3
				C460.9,294.9,457.9,293.5,455.5,291.5z"/>
		</g>
		<path class="st4" d="M407.3,360.7l0.6,7.5c-2.5-1.5-4.2-4.2-4.4-7.2l-0.6-6.9C405.3,355.4,407,357.8,407.3,360.7z"/>
		<polygon class="st3" points="446.2,440.7 372.9,442.4 392.7,294.3 414.9,293.6 		"/>
		<path class="st3" d="M325.3,155.5l1.6,52.8c1.1,37.4,22.1,72,56.7,93.2l5.3,3.2c9.3,5.7,21,5.3,29.8-0.9l5.1-3.6
			c33.2-23.2,52.2-59,51.1-96.4l-1.6-52.8L325.3,155.5z"/>
		<path class="st5" d="M474.6,203.9l-1.6-52.8l-31.7,0.9l1.8,55.5c1.1,37.4-17.8,73.2-51.1,96.4l-2.1,1.5l0,0
			c8.5,5.2,19.2,4.9,27.5-0.8l6.3-4.4C456.8,277.1,475.8,241.3,474.6,203.9z"/>
		<path class="st6" d="M478.8,161.1l-158.7,4.7c-2.3,0.1-4.2-1.8-4.3-4l-0.4-12c-0.1-2.3,1.8-4.2,4-4.3l158.7-4.7
			c2.3-0.1,4.2,1.8,4.3,4l0.4,12C483,159.2,481.1,161.1,478.8,161.1z"/>
		<path class="st7" d="M482.9,156.8l-0.4-12c-0.1-2.3-2-4.1-4.3-4l-28,0.9l0.6,20.3l28-0.9C481.1,161.1,483,159.2,482.9,156.8z"/>
		<path class="st6" d="M461.5,455.9l-102.2,3.1c-4.4,0.1-8-3.7-7.4-8.1l2.9-24.5c0.4-3.6,3.4-6.3,7-6.4l94.9-2.8
			c3.6-0.1,6.7,2.5,7.4,5.9l4.4,24.3C469.2,451.6,466,455.7,461.5,455.9z"/>
		<path class="st7" d="M468.4,447.3l-4.4-24.3c-0.6-3.6-3.7-6.1-7.4-5.9l-27.7,0.8l7,38.7l25.5-0.7
			C466,455.7,469.2,451.6,468.4,447.3z"/>
	</g>
</g>
</svg>
