<?xml version="1.0" encoding="utf-8"?>
<!-- Generator: Adobe Illustrator 22.0.0, SVG Export Plug-In . SVG Version: 6.00 Build 0)  -->
<svg version="1.1" id="Layer_1" xmlns="http://www.w3.org/2000/svg" xmlns:xlink="http://www.w3.org/1999/xlink" x="0px" y="0px"
	 viewBox="0 0 800 600" style="enable-background:new 0 0 800 600;" xml:space="preserve">
<style type="text/css">
	.st0{fill:#DDDDDD;}
</style>
<g>
	<path class="st0" d="M256.8,237.8h286.6c0,0,1.8-19.4-11.8-19.4s-42.5,0-42.5,0s-16.7,0-25.8-11.3s-12.2-24-34.4-24
		c-22.1,0-61.9,0-61.9,0s-12.7-0.2-19.9,12.7c-8.7,15.4-14,22.6-34.4,22.6c-15.4,0-39.3,0-39.3,0S258.3,216,256.8,237.8
		C255.8,252.4,256.8,237.8,256.8,237.8z"/>
	<path class="st0" d="M308.1,211.1c0-4-3.2-7.2-7.2-7.2H292c-4,0-7.2,3.2-7.2,7.2v2.6h23.4L308.1,211.1L308.1,211.1z"/>
	<path class="st0" d="M256.3,242.2v150.4h287.1V242.2H256.3z M399.9,378.5c-34.4,0-62.3-27.9-62.3-62.3s27.9-62.3,62.3-62.3
		s62.3,27.9,62.3,62.3S434.3,378.5,399.9,378.5z M465.6,270.1c-3.9,0-7-3.1-7-7s3.1-7,7-7s7,3.1,7,7S469.5,270.1,465.6,270.1z"/>
	<circle class="st0" cx="399.9" cy="316.2" r="52.2"/>
	<path class="st0" d="M256.3,401c0,8.2,5.9,14.9,13.2,14.9h260.7c7.3,0,13.2-6.7,13.2-14.9v-5.7H256.3V401z"/>
	<circle class="st0" cx="399.9" cy="316.2" r="52.2"/>
</g>
</svg>
