<?xml version="1.0" encoding="utf-8"?>
<!-- Generator: Adobe Illustrator 22.0.0, SVG Export Plug-In . SVG Version: 6.00 Build 0)  -->
<svg version="1.1" id="Layer_1" xmlns="http://www.w3.org/2000/svg" xmlns:xlink="http://www.w3.org/1999/xlink" x="0px" y="0px"
	 viewBox="0 0 300 300" style="enable-background:new 0 0 300 300;" xml:space="preserve">
<style type="text/css">
	.st0{fill:#E04F5F;}
	.st1{fill:#FFFFFF;}
</style>
<path class="st0" d="M300,150C300,67.2,232.8,0,150,0C67.2,0,0,67.2,0,150c0,82.8,67.2,150,150,150C232.8,300,300,232.8,300,150z"/>
<g>
	<path class="st1" d="M156,76.6c-2.1-1.1-4.6-1-6.6,0.3l-57.9,37.6H70.1c-3.6,0-6.4,2.9-6.4,6.4v56.4c0,3.6,2.9,6.4,6.4,6.4h21.4
		l57.9,37.6c1.1,0.7,2.3,1,3.5,1c1.1,0,2.1-0.3,3.1-0.8c2.1-1.1,3.4-3.3,3.4-5.7V82.2C159.4,79.9,158.1,77.7,156,76.6z"/>
	<path class="st1" d="M214.4,149.1l18.5-18.5c2.1-2.1,2.1-5.6,0-7.7c-2.1-2.1-5.6-2.1-7.7,0l-18.5,18.5l-18.5-18.5
		c-2.1-2.1-5.6-2.1-7.7,0c-2.1,2.1-2.1,5.6,0,7.7l18.5,18.5l-18.5,18.5c-2.1,2.1-2.1,5.6,0,7.7c1.1,1.1,2.5,1.6,3.9,1.6
		s2.8-0.5,3.9-1.6l18.5-18.5l18.5,18.5c1.1,1.1,2.5,1.6,3.9,1.6c1.4,0,2.8-0.5,3.9-1.6c2.1-2.1,2.1-5.6,0-7.7L214.4,149.1z"/>
</g>
</svg>
