<?xml version="1.0" encoding="utf-8"?>
<!-- Generator: Adobe Illustrator 22.0.0, SVG Export Plug-In . SVG Version: 6.00 Build 0)  -->
<svg version="1.1" id="Layer_1" xmlns="http://www.w3.org/2000/svg" xmlns:xlink="http://www.w3.org/1999/xlink" x="0px" y="0px"
	 viewBox="0 0 414.5 210.7" style="enable-background:new 0 0 414.5 210.7;" xml:space="preserve">
<style type="text/css">
	.st0{fill:#582D7A;}
	.st1{fill:#4C296B;}
	.st2{fill:#753B95;}
	.st3{fill:#663386;}
	.st4{fill:#501627;}
	.st5{fill:#F56A82;}
	.st6{fill:none;stroke:#000000;stroke-width:1.8097;stroke-miterlimit:10;}
	.st7{fill:none;stroke:#000000;stroke-width:1.9804;stroke-miterlimit:10;}
</style>
<g>
	<path class="st0" d="M165.2,175.8l-13.2,6.8c0,0,31.5,23.3,88.3,17.8c50.3-4.8,24.5-28.3-5.6-23.6
		C204.6,181.5,165.2,175.8,165.2,175.8z"/>
	<path class="st1" d="M234.6,176.8c-30.1,4.7-69.5-1-69.5-1l-5.3,11.5c18.7,5.3,57.5-4.4,68.3-5.3c10.8-0.8,21.9-2.1,30.7,1.5
		c8.8,3.6,2.2,12.5,2.2,12.5C280.7,187.8,259.1,173,234.6,176.8z"/>
</g>
<g>
	<path class="st0" d="M244.2,166.4c0,0,48.8,4.7,52,11.8s5.3,4.7,5.6-12.4c0.3-17-1.3-20.4-15.4-21.5c-14.2-1.1-36.9,3.7-36.9,3.7
		L244.2,166.4z"/>
	<path class="st1" d="M282.8,147.9c14.3,3,20.4,13.9,18.2,30.1c0.4-2.6,0.7-6.6,0.8-12.1c0.3-17-1.3-20.4-15.4-21.5
		c-14.2-1.1-36.9,3.7-36.9,3.7l-5.2,18.4c0,0,3-2.9,6-9.4C253.1,150.7,268.4,144.9,282.8,147.9z"/>
</g>
<g>
	<path class="st0" d="M296.6,104.2c-3.4,7-52.3,10-52.3,10l4.6,18.6c0,0,22.6,5.5,36.8,5c14.2-0.6,15.9-3.9,16.2-20.9
		C302.1,99.7,300,97.2,296.6,104.2z"/>
	<path class="st1" d="M273,114.2c14-1,29.6-10.3,28.5,8.8l0,0c0.1-1.8,0.2-3.9,0.2-6.2c0.3-17-1.7-19.6-5.2-12.6
		c-3.4,7-52.3,10-52.3,10l4.6,18.6c0,0,1.8-5.1,1.8-9.3C250.7,119.3,259,115.2,273,114.2z"/>
</g>
<path class="st2" d="M158.2,31.7c4.1-3,6.5-7.6,6.5-7.6c-19.6,1.3-42.3,26.5-42.3,26.5c3.1-8.5,0.4-8.7,0.4-8.7
	C97.1,66.3,98.2,95.4,98.2,95.4c-0.2-3-3.9-5.1-3.9-5.1C90,102.6,96,113,96,113s-3.5,12.2-9.7,16.5c0,0,7.7,4,11.7-3.1
	c0,0-6.4,14.9,2.2,34.5c0,0,4-5.5,4.1-11.6c0,0,0.1,27.2,30.3,48.3c0,0,1.2-4.1-1.4-8.4c5,5,15.8,13.8,31.2,16.4
	c0,0-0.5-3.3-4.3-5.8c7.4,3.1,25.4,8.6,49.7,1.9c0,0-0.1-2.2-10.6-2.9c0,0,39.9-5.2,57.4-27.4c0,0-5-2.8-12.5,0.3
	c0,0,14-14.4,23.2-15.9c0,0-5.5-3.3-11.5-1.2c0,0,9.1-12.2,9.5-38c0.4-25.8-9.5-40.8-9.5-40.8c5.1,1.5,10.2-2.9,10.2-2.9
	c-8.4-0.5-20-12.1-20-12.1c3.8,4.4,12.1,0.7,12.1,0.7c-6.7-8.2-20.1-14.1-27.1-16.8c4.9,0.6,8.3-2.3,8.3-2.3
	c-11.5-11-39.8-11-39.8-11c7.1-0.6,13.1-6.5,13.1-6.5C186.4,19.4,158.2,31.7,158.2,31.7z"/>
<path class="st3" d="M244.2,171.6c0,0,14-14.4,23.2-15.9c0,0-5.5-3.3-11.5-1.2c0,0,9.1-12.2,9.5-38c0.4-25.8-9.5-40.8-9.5-40.8
	c5.1,1.5,10.2-2.9,10.2-2.9c-8.4-0.5-20-12.1-20-12.1c3.8,4.4,12.1,0.7,12.1,0.7c-6.7-8.2-20.1-14.1-27.1-16.8
	c4.9,0.6,8.3-2.3,8.3-2.3c-11.5-11-39.8-11-39.8-11c7.1-0.6,13.1-6.5,13.1-6.5c-26.1-5.5-54.4,6.8-54.4,6.8c4.1-3,6.5-7.6,6.5-7.6
	c-19.6,1.3-42.3,26.5-42.3,26.5c3.1-8.5,0.4-8.7,0.4-8.7C97.1,66.3,98.2,95.4,98.2,95.4s-0.3-3,3.9-6.6c4.2-3.6,10-7.9,13.1-16.9
	c3.2-9,15-31.2,33.8-37.4c0,0-1.7,5.3-5,7.7c0,0,40.2-19.1,77.2-3.8c0,0-3.9,3.5-9,2.7c0,0,44,16.1,47.6,69.1
	C262.6,152.8,244.2,171.6,244.2,171.6z"/>
<g>
	<path class="st4" d="M228.6,125.2c0,0-7.2,8.4-2.3,17.1s-14.4,12-15.5-5.2C209.7,119.8,222.6,115.7,228.6,125.2z"/>
	<path class="st5" d="M212,127.3c0,0,14.7,5.1,2.6,19.1C214.6,146.4,207.2,140.1,212,127.3z"/>
</g>
<g>
	<path class="st1" d="M180.9,40.8l-6.6-13.3c0,0,39.1-0.4,81.9,37.4c37.9,33.4,3.2,37.3-18.4,15.8C216.1,59.3,180.9,40.8,180.9,40.8
		z"/>
	<path class="st0" d="M237.7,80.8c5.5,5.3,11.6,9.2,17.3,11.3c7.8,2.8,12.6-2.2,5-8.1c-2.9-2.2-9.5-7.4-14.6-9.1
		C236.8,71.9,230.5,74,237.7,80.8z"/>
</g>
<g>
	<path class="st6" d="M174.8,132.1c0.9-1.5,6.7-11.8,0.2-20.9c-1.8-2.6-4.2-4.4-6.3-5.7"/>
	<path class="st7" d="M175,140.4c1.2,1.4,8.9,11.2,2.2,21.3c-1.9,2.9-4.5,5-6.8,6.6"/>
</g>
<g>
	<path class="st2" d="M282,52.5l9.9-12.9c0.9-1.2,1.9-2.2,2.8-3.4v-0.1H283v-3.2h16.7l0,2.5l-9.8,12.7c-0.9,1.2-1.8,2.3-2.8,3.4v0.1
		h12.8v3.2H282V52.5z"/>
</g>
<g>
	<path class="st2" d="M303.7,28.4l5.7-7.5c0.6-0.7,1.1-1.3,1.7-2v-0.1h-6.9v-1.9h9.7l0,1.4l-5.7,7.4c-0.5,0.7-1,1.3-1.6,2v0.1h7.4
		v1.8h-10.3V28.4z"/>
</g>
<g>
	<path class="st2" d="M322.6,22.6l3.4-4.4c0.3-0.4,0.6-0.8,1-1.2v0h-4.1v-1.1h5.7l0,0.9l-3.4,4.4c-0.3,0.4-0.6,0.8-1,1.2v0h4.4v1.1
		h-6.1V22.6z"/>
</g>
</svg>
