<?xml version="1.0" encoding="utf-8"?>
<!-- Generator: Adobe Illustrator 22.0.0, SVG Export Plug-In . SVG Version: 6.00 Build 0)  -->
<svg version="1.1" id="Layer_1" xmlns="http://www.w3.org/2000/svg" xmlns:xlink="http://www.w3.org/1999/xlink" x="0px" y="0px"
	 viewBox="0 0 600 600" style="enable-background:new 0 0 600 600;" xml:space="preserve">
<style type="text/css">
	.st0{fill:#D3D2D1;}
	.st1{fill:#B2B2B2;}
</style>
<circle class="st0" cx="300" cy="300" r="300"/>
<path class="st1" d="M496.7,302c3.3-49.8-18.4-97.5-18.4-97.5c6.5,8.4,16.3,13.5,16.3,13.5c-3.5-41.2-57.3-87.9-57.3-87.9
	c18,6.2,18.4,0.4,18.4,0.4c-52.5-53.1-113.6-49.8-113.6-49.8c6.2-0.5,10.6-8.4,10.6-8.4c-26-8.6-47.7,4.5-47.7,4.5
	s-25.7-6.8-35.1-19.7c0,0-8.2,16.3,7,24.5c0,0-31.5-12.8-72.4,5.8c0,0,11.7,8.2,24.5,8.2c0,0-57.2,1.2-100.4,65.4
	c0,0,8.8,2.5,17.7-3.2c-10.4,10.8-28.5,33.7-33.5,66.3c0,0,6.9-1.3,12-9.2c-4.5,11.2-11.4,34.1-9.3,65
	C104,298.6,86.3,339.1,101,396.3c18.3,71.2,63.5,31.8,48.8-10.7c-4.4-12.6-7-26.5-8.5-39.8c9.1,24.9,23.8,53.6,46.8,71
	c0,0,5.8-10.5-1.1-26.3c0,0,30.8,28.9,34.3,48.2c0,0,6.8-11.8,2.1-24.3c0,0,4.8,3.5,14.7,7.5c-0.8,10.2-8.9,102.2-22.9,108.8
	c-14.9,7-9.6,11.4,26.3,11.4s42.9-3.5,44.7-33.3c1.7-28.4-8.1-73-9-77.2c7.9,1,16.7,1.6,26.5,1.6c6.5,0,12.6-0.3,18.5-0.9
	c-1.6,7.2-10.4,49.3-8.8,76.5c1.8,29.8,8.8,33.3,44.7,33.3c35.9,0,41.2-4.4,26.3-11.4c-13.3-6.3-21.2-88.8-22.7-106.4
	c17.9-5.9,27.6-12.5,27.6-12.5c-3,10.7,6.5,21.4,6.5,21.4c0.9-17.8,24.7-42.6,24.7-42.6c-9.1,8.2-1.1,25.4-1.1,25.4
	c17-14.5,28.9-42.9,34.2-57.6c-0.6,5.2,0.8,9.7,2.3,12.7c-1.2,5-2.5,9.9-4.2,14.6c-14.7,42.5,30.4,81.9,48.8,10.7
	C510.8,356,505,323.9,496.7,302z"/>
</svg>
