<?xml version="1.0" encoding="utf-8"?>
<!-- Generator: Adobe Illustrator 22.0.0, SVG Export Plug-In . SVG Version: 6.00 Build 0)  -->
<svg version="1.1" id="Layer_1" xmlns="http://www.w3.org/2000/svg" xmlns:xlink="http://www.w3.org/1999/xlink" x="0px" y="0px"
	 viewBox="0 0 600 600" style="enable-background:new 0 0 600 600;" xml:space="preserve">
<style type="text/css">
	.st0{fill:url(#SVGID_1_);}
	.st1{fill:#FFFFFF;}
</style>
<g>
	<linearGradient id="SVGID_1_" gradientUnits="userSpaceOnUse" x1="70" y1="300" x2="540" y2="300">
		<stop  offset="0" style="stop-color:#ED1C24"/>
		<stop  offset="1" style="stop-color:#FCEE21"/>
	</linearGradient>
	<polygon class="st0" points="121.6,297.4 70,114.1 540,297.4 70,485.9 	"/>
	<g>
		<path d="M139,292.6c-5.8-20.6-11.6-41.2-17.4-61.9c-9.3-32.9-18.5-65.8-27.8-98.7c-2.1-7.6-4.3-15.2-6.4-22.8
			c-7.4,7.4-14.8,14.8-22.1,22.1c15.6,6.1,31.2,12.2,46.9,18.3c37.5,14.6,75,29.3,112.5,43.9c45,17.6,90.1,35.1,135.1,52.7
			c39.2,15.3,78.4,30.6,117.6,45.9c19,7.4,37.8,15.7,57.1,22.3c0.3,0.1,0.5,0.2,0.8,0.3c0-11.6,0-23.1,0-34.7
			c-15.6,6.3-31.2,12.5-46.8,18.8c-37.5,15-74.9,30.1-112.4,45.1c-45.2,18.1-90.3,36.2-135.5,54.3c-39.2,15.7-78.3,31.4-117.5,47.1
			c-18.9,7.6-38.5,14.4-57,22.9c-0.3,0.1-0.5,0.2-0.8,0.3c7.4,7.4,14.8,14.8,22.1,22.1c5.8-21.2,11.6-42.3,17.4-63.5
			c9.3-33.9,18.6-67.8,27.9-101.8c2.1-7.7,4.2-15.5,6.4-23.2c2.5-9.1-3.1-20-12.6-22.1c-9.5-2.2-19.5,2.9-22.1,12.6
			c-5.8,21.2-11.6,42.3-17.4,63.5C77.6,390.1,68.3,424,59,457.9c-2.1,7.7-4.2,15.5-6.4,23.2c-3.3,12.1,9,27.4,22.1,22.1
			c15.6-6.3,31.2-12.5,46.8-18.8c37.5-15,74.9-30.1,112.4-45.1c45.2-18.1,90.3-36.2,135.5-54.3c39.2-15.7,78.3-31.4,117.5-47.1
			c19-7.6,38-15.2,57-22.9c0.3-0.1,0.5-0.2,0.8-0.3c7.2-2.9,13.6-8.9,13.2-17.4c-0.4-8.5-5.5-14.3-13.2-17.4
			c-15.6-6.1-31.2-12.2-46.9-18.3c-37.5-14.6-75-29.3-112.5-43.9c-45-17.6-90.1-35.1-135.1-52.7c-39.2-15.3-78.4-30.6-117.6-45.9
			c-19-7.4-37.8-15.8-57.1-22.3c-0.3-0.1-0.5-0.2-0.8-0.3c-13.1-5.1-25.6,10-22.1,22.1c5.8,20.6,11.6,41.2,17.4,61.9
			c9.3,32.9,18.5,65.8,27.8,98.7c2.1,7.6,4.3,15.2,6.4,22.8c2.6,9.1,12.9,15.6,22.1,12.6C135.7,311.8,141.7,302.3,139,292.6z"/>
	</g>
</g>
<g>
	<line class="st1" x1="121.5" y1="299.5" x2="539.5" y2="299.5"/>
	<g>
		<path d="M121.5,311.5c13.9,0,27.8,0,41.6,0c33.3,0,66.6,0,100,0c40.1,0,80.3,0,120.4,0c34.8,0,69.7,0,104.5,0
			c16.9,0,33.9,0.6,50.8,0c0.2,0,0.5,0,0.7,0c15.4,0,15.5-24,0-24c-13.9,0-27.8,0-41.6,0c-33.3,0-66.6,0-100,0
			c-40.1,0-80.3,0-120.4,0c-34.8,0-69.7,0-104.5,0c-16.9,0-33.9-0.6-50.8,0c-0.2,0-0.5,0-0.7,0C106.1,287.5,106,311.5,121.5,311.5
			L121.5,311.5z"/>
	</g>
</g>
</svg>
