<?xml version="1.0" encoding="utf-8"?>
<!-- Generator: Adobe Illustrator 22.0.0, SVG Export Plug-In . SVG Version: 6.00 Build 0)  -->
<svg version="1.1" id="Layer_1" xmlns="http://www.w3.org/2000/svg" xmlns:xlink="http://www.w3.org/1999/xlink" x="0px" y="0px"
	 viewBox="0 0 300 300" style="enable-background:new 0 0 300 300;" xml:space="preserve">
<style type="text/css">
	.st0{fill:#E5AA17;}
	.st1{fill:#FFFFFF;}
</style>
<path class="st0" d="M299,150.1C299,67.3,231.9,0.2,149.1,0.2C66.3,0.2-0.8,67.3-0.8,150.1c0,82.8,67.1,149.9,149.9,149.9
	C231.9,300,299,232.9,299,150.1z"/>
<g>
	<path class="st1" d="M171.3,78.1c-2.1-1.1-4.6-1-6.5,0.3l-57.5,37.3H86c-3.5,0-6.4,2.9-6.4,6.4v56c0,3.5,2.9,6.4,6.4,6.4h21.3
		l57.5,37.3c1.1,0.7,2.3,1,3.5,1c1,0,2.1-0.3,3.1-0.8c2.1-1.1,3.3-3.3,3.3-5.6V83.7C174.6,81.3,173.4,79.2,171.3,78.1z"/>
	<path class="st1" d="M192.4,195.3c0.5,0,1.1-0.1,1.6-0.3c14.6-5.7,24.5-23.3,24.5-43.7c0-18.1-8-34.5-20.3-41.7
		c-2.1-1.3-4.9-0.5-6.1,1.6c-1.3,2.1-0.5,4.9,1.6,6.1c9.7,5.7,15.9,19,15.9,34c0,16.5-7.7,31.1-18.8,35.4c-2.3,0.9-3.5,3.5-2.6,5.8
		C188.9,194.2,190.6,195.3,192.4,195.3z"/>
</g>
</svg>
