<?xml version="1.0" encoding="utf-8"?>
<!-- Generator: Adobe Illustrator 22.0.0, SVG Export Plug-In . SVG Version: 6.00 Build 0)  -->
<svg version="1.1" id="Layer_1" xmlns="http://www.w3.org/2000/svg" xmlns:xlink="http://www.w3.org/1999/xlink" x="0px" y="0px"
	 viewBox="0 0 600 600" style="enable-background:new 0 0 600 600;" xml:space="preserve">
<style type="text/css">
	.st0{fill:#E2BA14;}
	.st1{fill:#232020;}
</style>
<path class="st0" d="M39,215l138-29c7.5-1.9,14,7,31-22l56-102c14.9-18.5,61.5-35.6,75-16l72.5,132.1c4.8,7,12,12.1,20.3,14.2
	L560,221c24.5,6.4,29,39.2,13.6,59.4l-83.8,109.5c-5,6.5-7.6,14.6-7.3,22.8l4,117.3c0.9,26,8.5,60-64.5,52l-113-62
	c-8.4-3.6-21.5,4.8-30,8l-111,49c-22.5,8.3-59.8-20-61-44l17.5-129.8c-0.3-6.7-2.5-13.1-6.3-18.6L30,302C15.8,281.6,14.9,221,39,215
	z"/>
<g>
	<path class="st1" d="M594.3,242.1c-3.1-24.7-32.8-33.2-54.4-39.5c-4.5-1.3-8.7-2.5-12.3-3.7c-21.4-7.4-40.5-12.5-58.5-15.6
		c-2.3-0.4-4.7-0.8-7-1.2c-6.8-1.2-13.7-2.4-20.7-3.4c-2.3-0.3-5.5-0.3-8.8-0.2c-1.5,0-3.1,0.1-4.6,0.1c-2.1,0-3.7-0.2-5-0.5
		c-0.2-0.4-0.5-0.7-0.8-1.1c-7.5-9.1-12.4-20.7-17.2-31.8c-2-4.6-4-9.3-6.1-13.7c-3.2-6.7-6.7-13.3-10-19.8
		c-4.2-8.2-8.6-16.7-12.6-25.2c-11.8-25.2-28.9-54.3-57.8-56c-1.3-0.1-2.6-0.1-4-0.1c-9.9-0.1-28.4,1.3-40.9,12.3
		c-11.9,10.5-19.6,24.4-27.1,37.8c-1.1,2-2.2,4-3.3,5.9c-4.6,8.1-10.2,15.6-15.7,23l-1.2,1.6c-4.4,5.9-7.8,12.6-11,19
		c-1.6,3.1-3.2,6.4-4.9,9.4c-1.5,2.7-3.2,5.5-4.9,8.4c-5.3,8.9-10.7,18-13.8,27.9c-0.3,0-0.5,0-0.8,0l-0.4,0
		c-11.2,0.4-22.6,2-33.7,3.7c-7.1,1-14.4,2.1-21.6,2.8c-16.6,1.6-33,5.6-48.8,9.4l-9.4,2.3c-25.1,6-59.4,14.1-70.1,41.1
		c-6.4,16.1,1.8,31.5,8.5,41.7c5,7.6,10.6,15,15.9,22.1c5.9,7.8,12,15.9,17.3,24.3c7.7,12.1,18,22.2,28,32c2,1.9,3.9,3.9,5.9,5.8
		l3.8,3.8c9.6,9.6,19.4,19.6,31.1,27.3c-2.3,17.3-5,34.9-7.6,51.9c-2.8,18.1-5.6,36.7-8,55.1l-0.3,2.6c-3.7,28.1-7.9,59.9,20.2,78.8
		c9.1,6.1,19.7,9.3,31.5,9.5c20.9,0.3,42.8-8.9,59.6-17c13.6-6.6,26.9-14.3,39.7-21.8c2.8-1.6,5.6-3.3,8.4-4.9l1-0.6
		c7.1-4.1,14.4-8.3,21.8-12.1l0.5-0.3c5.7-2.9,9.1-4.6,12.4-4.5c2.6,0,5.3,1.1,9.3,3.6c25.2,15.7,53.2,29.7,88.2,44
		c2.9,1.2,5.8,2.4,8.9,3.8c14.9,6.4,31.8,13.7,48.4,13.9l0,0c9.8,0.1,18.4-2.2,26.1-7c30.4-19,24.5-51.7,19.3-80.6l0-0.2
		c-2.3-12.8-3.6-26.2-4.9-39c-0.4-4.4-0.9-8.9-1.3-13.3c-0.4-4.1-1-8.3-1.5-12.4c-0.8-6-1.5-12.3-2.1-18.4
		c-0.3-3.7-0.3-7.5-0.3-11.1c0-4.7,0-9.5-0.6-14.4c-0.1-0.5-0.2-1-0.3-1.5c12.6-10.6,23.5-23.3,33.3-34.6c6.3-7.4,13-14.7,19.4-21.8
		c5.8-6.4,11.8-13.1,17.6-19.7c3.3-3.8,6.9-7.6,10.3-11.2c8-8.3,16.2-17,22.2-27.6C594.5,270.6,596.3,258.2,594.3,242.1z
		 M471.5,393.9c-1.6,1.4-2.1,3.4-1.5,5.3c0,0.5,0,1,0.1,1.5c1,6.9,1.4,14.2,1.8,21.2c0.4,7,0.8,14.2,1.8,21.3
		c1.6,11.3,2.5,22.8,3.4,34c0.5,5.9,1,11.9,1.5,17.9c0.5,4.7,1.2,9.8,2.1,15.2c4.2,27.8,9,59.2-21.5,66.2c-3.4,0.8-7,1.1-10.7,1.1
		c-16.1-0.2-32.6-8-48.5-15.5c-6.8-3.2-13.3-6.3-19.6-8.7c-9.1-3.4-17.9-8.2-26.4-12.8c-5-2.7-10.1-5.5-15.3-8
		c-5.8-2.8-11.3-6.4-16.7-9.9c-6.3-4.1-12.7-8.3-19.8-11.4c-1.6-0.7-3.4-1.1-5.3-1.1c-6-0.1-12.3,3.3-17.3,5.9
		c-1.4,0.8-2.8,1.5-4.1,2.1c-10.4,4.9-20.4,11-30.1,16.9c-4.2,2.5-8.5,5.2-12.7,7.6l-4.5,2.6c-22.6,13.2-48.1,28.1-73.6,27.8
		c-5.6-0.1-10.9-0.9-16-2.5c-30.2-9.3-24.8-43.7-20.6-71.3c0.5-2.9,0.9-5.8,1.3-8.4c0.6-4.2,1.2-8.3,1.8-12.5
		c1.9-12.9,3.8-26.2,5.1-39.4c0.3-3.2,0.7-6.4,1.1-9.6c1.2-10.7,2.5-21.7,2.4-32.6c1.7-0.6,3-2,3.6-3.8c0.8-2.5,0-5.1-2.2-6.7
		c-9.7-7.1-18-16.3-26-25.3c-1.7-1.9-3.4-3.8-5.1-5.7c-4.1-4.5-8.5-9-12.7-13.2c-6-6.1-12.2-12.5-17.8-19.1
		c-5.1-6.1-9.4-13-13.6-19.7c-3.3-5.3-6.7-10.8-10.5-15.9c-1.9-2.5-4.1-5.2-6.5-8c-9.4-11.2-20-23.9-16.7-36.5
		c5.6-21.6,39.7-28.9,62.2-33.7c3.3-0.7,6.4-1.4,9.1-2c18.5-4.4,34.2-7.6,50.6-9.1c6.5-0.6,13.1-1.6,19.5-2.6
		c8.8-1.4,17.9-2.8,26.6-3c0.3,0,0.6,0,0.8-0.1c1.1,1.1,2.6,1.7,4.3,1.7c3.5,0,6.4-2.4,6.8-5.8c1.6-11.3,9.5-23.2,16.5-33.7
		c2.5-3.7,4.8-7.2,6.9-10.6c2-3.4,3.9-6.9,5.6-10.2c1.9-3.6,3.8-7.3,6-10.7c2.6-4.3,5.7-8.4,8.7-12.5c2.9-3.9,5.8-7.8,8.5-12
		c2.8-4.4,5.4-9,7.9-13.5c5.3-9.4,10.2-18.2,17.1-26c7-8,18.7-12.6,31.1-12.5c4.8,0.1,9.3,0.8,13.4,2.3
		c19.3,6.9,29.3,31.2,37.4,50.7c1.3,3.1,2.5,6,3.7,8.7c3,7,6.6,13.8,10,20.4c3.8,7.3,7.7,14.8,10.8,22.4
		c5.8,14.1,12.6,28.5,22.1,38.9c1.4,1.5,3,2.5,4.8,2.9c0.7,0.6,1.5,1,2.3,1.4c3.1,1.3,6.2,1.5,8.6,1.6c1.2,0,2.5,0,3.8-0.1
		c8.3-0.3,16.6,1.3,24,2.6c15.5,2.8,32.1,6,48.6,10.6c7.5,2.1,15.1,4.6,22.4,7.1c7.2,2.4,14.7,4.9,22.2,7c1.2,0.3,2.4,0.7,3.7,1
		c12.4,3.4,26.4,7.1,30.4,18.7c5.3,15.4-2.3,30.8-9.6,41.1c-3.2,4.5-7.5,8.7-11.7,12.7c-1.3,1.3-2.6,2.5-3.9,3.8
		c-2.9,2.9-5.5,6.1-7.9,9.1c-2.6,3.3-5.1,6.3-8,9.1c-11.4,11-21.4,23.7-31.1,35.9C495.7,368.1,484.5,382.2,471.5,393.9z"/>
	<path class="st1" d="M204.7,198.3c0.3-0.2,0.5-0.4,0.7-0.8c2.2-5.5,5.2-10.3,8.2-15.4c3.2-5.3,4.9-11.2,7.1-16.9
		c0.4-1-1.2-1.8-1.7-0.8c-3,6.1-5.6,12.2-9.3,17.9c-2.7,4.1-4.9,8.2-6.6,12.7c-0.2,0-0.3-0.1-0.5-0.1c-23,1.9-45.2,8.6-67.7,13.1
		c-1.8,0.4-1.1,3,0.7,2.7c22.5-2.8,44.3-8.9,66.9-10.7C203.6,200,204.4,199.2,204.7,198.3z"/>
	<path class="st1" d="M222.7,172.3c-2,5.7-6.6,10.8-9.5,16.1c-2.6,4.8-4.9,9.8-7.6,14.7c-0.5-0.4-1.2-0.5-2-0.2
		c-15.3,5.1-31.1,6-46.8,9.1c-1.8,0.4-1.1,2.9,0.6,2.7c15.7-2.3,32.2-1.6,47.4-6.7c0.9-0.3,1.4-0.9,1.7-1.6c0.5,0,0.9-0.2,1.3-0.7
		c3.5-5.7,6.2-11.7,9-17.8c2.3-5,6-9.7,7.2-15.2C224.3,171.9,223,171.4,222.7,172.3z"/>
	<path class="st1" d="M175.8,299.9c-5.4,4.4-11.3,8.1-16.8,12.4c-0.8,0.7,0.2,2,1.1,1.5c6-3.6,11.7-8.1,17.1-12.5
		C178.2,300.5,176.8,299.1,175.8,299.9z"/>
	<path class="st1" d="M181.2,303.4c-6.4,7.1-14.5,12.3-21.6,18.6c-1,0.9,0.4,2.5,1.5,1.6c7-6.4,15-11.8,21.2-19.1
		C182.8,303.8,181.8,302.6,181.2,303.4z"/>
	<path class="st1" d="M150.2,344.2c9.9-10.3,21.2-19.1,30.2-30.2c0.3-0.4-0.4-1-0.7-0.6c-9.2,10.9-20.7,19.4-30.9,29.3
		C147.7,343.6,149.2,345.2,150.2,344.2z"/>
	<path class="st1" d="M188.5,317.6c-5.4,8-13.2,13.5-20.4,19.7c-7.1,6.2-14.6,12.3-21.2,19c-1,1,0.4,2.5,1.5,1.6
		c7.6-6.9,15-14.2,22.6-21.1c6.5-5.9,13.4-11.2,18.2-18.8C189.5,317.6,188.8,317.2,188.5,317.6z"/>
	<path class="st1" d="M187,336.7c1.2-1.2-0.6-3-1.7-1.9c-14.5,13.9-29.1,27.6-43.4,41.6c-1.4,1.3,0.6,3.4,2,2.1
		C158.8,365.2,172.7,350.6,187,336.7z"/>
	<path class="st1" d="M187.8,347.2c-11,14.3-26.9,24.6-39,38c-1.1,1.2,0.5,3,1.8,1.9c7.8-7.4,15.3-15.2,23.2-22.6
		c4.9-4.7,12.2-10.2,15.3-16.5C189.4,347.1,188.4,346.5,187.8,347.2z"/>
	<path class="st1" d="M148.7,405.8c13.4-13.8,28-27.2,39.9-42.3c0.8-1-0.9-2.1-1.7-1.1c-12,14.8-26.9,27.6-40.1,41.3
		C145.6,405.1,147.5,407.1,148.7,405.8z"/>
	<path class="st1" d="M142.7,427.9c13.7-19.3,33.7-34.1,49.3-51.9c0.8-0.9-0.5-2.4-1.4-1.4c-16,17.6-37,32.1-50.5,51.8
		C139,427.9,141.6,429.4,142.7,427.9z"/>
	<path class="st1" d="M198.4,384.8c-15.5,22.7-39.5,39.2-58,59.4c-1.5,1.6,0.8,4.1,2.3,2.5c10.4-11.1,21.2-21.8,32.1-32.5
		c9.1-8.9,18.5-17.4,24.7-28.7C199.8,384.8,198.8,384.1,198.4,384.8z"/>
	<path class="st1" d="M194.3,405.8c-8.4,10.5-18.1,19.6-27.9,28.8c-9,8.5-17,18.4-25.4,27.6c-1.3,1.5,0.7,3.7,2.1,2.3
		c9.8-9.8,18-21,27.9-30.7c8.7-8.6,17.4-17.1,24.6-27.1C196.2,405.8,194.9,405.1,194.3,405.8z"/>
	<path class="st1" d="M188.7,423.8c-16.4,20.6-35.5,38.8-52,59.3c-1.2,1.5,1.4,3.6,2.6,2.1c16.9-20.3,35.4-39.2,51.6-60.1
		C192,423.8,189.8,422.5,188.7,423.8z"/>
	<path class="st1" d="M136.2,505.1c16.5-18.9,34.4-36.5,49.1-56.8c1-1.4-1.2-2.7-2.2-1.4c-14.9,20-33.1,36.9-49.2,55.8
		C132.5,504.3,134.8,506.8,136.2,505.1z"/>
	<path class="st1" d="M174.8,468.4c-11.6,18-27.2,32.9-39.3,50.5c-1.2,1.7,1.5,3.3,2.7,1.7c12.7-17.1,27.3-32.9,38.6-51
		C177.6,468.4,175.7,467.1,174.8,468.4z"/>
	<path class="st1" d="M175.3,483.8c-10.8,19.5-27.8,35.1-40.4,53.5c-1.2,1.7,1.5,3.3,2.7,1.7c13-17.8,29.5-34.2,40-53.7
		C178.5,483.7,176.1,482.2,175.3,483.8z"/>
	<path class="st1" d="M175.3,503.7c-9.9,16.1-22.9,30.6-34.1,45.8c-1.3,1.7,1.5,3.3,2.7,1.7c6.5-7.9,11.7-16.9,18.3-24.7
		c5.7-6.7,10.9-13.8,15.5-21.3C178.8,503.6,176.3,502.1,175.3,503.7z"/>
	<path class="st1" d="M173.9,532.7c-6.6,8.5-12.6,17.1-18.3,26.2c-0.8,1.2,1,2.8,2,1.7c3.1-3.6,4.9-8.1,7.7-11.9
		c3.5-4.9,7-9.8,10.7-14.6C177,532.7,174.9,531.5,173.9,532.7z"/>
	<path class="st1" d="M185.6,544.2c-2.1,2.3-3.7,4.9-5.1,7.6c-0.8,1.6,1.6,2.7,2.3,1c1.1-2.7,2.3-5.3,4.1-7.6
		C187.5,544.6,186.3,543.5,185.6,544.2z"/>
	<path class="st1" d="M513,337.8c8.7-13,20.9-22.8,31.9-33.9c9.5-9.6,16.5-21,24.6-31.7c12.1-16.1,3-36.1-14.7-42.8
		c-2.3-0.9-3.2,2.6-1.1,3.5c11.4,4.9,19.9,15.6,17.2,28.5c-2,9.7-12.7,20.4-18.4,28.2c-12.4,17-30.2,29-41.3,47
		C510.4,337.8,512.2,338.9,513,337.8z"/>
	<path class="st1" d="M520.1,312.9c13.2-8.9,25.2-24.1,34.2-37.2c7.7-11.3,9.3-28.4-3.4-36.8c-2.1-1.4-4.1,1.9-2,3.2
		c17.8,12.1,2.5,33.5-7.1,44.8c-7,8.2-13.8,18-22.6,24.4C518.3,312,519.2,313.6,520.1,312.9z"/>
	<path class="st1" d="M533.5,290.5c1.7-3.6,5-6.3,7.4-9.5c2.5-3.4,4.4-7.1,6.1-11c2.8-6.5,3.1-11.9-1.3-17.7
		c-1.1-1.5-3.6,0.4-2.6,1.9c5.3,7.9,1.2,15.9-3,23.4c-2.5,4.3-6.4,7.5-8.4,12C531.1,290.7,533,291.5,533.5,290.5z"/>
	<path class="st1" d="M464.6,458c2.6,16.9,5.7,33.6,6.9,50.7c0.8,11.3,0.9,23.6,5.3,34.2c0.6,1.5,3.1,0.5,2.6-1
		c-4-12.1-3.3-25.1-5-37.5c-2.2-15.8-5.3-31.1-8.4-46.7C465.8,456.8,464.5,457.1,464.6,458z"/>
	<path class="st1" d="M466.9,529.6c-1-10.3-2.4-20.6-4-30.9c-0.2-1.3-2.1-0.8-1.9,0.5c2,14.5,3.3,29.1,4.2,43.7
		c0.3,5.5,0.1,11.9,3.7,16.4c0.7,0.9,2.4,0,2-1.1C467.5,549.1,467.8,539,466.9,529.6z"/>
	<path class="st1" d="M455.3,523.3c0-1.4-2.1-1.5-2.2-0.1c-0.2,6.1,0.6,11.9,1.7,17.8c1.4,7.9,1.5,15.8,2.7,23.7
		c0.3,1.9,3,1.1,2.8-0.7c-0.7-6-1-12-2-17.9C457.2,538.4,455.2,531.1,455.3,523.3z"/>
	<path class="st1" d="M446.3,536.6c-0.2-1.6-2.6-1-2.4,0.6c0.6,4.7,1.2,9.3,2.1,14c0.8,4.2,0.8,8.6,2.2,12.6
		c0.6,1.8,3.5,1.2,2.9-0.7C448.7,554.5,447.6,545.4,446.3,536.6z"/>
	<path class="st1" d="M362.8,105.8c0.1-1.4-2.1-1.5-2.2-0.1c-0.4,7-5.5,14-8.7,20.2c-4,7.7-8.6,15.2-12.6,22.8
		c-0.8,1.5,1.4,2.9,2.2,1.4c5-9.6,10.6-19,15.3-28.8C359.3,116.2,362.6,111.6,362.8,105.8z"/>
	<path class="st1" d="M364.4,122.9c-5.1,12.2-11.9,23.5-17.9,35.2c-0.8,1.6,1.4,3,2.3,1.5c6.6-11.7,13-23.5,18-35.9
		C367.4,122.1,365,121.4,364.4,122.9z"/>
	<path class="st1" d="M366.6,135.3c-5,12.2-11.2,23.6-17.5,35.1c-0.9,1.6,1.5,3,2.4,1.5c6.5-11.6,12.4-23.5,16.8-36.1
		C368.7,134.7,367,134.2,366.6,135.3z"/>
	<path class="st1" d="M366.6,151.1c-3.5,9-7.3,17.6-12.3,25.9c-0.9,1.5,1.3,2.8,2.2,1.4c5.4-8.1,8.7-17.6,12-26.7
		C369.1,150.4,367.1,149.8,366.6,151.1z"/>
	<path class="st1" d="M367.4,166.9c-1.2,3.1-2.4,6.1-3.4,9.3c-0.5,1.7,2.1,2.5,2.6,0.8c1-3.2,2.2-6.2,3.3-9.3
		C370.5,166,368,165.3,367.4,166.9z"/>
	<path class="st1" d="M374.4,171.1c-2.6,5.4-5,11.2-6.9,16.9c-0.5,1.5,1.8,2.6,2.5,1.2c2.9-5.3,4.3-11.4,6.8-16.9
		C377.4,170.9,375,169.8,374.4,171.1z"/>
	<path class="st1" d="M377.5,180.9c-0.8,2-1.7,3.9-2.8,5.8c-0.9,1.4,1.3,2.7,2.1,1.3c1.2-2,2.1-4.2,3-6.4
		C380.4,180.1,378.1,179.5,377.5,180.9z"/>
	<path class="st1" d="M381.1,186.9c-0.5,1.4-1.2,2.7-1.7,4.1c-0.7,1.9,2.3,2.8,3,0.9c0.5-1.4,1.2-2.7,1.7-4
		C384.9,185.9,381.8,185,381.1,186.9z"/>
</g>
</svg>
