<?xml version="1.0" encoding="utf-8"?>
<!-- Generator: Adobe Illustrator 22.0.0, SVG Export Plug-In . SVG Version: 6.00 Build 0)  -->
<svg version="1.1" id="Layer_1" xmlns="http://www.w3.org/2000/svg" xmlns:xlink="http://www.w3.org/1999/xlink" x="0px" y="0px"
	 viewBox="0 0 800 600" style="enable-background:new 0 0 800 600;" xml:space="preserve">
<style type="text/css">
	.st0{fill:url(#SVGID_1_);}
	.st1{fill:#FFFFFF;}
	.st2{fill:#D2B420;}
	.st3{fill:#C0A01D;}
	.st4{fill:#F3DB22;}
	.st5{fill:#E5C823;}
	.st6{fill:#E7E7E7;}
	.st7{fill:#66C1C6;}
	.st8{fill:#266363;}
	.st9{fill:#501627;}
	.st10{fill:#F56A82;}
</style>
<radialGradient id="SVGID_1_" cx="399.9" cy="300.5" r="308.7335" gradientTransform="matrix(1 0 0 -1 0 600)" gradientUnits="userSpaceOnUse">
	<stop  offset="0" style="stop-color:#000000;stop-opacity:0.5"/>
	<stop  offset="1" style="stop-color:#020202;stop-opacity:0"/>
</radialGradient>
<circle class="st0" cx="399.9" cy="299.5" r="308.7"/>
<path class="st1" d="M432,337.4c-7-5-11.2-12.8-11.4-21h0.2c0.2-8.2,4.4-16,11.4-21.1c29.7-21.3,36.3-36.8,44-49.3
	c1.5-2.5,10.2-22.4,7.6-46.3c-1.5-13.8-14.2-24.1-28.4-24.1h-54.9h-1h-54.9c-14.2,0-26.9,10.3-28.4,24.1c-2.6,24,6.1,43.9,7.6,46.3
	c7.8,12.5,14.3,28,44,49.3c7,5,11.2,12.8,11.4,21.1h-0.2c-0.2,8.2-4.4,16-11.4,21c-29.7,21.2-36.3,36.7-44,49.2
	c-1.5,2.4-10.2,22.3-7.6,46.2c1.5,13.8,14.2,24,28.4,24h54.9h1h54.9c14.2,0,26.9-10.2,28.4-24c2.6-23.9-6.1-43.8-7.6-46.2
	C468.3,374.2,461.8,358.6,432,337.4z M448.8,438.1H351c-7.3,0-10.8-9-5.4-13.9l48.9-44.6c3.1-2.8,7.7-2.8,10.8,0l48.9,44.6
	C459.6,429.2,456.1,438.1,448.8,438.1z"/>
<g>
	<path class="st2" d="M273.6,423.7l0-3.3c0,0-8.6,0.6-14,10.4c-4.7,8.6,3.3,8.9,5.7,3.4C267.9,428.7,273.6,423.7,273.6,423.7z"/>
	<path class="st3" d="M272.5,420.6c0,0-2.7,5.6-5.6,8.5c-3,2.9-3.8,7.3-6,7.6c-2.2,0.3-2.5-2.3-2.5-2.3c-0.8,4.8,5.1,4.3,7.1-0.3
		c2.5-5.5,8.2-10.5,8.2-10.5l0-3.3L272.5,420.6z"/>
	<path class="st2" d="M317.4,414.2l1,3.1c0,0,8-3.4,9.9-14.3c1.7-9.7-6-7.4-6.5-1.4C321.2,407.5,317.4,414.2,317.4,414.2z"/>
	<path class="st3" d="M323,412.3c-4.1,3.6-5.1,0.9-5.1,0.9l-0.5,0.9l1,3.1c0,0,8-3.4,9.9-14.3C328.3,403,327,408.7,323,412.3z"/>
	<path class="st2" d="M287.9,441.1c0,0-1.1,13.7-3.1,14.6c-2,0.9-1.3,1.5,3.5,1.5c4.8,0,5.7-0.5,6-4.4c0.2-4-1.2-10.4-1.2-10.4
		L287.9,441.1z"/>
	<path class="st2" d="M307.4,455.8c-2-0.9-3.1-14.6-3.1-14.6l-5.2,1.4c0,0-1.4,6.4-1.2,10.4c0.2,4,1.2,4.4,6,4.4
		C308.7,457.4,309.4,456.7,307.4,455.8z"/>
	<path class="st3" d="M293.3,451.9c-0.8,4-3.8,5.8-8.4,5.3c0.7,0.1,1.9,0.2,3.4,0.2c4.8,0,5.7-0.5,6-4.4c0.2-4-1.2-10.4-1.2-10.4
		l-5.2-1.4c0,0,0.8,0.8,2.7,1.6C292.4,443.6,294.1,447.8,293.3,451.9z"/>
	<path class="st3" d="M304.5,449.2c0.4,3.9,3,8.2-2.3,8.1l0,0c0.5,0,1.1,0,1.8,0c4.8,0,5.5-0.6,3.5-1.5c-2-0.9-3.1-14.6-3.1-14.6
		l-5.2,1.4c0,0,1.4,0.5,2.6,0.5S304.1,445.3,304.5,449.2z"/>
	<path class="st4" d="M323,429.9c-1.3-7.1-4.5-15.3-5.6-18c0.8,1.2,2.6,1.8,2.6,1.8c-1.1-8.7-5.5-16.8-5.5-16.8
		c1.1,2,3.4,2.1,3.4,2.1c-2.6-7.6-7.1-7.3-7.1-7.3c2-1.9,0.7-4.8,0.7-4.8c-1.3,3.4-6,3.9-6,3.9h-17.7c0,0-4.8-0.5-6-3.9
		c0,0-1.3,2.9,0.7,4.8c0,0-4.5-0.2-7.1,7.3c0,0,2.2-0.2,3.4-2.1c0,0-4.4,8.1-5.5,16.8c0,0,1.8-0.5,2.6-1.8c-1.1,2.7-4.3,10.9-5.6,18
		c0,0,1.4-0.2,2.4-1.3c-1.2,2.8-2.9,8.5-0.6,14c0,0,1.4-0.8,1.3-3.2c0,0.9,0.1,2.4,0.1,2.4s1.6,2.9,4.5,3.4c0,0-0.6-1.3-1.1-3l0,0
		c0.8,0.3,1.6,0.4,2.5,0.4h34.5c0.9,0,1.7-0.2,2.5-0.4l0,0c-0.5,1.8-1.1,3-1.1,3c3-0.5,4.5-3.4,4.5-3.4s0.1-1.5,0.1-2.4
		c-0.1,2.4,1.3,3.2,1.3,3.2c2.3-5.5,0.6-11.3-0.6-14C321.5,429.7,323,429.9,323,429.9z"/>
	<path class="st5" d="M276.7,442.2c0.8,0.3,1.6,0.4,2.5,0.4h34.5c0.9,0,1.7-0.2,2.5-0.4l0,0c-0.5,1.8-1.1,3-1.1,3
		c3-0.5,4.5-3.4,4.5-3.4s0.1-1.5,0.1-2.4c-0.1,2.4,1.3,3.2,1.3,3.2c2.3-5.5,0.6-11.3-0.6-14c1,1.1,2.4,1.3,2.4,1.3
		c-1.3-7.1-4.5-15.3-5.6-18c0.8,1.2,2.6,1.8,2.6,1.8c-1.1-8.7-5.5-16.8-5.5-16.8c1.1,2,3.4,2.1,3.4,2.1c-2.6-7.6-7.1-7.3-7.1-7.3
		c2-1.9,0.7-4.8,0.7-4.8c-1.3,3.4-6,3.9-6,3.9h-17.7c0,0,18.4-0.9,24.3,3.7c0,0-1.8,0.7-3.3,0.2c0,0,9.9,14.2,11.5,31.3
		c0,0-1.9-0.8-2.8-2.4c0,0,3.7,12.4,0.4,18.6c0,0-1-1.8-1.4-3.9C316.3,438.3,311.1,442.8,276.7,442.2z"/>
	<g>
		<path class="st1" d="M312.1,411c0.2,4.3-3,8-7.4,8.3c-4.3,0.2-8-3-8.3-7.4c-0.2-4.3,3-8,7.4-8.3
			C308.2,403.4,311.9,406.7,312.1,411z"/>
		<path class="st6" d="M312.1,411c0-0.4-0.1-0.9-0.2-1.3c0,0.1,0,0.2,0,0.4c0.2,4.3-3,8-7.4,8.3c-3.9,0.2-7.3-2.4-8.1-6.1
			c0.4,4.1,4,7.3,8.2,7C309.1,419.1,312.4,415.4,312.1,411z"/>
		<path class="st7" d="M307.7,411c0.1,1.7-1.2,3.2-2.9,3.2c-1.7,0.1-3.2-1.2-3.2-2.9c-0.1-1.7,1.2-3.2,2.9-3.2
			C306.1,408,307.6,409.3,307.7,411z"/>
		<path class="st8" d="M306.3,411.1c0,0.9-0.7,1.7-1.6,1.8c-0.9,0-1.7-0.7-1.8-1.6c0-0.9,0.7-1.7,1.6-1.8
			C305.4,409.4,306.3,410.2,306.3,411.1z"/>
		<path class="st1" d="M306.7,409.8c0,0.5-0.4,1-0.9,1c-0.5,0-1-0.4-1-0.9c0-0.5,0.4-1,0.9-1C306.2,408.9,306.7,409.3,306.7,409.8z"
			/>
		<path class="st1" d="M295.1,411c0.2,4.3-3,8-7.4,8.3c-4.3,0.2-8-3-8.3-7.4s3-8,7.4-8.3C291.1,403.4,294.8,406.7,295.1,411z"/>
		<path class="st6" d="M295.1,411c0-0.4-0.1-0.9-0.2-1.3c0,0.1,0,0.2,0,0.4c0.2,4.3-3,8-7.4,8.3c-3.9,0.2-7.3-2.4-8.1-6.1
			c0.4,4.1,4,7.3,8.2,7C292,419.1,295.3,415.4,295.1,411z"/>
		<path class="st7" d="M290.6,411c0.1,1.7-1.2,3.2-2.9,3.2c-1.7,0.1-3.2-1.2-3.2-2.9c-0.1-1.7,1.2-3.2,2.9-3.2
			C289.1,408,290.5,409.3,290.6,411z"/>
		<path class="st8" d="M289.3,411.1c0,0.9-0.7,1.7-1.6,1.8c-0.9,0-1.7-0.7-1.8-1.6c0-0.9,0.7-1.7,1.6-1.8
			C288.4,409.4,289.2,410.2,289.3,411.1z"/>
		<path class="st1" d="M289.7,409.8c0,0.5-0.4,1-0.9,1c-0.5,0-1-0.4-1-0.9c0-0.5,0.4-1,0.9-1C289.2,408.9,289.6,409.3,289.7,409.8z"
			/>
	</g>
	<g>
		<path class="st9" d="M295,430.2c3,0,5-0.3,5.7-1.2c0.7-0.8,3.4,0.3,1.8,3c-1.6,2.6-5.3,2.9-7.5,2.8c-2.2,0-7.6-2.3-6.5-5
			C289.6,427.3,292.4,430.2,295,430.2z"/>
		<path class="st10" d="M291.7,434.1c0,0,3.1-3.2,9-0.2C300.7,433.8,296.5,436.3,291.7,434.1z"/>
		<path class="st1" d="M291.7,429.3c0,0-0.1,1.7,0.3,1.9c0.4,0.2,0.5-0.6,0.5-0.6s2.4,0.9,6,0.3c0,0,0,0.6,0.3,0.6
			c0.3,0,0.7-1.7,0.7-1.7s-1.2,0.5-3.8,0.5C293.9,430.3,291.7,429.3,291.7,429.3z"/>
	</g>
</g>
</svg>
