<?xml version="1.0" encoding="utf-8"?>
<!-- Generator: Adobe Illustrator 22.0.0, SVG Export Plug-In . SVG Version: 6.00 Build 0)  -->
<svg version="1.1" id="Layer_1" xmlns="http://www.w3.org/2000/svg" xmlns:xlink="http://www.w3.org/1999/xlink" x="0px" y="0px"
	 viewBox="0 0 414.5 210.7" style="enable-background:new 0 0 414.5 210.7;" xml:space="preserve">
<style type="text/css">
	.st0{fill:#9A62BF;stroke:#8B57AD;stroke-width:7;stroke-miterlimit:10;}
	.st1{fill:#582D7A;}
	.st2{fill:#4C296B;}
	.st3{fill:#753B95;}
	.st4{fill:#663386;}
	.st5{fill:#FFFFFF;}
	.st6{fill:#E7E7E7;}
	.st7{fill:#B0D133;}
	.st8{fill:#5B6D13;}
	.st9{fill:#501627;}
	.st10{fill:#F56A82;}
</style>
<path class="st0" d="M270.7,39.5c-1.2-7-2.8-12-4.5-15.2c0,0,0,0,0,0c-1.2-2.4-2.6-3.9-3.9-4.7c0,0,0,0-0.1,0
	c-0.4-0.2-0.8-0.4-1.2-0.5c0,0-0.1,0-0.1,0c-0.2,0-0.4,0-0.6,0c-0.1,0-0.1,0-0.2,0c-0.1,0-0.2,0-0.3,0c-0.1,0-0.3,0.1-0.4,0.1
	c-0.1,0-0.2,0.1-0.3,0.1c-0.1,0-0.2,0.1-0.3,0.1c-0.1,0-0.2,0.1-0.3,0.2c-0.1,0.1-0.3,0.2-0.4,0.3c-0.1,0.1-0.1,0.1-0.2,0.2
	c-0.2,0.1-0.3,0.3-0.5,0.4c0,0-0.1,0.1-0.1,0.1c-0.1,0.1-0.3,0.3-0.4,0.4c0,0-0.1,0.1-0.1,0.1c-0.2,0.2-0.3,0.4-0.5,0.6
	c0,0-0.1,0.1-0.1,0.2c-0.3,0.5-0.7,1-1,1.6c0,0,0,0.1-0.1,0.1c-0.2,0.3-0.3,0.6-0.4,1c0,0,0,0,0,0c-0.3,0.7-0.6,1.4-0.8,2.2
	c0,0,0,0,0,0.1c-0.4,1.2-0.7,2.5-0.9,3.9c0,0,0,0,0,0c-0.1,0.9-0.3,1.9-0.3,2.9c0,0,0,0,0,0.1c0,0.5-0.1,1-0.1,1.5c0,0,0,0,0,0
	c0,1,0,2,0,3.1c0,0.1,0,0.1,0,0.2c0,0.5,0.1,1,0.1,1.5c0,0,0,0,0,0c0.1,0.5,0.1,1,0.2,1.5c0,0.1,0,0.1,0,0.2c0.1,0.5,0.2,1,0.2,1.5
	c0,0.1,0,0.2,0.1,0.3c0.1,0.5,0.2,1,0.3,1.5c0.7,3,1.3,6.1,1.7,9.3c-5.2-5.3-10.7-9-15.9-11.6c-12.1-6.1-22.5-6.1-24.2-6.1
	c-0.1,0-0.1,0-0.1,0c-0.1,0-0.1,0-0.1,0c2.2-0.2,3.7-3,3.7-3c-9.2-3-16.9,1.6-16.9,1.6s-9.1-2.4-12.5-7c0,0-2.9,5.8,2.5,8.7
	c0,0-11.2-4.6-25.7,2.1c0,0,4.2,2.9,8.7,2.9c0,0-16.3,0.3-30.8,16.9c0.5-4.7,1.3-9.4,2.3-13.8c1.1-4.8,1.3-9.5,0.7-13.6
	c0-0.1,0-0.1,0-0.2c-2.1-14.6-12.9-20.7-18,8.2c-5.3,30.3,1.3,51.7,5.4,61.2c-0.3,5.9,0.3,12.9,2.6,20.8c0,0,1.6-0.1,2-8
	c0,0,4.4,29.7,21.2,42.5c0,0,2.1-3.7-0.4-9.3c0,0,10.9,10.3,12.2,17.1c0,0,0,0,0,0c0,0,0,0,0,0c0,0,2.4-4.2,0.8-8.6
	c0.3,0.2,2,1.3,5.2,2.6c-0.3,3.6-3.1,36.3-8.1,38.6c-3.6,1.7-3.9,3,0.5,3.6c-0.1,0-0.1,0-0.2,0c1.6,0.2,3.8,0.4,6.6,0.4
	c0.1,0,0.3,0,0.4,0c0.2,0,0.5,0,0.7,0c0.4,0,0.8,0,1.3,0c12.7,0,15.2-1.3,15.8-11.8c0.6-10.1-2.9-26-3.2-27.4c2.8,0.4,6,0.6,9.4,0.6
	c0,0,0,0,0,0c0,0,0,0,0,0c2.3,0,4.5-0.1,6.5-0.3c-0.6,2.6-3.7,17.5-3.1,27.1c0.6,10.6,3.1,11.8,15.8,11.8c0,0,0,0,0,0c0,0,0,0,0,0
	c3.2,0,5.7-0.1,7.6-0.3c5.4-0.5,5.7-1.8,2.3-3.5c-0.2-0.1-0.4-0.2-0.6-0.3c-2.1-1-3.9-7.6-5.2-15.1c-0.2-1.2-0.4-2.3-0.6-3.5
	c-0.2-1.2-0.4-2.4-0.5-3.5c-0.3-2.3-0.6-4.6-0.8-6.7c-0.1-1-0.2-2-0.3-3c-0.3-2.6-0.5-4.7-0.6-5.9c6-2,9.4-4.2,9.8-4.4
	c-1.1,3.8,2.3,7.6,2.3,7.6c0,0,0,0,0,0c0,0,0,0,0,0c0.2-5.3,6.1-12.2,8.1-14.4c-2.2,3.1,0.2,8.3,0.2,8.3c0,0,0,0,0,0c0,0,0,0,0,0
	c6-5.1,10.2-15.1,12.1-20.4c-0.4,3.6,1.9,6.1,1.9,6.1c0,0,0,0,0,0c0,0,0,0,0,0c7.6-8.2,7.7-27.5,7.7-29.7c0.6,5.2,5,9.5,5,9.5
	c0,0,0,0,0,0c0,0,0,0,0,0c1.8-9.5,0.5-19.3-1.3-26.9C271.4,83.1,275,64.3,270.7,39.5z M143.2,66.4c0-0.5,0.1-0.9,0.1-1.4
	c0.6-0.2,1.3-0.5,2-0.9C144.6,64.7,143.9,65.5,143.2,66.4z M256,61.6c-4-4.5-7.4-7.4-7.4-7.4c5.5,1.9,6.4,0.6,6.5,0.2
	C255.5,56.9,255.8,59.3,256,61.6z"/>
<path class="st1" d="M178,157.5c0,0-2.9,36.5-8.2,39c-5.3,2.5-3.4,4,9.3,4s15.2-1.3,15.8-11.8c0.6-10.6-3.2-27.5-3.2-27.5L178,157.5
	z"/>
<path class="st1" d="M256.7,96.8l5.9,9.4c0,0,15.5-24.8,8.1-66.8c-6.5-37.2-22.5-16.6-17.3,5.6C258.6,67.2,256.7,96.8,256.7,96.8z"
	/>
<path class="st2" d="M253.4,45c5.2,22.2,3.3,51.8,3.3,51.8l8.8,3.3c2.9-14.2-6.6-42.6-7.9-50.6c-1.3-8-2.8-16.2-0.6-22.9
	s9.2-2.4,9.2-2.4C258.9,10.1,249.2,27,253.4,45z"/>
<path class="st2" d="M142.9,96.8l-5.9,9.4c0,0-15.5-24.8-8.1-66.8c6.5-37.2,22.5-16.6,17.3,5.6C141,67.2,142.9,96.8,142.9,96.8z"/>
<path class="st1" d="M146.2,45c1.2-5.6,1.3-11,0.4-15.4c-1.2-6-6.3-7.2-7.1,0c-0.3,2.7-1,8.9-0.1,12.9C140.9,49,144.7,52.3,146.2,45
	z"/>
<path class="st1" d="M229.8,196.4c-5.3-2.5-8.2-39-8.2-39l-13.8,3.6c0,0-3.8,17-3.2,27.5c0.6,10.6,3.1,11.8,15.8,11.8
	C233.3,200.5,235.1,198.9,229.8,196.4z"/>
<path class="st2" d="M192.4,186c-2,10.7-10.1,15.4-22.2,14c2,0.3,4.9,0.4,9,0.4c12.7,0,15.2-1.3,15.8-11.8
	c0.6-10.6-3.2-27.5-3.2-27.5l-13.8-3.6c0,0,2.2,2.2,7.1,4.3C189.9,163.9,194.4,175.3,192.4,186z"/>
<path class="st2" d="M222,179c0.9,10.5,8.1,21.9-6.2,21.4l0,0c1.4,0.1,2.9,0.1,4.7,0.1c12.7,0,14.6-1.6,9.3-4
	c-5.3-2.5-8.2-39-8.2-39l-13.8,3.6c0,0,3.8,1.3,7,1.3S221.1,168.5,222,179z"/>
<path class="st3" d="M263.2,80.7c2.3,3,5.8,4.8,5.8,4.8c-1.3-14.6-20.4-31.2-20.4-31.2c6.4,2.2,6.5,0.1,6.5,0.1
	c-18.6-18.9-40.3-17.7-40.3-17.7c2.2-0.2,3.7-3,3.7-3c-9.2-3-16.9,1.6-16.9,1.6s-9.1-2.4-12.5-7c0,0-2.9,5.8,2.5,8.7
	c0,0-11.2-4.6-25.7,2.1c0,0,4.2,2.9,8.7,2.9c0,0-20.3,0.4-35.7,23.2c0,0,3.1,0.9,6.3-1.1c-3.7,3.8-10.1,12-11.9,23.5
	c0,0,2.5-0.4,4.3-3.3c-2.2,5.5-6.1,19-0.7,37.2c0,0,1.6-0.1,2-8c0,0,4.4,29.7,21.2,42.5c0,0,2.1-3.7-0.4-9.3
	c0,0,10.9,10.3,12.2,17.1c0,0,2.4-4.2,0.7-8.6c0,0,9.2,6.6,28.5,6.6s30.3-7.6,30.3-7.6c-1.1,3.8,2.3,7.6,2.3,7.6
	c0.3-6.3,8.8-15.1,8.8-15.1c-3.2,2.9-0.4,9-0.4,9c6-5.1,10.3-15.2,12.2-20.4c-0.4,3.6,1.9,6.2,1.9,6.2c8.1-8.7,7.7-29.9,7.7-29.9
	c0.5,5.3,5.1,9.7,5.1,9.7C272.7,101.6,263.2,80.7,263.2,80.7z"/>
<path class="st4" d="M159.8,146.7c0,0,10.9,10.3,12.2,17.1c0,0,2.4-4.2,0.7-8.6c0,0,9.2,6.6,28.5,6.6s30.3-7.6,30.3-7.6
	c-1.1,3.8,2.3,7.6,2.3,7.6c0.3-6.3,8.8-15.1,8.8-15.1c-3.2,2.9-0.4,9-0.4,9c6-5.1,10.3-15.2,12.2-20.4c-0.4,3.6,1.9,6.2,1.9,6.2
	c8.1-8.7,7.7-29.9,7.7-29.9c0.5,5.3,5.1,9.7,5.1,9.7c3.7-19.6-5.8-40.5-5.8-40.5c2.3,3,5.8,4.8,5.8,4.8
	c-1.3-14.6-20.4-31.2-20.4-31.2c6.4,2.2,6.5,0.1,6.5,0.1c-18.7-18.9-40.4-17.7-40.4-17.7s2.2-0.2,5,2.8c2.7,3.1,6,7.4,12.8,9.6
	c6.8,2.2,23.5,10.8,28.4,24.7c0,0-4-1.2-5.8-3.6c0,0,14.8,29.8,3.9,57.6c0,0-2.7-2.8-2.2-6.7c0,0-11.5,33-51,36.4
	C174.1,160.2,159.8,146.7,159.8,146.7z"/>
<g>
	<g>
		<ellipse class="st5" cx="179.1" cy="80.1" rx="17.4" ry="17.4"/>
		<path class="st6" d="M196.5,79.1c-0.1-1-0.2-1.9-0.4-2.8c0,0.3,0.1,0.5,0.1,0.8c0.5,9.6-6.8,17.8-16.4,18.4
			c-8.6,0.5-16.1-5.4-18-13.6c1,9.2,9,16.1,18.3,15.6C189.7,96.9,197,88.7,196.5,79.1z"/>
		<path class="st7" d="M185.3,78.1c0.2,3.8-2.7,7-6.4,7.2c-3.8,0.2-7-2.7-7.2-6.4c-0.2-3.8,2.7-7,6.4-7.2
			C181.9,71.5,185.1,74.3,185.3,78.1z"/>
		<path class="st8" d="M182.2,78.3c0.1,2.1-1.5,3.9-3.5,4c-2.1,0.1-3.9-1.5-4-3.5c-0.1-2.1,1.5-3.9,3.5-4
			C180.3,74.6,182.1,76.2,182.2,78.3z"/>
		<path class="st5" d="M183.1,75.4c0.1,1.2-0.8,2.2-2,2.3c-1.2,0.1-2.2-0.8-2.3-2c-0.1-1.2,0.8-2.2,2-2.3
			C182.1,73.4,183.1,74.3,183.1,75.4z"/>
	</g>
	<g>
		<path class="st5" d="M244.8,79.1c0.5,9.6-6.8,17.8-16.4,18.4c-9.6,0.5-17.8-6.8-18.4-16.4c-0.5-9.6,6.8-17.8,16.4-18.4
			C236,62.2,244.2,69.5,244.8,79.1z"/>
		<path class="st6" d="M244.8,79.1c-0.1-1-0.2-1.9-0.4-2.8c0,0.3,0.1,0.5,0.1,0.8c0.5,9.6-6.8,17.8-16.4,18.4
			c-8.6,0.5-16.1-5.4-18-13.6c1,9.2,9,16.1,18.3,15.6C238,96.9,245.3,88.7,244.8,79.1z"/>
		<path class="st7" d="M233.6,78.1c0.2,3.8-2.7,7-6.4,7.2c-3.8,0.2-7-2.7-7.2-6.4c-0.2-3.8,2.7-7,6.4-7.2
			C230.1,71.5,233.4,74.3,233.6,78.1z"/>
		<path class="st8" d="M230.5,78.3c0.1,2.1-1.5,3.9-3.5,4c-2.1,0.1-3.9-1.5-4-3.5c-0.1-2.1,1.5-3.9,3.5-4
			C228.6,74.6,230.4,76.2,230.5,78.3z"/>
		<path class="st5" d="M231.4,75.4c0.1,1.2-0.8,2.2-2,2.3c-1.2,0.1-2.2-0.8-2.3-2c-0.1-1.2,0.8-2.2,2-2.3
			C230.4,73.4,231.4,74.3,231.4,75.4z"/>
	</g>
</g>
<g>
	<path class="st9" d="M192.2,115.1c0,0,16.1,4,24.3-8.4s25.6,11.3,3.3,24.3C197.7,144.1,183.6,129.6,192.2,115.1z"/>
	<path class="st10" d="M206.2,136c0,0-3-23.2,23.9-16.3C230.1,119.7,226.5,133.9,206.2,136z"/>
</g>
</svg>
