<?xml version="1.0" encoding="utf-8"?>
<!-- Generator: Adobe Illustrator 22.0.0, SVG Export Plug-In . SVG Version: 6.00 Build 0)  -->
<svg version="1.1" id="Layer_1" xmlns="http://www.w3.org/2000/svg" xmlns:xlink="http://www.w3.org/1999/xlink" x="0px" y="0px"
	 viewBox="0 0 1483.2 438.3" style="enable-background:new 0 0 1483.2 438.3;" xml:space="preserve">
<style type="text/css">
	.st0{fill:#C4C2C2;}
	.st1{fill:#DC519B;}
	.st2{fill:none;}
	.st3{fill:#60B7B9;}
	.st4{fill:#FFFFFF;}
	.st5{fill:#E7E7E7;}
	.st6{fill:#B0D133;}
	.st7{fill:#657718;}
	.st8{fill:#501627;}
	.st9{fill:#F56A82;}
	.st10{fill:#ECECEC;}
</style>
<g>
	<path class="st0" d="M1170.4,370.2c24.6,8.5,25.1,0.6,25.1,0.6c-21.3-21.6-43.7-36.3-64.6-46.4c22.2-35.8,28.2-77.2,29.4-104.8
		c44.9-6.1,79.5-44.6,79.5-91.1c0-50.8-41.2-92-92-92s-92,41.2-92,92c0,40.5,26.1,74.8,62.4,87.1c-0.8,24.4-6,63.6-28,93.8
		c-29.4-7.7-49.9-6.6-49.9-6.6c8.5-0.7,14.4-11.4,14.4-11.4c-35.6-11.8-65.2,6.2-65.2,6.2s-35.2-9.3-48-26.9c0,0-11.2,22.3,9.6,33.5
		c0,0-36.8-15-86.5,2.9c-19.8-28.7-25.1-65-26.3-88.8c41.1-9.2,71.8-45.9,71.8-89.8c0-50.8-41.2-92-92-92s-92,41.2-92,92
		c0,43.2,29.8,79.5,70,89.3c1.1,30.9,8.2,80.4,38.2,119.4c-26.1,12-58.2,34.2-86,75.5c0,0,12,3.4,24.2-4.4
		c-7.5,7.8-18,20.3-27.2,36.8h487.5C1209.9,404.5,1170.4,370.2,1170.4,370.2z M877.7,322.6c2.5,0.4,5.2,0.7,7.8,0.7
		c0,0-2.3,0-6.5,0.6C878.6,323.5,878.1,323,877.7,322.6z"/>
	<path class="st0" d="M1238.8,306.5c-0.1-0.2-0.2-0.5-0.3-0.7C1238.6,306.1,1238.7,306.3,1238.8,306.5z"/>
	<path class="st0" d="M1246.9,329.3c-0.1-0.5-0.2-1.1-0.4-1.7C1246.6,328.2,1246.8,328.7,1246.9,329.3z"/>
	<path class="st0" d="M1245.5,323.7c-0.2-0.5-0.3-1.1-0.5-1.6C1245.1,322.6,1245.3,323.2,1245.5,323.7z"/>
	<path class="st0" d="M1241,311.2c0.1,0.4,0.3,0.7,0.4,1C1241.3,311.9,1241.1,311.5,1241,311.2z"/>
	<path class="st0" d="M1243.6,318.1c-0.1-0.5-0.3-1-0.5-1.4C1243.3,317.2,1243.4,317.6,1243.6,318.1z"/>
	<path class="st0" d="M1238.5,455.9c-0.8-1.8-1.6-3.5-2.5-5.1C1236.9,452.5,1237.7,454.2,1238.5,455.9z"/>
	<path class="st0" d="M1241,311.2c-0.7-1.6-1.4-3.1-2.1-4.7C1239.6,308.1,1240.3,309.7,1241,311.2z"/>
	<path class="st0" d="M1247.8,333.3c-0.2-1.3-0.5-2.7-0.8-4C1247.3,330.7,1247.5,332,1247.8,333.3z"/>
	<path class="st0" d="M1241.4,312.3c0.6,1.5,1.2,2.9,1.7,4.4C1242.6,315.2,1242,313.7,1241.4,312.3z"/>
	<path class="st0" d="M1245,322.1c-0.4-1.4-0.9-2.7-1.4-4.1C1244.1,319.4,1244.5,320.7,1245,322.1z"/>
</g>
<path class="st1" d="M1177.4,363.2c24.6,8.5,25.1,0.6,25.1,0.6c-71.8-72.6-155.3-68.1-155.3-68.1c8.5-0.7,14.4-11.4,14.4-11.4
	c-35.6-11.8-65.2,6.2-65.2,6.2s-35.2-9.3-48-26.9c0,0-11.2,22.3,9.6,33.5c0,0-43.1-17.6-99,8c0,0,16,11.2,33.5,11.2
	c0,0-78.2,1.6-137.3,89.4c0,0,12,3.4,24.2-4.4c-7.5,7.8-18,20.3-27.2,36.8h487.5C1216.9,397.5,1177.4,363.2,1177.4,363.2z"/>
<path class="st1" d="M887.3,365.7c-4,0-8-1.1-11.5-3.4c-84.3-55.2-72.7-175.7-72.2-180.8c1.2-11.6,11.6-20,23.1-18.8
	c11.6,1.2,20,11.6,18.8,23.1c-0.1,1.1-9.3,100.2,53.4,141.2c9.7,6.4,12.5,19.4,6.1,29.2C900.9,362.3,894.2,365.7,887.3,365.7z"/>
<path class="st1" d="M1082.9,365.7c-6.9,0-13.6-3.4-17.7-9.5c-6.4-9.7-3.7-22.8,6.1-29.2c63-41.3,53.5-140.2,53.4-141.2
	c-1.2-11.6,7.2-21.9,18.8-23.2c11.6-1.2,21.9,7.2,23.2,18.8c0.5,5.1,12.1,125.6-72.2,180.8C1090.9,364.6,1086.9,365.7,1082.9,365.7z
	"/>
<ellipse class="st1" cx="825" cy="121.4" rx="92" ry="92"/>
<ellipse class="st1" cx="1154.7" cy="121.4" rx="92" ry="92"/>
<path class="st2" d="M1245.5,298.8c0.1,0.2,0.2,0.5,0.3,0.7C1245.7,299.3,1245.6,299.1,1245.5,298.8z"/>
<path class="st2" d="M1254.8,326.3c0.1,0.5,0.2,1.1,0.3,1.6C1255,327.4,1254.9,326.8,1254.8,326.3z"/>
<path class="st2" d="M1253.5,320.6c0.1,0.6,0.3,1.1,0.4,1.7C1253.8,321.8,1253.7,321.2,1253.5,320.6z"/>
<path class="st2" d="M1252,315.1c0.2,0.5,0.3,1.1,0.5,1.6C1252.3,316.2,1252.1,315.6,1252,315.1z"/>
<path class="st2" d="M1242.8,443.4c0.1,0.1,0.1,0.2,0.2,0.3C1242.9,443.6,1242.9,443.5,1242.8,443.4z"/>
<path class="st2" d="M1248,304.2c0.1,0.3,0.3,0.7,0.4,1C1248.3,304.9,1248.1,304.6,1248,304.2z"/>
<path class="st2" d="M1250.1,309.7c0.2,0.5,0.3,0.9,0.5,1.4C1250.5,310.6,1250.3,310.1,1250.1,309.7z"/>
<path class="st3" d="M1243,443.8c0.9,1.7,1.7,3.4,2.5,5.1C1244.7,447.1,1243.9,445.4,1243,443.8z"/>
<path class="st3" d="M1245.9,299.5c0.7,1.6,1.4,3.1,2.1,4.7C1247.3,302.7,1246.6,301.1,1245.9,299.5z"/>
<path class="st3" d="M1254,322.3c0.3,1.3,0.6,2.7,0.8,4C1254.5,325,1254.3,323.7,1254,322.3z"/>
<path class="st3" d="M1248.4,305.3c0.6,1.5,1.2,2.9,1.7,4.4C1249.6,308.2,1249,306.7,1248.4,305.3z"/>
<path class="st3" d="M1242.8,443.4c-0.9-1.8-1.9-3.6-2.9-5.4l0,0C1240.9,439.8,1241.9,441.6,1242.8,443.4z"/>
<path class="st3" d="M1255.1,327.9c0.3,1.8,0.5,3.7,0.7,5.5C1255.6,331.6,1255.4,329.7,1255.1,327.9z"/>
<path class="st3" d="M1252.5,316.7c0.4,1.3,0.7,2.6,1.1,3.9C1253.2,319.3,1252.9,318,1252.5,316.7z"/>
<path class="st3" d="M1250.6,311c0.5,1.4,0.9,2.7,1.4,4.1C1251.6,313.7,1251.1,312.4,1250.6,311z"/>
<path class="st4" d="M894.2,117.4c2.2,38.2-27,71-65.3,73.2c-38.2,2.2-71-27-73.2-65.3c-2.2-38.2,27-71,65.3-73.2
	C859.3,50,892.1,79.2,894.2,117.4z"/>
<path class="st5" d="M894.2,117.4c-0.2-3.9-0.8-7.6-1.6-11.3c0.1,1.1,0.2,2.1,0.3,3.2c2.2,38.2-27,71-65.3,73.2
	c-34.4,2-64.3-21.5-71.6-54c3.8,36.6,35.8,64.2,72.9,62C867.2,188.4,896.4,155.6,894.2,117.4z"/>
<path class="st6" d="M854.4,116.1c0.9,15-10.6,27.8-25.5,28.6c-15,0.9-27.8-10.6-28.6-25.5c-0.9-15,10.6-27.8,25.5-28.6
	C840.7,89.7,853.5,101.1,854.4,116.1z"/>
<path class="st7" d="M842.2,116.8c0.5,8.3-5.8,15.3-14.1,15.8s-15.3-5.8-15.8-14.1s5.8-15.3,14.1-15.8S841.8,108.5,842.2,116.8z"/>
<path class="st4" d="M845.8,105.5c0.3,4.7-3.3,8.7-8,9s-8.7-3.3-9-8s3.3-8.7,8-9S845.5,100.8,845.8,105.5z"/>
<path class="st4" d="M1223.7,117.4c2.2,38.2-27,71-65.3,73.2c-38.2,2.2-71-27-73.2-65.3c-2.2-38.2,27-71,65.3-73.2
	C1188.8,50,1221.5,79.2,1223.7,117.4z"/>
<path class="st5" d="M1223.7,117.4c-0.2-3.9-0.8-7.6-1.6-11.3c0.1,1.1,0.2,2.1,0.3,3.2c2.2,38.2-27,71-65.3,73.2
	c-34.4,2-64.3-21.5-71.6-54c3.8,36.6,35.8,64.2,72.9,62C1196.7,188.4,1225.9,155.6,1223.7,117.4z"/>
<path class="st6" d="M1183.9,116.1c0.9,15-10.6,27.8-25.5,28.6c-15,0.9-27.8-10.6-28.6-25.5c-0.9-15,10.6-27.8,25.5-28.6
	C1170.2,89.7,1183,101.1,1183.9,116.1z"/>
<path class="st7" d="M1171.7,116.8c0.5,8.3-5.8,15.3-14.1,15.8c-8.3,0.5-15.3-5.8-15.8-14.1s5.8-15.3,14.1-15.8
	S1171.2,108.5,1171.7,116.8z"/>
<path class="st4" d="M1175.3,105.5c0.3,4.7-3.3,8.7-8,9s-8.7-3.3-9-8s3.3-8.7,8-9S1175,100.8,1175.3,105.5z"/>
<g>
	<path class="st8" d="M966.3,368.8c0,0,23.6,18.5,46.3,4c22.7-14.5,34,37.5-12.4,42.6C953.9,420.7,941.4,386.4,966.3,368.8z"/>
	<path class="st9" d="M973.9,413.6c0,0,12-40.5,51.3-9.3C1025.2,404.2,1008.9,425.1,973.9,413.6z"/>
</g>
<g>
	<path class="st1" d="M185.7,306.6l26.1,77.2l26.1-77.7c1.4-4.1,2.4-6.9,3.1-8.5c0.7-1.6,1.8-3,3.4-4.3s3.7-1.9,6.4-1.9
		c2,0,3.8,0.5,5.5,1.5c1.7,1,3,2.3,4,4c1,1.6,1.5,3.3,1.5,5c0,1.2-0.2,2.4-0.5,3.7c-0.3,1.3-0.7,2.6-1.2,3.9s-0.9,2.6-1.4,4
		l-27.9,75.2c-1,2.9-2,5.6-3,8.2c-1,2.6-2.1,4.9-3.5,6.8c-1.3,2-3,3.6-5.2,4.8c-2.2,1.3-4.8,1.9-8,1.9s-5.8-0.6-8-1.8
		c-2.2-1.2-3.9-2.9-5.3-4.9c-1.3-2-2.5-4.3-3.5-6.9c-1-2.6-2-5.3-3-8.2L163.9,314c-0.5-1.4-1-2.7-1.5-4s-0.9-2.7-1.3-4.2
		c-0.3-1.5-0.5-2.8-0.5-3.8c0-2.7,1.1-5.1,3.2-7.3c2.1-2.2,4.8-3.3,8.1-3.3c4,0,6.8,1.2,8.4,3.7C182.3,297.4,184,301.2,185.7,306.6z
		"/>
	<path class="st1" d="M355.1,311.2h-52.5v28.3H351c3.6,0,6.2,0.8,8,2.4c1.8,1.6,2.6,3.7,2.6,6.3s-0.9,4.7-2.6,6.4
		c-1.7,1.6-4.4,2.5-8,2.5h-48.4v32.7h54.3c3.7,0,6.4,0.9,8.3,2.6s2.8,4,2.8,6.8c0,2.7-0.9,4.9-2.8,6.6s-4.6,2.6-8.3,2.6h-63.3
		c-5.1,0-8.7-1.1-10.9-3.4c-2.2-2.2-3.3-5.9-3.3-10.9v-86.5c0-3.3,0.5-6.1,1.5-8.2c1-2.1,2.6-3.7,4.7-4.6c2.1-1,4.8-1.5,8.1-1.5
		h61.5c3.7,0,6.5,0.8,8.3,2.5c1.8,1.6,2.7,3.8,2.7,6.5s-0.9,4.9-2.7,6.6C361.6,310.4,358.8,311.2,355.1,311.2z"/>
	<path class="st1" d="M417.8,359.1h-8.2v37c0,4.9-1.1,8.5-3.2,10.8s-4.9,3.5-8.4,3.5c-3.7,0-6.6-1.2-8.6-3.6
		c-2-2.4-3.1-5.9-3.1-10.6v-88.5c0-5,1.1-8.7,3.4-10.9c2.2-2.2,5.9-3.4,10.9-3.4h37.9c5.2,0,9.7,0.2,13.4,0.7
		c3.7,0.4,7.1,1.3,10,2.7c3.6,1.5,6.8,3.7,9.6,6.5c2.8,2.8,4.9,6.1,6.3,9.9c1.4,3.7,2.2,7.7,2.2,11.9c0,8.6-2.4,15.4-7.3,20.6
		c-4.8,5.1-12.2,8.8-22,10.9c4.1,2.2,8.1,5.4,11.9,9.7c3.8,4.3,7.1,8.9,10.1,13.7c3,4.8,5.3,9.2,6.9,13.1c1.6,3.9,2.5,6.6,2.5,8
		c0,1.5-0.5,3-1.5,4.5s-2.3,2.7-4,3.5c-1.7,0.9-3.6,1.3-5.8,1.3c-2.6,0-4.8-0.6-6.6-1.8c-1.8-1.2-3.3-2.8-4.6-4.7
		c-1.3-1.9-3-4.7-5.2-8.3l-9.3-15.5c-3.3-5.7-6.3-10-9-13c-2.6-3-5.3-5-8-6.1C425.4,359.7,422,359.1,417.8,359.1z M431.2,310.8
		h-21.5v31.6h20.9c5.6,0,10.3-0.5,14.1-1.5c3.8-1,6.7-2.6,8.8-4.9c2-2.3,3-5.5,3-9.6c0-3.2-0.8-6-2.4-8.4c-1.6-2.4-3.9-4.3-6.8-5.5
		C444.5,311.2,439.2,310.8,431.2,310.8z"/>
</g>
<ellipse class="st10" cx="736.3" cy="498.1" rx="928.1" ry="81.6"/>
</svg>
