<?xml version="1.0" encoding="utf-8"?>
<!-- Generator: Adobe Illustrator 22.0.0, SVG Export Plug-In . SVG Version: 6.00 Build 0)  -->
<svg version="1.1" id="Layer_1" xmlns="http://www.w3.org/2000/svg" xmlns:xlink="http://www.w3.org/1999/xlink" x="0px" y="0px"
	 viewBox="0 0 582.2 270.9" style="enable-background:new 0 0 582.2 270.9;" xml:space="preserve">
<style type="text/css">
	.st0{fill:#F4F4F4;}
	.st1{fill:#DDDDDD;}
</style>
<g>
	<path class="st0" d="M169.2,194.9l8.9,26.7l8.8-26.7h9.2l-14.3,37.7h-7.3L160,194.9H169.2z"/>
	<path class="st0" d="M226,224.9v7.6h-26.5v-37.7h26v7.6h-17.3v7.3h14.9v7.1h-14.9v8H226z"/>
	<path class="st0" d="M231.3,232.6v-37.7h17c1.8,0,3.4,0.4,4.9,1.1c1.5,0.7,2.8,1.7,3.9,2.9c1.1,1.2,2,2.6,2.6,4.1
		c0.6,1.5,0.9,3.1,0.9,4.6c0,1.2-0.1,2.3-0.4,3.4c-0.3,1.1-0.7,2.1-1.2,3.1c-0.5,1-1.2,1.8-1.9,2.6c-0.8,0.8-1.6,1.4-2.6,1.9l8.3,14
		h-9.8l-7.2-12.1H240v12.1H231.3z M240,212.8h8c1,0,1.9-0.5,2.7-1.5c0.7-1,1.1-2.2,1.1-3.7c0-1.6-0.4-2.8-1.3-3.7
		c-0.8-0.9-1.8-1.4-2.8-1.4H240V212.8z"/>
	<path class="st0" d="M282.9,194.9l8.9,26.7l8.8-26.7h9.2l-14.3,37.7h-7.3l-14.4-37.7H282.9z"/>
	<path class="st0" d="M313.2,232.6v-37.7h8.7v37.7H313.2z"/>
	<path class="st0" d="M329.1,232.6v-37.7h14.1c3.1,0,5.8,0.5,8.2,1.5c2.3,1,4.3,2.3,5.9,4c1.6,1.7,2.8,3.7,3.6,6
		c0.8,2.3,1.2,4.7,1.2,7.3c0,2.9-0.4,5.5-1.3,7.8c-0.9,2.3-2.1,4.3-3.8,5.9c-1.6,1.6-3.6,2.9-5.9,3.8c-2.3,0.9-4.9,1.4-7.7,1.4
		H329.1z M353,213.7c0-1.7-0.2-3.2-0.7-4.5c-0.4-1.4-1.1-2.5-1.9-3.5c-0.8-1-1.9-1.8-3.1-2.3c-1.2-0.5-2.6-0.8-4.2-0.8h-5.4v22.4
		h5.4c1.6,0,3-0.3,4.2-0.8c1.2-0.6,2.3-1.4,3.1-2.4c0.8-1,1.5-2.2,1.9-3.6C352.8,216.8,353,215.3,353,213.7z"/>
	<path class="st0" d="M393.5,224.9v7.6h-26.5v-37.7h26v7.6h-17.3v7.3h14.9v7.1h-14.9v8H393.5z"/>
	<path class="st0" d="M414.5,232.9c-2.8,0-5.3-0.5-7.6-1.6c-2.3-1.1-4.3-2.5-5.9-4.3c-1.6-1.8-2.9-3.8-3.8-6.1
		c-0.9-2.3-1.4-4.7-1.4-7.1c0-2.5,0.5-4.9,1.4-7.2c0.9-2.3,2.2-4.3,3.9-6.1c1.7-1.8,3.7-3.1,6-4.2c2.3-1,4.8-1.6,7.5-1.6
		c2.8,0,5.3,0.5,7.6,1.6c2.3,1.1,4.3,2.5,5.9,4.3c1.6,1.8,2.9,3.9,3.8,6.2c0.9,2.3,1.3,4.6,1.3,7c0,2.5-0.5,4.9-1.4,7.2
		c-0.9,2.3-2.2,4.3-3.9,6.1c-1.7,1.8-3.6,3.2-5.9,4.2C419.8,232.3,417.3,232.9,414.5,232.9z M404.7,213.8c0,1.5,0.2,2.9,0.6,4.2
		c0.4,1.4,1.1,2.6,1.9,3.6c0.8,1.1,1.9,1.9,3.1,2.5c1.2,0.6,2.7,1,4.2,1c1.7,0,3.1-0.3,4.4-1c1.2-0.7,2.3-1.5,3.1-2.6
		c0.8-1.1,1.4-2.3,1.8-3.7c0.4-1.4,0.6-2.7,0.6-4.2c0-1.4-0.2-2.9-0.6-4.2c-0.4-1.4-1.1-2.6-1.9-3.6c-0.8-1-1.9-1.9-3.1-2.5
		c-1.2-0.6-2.6-0.9-4.2-0.9c-1.7,0-3.1,0.3-4.3,1c-1.2,0.7-2.2,1.5-3.1,2.6c-0.8,1.1-1.5,2.3-1.9,3.6
		C404.9,211,404.7,212.4,404.7,213.8z"/>
</g>
<path class="st1" d="M287.5,45.4c-36,0-65.2,29.2-65.2,65.2s29.2,65.2,65.2,65.2s65.2-29.2,65.2-65.2S323.5,45.4,287.5,45.4z
	 M322.5,112.5L273,146.2c-0.4,0.3-0.8,0.4-1.3,0.4c-0.3,0-0.7-0.1-1-0.3c-0.7-0.4-1.2-1.2-1.2-2V76.9c0-0.8,0.5-1.6,1.2-2
	c0.7-0.4,1.6-0.3,2.3,0.1l49.5,33.7c0.6,0.4,1,1.1,1,1.9C323.5,111.4,323.1,112.1,322.5,112.5z"/>
</svg>
