<?xml version="1.0" encoding="utf-8"?>
<!-- Generator: Adobe Illustrator 22.0.0, SVG Export Plug-In . SVG Version: 6.00 Build 0)  -->
<svg version="1.1" id="Layer_1" xmlns="http://www.w3.org/2000/svg" xmlns:xlink="http://www.w3.org/1999/xlink" x="0px" y="0px"
	 viewBox="0 0 750 297.5" style="enable-background:new 0 0 750 297.5;" xml:space="preserve">
<style type="text/css">
	.st0{fill:url(#SVGID_1_);}
	.st1{fill:url(#SVGID_2_);}
	.st2{fill:#6EC7DC;}
	.st3{fill:#004587;}
</style>
<linearGradient id="SVGID_1_" gradientUnits="userSpaceOnUse" x1="236.2" y1="-882.1" x2="236.2" y2="-882.1" gradientTransform="matrix(1 0 0 -1 0 -278)">
	<stop  offset="0.2364" style="stop-color:#CE4A00"/>
	<stop  offset="1" style="stop-color:#E12B71"/>
</linearGradient>
<path class="st0" d="M236.2,604.1"/>
<linearGradient id="SVGID_2_" gradientUnits="userSpaceOnUse" x1="-98.1292" y1="-882.8" x2="-96.9658" y2="-882.8" gradientTransform="matrix(1 0 0 -1 0 -278)">
	<stop  offset="0.2364" style="stop-color:#CE4A00"/>
	<stop  offset="1" style="stop-color:#E12B71"/>
</linearGradient>
<path class="st1" d="M-97,609c0.1-2.7-0.5-5.6-1.1-8.4"/>
<path class="st2" d="M436.5-8.4c-26.8-45.9-268.4-474.4-299.9-528.5c-29.9-51.3-82.8-28.7-82.8,42v109.1
	c24.7-35.2,64.6-15.9,64.6,39.6V70c0,2.6,0,5.1-0.2,7.5c2.1,0,4,0,6.1,0H394C453.5,77.5,464.9,40.6,436.5-8.4"/>
<path class="st3" d="M55-385.6c-1.2,1.6-2.3,3.3-3.3,5.1C26.1-336.2-171.7,14.3-193.6,52.1c-23.3,40.1-14,70.2,34.7,70.2H62
	c34.5,0,55.3-5.8,57.4-44.8c0.2-2.3,0.2-4.9,0.2-7.5V-346C119.4-401.5,79.7-420.9,55-385.6"/>
</svg>
