<?xml version="1.0" encoding="utf-8"?>
<!-- Generator: Adobe Illustrator 22.0.0, SVG Export Plug-In . SVG Version: 6.00 Build 0)  -->
<svg version="1.1" id="Layer_1" xmlns="http://www.w3.org/2000/svg" xmlns:xlink="http://www.w3.org/1999/xlink" x="0px" y="0px"
	 viewBox="0 0 600 600" style="enable-background:new 0 0 600 600;" xml:space="preserve">
<style type="text/css">
	.st0{fill:#CDE951;}
	.st1{fill:#E7F68E;}
	.st2{fill:#AF28AF;}
	.st3{fill:#A025A0;}
	.st4{fill:#96B127;}
	.st5{fill:#65C8D0;}
	.st6{fill:#CC66CC;}
	.st7{fill:#B762B7;}
	.st8{fill:#501627;}
	.st9{fill:#FFFFFF;}
	.st10{fill:#E7E7E7;}
	.st11{fill:#91A325;}
	.st12{fill:#17680C;}
</style>
<path class="st0" d="M410.6,158.8c-10.1-10.1-20.1-20.1-30.2-30.2c3.4-3.1,6.8-7.3,9.7-13c4-8.2,7.4-24-6.6-36.2
	c0,0,55.2,9.3,43.6,56.5C424.7,145.8,418.7,153.2,410.6,158.8z"/>
<path class="st1" d="M417.2,127.6l-0.5,2.2l-0.1,0.6l0,0.1l0,0.2l-0.1,0.1l-0.1,0.3l-0.4,1c-0.5,1.3-0.8,2.7-1.7,4.1
	c-0.7,1.4-1.4,2.9-2.3,4.1c-0.9,1.2-1.8,2.5-2.7,3.6c-1,1.1-2,2.2-3.1,3.2c-1,0.9-2.1,1.9-3.2,2.8c-0.3,0.2-0.5,0.4-0.8,0.6
	c-0.9-0.9-1.8-1.8-2.6-2.6c0.4-0.3,0.7-0.6,1.1-0.9c1-0.8,1.9-1.8,2.8-2.7c1-0.9,1.8-2,2.7-3c0.9-1,1.7-2.1,2.4-3.2
	c0.9-1.2,1.3-2.3,1.9-3.5c0.7-1.1,1.1-2.5,1.6-3.9l0.4-1l0.1-0.3l0.1-0.1c0,0,0,0,0,0c0,0,0,0.1,0,0.1l0-0.1l0.1-0.5l0.4-2
	c0.5-2.6,0.7-5.3,0.6-7.8c0-1.3-0.4-2.4-0.4-3.7c-0.2-1.2-0.5-2.4-0.8-3.6c-0.7-2.3-1.5-4.4-2.5-6.2c-0.5-1-1-1.9-1.5-2.6
	c-0.4-0.9-1-1.6-1.5-2.3c-1-1.5-1.9-2.6-2.8-3.6c-1.6-1.8-2.7-2.8-2.7-2.8s1.3,0.6,3.4,2.6c1,0.8,2.2,1.7,3.5,3.1
	c1.2,1.3,2.6,2.8,3.8,4.7c1.3,1.8,2.4,4,3.4,6.4c0.4,1.2,0.8,2.5,1.2,3.8c0.3,1.4,0.6,2.8,0.7,4.2c0.1,1.4,0.3,2.9,0.1,4.3
	C417.6,124.6,417.7,126.2,417.2,127.6z"/>
<path class="st0" d="M190.2,158.8c10.1-10.1,20.1-20.1,30.2-30.2c-3.4-3.1-6.8-7.3-9.7-13c-4-8.2-7.4-24,6.6-36.2
	c0,0-55.2,9.3-43.6,56.5C176.2,145.8,182.2,153.2,190.2,158.8z"/>
<path class="st1" d="M183.6,127.6l0.5,2.2l0.1,0.6l0,0.1l0,0.2l0.1,0.1l0.1,0.3l0.4,1c0.5,1.3,0.8,2.7,1.7,4.1
	c0.7,1.4,1.4,2.9,2.3,4.1c0.9,1.2,1.8,2.5,2.7,3.6c1,1.1,2,2.2,3.1,3.2c1,0.9,2.1,1.9,3.2,2.8c0.3,0.2,0.5,0.4,0.8,0.6
	c0.9-0.9,1.8-1.8,2.6-2.6c-0.4-0.3-0.7-0.6-1.1-0.9c-1-0.8-1.9-1.8-2.8-2.7c-1-0.9-1.8-2-2.7-3c-0.9-1-1.7-2.1-2.4-3.2
	c-0.9-1.2-1.3-2.3-1.9-3.5c-0.7-1.1-1.1-2.5-1.6-3.9l-0.4-1l-0.1-0.3l-0.1-0.1c0,0,0,0,0,0c0,0,0,0.1,0,0.1l0-0.1l-0.1-0.5l-0.4-2
	c-0.5-2.6-0.7-5.3-0.6-7.8c0-1.3,0.4-2.4,0.4-3.7c0.2-1.2,0.5-2.4,0.8-3.6c0.7-2.3,1.5-4.4,2.5-6.2c0.5-1,1-1.9,1.5-2.6
	c0.4-0.9,1-1.6,1.5-2.3c1-1.5,1.9-2.6,2.8-3.6c1.6-1.8,2.7-2.8,2.7-2.8s-1.3,0.6-3.4,2.6c-1,0.8-2.2,1.7-3.5,3.1
	c-1.2,1.3-2.6,2.8-3.8,4.7c-1.3,1.8-2.4,4-3.4,6.4c-0.4,1.2-0.8,2.5-1.2,3.8c-0.3,1.4-0.6,2.8-0.7,4.2c-0.1,1.4-0.3,2.9-0.1,4.3
	C183.2,124.6,183.2,126.2,183.6,127.6z"/>
<path class="st2" d="M125.7,373.6l-11.4-16.4c0,0-40.5,33.7-32.4,101.1c7.1,59.5,47.9,32.5,40.5-3.4
	C115.3,419,125.7,373.6,125.7,373.6z"/>
<path class="st3" d="M122.5,455c-7.3-35.9,3.2-81.3,3.2-81.3l-8-17.9l-11.5,10.1c-9.6,21.2,6.3,68,7.4,80.9c1.2,12.7,3,26-3.3,35.8
	c-6.4,9.7-21.4,0.9-21.4,0.9C102.7,507.5,128.4,484.2,122.5,455z"/>
<path class="st2" d="M476.2,372.9l11.4-16.4c0,0,40.6,33.5,32.7,101c-6.9,59.6-47.8,32.7-40.5-3.2
	C486.9,418.3,476.2,372.9,476.2,372.9z"/>
<path class="st3" d="M479.8,454.3c7.2-35.9-3.5-81.3-3.5-81.3l11.3-17.2l8.2,9.4c9.7,21.2-6.1,68-7.2,80.9c-1.1,12.7-3,26,3.5,35.7
	c6.4,9.7,21.4,0.8,21.4,0.8C499.9,506.7,473.9,483.5,479.8,454.3z"/>
<path class="st2" d="M357,534.4c-10.9-5.1-16.8-84.3-16.8-84.3l-28.4,7.5c0,0-7.9,39.2-6.6,60.9c1.3,21.7,6.4,24.3,32.6,24.3
	C364,542.7,367.9,539.5,357,534.4z"/>
<path class="st3" d="M316.4,540.7c4.8,1.6,11.7,2,21.5,2c26.2,0,30-3.2,19.2-8.3c-10.9-5.1-16.8-84.3-16.8-84.3l-28.4,7.5
	c0,0,5.4,6.2,14.7,7.3c9.3,1.1,15,35.1,17.4,58.4C346.3,546.4,316.4,540.7,316.4,540.7z"/>
<path class="st2" d="M242.9,534.4c10.9-5.1,16.8-84.3,16.8-84.3l28.4,7.5c0,0,7.9,39.2,6.6,60.9c-1.3,21.7-6.4,24.3-32.6,24.3
	S232,539.5,242.9,534.4z"/>
<path class="st3" d="M262,542.7c26.2,0,31.3-2.6,32.6-24.3c1.3-21.7-6.6-60.9-6.6-60.9l-28.4-7.5c0,0,4.6,7.3,17.6,13.2
	c12.9,5.9,11.5,35,10.9,55.3C287.5,538.9,262,542.7,262,542.7z"/>
<path class="st4" d="M130.4,272.4c-0.3-0.2-0.5-0.4-0.9-0.7C129.9,271.9,130.1,272.1,130.4,272.4z"/>
<path class="st5" d="M456.2,208.2C456.2,208.2,456.2,208.2,456.2,208.2L456.2,208.2c5.9,6.5,14.6,10.4,14.6,10.4c0,0,0,0,0-0.1
	c-3.2-31.7-51.2-67.7-51.2-67.7c0,0,0.1,0,0.2,0h0c16,4.7,16.2,0.3,16.2,0.3l0,0c-42.7-37.3-91.8-38.5-100.4-38.4
	c2.1,0.2,6.3,1.3,11.2,6.1c6.9,6.6,15.2,16,32.2,20.8c17,4.9,59.2,23.4,71.5,53.7c0,0-10-2.6-14.7-7.9c0.8,1.9,64,150.3,36.6,210.2
	c0,0-6.7-6.1-5.4-14.5c0,0-59.9,71.8-159.5,79l-83.5-4.9c0,0,7.1,4.4,21.6,8.3c0.5,0.1,1,0.3,1.5,0.4c1,0.3,2.1,0.5,3.2,0.8
	c0.6,0.1,1.2,0.3,1.9,0.4c1.3,0.3,2.6,0.5,3.9,0.8c0.5,0.1,1,0.2,1.5,0.3c0.5,0.1,1.1,0.2,1.6,0.3c0.5,0.1,1.1,0.2,1.6,0.3
	c0.5,0.1,1.1,0.2,1.6,0.3c1.3,0.2,2.7,0.4,4.1,0.6c0.9,0.1,1.8,0.2,2.8,0.4c0.7,0.1,1.3,0.2,2,0.2c0.7,0.1,1.4,0.1,2.1,0.2
	c0.8,0.1,1.7,0.2,2.5,0.2c0.4,0,0.8,0.1,1.3,0.1c1.2,0.1,2.3,0.2,3.5,0.3c0.7,0,1.4,0.1,2,0.1c0.7,0,1.4,0.1,2.1,0.1
	c1,0,2.1,0.1,3.1,0.1c0.7,0,1.5,0,2.2,0.1c0.5,0,0.9,0,1.4,0c0.5,0,0.9,0,1.4,0c0.9,0,1.9,0,2.8,0c1.1,0,2.3,0,3.4,0
	c0.7,0,1.4,0,2,0c1.2,0,2.3-0.1,3.5-0.1c0.8,0,1.7-0.1,2.5-0.1c0.3,0,0.5,0,0.8,0c0.8,0,1.6-0.1,2.5-0.2c0.5,0,1.1-0.1,1.6-0.1
	c1.1-0.1,2.2-0.2,3.2-0.3c1.6-0.2,3.1-0.3,4.7-0.5c0.6-0.1,1.1-0.1,1.7-0.2s1.1-0.2,1.7-0.2c1.7-0.2,3.3-0.5,4.8-0.7
	c1.6-0.3,3.1-0.5,4.6-0.8c1.6-0.3,3.1-0.6,4.6-0.9c1.4-0.3,2.8-0.6,4.1-0.9c0.7-0.2,1.3-0.3,2-0.5c0.6-0.2,1.3-0.3,1.9-0.5
	c0.5-0.1,1.1-0.3,1.6-0.4c1-0.3,1.9-0.5,2.8-0.8c1.1-0.3,2.1-0.6,3.1-1c0.5-0.2,0.9-0.3,1.4-0.5c0.5-0.1,0.9-0.3,1.3-0.5
	c0.7-0.2,1.3-0.5,2-0.7c0.6-0.2,1.3-0.5,1.8-0.7c8.3-3.1,12.7-5.8,12.7-5.8c0,0,0,0,0,0.1c-2.6,8.3,5.8,16.5,5.8,16.5c0,0,0,0,0-0.1
	c1-13.7,53.2-32.8,53.2-32.8l29.7-24.9c0,0.1,0,0.2,0,0.3c0,0,0,0,0,0c-0.9,7.8,4.7,13.1,4.7,13.1c0,0,0,0,0,0
	c20.4-19,19.3-64.9,19.3-64.9c0,0.2,0,0.4,0.1,0.6v0c0,0,0,0,0,0c0,0,0,0,0,0c1.7,11.1,12.6,20.4,12.6,20.4c0,0,0,0,0-0.1
	C507,339,456.9,210,456.2,208.2z M415.2,254.8c-0.1-1.7-0.3-3.3-0.5-5c-0.2-1-0.3-2-0.6-2.9c-5.1-22.7-26-39-50-37.7
	c-26.7,1.5-47.1,24.4-45.6,51.1c1.5,26.7,24.4,47.1,51.1,45.6c10.2-0.6,19.5-4.3,27-10.1c0.5-0.4,1-0.8,1.5-1.2
	c1.4-1.2,2.8-2.5,4.1-3.9C410.9,281.4,416,268.6,415.2,254.8z M364.9,352.1c-1.5,2.8-3.5,5.1-4.8,6.4c-0.7,0.7-1.8,0.6-2.4-0.1
	l-16.2-20c5.3,7.4-26.6,31.5-19.1,21.7c5.9-7.7,0.6-16.7-2.1-20.4c-0.7-0.9-2-0.9-2.6,0l-11.1,14.1c-0.9,1.1-2.7,0.7-2.9-0.7
	l-1.5-8.6c-1.3-12.1-6.9,0.5-9.5,7.3c-0.5,1.4-2.5,1.4-3,0.1l-2.1-4.8c-2.9-6.4-7.8,2.8-10.4,8.7c-0.6,1.3-2.5,1.3-3-0.1
	c-1.4-3.7-4.2-9.2-9.4-13.9c-6.6-6-21.6,6.7-28.3,13c-1.1,1-3,0.1-2.8-1.4l1.1-8.5c-5.4,4-10.1,9.1-13.8,15.2
	c-17.7,29.5,12,42.4,20.1,33.3c7.6-8.5,28-12.8,57.9-12.9h0.1c14.4,0.6,30.2,6,37.9,8.9c0.2,0.1,0.4,0.1,0.5,0.2
	c1.2,0.5,2.3,1,3.5,1.4c0.3,0.1,0.5,0.2,0.6,0.3c0,0,0,0,0,0c0,0,0,0,0,0s0,0,0,0c15.6,6.2,28.9,9.6,36-7.8
	C382.3,372.1,375.9,361.2,364.9,352.1z M334.6,112.6c0.1,0,0.2,0,0.3,0h0c0,0,0,0,0.1,0C334.9,112.6,334.7,112.6,334.6,112.6z
	 M264.1,220.8c-20.3-17.4-50.8-15.1-68.3,5.2c-9.2,10.7-12.8,24.1-11.4,37.1c-0.1-0.2-0.1-0.4-0.1-0.6c1.2,11.3,6.2,21.4,13.7,29
	c0.3,0.3,0.6,0.6,1,0.9c1.1,1.1,2.3,2.1,3.6,3.1c0.5,0.4,1,0.8,1.6,1.2c20.2,14.7,48.6,11.6,65.2-7.6
	C286.7,268.8,284.4,238.3,264.1,220.8z M121.9,265.1C121.9,265.1,121.9,265.1,121.9,265.1c2.6,2.4,4.9,4.3,6.5,5.7
	C126.8,269.3,124.5,267.4,121.9,265.1z M129.5,271.7c0.3,0.3,0.6,0.5,0.9,0.7C130.1,272.1,129.9,271.9,129.5,271.7z"/>
<path class="st6" d="M435.9,185.4c4.7,5.3,14.7,7.9,14.7,7.9c-12.3-30.2-54.5-48.8-71.5-53.7c-17.1-4.9-25.3-14.2-32.2-20.8
	c-4.9-4.8-9.2-5.9-11.2-6.1c0,0,0,0,0,0h0c-0.8,0-1.3,0-1.3,0c0.2,0,0.5,0,0.7-0.1c-0.1,0-0.2,0-0.3,0c0.1,0,0.3,0,0.4,0
	c0,0,0,0,0,0c5.1-0.8,8.6-6.3,8.6-6.3c-23.3-6.6-42.7,3.5-42.7,3.5s-23-5.3-31.4-15.2c0,0-7.3,12.5,6.2,18.9
	c-1-0.3-28.8-9.6-64.8,4.5c0,0,10.4,6.3,22,6.3c0,0-51.2,0.9-89.9,50.4c0,0,7.9,1.9,15.8-2.5c-9.3,8.3-25.6,26-29.9,51.1
	c0,0,6.2-1,10.7-7.1c-2.1,4.6-9.9,24.2-17.9,48.8c2.6,2.3,4.9,4.3,6.5,5.7c-1.7-1.4-3.9-3.3-6.5-5.6c-0.1,0.3-0.2,0.6-0.3,0.9
	c-1.1,3.4-2.2,6.9-3.3,10.4c-1.1,3.7-2.3,7.5-3.4,11.4c-10.2,35.4-18.1,74.4-11.3,94.3c0,0,4-0.3,5-17.4c0,0,11.1,64.6,53.5,92.3
	c0,0,5.2-8.1-0.9-20.3c0.9,0.3,57.7,22.4,60.9,37.1c0,0,6.1-9.1,1.9-18.7c0.3,0.2,7.4,4.5,21.6,8.3c-14.5-3.9-21.6-8.3-21.6-8.3
	l83.5,4.9c99.6-7.3,159.5-79,159.5-79c-1.3,8.4,5.4,14.5,5.4,14.5C499.9,335.6,436.7,187.3,435.9,185.4z M129.5,271.7
	c0.3,0.3,0.6,0.5,0.9,0.7C130.1,272.2,129.8,271.9,129.5,271.7z M202.6,295.5c-1.2-1-2.4-2-3.6-3.1c-0.3-0.3-0.6-0.6-1-0.9
	c-7.5-7.6-12.5-17.7-13.7-29c0,0.2,0.1,0.4,0.1,0.6c-1.5-12.9,2.2-26.4,11.4-37.1c17.4-20.3,48-22.6,68.3-5.2
	c20.3,17.4,22.6,48,5.2,68.3c-16.5,19.3-45,22.3-65.2,7.6C203.6,296.3,203.1,295.9,202.6,295.5z M377.5,383.7
	c-7.2,17.4-20.5,13.9-36,7.8c0,0,0,0,0,0s0,0,0,0c0,0,0,0,0,0c-0.1,0-0.3-0.1-0.6-0.3c-1.2-0.4-2.3-0.9-3.5-1.4
	c-0.2-0.1-0.3-0.1-0.5-0.2c-7.6-2.9-23.5-8.3-37.9-8.9h-0.1c-29.9,0.1-50.3,4.3-57.9,12.9c-8,9-37.8-3.8-20.1-33.3
	c3.7-6.2,8.4-11.2,13.8-15.2l-1.1,8.5c-0.2,1.5,1.6,2.5,2.8,1.4c6.7-6.3,21.8-19,28.3-13c5.1,4.6,7.9,10.2,9.4,13.9
	c0.5,1.4,2.4,1.4,3,0.1c2.6-5.8,7.5-15.1,10.4-8.7l2.1,4.8c0.6,1.3,2.5,1.3,3-0.1c2.6-6.8,8.2-19.4,9.5-7.3l1.5,8.6
	c0.2,1.4,2,1.8,2.9,0.7l11.1-14.1c0.7-0.9,2-0.8,2.6,0c2.7,3.7,8,12.7,2.1,20.4c-7.5,9.8,24.4-14.3,19.1-21.7l16.2,20
	c0.6,0.8,1.7,0.8,2.4,0.1c1.3-1.3,3.3-3.5,4.8-6.4C375.9,361.2,382.3,372.1,377.5,383.7z M402.1,290.7c-1.3,1.4-2.6,2.6-4.1,3.9
	c-0.5,0.4-1,0.8-1.5,1.2c-7.5,5.8-16.8,9.5-27,10.1c-26.7,1.5-49.6-18.9-51.1-45.6c-1.5-26.7,18.9-49.6,45.6-51.1
	c24-1.3,44.9,15,50,37.7c0.2,1,0.4,2,0.6,2.9c0.3,1.6,0.5,3.3,0.5,5C416,268.6,410.9,281.4,402.1,290.7z"/>
<path class="st7" d="M497.7,381.3C497.7,381.3,497.7,381.3,497.7,381.3c-1-0.9-11.4-10.1-12.7-21c0,0,0,0.2,0,0.6v0c0,0,0,0,0,0
	c0,0,0,0,0,0c0,5.5-0.3,46.7-19.4,64.3c0,0,0,0,0,0c-0.5-0.5-5.7-5.8-4.6-13.3c0,0.1-0.1,0.2-0.1,0.3c0,0,0,0,0,0
	c-4.8,11.5-15.4,33.1-30.6,44.2c0,0-7.1-13.2,1-19.6c0,0-52.4,19.1-53.2,32.8c0,0,0,0-0.1-0.1c-0.8-0.8-8.3-8.6-5.8-16.5
	c0,0,0,0-0.1,0.1c-0.7,0.4-5,2.8-12.7,5.7c-0.6,0.2-1.2,0.5-1.8,0.7c-0.6,0.2-1.3,0.5-2,0.7c-0.4,0.2-0.9,0.3-1.3,0.5
	c-0.4,0.2-0.9,0.3-1.4,0.5c-1,0.3-2,0.7-3.1,1c-0.9,0.3-1.9,0.5-2.8,0.8c-0.5,0.2-1.1,0.3-1.6,0.4c-0.6,0.2-1.3,0.3-1.9,0.5
	c-0.7,0.2-1.3,0.3-2,0.5c-1.3,0.3-2.7,0.6-4.1,0.9c-1.5,0.3-3,0.7-4.6,0.9c-1.5,0.3-3,0.6-4.6,0.8c-1.6,0.3-3.2,0.5-4.8,0.7
	c-0.6,0.1-1.1,0.2-1.7,0.2s-1.1,0.1-1.7,0.2c-1.5,0.2-3.1,0.3-4.7,0.5c-1,0.1-2.1,0.2-3.2,0.3c-0.5,0-1.1,0.1-1.6,0.1
	c-0.8,0.1-1.6,0.1-2.5,0.2c-0.3,0-0.5,0-0.8,0c-0.8,0-1.7,0.1-2.5,0.1c-1.1,0-2.3,0.1-3.5,0.1c-0.7,0-1.4,0-2,0c-1.1,0-2.2,0-3.4,0
	c-1,0-1.9,0-2.8,0c-0.5,0-0.9,0-1.4,0c-0.5,0-0.9,0-1.4,0c-0.8,0-1.5,0-2.2-0.1c-1,0-2.1-0.1-3.1-0.1c-0.7,0-1.4-0.1-2.1-0.1
	c-0.7,0-1.4-0.1-2-0.1c-1.2-0.1-2.4-0.2-3.5-0.3c-0.4,0-0.8-0.1-1.3-0.1c-0.9-0.1-1.7-0.1-2.5-0.2c-0.7-0.1-1.4-0.1-2.1-0.2
	c-0.7-0.1-1.4-0.2-2-0.2c-0.9-0.1-1.9-0.2-2.8-0.4c-1.4-0.2-2.8-0.4-4.1-0.6c-0.5-0.1-1.1-0.2-1.6-0.3c-0.5-0.1-1.1-0.2-1.6-0.3
	c-0.5-0.1-1.1-0.2-1.6-0.3c-0.5-0.1-1-0.2-1.5-0.3c-1.3-0.3-2.7-0.5-3.9-0.8c-0.6-0.1-1.3-0.3-1.9-0.4c-1.1-0.3-2.2-0.5-3.2-0.8
	c-0.5-0.1-1-0.3-1.5-0.4c-14.5-3.9-21.6-8.3-21.6-8.3l83.5,4.9c99.6-7.3,159.5-79,159.5-79c-1.3,8.4,5.4,14.5,5.4,14.5
	c27.5-59.9-35.8-208.3-36.6-210.2c4.7,5.3,14.7,7.9,14.7,7.9c-12.3-30.2-54.5-48.8-71.5-53.7c-17.1-4.9-25.3-14.2-32.2-20.8
	c-4.9-4.8-9.2-5.9-11.2-6.1c0,0,0,0,0,0h0c-0.2,0-0.4,0-0.6-0.1h0c-0.1,0-0.2,0-0.3,0c0.1,0,0.3,0,0.4,0c0,0,0,0,0,0
	c6.8-0.1,57.2,0.3,100.9,38.4c0,0,0,0,0,0.1c-0.1,0.5-1.3,4.1-16.4-0.4c0,0,0,0,0.2,0.1h0c3.1,2.4,48.1,37.1,51.1,67.7c0,0,0,0,0,0
	c-0.4-0.2-8.9-4-14.6-10.4c0,0,0,0,0,0.1h0C458,212.7,507,339.5,497.7,381.3z"/>
<g>
	<path class="st8" d="M377.5,383.7c-7.2,17.4-20.5,13.9-36,7.8c0,0,0,0,0,0s0,0,0,0c-0.1,0-0.3-0.1-0.6-0.3
		c-1.2-0.4-2.3-0.9-3.5-1.4c-0.2-0.1-0.3-0.1-0.5-0.2c-10.3-4.2-21.3-8.7-32.2-8.9c-1.9,0-3.8,0-5.7,0h-0.1
		c-29.9,0.1-50.3,4.3-57.9,12.9c-8,9-37.8-3.8-20.1-33.3c3.7-6.2,8.4-11.2,13.8-15.2l-1.1,8.5c-0.2,1.5,1.6,2.5,2.8,1.4
		c6.7-6.3,21.8-19,28.3-13c5.1,4.6,7.9,10.2,9.4,13.9c0.5,1.4,2.4,1.4,3,0.1c2.6-5.8,7.5-15.1,10.4-8.7l2.1,4.8
		c0.6,1.3,2.5,1.3,3-0.1c2.6-6.8,8.2-19.4,9.5-7.3l1.5,8.6c0.2,1.4,2,1.8,2.9,0.7l11.1-14.1c0.7-0.9,2-0.8,2.6,0
		c2.7,3.7,8,12.7,2.1,20.4c-7.5,9.8,24.4-14.3,19.1-21.7l16.2,20c0.6,0.8,1.7,0.8,2.4,0.1c1.3-1.3,3.3-3.5,4.8-6.4
		C375.9,361.2,382.3,372.1,377.5,383.7z"/>
	<path class="st9" d="M341.4,391.5C341.4,391.5,341.4,391.5,341.4,391.5C341.4,391.5,341.4,391.5,341.4,391.5
		C341.4,391.5,341.4,391.5,341.4,391.5c-0.1,0-0.3-0.1-0.6-0.3c-0.7-0.3-1.9-0.8-3.5-1.4c-0.2-0.1-0.3-0.1-0.5-0.2
		c-7.6-2.9-23.5-8.3-37.9-8.9h-0.1c-0.8,0-1.5-0.1-2.3-0.1c-28.5,0-42.5,5.3-42.5,5.3s4.2-19.4,7.4-19.1c3.3,0.4,3.6,6.9,3.6,6.9
		c40.6-6.1,67.9,3.6,67.9,3.6s1.6-8.5,5.6-6.9C342.5,372.1,341.5,390.9,341.4,391.5z"/>
</g>
<path class="st9" d="M558.7,338.9c-1.9,4.2,5.6,7.1,5.6,7.1l2.4-7.1C566.6,338.9,560.5,334.7,558.7,338.9z"/>
<g>
	<path class="st9" d="M269.3,289.1c-16.5,19.3-45,22.3-65.2,7.6c-0.5-0.4-1.1-0.8-1.6-1.2c-1.2-1-2.4-2-3.6-3.1
		c-0.3-0.3-0.6-0.6-1-0.9c-7.8-7.9-12.4-18-13.6-28.4c-1.5-12.9,2.2-26.4,11.4-37.1c17.4-20.3,48-22.6,68.3-5.2
		C284.4,238.3,286.7,268.8,269.3,289.1z"/>
	<path class="st10" d="M235.3,305.8c-11.6,0.7-22.4-2.8-31.1-9.1c-0.5-0.4-1.1-0.8-1.6-1.2c-1.2-1-2.4-2-3.6-3.1
		c-0.3-0.3-0.6-0.6-1-0.9c-7.5-7.6-12.5-17.7-13.7-29c0,0.2,0.1,0.4,0.1,0.6c5.3,22.4,26.1,38.5,49.9,37.1
		c26.7-1.5,47.1-24.4,45.6-51.1c-0.1-0.7-0.1-1.5-0.2-2.2c0.6,2.6,0.9,5.2,1.1,7.9C282.4,281.5,262,304.4,235.3,305.8z"/>
	<path class="st11" d="M249.8,252c0.6,10.4-7.4,19.4-17.8,20c-10.4,0.6-19.4-7.4-20-17.8c-0.6-10.4,7.4-19.4,17.8-20
		C240.3,233.5,249.2,241.5,249.8,252z"/>
	<path class="st12" d="M241.3,252.4c0.3,5.8-4.1,10.7-9.8,11c-5.8,0.3-10.7-4.1-11-9.8c-0.3-5.8,4.1-10.7,9.8-11
		C236.1,242.3,241,246.7,241.3,252.4z"/>
	<path class="st9" d="M243.8,244.5c0.2,3.3-2.3,6.1-5.6,6.3c-3.3,0.2-6.1-2.3-6.3-5.6c-0.2-3.3,2.3-6.1,5.6-6.3
		C240.8,238.8,243.7,241.3,243.8,244.5z"/>
	<path class="st9" d="M402.1,290.7c-1.3,1.4-2.6,2.6-4.1,3.9c-0.5,0.4-1,0.8-1.5,1.2c-7.5,5.8-16.8,9.5-27,10.1
		c-26.7,1.5-49.6-18.9-51.1-45.6c-1.5-26.7,18.9-49.6,45.6-51.1c24-1.3,44.9,15,50,37.7c0.2,1,0.4,2,0.6,2.9c0.3,1.6,0.5,3.3,0.5,5
		C416,268.6,410.9,281.4,402.1,290.7z"/>
	<path class="st10" d="M402.1,290.7c-1.3,1.4-2.6,2.6-4.1,3.9c-0.5,0.4-1,0.8-1.5,1.2c-7.5,5.8-16.8,9.5-27,10
		c-25.9,1.5-48.3-17.7-50.9-43.3c5.1,22.7,26,39.1,50,37.7c26.7-1.5,47.1-24.4,45.6-51.1c-0.1-0.7-0.1-1.5-0.2-2.2
		c0.2,1,0.4,2,0.6,2.9c0.3,1.6,0.4,3.3,0.5,5C416,268.6,410.9,281.4,402.1,290.7z"/>
	<path class="st11" d="M384.1,252c0.6,10.4-7.4,19.4-17.8,20s-19.4-7.4-20-17.8c-0.6-10.4,7.4-19.4,17.8-20
		C374.6,233.5,383.5,241.5,384.1,252z"/>
	<path class="st12" d="M375.6,252.4c0.3,5.8-4.1,10.7-9.8,11c-5.8,0.3-10.7-4.1-11-9.8c-0.3-5.8,4.1-10.7,9.8-11
		C370.4,242.3,375.3,246.7,375.6,252.4z"/>
	<path class="st9" d="M378.1,244.5c0.2,3.3-2.3,6.1-5.6,6.3c-3.3,0.2-6.1-2.3-6.3-5.6c-0.2-3.3,2.3-6.1,5.6-6.3
		C375.1,238.8,378,241.3,378.1,244.5z"/>
</g>
</svg>
