<?xml version="1.0" encoding="utf-8"?>
<!-- Generator: Adobe Illustrator 22.0.0, SVG Export Plug-In . SVG Version: 6.00 Build 0)  -->
<svg version="1.1" id="Capa_1" xmlns="http://www.w3.org/2000/svg" xmlns:xlink="http://www.w3.org/1999/xlink" x="0px" y="0px"
	 viewBox="0 0 598.1 598.1" style="enable-background:new 0 0 598.1 598.1;" xml:space="preserve">
<style type="text/css">
	.st0{fill:#1F3563;}
	.st1{fill:#1C2F55;}
	.st2{fill:#234587;}
	.st3{fill:#6BC4CD;}
	.st4{fill:#62B7B9;}
	.st5{fill:#203D76;}
	.st6{fill:#203D76;stroke:#203D76;stroke-width:2;stroke-miterlimit:10;}
	.st7{fill:#FFFFFF;}
	.st8{fill:#E8E6E6;}
	.st9{fill:#953F90;}
	.st10{fill:#4F1D4F;}
	.st11{fill:#511627;}
	.st12{fill:#ED6B83;}
	.st13{fill:#27549E;}
</style>
<path class="st0" d="M170.6,363.1c0,0-0.2,0.3-0.7,0.9c-0.1,0.2-0.3,0.4-0.5,0.7c-0.2,0.3-0.4,0.5-0.6,0.9c-0.2,0.2-0.3,0.4-0.5,0.7
	c-0.3,0.4-0.6,0.9-1,1.4c-0.3,0.4-0.5,0.8-0.8,1.2c-0.9,1.3-1.9,2.8-2.9,4.4v0c-2.8,4.2-6.1,9.6-9.5,15.7c-0.5,0.9-1,1.8-1.5,2.7
	c-0.6,1-1.1,2.1-1.7,3.1c-0.3,0.6-0.6,1.1-0.9,1.7c-0.4,0.8-0.8,1.5-1.2,2.3c-0.6,1.2-1.2,2.4-1.7,3.6c-0.6,1.2-1.1,2.4-1.7,3.7
	c-0.5,1-0.9,2-1.3,3.1c-3.3,7.7-6.2,15.8-8,23.8c-3.8,17.4-17.6,28-28.1,26.9c-0.2,0-0.5,0-0.7-0.1c-0.2,0-0.5-0.1-0.7-0.1
	c-0.2,0-0.4-0.1-0.7-0.2c-0.1,0-0.3-0.1-0.4-0.1c-0.1,0-0.3-0.1-0.4-0.1c-0.4-0.1-0.8-0.3-1.2-0.5c-0.4-0.2-0.7-0.4-1.1-0.6
	c-0.2-0.1-0.4-0.2-0.5-0.3c-0.3-0.2-0.7-0.5-1-0.8c-0.2-0.1-0.3-0.3-0.5-0.4c-0.2-0.2-0.3-0.3-0.5-0.5c-0.5-0.5-0.9-1-1.3-1.5
	c-0.4-0.6-0.8-1.2-1.1-1.8c-0.2-0.4-0.4-0.9-0.6-1.4c-0.2-0.5-0.4-1-0.5-1.5c-0.2-0.5-0.3-1.1-0.4-1.7c-0.1-0.3-0.1-0.6-0.2-0.9
	c-0.2-0.9-0.3-1.8-0.4-2.8c-0.6-6.1,0.4-14.2,3.5-24.5c11.2-36.2,32.3-56,48-66.1c3.4-2.2,6.6-4,9.3-5.3c6.3-3.2,10.3-4.3,10.3-4.3
	l0.2,1.1L170.6,363.1z"/>
<path class="st1" d="M170.6,344.4v18.8c0,0-0.2,0.3-0.7,0.9c-0.1,0.2-0.3,0.4-0.5,0.7c-0.2,0.3-0.4,0.5-0.6,0.9
	c-0.2,0.2-0.3,0.4-0.5,0.7c-0.3,0.4-0.6,0.9-1,1.4c-0.3,0.4-0.5,0.8-0.8,1.2c-0.9,1.3-1.9,2.7-2.9,4.4c-2.8,4.2-6.1,9.6-9.5,15.7
	c-0.5,0.9-1,1.8-1.5,2.7c-0.6,1-1.1,2.1-1.7,3.1c-0.3,0.6-0.6,1.1-0.9,1.7c-0.4,0.8-0.8,1.5-1.2,2.3c-0.6,1.2-1.2,2.4-1.7,3.6
	c-0.6,1.2-1.1,2.4-1.7,3.7c-0.5,1-0.9,2-1.3,3.1c-3.3,7.7-6.1,15.8-7.9,23.8c-3.9,17.4-17.7,28-28.2,26.9c-0.2,0-0.5,0-0.7-0.1
	c-0.2,0-0.5-0.1-0.7-0.1c-0.2,0-0.4-0.1-0.7-0.2c-0.1,0-0.3-0.1-0.4-0.1c-0.1,0-0.3-0.1-0.4-0.1c-0.4-0.1-0.8-0.3-1.2-0.5
	c-0.4-0.2-0.7-0.4-1.1-0.6c-0.2-0.1-0.4-0.2-0.5-0.3c-0.3-0.2-0.7-0.5-1-0.8c-0.2-0.1-0.3-0.3-0.5-0.4c-0.2-0.2-0.3-0.3-0.5-0.5
	c-0.4-0.5-0.9-1-1.3-1.5c-0.4-0.6-0.8-1.2-1.1-1.8c-0.2-0.4-0.4-0.9-0.6-1.4c-0.2-0.5-0.4-1-0.5-1.5c-0.2-0.5-0.3-1.1-0.4-1.7
	c-0.1-0.3-0.1-0.6-0.2-0.9c-0.2-0.9-0.3-1.8-0.4-2.8c0,0,9.7,13.6,19,7.6c9.4-6,12.9-18.4,16.8-29.9c3.4-9.9,7-45.2,18.2-64.8
	c2-3.5,4.2-6.5,6.8-8.8l10.5-3.2L170.6,344.4z"/>
<path class="st0" d="M413.6,362.7c0,0.2,0,0.3,0,0.5c0,0-0.1-0.1-0.1-0.1L413.6,362.7z"/>
<path class="st0" d="M427.7,348.8l-5-2.3C424.2,347.1,425.8,347.8,427.7,348.8z"/>
<path class="st0" d="M488.3,445.1c-1.2,10.7-7.2,15.2-14.3,14.9c-0.2,0-0.4,0-0.7,0c-0.5,0-0.9-0.1-1.4-0.2c-0.3,0-0.6-0.1-0.9-0.2
	c-0.8-0.2-1.5-0.4-2.3-0.7c-0.3-0.1-0.7-0.2-1-0.4c-1.7-0.7-3.4-1.6-5.1-2.8c-0.6-0.4-1.2-0.9-1.8-1.4c-5.8-4.7-10.7-12-12.8-21.4
	c-0.1-0.6-0.3-1.3-0.4-1.9c-0.2-0.6-0.3-1.3-0.5-1.9c-0.2-0.6-0.3-1.2-0.5-1.8c-5.2-18.6-15.4-37.1-23.1-49.4c-1-1.6-2-3.1-2.9-4.5
	c0,0,0,0,0-0.1c0,0,0,0,0-0.1c0,0,0,0,0,0.1c0.9,1.3,1.8,2.8,2.7,4.3c-0.4-2-0.9-4-1.3-5.9c0,0,0-0.1,0-0.1
	c4.1-4.9,7.8-10.4,11.2-16.1c0.5-0.9,1.1-1.9,1.6-2.8c0,0,0,0,0.1,0c15.8,9.8,38.2,29.6,49.8,67.3
	C488.1,430.7,489,438.9,488.3,445.1z"/>
<path class="st1" d="M488.6,444.7c-1.1,11-7.3,15.6-14.5,15.2c-0.2,0-0.4,0-0.7,0c-0.5,0-0.9-0.1-1.4-0.2c-0.3,0-0.6-0.1-0.9-0.2
	c-0.8-0.2-1.5-0.4-2.3-0.7c-0.3-0.1-0.7-0.2-1-0.4c-1.7-0.7-3.4-1.6-5.1-2.8c-0.6-0.4-1.2-0.9-1.8-1.4c-5.8-4.7-10.7-12-12.8-21.4
	c-0.1-0.6-0.3-1.3-0.4-1.9c-0.2-0.6-0.3-1.3-0.5-1.9c-0.2-0.6-0.3-1.2-0.5-1.8c-5.2-18.7-15.5-37.3-23.2-49.6v0
	c-0.4-2-0.9-4-1.3-5.9c0,0,0-0.1,0-0.1c4.1-4.9,7.8-10.4,11.2-16.1c0,0,0,0,0,0.1c12,19.1,15.8,56.4,19.3,66.6
	c3.9,11.6,7.5,23.9,16.8,29.9c8.5,5.5,17.3-5.2,18.8-7.2C488.5,444.9,488.6,444.7,488.6,444.7z"/>
<path class="st0" d="M276.7,558c-0.6,9.9-1.9,16-5.4,19.8c-0.3,0.4-0.7,0.8-1.1,1.1c-4.9,4.2-13.4,5-28.3,5
	c-7.5,0-13.3-0.2-17.5-0.7c0,0-0.1,0-0.1,0c-11.4-1.3-11.3-4.2-2.8-8.2c8.2-3.8,13.7-44.7,16.3-68.6v0l0,0c0.7-6,1.1-11,1.4-14
	c0-0.4,0.1-0.8,0.1-1.1c0.1-0.8,0.1-1.3,0.1-1.6v-0.1c0-0.1,0-0.2,0-0.2l30.3,8.1c0,0,0.4,1.6,0.9,4.4
	C272.8,512.5,277.8,539.6,276.7,558z"/>
<path class="st0" d="M358.1,581.4c-0.1,0.1-0.2,0.1-0.4,0.2c-0.1,0.1-0.3,0.1-0.4,0.2c-0.1,0-0.2,0.1-0.3,0.1
	c-0.1,0-0.2,0.1-0.3,0.1c-0.1,0-0.2,0.1-0.4,0.1c0,0,0,0,0,0c-0.2,0.1-0.5,0.1-0.8,0.2c-0.2,0.1-0.5,0.1-0.8,0.2
	c-0.3,0.1-0.5,0.1-0.8,0.2c-4.3,0.8-11.2,1.2-21.2,1.1c-2.5,0-4.8,0-7-0.1h0c-22-0.6-26.6-4.7-27.8-25.8c-1-17.5,3.5-43.1,5.8-54.5
	c0.7-3.7,1.3-6,1.3-6l30.3-8c0,0,0,0,0,0c0,0.3,0.2,3.1,0.7,7.4c0.4,4.6,1.1,10.9,1.9,18l0.2,1.4c0.1,0.5,0.1,1,0.2,1.5
	c0.2,1.2,0.3,2.5,0.5,3.7c3,23,7.9,50.4,14.5,53.5C358.9,577.7,360.9,579.9,358.1,581.4z"/>
<path class="st1" d="M276.7,558.1c-0.6,9.8-1.9,15.9-5.3,19.7c-0.3,0.4-0.7,0.8-1.1,1.1c-4.9,4.3-13.4,5.1-28.4,5.1
	c-9,0-15.5-0.4-19.8-1.1c0.8,0.1,1.5,0.2,2.3,0.2c0,0,0.1,0,0.1,0c25.4,2.2,42.2-8.2,46.5-31c4.5-23.5-5.5-48.5-16.2-53
	c-2.6-1.2-4.9-2.3-6.8-3.5c0,0,0,0,0,0c0,0,0,0,0,0c-5.3-3-8.1-5.6-8.6-6c0,0,0,0-0.1-0.1l0.1,0l30.3,8c0,0,0.4,1.6,0.9,4.3
	C272.6,512.4,277.7,539.7,276.7,558.1z"/>
<path class="st1" d="M358.1,581.4c-0.1,0.1-0.2,0.1-0.4,0.2c-0.1,0.1-0.3,0.1-0.4,0.2c-0.1,0-0.2,0.1-0.3,0.1
	c-0.1,0-0.2,0.1-0.3,0.1c-0.1,0-0.2,0.1-0.4,0.1c0,0,0,0,0,0c-0.2,0.1-0.5,0.1-0.8,0.2c-0.2,0.1-0.5,0.1-0.8,0.2
	c-0.3,0.1-0.5,0.1-0.8,0.2c-4.3,0.8-11.2,1.2-21.2,1.2c-3.8,0-7.2,0-10.2-0.2c1.1,0,2.2,0,3.3,0h0c27-0.7,12.3-25,10.4-47.1
	c-1.8-20.6-7.4-33.5-13.6-36c-0.7-0.3-1.5-0.4-2.2-0.4c-7,0-15.3-2.8-15.3-2.8l30.2-8l0.1,0c0,0,0.2,2.8,0.6,7.4
	c0.4,4.6,1,10.9,1.9,18l0.2,1.4c0.1,0.5,0.1,1,0.2,1.5c0.2,1.2,0.3,2.5,0.5,3.7c2.9,23,7.8,50.4,14.4,53.5
	C358.8,577.7,360.8,579.9,358.1,581.4z"/>
<path class="st2" d="M420.5,231.4c0-0.6,0-1.1-0.1-1.7c0-0.7-0.1-1.5-0.2-2.2c-0.1-0.5-0.1-1.1-0.2-1.6c0-0.1,0-0.1,0-0.2
	c-0.1-0.5-0.1-1-0.2-1.5c0,0,0,0,0,0c-0.1-0.4-0.1-0.7-0.2-1c0-0.1,0-0.3-0.1-0.4c0,0,0-0.1,0-0.1c-0.1-0.4-0.2-0.9-0.3-1.3
	c0-0.1,0-0.2,0-0.2v0c0,0,0,0,0-0.1c-0.3-1.4-0.7-2.8-1.1-4.1c-0.1-0.5-0.3-0.9-0.4-1.4c-0.2-0.7-0.5-1.4-0.8-2.2
	c-0.3-0.7-0.6-1.4-0.9-2.1c-0.5-1-0.9-2.1-1.5-3.1c-0.2-0.3-0.3-0.7-0.5-1c-0.4-0.7-0.7-1.3-1.1-2c-0.2-0.3-0.4-0.6-0.6-1
	c-0.2-0.3-0.4-0.6-0.6-0.9c-0.2-0.3-0.4-0.7-0.7-1c-0.2-0.3-0.4-0.6-0.6-0.9c-0.2-0.3-0.5-0.7-0.7-1c-0.2-0.3-0.4-0.5-0.6-0.8
	c-0.2-0.3-0.5-0.6-0.7-0.9c-0.2-0.3-0.5-0.6-0.7-0.9c-0.2-0.3-0.5-0.6-0.7-0.8c-0.2-0.3-0.5-0.5-0.7-0.8c-0.3-0.3-0.5-0.5-0.8-0.8
	c-1-1.1-2.1-2.1-3.2-3.1c-0.2-0.2-0.5-0.4-0.7-0.6c-1.2-1-2.4-1.9-3.7-2.8c-0.3-0.2-0.6-0.4-0.9-0.6c-0.9-0.6-1.9-1.2-2.8-1.8
	c-0.2-0.1-0.5-0.3-0.7-0.4c-1.1-0.6-2.1-1.2-3.2-1.7c-0.3-0.2-0.7-0.3-1-0.5c-0.6-0.3-1.1-0.5-1.7-0.7c-0.3-0.1-0.7-0.3-1-0.4
	c-0.2-0.1-0.3-0.1-0.5-0.2c-0.3-0.1-0.6-0.2-1-0.4c-0.7-0.2-1.3-0.5-2-0.7c-0.4-0.1-0.8-0.2-1.2-0.4c-1.1-0.3-2.2-0.6-3.3-0.9
	c-0.4-0.1-0.7-0.2-1.1-0.2c-0.3-0.1-0.6-0.1-0.9-0.2c-0.5-0.1-0.9-0.2-1.4-0.2c-0.4-0.1-0.8-0.1-1.1-0.2c-1.5-0.2-3.1-0.3-4.6-0.4
	c-0.8,0-1.6,0-2.4,0c-1,0-2,0-3.1,0.1c-29.5,1.7-52.2,27-50.5,56.6c0.1,0.9,0.1,1.9,0.2,2.8c0-0.1,0-0.2-0.1-0.2
	c2.9,28.3,27.6,49.6,56.4,47.9c14.6-0.9,27.5-7.5,36.7-17.6c0.6-0.7,1.2-1.4,1.8-2.1c0.3-0.3,0.5-0.7,0.8-1c0.5-0.7,1-1.3,1.5-2
	c1.4-2,2.7-4.2,3.9-6.4c0.2-0.5,0.5-0.9,0.7-1.4c0.2-0.4,0.4-0.8,0.5-1.2c0.3-0.7,0.6-1.4,0.9-2c0.3-0.7,0.5-1.4,0.8-2.1
	c1.5-4.2,2.5-8.7,2.9-13.3c0-0.4,0.1-0.9,0.1-1.3C420.5,234.5,420.6,233,420.5,231.4z M413.6,363.1
	C413.6,363.1,413.6,363.2,413.6,363.1c0.1-0.1,0.1-0.2,0.1-0.4L413.6,363.1z M414,354.8c-0.1,0.1-0.2,0.2-0.3,0.4
	C413.8,355,413.9,354.9,414,354.8C414,354.8,414,354.8,414,354.8c0.5-0.5,0.8-0.8,1-1C414.6,354.1,414.3,354.4,414,354.8z
	 M413.9,354.9c-0.1,0.1-0.1,0.2-0.2,0.2C413.8,355.1,413.9,355,413.9,354.9c0.6-0.6,1-1.1,1.2-1.2
	C414.7,354.1,414.3,354.5,413.9,354.9z M415.2,349.9l0.5,1.3l0-0.1C415.5,350.7,415.3,350.3,415.2,349.9z M389.2,397.9l0,0.2
	C389.3,398.1,389.3,398,389.2,397.9C389.3,398,389.2,397.9,389.2,397.9z M382.5,375.8l0,0.2c0-0.1,0-0.2,0.1-0.2
	C382.6,375.7,382.5,375.7,382.5,375.8z M279.4,335.6c0,0-22.1,6.9-34.6-9.7c-9.3-12.4-24.1,3.5-17.7,19.3c0,0,0,0,0,0c0,0,0,0,0,0
	c0.4,1.2,6.9,19.2,33.9,20.6c0.2,0,0.4,0,0.7,0C280.9,366.9,289.6,350.7,279.4,335.6z M263.2,232.7c0-0.5,0-1.1-0.1-1.7
	c0-0.7-0.1-1.5-0.2-2.2c-0.2-2.2-0.6-4.4-1-6.5c-5.6-25.2-28.8-43.3-55.3-41.8c-29.5,1.7-52.2,27-50.4,56.6c0.1,0.9,0.1,1.9,0.2,2.8
	c0-0.1,0-0.2-0.1-0.2c2.9,28.3,27.6,49.6,56.4,47.9c12.4-0.7,23.6-5.6,32.2-13.2c0.3-0.2,0.6-0.5,0.8-0.7c0.3-0.3,0.6-0.5,0.8-0.8
	c0.3-0.3,0.6-0.6,0.9-0.8c0.6-0.6,1.3-1.3,1.9-2c0.6-0.7,1.2-1.4,1.8-2.1c2.6-3.2,4.9-6.7,6.7-10.5c0.4-0.9,0.8-1.8,1.2-2.7
	c0.4-1,0.8-2.1,1.2-3.1c0.2-0.7,0.5-1.4,0.7-2.1c0.2-0.6,0.4-1.3,0.5-1.9c0.5-1.9,0.9-3.9,1.2-5.9c0.2-1.5,0.4-3.1,0.5-4.6
	C263.2,235.7,263.2,234.2,263.2,232.7z M167.1,345.4l-0.2-1.1c0,0-4.1,1.1-10.3,4.3c-2.7,1.4-5.9,3.1-9.3,5.3
	c0.8,1.2,1.6,2.3,2.5,3.5c4.2,5.7,8.7,11,13.7,15.8c0,0,0,0,0,0c1.1-1.6,2.1-3.1,2.9-4.4c0.3-0.4,0.6-0.8,0.8-1.2
	c0.4-0.5,0.7-1,1-1.4c0.2-0.2,0.3-0.5,0.5-0.7c0.2-0.3,0.4-0.6,0.6-0.9c0.2-0.3,0.4-0.5,0.5-0.7c0.4-0.6,0.7-0.9,0.7-0.9v-18.8
	L167.1,345.4z"/>
<path class="st3" d="M334.3,29.9C334.3,29.9,334.2,29.9,334.3,29.9c-0.2,0-0.3,0-0.4,0H334.3z"/>
<path class="st3" d="M382.6,375.7c0,0.1,0,0.2-0.1,0.2l0-0.2C382.5,375.7,382.6,375.7,382.6,375.7z"/>
<path class="st3" d="M389.3,398C389.3,398,389.3,398.1,389.3,398L389.3,398C389.2,397.9,389.3,398,389.3,398z"/>
<path class="st3" d="M415,353.7c-0.2,0.2-0.5,0.6-1,1.1c0,0,0,0,0,0c-0.1,0.1-0.2,0.2-0.3,0.3c0.1-0.1,0.2-0.2,0.3-0.4
	C414.3,354.4,414.6,354.1,415,353.7z"/>
<path class="st3" d="M415.1,353.7c-0.2,0.2-0.6,0.6-1.2,1.3c-0.1,0.1-0.1,0.1-0.2,0.2c0.1-0.1,0.1-0.2,0.2-0.2
	C414.3,354.5,414.7,354.1,415.1,353.7z"/>
<path class="st3" d="M414,380C414,380.1,414,380.1,414,380c-0.1,0.1-1-2-1.9-5c-1.5-5.3-2.9-13.5,1.1-19.3c0,0,0,0,0,0
	c0.2-0.2,0.4-0.4,0.5-0.6c-4.4,5.6-3.3,13.8-1.7,19.3C412.9,377.5,413.8,379.7,414,380z"/>
<path class="st3" d="M427.7,348.8l-5-2.3C424.2,347.1,425.8,347.8,427.7,348.8z"/>
<path class="st3" d="M452,82.1c0,0-0.3,6-19-0.4c-0.1-0.1-0.1-0.1-0.2-0.1C450.4,87.6,451.9,82.8,452,82.1L452,82.1z"/>
<path class="st3" d="M455.2,338C455.2,338,455.2,338,455.2,338c0,0-6.6-7.2-5.5-17.7c0-0.1,0.1-0.2,0.1-0.4
	C448.6,330.1,454.6,337.3,455.2,338z"/>
<path class="st3" d="M492.6,278.4C492.6,278.5,492.6,278.5,492.6,278.4c0,0.1-12.8-12.5-14.8-27.5c0-0.5,0-0.8,0-0.8
	C479.4,264.8,491.6,277.4,492.6,278.4z"/>
<path class="st3" d="M492.7,173.5c0,0-10.1-5.2-16.9-13.9c0-0.1-0.1-0.2-0.1-0.2c6.7,8.6,16.6,13.8,17,14
	C492.7,173.4,492.7,173.4,492.7,173.5z"/>
<path class="st4" d="M415,353.7c-0.2,0.2-0.5,0.6-1,1.1c0,0,0,0,0,0c-0.1,0.1-0.2,0.2-0.3,0.3c0.1-0.1,0.2-0.2,0.3-0.4
	C414.3,354.4,414.6,354.1,415,353.7z"/>
<path class="st4" d="M415.1,353.7c-0.2,0.2-0.6,0.6-1.2,1.3c-0.1,0.1-0.1,0.1-0.2,0.2c0.1-0.1,0.1-0.2,0.2-0.2
	C414.3,354.5,414.7,354.1,415.1,353.7z"/>
<path class="st5" d="M420.8,373.4C420.8,373.5,420.8,373.5,420.8,373.4C420.7,373.5,420.7,373.5,420.8,373.4
	C420.7,373.4,420.7,373.4,420.8,373.4C420.8,373.4,420.8,373.4,420.8,373.4z"/>
<path class="st6" d="M475.7,159.4c0,0,0.1,0.1,0.1,0.1C475.7,159.4,475.7,159.3,475.7,159.4c6.7,8.5,16.6,13.8,17,14
	c-3.7-42.6-58.9-91-59.8-91.7c0.1,0,0.1,0,0.2,0c-0.1-0.1-0.1-0.1-0.2-0.1c17.5,6,19,1.3,19.1,0.6C402.2,31.7,345,29.9,334.9,30
	c2.4,0.3,7.4,1.8,13.1,8.3c8,9,17.7,21.6,37.6,28.2c19.9,6.6,69.1,31.8,83.4,72.7c0,0-11.7-3.5-17.1-10.7c0,0,43.5,87.6,11.3,169.3
	c0,0-7.8-8.3-6.3-19.7c0,0-7.8,22.5-28.8,46.9c-1,2.4-2.3,4.7-3.9,6.8c0.8,6.4-0.3,13.1-3.4,18.8c-0.1,0.2-0.2,0.4-0.3,0.5
	c-1.3,4.2-2.1,8.5-2.9,12.9c-1,5.4-2.6,10.6-3.7,15.9c0,0.1,0.1,0.1,0.1,0.2c0,0,0,0-0.1,0.1c0,0,0,0,0-0.1
	c-0.1,0.5-0.2,0.9-0.3,1.4c-0.2,0.8-0.4,1.7-0.6,2.5c1.2,16.8-0.2,35.6-7.4,53.9c0,0-5.2-5.5-4.2-13c0,0-22.2,64-98.7,70.5
	c-57.5,5-85.4-17.5-88.8-20.5c2.8,2.7,20.9,20.4,23.2,32.7c0,0,0,0.1,0,0.1c0,0,0.2-0.4,0.6-1.2v0l0,0c0.7-6,1.1-11,1.4-14
	c-0.1-0.5-0.3-1-0.5-1.5c0,0,0,0,0,0c0,0,0.2,0.2,0.6,0.4c0.1-0.8,0.1-1.3,0.1-1.6c0,0,0,0-0.1-0.1l0.1,0c0-0.1,0-0.2,0-0.2
	l30.3,8.1c0,0,0.4,1.6,0.9,4.4c2.7,0.4,5.5,0.8,8.6,1.1c1,0.1,2,0.2,3,0.3c3.6,0.3,7.5,0.4,11.6,0.4c3.5,0,6.8-0.1,9.9-0.4
	c0.7-3.7,1.3-6,1.3-6l30.3-8c0,0,0,0,0,0l0.1,0c0,0,0.2,2.8,0.6,7.4c10.1-3.6,15.7-7.3,16.4-7.7c0,0,0.1,0,0.1,0
	c-2,6.9,3.7,13.9,4.4,14.7v0c0,0,0.1,0.1,0.1,0.1c0.5-10.1,11.8-23.5,15.7-27.9c0.1-0.1,0.2-0.3,0.4-0.4c-4.5,5.7-0.1,15.7,0.2,16.4
	c0,0,0,0,0,0c11.6-9.9,19.8-29.2,23.5-39.4c0-0.1,0.1-0.2,0.1-0.2c-0.8,6.7,3.2,11.5,3.6,11.9c0,0,0,0,0,0
	c14.7-15.8,14.9-52.8,14.9-57.4c0-0.3,0-0.5,0-0.5c1,9.7,9,17.9,9.7,18.6c0,0,0.1,0.1,0.1,0.1c3.1-16.3,1.5-33.2-1.4-47
	c-1-1.6-2-3.1-2.9-4.5c0,0,0,0,0-0.1c0,0,0,0,0-0.1c0,0,0,0,0,0.1c0.9,1.3,1.8,2.8,2.7,4.3c-0.4-2-0.9-4-1.3-5.9c0,0,0-0.1,0-0.1
	c4.1-4.9,7.8-10.4,11.2-16.1c0.5-0.9,1.1-1.9,1.6-2.8c6.8-12.1,11.8-24.6,14.8-32.9c0,0.1,0,0.2,0,0.4c0-0.1,0.1-0.2,0.1-0.4
	c-1.2,10.2,4.8,17.3,5.4,18c23.8-25.7,22.5-87.9,22.5-87.9c0,0.3,0.1,0.5,0.1,0.8c0-0.5,0-0.8,0-0.8c1.6,14.7,13.7,27.3,14.8,28.3
	C503.6,220.9,475.7,159.4,475.7,159.4z"/>
<path class="st5" d="M449.7,319.9c0,0.1,0,0.2,0,0.4c-3,8.3-8,20.7-14.7,32.6c-0.5,0.9-1.1,1.9-1.6,2.8c-3.3,5.7-7.1,11.2-11.2,16.1
	c0,0,0-0.1,0-0.1c4.1-4.9,7.8-10.4,11.2-16.1c0.5-0.9,1.1-1.9,1.6-2.8C441.7,340.7,446.7,328.2,449.7,319.9z"/>
<path class="st5" d="M452,82C452,82,452,82,452,82C402.2,31.7,345,29.9,334.9,30c-0.3,0-0.5-0.1-0.7-0.1c-0.1,0-0.2,0-0.3,0h0.4
	C342.2,29.8,401,30.4,452,82z"/>
<path class="st5" d="M455.3,338C455.3,338,455.3,338,455.3,338c23.7-25.7,22.5-87.9,22.5-87.9c0,0.3,0.1,0.5,0.1,0.8
	C477.9,258.2,477.5,314.1,455.3,338z"/>
<path class="st5" d="M492.7,173.4C492.7,173.4,492.7,173.4,492.7,173.4c-3.7-42.6-58.9-91-59.8-91.7c0.1,0,0.1,0,0.2,0
	C436.4,84.7,489.2,131.8,492.7,173.4z"/>
<path class="st5" d="M492.7,278.5C492.7,278.5,492.7,278.5,492.7,278.5c10.9-57.6-17-119.1-17-119.1c0,0,0.1,0.1,0.1,0.1
	C477.6,163.6,503.3,222.9,492.7,278.5z"/>
<path class="st3" d="M382.6,375.7c0,0.1,0,0.2-0.1,0.2l0-0.2C382.5,375.7,382.6,375.7,382.6,375.7z"/>
<path class="st2" d="M414,354.8 M413.2,355.7c0.2-0.2,0.4-0.4,0.5-0.6c0.1-0.1,0.1-0.2,0.2-0.2c0,0,0,0,0-0.1 M456.8,278.5
	C456.8,278.5,456.9,278.5,456.8,278.5c-1.1,10.7,5.8,18.6,6.4,19.2c0,0,0.1,0,0.1,0c31-78.7-8.3-162.9-11.1-168.9c0,0,0-0.1,0.1,0
	c5.3,6.6,15.8,10.1,16.8,10.4c0,0,0.1,0,0-0.1c-14.4-40.9-63.5-66-83.4-72.6c-19.9-6.6-29.6-19.2-37.6-28.2
	c-5.7-6.5-10.7-7.9-13.1-8.3c0,0,0,0,0,0c-1,0-1.5,0-1.5,0c0.3,0,0.5-0.1,0.8-0.1c-0.1,0-0.2,0-0.3,0h0.4c5.7-1.1,9.7-7.9,10.1-8.5
	c0,0,0-0.1,0-0.1c-26.8-8.9-49.3,4.4-49.8,4.7c0,0,0,0,0,0c-0.6-0.2-26.9-7.3-36.6-20.5c0,0-0.1,0-0.1,0c-0.5,1.1-7.8,16.9,6.8,25.3
	c0,0,0,0.1,0,0.1c-4.4-1.6-35.5-11.7-75,6.3c0,0,0,0.1,0,0.1c0.9,0.6,12.6,8.5,25.6,8.5c0,0-59.7,1.2-104.8,68.3c0,0,0,0.1,0,0.1
	c0.8,0.2,9.4,2.3,18.1-3.2c0,0,0.1,0,0.1,0.1C117.8,122.2,99,146.1,94,179.8c0,0,0,0.1,0,0.1c0.7-0.1,7.2-1.7,12.3-9.2
	c0,0,0.1,0,0.1,0c-6.5,16.5-17.6,56.1-2.1,108.8c0,0,0,0,0,0c0.4-0.1,4.7-1.6,5.8-23.1c0-0.1,0.1-0.1,0.1,0
	c0.8,5.2,9.8,58,37.1,97.6c0,0,0,0,0.1,0c3.4-2.2,6.5-4,9.2-5.3c6.3-3.2,10.3-4.3,10.3-4.3l0.2,1.1l3.4-1c0,0,0.1,0,0.1,0v18.7
	c0,0,0,0,0,0c0,0-0.3,0.4-0.7,0.9c-0.1,0.2-0.3,0.4-0.5,0.7c-0.2,0.3-0.4,0.5-0.6,0.9c-0.2,0.2-0.3,0.4-0.5,0.7
	c-0.3,0.4-0.6,0.9-1,1.4c-0.3,0.4-0.5,0.8-0.8,1.2c-0.9,1.3-1.9,2.8-2.9,4.4v0l0,0c1,1,1.5,2.4,1.3,3.7c-1.6,12.8-1.3,29.4,4.4,48.6
	c0,0,0,0,0.1,0c0.4-0.1,3-1.2,3.8-15.1c0-0.1,0.1-0.1,0.1,0c0.8,5.2,10.1,58.4,41,81.9c0,0,0.1,0,0.1,0c0.3-0.6,3.7-7.6-0.6-17.8
	c0,0,0-0.1,0.1-0.1c1.9,1.8,21.1,20.3,23.5,33c0,0,0,0,0-0.1c-2.2-11.4-17.9-27.5-22.4-31.9c0,0,0-0.1,0.1-0.1
	c6,4.9,33.9,24.4,88,19.7c73.3-6.2,96.8-65.2,98.6-70.2c0,0,0.1,0,0.1,0c-0.8,6.9,3.7,12,4.2,12.6c0,0,0.1,0,0.1,0
	c8.5-21.6,13.6-42.3,11.1-61.2 M425.2,351.3 M426.3,357.3c-0.8-2.1-12.5-10.7-12.5-10.7 M212.7,287.7c-28.7,1.7-53.4-19.6-56.4-47.9
	c0,0.1,0,0.2,0.1,0.2c-0.1-0.9-0.2-1.9-0.2-2.8c-1.7-29.5,20.9-54.9,50.4-56.6c26.6-1.5,49.7,16.6,55.3,41.8c0.5,2.1,0.8,4.3,1,6.5
	c0.1,0.7,0.1,1.5,0.2,2.2c0,0.6,0.1,1.1,0.1,1.7c0,1.5,0,3-0.1,4.5c-0.1,1.6-0.2,3.1-0.5,4.6c-0.3,2-0.7,4-1.2,5.9
	c-0.2,0.6-0.3,1.3-0.5,1.9c-0.2,0.7-0.4,1.4-0.7,2.1c-0.4,1.1-0.8,2.1-1.2,3.1c-0.4,0.9-0.8,1.8-1.2,2.7c-1.8,3.8-4.1,7.3-6.7,10.5
	c-0.6,0.7-1.2,1.4-1.8,2.1c-0.6,0.7-1.2,1.3-1.9,2c-0.3,0.3-0.6,0.6-0.9,0.8c-0.3,0.3-0.6,0.5-0.8,0.8c-0.3,0.2-0.6,0.5-0.8,0.7
	C236.3,282.1,225.1,287,212.7,287.7z M261.6,365.9c-0.2,0-0.5,0-0.7,0c-27-1.4-33.5-19.4-33.9-20.6c0,0,0,0,0,0c0,0,0,0,0,0
	c-6.4-15.7,8.4-31.7,17.7-19.3c12.3,16.3,33.7,10,34.6,9.7c0,0,0,0,0.1,0C289.6,350.7,280.9,366.9,261.6,365.9z M420.4,236.1
	c0,0.4-0.1,0.9-0.1,1.3c-0.4,4.6-1.4,9.1-2.9,13.3c-0.2,0.7-0.5,1.4-0.8,2.1c-0.3,0.7-0.6,1.4-0.9,2c-0.2,0.4-0.4,0.8-0.5,1.2
	c-0.2,0.5-0.5,0.9-0.7,1.4c-1.1,2.2-2.4,4.4-3.9,6.4c-0.5,0.7-1,1.3-1.5,2c-0.2,0.3-0.5,0.7-0.8,1c-0.6,0.7-1.2,1.4-1.8,2.1
	c-9.1,10.1-22,16.7-36.7,17.6c-28.7,1.6-53.4-19.6-56.4-47.9c0,0.1,0,0.2,0.1,0.2c-0.1-0.9-0.2-1.9-0.2-2.8
	c-1.7-29.5,20.9-54.9,50.5-56.6c1-0.1,2-0.1,3.1-0.1c0.8,0,1.6,0,2.4,0c1.6,0.1,3.1,0.2,4.6,0.4c0.4,0,0.8,0.1,1.1,0.2
	c0.5,0.1,0.9,0.2,1.4,0.2c0.3,0,0.6,0.1,0.9,0.2c0.4,0.1,0.7,0.2,1.1,0.2c1.1,0.2,2.2,0.5,3.3,0.9c0.5,0.1,1,0.3,1.5,0.4
	c0.7,0.2,1.4,0.5,2.1,0.7c0.2,0.1,0.4,0.2,0.6,0.2c0.2,0.1,0.3,0.1,0.5,0.2c0.3,0.1,0.7,0.3,1,0.4c0.6,0.2,1.1,0.5,1.7,0.7
	c0.3,0.2,0.7,0.3,1,0.5c1.1,0.5,2.2,1.1,3.2,1.7c0.2,0.1,0.5,0.3,0.7,0.4c1,0.6,1.9,1.2,2.8,1.8c0.3,0.2,0.6,0.4,0.9,0.6
	c1.3,0.9,2.5,1.8,3.7,2.8c0.2,0.2,0.5,0.4,0.7,0.6c1.1,1,2.2,2,3.2,3.1c0.3,0.3,0.5,0.5,0.8,0.8c0.2,0.3,0.5,0.6,0.7,0.8
	c0.2,0.3,0.5,0.6,0.7,0.8c0.2,0.3,0.5,0.6,0.7,0.9c0.2,0.3,0.5,0.6,0.7,0.9c0.2,0.3,0.4,0.5,0.6,0.8c0.2,0.3,0.5,0.7,0.7,1
	c0.2,0.3,0.4,0.6,0.6,0.9c0.2,0.3,0.5,0.7,0.7,1c0.2,0.3,0.4,0.6,0.6,0.9c0.2,0.3,0.4,0.6,0.6,1c0.4,0.6,0.8,1.3,1.1,2
	c0.2,0.3,0.4,0.7,0.5,1c0.5,1,1,2,1.5,3.1c0.3,0.7,0.6,1.4,0.9,2.1c0.3,0.7,0.5,1.4,0.8,2.2c0.2,0.4,0.3,0.9,0.4,1.4
	c0.4,1.3,0.8,2.7,1.1,4.1c0,0,0,0,0,0.1v0c0,0.1,0,0.2,0,0.2c0.1,0.4,0.2,0.9,0.3,1.3c0,0,0,0.1,0,0.1c0.1,0.5,0.2,1,0.3,1.5
	c0.1,0.5,0.2,1,0.2,1.5c0,0.1,0,0.1,0,0.2c0.1,0.5,0.1,1.1,0.2,1.6c0.1,0.7,0.1,1.5,0.2,2.2c0,0.6,0.1,1.1,0.1,1.7
	C420.6,233,420.5,234.5,420.4,236.1z"/>
<path class="st3" d="M413.9,354.9c-0.1,0.1-0.1,0.1-0.2,0.2C413.8,355.1,413.9,355,413.9,354.9"/>
<path class="st5" d="M237.7,506.4c0.7-6,1.1-11,1.4-14C240.7,498.5,238.8,504.1,237.7,506.4z"/>
<path class="st5" d="M270.6,502c0,0-0.1,0-0.1,0c-9.8-1.6-17.3-4.1-22.6-6.2c0,0,0,0,0,0c0,0,0,0,0,0c-4.6-1.9-7.5-3.6-8.7-4.4
	c0.1-0.8,0.1-1.3,0.1-1.6c0,0,0,0-0.1-0.1l0.1,0c0-0.1,0-0.2,0-0.2l30.3,8.1C269.7,497.5,270,499.2,270.6,502z"/>
<path class="st5" d="M336,496.8C336,496.8,336,496.8,336,496.8c-3.9,1.4-8.4,2.7-13.5,3.9c-5.5,1.2-11.8,2.2-18.8,2.7h-0.1
	c0.7-3.7,1.3-6,1.3-6l30.3-8c0,0,0,0,0,0l0.1,0C335.4,489.4,335.6,492.2,336,496.8z"/>
<path class="st5" d="M414,354.8L414,354.8"/>
<path class="st5" d="M413.9,354.9L413.9,354.9"/>
<path class="st5" d="M423.6,378c-1-1.6-2-3.1-2.9-4.5c0,0,0,0,0-0.1c0,0,0,0,0-0.1c0,0,0,0,0,0.1c0.9,1.3,1.8,2.8,2.7,4.3v0
	C423.5,377.8,423.6,377.9,423.6,378z"/>
<g>
	<path class="st7" d="M263.1,237.2c-0.1,1.6-0.2,3.1-0.5,4.6c-0.3,2-0.7,4-1.2,5.9c-0.2,0.6-0.3,1.3-0.5,1.9
		c-0.2,0.7-0.4,1.4-0.7,2.1c-0.4,1.1-0.8,2.1-1.2,3.1c-0.4,0.9-0.8,1.8-1.2,2.7c-1.8,3.8-4.1,7.3-6.7,10.5c-0.6,0.7-1.2,1.4-1.8,2.1
		c-0.6,0.7-1.2,1.3-1.9,2c-0.3,0.3-0.6,0.6-0.9,0.8c-0.3,0.3-0.6,0.5-0.8,0.8c-0.3,0.2-0.6,0.5-0.8,0.7
		c-8.7,7.6-19.9,12.5-32.2,13.2c-28.6,1.7-53.2-19.5-56.3-47.7c-0.1-0.9-0.2-1.9-0.2-2.8c-1.7-29.5,20.9-54.9,50.4-56.6
		c26.6-1.5,49.7,16.6,55.3,41.8c0.5,2.1,0.8,4.3,1,6.5c0.1,0.7,0.1,1.5,0.2,2.2c0,0.6,0.1,1.1,0.1,1.7
		C263.2,234.2,263.2,235.7,263.1,237.2z"/>
	<path class="st8" d="M263.1,237.2c-0.1,1.6-0.2,3.1-0.5,4.6c-0.3,2-0.7,4-1.2,5.9c-0.2,0.6-0.3,1.3-0.5,1.9
		c-0.2,0.7-0.4,1.4-0.7,2.1c-0.4,1.1-0.8,2.1-1.2,3.1c-0.4,0.9-0.8,1.8-1.2,2.7c-1.8,3.8-4.1,7.3-6.7,10.5c-0.6,0.7-1.2,1.4-1.8,2.1
		c-0.6,0.7-1.2,1.3-1.9,2c-0.3,0.3-0.6,0.6-0.9,0.8c-0.3,0.3-0.6,0.5-0.8,0.8c-0.3,0.2-0.6,0.5-0.8,0.7
		c-8.6,7.6-19.8,12.5-32.2,13.2c-28.7,1.7-53.4-19.6-56.4-47.9c0,0.1,0,0.2,0.1,0.2c5.7,25,28.8,43,55.3,41.5
		c29.5-1.7,52.2-27,50.5-56.6c0-0.9-0.1-1.7-0.2-2.5c0.5,2.1,0.8,4.2,1,6.5c0.1,0.7,0.1,1.5,0.2,2.2c0,0.6,0.1,1.1,0.1,1.7
		C263.2,234.2,263.2,235.7,263.1,237.2z"/>
	<path class="st9" d="M228.6,232.9c0.7,11.6-8.2,21.5-19.8,22.1c-11.6,0.7-21.5-8.2-22.1-19.8c-0.7-11.6,8.2-21.5,19.8-22.1
		C218.1,212.5,228,221.4,228.6,232.9z"/>
	<path class="st10" d="M219.3,233.5c0.4,6.4-4.5,11.9-10.9,12.2s-11.9-4.5-12.2-10.9c-0.4-6.4,4.5-11.9,10.9-12.2
		C213.5,222.2,218.9,227.1,219.3,233.5z"/>
	<path class="st7" d="M222,224.7c0.2,3.6-2.6,6.7-6.2,7c-3.6,0.2-6.7-2.6-7-6.2c-0.2-3.6,2.6-6.7,6.2-7
		C218.7,218.3,221.8,221.1,222,224.7z"/>
</g>
<g>
	<path class="st7" d="M420.4,236.1c0,0.4-0.1,0.9-0.1,1.3c-0.4,4.6-1.4,9.1-2.9,13.3c-0.2,0.7-0.5,1.4-0.8,2.1
		c-0.3,0.7-0.6,1.4-0.9,2c-0.2,0.4-0.4,0.8-0.5,1.2c-0.2,0.5-0.5,0.9-0.7,1.4c-1.1,2.2-2.4,4.4-3.9,6.4c-0.5,0.7-1,1.3-1.5,2
		c-0.2,0.3-0.5,0.7-0.8,1c-0.6,0.7-1.2,1.4-1.8,2.1c-9.1,10-22.1,16.6-36.7,17.5c-28.6,1.7-53.2-19.5-56.3-47.7
		c-0.1-0.9-0.2-1.9-0.2-2.8c-1.7-29.5,20.9-54.9,50.5-56.6c1-0.1,2-0.1,3.1-0.1c0.8,0,1.6,0,2.4,0c1.6,0.1,3.1,0.2,4.6,0.4
		c0.4,0,0.8,0.1,1.1,0.2c0.5,0.1,0.9,0.2,1.4,0.2c0.3,0,0.6,0.1,0.9,0.2c0.4,0.1,0.7,0.2,1.1,0.2c1.1,0.2,2.2,0.5,3.3,0.9
		c0.4,0.1,0.8,0.2,1.2,0.4c0.7,0.2,1.3,0.4,2,0.7c0.3,0.1,0.7,0.2,1,0.4c0.2,0.1,0.3,0.1,0.5,0.2c0.3,0.1,0.7,0.3,1,0.4
		c0.6,0.2,1.1,0.5,1.7,0.7c0.3,0.2,0.7,0.3,1,0.5c1.1,0.5,2.2,1.1,3.2,1.7c0.2,0.1,0.5,0.3,0.7,0.4c1,0.6,1.9,1.2,2.8,1.8
		c0.3,0.2,0.6,0.4,0.9,0.6c1.3,0.9,2.5,1.8,3.7,2.8c0.2,0.2,0.5,0.4,0.7,0.6c1.1,1,2.2,2,3.2,3.1c0.3,0.3,0.5,0.5,0.8,0.8
		c0.2,0.3,0.5,0.6,0.7,0.8c0.2,0.3,0.5,0.6,0.7,0.8c0.2,0.3,0.5,0.6,0.7,0.9c0.2,0.3,0.5,0.6,0.7,0.9c0.2,0.3,0.4,0.5,0.6,0.8
		c0.2,0.3,0.5,0.7,0.7,1c0.2,0.3,0.4,0.6,0.6,0.9c0.2,0.3,0.5,0.7,0.7,1c0.2,0.3,0.4,0.6,0.6,0.9c0.2,0.3,0.4,0.6,0.6,1
		c0.4,0.6,0.8,1.3,1.1,2c0.2,0.3,0.4,0.7,0.5,1c0.5,1,1,2,1.5,3.1c0.3,0.7,0.6,1.4,0.9,2.1c0.3,0.7,0.5,1.4,0.8,2.2
		c0.2,0.4,0.3,0.9,0.4,1.4c0.4,1.3,0.8,2.7,1.1,4.1c0,0,0,0,0,0.1v0c0,0.1,0,0.2,0,0.2c0.1,0.4,0.2,0.9,0.3,1.3c0,0,0,0.1,0,0.1
		c0,0.1,0,0.3,0.1,0.4c0.1,0.3,0.1,0.7,0.2,1c0,0,0,0,0,0c0.1,0.5,0.2,1,0.2,1.5c0,0.1,0,0.1,0,0.2c0.1,0.5,0.1,1.1,0.2,1.6
		c0.1,0.7,0.1,1.5,0.2,2.2c0,0.6,0.1,1.1,0.1,1.7C420.6,233,420.5,234.5,420.4,236.1z"/>
	<path class="st8" d="M420.4,236.1c0,0.4-0.1,0.9-0.1,1.3c-0.4,4.6-1.4,9.1-2.9,13.3c-0.3,0.7-0.5,1.4-0.8,2.1
		c-0.3,0.7-0.6,1.4-0.9,2c-0.2,0.4-0.4,0.8-0.5,1.2c-0.2,0.5-0.5,0.9-0.7,1.4c-1.1,2.2-2.4,4.4-3.9,6.4c-0.5,0.7-1,1.3-1.5,2
		c-0.2,0.3-0.5,0.7-0.8,1c-0.6,0.7-1.2,1.4-1.8,2.1c-9.1,10.1-22,16.7-36.7,17.6c-28.7,1.6-53.4-19.6-56.4-47.9c0,0.1,0,0.2,0.1,0.2
		c5.7,25,28.8,43,55.3,41.5c29.5-1.7,52.2-27,50.5-56.6c0-0.8-0.1-1.7-0.2-2.4c0,0.1,0,0.2,0,0.2c0.1,0.4,0.2,0.9,0.3,1.3
		c0,0,0,0.1,0,0.1c0,0.1,0,0.3,0.1,0.4c0.1,0.3,0.1,0.7,0.2,1.1c0.1,0.5,0.2,1,0.2,1.5c0,0.1,0,0.1,0,0.2c0.1,0.5,0.1,1.1,0.2,1.6
		c0.1,0.7,0.1,1.5,0.2,2.2c0,0.6,0.1,1.1,0.1,1.7C420.6,233,420.5,234.5,420.4,236.1z"/>
	<path class="st9" d="M386,231.6c0.7,11.6-8.2,21.5-19.8,22.1s-21.5-8.2-22.1-19.8c-0.7-11.6,8.2-21.5,19.8-22.1
		C375.4,211.2,385.3,220.1,386,231.6z"/>
	<path class="st10" d="M376.6,232.2c0.4,6.4-4.5,11.9-10.9,12.2c-6.4,0.4-11.9-4.5-12.2-10.9c-0.4-6.4,4.5-11.9,10.9-12.2
		C370.8,220.9,376.2,225.8,376.6,232.2z"/>
	<path class="st7" d="M379.4,223.5c0.2,3.6-2.6,6.7-6.2,7c-3.6,0.2-6.7-2.6-7-6.2c-0.2-3.6,2.6-6.7,6.2-7
		C376.1,217,379.2,219.8,379.4,223.5z"/>
</g>
<g>
	<path class="st11" d="M261.6,365.9c-0.2,0-0.5,0-0.7,0c-5.5-0.4-11.9-2.2-18.9-5.7c-8.2-4.2-12.8-9.5-15-14.9c0,0,0,0,0,0
		c0,0,0,0,0,0c-6.4-15.7,8.4-31.7,17.7-19.3c12.5,16.6,34.6,9.7,34.6,9.7C289.6,350.7,280.9,366.9,261.6,365.9z"/>
	<path class="st12" d="M261.6,365.9c-0.2,0-0.5,0-0.7,0c-27-1.4-33.5-19.4-33.9-20.6c0,0,0,0,0,0c0,0,0,0,0,0
		C264,333.4,261.6,365.9,261.6,365.9z"/>
</g>
<path class="st13" d="M393.8,96.6c-8.1-18-27.9-25.5-50.2-27.6l0,0c-1.4-5.6-31.1-15.5-55.3-10.7c-19.5,3.8-35.3,10-40.1,15.1
	c-0.2,0-0.4-0.1-0.6-0.1c-5.7,3.5-13.2,6.4-23,7.6c-12,1.4-33.6-1.1-43.3-22.7c0,0-10.2,69.6,54.6,75.1c3.3,0.3,6.5,0.3,9.4,0
	c-2.6,2.2-5.8,4.2-9.6,6.1c-8.5,4-25,7.4-38.2-6.4c0,0,11.6,54.7,60.8,43.1c22.1-5.3,31.9-26.5,35.6-50.3c2,3.5,3.8,7.5,5.3,12.1
	c3.4,11.1,4.1,31.5-17,42.8c0,0,74.8,2.5,70.3-58.7c-0.2-3.1-0.7-6.1-1.4-8.8c2.7,2.2,5.4,5,7.9,8.4c5.5,7.5,11.7,22.6-0.7,36.4
	C358.1,157.8,413.8,141.5,393.8,96.6z M233.9,93.2c-1.2,0.3-2.5,0.7-3.7,1c-1.3,0.3-2.6,0.6-3.9,0.8c-2.7,0.3-5.3,0.6-8,0.4
	c-2.7-0.1-5.3-0.5-7.7-1.2c-2.5-0.6-4.7-1.6-6.8-2.6c-2.1-1-3.8-2.2-5.4-3.4c-3.1-2.4-5.2-4.9-6.4-6.7c-1.1-1.7-1.6-2.7-1.7-2.9
	c0.1,0.1,0.9,1.1,2.4,2.4c1.6,1.5,4,3.5,7.2,5.3c3.2,1.8,7.1,3.6,11.5,4.3c2.2,0.4,4.4,0.7,6.9,0.7c2.3,0.1,4.8-0.2,7.1-0.5
	c1.2-0.1,2.4-0.4,3.6-0.6c1.1-0.3,2.3-0.6,3.5-0.9c0.3-0.1,0.6-0.2,0.9-0.3c-0.4,0.5-0.7,1-0.9,1.4c0,0,1.3,0.8,3.5,2
	C235.3,92.7,234.6,93,233.9,93.2z M295.8,92.9c1.9,1,4,2,5.8,3.1c1.7,1.1,3.5,2.3,5.1,3.5c0,0,0.1,0.1,0.1,0.1
	c0.8,0.7,1.7,1.3,2.4,1.9c0.7,0.7,1.5,1.3,2.1,2c1.3,1.3,2.5,2.6,3.5,3.9c1,1.3,1.9,2.5,2.6,3.6c0.7,1.1,1.2,2.1,1.7,2.9
	c0.8,1.8,1.2,2.8,1.2,3c-0.1-0.1-0.8-0.9-1.9-2.2c-0.6-0.6-1.4-1.5-2.3-2.4c-0.9-0.9-2-1.9-3.1-3c-1.2-1.1-2.5-2.1-3.8-3.2
	c-0.7-0.6-1.5-1.1-2.2-1.7c-0.7-0.6-1.6-1.1-2.4-1.6c-1.6-1.1-3.4-2-5.1-3.2c-1.2-0.7-2.4-1.3-3.7-1.9c0-0.8,0-1.6,0-2.4
	C295.7,94.4,295.7,93.7,295.8,92.9C295.7,92.9,295.8,92.9,295.8,92.9z M281.5,75.2c-0.4,0-0.7,0-1.1,0.1c-0.2,0-0.4,0-0.6,0
	c0.2,0,0.3,0,0.5,0C280.7,75.2,281.1,75.2,281.5,75.2z M276.5,75.3c0.2,0,0.4,0,0.6,0c-0.3,0-0.6,0-0.9,0
	C276.4,75.3,276.4,75.3,276.5,75.3z M259.4,77.5c0,0,0.1,0,0.1,0C259.4,77.5,259.4,77.5,259.4,77.5
	C259.3,77.5,259.3,77.5,259.4,77.5z M283.1,129.3c-0.3,1.2-0.7,2.7-1.2,4.4c-0.3,0.8-0.6,1.7-0.9,2.6c-0.3,0.9-0.8,1.9-1.2,2.9
	c-0.9,2-1.9,4.1-3.2,6.3c-1.3,2.2-2.7,4.4-4.5,6.6c-0.9,1.2-1.9,2.2-2.8,3.2c-1,1.1-2.1,2.1-3.2,3.1c-1.1,1-2.5,1.9-3.6,2.7
	c-1.2,0.9-2.7,1.6-4.2,2.3c-1.5,0.8-2.9,1.2-4.3,1.7l-1,0.4l-0.3,0.1l-0.1,0.1l-0.2,0l-0.1,0l-0.6,0.1l-2.3,0.5
	c-1.5,0.4-3.2,0.4-4.6,0.5c-1.5,0.2-3.1,0-4.6-0.1c-1.5-0.1-3-0.4-4.4-0.7c-1.4-0.4-2.8-0.7-4.1-1.2c-2.6-1-5-2.1-6.8-3.4
	c-2-1.2-3.7-2.6-5-3.8c-1.5-1.2-2.5-2.4-3.4-3.4c-2-2-2.7-3.2-2.8-3.4c0.1,0.1,1.2,1.2,3.1,2.7c1,0.9,2.3,1.8,3.8,2.8
	c0.7,0.5,1.5,1,2.5,1.5c0.8,0.5,1.8,1,2.8,1.5c2,1,4.2,1.7,6.6,2.5c1.2,0.3,2.5,0.5,3.8,0.8c1.3,0,2.6,0.3,3.9,0.4
	c2.7,0.1,5.4-0.1,8.2-0.7l2.1-0.4l0.5-0.1l0.1,0l0.3-0.1l1-0.4c1.4-0.5,2.9-0.9,4-1.6c1.2-0.6,2.4-1.1,3.6-1.9
	c1.2-0.8,2.3-1.5,3.3-2.4c1.1-0.9,2.2-1.7,3.1-2.7c1-0.9,2-1.8,2.8-2.8c3.5-3.9,6.3-8,8.5-11.6c1.1-1.8,2.1-3.6,2.8-5.1
	c0.8-1.5,1.5-2.9,2-4c1.1-2.2,1.6-3.6,1.6-3.6s0,0.4-0.1,1C283.5,127.1,283.4,128.1,283.1,129.3z M313.6,156.1
	c-0.7,2.1-1.7,3.8-2.7,5.4c-2,3.1-4.3,5.4-6,6.7c-1.6,1.2-2.6,1.8-2.7,1.8c0.1-0.1,1-0.9,2.1-2.5c1.3-1.6,3-4.1,4.4-7.2
	c1.4-3.1,2.6-7,2.8-11.2c0.1-2.1,0-4.2-0.4-6.5c-0.3-2.2-0.9-4.4-1.6-6.6c-0.3-1.1-0.8-2.2-1.2-3.3c-0.5-1-1-2.1-1.5-3.1
	c-0.5-1-1.1-2-1.6-3.1c-0.6-0.9-1.2-2-1.8-2.9c-1.2-1.9-2.5-3.7-3.7-5.3c-1.3-1.7-2.5-3.2-3.7-4.7c-0.2-0.3-0.4-0.6-0.7-0.8
	c-0.9-1.1-1.8-2.1-2.5-3.1c-0.9-1.2-1.8-2.1-2.6-3c-1.3-1.4-2.1-2.3-2.2-2.6c0.2,0.1,1.2,0.8,2.8,2c0.9,0.7,2,1.4,3.1,2.5
	c0.5,0.4,1,0.8,1.6,1.3c0.8,0.6,1.5,1.3,2.3,2.1c1.3,1.3,2.9,2.7,4.4,4.4c1.5,1.5,3,3.4,4.4,5.3c0.7,0.9,1.4,2,2.1,3
	c0.6,1,1.3,2.1,1.9,3.2c0.5,1.1,1.1,2.3,1.7,3.4c0.5,1.2,1,2.3,1.4,3.5c0.8,2.5,1.4,4.9,1.7,7.4c0.3,2.5,0.3,5,0,7.4
	C315,151.8,314.4,154,313.6,156.1z M383.8,129.5c-1,2-2.2,3.7-3.2,5.1c-1.1,1.5-2.1,2.6-3.1,3.5c-1.7,2.1-2.9,2.9-3.1,3
	c0.1-0.1,1-1.2,2.4-3.1c0.8-1.1,1.6-2.3,2.3-3.9c0.4-0.7,0.9-1.5,1.2-2.5c0.4-0.8,0.8-1.8,1.1-2.8c0.7-2,1.2-4.1,1.5-6.4
	c0.1-1.2,0.2-2.4,0.2-3.6c-0.2-1.2,0-2.4-0.2-3.7c-0.3-2.5-1-5-2-7.6l-0.8-1.9l-0.2-0.4l0-0.1l-0.2-0.2l-0.6-0.9
	c-0.7-1.3-1.4-2.6-2.3-3.6c-0.9-1.1-1.5-2.1-2.6-3.2c-1-1-1.9-2-3.1-2.9c-1.1-0.9-2.1-1.9-3.3-2.6c-1.1-0.8-2.2-1.7-3.4-2.3
	c-4.7-2.9-9.4-5.1-13.6-6.8c-2.1-0.8-4.1-1.6-5.8-2.1c-1.7-0.6-3.3-1.1-4.5-1.5c-2.5-0.8-4.1-1.2-4.1-1.2s0.4,0,1.1,0
	c0.7,0,1.8,0.1,3.1,0.2c1.4,0.2,2.9,0.4,4.8,0.7c0.9,0.2,1.9,0.4,2.9,0.6c1,0.2,2.1,0.5,3.3,0.8c2.2,0.7,4.7,1.4,7.1,2.4
	c2.5,1,5.1,2.1,7.7,3.5c1.4,0.7,2.6,1.6,3.8,2.3c1.3,0.8,2.5,1.7,3.7,2.7c1.2,1,2.4,2.1,3.4,3.1c1.2,1.1,2.1,2.4,3.1,3.7
	c1.1,1.3,1.7,2.6,2.4,3.8l0.6,0.9l0.2,0.2l0.1,0.1l0.1,0.2l0,0.1l0.2,0.5l0.9,2.1c0.7,1.4,0.9,2.9,1.3,4.3c0.5,1.4,0.5,2.9,0.6,4.3
	c0.1,1.4,0.1,2.8,0,4.2c-0.2,1.4-0.3,2.7-0.6,3.9C385.6,125.3,384.8,127.6,383.8,129.5z"/>
</svg>
