<?xml version="1.0" encoding="utf-8"?>
<!-- Generator: Adobe Illustrator 22.0.0, SVG Export Plug-In . SVG Version: 6.00 Build 0)  -->
<svg version="1.1" id="Capa_1" xmlns="http://www.w3.org/2000/svg" xmlns:xlink="http://www.w3.org/1999/xlink" x="0px" y="0px"
	 viewBox="0 0 598.1 598.1" style="enable-background:new 0 0 598.1 598.1;" xml:space="preserve">
<style type="text/css">
	.st0{fill:#5DB130;}
	.st1{fill:#3AA136;}
	.st2{fill:#70B62C;}
	.st3{fill:#7DBA39;}
	.st4{fill:#511627;}
	.st5{fill:#EC6C83;}
	.st6{fill:#F18E1F;}
	.st7{fill:#FFFFFF;}
	.st8{fill:#E8E6E6;}
	.st9{fill:#BFAA10;}
	.st10{fill:#504A1B;}
</style>
<g>
	<g>
		<path class="st0" d="M448,415.1c0.7,51.7,65.1,76.8,57-7.5C496,312.1,430,277.7,430,277.7l-10.9,26.1
			C419.1,303.8,447.3,363.3,448,415.1z"/>
		<path class="st1" d="M502.9,444c0,0-18.2,16.9-29.9,5.3c-11.7-11.6-13-30.4-15.3-48.4c-2.3-18,5.6-87.5-14-113.9l-24.6,16.7
			c0,0,28.2,59.5,28.9,111.3C448.5,457.1,491.2,481.6,502.9,444z"/>
		<path class="st0" d="M175.3,299.5l-10.9-26.1c0,0-66,34.4-75.1,129.8c-8,84.4,56.3,59.2,57,7.5C147.1,359,175.3,299.5,175.3,299.5
			z"/>
		<path class="st1" d="M146.4,410.8c0.7-51.8,28.9-111.3,28.9-111.3l-24.6-16.7c-19.6,26.4-11.7,95.9-14,113.9
			c-2.3,18-3.7,36.7-15.3,48.4s-29.9-5.3-29.9-5.3C103.2,477.3,145.9,452.8,146.4,410.8z"/>
		<path class="st0" d="M216.3,402.9c0,0-10.9,137-30.7,146.4c-19.9,9.4-12.9,15.2,35.1,15.2s57.2-4.6,59.6-44.3
			s-12.1-103.4-12.1-103.4L216.3,402.9z"/>
		<path class="st0" d="M411.2,549.3c-19.9-9.4-30.7-146.4-30.7-146.4l-51.8,13.7c0,0-14.4,63.7-12.1,103.4
			c2.4,39.7,11.7,44.3,59.6,44.3C424.1,564.5,431.1,558.6,411.2,549.3z"/>
		<path class="st1" d="M270.4,510.1c-7.6,40.3-38,58-83.6,52.6c7.4,1.1,18.5,1.7,33.9,1.7c48,0,57.2-4.6,59.6-44.3
			s-12.1-103.4-12.1-103.4l-51.8-13.7c0,0,8.5,8.2,26.6,16.2C261.1,427.2,277.9,469.8,270.4,510.1z"/>
		<path class="st1" d="M382,483.6c3.5,39.3,30.4,82.4-23.4,80.4l0,0c5.2,0.2,11,0.4,17.6,0.4c48,0,55-5.9,35.1-15.2
			c-19.9-9.4-30.7-146.4-30.7-146.4l-51.8,13.7c0,0,14.2,4.7,26.2,4.7C366.7,421.3,378.5,444.4,382,483.6z"/>
		<path class="st2" d="M432.7,262.6c5,6.5,12.6,10.4,12.6,10.4c-2.7-31.9-44.4-68.1-44.4-68.1c13.9,4.8,14.2,0.4,14.2,0.4
			c-40.7-41.1-88.1-38.6-88.1-38.6c4.9-0.4,8.2-6.5,8.2-6.5c-20.2-6.7-36.9,3.5-36.9,3.5s-20-5.3-27.2-15.2c0,0-6.3,12.7,5.4,19
			c0,0-24.4-9.9-56.1,4.5c0,0,9.1,6.3,19,6.3c0,0-44.3,0.9-77.8,50.7c0,0,6.8,1.9,13.7-2.5c-8.1,8.3-22.1,26.1-26,51.4
			c0,0,5.4-0.9,9.3-7.1c-4.8,12-13.3,41.6-1.6,81.1c0,0,3.5-0.3,4.4-17.4c0,0,9.6,64.9,46.3,92.8c0,0,4.5-8.1-0.8-20.4
			c0,0,23.9,22.4,26.6,37.4c0,0,5.2-9.1,1.6-18.8c0,0,20.1,14.5,62.2,14.5s66.2-16.6,66.2-16.6c-2.3,8.3,5.1,16.6,5.1,16.6
			c0.7-13.8,19.2-33,19.2-33c-7,6.4-0.8,19.7-0.8,19.7c13.2-11.2,22.4-33.2,26.6-44.6c-0.9,7.9,4.1,13.4,4.1,13.4
			c17.7-19,16.8-65.2,16.8-65.2c1.2,11.5,11,21.1,11,21.1C453.5,308.3,432.7,262.6,432.7,262.6z"/>
		<path class="st3" d="M207,406.8c0,0,23.9,22.4,26.6,37.4c0,0,5.2-9.1,1.6-18.8c0,0,20.1,14.5,62.2,14.5s66.2-16.6,66.2-16.6
			c-2.3,8.3,5.1,16.6,5.1,16.6c0.7-13.8,19.2-33,19.2-33c-7,6.4-0.8,19.7-0.8,19.7c13.2-11.2,22.4-33.2,26.6-44.6
			c-0.9,7.9,4.1,13.4,4.1,13.4c17.7-19,16.8-65.2,16.8-65.2c1.2,11.5,11,21.1,11,21.1c8.1-42.7-12.6-88.5-12.6-88.5
			c5,6.5,12.6,10.4,12.6,10.4C442.8,241.2,401,205,401,205c13.9,4.8,14.2,0.4,14.2,0.4c-40.7-41.1-88.1-38.6-88.1-38.6
			s4.9-0.5,10.8,6.2c5.9,6.7,13.1,16.1,27.9,21c14.7,4.9,51.3,23.6,62,54c0,0-8.7-2.7-12.7-8c0,0,32.3,65.1,8.4,125.7
			c0,0-5.9-6.2-4.7-14.6c0,0-25,72.1-111.3,79.5C238.1,436.2,207,406.8,207,406.8z"/>
		<g>
			<path class="st4" d="M295,245.9c17.2,0,27.1-5.1,35.5-9.2c9.4-4.6,16.8-8.1,30.4-2.2c25.9,11.2,19.4,85.3-54.5,90.1
				c-73.9,4.8-106.8-62.4-78.7-85.3C257.9,214.7,264.9,245.9,295,245.9z"/>
			<path class="st5" d="M235.2,299.9c15,15.4,39.2,26.8,71.2,24.7c25.8-1.7,43.3-11.8,54.3-24.7c-0.2-0.3-11.5-14.9-63.4-14.9
				C244.8,285,235.2,299.9,235.2,299.9z"/>
		</g>
		<path class="st2" d="M346.5,156.4c-0.4,4.2,1.7,7.1,1.7,7.1c7.5-10,7.1-34.3,7.1-34.3c0.5,6,4.7,11.1,4.7,11.1
			c3.4-22.6-5.4-46.7-5.4-46.7c2.1,3.4,5.3,5.5,5.3,5.5c-1.1-16.8-18.8-35.8-18.8-35.8c5.9,2.5,6,0.2,6,0.2
			C330,41.8,310,43.1,310,43.1c2.1-0.2,3.5-3.4,3.5-3.4c-8.5-3.5-15.6,1.8-15.6,1.8s-8.4-2.8-11.5-8c0,0-2.7,6.7,2.3,10
			c0,0-10.3-5.2-23.7,2.4c0,0,3.8,3.3,8,3.3c0,0-18.7,0.5-32.9,26.7c0,0,2.9,1,5.8-1.3c-3.4,4.4-9.4,13.7-11,27c0,0,2.3-0.5,3.9-3.7
			c-2,6.3-5.6,21.9-0.7,42.7c0,0,1.5-0.2,1.8-9.2c0,0,4.1,34.2,19.6,48.8c0,0,1.9-4.3-0.3-10.7c0,0,10.1,11.8,11.3,19.7
			c0,0,2.2-4.8,0.7-9.9c0,0,8.5,7.6,26.3,7.6c17.8,0,28-8.7,28-8.7"/>
		<path class="st6" d="M365.4,164.1"/>
		<path class="st3" d="M346.5,156.3c-0.4,4.2,1.7,7.1,1.7,7.1c7.5-10,7.1-34.3,7.1-34.3c0.5,6,4.7,11.1,4.7,11.1
			c3.4-22.5-5.3-46.6-5.3-46.6c2.1,3.4,5.3,5.5,5.3,5.5c-1.1-16.8-18.8-35.8-18.8-35.8c5.9,2.5,6,0.2,6,0.2
			C330,41.8,310,43.1,310,43.1s2.1-0.3,4.6,3.2c2.5,3.5,5.6,8.5,11.8,11c6.2,2.6,21.7,12.4,26.2,28.4c0,0-3.7-1.4-5.4-4.2
			c0,0,13.6,34.2,3.6,66.1c0,0-2.5-3.2-2-7.7c0,0-10.6,37.9-47,41.8c-29.4,3-42.5-12.5-42.5-12.5s10.1,11.8,11.3,19.7
			c0,0,2.2-4.8,0.7-9.9c0,0,8.5,7.6,26.3,7.6s28-8.7,28-8.7c-1,4.4,2.1,8.7,2.1,8.7c0.3-7.3,8.1-17.4,8.1-17.4"/>
		<path class="st7" d="M323.8,239.9c0,0,0.1,6.3,4.8,5.5c4.7-0.8-0.5-7.5-0.5-7.5L323.8,239.9z"/>
		<path class="st7" d="M318.8,323c0,0-3-5.3,0.2-7.6s6.7,6.1,6.7,6.1L318.8,323z"/>
		<path class="st7" d="M264.8,235.3c0,0-7.9,8-0.8,12.7c7.1,4.8,11-7.1,11-7.1L264.8,235.3z"/>
	</g>
	<g>
		<path class="st7" d="M338.4,113.8c1.3,22.1-15.6,41-37.7,42.3c-22.1,1.3-41-15.6-42.3-37.7c-1.3-22.1,15.6-41,37.7-42.3
			C318.2,74.9,337.1,91.7,338.4,113.8z"/>
		<path class="st8" d="M338.4,113.8c-0.1-2.2-0.5-4.4-0.9-6.5c0,0.6,0.1,1.2,0.1,1.9c1.3,22.1-15.6,41-37.7,42.3
			c-19.8,1.1-37.2-12.4-41.4-31.2c2.2,21.2,20.7,37.1,42.2,35.8C322.7,154.9,339.6,135.9,338.4,113.8z"/>
		<path class="st9" d="M312.6,115.2c0.5,8.6-6.1,16-14.8,16.5c-8.6,0.5-16-6.1-16.5-14.8s6.1-16,14.8-16.5
			C304.7,99.9,312.1,106.6,312.6,115.2z"/>
		<path class="st10" d="M305.6,115.6c0.3,4.8-3.4,8.9-8.1,9.1c-4.8,0.3-8.9-3.4-9.1-8.1c-0.3-4.8,3.4-8.9,8.1-9.1
			C301.2,107.2,305.3,110.8,305.6,115.6z"/>
		<path class="st7" d="M307.6,109.1c0.1,2.7-1.9,5-4.6,5.2c-2.7,0.1-5-1.9-5.2-4.6c-0.1-2.7,1.9-5,4.6-5.2
			C305.2,104.3,307.5,106.4,307.6,109.1z"/>
	</g>
</g>
</svg>
