<?xml version="1.0" encoding="utf-8"?>
<!-- Generator: Adobe Illustrator 22.0.0, SVG Export Plug-In . SVG Version: 6.00 Build 0)  -->
<svg version="1.1" id="Layer_1" xmlns="http://www.w3.org/2000/svg" xmlns:xlink="http://www.w3.org/1999/xlink" x="0px" y="0px"
	 viewBox="0 0 673.8 600" style="enable-background:new 0 0 673.8 600;" xml:space="preserve">
<style type="text/css">
	.st0{fill:#8C32CC;}
	.st1{fill:#7D1AB7;}
	.st2{fill:#9536D8;}
	.st3{fill:#7F1CC6;}
	.st4{fill:#FFFFFF;}
	.st5{fill:#E7E7E7;}
	.st6{fill:#7AF94B;}
	.st7{fill:#15680C;}
	.st8{fill:#501627;}
	.st9{fill:#F56A82;}
</style>
<path class="st0" d="M223.9,398.9c0,0-6.3,136.7-17.9,146.1c-11.6,9.3-7.5,15.2,20.5,15.2s33.3-4.6,34.7-44.2s-7.1-103.2-7.1-103.2
	L223.9,398.9z"/>
<path class="st0" d="M459.8,544.9c-11.6-9.3-17.9-146.1-17.9-146.1l-30.3,13.8c0,0-8.4,63.6-7.1,103.2c1.4,39.6,6.8,44.2,34.7,44.2
	C467.3,560,471.4,554.1,459.8,544.9z"/>
<path class="st1" d="M255.5,505.8c-4.4,40.3-22.1,57.8-48.7,52.5c4.3,1.1,10.8,1.7,19.7,1.7c28,0,33.3-4.6,34.7-44.2
	s-7.1-103.2-7.1-103.2l-30.2-13.7c0,0,5,8.2,15.5,16.2C250,423.1,259.8,465.6,255.5,505.8z"/>
<path class="st1" d="M442.7,479.4c2,39.3,17.7,82.2-13.6,80.3l0,0c3.1,0.2,6.4,0.4,10.3,0.4c28,0,32-5.9,20.5-15.2
	c-11.6-9.3-17.9-146.1-17.9-146.1l-30.3,13.7c0,0,8.3,4.7,15.3,4.7C433.9,417.2,440.7,440.2,442.7,479.4z"/>
<path class="st0" d="M285.7,398.7c0,0-6.3,136.7-17.9,146.1c-11.6,9.3-7.5,15.2,20.5,15.2s33.3-4.6,34.7-44.2s-7.1-103.2-7.1-103.2
	L285.7,398.7z"/>
<path class="st0" d="M395.8,544.7c-11.6-9.3-17.9-146.1-17.9-146.1l-30.3,13.8c0,0-8.4,63.6-7.1,103.2c1.4,39.6,6.8,44.2,34.7,44.2
	C403.3,559.8,407.3,554,395.8,544.7z"/>
<path class="st1" d="M317.3,505.6c-4.4,40.3-22.1,57.8-48.7,52.5c4.3,1.1,10.8,1.7,19.7,1.7c28,0,33.3-4.6,34.7-44.2
	c1.4-39.6-7.1-103.2-7.1-103.2l-30.2-13.7c0,0,5,8.2,15.5,16.2C311.8,422.9,321.6,465.4,317.3,505.6z"/>
<path class="st1" d="M378.7,479.2c2,39.3,17.7,82.2-13.6,80.3l0,0c3.1,0.2,6.4,0.4,10.3,0.4c28,0,32-5.9,20.5-15.2
	S378,398.6,378,398.6l-30.2,13.7c0,0,8.3,4.7,15.3,4.7C369.8,417,376.7,440.1,378.7,479.2z"/>
<path class="st0" d="M168.2,326.2l-13.3-20.1c0,0-49.9,39.4-42.4,121c6.7,72.1,56.7,40.8,49.1-2.8S168.2,326.2,168.2,326.2z"/>
<path class="st0" d="M509.1,267.1l7.4,22.9c0,0,58.6-24.8,72.8-105.5c12.6-71.3-43.9-54.4-48.1-10.3
	C537.2,218.3,509.1,267.1,509.1,267.1z"/>
<path class="st1" d="M148.6,312.1c0,0,7.1,45.4,0.8,75.4c-6.2,29.9,7.1,60.6-5.2,71.5c-12.3,11-25-3.6-25-3.6
	c15.4,32.7,48.7,5,42.3-31.1c-7.7-43.6,6.5-98,6.5-98l-13.3-20.1L148.6,312.1z"/>
<path class="st1" d="M550.2,253.3c-30.1,26.1-37.4,6.9-37.4,6.9l-3.7,6.9l7.4,22.9c0,0,58.6-24.8,72.8-105.5
	C589.4,184.5,580.2,227.2,550.2,253.3z"/>
<g id="XMLID_1_">
	<g>
		<path class="st2" d="M460.1,406.6c-0.5,0.4-1,0.8-1.4,1.3c-5.4,5-24.2,23.3-24.9,37c0,0-10.2-9.7-7-19.3c0,0-33.3,19.3-91.3,19.3
			s-85.7-16.8-85.7-16.8c5,11.2-2.2,21.8-2.2,21.8c-3.8-17.4-36.7-43.4-36.7-43.4c7.3,14.2,1.1,23.7,1.1,23.7
			c-50.5-32.3-63.8-107.8-63.8-107.8c-1.2,19.9-6,20.2-6,20.2c-16.1-45.9-4.4-80.2,2.2-94.2c-5.4,7.2-12.8,8.3-12.8,8.3
			c5.3-29.3,24.7-50,35.8-59.7c-9.5,5.1-18.9,2.9-18.9,2.9C194.7,142,255.8,141,255.8,141c-13.7,0-26.2-7.3-26.2-7.3
			c42.8-16.5,76.1-5.6,77.3-5.2c-16.2-7.3-7.5-22.1-7.5-22.1c10,11.5,37.5,17.7,37.5,17.7s23.1-11.8,50.9-4c0,0-4.6,7.1-11.3,7.5
			c0,0,65.3-2.9,121.4,44.8c0,0-0.4,5.1-19.6-0.4c0,0,57.5,42,61.2,79.1c0,0-10.5-4.5-17.4-12.1c0,0,28.6,53.1,17.5,103
			c0,0-13.5-11.2-15.2-24.5c0,0,1.3,53.7-23.1,75.8c0,0-6.9-6.4-5.6-15.6c-5.7,13.2-18.4,38.8-36.6,51.8c0,0-7.7-13.7-0.4-21.5
			C459.5,407.2,460,406.8,460.1,406.6z"/>
		<path class="st2" d="M458.7,407.9c0.4-0.4,0.9-0.9,1.4-1.3C460,406.8,459.5,407.2,458.7,407.9z"/>
	</g>
</g>
<path class="st3" d="M210.9,406.3c0,0,32.9,26,36.7,43.4c0,0,7.2-10.6,2.2-21.8c0,0,27.7,16.9,85.7,16.9s91.3-19.3,91.3-19.3
	c-3.2,9.6,7,19.3,7,19.3c0.9-16,26.4-38.3,26.4-38.3c-9.7,7.4-1.1,22.8-1.1,22.8c18.2-13.1,30.9-38.6,36.6-51.8
	c-1.3,9.2,5.6,15.6,5.6,15.6c24.4-22.1,23.1-75.7,23.1-75.7c1.7,13.3,15.2,24.5,15.2,24.5c11.2-49.6-17.4-102.8-17.4-102.8
	c6.9,7.6,17.4,12.1,17.4,12.1c-3.7-37.1-61.2-79.1-61.2-79.1c19.2,5.6,19.6,0.4,19.6,0.4c-56.1-47.8-121.4-44.9-121.4-44.9
	s6.8-0.6,14.9,7.2c8.2,7.8,18.1,18.7,38.5,24.3c20.3,5.6,70.7,27.4,85.4,62.7c0,0-12-3.1-17.5-9.3c0,0,44.5,75.6,11.6,145.9
	c0,0-8.1-7.2-6.5-16.9c0,0-34.5,83.8-153.4,92.3C253.8,440.5,210.9,406.3,210.9,406.3z"/>
<g>
	
		<ellipse transform="matrix(0.7071 -0.7071 0.7071 0.7071 -86.0744 255.6183)" class="st4" cx="265.5" cy="231.7" rx="48.4" ry="48.4"/>
	<path class="st5" d="M313.8,228.9c-0.2-2.7-0.5-5.3-1.1-7.9c0.1,0.7,0.1,1.5,0.2,2.2c1.5,26.7-18.9,49.6-45.6,51.1
		c-24,1.4-44.9-15-50-37.7c2.6,25.6,25,44.8,50.9,43.3C294.9,278.5,315.3,255.6,313.8,228.9z"/>
	<path class="st6" d="M288.3,233.7c0.6,10.4-7.4,19.4-17.8,20s-19.4-7.4-20-17.8s7.4-19.4,17.8-20
		C278.8,215.2,287.7,223.2,288.3,233.7z"/>
	<path class="st7" d="M279.8,234.1c0.3,5.8-4.1,10.7-9.8,11c-5.8,0.3-10.7-4.1-11-9.8c-0.3-5.8,4.1-10.7,9.8-11
		C274.6,224,279.5,228.4,279.8,234.1z"/>
	<path class="st4" d="M282.3,226.2c0.2,3.3-2.3,6.1-5.6,6.3c-3.3,0.2-6.1-2.3-6.3-5.6c-0.2-3.3,2.3-6.1,5.6-6.3
		C279.3,220.5,282.2,223,282.3,226.2z"/>
	<path class="st4" d="M448.1,228.9c1.5,26.7-18.9,49.6-45.6,51.1s-49.6-18.9-51.1-45.6s18.9-49.6,45.6-51.1S446.6,202.2,448.1,228.9
		z"/>
	<path class="st5" d="M448.1,228.9c-0.2-2.7-0.5-5.3-1.1-7.9c0.1,0.7,0.1,1.5,0.2,2.2c1.5,26.7-18.9,49.6-45.6,51.1
		c-24,1.4-44.9-15-50-37.7c2.6,25.6,25,44.8,50.9,43.3C429.2,278.5,449.6,255.6,448.1,228.9z"/>
	<path class="st6" d="M422.6,233.7c0.6,10.4-7.4,19.4-17.8,20s-19.4-7.4-20-17.8s7.4-19.4,17.8-20
		C413.1,215.2,422,223.2,422.6,233.7z"/>
	<path class="st7" d="M414.1,234.1c0.3,5.8-4.1,10.7-9.8,11c-5.8,0.3-10.7-4.1-11-9.8c-0.3-5.8,4.1-10.7,9.8-11
		C408.9,224,413.8,228.4,414.1,234.1z"/>
	<path class="st4" d="M416.6,226.2c0.2,3.3-2.3,6.1-5.6,6.3c-3.3,0.2-6.1-2.3-6.3-5.6c-0.2-3.3,2.3-6.1,5.6-6.3
		C413.6,220.5,416.5,223,416.6,226.2z"/>
</g>
<g>
	<path class="st8" d="M331,317.7c27.2,0.4,45.6-3.1,52.1-10.6c6.6-7.5,30.9,3.1,16.5,27.3c-14.5,24.2-48.4,26.6-68.6,26.2
		c-20.3-0.4-69.8-21.2-59.9-45.5C281.4,290.5,306.8,317.5,331,317.7z"/>
	<path class="st9" d="M300.8,352.8c0,0,28.4-29.1,82.4-2.2C383.3,350.4,344.9,373.3,300.8,352.8z"/>
	<path class="st4" d="M300.8,309c0,0-0.9,15.8,2.4,17.2s4.6-5.6,4.6-5.6s22.5,7.9,55.6,3c0,0,0.4,5.2,3,5.6s6.1-15.7,6.1-15.7
		s-11.4,4.3-34.8,4.3C320.8,317.8,300.8,309,300.8,309z"/>
</g>
</svg>
