<?xml version="1.0" encoding="utf-8"?>
<!-- Generator: Adobe Illustrator 22.0.0, SVG Export Plug-In . SVG Version: 6.00 Build 0)  -->
<svg version="1.1" id="Layer_1" xmlns="http://www.w3.org/2000/svg" xmlns:xlink="http://www.w3.org/1999/xlink" x="0px" y="0px"
	 viewBox="0 0 600 600" style="enable-background:new 0 0 600 600;" xml:space="preserve">
<style type="text/css">
	.st0{fill:#22D18E;}
	.st1{fill:#1FBF82;}
	.st2{fill:#29EDA2;}
	.st3{fill:#24E299;}
	.st4{fill:#FFFFFF;}
	.st5{fill:#E7E7E7;}
	.st6{fill:#66C1C6;}
	.st7{fill:#266363;}
	.st8{fill:#501627;}
</style>
<path class="st0" d="M136.3,279.3l-13.8-22.8c5-3.6-56.6,46.3-51.8,132.3c4.5,80.1,61.2,47.6,54.5-1.1
	C118.4,338.9,136.3,279.3,136.3,279.3z"/>
<path class="st1" d="M125.5,387.9c-6.7-48.6,11.3-108.4,11.3-108.4l-11.9-20.7c-9.7,18.2-10.6,110.4-10.4,117.2
	c0.5,17.1,1.8,34.9-7.5,47.4c-9.3,12.5-28.7-0.7-28.7-0.7C94.5,456.4,130.9,427.4,125.5,387.9z"/>
<path class="st1" d="M462.9,282.9l13.5-23c0,0,57.5,40.7,53.9,131.5c-3.2,80.2-60.5,48.5-54.5-0.3
	C481.7,342.3,462.9,282.9,462.9,282.9z"/>
<path class="st0" d="M478.5,390.4c-1.1,12.2,0.9,23.3,5.5,31.9c6.3,11.6,22.2,10.6,21.4-4.6c-0.3-5.7-1-18.9-5.5-26.4
	C492.7,378.8,480,374.4,478.5,390.4z"/>
<path class="st0" d="M223.6,392.4c0,0-11.3,101.1-31.9,108c-20.8,6.9-13.4,11.2,36.6,11.2s59.8-3.4,62.2-32.8
	c2.4-29.3-12.6-76.4-12.6-76.4L223.6,392.4z"/>
<path class="st0" d="M426.8,500.4c-20.8-6.9-31.9-108-31.9-108l-54.1,10.1c0,0-15,47-12.6,76.4c2.4,29.3,12.2,32.8,62.2,32.8
	S447.6,507.3,426.8,500.4z"/>
<path class="st1" d="M279.9,471.5c-7.9,29.8-39.6,42.7-87.2,38.8c7.8,0.8,19.4,1.3,35.3,1.3c50,0,59.8-3.4,62.2-32.8
	c2.4-29.3-12.6-76.4-12.6-76.4l-54.1-10.1c0,0,8.8,6.1,27.7,12C270.2,410.3,287.9,441.8,279.9,471.5z"/>
<path class="st1" d="M396.2,452c3.7,29,31.7,60.8-24.4,59.4l0,0c5.4,0.2,11.4,0.3,18.4,0.3c50,0,57.2-4.3,36.6-11.2
	c-20.8-6.9-31.9-108-31.9-108l-54.1,10c0,0,14.8,3.5,27.3,3.5C380.4,406,392.6,423,396.2,452z"/>
<path class="st2" d="M471.8,350.8c-9.7-37.2,26.2-88.1,18-102.5c6.2,6.5,19.4,9.4,19.4,9.4c-8.4-45.4-40.6-87.8-40.6-87.8
	c8.3,10.2,24.7,11.3,24.7,11.3c-19.2-39.5-52.3-38.4-52.3-38.4c14.5-9.7,4.8-24.9,4.8-24.9c-9.4,17.9-44.5,20.3-44.5,20.3H197.6
	c0,0-35.1-2.4-44.5-20.3c0,0-9.7,15.2,4.8,24.9c0,0-33.1-1.1-52.3,38.4c0,0,16.4-1.1,24.7-11.3c0,0-32.2,42.4-40.6,87.8
	c0,0,13.2-2.8,19.4-9.4c-8.2,14.3,33.3,65.2,23.7,102.5c0,0,10.5-1,17.6-6.7c-8.5,14.4-21.4,44.4-4.2,73.2c0,0,10.3-4,9.4-16.8
	c0.3,4.8,0.9,12.7,0.9,12.7s11.4,15.2,33.5,17.6c0,0-4.5-6.6-8.1-15.9l0,0c5.8,1.5,12,2.3,18.5,2.3h204c6.5,0,12.8-0.9,18.5-2.3l0,0
	c-3.5,9.3-8.1,15.9-8.1,15.9c22.1-2.4,33.5-17.6,33.5-17.6s0.5-7.9,0.9-12.7c-0.9,12.7,9.4,16.8,9.4,16.8
	c17.2-28.8,4.3-58.8-4.2-73.2C461.3,349.8,471.8,350.8,471.8,350.8z"/>
<path class="st3" d="M287.8,417.4c4.5,0,75.4,0.7,114,0c17.4-0.3,19.3-1.9,21-2.3c-3.5,9.3-8.1,15.9-8.1,15.9
	c22.1-2.4,33.5-17.6,33.5-17.6s0.5-7.9,0.9-12.7c-0.9,12.7,9.4,16.8,9.4,16.8c17.2-28.8,4.3-58.8-4.2-73.2c7,5.7,17.5,6.7,17.5,6.7
	c-9.7-37.2,26.2-88.1,18-102.5c6.2,6.5,19.4,9.4,19.4,9.4c-8.4-45.4-40.6-87.8-40.6-87.8c8.3,10.2,24.7,11.3,24.7,11.3
	c-19.2-39.5-52.3-38.4-52.3-38.4c14.5-9.7,4.8-24.9,4.8-24.9c-9.4,17.9-44.5,20.3-44.5,20.3H197.6c0,0,305.3,3.3,239.7,31.2
	c0,0,57.8,55.8,49.8,69.2l-32.8,91.1l-14.2-7.2c0,0,21.5,53.3,6.9,65.5C416.6,416.6,287.8,417.4,287.8,417.4z"/>
<g>
	<path class="st4" d="M357.2,241.6c1.8,31.9-22.5,59.2-54.4,61s-59.2-22.5-61-54.4s22.5-59.2,54.4-61
		C328.1,185.4,355.4,209.7,357.2,241.6z"/>
	<path class="st5" d="M357.2,241.6c-0.2-3.2-0.6-6.4-1.3-9.4c0.1,0.9,0.2,1.8,0.2,2.7c1.8,31.9-22.5,59.2-54.4,61
		c-28.6,1.6-53.6-17.9-59.7-45c3.2,30.5,29.8,53.5,60.8,51.7C334.7,300.8,359,273.5,357.2,241.6z"/>
	<path class="st6" d="M324.5,241.3c0.7,12.5-8.8,23.2-21.3,23.9c-12.5,0.7-23.2-8.8-23.9-21.3c-0.7-12.5,8.8-23.2,21.3-23.9
		S323.8,228.8,324.5,241.3z"/>
	<path class="st7" d="M314.4,241.8c0.4,6.9-4.9,12.8-11.7,13.2c-6.9,0.4-12.8-4.9-13.2-11.7c-0.4-6.9,4.9-12.8,11.7-13.2
		C308.1,229.7,314,235,314.4,241.8z"/>
	<path class="st4" d="M317.4,232.4c0.2,3.9-2.8,7.3-6.7,7.5s-7.3-2.8-7.5-6.7c-0.2-3.9,2.8-7.3,6.7-7.5S317.1,228.5,317.4,232.4z"/>
</g>
<rect x="234.3" y="165" class="st2" width="137.7" height="67.8"/>
<g>
	<path class="st4" d="M243.3,314.3c0,0,4.8-9.7,8.6-8.7s-0.7,13.4-0.7,13.4L243.3,314.3z"/>
	<path class="st8" d="M279.7,337.8c-3.4,0.7-6.7-0.5-9.8-1.6c-3.2-1.2-6.4-2.6-9.4-4.1c-3.2-1.6-6.1,3.3-2.9,4.9
		c7,3.5,15.6,8.1,23.6,6.3C284.8,342.4,283.3,337,279.7,337.8z"/>
	<path class="st4" d="M252.7,318.8c0,0,3.2-6.5,5.7-5.9c2.4,0.6-0.6,8.9-0.6,8.9L252.7,318.8z"/>
	<path class="st8" d="M313,325c-5.8,3.5-12.9,3.3-19.4,3c-6.5-0.2-13-1-19.3-2.4c-12.4-2.8-24.3-8.1-33.7-16.8c-2.7-2.5-6.7,1.5-4,4
		c10.4,9.5,23.4,15.5,37.1,18.4c6.8,1.5,13.9,2.3,20.8,2.5c7.3,0.2,15,0.1,21.4-3.8C319,328,316.2,323.1,313,325z"/>
</g>
</svg>
