<?xml version="1.0" encoding="utf-8"?>
<!-- Generator: Adobe Illustrator 22.0.0, SVG Export Plug-In . SVG Version: 6.00 Build 0)  -->
<svg version="1.1" id="Layer_1" xmlns="http://www.w3.org/2000/svg" xmlns:xlink="http://www.w3.org/1999/xlink" x="0px" y="0px"
	 viewBox="0 0 600 600" style="enable-background:new 0 0 600 600;" xml:space="preserve">
<style type="text/css">
	.st0{opacity:0.23;fill:#045495;}
	.st1{fill:#FFB600;}
	.st2{fill:#CE7A00;}
	.st3{fill:#7153C4;}
	.st4{fill:#4E389E;}
	.st5{fill:#4C3DA5;}
	.st6{fill:#7B65E5;}
	.st7{fill:#FC9FFF;}
	.st8{clip-path:url(#SVGID_2_);}
	.st9{fill:#1D1D1B;}
	.st10{fill:#FFFFFF;}
	.st11{clip-path:url(#SVGID_4_);}
	.st12{fill:#FF8585;}
	.st13{fill:#490808;}
	.st14{clip-path:url(#SVGID_6_);fill:#FFFCC5;}
	.st15{clip-path:url(#SVGID_6_);fill:#FFA9A9;}
	.st16{opacity:0.66;}
	.st17{fill:#9883FF;}
</style>
<g>
	<ellipse class="st0" cx="290.7" cy="443.9" rx="108.3" ry="15.3"/>
	<g>
		<g>
			<g>
				<path class="st1" d="M228.5,191.6c0,0-14.6,0.4-18.1-14.1s5.6-21.7,5.6-21.7s-24.3,11.2-24.3,28.5c0,19.9,10.2,26.3,18.3,29.2
					C218,216.5,228.5,191.6,228.5,191.6z"/>
				<g>
					<g>
						<g>
							<g>
								<g>
									<path class="st2" d="M206.4,212c0,0,0-1.7,0.6-4.2c0.1-0.6,0.4-1.3,0.6-2c0.3-0.7,0.5-1.4,0.8-2.2c0.3-0.7,0.7-1.5,1.1-2.2
										c0.2-0.4,0.4-0.7,0.6-1.1l0.7-1.1c0.5-0.7,1-1.4,1.5-2.1c0.5-0.7,1.1-1.3,1.7-1.9c0.5-0.6,1.2-1.1,1.7-1.6
										c0.5-0.5,1.1-0.9,1.6-1.3c1-0.8,2-1.3,2.6-1.6c0.7-0.3,1-0.5,1-0.5s-0.3,0.3-0.9,0.8c-0.6,0.5-1.4,1.2-2.3,2.1
										c-0.5,0.4-1,0.9-1.4,1.4c-0.5,0.5-1,1.1-1.5,1.7c-0.5,0.6-1,1.2-1.5,1.9c-0.5,0.7-1,1.3-1.4,2l-0.7,1
										c-0.2,0.4-0.4,0.7-0.6,1.1c-0.4,0.7-0.8,1.4-1.2,2.1c-0.4,0.7-0.7,1.4-1,2c-0.3,0.7-0.6,1.3-0.8,1.9
										C206.9,210.3,206.4,212,206.4,212z"/>
								</g>
							</g>
						</g>
					</g>
					<g>
						<g>
							<g>
								<g>
									<path class="st2" d="M197.2,203.8c0,0-0.1-0.4,0-1.2c0-0.7,0.1-1.8,0.5-3.1c0.2-0.6,0.4-1.3,0.6-2c0.3-0.7,0.6-1.4,1-2.1
										c0.4-0.7,0.9-1.4,1.3-2.1c0.5-0.7,1.1-1.3,1.6-2c0.6-0.6,1.2-1.2,1.9-1.8c0.7-0.5,1.3-1.1,2-1.5c0.7-0.4,1.3-0.8,2-1.2
										c0.6-0.3,1.3-0.6,1.9-0.9c1.1-0.6,2.2-0.8,2.9-1.1c0.7-0.2,1.1-0.3,1.1-0.3s-0.4,0.2-1,0.6c-0.6,0.4-1.6,0.8-2.6,1.6
										c-0.5,0.3-1.1,0.7-1.7,1.1c-0.6,0.4-1.2,0.9-1.8,1.3c-0.6,0.5-1.2,1-1.8,1.5c-0.6,0.5-1.2,1.1-1.7,1.7
										c-0.5,0.6-1.1,1.2-1.6,1.9c-0.5,0.6-1,1.3-1.3,1.9c-0.4,0.6-0.8,1.3-1.1,1.9c-0.3,0.6-0.6,1.2-0.8,1.8
										C197.4,202.1,197.2,203.8,197.2,203.8z"/>
								</g>
							</g>
						</g>
					</g>
					<g>
						<g>
							<g>
								<g>
									<path class="st2" d="M191.9,186.9c0,0,0.8-1.1,2.4-2.3c0.4-0.3,0.9-0.6,1.3-1c0.5-0.3,1-0.6,1.6-0.9
										c0.6-0.3,1.2-0.6,1.8-0.8c0.3-0.1,0.6-0.2,1-0.4l1-0.3c0.7-0.2,1.3-0.3,2-0.5c0.7-0.2,1.3-0.2,2-0.2c0.6-0.1,1.3,0,1.9,0
										c0.6,0,1.1,0.1,1.6,0.1c1,0.1,1.8,0.3,2.4,0.5c0.6,0.2,0.9,0.3,0.9,0.3s-0.3,0-0.9,0c-0.6,0-1.4,0-2.4,0.1
										c-0.5,0-1,0-1.6,0.1c-0.6,0.1-1.1,0.1-1.7,0.2c-0.6,0.1-1.2,0.2-1.8,0.3c-0.6,0.1-1.3,0.3-1.9,0.5l-0.9,0.3
										c-0.3,0.1-0.6,0.2-0.9,0.3c-0.6,0.2-1.2,0.4-1.8,0.7c-0.6,0.2-1.1,0.5-1.6,0.7c-0.5,0.3-1,0.5-1.4,0.7
										C193,186.1,191.9,186.9,191.9,186.9z"/>
								</g>
							</g>
						</g>
					</g>
					<g>
						<g>
							<g>
								<g>
									<path class="st2" d="M194.5,175.2c0,0,0.2-0.2,0.6-0.4c0.4-0.2,1-0.5,1.7-0.8c0.4-0.1,0.8-0.3,1.2-0.4
										c0.4-0.1,0.9-0.3,1.3-0.4c0.5-0.1,1-0.2,1.5-0.2c0.5-0.1,1-0.1,1.5-0.1c0.5,0,1,0,1.5,0c0.5,0,1,0.1,1.5,0.2
										c0.5,0.1,0.9,0.2,1.4,0.3c0.4,0.1,0.8,0.2,1.2,0.4c0.7,0.3,1.3,0.6,1.7,0.8c0.4,0.2,0.6,0.4,0.6,0.4s-0.3,0-0.7-0.1
										c-0.4-0.1-1.1-0.2-1.8-0.3c-0.4,0-0.8-0.1-1.2-0.1c-0.4,0-0.9-0.1-1.3-0.1c-0.5,0-0.9-0.1-1.4-0.1c-0.5,0-1,0-1.4,0
										c-0.5,0-1,0-1.4,0c-0.5,0-0.9,0.1-1.4,0.1c-0.5,0.1-0.9,0.1-1.3,0.1c-0.4,0.1-0.8,0.1-1.2,0.2
										C195.5,175,194.5,175.2,194.5,175.2z"/>
								</g>
							</g>
						</g>
					</g>
					<g>
						<g>
							<g>
								<g>
									<path class="st2" d="M202.3,165c0,0,0.3-0.5,1-0.8c0.2-0.1,0.4-0.2,0.6-0.3c0.2-0.1,0.5-0.2,0.7-0.2c0.3,0,0.5-0.1,0.8-0.1
										c0.3,0,0.5,0,0.8,0.1c0.3,0,0.5,0.1,0.8,0.2c0.3,0.1,0.5,0.2,0.7,0.3c0.2,0.1,0.4,0.3,0.6,0.4c0.2,0.1,0.3,0.3,0.5,0.4
										c0.3,0.3,0.5,0.6,0.6,0.8c0.1,0.2,0.2,0.3,0.2,0.3s-0.1,0-0.4-0.1c-0.2-0.1-0.5-0.2-0.9-0.3c-0.2-0.1-0.4-0.1-0.5-0.2
										c-0.2,0-0.4-0.1-0.6-0.2c-0.2,0-0.4-0.1-0.6-0.2c-0.2,0-0.4-0.1-0.6-0.1c-0.2,0-0.4-0.1-0.6-0.1c-0.2,0-0.4-0.1-0.6-0.1
										c-0.2,0-0.4,0-0.6,0c-0.2,0-0.4,0-0.6,0C202.9,165,202.3,165,202.3,165z"/>
								</g>
							</g>
						</g>
					</g>
				</g>
			</g>
			<g>
				<path class="st1" d="M331,189.1c0,0,15.9-1.1,17.8-9.5s-2.5-16.2-8.3-23.2c0,0,21.2,4.4,25.9,25.4c4.7,21-8.6,28.6-24.1,34.5
					C326.7,222.1,331,189.1,331,189.1z"/>
				<g>
					<g>
						<g>
							<g>
								<g>
									<path class="st2" d="M338.4,187.7c0,0,0.4,0.1,1.2,0.5c0.7,0.3,1.8,0.8,3,1.6c0.6,0.4,1.2,0.8,1.9,1.3c0.7,0.5,1.3,1,2,1.6
										c0.6,0.6,1.3,1.2,1.9,1.9c0.6,0.7,1.2,1.4,1.7,2.2l0.8,1.2c0.2,0.4,0.5,0.8,0.7,1.2c0.5,0.8,0.8,1.7,1.1,2.5
										c0.4,0.8,0.5,1.7,0.7,2.4c0.1,0.4,0.2,0.8,0.3,1.1c0,0.4,0.1,0.7,0.1,1.1c0.1,0.7,0.2,1.3,0.2,1.9c0,0.6,0,1.1-0.1,1.5
										c-0.1,0.8-0.1,1.3-0.1,1.3s-0.1-0.5-0.2-1.3c-0.1-0.4-0.1-0.9-0.2-1.4c-0.1-0.5-0.3-1.2-0.4-1.8c-0.1-0.3-0.2-0.7-0.2-1
										c-0.1-0.3-0.2-0.7-0.4-1.1c-0.3-0.7-0.5-1.5-0.9-2.3c-0.3-0.8-0.7-1.6-1.2-2.3c-0.2-0.4-0.4-0.8-0.7-1.2l-0.8-1.1
										c-0.5-0.8-1.1-1.4-1.6-2.1c-0.6-0.7-1.2-1.3-1.7-1.9c-0.6-0.6-1.2-1.2-1.8-1.7c-0.6-0.5-1.1-1-1.7-1.4
										c-1.1-0.9-2-1.5-2.7-2C338.8,188,338.4,187.7,338.4,187.7z"/>
								</g>
							</g>
						</g>
					</g>
					<g>
						<g>
							<g>
								<g>
									<path class="st2" d="M346.9,183.1c0,0,0.1,0,0.3,0c0.2,0,0.5,0,0.8,0.1c0.7,0.1,1.7,0.3,2.9,0.6c0.6,0.2,1.2,0.4,1.9,0.6
										c0.7,0.2,1.4,0.6,2.1,0.9c0.7,0.3,1.4,0.8,2.1,1.2c0.7,0.5,1.4,0.9,2,1.5c0.6,0.6,1.3,1.1,1.8,1.7c0.3,0.3,0.6,0.6,0.8,0.9
										c0.2,0.3,0.5,0.7,0.7,1c0.2,0.3,0.5,0.6,0.7,1c0.2,0.3,0.3,0.7,0.5,1c0.2,0.3,0.3,0.6,0.5,0.9c0.1,0.3,0.2,0.6,0.3,0.9
										c0.2,0.6,0.4,1.1,0.5,1.6c0.1,0.5,0.2,0.9,0.2,1.3c0.1,0.7,0.2,1.1,0.2,1.1s-0.2-0.4-0.4-1c-0.1-0.3-0.3-0.7-0.5-1.2
										c-0.2-0.4-0.5-0.9-0.8-1.5c-0.1-0.3-0.3-0.5-0.4-0.8c-0.2-0.3-0.4-0.5-0.6-0.8c-0.2-0.3-0.4-0.6-0.6-0.9
										c-0.2-0.3-0.5-0.6-0.7-0.9c-0.2-0.3-0.5-0.6-0.7-0.9c-0.3-0.3-0.5-0.5-0.8-0.8c-0.5-0.6-1.1-1.1-1.7-1.6
										c-0.6-0.5-1.3-1-1.9-1.4c-0.7-0.4-1.3-0.9-1.9-1.2c-0.7-0.4-1.3-0.7-1.9-1c-0.6-0.3-1.2-0.6-1.8-0.8
										c-1.1-0.5-2-0.9-2.7-1.1c-0.3-0.1-0.6-0.2-0.8-0.3C347,183.1,346.9,183.1,346.9,183.1z"/>
								</g>
							</g>
						</g>
					</g>
					<g>
						<g>
							<g>
								<g>
									<path class="st2" d="M349.8,176c0,0,0.9-0.7,2.4-1.2c0.4-0.1,0.8-0.3,1.3-0.4c0.5-0.1,0.9-0.2,1.4-0.3
										c0.5-0.1,1-0.1,1.6-0.1c0.5,0,1.1,0,1.6,0.1l0.8,0.1c0.3,0.1,0.5,0.1,0.8,0.2c0.5,0.1,1,0.3,1.5,0.5
										c0.5,0.2,0.9,0.5,1.3,0.7c0.4,0.2,0.8,0.5,1.1,0.8c0.3,0.3,0.6,0.5,0.8,0.7c0.2,0.3,0.4,0.5,0.5,0.7
										c0.3,0.4,0.4,0.6,0.4,0.6s-0.2-0.1-0.6-0.4c-0.2-0.1-0.4-0.3-0.7-0.4c-0.3-0.2-0.6-0.3-0.9-0.5c-0.3-0.2-0.7-0.4-1.1-0.5
										c-0.4-0.2-0.8-0.3-1.3-0.5c-0.4-0.1-0.9-0.3-1.4-0.4l-0.7-0.2l-0.7-0.1c-0.5-0.1-1-0.1-1.5-0.1c-0.5,0-1,0-1.5,0
										c-0.5,0-0.9,0-1.4,0.1c-0.4,0-0.9,0.1-1.2,0.1C350.8,175.8,349.8,176,349.8,176z"/>
								</g>
							</g>
						</g>
					</g>
					<g>
						<g>
							<g>
								<g>
									<path class="st2" d="M348.3,169.4c0,0,0.3-0.7,1.1-1.5c0.2-0.2,0.4-0.4,0.7-0.6c0.3-0.2,0.5-0.4,0.8-0.6
										c0.3-0.2,0.6-0.4,1-0.5c0.3-0.1,0.7-0.3,1.1-0.4c0.4-0.1,0.7-0.2,1.1-0.2c0.4-0.1,0.8-0.1,1.1,0c0.4,0,0.7,0,1,0.1
										c0.3,0.1,0.6,0.1,0.9,0.3c0.3,0.1,0.5,0.2,0.7,0.3c0.2,0.1,0.3,0.3,0.5,0.4c0.2,0.2,0.4,0.3,0.4,0.3s-0.2,0-0.5-0.1
										c-0.2,0-0.3-0.1-0.6-0.1c-0.2,0-0.5,0-0.7,0c-0.3,0-0.5,0-0.8,0c-0.3,0-0.6,0-0.9,0.1c-0.3,0-0.6,0.1-0.9,0.1
										c-0.3,0-0.6,0.2-0.9,0.2c-0.3,0.1-0.6,0.2-0.9,0.3c-0.3,0.1-0.6,0.2-0.9,0.4c-0.3,0.1-0.6,0.2-0.8,0.4
										c-0.3,0.1-0.5,0.3-0.8,0.4C348.9,169.1,348.3,169.4,348.3,169.4z"/>
								</g>
							</g>
						</g>
					</g>
					<g>
						<g>
							<g>
								<g>
									<path class="st2" d="M345.6,163.6c0,0-0.3-0.4-0.2-1.1c0-0.2,0-0.4,0.1-0.6c0.1-0.2,0.1-0.4,0.3-0.6
										c0.1-0.2,0.3-0.4,0.4-0.6c0.2-0.2,0.4-0.3,0.6-0.5c0.2-0.1,0.5-0.2,0.7-0.3c0.2-0.1,0.5-0.1,0.7-0.1c0.2,0,0.4,0,0.6,0
										c0.2,0,0.4,0.1,0.5,0.1c0.3,0.1,0.6,0.2,0.8,0.3c0.2,0.1,0.3,0.2,0.3,0.2s-0.1,0-0.3,0.1c-0.2,0.1-0.4,0.1-0.7,0.2
										c-0.1,0.1-0.3,0.1-0.5,0.1c-0.2,0-0.3,0.1-0.5,0.2c-0.2,0-0.3,0.1-0.5,0.2c-0.2,0-0.3,0.1-0.4,0.2
										c-0.1,0.1-0.3,0.2-0.4,0.3c-0.1,0.1-0.3,0.2-0.4,0.3c-0.1,0.1-0.2,0.2-0.3,0.3c-0.1,0.1-0.2,0.2-0.3,0.4
										C345.8,163.2,345.6,163.6,345.6,163.6z"/>
								</g>
							</g>
						</g>
					</g>
				</g>
			</g>
		</g>
		<g>
			<g>
				<g>
					<path class="st3" d="M196.9,251c0,0-25.4,62-12.6,109.3c0,0-9,0.7-9.5,5.5c-0.5,4.7,4,9,4,9s-17.5,5.4-16.6,10.5
						c1,5.1,13.5,4.9,18.7,0.1c0,0-7.3,8.1-4.1,10.2c3.2,2.1,12.8-3.1,15.2-6.8c0,0-2.2,6,1.3,7.4c3.5,1.4,10.8-4.8,10.6-15.3
						c-0.2-10.5-5.4-20.8-8.8-37.3c-3.4-16.5-4.3-41.8,0-55.4S196.9,251,196.9,251z"/>
					<path class="st3" d="M199.5,360.4c0,0,11.3,9.9,12.1,16.1c0.8,6.3-12.2,2.2-12.2,2.2L199.5,360.4z"/>
				</g>
				<g>
					<path class="st3" d="M353.1,236.4c0,0,20.3,7.6,32.8-0.1s15.6-27.1,6-49.4c0,0-13,2-17.8-4.3c-4.8-6.3,4.9-9.5,15.1-10
						c0,0-9.1-20.5-0.9-25.8s11.9,21.1,11.9,21.1s1.4-22.2,8.6-21.7c7.2,0.5,2.4,21.8,2.4,21.8s11.9-15,19.1-11.2
						c8.4,4.4-16.7,30.2-21.1,28.6c0,0,13.3,41.3-5,59c-18.3,17.7-43.8,14.6-43.8,14.6L353.1,236.4z"/>
					<g>
						<g>
							<g>
								<g>
									<path class="st4" d="M404.3,175.1c0,0-0.2,0.2-0.4,0.5c-0.3,0.3-0.6,0.7-0.9,1.2c-0.2,0.2-0.3,0.5-0.5,0.8
										c-0.2,0.3-0.3,0.6-0.5,0.9c-0.2,0.3-0.4,0.6-0.5,1c-0.2,0.3-0.4,0.7-0.5,1c-0.2,0.3-0.3,0.7-0.5,1c-0.1,0.3-0.3,0.7-0.4,1
										c-0.1,0.3-0.3,0.6-0.4,0.9c-0.1,0.3-0.2,0.6-0.3,0.8c0,0.2-0.1,0.5-0.1,0.7c0,0.2,0,0.4,0,0.6c0,0.4,0.1,0.6,0.1,0.6
										s-0.2-0.1-0.6-0.3c-0.2-0.1-0.4-0.3-0.6-0.6c-0.2-0.3-0.3-0.6-0.5-1c-0.1-0.4-0.2-0.8-0.2-1.2c0-0.4,0-0.9,0.1-1.3
										c0-0.5,0.2-0.9,0.3-1.3c0.2-0.4,0.3-0.9,0.6-1.3c0.2-0.4,0.5-0.8,0.7-1.2c0.3-0.4,0.6-0.7,0.9-1c0.3-0.3,0.7-0.6,1-0.8
										c0.3-0.2,0.7-0.4,1-0.6c0.7-0.3,1.3-0.4,1.7-0.4C404.1,175.1,404.3,175.1,404.3,175.1z"/>
								</g>
							</g>
						</g>
					</g>
				</g>
			</g>
			<g>
				<path class="st5" d="M234.4,384.1c0,0,1.3,32.8,1.3,37.3c0,0-7.5-4.8-17.5-4.3c-10,0.5-16.3,7.9-16.8,13.2
					c-0.5,5.2,0.2,12.5,18.4,13.6c18.2,1.1,29.8-0.9,30.5-2.6c0.8-1.7-1.2-51.5-1.2-51.5L234.4,384.1z"/>
				<path class="st5" d="M324.4,381.6l1.5,41.5c9.8-8,24.1-5.2,32.8-0.1c8.7,5,5,14.1,4.4,15.3c-1.5,3.2-33.6,10.1-46.8,2.3
					c-4.9-6.5-4.7-54.4-4.7-54.4L324.4,381.6z"/>
			</g>
			<g>
				<path class="st3" d="M275.8,166.3c0,0-1.5-6.8-6-9.3c0.2,9.3,0.2,9.3,0.2,9.3s-8.5-3.5-16.7-1.6c0,0,3.5,3,5,6.8
					c0,0-72,18.2-65.2,122.9c6.8,104.7,66.2,101,92.2,101.8s82.7-6.3,80.5-106.9S311,165,287,166.9c0,0,1.3-6.2,6.3-9.7
					C293.3,157.1,278.8,160.3,275.8,166.3z"/>
				<path class="st6" d="M268.9,176.7c23.1-3.2,63.4-2.8,81.1,64.8c15.7,59.8,7.7,114.4-25.8,129.2c-33.5,14.9-110.7,28-117.7-67.8
					C199.5,207.1,246.8,179.8,268.9,176.7z"/>
				<g>
					<g>
						<g>
							<g>
								<path class="st4" d="M193.8,259.5c0,0-0.1,2.2-0.2,5.5c0,0.8-0.1,1.7-0.1,2.6c0,0.9-0.1,1.9-0.1,2.9c0,1-0.1,2.1-0.1,3.1
									c0,1.1-0.1,2.2-0.1,3.3c0,1.1-0.1,2.2-0.1,3.3c0,1.1,0,2.1,0,3.1c0,1,0,2,0,2.9c0,0.9,0,1.8,0,2.6c0,1.6,0,3,0,4
									c0,1,0,1.5,0,1.5s-0.1-0.5-0.3-1.5c-0.2-0.9-0.4-2.3-0.6-3.9c-0.1-0.8-0.2-1.7-0.2-2.7c-0.1-0.9-0.1-1.9-0.2-3
									c0-1-0.1-2.1-0.1-3.2c0-1.1,0-2.2,0-3.3c0-1.1,0.1-2.2,0.1-3.3c0.1-1.1,0.2-2.1,0.2-3.2c0.1-1,0.2-2,0.3-3
									c0.1-0.9,0.2-1.8,0.4-2.6C193.3,261.6,193.8,259.5,193.8,259.5z"/>
							</g>
						</g>
					</g>
				</g>
			</g>
		</g>
		<g>
			<path class="st7" d="M222.4,354.3c2,25,36.2,33.4,68.2,31.3c32-2.1,55.6-15.7,57.2-39.5c1.6-23.7-35.1-32.7-64.3-32.6
				C254.3,313.7,220.2,326,222.4,354.3z"/>
			<g>
				<g>
					<defs>
						
							<ellipse id="SVGID_1_" transform="matrix(4.973046e-03 -1 1 4.973046e-03 34.7202 466.9534)" cx="252" cy="216" rx="16" ry="16"/>
					</defs>
					<use xlink:href="#SVGID_1_"  style="overflow:visible;fill:#FFDA04;"/>
					<clipPath id="SVGID_2_">
						<use xlink:href="#SVGID_1_"  style="overflow:visible;"/>
					</clipPath>
					<g class="st8">
						<path class="st9" d="M267.6,211.8c0.1,6.1-4.3,10.9-11.1,11c-6.1,0.1-11-5-11-11.1c0-6.1,5-11.1,11.1-11
							C262.7,200.7,267.5,205.7,267.6,211.8z"/>
						<path class="st10" d="M265.2,207.5c0,3.3-2.3,5.9-6,6c-3.3,0.1-6-2.7-6-6c0-3.3,2.7-6,6-6S265.2,204.2,265.2,207.5z"/>
					</g>
				</g>
				<g>
					<defs>
						
							<ellipse id="SVGID_3_" transform="matrix(4.973046e-03 -1 1 4.973046e-03 87.2493 516.8665)" cx="303.3" cy="214.6" rx="16" ry="16"/>
					</defs>
					<use xlink:href="#SVGID_3_"  style="overflow:visible;fill:#FFDA04;"/>
					<clipPath id="SVGID_4_">
						<use xlink:href="#SVGID_3_"  style="overflow:visible;"/>
					</clipPath>
					<g class="st11">
						<path class="st9" d="M318.9,210.4c0.1,6.1-4.3,10.9-11.1,11c-6.1,0.1-11-5-11-11.1c0-6.1,5-11.1,11.1-11
							C314,199.3,318.9,204.2,318.9,210.4z"/>
						<path class="st10" d="M316.6,206.1c0,3.3-2.3,5.9-6,6c-3.3,0.1-6-2.7-6-6c0-3.3,2.7-6,6-6
							C313.9,200.1,316.5,202.8,316.6,206.1z"/>
					</g>
				</g>
				<path class="st12" d="M277.9,217.7c4.3-0.3,8.8,14.5,7.7,18c-1.4,4.7-13.2,3.4-16.3-0.1C266.6,232.6,272,218.2,277.9,217.7z"/>
				<path class="st13" d="M237.3,239.3c12-0.1,22.7,17.2,39.2,17.5c16.5,0.3,21.6-18.3,38.3-18.7c16.8-0.4,15.6,48.9-37.8,52.2
					S215.1,239.5,237.3,239.3z"/>
				<g>
					<defs>
						<path id="SVGID_5_" d="M237.3,239.3c12-0.1,22.7,17.2,39.2,17.5c16.5,0.3,21.6-18.3,38.3-18.7c16.8-0.4,15.6,48.9-37.8,52.2
							S215.1,239.5,237.3,239.3z"/>
					</defs>
					<clipPath id="SVGID_6_">
						<use xlink:href="#SVGID_5_"  style="overflow:visible;"/>
					</clipPath>
					<path class="st14" d="M238.8,236.3c-0.5,5.9,0,12,1.9,13.7c2,1.7,7.7,1.2,13.6-5.1S238.8,236.3,238.8,236.3z"/>
					<path class="st14" d="M256.7,244.7c0,0-1.7,12.5,3,14.9S272,253,272,253L256.7,244.7z"/>
					<path class="st14" d="M277.2,254c0,0,6.3,10.2,11.8,7.6c5.4-2.6,2.4-15.1,2.4-15.1L277.2,254z"/>
					<path class="st14" d="M295.4,244.9c-1.5,1.7,7.7,8.7,12.2,6.3s2.9-14.5,2.9-14.5S302.9,236.2,295.4,244.9z"/>
					<path class="st14" d="M230.7,273.6c0,0,9.3-6.3,12.9-4.9c3.5,1.4-0.1,16.8-0.1,16.8L230.7,273.6z"/>
					<path class="st14" d="M310.6,281.5c0,0-2.9-13.8,0.1-17.1c3-3.4,12.4,3.5,12.4,3.5S319.1,278,310.6,281.5z"/>
					<path class="st15" d="M249.9,289c0,0,6.5-20.5,25.1-21.8s31.5,19.2,31.5,19.2S278.1,309.7,249.9,289z"/>
					<path class="st14" d="M254.1,290.4c0,0,3.8-11.7,10-11.7c6.1,0,8.9,14.9,8.9,14.9L254.1,290.4z"/>
					<path class="st14" d="M286.2,292.5c0,0,0.1-13.9,5.9-15.3c5.8-1.4,10.7,9.1,10.7,9.1L286.2,292.5z"/>
				</g>
			</g>
			<g class="st16">
				<path class="st17" d="M201.1,288c6.4-1.5,10.6,15.5,4.4,17.3C199.4,307,194.7,289.6,201.1,288z"/>
				<path class="st17" d="M212.2,274.9c5.8,0.4,7,10.9-0.1,12.9C205.1,289.8,207.7,274.6,212.2,274.9z"/>
				<path class="st17" d="M203,255.3c7.3-0.3,7.2,18.8-1.7,18.3C192.4,273,197.5,255.5,203,255.3z"/>
				<path class="st17" d="M215.8,240.7c2.9,0.6,1,12.9-4,10.5C206.9,248.8,212.9,240.1,215.8,240.7z"/>
				<path class="st17" d="M207,316.9c3,0.1,3.4,12.5-2,11C199.7,326.5,204,316.9,207,316.9z"/>
				<path class="st17" d="M210.6,223.2c5.5,0-1.2,18.2-5.9,16.5C199.9,237.9,206.2,223.2,210.6,223.2z"/>
				<path class="st17" d="M220.4,218.9c4.6,2,10.1-15,5.5-17C221.2,199.8,215,216.5,220.4,218.9z"/>
				<path class="st17" d="M214.4,312.6c3.8,0.3,5-7.4,1.3-8.4C212,303.2,210.6,312.4,214.4,312.6z"/>
				<path class="st17" d="M353.5,323.2c5,1.3,12.3-16.4,4.8-19.2S348.5,321.9,353.5,323.2z"/>
				<path class="st17" d="M346.4,293.6c3.8-1.2,3.7,5.9,0,7.5C342.6,302.6,342.6,294.7,346.4,293.6z"/>
				<path class="st17" d="M353.4,268.4c4.8-2.2,10.4,16.2,4.4,18.7S348.4,270.6,353.4,268.4z"/>
				<path class="st17" d="M349.4,247.9c3.9-0.6,4.4,14.9-1.1,15.4C342.8,263.9,343.3,248.9,349.4,247.9z"/>
				<path class="st17" d="M338.7,236.4c3.9-1.9,4.7,7.9,1.5,7.7C336.9,243.9,335.6,237.8,338.7,236.4z"/>
				<path class="st17" d="M339.7,214.9c4.9-4.2,14,12.3,8.9,15.8C343.4,234.1,334.8,219.1,339.7,214.9z"/>
				<path class="st17" d="M327.5,204.9c1.8-1.2,6,6.5,1.3,7.7S323.9,207.3,327.5,204.9z"/>
				<path class="st17" d="M327.5,191.3c3.1-3,15.3,8.8,12.2,13.6C336.5,209.6,324.5,194.3,327.5,191.3z"/>
				<path class="st17" d="M309,176.2c1.5-2.7,11.9,3.3,10.2,6.3S307.4,179,309,176.2z"/>
				<path class="st17" d="M233,192.8c1.5,1.5,7.4-0.6,5.7-3.7C237.1,186,231.5,191.3,233,192.8z"/>
				<path class="st17" d="M247.7,190.4c0.6,5.1,13.3,2,10.9-4.2S247.2,186.4,247.7,190.4z"/>
				<path class="st17" d="M263.6,177.9c-0.9-3.7,7.2-5.5,7.8-2.6C272.1,178.3,264.3,180.5,263.6,177.9z"/>
				<path class="st17" d="M283.2,182.2c0.1-6.2,18.1-4.2,18.1,1.7S283.1,186.2,283.2,182.2z"/>
			</g>
		</g>
	</g>
</g>
</svg>
