<?xml version="1.0" encoding="utf-8"?>
<!-- Generator: Adobe Illustrator 22.0.0, SVG Export Plug-In . SVG Version: 6.00 Build 0)  -->
<svg version="1.1" id="Layer_1" xmlns="http://www.w3.org/2000/svg" xmlns:xlink="http://www.w3.org/1999/xlink" x="0px" y="0px"
	 viewBox="0 0 600 600" style="enable-background:new 0 0 600 600;" xml:space="preserve">
<style type="text/css">
	.st0{fill:#437F04;}
	.st1{fill:#2C5102;}
	.st2{opacity:0.23;fill:#045495;}
	.st3{fill:#62BF00;}
	.st4{fill:#5AA800;}
	.st5{fill:#6ECC00;}
	.st6{fill:#569E02;}
	.st7{fill:#FAEB69;}
	.st8{clip-path:url(#SVGID_2_);fill:#FFFFFF;}
	.st9{opacity:0.51;fill:#D45614;}
	.st10{fill:#498E00;}
	.st11{fill:#9DFF1F;}
</style>
<g>
	<g>
		<g>
			<polygon class="st0" points="227.1,281.7 200.1,258.4 233.3,259.9 			"/>
			<g>
				<g>
					<g>
						<g>
							<path class="st1" d="M222.5,260.7c0,0-0.1,0.2-0.3,0.5c-0.2,0.3-0.4,0.7-0.6,1.2c-0.1,0.3-0.2,0.6-0.3,0.8
								c-0.1,0.3-0.2,0.6-0.3,1c-0.1,0.3-0.2,0.7-0.2,1c-0.1,0.3-0.1,0.7-0.2,1.1c-0.1,0.4-0.1,0.7-0.2,1.1c0,0.4-0.1,0.7-0.1,1.1
								c0,0.3-0.1,0.7-0.1,1c0,0.3,0,0.6-0.1,0.9c0,0.6,0,1,0,1.4c0,0.3,0,0.5,0,0.5s-0.1-0.2-0.3-0.5c-0.2-0.3-0.4-0.8-0.5-1.4
								c-0.1-0.3-0.1-0.6-0.2-1c0-0.3-0.1-0.7-0.1-1.1c0-0.4,0-0.8,0-1.2c0-0.4,0.1-0.8,0.2-1.2c0.1-0.4,0.2-0.8,0.3-1.2
								c0.1-0.4,0.2-0.7,0.4-1.1c0.1-0.4,0.3-0.7,0.5-1c0.2-0.3,0.4-0.6,0.5-0.8c0.4-0.5,0.8-0.8,1.1-1
								C222.3,260.8,222.5,260.7,222.5,260.7z"/>
						</g>
					</g>
				</g>
			</g>
			<g>
				<g>
					<g>
						<g>
							<path class="st1" d="M212.4,259.9c0,0-0.1,0.1-0.2,0.3c-0.1,0.2-0.3,0.4-0.4,0.7c-0.1,0.1-0.1,0.3-0.2,0.4
								c-0.1,0.2-0.1,0.3-0.1,0.5c0,0.2-0.1,0.4-0.1,0.6c-0.1,0.2-0.1,0.4-0.1,0.6c0,0.2-0.1,0.4-0.1,0.6c0,0.2-0.1,0.4-0.1,0.6
								c0,0.2-0.1,0.4-0.2,0.6c-0.1,0.2-0.1,0.4-0.2,0.5c-0.1,0.3-0.3,0.6-0.4,0.8c-0.1,0.2-0.2,0.3-0.2,0.3s0-0.1-0.1-0.3
								c-0.1-0.2-0.1-0.5-0.2-0.8c0-0.2-0.1-0.4-0.1-0.5c0-0.2,0-0.4,0-0.6c0-0.2,0-0.4,0-0.7c0-0.2,0.1-0.5,0.1-0.7
								c0.1-0.2,0.1-0.5,0.2-0.7c0.1-0.2,0.2-0.4,0.3-0.7c0.1-0.2,0.3-0.4,0.4-0.6c0.1-0.2,0.3-0.3,0.5-0.4c0.3-0.2,0.6-0.3,0.8-0.4
								C212.2,259.9,212.4,259.9,212.4,259.9z"/>
						</g>
					</g>
				</g>
			</g>
		</g>
		<g>
			<polygon class="st0" points="234.8,241.8 206.5,207.4 244.7,221.9 			"/>
			<g>
				<g>
					<g>
						<g>
							<path class="st1" d="M236.8,219.2c0,0-0.6,0.9-1.7,2.1c-0.3,0.3-0.6,0.6-0.9,1c-0.3,0.3-0.6,0.7-0.9,1.1
								c-0.3,0.4-0.6,0.8-0.9,1.2c-0.3,0.4-0.6,0.8-0.9,1.3c-0.3,0.4-0.5,0.9-0.8,1.3c-0.2,0.5-0.4,0.9-0.6,1.4
								c-0.2,0.5-0.4,0.9-0.5,1.3c-0.2,0.4-0.3,0.8-0.5,1.2c-0.3,0.8-0.6,1.4-0.8,1.8c-0.2,0.4-0.3,0.7-0.3,0.7s0-0.3,0.1-0.8
								c0-0.5,0.1-1.1,0.2-2c0.1-0.4,0.1-0.8,0.2-1.3c0.1-0.5,0.2-1,0.4-1.5c0.2-0.5,0.3-1,0.6-1.5c0.2-0.5,0.5-1,0.8-1.5
								c0.3-0.5,0.6-0.9,1-1.4c0.4-0.4,0.7-0.8,1.1-1.2c0.4-0.4,0.8-0.7,1.1-1c0.4-0.3,0.7-0.6,1-0.8
								C235.9,219.7,236.8,219.2,236.8,219.2z"/>
						</g>
					</g>
				</g>
			</g>
			<g>
				<g>
					<g>
						<g>
							<path class="st1" d="M226.4,215.2c0,0-0.1,0.1-0.4,0.2c-0.2,0.1-0.5,0.4-0.9,0.7c-0.2,0.1-0.3,0.3-0.5,0.5
								c-0.2,0.2-0.4,0.4-0.5,0.6c-0.2,0.2-0.4,0.4-0.5,0.7c-0.2,0.2-0.4,0.5-0.6,0.7c-0.2,0.2-0.4,0.5-0.5,0.7
								c-0.2,0.2-0.4,0.5-0.5,0.7c-0.2,0.2-0.3,0.4-0.5,0.7c-0.2,0.2-0.3,0.4-0.4,0.6c-0.3,0.4-0.5,0.7-0.7,0.9
								c-0.2,0.2-0.3,0.4-0.3,0.4s0-0.2,0-0.5c0-0.3,0-0.7,0.2-1.2c0.1-0.2,0.1-0.5,0.2-0.8c0.1-0.3,0.2-0.5,0.4-0.8
								c0.1-0.3,0.3-0.6,0.5-0.8c0.2-0.3,0.4-0.5,0.6-0.8c0.2-0.3,0.4-0.5,0.7-0.7c0.2-0.2,0.5-0.4,0.7-0.6c0.2-0.2,0.5-0.4,0.8-0.5
								c0.3-0.1,0.5-0.3,0.8-0.3c0.5-0.2,0.9-0.2,1.2-0.2C226.2,215.1,226.4,215.2,226.4,215.2z"/>
						</g>
					</g>
				</g>
			</g>
			<g>
				<g>
					<g>
						<g>
							<path class="st1" d="M215.6,211.2c0,0-0.2,0.4-0.4,0.7c-0.1,0.1-0.1,0.2-0.2,0.3c-0.1,0.1-0.1,0.2-0.2,0.3
								c-0.1,0.1-0.2,0.2-0.2,0.4c-0.1,0.1-0.2,0.2-0.3,0.3l-0.3,0.3c-0.1,0.1-0.2,0.2-0.3,0.3c-0.1,0.1-0.2,0.2-0.3,0.3
								c-0.1,0.1-0.2,0.2-0.3,0.2c-0.2,0.2-0.3,0.3-0.4,0.4c-0.1,0.1-0.2,0.2-0.2,0.2s0-0.1-0.1-0.3c0-0.2-0.1-0.4,0-0.7
								c0-0.1,0-0.3,0.1-0.4c0-0.1,0.1-0.3,0.2-0.4c0.1-0.2,0.1-0.3,0.2-0.4l0.3-0.4c0.1-0.1,0.2-0.3,0.3-0.4
								c0.1-0.1,0.3-0.2,0.4-0.3c0.1-0.1,0.3-0.2,0.4-0.2c0.1-0.1,0.3-0.1,0.4-0.2C215.2,211.1,215.6,211.2,215.6,211.2z"/>
						</g>
					</g>
				</g>
			</g>
		</g>
		<g>
			<polygon class="st0" points="371.3,232.9 411.6,217.5 376.9,251.3 			"/>
			<g>
				<g>
					<g>
						<g>
							<path class="st1" d="M380.4,230.2c0,0,0.2,0,0.5,0.1c0.3,0.1,0.7,0.2,1.2,0.5c0.2,0.1,0.5,0.3,0.7,0.5
								c0.2,0.2,0.5,0.4,0.7,0.7c0.2,0.3,0.4,0.5,0.6,0.8c0.2,0.3,0.3,0.6,0.5,0.9c0.1,0.3,0.3,0.6,0.4,1c0.1,0.3,0.2,0.6,0.3,1
								c0.1,0.3,0.2,0.6,0.2,0.9c0.1,0.3,0.1,0.6,0.1,0.8c0.1,0.5,0.1,1,0.1,1.3c0,0.3,0,0.5,0,0.5s-0.1-0.2-0.3-0.4
								c-0.2-0.3-0.4-0.6-0.6-1.1c-0.1-0.2-0.2-0.5-0.4-0.7c-0.1-0.3-0.3-0.5-0.4-0.8c-0.1-0.3-0.3-0.6-0.4-0.9
								c-0.1-0.3-0.3-0.6-0.4-0.9c-0.1-0.3-0.3-0.6-0.4-0.9c-0.1-0.3-0.3-0.6-0.4-0.8c-0.1-0.3-0.3-0.5-0.4-0.7
								c-0.2-0.2-0.3-0.5-0.4-0.6c-0.3-0.4-0.6-0.7-0.8-0.9C380.5,230.4,380.4,230.2,380.4,230.2z"/>
						</g>
					</g>
				</g>
			</g>
			<g>
				<g>
					<g>
						<g>
							<path class="st1" d="M390.2,226.4c0,0,0.1,0,0.4,0c0.2,0,0.6,0.1,0.9,0.3c0.2,0.1,0.4,0.2,0.5,0.3c0.2,0.1,0.4,0.3,0.5,0.5
								c0.2,0.2,0.3,0.4,0.5,0.6c0.1,0.2,0.3,0.4,0.4,0.6c0.1,0.2,0.2,0.4,0.3,0.7c0.1,0.2,0.2,0.5,0.2,0.7c0.1,0.2,0.1,0.5,0.1,0.7
								c0,0.2,0,0.4,0,0.6c0,0.4-0.1,0.7-0.1,0.9c-0.1,0.2-0.1,0.3-0.1,0.3s-0.1-0.1-0.2-0.3c-0.1-0.2-0.3-0.5-0.4-0.8
								c-0.1-0.1-0.2-0.3-0.3-0.5c-0.1-0.2-0.2-0.3-0.3-0.5c-0.1-0.2-0.2-0.4-0.3-0.6c-0.1-0.2-0.2-0.4-0.3-0.6
								c-0.1-0.2-0.2-0.4-0.3-0.6c-0.1-0.2-0.2-0.4-0.3-0.5c-0.1-0.2-0.2-0.3-0.3-0.5c-0.1-0.2-0.2-0.3-0.3-0.4
								c-0.2-0.3-0.4-0.5-0.5-0.6C390.3,226.5,390.2,226.4,390.2,226.4z"/>
						</g>
					</g>
				</g>
			</g>
			<g>
				<g>
					<g>
						<g>
							<path class="st1" d="M401.6,221.8c0,0,0.3-0.1,0.7,0.1c0.1,0,0.2,0.1,0.3,0.1c0.1,0.1,0.2,0.1,0.3,0.2
								c0.1,0.1,0.2,0.2,0.3,0.3c0.1,0.1,0.1,0.2,0.2,0.3c0.1,0.1,0.1,0.2,0.1,0.4c0.1,0.1,0.1,0.2,0.1,0.4c0,0.1,0,0.2,0,0.4
								c0,0.1,0,0.2-0.1,0.3c0,0.2-0.1,0.4-0.2,0.5c-0.1,0.1-0.1,0.2-0.1,0.2s-0.1,0-0.2-0.1c-0.1-0.1-0.2-0.2-0.4-0.3
								c-0.1-0.1-0.1-0.1-0.2-0.2c-0.1-0.1-0.1-0.2-0.2-0.2c-0.1-0.1-0.1-0.2-0.2-0.2c0-0.1-0.1-0.2-0.1-0.2c0-0.1-0.1-0.2-0.1-0.3
								c0-0.1-0.1-0.2-0.1-0.3c0-0.1-0.1-0.2-0.1-0.3c0-0.1,0-0.2-0.1-0.3C401.7,222.1,401.6,221.8,401.6,221.8z"/>
						</g>
					</g>
				</g>
			</g>
		</g>
		<g>
			<polygon class="st0" points="378.1,263.9 405.5,266.5 379.9,284.5 			"/>
			<g>
				<g>
					<g>
						<g>
							<path class="st1" d="M387.2,265.5c0,0,0.5,0.5,1,1.5c0.1,0.2,0.2,0.5,0.4,0.8c0.1,0.3,0.2,0.6,0.3,0.9c0.1,0.3,0.2,0.7,0.2,1
								c0.1,0.4,0.1,0.7,0.1,1.1c0,0.4,0,0.7,0,1.1c0,0.4,0,0.7-0.1,1c0,0.3-0.1,0.7-0.2,1c-0.1,0.3-0.1,0.6-0.2,0.8
								c-0.1,0.5-0.3,0.9-0.5,1.2c-0.1,0.3-0.2,0.4-0.2,0.4s0-0.2-0.1-0.5c0-0.3-0.1-0.8-0.1-1.3c0-0.3,0-0.5,0-0.8
								c0-0.3,0-0.6,0-0.9c0-0.3,0-0.6,0-1c0-0.3,0-0.7-0.1-1c0-0.3,0-0.7-0.1-1c0-0.3,0-0.7-0.1-1c0-0.3-0.1-0.6-0.1-0.9
								c0-0.3-0.1-0.6-0.1-0.8C387.3,266.2,387.2,265.5,387.2,265.5z"/>
						</g>
					</g>
				</g>
			</g>
			<g>
				<g>
					<g>
						<g>
							<path class="st1" d="M394.1,266.2c0,0,0.5-0.1,1,0.3c0.1,0.1,0.3,0.2,0.4,0.3c0.1,0.1,0.2,0.3,0.3,0.4
								c0.1,0.2,0.2,0.3,0.2,0.5c0.1,0.2,0.1,0.4,0.2,0.5c0,0.2,0.1,0.4,0.1,0.6c0,0.2,0,0.4,0,0.5c0,0.2,0,0.3-0.1,0.5
								c0,0.2-0.1,0.3-0.1,0.4c-0.1,0.3-0.2,0.5-0.3,0.6c-0.1,0.1-0.2,0.2-0.2,0.2s0-0.1-0.1-0.2c-0.1-0.2-0.2-0.4-0.3-0.6
								c-0.1-0.1-0.1-0.3-0.1-0.4c-0.1-0.1-0.1-0.3-0.1-0.4c0-0.1-0.1-0.3-0.1-0.5c0-0.2-0.1-0.3-0.1-0.5c0-0.2-0.1-0.3-0.1-0.5
								c0-0.2,0-0.3-0.1-0.4c0-0.1-0.1-0.3-0.1-0.4c0-0.1-0.1-0.3-0.1-0.4c-0.1-0.2-0.1-0.4-0.2-0.6
								C394.1,266.3,394.1,266.2,394.1,266.2z"/>
						</g>
					</g>
				</g>
			</g>
		</g>
		<g>
			<polygon class="st0" points="259.4,212.2 264.6,167.3 280.9,205.6 			"/>
			<g>
				<g>
					<g>
						<g>
							<path class="st1" d="M260.3,202.4c0,0,0.2-0.2,0.5-0.6c0.3-0.3,0.8-0.8,1.4-1.3c0.3-0.2,0.7-0.5,1.1-0.7
								c0.4-0.2,0.8-0.5,1.3-0.7c0.5-0.2,0.9-0.4,1.4-0.6c0.5-0.2,1-0.3,1.5-0.4c0.5-0.1,1-0.2,1.6-0.3c0.5-0.1,1-0.1,1.5-0.2
								c0.5,0,1-0.1,1.4-0.1c0.5,0,0.9,0,1.3,0c0.8,0,1.5,0.1,1.9,0.2c0.5,0.1,0.7,0.1,0.7,0.1s-0.3,0.1-0.7,0.2
								c-0.5,0.1-1.1,0.2-1.9,0.4c-0.4,0.1-0.8,0.1-1.2,0.2c-0.4,0.1-0.9,0.2-1.4,0.3c-0.5,0.1-1,0.2-1.4,0.3
								c-0.5,0.1-1,0.2-1.5,0.3c-0.5,0.1-1,0.2-1.5,0.4c-0.5,0.1-0.9,0.3-1.4,0.4c-0.4,0.2-0.9,0.3-1.3,0.4
								c-0.4,0.2-0.8,0.3-1.1,0.5c-0.7,0.3-1.3,0.6-1.7,0.8C260.6,202.3,260.3,202.4,260.3,202.4z"/>
						</g>
					</g>
				</g>
			</g>
			<g>
				<g>
					<g>
						<g>
							<path class="st1" d="M262,192c0,0,0.4-0.6,1.1-1.3c0.2-0.2,0.4-0.4,0.6-0.5c0.2-0.2,0.5-0.4,0.8-0.5c0.3-0.2,0.6-0.3,0.9-0.5
								c0.3-0.1,0.6-0.3,1-0.4c0.3-0.1,0.7-0.2,1-0.3c0.3-0.1,0.7-0.1,1-0.2c0.3,0,0.6-0.1,0.9,0c0.3,0,0.6,0,0.8,0.1
								c0.5,0.1,0.9,0.2,1.2,0.3c0.3,0.1,0.4,0.2,0.4,0.2s-0.2,0-0.5,0.1c-0.3,0.1-0.7,0.1-1.2,0.2c-0.2,0.1-0.5,0.1-0.8,0.2
								c-0.3,0.1-0.5,0.1-0.8,0.2c-0.3,0.1-0.6,0.2-0.9,0.3c-0.3,0.1-0.6,0.2-0.9,0.3c-0.3,0.1-0.6,0.2-0.9,0.3
								c-0.3,0.1-0.6,0.2-0.9,0.3c-0.3,0.1-0.6,0.2-0.8,0.3c-0.3,0.1-0.5,0.2-0.7,0.3C262.7,191.7,262,192,262,192z"/>
						</g>
					</g>
				</g>
			</g>
			<g>
				<g>
					<g>
						<g>
							<path class="st1" d="M263.1,181.5c0,0,0-0.1,0.1-0.3c0.1-0.2,0.2-0.4,0.5-0.7c0.1-0.1,0.3-0.3,0.4-0.4
								c0.2-0.1,0.3-0.2,0.5-0.3c0.2-0.1,0.4-0.2,0.6-0.3c0.2-0.1,0.4-0.1,0.6-0.2c0.2,0,0.4-0.1,0.6-0.1c0.2,0,0.4,0,0.6,0
								c0.2,0,0.4,0,0.6,0c0.2,0,0.4,0,0.5,0.1c0.3,0.1,0.6,0.2,0.7,0.3c0.2,0.1,0.3,0.2,0.3,0.2s-0.1,0.1-0.3,0.1
								c-0.2,0.1-0.4,0.2-0.7,0.3c-0.1,0.1-0.3,0.1-0.5,0.2c-0.2,0.1-0.3,0.1-0.5,0.1c-0.2,0-0.4,0.1-0.5,0.1
								c-0.2,0-0.4,0.1-0.5,0.1c-0.2,0-0.4,0.1-0.5,0.1c-0.2,0-0.4,0.1-0.5,0.1c-0.2,0-0.3,0.1-0.5,0.1c-0.1,0-0.3,0.1-0.4,0.1
								C263.5,181.3,263.1,181.5,263.1,181.5z"/>
						</g>
					</g>
				</g>
			</g>
		</g>
		<g>
			<polygon class="st0" points="300.9,205.6 320.3,161.9 329.2,207.4 			"/>
			<g>
				<g>
					<g>
						<g>
							<path class="st1" d="M306.8,193.3c0,0,0.2-0.2,0.7-0.5c0.4-0.3,1.1-0.7,1.9-1.1c0.4-0.2,0.9-0.4,1.4-0.6
								c0.5-0.2,1-0.3,1.6-0.5c0.6-0.1,1.2-0.2,1.8-0.3c0.6-0.1,1.3,0,1.9,0c0.6,0,1.2,0.1,1.8,0.1c0.6,0,1.2,0.1,1.7,0.2
								c0.6,0.1,1.1,0.2,1.6,0.3c0.5,0.1,1,0.3,1.4,0.4c0.9,0.3,1.5,0.7,2,1c0.2,0.2,0.4,0.3,0.5,0.4c0.1,0.1,0.2,0.1,0.2,0.1
								s-0.3-0.1-0.8-0.3c-0.5-0.2-1.2-0.3-2.1-0.5c-0.4-0.1-0.9-0.1-1.4-0.2c-0.5,0-1-0.1-1.6-0.1c-0.6,0-1.1-0.1-1.7-0.1
								c-0.6,0-1.2-0.1-1.8-0.1c-0.6,0-1.1-0.1-1.7,0c-0.6,0-1.1,0.1-1.6,0.1c-0.5,0.1-1.1,0.1-1.5,0.2c-0.5,0.1-1,0.2-1.4,0.3
								c-0.9,0.2-1.6,0.4-2.1,0.6C307.1,193.3,306.8,193.3,306.8,193.3z"/>
						</g>
					</g>
				</g>
			</g>
			<g>
				<g>
					<g>
						<g>
							<path class="st1" d="M311.5,182.7c0,0,0.1-0.1,0.4-0.4c0.3-0.2,0.7-0.5,1.2-0.7c0.3-0.1,0.6-0.2,0.9-0.3
								c0.3-0.1,0.7-0.2,1-0.3c0.4-0.1,0.7-0.1,1.1-0.2c0.4,0,0.8,0,1.1-0.1c0.4,0,0.8,0,1.2,0.1c0.4,0,0.8,0.1,1.1,0.2
								c0.4,0.1,0.7,0.2,1,0.3c0.3,0.1,0.6,0.2,0.9,0.4c0.5,0.3,0.9,0.6,1.2,0.8c0.2,0.3,0.4,0.4,0.4,0.4s-0.2-0.1-0.5-0.1
								c-0.3-0.1-0.8-0.2-1.3-0.3c-0.3,0-0.6-0.1-0.9-0.1c-0.3,0-0.6,0-1-0.1c-0.3,0-0.7,0-1-0.1c-0.3,0-0.7,0-1.1,0
								c-0.4,0-0.7,0-1.1,0c-0.3,0-0.7,0-1,0c-0.3,0-0.7,0-1,0.1c-0.3,0-0.6,0.1-0.9,0.1c-0.5,0.1-1,0.1-1.3,0.2
								C311.7,182.7,311.5,182.7,311.5,182.7z"/>
						</g>
					</g>
				</g>
			</g>
			<g>
				<g>
					<g>
						<g>
							<path class="st1" d="M315.7,173.7c0,0,0-0.1,0.1-0.3c0.1-0.2,0.2-0.4,0.5-0.6c0.1-0.1,0.3-0.2,0.4-0.3
								c0.2-0.1,0.3-0.2,0.5-0.2c0.2-0.1,0.4-0.1,0.6-0.1c0.2,0,0.4,0,0.6,0c0.2,0,0.4,0,0.6,0.1c0.2,0,0.4,0.1,0.6,0.2
								c0.2,0.1,0.4,0.2,0.5,0.2c0.2,0.1,0.3,0.2,0.4,0.3c0.2,0.2,0.4,0.5,0.5,0.6c0.1,0.2,0.1,0.3,0.1,0.3s-0.1,0-0.3-0.1
								c-0.2,0-0.4-0.1-0.6-0.1c-0.1,0-0.3,0-0.4,0c-0.1,0-0.3,0-0.4,0c-0.2,0-0.3,0-0.5,0c-0.2,0-0.3,0-0.5,0c-0.2,0-0.3,0-0.5,0
								c-0.2,0-0.3,0-0.5,0c-0.1,0-0.3,0-0.4,0c-0.1,0-0.3,0-0.4,0C316.1,173.5,315.7,173.7,315.7,173.7z"/>
						</g>
					</g>
				</g>
			</g>
		</g>
		<g>
			<polygon class="st0" points="348,209.5 374.4,177.4 364,221.8 			"/>
			<g>
				<g>
					<g>
						<g>
							<path class="st1" d="M354,203.2c0,0,0.8-0.3,2-0.3c0.3,0,0.6,0,1,0c0.4,0,0.7,0.1,1.1,0.2c0.4,0.1,0.8,0.2,1.2,0.3
								c0.4,0.2,0.8,0.3,1.1,0.5c0.4,0.2,0.7,0.4,1,0.7c0.3,0.2,0.6,0.5,0.9,0.7c0.3,0.2,0.6,0.5,0.8,0.7c0.2,0.2,0.5,0.5,0.7,0.7
								c0.4,0.4,0.7,0.8,1,1.1c0.2,0.3,0.4,0.4,0.4,0.4s-0.2-0.1-0.5-0.2c-0.3-0.1-0.8-0.3-1.3-0.6c-0.3-0.1-0.5-0.3-0.8-0.5
								c-0.3-0.2-0.6-0.4-0.9-0.6c-0.3-0.2-0.6-0.4-0.9-0.6c-0.3-0.2-0.6-0.4-1-0.6c-0.3-0.2-0.6-0.4-1-0.5c-0.3-0.2-0.7-0.3-1-0.4
								c-0.3-0.1-0.6-0.2-1-0.3c-0.3-0.1-0.6-0.2-0.9-0.3C354.8,203.4,354,203.2,354,203.2z"/>
						</g>
					</g>
				</g>
			</g>
			<g>
				<g>
					<g>
						<g>
							<path class="st1" d="M359.6,195.5c0,0,0.6-0.2,1.5-0.3c0.2,0,0.5,0,0.8,0c0.3,0,0.6,0,0.9,0.1c0.3,0.1,0.6,0.1,0.9,0.2
								c0.3,0.1,0.6,0.2,0.9,0.3c0.3,0.1,0.6,0.3,0.8,0.5c0.3,0.2,0.5,0.4,0.8,0.5c0.2,0.2,0.4,0.4,0.6,0.6c0.2,0.2,0.4,0.4,0.5,0.6
								c0.3,0.4,0.4,0.8,0.5,1c0.1,0.3,0.1,0.4,0.1,0.4s-0.1-0.1-0.4-0.2c-0.2-0.2-0.5-0.4-0.9-0.6c-0.2-0.1-0.4-0.2-0.6-0.4
								c-0.2-0.1-0.4-0.3-0.7-0.4c-0.2-0.1-0.5-0.2-0.7-0.4c-0.2-0.1-0.5-0.2-0.7-0.4c-0.3-0.1-0.5-0.2-0.8-0.3
								c-0.2-0.1-0.5-0.2-0.8-0.3c-0.3-0.1-0.5-0.2-0.7-0.3c-0.2-0.1-0.5-0.2-0.7-0.2C360.3,195.7,359.6,195.5,359.6,195.5z"/>
						</g>
					</g>
				</g>
			</g>
			<g>
				<g>
					<g>
						<g>
							<path class="st1" d="M366.3,187.4c0,0,0.3-0.2,0.8-0.3c0.1,0,0.3,0,0.4,0c0.1,0,0.3,0,0.4,0c0.1,0,0.3,0,0.5,0.1
								c0.2,0,0.3,0.1,0.5,0.2c0.1,0.1,0.3,0.1,0.4,0.2c0.1,0.1,0.3,0.2,0.4,0.3c0.1,0.1,0.2,0.2,0.3,0.3c0.1,0.1,0.2,0.2,0.2,0.4
								c0.1,0.2,0.2,0.5,0.2,0.6c0,0.2,0,0.3,0,0.3s-0.1,0-0.2-0.1c-0.1,0-0.3-0.1-0.5-0.2c-0.1,0-0.2-0.1-0.3-0.1
								c-0.1,0-0.2-0.1-0.3-0.1c-0.1,0-0.2-0.1-0.4-0.1c-0.1-0.1-0.2-0.1-0.4-0.2c-0.1-0.1-0.2-0.1-0.4-0.2
								c-0.1-0.1-0.2-0.1-0.4-0.2c-0.1-0.1-0.2-0.1-0.3-0.2c-0.1-0.1-0.2-0.1-0.3-0.2C366.5,187.6,366.3,187.4,366.3,187.4z"/>
						</g>
					</g>
				</g>
			</g>
		</g>
	</g>
	<ellipse class="st2" cx="300.9" cy="423.3" rx="99.9" ry="14.1"/>
	<g>
		<path class="st3" d="M225.6,291.1c0,0-41.1,12.5-42.5,36c-1.4,23.5,36.9,26.8,36.9,26.8s-11.3,5.1-9.7,9.7
			c1.6,4.6,13.1-1.6,13.1-1.6s-4.3,8.5-1.1,10.8c3.2,2.3,11-7.6,11-7.6s1.2,8.5,3.8,8c2.5-0.6,8.3-13.7,0.9-21.8
			s-29.1-9.2-35.8-14.9c-6.7-5.7-9.9-20.7,27.7-30.7L225.6,291.1z"/>
		<path class="st3" d="M378.1,315.3c0,0,26.8,10.8,27.4,18.9s-30.1,16.4-35.6,19.8c-5.5,3.5-8.6,13.2,0,19.1
			c8.6,5.9,4.6-8.2,4.6-8.2s6.3,9.7,10.6,8.2c4.3-1.5-1.5-12.6-1.5-12.6s11.3,6.5,13.9,3c2.5-3.5-2.5-6.4-2.5-6.4
			s21.7-10.6,23.3-20.7s-24.5-30.6-38.1-33.6C366.4,299.9,373.8,313.5,378.1,315.3z"/>
		<path class="st4" d="M271.6,371.1c0,0-0.3,27.4-1.1,33.2c0,0-20.8-5.8-26.8,1.4c-6,7.1-3,15.5,0,16.6c3,1.2,29.5,3.2,35.5,0
			c0.9-1.1,2.3-46.2,1.6-49.6C278.4,373,271.6,371.1,271.6,371.1z"/>
		<path class="st4" d="M333.1,368.5c0,0-0.6,33.3-0.9,35.6c0,0,19.6-5.7,25.7,2.1c6.1,7.7,3.8,15.8,1.9,17.2
			c-1.5,1.1-31.4,2.7-38.1-1.7c-1.6-3,3.6-54.2,3.6-54.2L333.1,368.5z"/>
	</g>
	<g>
		<path class="st3" d="M243.4,218.7c12.2-11.8,36.3-18.4,76.3-17.2c40,1.2,59,24.9,61.8,60.6c2.8,35.7,6.1,95.8-17.2,105.3
			c-23.4,9.4-107.6,17.1-130.1-9C211.8,332.2,224.7,236.9,243.4,218.7z"/>
		<path class="st5" d="M248.7,237.1c11.1-10.8,33-16.8,69.4-15.7c36.4,1.1,53.7,22.7,56.2,55.1c2.5,32.4,8.7,79.2-12.5,87.8
			c-21.3,8.6-97.9,15.6-118.3-8.2S231.7,253.6,248.7,237.1z"/>
		<g>
			<g>
				<g>
					<g>
						<path class="st6" d="M365.2,366.9c0,0,0.3-0.1,0.8-0.4c0.5-0.2,1.1-0.6,1.8-1.2c0.4-0.3,0.7-0.6,1.1-1
							c0.4-0.4,0.8-0.7,1.1-1.2c0.4-0.4,0.8-0.9,1.1-1.3c0.4-0.4,0.8-0.9,1.1-1.4c0.4-0.5,0.7-1,1.1-1.5c0.3-0.5,0.7-1,1-1.5
							c0.3-0.5,0.6-1,0.9-1.4c0.3-0.4,0.5-0.9,0.8-1.3c0.5-0.8,0.8-1.5,1.1-2c0.2-0.5,0.4-0.8,0.4-0.8s0,0.3-0.1,0.9
							c-0.1,0.5-0.3,1.3-0.6,2.2c-0.2,0.5-0.3,0.9-0.6,1.4c-0.2,0.5-0.5,1-0.8,1.5c-0.3,0.5-0.6,1.1-0.9,1.6c-0.3,0.5-0.7,1-1.1,1.6
							c-0.4,0.5-0.8,1-1.2,1.5c-0.4,0.5-0.9,0.9-1.3,1.3c-0.4,0.4-0.9,0.8-1.3,1.1c-0.5,0.3-0.9,0.6-1.3,0.8
							c-0.9,0.5-1.6,0.7-2.2,0.8C365.5,366.9,365.2,366.9,365.2,366.9z"/>
					</g>
				</g>
			</g>
		</g>
		<g>
			<g>
				<g>
					<g>
						<path class="st6" d="M227.4,346c0,0,0.1,0.3,0.3,0.9c0.2,0.6,0.5,1.4,1,2.4c0.2,0.5,0.5,1,0.7,1.5c0.3,0.5,0.6,1.1,0.9,1.7
							c0.3,0.6,0.7,1.1,1.1,1.7c0.4,0.6,0.8,1.1,1.2,1.7c0.4,0.5,0.8,1.1,1.3,1.6c0.4,0.5,0.9,1,1.3,1.5c0.4,0.5,0.9,0.9,1.3,1.4
							c0.4,0.4,0.8,0.8,1.2,1.2c0.8,0.7,1.5,1.2,2,1.6c0.5,0.4,0.8,0.6,0.8,0.6s-0.3-0.1-1-0.3c-0.6-0.2-1.4-0.6-2.4-1.2
							c-0.5-0.3-0.9-0.6-1.5-1c-0.5-0.4-1-0.8-1.5-1.3c-0.5-0.5-1-1-1.5-1.5c-0.5-0.5-0.9-1.1-1.4-1.7c-0.4-0.6-0.9-1.2-1.2-1.8
							c-0.4-0.6-0.7-1.2-1-1.9c-0.3-0.6-0.6-1.2-0.8-1.8c-0.2-0.6-0.4-1.2-0.5-1.7c-0.3-1.1-0.4-2-0.5-2.6
							C227.4,346.4,227.4,346,227.4,346z"/>
					</g>
				</g>
			</g>
		</g>
	</g>
	<g>
		<g>
			<circle class="st7" cx="306.7" cy="317.9" r="33.4"/>
			<g>
				<defs>
					<path id="SVGID_1_" d="M336.6,305.9c-0.2,8.2-7.7,14.9-14.8,14.8c-8.1-0.2-14.8-6.6-14.8-14.8s6.6-14.8,14.8-14.8
						S336.7,297.7,336.6,305.9z"/>
				</defs>
				<use xlink:href="#SVGID_1_"  style="overflow:visible;fill:#1D1D1B;"/>
				<clipPath id="SVGID_2_">
					<use xlink:href="#SVGID_1_"  style="overflow:visible;"/>
				</clipPath>
				<circle class="st8" cx="327.1" cy="300.6" r="9.4"/>
			</g>
		</g>
		<g>
			<ellipse class="st9" cx="258.3" cy="346.3" rx="12.8" ry="9.8"/>
			<ellipse class="st9" cx="354.4" cy="346.3" rx="12.8" ry="9.8"/>
		</g>
		<g>
			<g>
				<g>
					<g>
						<g>
							<path class="st10" d="M290,359.2c0,0,2.1,0.7,5.1,1.5c0.8,0.2,1.6,0.4,2.5,0.6c0.9,0.2,1.8,0.3,2.7,0.5
								c0.9,0.2,1.9,0.3,2.9,0.3c1,0.1,2,0.1,3,0.1c1,0,2-0.1,3-0.2c1-0.2,1.9-0.3,2.9-0.5c0.9-0.2,1.8-0.5,2.6-0.8
								c0.4-0.2,0.8-0.3,1.2-0.4c0.4-0.2,0.8-0.3,1.1-0.5c1.4-0.6,2.6-1.2,3.4-1.7c0.8-0.5,1.3-0.7,1.3-0.7s-0.3,0.4-0.9,1.2
								c-0.6,0.7-1.6,1.7-2.9,2.7c-0.3,0.2-0.7,0.5-1.1,0.7c-0.4,0.2-0.8,0.5-1.2,0.7c-0.8,0.5-1.8,0.9-2.8,1.2
								c-1,0.3-2.1,0.6-3.2,0.8c-1.1,0.2-2.2,0.3-3.4,0.3c-1.1,0-2.3-0.1-3.3-0.2c-1.1-0.2-2.2-0.4-3.2-0.6c-1-0.2-2-0.6-2.8-0.9
								c-0.9-0.3-1.7-0.7-2.4-1.1C291.6,360.7,290,359.2,290,359.2z"/>
						</g>
					</g>
				</g>
			</g>
			<g>
				<g>
					<g>
						<g>
							<path class="st10" d="M288,360.5c0,0,0.1-0.6,0.4-1.2c0.1-0.2,0.2-0.3,0.3-0.5c0.1-0.1,0.2-0.3,0.3-0.5
								c0.1-0.1,0.3-0.3,0.4-0.4c0.1-0.1,0.3-0.2,0.4-0.3c0.1-0.1,0.3-0.2,0.4-0.3c0.1-0.1,0.2-0.2,0.4-0.3c0.1-0.1,0.2-0.2,0.4-0.2
								c0.1-0.1,0.2-0.2,0.4-0.2c0.2-0.2,0.5-0.3,0.7-0.5c0.2-0.1,0.4-0.2,0.4-0.2s0.1,0.1,0.2,0.3c0.1,0.2,0.2,0.6,0.3,1
								c0,0.2,0,0.4,0,0.7c0,0.2-0.1,0.5-0.2,0.7c-0.1,0.2-0.2,0.5-0.4,0.7c-0.2,0.2-0.4,0.4-0.5,0.6c-0.2,0.1-0.4,0.3-0.6,0.4
								c-0.2,0.1-0.4,0.2-0.6,0.3c-0.2,0.1-0.4,0.1-0.6,0.1c-0.2,0-0.4,0-0.6,0.1C288.6,360.7,288,360.5,288,360.5z"/>
						</g>
					</g>
				</g>
			</g>
			<g>
				<g>
					<g>
						<g>
							<path class="st10" d="M320.8,355.9c0,0,0.5-0.2,1.1-0.2c0.1,0,0.3,0,0.4,0c0.1,0,0.3,0,0.4,0.1c0.1,0.1,0.3,0.1,0.4,0.2
								l0.4,0.2l0.3,0.3c0.1,0.1,0.2,0.2,0.3,0.4c0.1,0.1,0.1,0.3,0.2,0.4c0.1,0.1,0.1,0.3,0.1,0.4c0.1,0.3,0.1,0.6,0.1,0.8
								c0,0.2,0,0.4,0,0.4s-0.1,0-0.3,0.1c-0.2,0.1-0.5,0.1-0.8,0.1c-0.1,0-0.3,0-0.4,0c-0.2,0-0.3,0-0.4-0.1
								c-0.1,0-0.3-0.1-0.4-0.2l-0.4-0.3l-0.3-0.3c-0.1-0.1-0.2-0.3-0.2-0.4c-0.1-0.1-0.1-0.3-0.2-0.4c-0.1-0.1-0.1-0.3-0.1-0.4
								C320.7,356.5,320.8,355.9,320.8,355.9z"/>
						</g>
					</g>
				</g>
			</g>
		</g>
	</g>
	<g>
		<circle class="st11" cx="258.3" cy="235.3" r="14.8"/>
		<circle class="st11" cx="283.6" cy="217.5" r="10.2"/>
		<circle class="st11" cx="293.8" cy="239.8" r="4.5"/>
		<circle class="st11" cx="254.9" cy="273" r="5.7"/>
		<circle class="st11" cx="244.6" cy="261.5" r="6.8"/>
		<circle class="st11" cx="237.8" cy="291.1" r="8.5"/>
		<circle class="st11" cx="325.1" cy="245.6" r="10.8"/>
		<circle class="st11" cx="321.8" cy="217.5" r="7.7"/>
		<circle class="st11" cx="351.3" cy="233.4" r="7.3"/>
		<circle class="st11" cx="356.2" cy="268.5" r="6.2"/>
		<circle class="st11" cx="367.7" cy="291.1" r="5.1"/>
		<circle class="st11" cx="364.5" cy="248.9" r="8.3"/>
	</g>
</g>
</svg>
