<?xml version="1.0" encoding="utf-8"?>
<!-- Generator: Adobe Illustrator 22.0.0, SVG Export Plug-In . SVG Version: 6.00 Build 0)  -->
<svg version="1.1" id="Layer_1" xmlns="http://www.w3.org/2000/svg" xmlns:xlink="http://www.w3.org/1999/xlink" x="0px" y="0px"
	 viewBox="0 0 600 600" style="enable-background:new 0 0 600 600;" xml:space="preserve">
<style type="text/css">
	.st0{opacity:0.23;fill:#045495;}
	.st1{fill:#CC2200;}
	.st2{fill:#7F0303;}
	.st3{fill:#BA0000;}
	.st4{fill:#FFDA04;}
	.st5{fill:#F29A19;}
	.st6{fill:#EF3E00;}
	.st7{opacity:0.52;}
	.st8{fill:#91BE21;}
	.st9{clip-path:url(#SVGID_2_);fill:#FFFFFF;}
	.st10{fill:#490808;}
	.st11{fill:#FFFCC5;}
	.st12{clip-path:url(#SVGID_4_);fill:#FFFFFF;}
</style>
<g>
	<ellipse class="st0" cx="294.1" cy="448.8" rx="88.9" ry="14.1"/>
	<g>
		<g>
			<path class="st1" d="M240.1,325.2c0,0-26.2,11.2-26.5,15.5s27.5,10.2,29.2,15.8s-6.8,16.8-11,17s-2.2-9.2-2.2-9.2
				s-9.8,6.8-13.3,4.8s7.8-12.2,7.8-12.2s-25.8-6.8-25.8-13.8s30.2-26,41-27C250.1,314.9,240.1,325.2,240.1,325.2z"/>
			<path class="st1" d="M244.3,370.2c0,0-2.5,25.1-1.5,37.5c0,0,8.5,11.1,7,14.4s-9.2-3.8-9.2-3.8s-8.5,15-12.8,14.2s2.2-12,2.2-12
				s-12.5,1-13.5-2.2s16.7-9.8,16.7-9.8s2.4-30.5,6.8-42.6C244.6,353.9,244.3,370.2,244.3,370.2z"/>
			<g>
				<path class="st1" d="M333.9,327.7c0,0,13.2,11,22.8,5.5s8.1-17.2,8.1-17.2s-10.2-10.2-10.3-14.7c0-4.5,13,0,13,0
					s4.7-21.8,8.2-21.8s4.8,21.8,4.8,21.8s13.8-3,15.5,0s-18,15.2-21.2,15.5c0,0-3.2,19.5-14.2,25.3s-26.5,0-26.5,0V327.7z"/>
				<g>
					<g>
						<g>
							<g>
								<path class="st2" d="M369.1,306.4c0,0,0.5-0.3,1.3,0c0.2,0.1,0.4,0.1,0.6,0.3c0.2,0.1,0.4,0.3,0.6,0.5
									c0.1,0.2,0.3,0.5,0.4,0.7c0.1,0.3,0.2,0.5,0.2,0.8c0,0.3,0,0.6,0,0.8c0,0.3-0.1,0.5-0.1,0.8c-0.1,0.2-0.2,0.5-0.3,0.7
									c-0.1,0.2-0.2,0.4-0.4,0.5c-0.3,0.3-0.5,0.5-0.8,0.6c-0.2,0.1-0.3,0.1-0.3,0.1s0-0.1,0.1-0.3c0.1-0.2,0.2-0.5,0.2-0.8
									c0-0.2,0.1-0.3,0.1-0.5c0-0.2,0-0.4,0.1-0.5c0-0.2,0-0.4,0-0.6c0-0.2,0-0.4,0-0.6c0-0.2,0-0.4-0.1-0.5
									c0-0.2-0.1-0.3-0.2-0.5c-0.1-0.1-0.1-0.3-0.2-0.4c-0.1-0.1-0.2-0.2-0.3-0.4c-0.2-0.2-0.4-0.4-0.6-0.5
									C369.2,306.5,369.1,306.4,369.1,306.4z"/>
							</g>
						</g>
					</g>
				</g>
			</g>
			<g>
				<path class="st1" d="M336.1,348.7c0,0,6.8,37.8,38.2,30.5c0,0-6.5-9.2-3.5-13.1c3-3.9,13.2,7.4,13.2,7.4s7.7-12.5,11.9-11.6
					c4.1,0.9-1.4,18.3-1.4,18.3s8,4.8,7.8,7.1s-17.8,1.8-23.2,0c0,0-28.2,10.5-41.5-13.7L336.1,348.7z"/>
				<g>
					<g>
						<g>
							<g>
								<path class="st2" d="M380.6,383.7c0,0,0.2-0.5,0.8-1.2c0.1-0.2,0.3-0.3,0.4-0.5c0.2-0.2,0.3-0.4,0.5-0.5
									c0.2-0.2,0.3-0.4,0.5-0.5c0.2-0.2,0.3-0.4,0.5-0.5c0.2-0.2,0.3-0.4,0.5-0.5c0.1-0.2,0.3-0.3,0.4-0.5
									c0.1-0.2,0.2-0.3,0.4-0.5c0.1-0.2,0.2-0.3,0.3-0.5c0.1-0.3,0.2-0.6,0.2-0.8c0-0.2,0-0.4,0-0.4s0.1,0.1,0.3,0.3
									c0.1,0.2,0.3,0.6,0.3,1.1c0,0.2,0,0.5-0.1,0.8c-0.1,0.2-0.2,0.5-0.3,0.8c-0.1,0.3-0.3,0.5-0.4,0.7c-0.2,0.2-0.4,0.4-0.6,0.6
									c-0.2,0.2-0.4,0.4-0.6,0.6c-0.2,0.2-0.4,0.3-0.6,0.5c-0.2,0.2-0.4,0.3-0.6,0.4c-0.2,0.1-0.4,0.2-0.6,0.3
									C381.2,383.5,380.6,383.7,380.6,383.7z"/>
							</g>
						</g>
					</g>
				</g>
			</g>
		</g>
		<g>
			<path class="st3" d="M309.1,398.1c0,0,1.4,33.9,2.1,37.5c0,0,4.9-6.7,13.2-4.4s11.5,12,10.5,15.2c0,0-21.2,3.8-28.6,0
				c0,0-4.4-38.5-4.4-45.2S309.1,398.1,309.1,398.1z"/>
			<path class="st3" d="M270.1,400.9c0,0,1.2,32,1.2,35c0,0-7-7.8-13.8-7.5s-16,6.8-13.3,18.5c0,0,25,5,34.8-1.2
				c0,0-2.4-39.2-2.3-42S270,399.1,270.1,400.9z"/>
		</g>
		<g>
			<g>
				<g>
					<path class="st4" d="M341.2,211.7c0,0,21.2,8,28.2,0s5.8-17.2,0.7-26.2c0,0,19.8,16,21.2,30.5c1.3,14.5-13.8,37.8-54.5,25.7
						L341.2,211.7z"/>
					<g>
						<g>
							<g>
								<g>
									<g>
										<path class="st5" d="M352.9,215.6c0,0,0.1,0.1,0.2,0.2c0.1,0.2,0.3,0.4,0.5,0.7c0.4,0.7,1,1.7,1.3,3
											c0.2,0.7,0.4,1.4,0.5,2.1c0.1,0.8,0.2,1.6,0.3,2.4c0,0.8,0.1,1.7,0.1,2.5c0,0.9,0,1.7,0,2.6c0,0.9-0.1,1.8-0.2,2.7
											c-0.1,0.9-0.3,1.7-0.5,2.6c-0.2,0.8-0.4,1.6-0.7,2.3c-0.3,0.7-0.6,1.4-0.9,2c-0.6,1.2-1.3,2.1-1.7,2.7
											c-0.5,0.6-0.8,0.9-0.8,0.9s0.1-0.4,0.3-1.2c0.2-0.7,0.4-1.8,0.7-3c0.1-0.6,0.2-1.3,0.3-2c0.1-0.7,0.2-1.5,0.3-2.2
											c0.1-0.8,0.1-1.6,0.2-2.4c0.1-0.8,0.1-1.6,0.1-2.5c0-0.9,0.1-1.7,0.1-2.6c0.1-0.8,0.1-1.7,0.2-2.5c0-0.8,0.1-1.5,0.1-2.3
											c0-0.7,0.1-1.4,0-2c0-1.2-0.1-2.3-0.2-3c0-0.4-0.1-0.7-0.2-0.9C352.9,215.7,352.9,215.6,352.9,215.6z"/>
									</g>
								</g>
							</g>
						</g>
						<g>
							<g>
								<g>
									<g>
										<path class="st5" d="M364.7,215.2c0,0,0.4,0.3,0.9,0.9c0.6,0.6,1.3,1.5,2,2.7c0.3,0.6,0.7,1.3,1,2
											c0.3,0.7,0.7,1.5,0.9,2.3c0.3,0.8,0.5,1.7,0.8,2.5c0.2,0.9,0.4,1.8,0.6,2.6c0.1,0.9,0.3,1.8,0.4,2.7
											c0.1,0.9,0.2,1.8,0.2,2.6c0,0.9,0,1.7-0.1,2.5c-0.1,0.8-0.2,1.5-0.3,2.2c-0.3,1.4-0.8,2.5-1.2,3.2
											c-0.2,0.3-0.4,0.6-0.5,0.8c-0.1,0.2-0.2,0.3-0.2,0.3s0-0.1,0.1-0.3c0-0.2,0.1-0.5,0.1-0.9c0.1-0.8,0.1-1.8,0-3.1
											c0-0.6-0.1-1.3-0.2-2.1c-0.1-0.7-0.2-1.5-0.3-2.3c-0.1-0.8-0.3-1.6-0.4-2.5c-0.1-0.8-0.3-1.7-0.4-2.6
											c-0.1-0.9-0.3-1.7-0.4-2.5c-0.1-0.8-0.3-1.7-0.5-2.4c-0.2-0.8-0.3-1.6-0.5-2.3c-0.2-0.7-0.3-1.4-0.5-2
											c-0.3-1.3-0.7-2.3-0.9-3C364.8,215.7,364.7,215.2,364.7,215.2z"/>
									</g>
								</g>
							</g>
						</g>
						<g>
							<g>
								<g>
									<g>
										<path class="st5" d="M371,211.1c0,0,0.4,0,1.1,0.1c0.4,0,0.8,0.1,1.3,0.3c0.5,0.1,1,0.3,1.6,0.5c0.6,0.2,1.2,0.5,1.8,0.9
											c0.6,0.3,1.2,0.7,1.9,1.2c0.6,0.5,1.2,1,1.8,1.5c0.6,0.6,1.1,1.2,1.7,1.8c0.5,0.7,1,1.3,1.4,2c0.5,0.7,0.8,1.4,1.2,2
											c0.3,0.7,0.6,1.4,0.9,2c0.2,0.7,0.5,1.3,0.6,1.9c0.3,1.2,0.4,2.2,0.5,2.9c0,0.7,0,1.1,0,1.1s-0.2-0.3-0.6-0.9
											c-0.4-0.6-0.9-1.4-1.5-2.4c-0.3-0.5-0.6-1-1-1.6c-0.4-0.5-0.7-1.1-1.1-1.7c-0.4-0.6-0.8-1.2-1.3-1.7
											c-0.4-0.6-0.9-1.2-1.3-1.7c-0.5-0.6-0.9-1.1-1.4-1.7c-0.5-0.6-1-1.1-1.5-1.6c-0.5-0.4-1-1-1.5-1.4
											c-0.5-0.4-0.9-0.8-1.4-1.2c-0.4-0.4-0.9-0.7-1.2-1c-0.4-0.3-0.7-0.5-1-0.7C371.4,211.3,371,211.1,371,211.1z"/>
									</g>
								</g>
							</g>
						</g>
						<g>
							<g>
								<g>
									<g>
										<path class="st5" d="M374.4,204.7c0,0,0.1-0.2,0.4-0.6c0.1-0.2,0.3-0.4,0.6-0.6c0.2-0.2,0.5-0.5,0.9-0.7
											c0.3-0.2,0.7-0.4,1.2-0.6c0.4-0.2,0.9-0.3,1.4-0.4c0.5,0,1-0.1,1.6-0.1c0.5,0,1.1,0.1,1.6,0.2c0.5,0.2,1,0.3,1.5,0.5
											c0.5,0.2,0.9,0.5,1.4,0.7c0.4,0.3,0.8,0.6,1.1,0.9c0.3,0.3,0.6,0.6,0.8,1c0.2,0.3,0.4,0.6,0.5,0.9
											c0.1,0.3,0.2,0.5,0.3,0.8c0.1,0.4,0.2,0.7,0.2,0.7s-0.2-0.1-0.6-0.3c-0.2-0.1-0.4-0.2-0.7-0.4c-0.2-0.1-0.5-0.3-0.8-0.4
											c-0.3-0.1-0.6-0.3-1-0.4c-0.3-0.2-0.7-0.3-1.1-0.4c-0.4-0.1-0.8-0.3-1.1-0.4c-0.4-0.2-0.8-0.2-1.2-0.3
											c-0.4-0.1-0.8-0.2-1.2-0.2c-0.4-0.1-0.8-0.1-1.2-0.2c-0.4,0-0.8-0.1-1.1-0.1c-0.4,0-0.7,0-1,0c-0.3,0-0.6,0-0.9,0.1
											c-0.3,0-0.5,0.1-0.7,0.1C374.6,204.7,374.4,204.7,374.4,204.7z"/>
									</g>
								</g>
							</g>
						</g>
					</g>
				</g>
				<g>
					<path class="st4" d="M252.4,211.2c0,0-16.3,3.8-24.2-6c-7.8-9.8-6.2-24.8,4.2-32.5c0,0-24.7,8-25.3,33.7
						c-0.7,25.7,30.2,36.1,42,36.2L252.4,211.2z"/>
					<g>
						<g>
							<g>
								<g>
									<g>
										<path class="st5" d="M241.9,212.4c0,0-0.1,0.1-0.2,0.2c-0.1,0.2-0.4,0.4-0.6,0.7c-0.5,0.6-1.2,1.5-1.8,2.6
											c-0.3,0.6-0.6,1.2-1,1.8c-0.3,0.7-0.6,1.4-0.9,2.1c-0.3,0.7-0.6,1.5-0.8,2.3c-0.3,0.8-0.5,1.6-0.7,2.5
											c-0.2,0.8-0.4,1.7-0.5,2.5c-0.1,0.8-0.3,1.7-0.4,2.5c-0.1,0.8-0.2,1.6-0.3,2.3c-0.1,0.7-0.1,1.5-0.2,2.1
											c-0.1,1.3-0.1,2.4-0.1,3.2c0,0.8,0,1.3,0,1.3s-0.2-0.4-0.6-1.1c-0.3-0.7-0.8-1.8-1-3.2c-0.2-0.7-0.3-1.4-0.4-2.2
											c-0.1-0.8-0.1-1.7-0.1-2.5c0-0.9,0.1-1.8,0.2-2.7c0.1-0.9,0.3-1.8,0.5-2.8c0.2-0.9,0.5-1.8,0.9-2.7
											c0.4-0.9,0.7-1.7,1.2-2.5c0.4-0.8,0.9-1.5,1.4-2.2c0.5-0.7,1-1.2,1.5-1.8c1-1,2-1.7,2.8-2c0.4-0.2,0.7-0.3,0.9-0.4
											C241.7,212.5,241.9,212.4,241.9,212.4z"/>
									</g>
								</g>
							</g>
						</g>
						<g>
							<g>
								<g>
									<g>
										<path class="st5" d="M231.9,208.9c0,0-0.1,0-0.3,0.1c-0.2,0.1-0.5,0.2-0.8,0.3c-0.6,0.3-1.5,0.8-2.4,1.6
											c-0.5,0.4-1,0.8-1.5,1.2c-0.5,0.4-1,1-1.5,1.5c-0.5,0.5-1.1,1.1-1.6,1.7c-0.5,0.6-1,1.2-1.5,1.8c-0.5,0.6-0.9,1.3-1.3,1.9
											c-0.4,0.7-0.8,1.3-1.1,2c-0.3,0.7-0.7,1.3-1,1.9c-0.3,0.6-0.6,1.2-0.8,1.8c-0.5,1.1-0.9,2.1-1.2,2.7
											c-0.3,0.7-0.5,1.1-0.5,1.1s-0.1-0.4-0.1-1.2c0-0.7,0-1.8,0.1-3.1c0.1-0.6,0.2-1.3,0.4-2.1c0.2-0.7,0.4-1.5,0.7-2.2
											c0.3-0.8,0.6-1.5,1.1-2.3c0.4-0.8,0.9-1.5,1.4-2.2c0.6-0.7,1.2-1.4,1.8-2c0.6-0.6,1.3-1.1,1.9-1.6c0.6-0.5,1.3-0.9,2-1.3
											c0.6-0.4,1.3-0.7,1.9-0.9c1.2-0.5,2.3-0.7,3.1-0.7c0.4,0,0.7,0,0.9,0.1C231.8,208.9,231.9,208.9,231.9,208.9z"/>
									</g>
								</g>
							</g>
						</g>
						<g>
							<g>
								<g>
									<g>
										<path class="st5" d="M207.1,213.2c0,0,0-0.4,0-1c0-0.2,0-0.4,0.1-0.6c0-0.2,0.1-0.4,0.2-0.6c0.1-0.5,0.3-1,0.5-1.5
											c0.1-0.3,0.2-0.5,0.4-0.8c0.2-0.3,0.3-0.5,0.5-0.8c0.4-0.6,0.9-1.1,1.4-1.6c0.6-0.5,1.1-1,1.7-1.4c0.6-0.4,1.3-0.8,2-1.2
											c0.7-0.3,1.4-0.6,2.1-0.9c0.7-0.3,1.4-0.4,2.1-0.6c0.7-0.2,1.4-0.2,2-0.3c0.6,0,1.2-0.1,1.8-0.1c1.1,0,2,0.1,2.7,0.3
											c0.6,0.2,1,0.3,1,0.3s-0.4,0.1-1,0.3c-0.6,0.2-1.5,0.5-2.5,0.8c-0.5,0.2-1,0.4-1.6,0.5c-0.6,0.2-1.1,0.4-1.7,0.6
											c-0.6,0.2-1.2,0.5-1.8,0.7c-0.6,0.2-1.2,0.5-1.8,0.8c-0.6,0.3-1.2,0.6-1.7,0.9c-0.6,0.3-1.1,0.7-1.6,1
											c-0.5,0.4-1,0.7-1.4,1.1c-0.2,0.2-0.4,0.4-0.6,0.5c-0.2,0.2-0.4,0.4-0.5,0.6c-0.4,0.4-0.7,0.7-0.9,1.1
											c-0.1,0.2-0.3,0.3-0.4,0.5c-0.1,0.2-0.2,0.3-0.3,0.4C207.3,212.9,207.1,213.2,207.1,213.2z"/>
									</g>
								</g>
							</g>
						</g>
						<g>
							<g>
								<g>
									<g>
										<path class="st5" d="M208.6,196.9c0,0-0.1-0.3-0.1-0.8c0-0.5,0.3-1.2,0.9-1.9c0.3-0.3,0.6-0.7,1-0.9
											c0.4-0.3,0.8-0.6,1.2-0.8c0.4-0.2,0.9-0.5,1.4-0.7c0.5-0.2,1-0.3,1.5-0.5c0.5-0.1,1-0.2,1.5-0.3c0.5-0.1,1-0.1,1.5-0.1
											c0.5,0,1,0,1.4,0.1c0.5,0.1,0.9,0.2,1.3,0.3c0.8,0.3,1.4,0.7,1.7,1c0.2,0.2,0.3,0.3,0.3,0.5c0.1,0.1,0.1,0.2,0.1,0.2
											s-0.3-0.1-0.7-0.1c-0.4,0-1,0-1.7,0.1c-0.3,0.1-0.7,0.1-1.1,0.2c-0.4,0.1-0.8,0.2-1.2,0.2c-0.4,0.1-0.8,0.2-1.3,0.3
											c-0.4,0.1-0.9,0.2-1.3,0.3c-0.4,0.1-0.9,0.2-1.3,0.3c-0.4,0.1-0.9,0.2-1.3,0.3c-0.4,0.1-0.8,0.2-1.1,0.3
											c-0.4,0.1-0.7,0.2-1,0.4c-0.6,0.3-1.1,0.5-1.4,0.8C208.7,196.7,208.6,196.9,208.6,196.9z"/>
									</g>
								</g>
							</g>
						</g>
						<g>
							<g>
								<g>
									<g>
										<path class="st5" d="M216.4,183.2c0,0,0-0.2,0.2-0.5c0.1-0.3,0.4-0.6,0.8-0.9c0.2-0.1,0.4-0.3,0.7-0.4
											c0.2-0.1,0.5-0.2,0.8-0.3c0.3-0.1,0.6-0.1,0.9-0.2c0.3,0,0.6,0,0.9,0c0.3,0,0.6,0.1,0.9,0.1c0.3,0.1,0.6,0.2,0.9,0.3
											c0.3,0.1,0.5,0.3,0.8,0.5c0.2,0.2,0.4,0.4,0.6,0.6c0.2,0.2,0.3,0.5,0.4,0.6c0.1,0.2,0.1,0.4,0.1,0.6
											c-0.1,0.4-0.1,0.5-0.1,0.5s-0.2-0.1-0.4-0.2c-0.1,0-0.3-0.1-0.4-0.1c-0.1,0-0.3,0-0.5,0c-0.2,0-0.3,0-0.6,0
											c-0.2,0-0.4,0-0.6,0c-0.2,0-0.4,0-0.6,0c-0.2,0-0.4-0.1-0.7,0c-0.2,0-0.5-0.1-0.7-0.1c-0.2-0.1-0.4-0.1-0.7-0.1
											c-0.2,0-0.4-0.1-0.6-0.1c-0.2,0-0.4-0.1-0.6-0.1c-0.4-0.1-0.7-0.1-1-0.2C216.5,183.2,216.4,183.2,216.4,183.2z"/>
									</g>
								</g>
							</g>
						</g>
					</g>
				</g>
			</g>
			<g>
				<path class="st1" d="M294.7,407.6c-34.3,2.2-49-15-53.7-34.7c-4.7-19.7-8-90,0-138.2s38-93.2,69-95.2S350,192,340.7,240
					c-9.3,48-2,101.3-2,110.6C338.7,359.9,351.7,403.9,294.7,407.6z"/>
				<path class="st6" d="M294.4,397.1c-32.2,3-46.2-14.1-50.6-32.7c-4.4-18.5-5.3-84.3,2.2-129.7c7.5-45.4,33.3-87.8,62.1-82.1
					c26.9,5.3,34.6,42.1,25.8,87.3s-4.7,93.6-4.7,102.4S336.1,393.3,294.4,397.1z"/>
				<g class="st7">
					<g>
						<path class="st8" d="M323.4,342.4c0,12,9,17.4,16.4,19.9c-0.4-5.2-1.1-9.4-1.1-11.7c0-3.5-1-13.1-1.8-26.3
							C330.9,326.4,323.4,331.3,323.4,342.4z"/>
					</g>
					<g>
						<path class="st8" d="M321.9,298.9c0,11,7.6,16.5,14.7,19.2c-0.5-11-0.8-24-0.3-37.6C330.1,282.5,321.9,287.3,321.9,298.9z"/>
					</g>
					<g>
						<path class="st8" d="M323.5,244.5c0,10.6,7,16.1,13.8,18.9c0.7-7.8,1.8-15.7,3.3-23.5c1-4.9,1.7-10,2.3-15
							C338.3,225.6,323.5,229,323.5,244.5z"/>
					</g>
					<g>
						<path class="st8" d="M331,192c1.8,9.2,7.4,14.6,13.1,17.7c0.5-14.5-0.8-28.4-4-39.9C334.6,174.3,329.1,181.7,331,192z"/>
					</g>
					<g>
						<path class="st8" d="M318.5,156.5c6,0.6,11-0.8,15-3.1c-5.6-9.1-13.3-14.5-23.4-13.8c-3.4,0.2-6.8,1-10.2,2.2
							C302.7,148.3,308.1,155.5,318.5,156.5z"/>
					</g>
					<g>
						<path class="st8" d="M285.8,164.9c5-6.4,5.9-13.1,5.2-18.8c-9.5,5.8-18.5,15.2-26.2,26.8C271.6,173.7,279.8,172.5,285.8,164.9
							z"/>
					</g>
					<g>
						<path class="st8" d="M261.3,199.2c3.6-7,1.8-13.5-1.3-18.5c-5.2,9.1-9.7,19.3-13.1,30.1C252.3,209.3,257.9,206,261.3,199.2z"
							/>
					</g>
					<g>
						<path class="st8" d="M253.6,241.2c2-9.8-3.9-16.4-9.6-20.4c-1.2,4.6-2.2,9.2-2.9,13.9c-1.2,7.4-2.2,15.4-2.9,23.6
							C244.5,255.9,251.6,251,253.6,241.2z"/>
					</g>
					<g>
						<path class="st8" d="M248.8,294.8c1.1-10.1-5.8-16.2-11.9-19.5c-0.6,12.6-0.8,25.4-0.7,37.5
							C242.1,309.6,247.8,304.1,248.8,294.8z"/>
					</g>
					<g>
						<path class="st8" d="M250.2,337.9c-1-9.1-7.5-13.7-13.7-15.9c0.4,14.9,1.3,28.3,2.5,38.2C244.9,356,251.3,348.9,250.2,337.9z"
							/>
					</g>
				</g>
			</g>
			<g>
				<g>
					<g>
						<circle class="st4" cx="286.3" cy="330" r="20.3"/>
						<g>
							<defs>
								<circle id="SVGID_1_" cx="294.1" cy="328.7" r="12.5"/>
							</defs>
							<use xlink:href="#SVGID_1_"  style="overflow:visible;fill:#1D1D1B;"/>
							<clipPath id="SVGID_2_">
								<use xlink:href="#SVGID_1_"  style="overflow:visible;"/>
							</clipPath>
							<circle class="st9" cx="299.2" cy="323.5" r="7.4"/>
						</g>
					</g>
					<g>
						<path class="st10" d="M255.4,362.8c0.9-11.6,14.5-12.7,18.7-10.1c4.3,2.6,14.4,6.1,22.5,1c8.2-5.1,19.6-1.6,20.5,7.4
							c1.1,10.6-9,23.7-26.8,26.8C272.7,391,254.1,379.2,255.4,362.8z"/>
						<g>
							<path class="st11" d="M270.7,365.1c3.2,1.7,9.9-5.6,12.3-9.3c-3.7-0.7-6.8-2-8.8-3.2c-1.2-0.7-3.3-1.2-5.5-1.1
								C268.2,355.8,267.8,363.6,270.7,365.1z"/>
							<path class="st11" d="M303,362.2c3.1-1.9,2.7-7.3,2.1-11c-2.8,0-5.8,0.7-8.4,2.3c-1.6,1-3.3,1.7-5.1,2.1
								C294.2,358.7,299.5,364.3,303,362.2z"/>
							<path class="st11" d="M273.1,376.4c-2.4-0.4-6.2,2.9-8.6,5.3c3.3,2.5,7.2,4.4,11.5,5.5C276,383.6,275.7,376.9,273.1,376.4z"
								/>
							<path class="st11" d="M292.7,378.5c-3.1,0.7-4.4,6.4-4.9,9.7c0.9-0.1,1.7-0.2,2.6-0.3c4-0.7,7.5-1.9,10.7-3.4
								C299.1,381.7,295.6,377.8,292.7,378.5z"/>
							<path class="st11" d="M306.9,368c-1.1,2.1,0.7,7.6,2.1,11.1c3.6-3.2,6-7,7.3-10.8C312.6,367.2,307.9,366.1,306.9,368z"/>
						</g>
					</g>
				</g>
				<g>
					<g>
						<circle class="st4" cx="290.8" cy="228.8" r="20.3"/>
						<g>
							<defs>
								<circle id="SVGID_3_" cx="285.1" cy="223.6" r="12.5"/>
							</defs>
							<use xlink:href="#SVGID_3_"  style="overflow:visible;fill:#1D1D1B;"/>
							<clipPath id="SVGID_4_">
								<use xlink:href="#SVGID_3_"  style="overflow:visible;"/>
							</clipPath>
							<circle class="st12" cx="290.3" cy="218.5" r="7.4"/>
						</g>
					</g>
					<g>
						<g>
							<g>
								<g>
									<g>
										<path class="st2" d="M269.2,249c0,0,1.9,1.4,4.8,3.2c0.7,0.4,1.5,0.9,2.4,1.4c0.9,0.5,1.8,0.9,2.7,1.3
											c0.9,0.5,1.9,0.8,3,1.2c1,0.4,2.1,0.7,3.1,1c1.1,0.3,2.1,0.5,3.2,0.7c1.1,0.1,2.1,0.3,3.1,0.3c1,0,2,0,3,0
											c0.5,0,0.9-0.1,1.4-0.1c0.4-0.1,0.9-0.1,1.3-0.2c1.7-0.3,3.1-0.6,4.1-0.8c1-0.2,1.6-0.4,1.6-0.4s-0.5,0.3-1.3,0.9
											c-0.9,0.6-2.2,1.3-3.9,1.9c-0.4,0.1-0.9,0.3-1.3,0.4c-0.5,0.1-1,0.2-1.5,0.4c-1,0.2-2.1,0.4-3.3,0.4
											c-1.1,0.1-2.3,0-3.5-0.1c-1.2-0.2-2.4-0.4-3.6-0.7c-1.2-0.3-2.3-0.7-3.4-1.2c-1.1-0.5-2.1-1-3.1-1.6
											c-1-0.5-1.9-1.2-2.7-1.8c-0.8-0.6-1.6-1.2-2.2-1.8C270.4,251,269.2,249,269.2,249z"/>
									</g>
								</g>
							</g>
						</g>
						<g>
							<g>
								<g>
									<g>
										<path class="st2" d="M266.6,249.8c0,0,0.3-0.6,0.8-1.1c0.1-0.1,0.3-0.3,0.5-0.4c0.2-0.1,0.3-0.3,0.5-0.4
											c0.2-0.1,0.3-0.2,0.5-0.3c0.2-0.1,0.3-0.2,0.5-0.3c0.2-0.1,0.3-0.1,0.5-0.2c0.1-0.1,0.3-0.1,0.5-0.2
											c0.1-0.1,0.3-0.1,0.5-0.2c0.2,0,0.3-0.1,0.5-0.2c0.3-0.1,0.6-0.2,0.9-0.3c0.3-0.1,0.4-0.1,0.4-0.1s0,0.2,0.1,0.4
											c0,0.3,0.1,0.6,0,1.1c0,0.2-0.1,0.4-0.2,0.7c-0.1,0.2-0.3,0.4-0.4,0.6c-0.2,0.2-0.4,0.4-0.6,0.6c-0.2,0.2-0.5,0.3-0.7,0.4
											c-0.3,0.1-0.5,0.2-0.7,0.2c-0.3,0-0.5,0.1-0.7,0.1c-0.2,0-0.5,0-0.7,0c-0.2,0-0.4-0.1-0.6-0.1
											C267.2,250.1,266.6,249.8,266.6,249.8z"/>
									</g>
								</g>
							</g>
						</g>
						<g>
							<g>
								<g>
									<g>
										<path class="st2" d="M302.1,254.8c0,0,0.6,0,1.1,0.2c0.1,0.1,0.3,0.1,0.4,0.2c0.1,0.1,0.3,0.1,0.4,0.2
											c0.1,0.1,0.2,0.2,0.4,0.3l0.3,0.4l0.2,0.4c0.1,0.1,0.1,0.3,0.2,0.4c0.1,0.1,0.1,0.3,0.1,0.5c0,0.2,0,0.3,0,0.5
											c0,0.3-0.1,0.6-0.1,0.8c-0.1,0.2-0.1,0.4-0.1,0.4s-0.1,0-0.4,0c-0.2,0-0.5,0-0.8-0.1c-0.1,0-0.3-0.1-0.4-0.2
											c-0.1-0.1-0.3-0.1-0.4-0.2c-0.1-0.1-0.3-0.2-0.4-0.3l-0.3-0.4l-0.2-0.4c-0.1-0.2-0.1-0.3-0.2-0.5
											c-0.1-0.1-0.1-0.3-0.1-0.5c0-0.1,0-0.3,0-0.5C301.9,255.3,302.1,254.8,302.1,254.8z"/>
									</g>
								</g>
							</g>
						</g>
					</g>
				</g>
			</g>
		</g>
	</g>
</g>
</svg>
