<?xml version="1.0" encoding="utf-8"?>
<!-- Generator: Adobe Illustrator 22.0.0, SVG Export Plug-In . SVG Version: 6.00 Build 0)  -->
<svg version="1.1" id="Layer_1" xmlns="http://www.w3.org/2000/svg" xmlns:xlink="http://www.w3.org/1999/xlink" x="0px" y="0px"
	 viewBox="0 0 600 600" style="enable-background:new 0 0 600 600;" xml:space="preserve">
<style type="text/css">
	.st0{opacity:0.23;fill:#045495;}
	.st1{fill:#FF9D00;}
	.st2{fill:#E65B0D;}
	.st3{fill:#F99300;}
	.st4{fill:#08549F;}
	.st5{fill:#2188DB;}
	.st6{fill:#FFBB33;}
	.st7{fill:#490808;}
	.st8{fill:#FFFCC5;}
	.st9{fill:#FF9F9F;}
	.st10{fill:#FFFFFF;}
	.st11{clip-path:url(#SVGID_2_);fill:#FFFFFF;}
	.st12{fill:#F4CB00;}
	.st13{fill:#E5AE00;}
	.st14{fill:#079539;}
	.st15{fill:#007C20;}
	.st16{fill:#FFDD15;}
	.st17{fill:#E0B500;}
	.st18{clip-path:url(#SVGID_4_);fill:#FFFFFF;}
	.st19{fill:#E58A00;}
</style>
<g>
	<ellipse class="st0" cx="302.1" cy="454.3" rx="95" ry="15.3"/>
	<g>
		<g>
			<g>
				<g>
					<path class="st1" d="M235.6,221.4c0,0-16.9-0.5-19.9-17.9s13.8-29.7,13.8-29.7s17.9,7.7,21.4,0s-13.4-9-13.4-9
						s9.9-23.6,4.9-25.5c-5-1.9-12.9,13.8-12.9,13.8s2.2-20.7-4.5-21.3c-6.7-0.7-5.7,18.7-5.7,18.7s-6.7-15.3-11.7-14
						c-5,1.3,4.8,25,10.4,31c0,0-17.2,18-15,37.3s18,23.4,31.1,27.9C247.3,237.3,235.6,221.4,235.6,221.4z"/>
					<g>
						<g>
							<g>
								<g>
									<path class="st2" d="M223,161.2c0,0,0.2,0,0.6,0.1c0.4,0,0.9,0.1,1.5,0.3c0.3,0.1,0.6,0.2,0.9,0.4c0.3,0.1,0.7,0.3,1,0.6
										c0.3,0.2,0.7,0.5,1,0.8c0.3,0.3,0.6,0.6,0.9,0.9c0.3,0.3,0.5,0.7,0.7,1.1c0.2,0.4,0.4,0.7,0.5,1.1c0.1,0.4,0.3,0.7,0.3,1.1
										c0.1,0.4,0.1,0.7,0.1,1c0,0.6,0,1.1-0.1,1.5c-0.1,0.4-0.1,0.6-0.1,0.6s-0.1-0.2-0.2-0.5c-0.1-0.3-0.3-0.8-0.5-1.3
										c-0.1-0.3-0.2-0.6-0.4-0.9c-0.1-0.3-0.3-0.6-0.4-0.9c-0.2-0.3-0.3-0.6-0.6-0.9c-0.2-0.3-0.4-0.6-0.6-0.9
										c-0.2-0.3-0.5-0.6-0.7-0.8c-0.2-0.3-0.5-0.5-0.8-0.8c-0.3-0.2-0.5-0.5-0.8-0.7c-0.3-0.2-0.5-0.4-0.7-0.6
										C223.7,161.7,223,161.2,223,161.2z"/>
								</g>
							</g>
						</g>
					</g>
				</g>
				<g>
					<path class="st1" d="M354.8,227.2c0,0,26.7-4,30.8-17.7c4.1-13.7-8-28.7-8-28.7s-21.7,8-22.8,1c-1.1-7,14.9-10.1,14.9-10.1
						s-13.8-15.9-9.9-21.6c3.9-5.7,16.3,12.3,16.3,12.3s-5-21,0-23s10.3,20.7,10.3,20.7s7.4-20.3,13-19.3c5.7,1-4.3,28-9,34.3
						c0,0,13.7,22.5,8.3,38.3c-5.3,15.7-36.6,26.6-44.6,26.4C347.2,239.7,354.8,227.2,354.8,227.2z"/>
					<g>
						<g>
							<g>
								<g>
									<path class="st2" d="M381.7,167.6c0,0-0.3,0.7-0.7,1.6c-0.1,0.2-0.2,0.5-0.3,0.7c-0.1,0.3-0.2,0.5-0.3,0.8
										c-0.1,0.3-0.2,0.6-0.2,0.9c-0.1,0.3-0.1,0.6-0.2,0.9c0,0.3-0.1,0.6-0.1,0.9c0,0.3,0,0.6,0,0.9c0,0.3,0,0.6,0.1,0.8
										c0,0.3,0.1,0.5,0.1,0.8c0.1,0.5,0.2,0.9,0.3,1.2c0.1,0.3,0.1,0.5,0.1,0.5s-0.1-0.1-0.4-0.3c-0.2-0.2-0.5-0.6-0.8-1
										c-0.1-0.2-0.3-0.5-0.4-0.8c-0.1-0.3-0.2-0.6-0.3-1c0-0.3-0.1-0.7-0.1-1.1c0-0.4,0.1-0.7,0.1-1.1c0.1-0.4,0.2-0.7,0.3-1.1
										c0.1-0.3,0.3-0.7,0.4-1c0.2-0.3,0.3-0.6,0.5-0.8c0.2-0.3,0.4-0.5,0.5-0.7C381.1,167.9,381.7,167.6,381.7,167.6z"/>
								</g>
							</g>
						</g>
					</g>
				</g>
			</g>
			<g>
				<path class="st3" d="M272,292.9c0,0-19.7,0.9-36.4,22.9c0,0-5.6-11.9-14.9-13.9c-9.3-2-13,9-13,9s21.7,25.4,29,24.4
					c0,0,11.1-15.8,22-24.7c10.8-8.9,29-14.2,29-14.2L272,292.9z"/>
				<path class="st3" d="M321.3,293.7c0,0,19.7,0.9,36.4,22.9c0,0,5.6-11.9,14.9-13.9c9.3-2,13,9,13,9s-21.7,25.4-29,24.4
					c0,0-11.1-15.8-22-24.7c-10.8-8.9-29-14.2-29-14.2L321.3,293.7z"/>
			</g>
			<g>
				<g>
					<g>
						<path class="st4" d="M306.9,183.4c0,0,10.9-15,12.7-14.7c1.7,0.3,4.1,19.8,4.1,19.8L306.9,183.4z"/>
						<g>
							<g>
								<g>
									<g>
										<path class="st5" d="M311.5,178.2c0,0,0.8,0,1.8,0c0.3,0,0.5,0,0.8,0c0.3,0,0.6,0,1,0.1c0.3,0,0.7,0.1,1,0.2
											c0.4,0.1,0.7,0.2,1.1,0.3c0.3,0.1,0.7,0.3,1,0.4c0.3,0.1,0.6,0.3,0.9,0.5c0.3,0.2,0.6,0.4,0.8,0.5
											c0.3,0.2,0.5,0.4,0.7,0.6c0.4,0.4,0.7,0.7,0.9,0.9c0.2,0.3,0.3,0.4,0.3,0.4s-0.2-0.1-0.5-0.2c-0.3-0.1-0.7-0.3-1.2-0.5
											c-0.2-0.1-0.5-0.2-0.8-0.3c-0.3-0.1-0.6-0.2-0.9-0.3c-0.3-0.1-0.6-0.2-0.9-0.3c-0.3-0.1-0.6-0.2-0.9-0.3
											c-0.3-0.1-0.6-0.2-0.9-0.3c-0.3-0.1-0.6-0.2-0.9-0.3c-0.3-0.1-0.6-0.2-0.9-0.3c-0.3-0.1-0.6-0.2-0.8-0.3
											C312.1,178.6,311.5,178.2,311.5,178.2z"/>
									</g>
								</g>
							</g>
						</g>
						<g>
							<g>
								<g>
									<g>
										<path class="st5" d="M314.6,174.2c0,0,0.4-0.3,1.2-0.4c0.2,0,0.4-0.1,0.6-0.1c0.2,0,0.4,0,0.6,0c0.2,0,0.5,0,0.7,0.1
											c0.2,0,0.5,0.1,0.7,0.2c0.2,0.1,0.5,0.2,0.7,0.3c0.2,0.1,0.4,0.2,0.6,0.3c0.2,0.1,0.4,0.2,0.5,0.4
											c0.2,0.1,0.3,0.3,0.4,0.4c0.3,0.3,0.4,0.6,0.5,0.8c0.1,0.2,0.1,0.3,0.1,0.3s-0.1,0-0.3-0.1c-0.2-0.1-0.5-0.2-0.8-0.3
											c-0.2,0-0.3-0.1-0.5-0.2c-0.2,0-0.4-0.1-0.5-0.2c-0.2-0.1-0.4-0.1-0.6-0.2c-0.2-0.1-0.4-0.1-0.6-0.2
											c-0.2-0.1-0.4-0.1-0.6-0.2c-0.2-0.1-0.4-0.1-0.6-0.2c-0.2-0.1-0.4-0.1-0.6-0.2c-0.2,0-0.3-0.1-0.5-0.2
											C315.1,174.4,314.6,174.2,314.6,174.2z"/>
									</g>
								</g>
							</g>
						</g>
					</g>
					<g>
						<path class="st4" d="M278.3,182.2c0,0-8.1-11.7-10-11.7c-3.7,0-4,16-4,16S273.7,184.2,278.3,182.2z"/>
						<g>
							<g>
								<g>
									<g>
										<path class="st5" d="M264.9,182.2c0,0,0-0.2,0.1-0.5c0.1-0.3,0.3-0.7,0.7-1.1c0.2-0.2,0.4-0.4,0.6-0.6
											c0.3-0.2,0.5-0.4,0.8-0.5c0.3-0.2,0.6-0.3,0.9-0.5c0.3-0.1,0.7-0.2,1-0.4c0.3-0.1,0.7-0.2,1-0.3c0.3-0.1,0.7-0.1,1-0.2
											c0.3-0.1,0.6-0.1,0.9-0.1c0.3,0,0.6,0,0.8,0c0.5,0,0.9,0,1.3,0c0.3,0,0.5,0.1,0.5,0.1s-0.2,0.1-0.4,0.2
											c-0.3,0.1-0.7,0.3-1.1,0.5c-0.2,0.1-0.5,0.2-0.8,0.3c-0.3,0.1-0.6,0.2-0.9,0.3c-0.3,0.1-0.6,0.2-0.9,0.3
											c-0.3,0.1-0.6,0.2-0.9,0.3c-0.3,0.1-0.6,0.2-0.9,0.3c-0.3,0.1-0.6,0.2-0.9,0.3c-0.3,0.1-0.5,0.2-0.8,0.3
											c-0.2,0.1-0.5,0.2-0.7,0.3c-0.4,0.2-0.7,0.5-1,0.7C265,182,264.9,182.2,264.9,182.2z"/>
									</g>
								</g>
							</g>
						</g>
						<g>
							<g>
								<g>
									<g>
										<path class="st5" d="M265.4,176.7c0,0,0.3-0.4,0.8-0.8c0.1-0.1,0.2-0.2,0.4-0.3c0.1-0.1,0.3-0.3,0.5-0.4
											c0.2-0.1,0.4-0.2,0.6-0.3c0.2-0.1,0.4-0.2,0.6-0.3c0.2-0.1,0.5-0.1,0.7-0.2c0.2,0,0.4-0.1,0.7-0.1c0.2,0,0.4,0,0.6,0
											c0.2,0,0.4,0,0.5,0.1c0.3,0,0.6,0.1,0.8,0.1c0.2,0,0.3,0.1,0.3,0.1s-0.1,0.1-0.2,0.2c-0.2,0.1-0.4,0.3-0.7,0.4
											c-0.2,0.1-0.3,0.1-0.5,0.2c-0.2,0.1-0.4,0.1-0.5,0.2c-0.2,0.1-0.4,0.1-0.6,0.2c-0.2,0-0.4,0.1-0.5,0.2
											c-0.2,0.1-0.4,0.1-0.5,0.2c-0.2,0.1-0.4,0.1-0.6,0.2c-0.2,0.1-0.4,0.1-0.5,0.2c-0.2,0.1-0.4,0.1-0.5,0.1
											C265.8,176.7,265.4,176.7,265.4,176.7z"/>
									</g>
								</g>
							</g>
						</g>
					</g>
				</g>
				<g>
					<path class="st1" d="M291,180.5c0,0-6-8.2-9-8.5s0,7,0,7s-15.8,1.8-29.5,13.2c-13.8,11.5-25,28.2-22.8,53.2s26.3,55.2,67,55.7
						s62.5-33.8,63-63.5s-23.2-55-57-58c0,0,3.8-6.5,1.5-7.8S293.8,176.5,291,180.5z"/>
					<path class="st6" d="M290.4,182.8c23.5-1.3,65.8,23.7,65.6,57.9s-32.2,50.4-65,51c-32.8,0.6-55.6-23.6-56.7-54.5
						C233.1,206.4,264.1,184.2,290.4,182.8z"/>
				</g>
				<g>
					<g>
						<path class="st7" d="M264.5,251c8.6-3,18.5,8,29.7,7.3c11-0.7,15.1-10.3,23.6-10s20,13.5,8.2,27c-11.8,13.5-41,16-57.8,4.2
							C256.4,271.2,252.6,255.2,264.5,251z"/>
						<g>
							<path class="st8" d="M271,264.8c0.5,1.2,13.2,4.8,14.8,2.9c0.9-1.2,1.3-6.5,1.4-10.3c-4.4-1.3-8.5-3.6-12.5-5.2
								C273.3,256,270.6,263.8,271,264.8z"/>
							<path class="st8" d="M304.3,268.2c1.5,0.3,13.2-5.2,14-6.7c0.6-1.1-4.4-8.3-6.8-11.5c-4,2.2-7.5,5.9-12.8,7.5
								C300.2,261.3,303.2,267.9,304.3,268.2z"/>
							<path class="st9" d="M296,273.8c-9.2,0.9-16.3,7.1-19.2,10.2c13.4,5,30.3,3.8,41.7-2.7C314.5,278.4,305.3,272.8,296,273.8z"
								/>
						</g>
					</g>
					<g>
						<circle class="st10" cx="292.8" cy="222.9" r="25.5"/>
						<g>
							<defs>
								<circle id="SVGID_1_" cx="301" cy="215" r="14"/>
							</defs>
							<use xlink:href="#SVGID_1_"  style="overflow:visible;fill:#1D1D1B;"/>
							<clipPath id="SVGID_2_">
								<use xlink:href="#SVGID_1_"  style="overflow:visible;"/>
							</clipPath>
							<circle class="st11" cx="295.7" cy="209.8" r="8.7"/>
						</g>
					</g>
					<g>
						<path class="st2" d="M257,215.2c6.4,1.8-1.7,18.2-7.7,15.2S248.9,213,257,215.2z"/>
						<path class="st2" d="M245,207.3c4.3,2.1,9.4-7.3,5.5-9.4S240.7,205.2,245,207.3z"/>
						<path class="st2" d="M260.8,201.1c5.3,5.6,17.6-5.5,12.4-11.8C267.9,183,254,193.9,260.8,201.1z"/>
						<path class="st2" d="M237.9,229.2c5.4-2.2,10.9,13.1,4.1,14.8C235.2,245.6,231.2,231.9,237.9,229.2z"/>
						<path class="st2" d="M334.3,233.3c7.4-2.8,9.8,8.8,2.8,11S328.3,235.5,334.3,233.3z"/>
						<path class="st2" d="M325.5,199c8.2-9.3,25.5,9.5,18.5,17.2S317.6,208,325.5,199z"/>
						<path class="st2" d="M307,187.4c1.2-3.6,13.7-2.1,11.5,4.4S304.7,194.1,307,187.4z"/>
						<path class="st2" d="M348.3,246.8c5.5,1.8,5.8,7.8,0,8.2S345.3,245.8,348.3,246.8z"/>
					</g>
				</g>
			</g>
		</g>
		<g>
			<g>
				<path class="st12" d="M236.1,347.4c0,0-34,15.2-37.2,24s16.2,19.8,36,21.8c0,0-10,7.5-8.8,12.2s12.8-2,12.8-2s-1.2,7.5,2.5,8
					s8.8-6.8,8.8-6.8s-0.8,5.5,3.2,5.5s9.5-12,6-19s-41.2-12-44-16.2s20.2-16.2,20.2-16.2L236.1,347.4z"/>
				<path class="st12" d="M350.9,353.9c0,0,30.5,8.5,31,12.8s-31.8,14-36.5,18.5s-4.8,20.2,3.8,23.8s4.5-6.2,4.5-6.2s12.5,6,15.2,3
					s-3.2-8.2-3.2-8.2s10.6,1.7,11.5-0.5c2-5-11.5-9.5-11.5-9.5s29.8-11.2,31.5-19.5s-30.2-22.2-42.5-26S350.9,353.9,350.9,353.9z"
					/>
				<path class="st13" d="M266.6,404.2c0,0-0.2,25.8-1.2,31.8c-10.5-9-27.2-4.2-28.2,10s37,7,37.8,2s1-33.2,0-39.2
					S266.6,404.2,266.6,404.2z"/>
				<path class="st13" d="M321.6,405.7c0,0,1.2,29.8,1.8,34.8c13-11.3,27.6-4.3,30,2.8c3.2,9.5-0.8,11.2-5.2,12.8
					s-29.9,2.1-32.2-3.4c-1.8-4.5-1.8-34-1-41.1S321.6,405.7,321.6,405.7z"/>
			</g>
			<g>
				<path class="st14" d="M326.8,307.7c0,0,13.6-12.6,15.2-12c1.6,0.7,0.2,20.2,0.2,20.2L326.8,307.7z"/>
				<path class="st14" d="M267.3,305.4c0,0-11-9-12.8-8.5c-3.5,1,0.5,16.5,0.5,16.5S263.4,308.6,267.3,305.4z"/>
				<g>
					<g>
						<g>
							<g>
								<g>
									<path class="st15" d="M332.5,303.1c0,0,0.2-0.1,0.4-0.1c0.3-0.1,0.7-0.2,1.2-0.2c0.3,0,0.5,0,0.8,0c0.3,0,0.6,0.1,0.9,0.2
										c0.3,0.1,0.6,0.2,0.9,0.3c0.3,0.1,0.6,0.3,0.9,0.4c0.3,0.2,0.6,0.3,0.8,0.5c0.3,0.2,0.5,0.4,0.8,0.6
										c0.2,0.2,0.5,0.4,0.6,0.6c0.2,0.2,0.4,0.4,0.5,0.6c0.3,0.4,0.5,0.7,0.7,1c0.1,0.3,0.2,0.4,0.2,0.4s-0.2-0.1-0.4-0.2
										c-0.3-0.1-0.6-0.3-1-0.6c-0.2-0.1-0.4-0.3-0.7-0.4c-0.2-0.1-0.5-0.3-0.7-0.4c-0.2-0.1-0.5-0.3-0.8-0.4
										c-0.2-0.2-0.5-0.3-0.8-0.4c-0.3-0.1-0.5-0.3-0.8-0.4c-0.3-0.1-0.5-0.3-0.8-0.4c-0.3-0.1-0.5-0.2-0.7-0.3
										c-0.2-0.1-0.5-0.2-0.7-0.3C333.2,303.3,332.5,303.1,332.5,303.1z"/>
								</g>
							</g>
						</g>
					</g>
					<g>
						<g>
							<g>
								<g>
									<path class="st15" d="M337,299.4c0,0,0.3-0.2,0.9-0.3c0.1,0,0.3,0,0.4,0c0.2,0,0.3,0,0.5,0c0.2,0,0.3,0.1,0.5,0.1
										c0.2,0.1,0.3,0.1,0.5,0.2c0.2,0.1,0.3,0.2,0.5,0.3c0.2,0.1,0.3,0.2,0.4,0.4c0.1,0.1,0.2,0.3,0.3,0.4
										c0.1,0.1,0.2,0.3,0.2,0.4c0.1,0.3,0.2,0.5,0.2,0.7c0,0.2,0,0.3,0,0.3s-0.1,0-0.2-0.1c-0.2-0.1-0.4-0.2-0.6-0.3l-0.3-0.2
										c-0.1-0.1-0.2-0.1-0.4-0.2c-0.1-0.1-0.2-0.1-0.4-0.2c-0.1-0.1-0.3-0.1-0.4-0.2c-0.1-0.1-0.3-0.1-0.4-0.2
										c-0.1-0.1-0.3-0.1-0.4-0.2c-0.1,0-0.2-0.1-0.4-0.2c-0.1-0.1-0.2-0.1-0.3-0.2C337.4,299.7,337,299.4,337,299.4z"/>
								</g>
							</g>
						</g>
					</g>
					<g>
						<g>
							<g>
								<g>
									<path class="st15" d="M254.4,307.4c0,0,0.1-0.5,0.5-1.2c0.1-0.2,0.2-0.3,0.4-0.5c0.1-0.2,0.3-0.4,0.5-0.5
										c0.2-0.2,0.4-0.3,0.6-0.5c0.2-0.2,0.4-0.3,0.6-0.5c0.2-0.1,0.4-0.3,0.6-0.4c0.2-0.1,0.4-0.2,0.7-0.3
										c0.2-0.1,0.4-0.2,0.6-0.3c0.2-0.1,0.4-0.1,0.6-0.2c0.4-0.1,0.7-0.2,0.9-0.2c0.2,0,0.4,0,0.4,0s-0.1,0.1-0.2,0.3
										c-0.1,0.2-0.4,0.4-0.6,0.7c-0.1,0.1-0.3,0.3-0.5,0.4c-0.2,0.1-0.3,0.3-0.5,0.4c-0.2,0.1-0.4,0.3-0.6,0.4
										c-0.2,0.1-0.4,0.3-0.6,0.4c-0.2,0.1-0.4,0.3-0.6,0.4c-0.2,0.1-0.4,0.2-0.6,0.4c-0.2,0.1-0.4,0.2-0.6,0.3
										c-0.2,0.1-0.3,0.2-0.5,0.3C254.8,307.1,254.4,307.4,254.4,307.4z"/>
								</g>
							</g>
						</g>
					</g>
					<g>
						<g>
							<g>
								<g>
									<path class="st15" d="M253.9,302.4c0,0,0-0.1,0-0.3c0-0.2,0-0.4,0.1-0.7c0.1-0.1,0.1-0.3,0.2-0.4c0.1-0.1,0.2-0.3,0.3-0.4
										c0.1-0.1,0.3-0.3,0.4-0.4c0.1-0.1,0.3-0.2,0.5-0.3c0.2-0.1,0.3-0.2,0.5-0.3c0.2-0.1,0.3-0.1,0.5-0.2
										c0.2-0.1,0.3-0.1,0.5-0.1c0.2,0,0.3,0,0.5,0c0.3,0,0.5,0,0.7,0.1c0.2,0.1,0.3,0.1,0.3,0.1s-0.1,0.1-0.2,0.2
										c-0.1,0.1-0.3,0.3-0.5,0.4c-0.1,0.1-0.2,0.2-0.3,0.2c-0.1,0.1-0.2,0.2-0.4,0.3c-0.1,0.1-0.3,0.2-0.4,0.3
										c-0.1,0.1-0.3,0.2-0.4,0.2c-0.1,0.1-0.3,0.2-0.4,0.2c-0.1,0.1-0.3,0.1-0.4,0.2c-0.1,0.1-0.3,0.1-0.4,0.2
										c-0.1,0.1-0.2,0.1-0.3,0.2C254.2,302.2,253.9,302.4,253.9,302.4z"/>
								</g>
							</g>
						</g>
					</g>
				</g>
			</g>
			<g>
				<g>
					<path class="st12" d="M293.4,298.9c0,0-6-8.2-9-8.5s0,7,0,7s-15.8,1.8-29.5,13.2s-25,28.2-22.8,53.2s26.2,55.2,67,55.8
						s62.5-33.8,63-63.5s-23.2-55-57-58c0,0,3.8-6.5,1.5-7.8S296.1,294.9,293.4,298.9z"/>
					<path class="st16" d="M293.9,301.6c22.7-1.3,63.4,23.9,63.2,58.5s-31.1,50.9-62.7,51.5c-31.7,0.6-53.6-23.8-54.7-55
						C238.7,325.4,268.6,303,293.9,301.6z"/>
					<g>
						<g>
							<g>
								<g>
									<path class="st17" d="M343.4,401.7c0,0,1-1.3,2.4-3.2c0.3-0.5,0.7-1,1.1-1.5c0.4-0.6,0.8-1.1,1.2-1.7
										c0.4-0.6,0.8-1.2,1.3-1.9c0.4-0.6,0.9-1.3,1.3-2c0.4-0.7,0.8-1.3,1.2-2c0.4-0.7,0.8-1.3,1.2-1.9c0.4-0.6,0.7-1.3,1.1-1.8
										c0.3-0.6,0.6-1.1,0.9-1.7c0.6-1,1-1.9,1.3-2.5c0.3-0.6,0.5-1,0.5-1s-0.1,0.4-0.2,1.1c-0.2,0.7-0.4,1.7-0.8,2.8
										c-0.2,0.6-0.4,1.2-0.7,1.8c-0.3,0.6-0.6,1.3-0.9,2c-0.3,0.7-0.7,1.4-1.1,2c-0.4,0.7-0.8,1.4-1.2,2.1
										c-0.4,0.7-0.9,1.3-1.3,2c-0.5,0.6-0.9,1.3-1.4,1.8c-0.5,0.6-0.9,1.1-1.4,1.7c-0.5,0.5-0.9,1-1.3,1.4
										c-0.8,0.9-1.6,1.5-2.1,2C343.7,401.4,343.4,401.7,343.4,401.7z"/>
								</g>
							</g>
						</g>
					</g>
					<g>
						<g>
							<g>
								<g>
									<path class="st17" d="M236.9,381.2c0,0,0.3,0.4,0.7,1.2c0.5,0.8,1.2,1.8,2,3.1c0.4,0.6,0.9,1.3,1.4,2
										c0.5,0.7,1.1,1.5,1.6,2.2c0.6,0.8,1.2,1.6,1.8,2.4c0.6,0.8,1.2,1.6,1.8,2.4c0.6,0.8,1.2,1.6,1.8,2.4
										c0.6,0.8,1.2,1.6,1.8,2.3c0.6,0.7,1.2,1.4,1.8,2c0.6,0.6,1.2,1.1,1.8,1.6c1.2,0.9,2.2,1.8,2.9,2.4c0.6,0.7,0.9,1.1,0.9,1.1
										s-0.4-0.4-1.1-0.9c-0.7-0.5-1.8-1.1-3.2-1.9c-0.7-0.4-1.4-0.9-2.1-1.5c-0.7-0.6-1.4-1.3-2-2c-0.7-0.7-1.3-1.5-2-2.3
										c-0.6-0.8-1.3-1.6-1.9-2.4c-0.6-0.8-1.2-1.7-1.8-2.5c-0.6-0.8-1.1-1.7-1.7-2.5c-0.5-0.8-1-1.6-1.5-2.4
										c-0.5-0.8-0.9-1.5-1.2-2.2c-0.7-1.4-1.2-2.6-1.6-3.4C237,381.7,236.9,381.2,236.9,381.2z"/>
								</g>
							</g>
						</g>
					</g>
				</g>
				<g>
					<g>
						<path class="st7" d="M266.9,369.4c8.6-3,18.5,8,29.7,7.3c11-0.7,15.1-10.3,23.6-10s20,13.5,8.2,27c-11.8,13.5-41,16-57.8,4.2
							C258.7,389.6,254.9,373.6,266.9,369.4z"/>
						<g>
							<path class="st8" d="M273.4,383.2c0.5,1.2,13.2,4.8,14.8,2.9c0.9-1.2,1.3-6.5,1.4-10.3c-4.4-1.3-8.5-3.6-12.5-5.2
								C275.7,374.4,273,382.2,273.4,383.2z"/>
							<path class="st8" d="M306.6,386.6c1.5,0.3,13.2-5.2,14-6.7c0.6-1.1-4.4-8.3-6.8-11.5c-4,2.2-7.5,5.9-12.8,7.5
								C302.6,379.7,305.5,386.3,306.6,386.6z"/>
							<path class="st9" d="M298.4,392.2c-9.2,0.9-16.3,7.1-19.2,10.2c13.4,5,30.3,3.8,41.7-2.7
								C316.9,396.8,307.6,391.2,298.4,392.2z"/>
						</g>
					</g>
					<g>
						<circle class="st10" cx="295.1" cy="341.3" r="25.5"/>
						<g>
							<defs>
								<path id="SVGID_3_" d="M300,333.4c-0.1,7.7-6.3,14-14,14c-7.7,0-14-6.3-14-14c0-7.7,6.3-14,14-14
									C293.8,319.5,300.1,325.8,300,333.4z"/>
							</defs>
							<use xlink:href="#SVGID_3_"  style="overflow:visible;fill:#1D1D1B;"/>
							<clipPath id="SVGID_4_">
								<use xlink:href="#SVGID_3_"  style="overflow:visible;"/>
							</clipPath>
							<circle class="st18" cx="280.8" cy="328.2" r="8.7"/>
						</g>
					</g>
					<g>
						<path class="st19" d="M249.5,323.4c6.3-2.4,9.5,15.7,2.9,16.8C245.7,341.4,241.6,326.4,249.5,323.4z"/>
						<path class="st19" d="M238.6,352.1c4.3,2.1,9.4-7.3,5.5-9.4C240.2,340.6,234.3,350,238.6,352.1z"/>
						<path class="st19" d="M263.1,319.5c5.3,5.6,17.6-5.5,12.4-11.8C270.3,301.4,256.4,312.3,263.1,319.5z"/>
						<path class="st19" d="M246.1,359.2c7,0,6.3,16.2-2.1,15.2S237.3,359.2,246.1,359.2z"/>
						<path class="st19" d="M336.6,351.7c7.4-2.8,9.8,8.8,2.8,11S330.6,353.9,336.6,351.7z"/>
						<path class="st19" d="M327.9,317.4c8.2-9.3,25.5,9.5,18.5,17.2S319.9,326.4,327.9,317.4z"/>
						<path class="st19" d="M352,338.3c5.5,1.8,5.8,7.8,0,8.2S349.1,337.4,352,338.3z"/>
						<path class="st19" d="M309.4,305.8c1.2-3.6,13.7-2.1,11.5,4.4S307,312.5,309.4,305.8z"/>
					</g>
				</g>
			</g>
		</g>
	</g>
</g>
</svg>
