<?xml version="1.0" encoding="utf-8"?>
<!-- Generator: Adobe Illustrator 22.0.0, SVG Export Plug-In . SVG Version: 6.00 Build 0)  -->
<svg version="1.1" id="Layer_1" xmlns="http://www.w3.org/2000/svg" xmlns:xlink="http://www.w3.org/1999/xlink" x="0px" y="0px"
	 viewBox="0 0 600 600" style="enable-background:new 0 0 600 600;" xml:space="preserve">
<style type="text/css">
	.st0{opacity:0.23;fill:#045495;}
	.st1{fill:#8A1E80;}
	.st2{fill:#F22A9D;}
	.st3{fill:#FF3EB6;}
	.st4{fill:#B20F80;}
	.st5{fill:#490808;}
	.st6{fill:#FFFCC5;}
	.st7{fill:#FFDA04;}
	.st8{clip-path:url(#SVGID_2_);fill:#FFFFFF;}
	.st9{clip-path:url(#SVGID_4_);fill:#FFFFFF;}
	.st10{clip-path:url(#SVGID_6_);fill:#FFFFFF;}
</style>
<g>
	<ellipse class="st0" cx="302.8" cy="443.3" rx="95" ry="15.3"/>
	<g>
		<g>
			<path class="st1" d="M239,229.3c0,0-16.8,3.8-26.5-13.2c-9.7-17-6.8-27.7,1-39.3c0,0-12.8-14.8-34-1.5s-14.8,41-14.8,41
				s14.3-17.5,25.8-9.8c11.5,7.7,0.3,31.5,0.3,31.5s26.3-14.6,34.3,14c0,0,2.7-12.5,15.5-14L239,229.3z"/>
			<path class="st1" d="M357.5,227.8c0,0,22.5,2,29-14.2s-3.8-29.7-10-36c0,0,12.7-19.3,39.2-15.8s26.2,48.7,26.2,48.7
				c-13.1-13.4-20-15-22.7-14.3c-9.2,2.3-3.3,32.3-3.3,33.2c-17.2-9.7-34.5-6.6-35,16.3c-12.3-12.7-19.2-11.3-23.3-7.5V227.8z"/>
		</g>
		<g>
			<g>
				<g>
					<g>
						<g>
							<g>
								<path class="st1" d="M294.3,169c0,0,0-0.1,0.1-0.4c0.1-0.2,0.1-0.6,0.1-1c0-0.9-0.2-2.1-0.5-3.6c-0.2-0.7-0.4-1.5-0.6-2.3
									c-0.2-0.8-0.6-1.7-0.8-2.6c-0.3-0.9-0.6-1.8-1-2.7c-0.3-0.9-0.7-1.8-1.1-2.7c-0.4-0.9-0.8-1.8-1.3-2.6
									c-0.5-0.8-0.9-1.6-1.4-2.4c-0.5-0.7-1-1.4-1.5-2.1c-0.5-0.6-1-1.2-1.6-1.7c-1.1-0.9-2.1-1.6-2.9-2c-0.4-0.2-0.8-0.3-1-0.4
									c-0.2-0.1-0.4-0.1-0.4-0.1s0.1,0,0.4-0.1c0.3,0,0.6-0.2,1.1-0.2c1-0.1,2.5,0,4.1,0.7c0.8,0.3,1.7,0.8,2.5,1.4
									c0.8,0.6,1.6,1.3,2.3,2.1c0.7,0.8,1.4,1.7,2,2.6c0.6,1,1.1,2,1.6,3c0.4,1,0.8,2.1,1.1,3.1c0.3,1.1,0.5,2.1,0.7,3.1
									c0.2,1,0.2,2,0.3,3c0.1,1,0,1.9-0.1,2.7c-0.2,1.7-0.6,3.1-1.1,3.9c-0.2,0.4-0.5,0.8-0.7,0.9
									C294.4,168.9,294.3,169,294.3,169z"/>
							</g>
						</g>
					</g>
				</g>
				<g>
					<g>
						<g>
							<g>
								<path class="st1" d="M300.4,164.7c0,0-0.2-0.3-0.4-0.8c-0.1-0.3-0.2-0.6-0.3-0.9c-0.1-0.4-0.2-0.8-0.2-1.3
									c0-0.5,0-1,0.1-1.5c0.1-0.5,0.2-1.1,0.4-1.7c0.2-0.5,0.5-1.1,0.8-1.7c0.3-0.5,0.7-1,1.1-1.6c0.5-0.5,0.9-0.9,1.4-1.3
									c0.5-0.4,1-0.7,1.6-1c0.5-0.3,1.1-0.5,1.6-0.6c0.5-0.1,1-0.3,1.5-0.3c0.5,0,0.9,0,1.3,0c0.4,0.1,0.7,0.1,1,0.2
									c0.5,0.2,0.8,0.4,0.8,0.4s-0.2,0.2-0.7,0.5c-0.2,0.1-0.5,0.3-0.7,0.6c-0.3,0.2-0.5,0.4-0.8,0.7c-0.3,0.2-0.6,0.5-0.9,0.8
									c-0.3,0.3-0.6,0.6-0.9,0.9c-0.3,0.3-0.6,0.6-0.9,1c-0.3,0.3-0.6,0.7-0.9,1c-0.3,0.3-0.6,0.7-0.9,1c-0.3,0.3-0.6,0.7-0.9,1
									c-0.2,0.4-0.6,0.7-0.8,1.1c-0.2,0.4-0.5,0.7-0.7,1c-0.2,0.3-0.4,0.6-0.6,0.9c-0.2,0.3-0.4,0.5-0.5,0.8
									C300.5,164.4,300.4,164.7,300.4,164.7z"/>
							</g>
						</g>
					</g>
				</g>
			</g>
			<g>
				<g>
					<path class="st2" d="M248.7,313.1c0,0-10.7,29.3,0,56.6c0,0,11.1,5.4,13.2,19.7c2.1,14.3-1.9,18-4.2,18.3
						c-2.3,0.3-4.5-10.7-4.5-10.7s-4.5,13-10.9,10.7c-6.3-2.3-1.9-10.7-1.9-10.7s-12.5,10.3-17.1,5.3s6.3-13,6.3-13
						s-9.9-16.3,7.8-19.7c0,0-10.7-39.1,6.6-74.9S248.7,313.1,248.7,313.1z"/>
					<path class="st2" d="M245.3,369.8c0,0,24-0.3,26.5,5.7c2.5,6-15.7,8.3-15.7,8.3L245.3,369.8z"/>
				</g>
				<g>
					<path class="st2" d="M350.4,306.1c0,0,13.6,33.9,2.1,61.8c0,0-11.4,9.6-8.1,21.6c3.3,12,12.6,14.6,14.5,13
						c1.8-1.7-0.4-10.7-1.3-14.7c0,0,9.7,11.7,16.4,9.3c6.7-2.3-3-14-3-14s15.6,7.3,17.3,2.3s-14.3-11-14.3-11s-2.6-9.7-9.3-10.7
						c0,0,11.2-28.3-4.5-69.5L350.4,306.1z"/>
					<path class="st2" d="M353.3,365.8c0,0-20.9,5.2-21.2,12.1s14.8,4.2,14.8,4.2S359.2,372.4,353.3,365.8z"/>
				</g>
			</g>
			<g>
				<g>
					<path class="st2" d="M300.4,161.8c38.3,0,57.7,19.3,60.7,72s8,111.7-53.8,117.7s-67.7-47-68.8-78.4
						C237.4,241.8,227.4,161.8,300.4,161.8z"/>
					<path class="st3" d="M300.5,176.6c34.5,0,51.8,17.4,54.5,64.7s7.2,100.4-48.4,105.8c-55.6,5.4-60.9-42.3-61.8-70.4
						C243.9,248.5,234.9,176.6,300.5,176.6z"/>
				</g>
				<g>
					<path class="st4" d="M249.3,269.1c-0.8-1.8-7.3-4.4-11.4-6c0.2,3.7,0.4,7,0.5,9.9c0,0.9,0.1,1.8,0.1,2.8
						C247.3,272.7,249.3,269.1,249.3,269.1z"/>
					<path class="st4" d="M257.2,245.6c0,0-10.3-6.7-19.8-6.7c-0.1,4.3,0,8.5,0.1,12.5C242.8,250.4,255.6,247.7,257.2,245.6z"/>
					<path class="st4" d="M258.9,226.6c0,0-9.7-7.1-19.5-10.4c-0.7,4.3-1.2,8.6-1.5,12.9C242.9,229.9,252.6,230.8,258.9,226.6z"/>
					<path class="st4" d="M264.7,207.9c0,0-6.9-12.7-16.1-19.5c-2.7,4.6-4.7,9.7-6.3,15C246.7,205.4,255.7,209,264.7,207.9z"/>
					<path class="st4" d="M280.4,193.3c0,0-0.2-16.9-4.1-27.8c-7.6,2.6-13.7,6.5-18.7,11.4C261.6,181.2,271.2,190.7,280.4,193.3z"/>
					<path class="st4" d="M315.2,162.9c-4.6-0.8-9.5-1.2-14.9-1.2c-3.4,0-6.6,0.2-9.6,0.5c1.2,5.9,4.4,20.4,9.3,31
						C300,193.3,310.4,178.1,315.2,162.9z"/>
					<path class="st4" d="M345.4,179.8c-5.2-6.6-11.8-11.2-19.7-14.1c-2.3,4.7-5.8,13.4-7,24.4C318.7,190.1,336,185,345.4,179.8z"/>
					<path class="st4" d="M331.9,201.8c0,0,15.2,2.2,24.5,0.9c-1.8-6.4-4.1-12-6.8-16.8C345,188.5,336.8,194.2,331.9,201.8z"/>
					<path class="st4" d="M360.6,227.7c-0.6-6.6-1.4-12.6-2.6-18.1c-4.5,1.9-15.2,6.6-21.5,12C336.5,221.6,349.9,227.2,360.6,227.7z
						"/>
					<path class="st4" d="M342.4,243.2c0,0,9.2,5.7,19.6,7.5c-0.2-5-0.5-10-0.8-14.9l0,0C361.1,235.9,346.4,239.7,342.4,243.2z"/>
					<path class="st4" d="M362.6,269.3c0-3.8-0.1-7.6-0.3-11.5c-3.5,0.4-10.8,1.6-15.5,4.1C346.8,261.9,352.4,268.1,362.6,269.3z"/>
				</g>
			</g>
		</g>
		<g>
			<g>
				<path class="st5" d="M278.4,306.8c9-0.7,10.6,8.6,19.5,8c8.9-0.6,12.2-8,19.5-8c7.3,0,11.5,30-19.2,30S270,307.4,278.4,306.8z"
					/>
				<g>
					<path class="st6" d="M287.7,310.4c-2.1-1.7-4.3-3.4-7.6-3.6c0.1,1.9,0.4,4,1.5,5C283,312.9,285.6,311.7,287.7,310.4z"/>
					<path class="st6" d="M292.7,318.9c2.7,1,4.6-1.8,5.6-4.3c-0.2,0-0.3,0-0.5,0.1c-3.2,0.2-5.5-0.8-7.5-2.3
						C290.2,314.8,290.4,318.1,292.7,318.9z"/>
					<path class="st6" d="M306.7,317.9c2-0.7,1.8-5,1.6-7.5c-2.1,1.4-4.3,2.9-7,3.7C302.6,316,304.9,318.6,306.7,317.9z"/>
					<path class="st6" d="M314.2,313.1c1.7-0.5,2.5-3.9,2.9-6.3c-2.9,0.1-5.2,1.3-7.6,2.8C310.7,311.4,312.6,313.6,314.2,313.1z"/>
					<path class="st6" d="M284,326.3c-1.6-0.8-5,1.1-7,2.4c1.9,2.3,4.5,4.3,8,5.8C285.4,331.5,285.6,327,284,326.3z"/>
					<path class="st6" d="M293,329.6c-2.3,0.2-3.9,3.6-4.8,5.9c2.5,0.7,5.4,1.1,8.7,1.2C296.7,334.6,295.8,329.3,293,329.6z"/>
					<path class="st6" d="M305.7,329.6c-2.2,0.8-3.4,5-3.8,7c3.6-0.3,6.6-1.1,9.2-2.2C310,332.4,307.8,328.8,305.7,329.6z"/>
					<path class="st6" d="M321.3,324.1c-1.9-1.3-5.4-3.2-6.9-1.3c-1.6,2-0.1,6.9,0.8,9.3C318.2,329.9,320.1,327,321.3,324.1z"/>
				</g>
			</g>
			<g>
				<g>
					<circle class="st7" cx="267.7" cy="283.6" r="18.3"/>
					<g>
						<defs>
							<circle id="SVGID_1_" cx="262.8" cy="277.9" r="10.8"/>
						</defs>
						<use xlink:href="#SVGID_1_"  style="overflow:visible;fill:#1D1D1B;"/>
						<clipPath id="SVGID_2_">
							<use xlink:href="#SVGID_1_"  style="overflow:visible;"/>
						</clipPath>
						<circle class="st8" cx="266.3" cy="273.1" r="7.3"/>
					</g>
				</g>
				<g>
					<circle class="st7" cx="328.5" cy="283.6" r="18.3"/>
					<g>
						<defs>
							<circle id="SVGID_3_" cx="334.4" cy="279.2" r="10.8"/>
						</defs>
						<use xlink:href="#SVGID_3_"  style="overflow:visible;fill:#1D1D1B;"/>
						<clipPath id="SVGID_4_">
							<use xlink:href="#SVGID_3_"  style="overflow:visible;"/>
						</clipPath>
						<circle class="st9" cx="337.9" cy="274.3" r="7.3"/>
					</g>
				</g>
				<g>
					<circle class="st7" cx="297" cy="243.2" r="16.7"/>
					<g>
						<defs>
							<circle id="SVGID_5_" cx="301.8" cy="237.5" r="9.8"/>
						</defs>
						<use xlink:href="#SVGID_5_"  style="overflow:visible;fill:#1D1D1B;"/>
						<clipPath id="SVGID_6_">
							<use xlink:href="#SVGID_5_"  style="overflow:visible;"/>
						</clipPath>
						<circle class="st10" cx="305" cy="233.1" r="6.7"/>
					</g>
				</g>
			</g>
		</g>
	</g>
</g>
</svg>
