<?xml version="1.0" encoding="utf-8"?>
<!-- Generator: Adobe Illustrator 22.0.0, SVG Export Plug-In . SVG Version: 6.00 Build 0)  -->
<svg version="1.1" id="Layer_1" xmlns="http://www.w3.org/2000/svg" xmlns:xlink="http://www.w3.org/1999/xlink" x="0px" y="0px"
	 viewBox="0 0 600 600" style="enable-background:new 0 0 600 600;" xml:space="preserve">
<style type="text/css">
	.st0{opacity:0.23;fill:#045495;}
	.st1{fill:#FFB600;}
	.st2{fill:#FF9100;}
	.st3{fill:#8A1E80;}
	.st4{fill:#1EC1C1;}
	.st5{fill:#08A09C;}
	.st6{fill:#1BE0DB;}
	.st7{fill:#FAEB69;}
	.st8{fill:#1D1D1B;}
	.st9{fill:#FFFFFF;}
	.st10{fill:#00595B;}
	.st11{opacity:0.51;fill:#D45614;}
</style>
<g>
	<ellipse class="st0" cx="291.2" cy="444.3" rx="95" ry="15.3"/>
	<g>
		<g>
			<g>
				<path class="st1" d="M257.7,215c0,0-19.5-5.8-22.3-15.4s4.8-21.8,4.8-21.8s11.8,7.9,18.8,2.3c7-5.7,7.9-16.8,3.2-18.8
					c-4.8-2-8.9,6.4-11.1,8.3c-2.3,1.9-7.5,0-7.5,0s10.4-15.1,4.3-20.6c-6.1-5.4-14.3-1.4-19.1,4.3c-4.8,5.7-9.5,22-9.5,22
					s-5.9-2.3-5.9-7.9s2.5-13.6-3.9-15.2c-6.4-1.6-10.2,9.9-9.3,17.8c0.9,7.9,6.8,14.4,16.6,14.6c0,0-2.5,12.1,3.2,20.5
					c5.7,8.4,25.7,19.3,34.1,18.6S257.7,215,257.7,215z"/>
				<g>
					<g>
						<g>
							<g>
								<g>
									<path class="st2" d="M231.5,151.4c0,0,1.2-0.2,3-0.3c0.5,0,0.9,0,1.5,0c0.5,0,1.1,0,1.6,0.1c0.6,0.1,1.2,0.1,1.8,0.2
										c0.6,0.1,1.2,0.3,1.8,0.4c0.6,0.2,1.2,0.4,1.7,0.7c0.6,0.2,1.1,0.6,1.6,0.9c0.5,0.3,1,0.7,1.3,1.1c0.2,0.2,0.4,0.4,0.6,0.5
										c0.2,0.2,0.3,0.4,0.5,0.6c0.3,0.3,0.5,0.7,0.7,1c0.2,0.3,0.3,0.6,0.4,0.9c0.2,0.5,0.3,0.8,0.3,0.8s-0.2-0.2-0.6-0.6
										c-0.2-0.2-0.4-0.4-0.6-0.7c-0.3-0.2-0.5-0.5-0.9-0.8c-0.2-0.1-0.3-0.3-0.5-0.4c-0.2-0.1-0.4-0.3-0.6-0.4
										c-0.4-0.3-0.9-0.5-1.3-0.8c-0.5-0.2-1-0.5-1.5-0.7c-0.5-0.2-1.1-0.4-1.6-0.6c-0.6-0.2-1.1-0.3-1.7-0.4
										c-0.5-0.2-1.1-0.3-1.6-0.4c-0.5-0.1-1.1-0.2-1.6-0.3c-0.5-0.1-1-0.2-1.4-0.2C232.7,151.6,231.5,151.4,231.5,151.4z"/>
								</g>
							</g>
						</g>
					</g>
					<g>
						<g>
							<g>
								<g>
									<path class="st2" d="M226.1,160.9c0,0,0.3-0.1,0.8-0.2c0.5-0.1,1.3-0.2,2.2-0.3c0.5,0,1,0,1.5,0c0.5,0.1,1.1,0.1,1.6,0.2
										c0.6,0.1,1.1,0.2,1.7,0.4c0.6,0.1,1.2,0.4,1.7,0.5c0.6,0.2,1.1,0.4,1.7,0.7c0.6,0.2,1.1,0.5,1.6,0.8c0.5,0.3,1,0.6,1.4,0.9
										c0.4,0.3,0.8,0.6,1.1,0.9c0.7,0.6,1.2,1.2,1.5,1.6c0.3,0.4,0.5,0.7,0.5,0.7s-0.2-0.2-0.7-0.5c-0.4-0.3-1-0.7-1.8-1.2
										c-0.4-0.2-0.8-0.4-1.2-0.7c-0.4-0.2-0.9-0.5-1.4-0.7c-0.5-0.2-1-0.5-1.5-0.7c-0.5-0.2-1.1-0.4-1.6-0.6
										c-0.5-0.2-1.1-0.4-1.6-0.6c-0.5-0.2-1.1-0.3-1.6-0.5c-0.5-0.1-1-0.3-1.5-0.4c-0.5-0.1-0.9-0.2-1.4-0.3
										c-0.9-0.2-1.6-0.2-2.1-0.3C226.4,160.9,226.1,160.9,226.1,160.9z"/>
								</g>
							</g>
						</g>
					</g>
					<g>
						<g>
							<g>
								<g>
									<path class="st2" d="M221.8,171.1c0,0,0.3-0.1,0.8-0.1c0.5-0.1,1.3-0.1,2.1-0.1c0.4,0,0.9,0,1.4,0.1
										c0.5,0.1,1.1,0.1,1.6,0.3c0.5,0.1,1.1,0.3,1.7,0.5c0.5,0.2,1.1,0.5,1.6,0.7c0.5,0.3,1,0.5,1.6,0.8c0.5,0.3,1,0.6,1.5,0.9
										c0.5,0.3,0.9,0.6,1.3,0.9c0.4,0.3,0.8,0.6,1.1,1c0.6,0.6,1.1,1.3,1.3,1.7c0.1,0.2,0.2,0.4,0.2,0.6c0,0.1,0.1,0.2,0.1,0.2
										s0-0.1-0.1-0.2c-0.1-0.1-0.2-0.3-0.4-0.4c-0.4-0.3-0.9-0.8-1.6-1.2c-0.4-0.2-0.8-0.5-1.2-0.7c-0.4-0.2-0.9-0.5-1.3-0.7
										c-0.5-0.2-1-0.5-1.5-0.8c-0.5-0.3-1-0.5-1.5-0.8c-0.5-0.3-1-0.5-1.5-0.7c-0.5-0.2-1-0.4-1.5-0.6c-0.5-0.2-1-0.3-1.4-0.5
										c-0.5-0.1-0.9-0.2-1.3-0.3c-0.8-0.2-1.6-0.3-2.1-0.4C222.1,171.2,221.8,171.1,221.8,171.1z"/>
								</g>
							</g>
						</g>
					</g>
					<g>
						<g>
							<g>
								<g>
									<path class="st2" d="M217.5,186.1c0,0,0.3-0.1,0.7-0.3c0.4-0.2,1.1-0.4,2-0.6c0.4-0.1,0.9-0.1,1.4-0.2c0.5,0,1-0.1,1.5,0
										c0.5,0,1.1,0.1,1.6,0.2c0.6,0.1,1.1,0.2,1.7,0.3c0.5,0.2,1.1,0.3,1.6,0.5c0.5,0.2,1,0.4,1.5,0.7c0.5,0.2,0.9,0.5,1.3,0.8
										c0.4,0.3,0.8,0.5,1.1,0.8c0.7,0.5,1.1,1.1,1.4,1.5c0.3,0.4,0.4,0.6,0.4,0.6s-0.2-0.2-0.6-0.4c-0.4-0.3-1-0.6-1.7-1
										c-0.3-0.2-0.7-0.4-1.1-0.6c-0.4-0.2-0.9-0.4-1.3-0.6c-0.5-0.2-0.9-0.3-1.4-0.5c-0.5-0.2-1-0.3-1.5-0.5
										c-0.5-0.1-1-0.3-1.5-0.4c-0.5-0.1-1-0.2-1.5-0.3c-0.5-0.1-1-0.1-1.4-0.2c-0.5,0-0.9-0.1-1.3-0.1c-0.8,0-1.5,0-1.9,0
										C217.7,186.1,217.5,186.1,217.5,186.1z"/>
								</g>
							</g>
						</g>
					</g>
					<g>
						<g>
							<g>
								<g>
									<path class="st2" d="M217.9,197.5c0,0,0.9-0.5,2.3-1c0.3-0.1,0.7-0.3,1.1-0.4c0.4-0.1,0.8-0.3,1.3-0.4
										c0.5-0.1,0.9-0.2,1.4-0.3c0.5-0.1,1-0.2,1.5-0.2c0.5,0,1-0.1,1.5-0.1c0.5,0,1,0,1.5,0c0.5,0.1,0.9,0.1,1.4,0.2
										c0.4,0.1,0.8,0.2,1.2,0.3c0.7,0.2,1.3,0.5,1.7,0.7c0.4,0.2,0.6,0.3,0.6,0.3s-0.2,0-0.7-0.1c-0.4-0.1-1-0.1-1.8-0.1
										c-0.4,0-0.7,0-1.2,0c-0.4,0-0.8,0-1.3,0c-0.4,0-0.9,0.1-1.4,0.1c-0.5,0-0.9,0.1-1.4,0.1c-0.5,0.1-1,0.1-1.4,0.2
										c-0.5,0-0.9,0.1-1.4,0.2c-0.4,0.1-0.9,0.1-1.3,0.2c-0.4,0.1-0.8,0.1-1.2,0.2C218.9,197.4,217.9,197.5,217.9,197.5z"/>
								</g>
							</g>
						</g>
					</g>
					<g>
						<g>
							<g>
								<g>
									<path class="st2" d="M226.3,209.7c0,0,0-0.2,0-0.6c0-0.4,0.1-0.9,0.4-1.4c0.1-0.3,0.3-0.6,0.5-0.9c0.2-0.3,0.4-0.6,0.7-0.9
										c0.2-0.3,0.5-0.6,0.8-0.8c0.3-0.3,0.6-0.5,0.9-0.7c0.3-0.2,0.7-0.4,1-0.6c0.3-0.2,0.7-0.4,1.1-0.5c0.3-0.2,0.7-0.2,1-0.3
										c0.3-0.1,0.7-0.1,1-0.2c0.6-0.1,1.1,0,1.5,0.1c0.3,0.1,0.5,0.2,0.5,0.2s-0.2,0-0.5,0.1c-0.3,0.1-0.8,0.2-1.3,0.4
										c-0.3,0.1-0.5,0.2-0.8,0.4c-0.3,0.2-0.6,0.3-0.9,0.5c-0.3,0.2-0.6,0.4-0.9,0.5c-0.3,0.2-0.6,0.4-0.9,0.6
										c-0.3,0.2-0.6,0.4-0.9,0.6c-0.3,0.2-0.6,0.4-0.8,0.6c-0.3,0.2-0.5,0.4-0.7,0.6c-0.2,0.2-0.4,0.4-0.6,0.6
										c-0.4,0.4-0.6,0.8-0.8,1.1C226.4,209.6,226.3,209.7,226.3,209.7z"/>
								</g>
							</g>
						</g>
					</g>
					<g>
						<g>
							<g>
								<g>
									<path class="st2" d="M235.4,216.5c0,0,0-0.2,0-0.5c0-0.3,0-0.7,0.1-1.2c0-0.2,0.1-0.5,0.2-0.8c0.1-0.3,0.2-0.6,0.3-0.8
										c0.1-0.3,0.3-0.6,0.5-0.8c0.2-0.3,0.4-0.5,0.6-0.8c0.2-0.2,0.4-0.5,0.6-0.7c0.2-0.2,0.5-0.4,0.7-0.6
										c0.2-0.2,0.5-0.4,0.7-0.5c0.2-0.2,0.4-0.3,0.6-0.4c0.4-0.3,0.8-0.4,1-0.5c0.3-0.1,0.4-0.2,0.4-0.2s-0.1,0.1-0.2,0.4
										c-0.2,0.2-0.4,0.6-0.7,1c-0.1,0.2-0.3,0.4-0.5,0.6c-0.2,0.2-0.3,0.4-0.5,0.6c-0.2,0.2-0.4,0.4-0.6,0.7
										c-0.2,0.2-0.4,0.5-0.6,0.7c-0.2,0.2-0.4,0.5-0.5,0.7c-0.2,0.2-0.3,0.5-0.5,0.7c-0.1,0.2-0.3,0.4-0.5,0.7
										c-0.1,0.2-0.3,0.4-0.4,0.6C235.7,216,235.4,216.5,235.4,216.5z"/>
								</g>
							</g>
						</g>
					</g>
					<g>
						<g>
							<g>
								<g>
									<path class="st2" d="M246.3,221.1c0,0-0.2-0.5-0.1-1.3c0-0.2,0-0.4,0.1-0.6c0-0.2,0.1-0.5,0.2-0.7c0.1-0.2,0.2-0.5,0.3-0.7
										c0.1-0.2,0.2-0.5,0.4-0.7c0.1-0.2,0.3-0.4,0.4-0.6c0.1-0.2,0.3-0.4,0.5-0.6c0.2-0.2,0.3-0.3,0.5-0.5
										c0.2-0.2,0.3-0.3,0.5-0.4c0.3-0.2,0.6-0.4,0.8-0.5c0.2-0.1,0.3-0.2,0.3-0.2s0,0.1-0.1,0.4c-0.1,0.2-0.2,0.5-0.3,0.9
										c-0.1,0.2-0.2,0.4-0.2,0.5c-0.1,0.2-0.2,0.4-0.3,0.6c-0.1,0.2-0.2,0.4-0.3,0.6c-0.1,0.2-0.2,0.4-0.4,0.6
										c-0.1,0.2-0.2,0.4-0.4,0.6c-0.1,0.2-0.2,0.4-0.4,0.6c-0.1,0.2-0.2,0.4-0.3,0.5c-0.1,0.2-0.2,0.3-0.3,0.5
										C246.6,220.6,246.3,221.1,246.3,221.1z"/>
								</g>
							</g>
						</g>
					</g>
					<g>
						<g>
							<g>
								<g>
									<path class="st2" d="M215,172.5c0,0-0.2,0-0.5,0.1c-0.2,0-0.4,0.1-0.6,0.2c-0.2,0.1-0.5,0.2-0.7,0.3
										c-0.3,0.1-0.5,0.3-0.7,0.5c-0.3,0.2-0.5,0.4-0.7,0.6c-0.2,0.2-0.5,0.5-0.7,0.8c-0.2,0.3-0.4,0.6-0.7,0.9
										c-0.2,0.3-0.4,0.6-0.6,0.9c-0.2,0.3-0.4,0.6-0.5,1c-0.2,0.3-0.3,0.6-0.5,0.9c-0.1,0.3-0.3,0.6-0.4,0.9
										c-0.2,0.5-0.4,1-0.5,1.3c-0.1,0.3-0.2,0.5-0.2,0.5s0-0.2-0.1-0.6c0-0.4-0.1-0.9,0-1.5c0-0.3,0.1-0.6,0.2-1
										c0.1-0.3,0.2-0.7,0.3-1.1c0.1-0.4,0.3-0.7,0.5-1.1c0.2-0.4,0.4-0.7,0.6-1.1c0.3-0.3,0.5-0.7,0.8-1c0.3-0.3,0.6-0.6,0.9-0.8
										c0.3-0.2,0.7-0.4,1-0.6c0.3-0.1,0.7-0.3,1-0.3C214.2,172.1,215,172.5,215,172.5z"/>
								</g>
							</g>
						</g>
					</g>
					<g>
						<g>
							<g>
								<g>
									<path class="st2" d="M200.7,170.5c0,0,0.1-0.2,0.2-0.6c0.2-0.4,0.5-0.9,0.9-1.4c0.2-0.3,0.5-0.6,0.8-0.8
										c0.3-0.3,0.6-0.6,1-0.8c0.4-0.3,0.7-0.5,1.1-0.8c0.4-0.2,0.8-0.4,1.3-0.6c0.4-0.2,0.9-0.3,1.3-0.5c0.5-0.1,0.9-0.2,1.4-0.2
										c0.4-0.1,0.9,0,1.3,0c0.4,0.1,0.8,0.2,1.2,0.4c0.3,0.2,0.6,0.3,0.8,0.6c0.2,0.2,0.4,0.4,0.5,0.6c0.2,0.4,0.3,0.6,0.3,0.6
										s-0.2-0.1-0.5-0.4c-0.1-0.1-0.4-0.2-0.6-0.3c-0.2-0.1-0.5-0.2-0.8-0.2c-0.3-0.1-0.6,0-1-0.1c-0.4,0.1-0.7,0.1-1.1,0.2
										c-0.4,0.1-0.8,0.2-1.2,0.3c-0.4,0.1-0.8,0.3-1.2,0.4c-0.4,0.2-0.8,0.3-1.1,0.5c-0.4,0.2-0.7,0.4-1.1,0.6
										c-0.4,0.2-0.7,0.4-1,0.6c-0.3,0.2-0.6,0.4-0.9,0.6c-0.5,0.4-0.9,0.7-1.2,1C200.8,170.3,200.7,170.5,200.7,170.5z"/>
								</g>
							</g>
						</g>
					</g>
					<g>
						<g>
							<g>
								<g>
									<path class="st2" d="M202.2,157.5c0,0,0.6-0.4,1.7-0.8c0.3-0.1,0.6-0.2,0.9-0.2c0.3-0.1,0.6-0.1,1-0.2
										c0.3,0,0.7-0.1,1.1-0.1c0.4,0,0.8,0,1.1,0.1c0.4,0.1,0.8,0.1,1.1,0.2c0.4,0.1,0.7,0.3,1,0.4c0.3,0.2,0.6,0.3,0.9,0.6
										c0.3,0.2,0.5,0.4,0.7,0.6c0.2,0.2,0.4,0.4,0.5,0.6c0.1,0.2,0.2,0.4,0.3,0.5c0.1,0.3,0.2,0.5,0.2,0.5s-0.2-0.1-0.4-0.3
										c-0.1-0.1-0.3-0.2-0.5-0.3c-0.2-0.1-0.4-0.2-0.6-0.4c-0.2-0.1-0.5-0.2-0.7-0.3c-0.3-0.1-0.5-0.2-0.8-0.3
										c-0.3-0.1-0.6-0.2-0.9-0.2c-0.3-0.1-0.6-0.1-1-0.2c-0.3,0-0.7-0.1-1-0.1c-0.3,0-0.7-0.1-1-0.1c-0.3,0-0.6,0-0.9,0
										c-0.3,0-0.6,0-0.8,0C203,157.5,202.2,157.5,202.2,157.5z"/>
								</g>
							</g>
						</g>
					</g>
					<g>
						<g>
							<g>
								<g>
									<path class="st2" d="M255.8,163.9c0,0,0.1-0.1,0.3-0.4c0.1-0.1,0.3-0.2,0.5-0.3c0.2-0.1,0.5-0.2,0.7-0.2
										c0.3,0,0.6-0.1,0.9-0.1c0.3,0,0.7,0,1,0.1c0.3,0.1,0.7,0.2,1,0.3c0.3,0.1,0.7,0.3,1,0.4c0.3,0.2,0.6,0.4,0.9,0.6
										c0.3,0.2,0.5,0.5,0.8,0.7c0.2,0.3,0.5,0.5,0.6,0.8c0.2,0.3,0.4,0.5,0.5,0.8c0.1,0.2,0.2,0.5,0.3,0.7
										c0.1,0.2,0.1,0.4,0.1,0.6c0,0.3,0,0.5,0,0.5s-0.1-0.1-0.3-0.4c-0.1-0.1-0.2-0.3-0.3-0.4c-0.1-0.2-0.3-0.3-0.5-0.5
										c-0.2-0.2-0.4-0.3-0.6-0.5c-0.2-0.2-0.5-0.3-0.7-0.5c-0.2-0.2-0.5-0.3-0.8-0.5c-0.3-0.2-0.5-0.3-0.8-0.5
										c-0.3-0.2-0.6-0.3-0.8-0.4c-0.3-0.1-0.6-0.3-0.8-0.3c-0.3-0.1-0.5-0.2-0.8-0.3c-0.3-0.1-0.5-0.1-0.7-0.2
										c-0.2,0-0.4,0-0.6,0c-0.2,0-0.4,0-0.5,0C256,163.8,255.8,163.9,255.8,163.9z"/>
								</g>
							</g>
						</g>
					</g>
					<g>
						<g>
							<g>
								<g>
									<path class="st2" d="M252.9,168c0,0,0.2-0.1,0.5-0.2c0.4-0.1,0.9-0.1,1.5-0.1c0.3,0,0.6,0.1,1,0.2c0.3,0.1,0.7,0.2,1.1,0.3
										c0.4,0.2,0.7,0.3,1.1,0.5c0.4,0.2,0.7,0.4,1,0.7c0.3,0.3,0.7,0.5,0.9,0.8c0.3,0.3,0.6,0.6,0.8,0.9c0.3,0.3,0.5,0.6,0.6,0.9
										c0.2,0.3,0.3,0.6,0.5,0.9c0.2,0.6,0.3,1.1,0.4,1.5c0,0.4,0,0.6,0,0.6s-0.1-0.2-0.3-0.5c-0.2-0.3-0.5-0.7-0.8-1.1
										c-0.2-0.2-0.4-0.4-0.6-0.7c-0.2-0.2-0.5-0.5-0.7-0.7c-0.3-0.2-0.5-0.5-0.8-0.7c-0.3-0.3-0.6-0.5-0.9-0.7
										c-0.3-0.2-0.6-0.5-0.9-0.6c-0.3-0.2-0.6-0.4-0.9-0.6c-0.3-0.2-0.6-0.3-0.9-0.5c-0.3-0.1-0.6-0.3-0.8-0.4
										c-0.5-0.2-1-0.4-1.3-0.4C253.1,168,252.9,168,252.9,168z"/>
								</g>
							</g>
						</g>
					</g>
					<g>
						<g>
							<g>
								<g>
									<path class="st2" d="M248.6,170.7c0,0,0.2,0.1,0.4,0.2c0.3,0.2,0.6,0.4,1,0.9c0.2,0.2,0.3,0.5,0.5,0.7
										c0.1,0.3,0.3,0.6,0.4,0.9c0.1,0.3,0.2,0.7,0.3,1c0.1,0.3,0.1,0.7,0.2,1.1c0,0.4,0,0.7,0,1.1c0,0.3,0,0.7-0.1,1
										c0,0.3-0.1,0.6-0.2,0.9c-0.1,0.3-0.2,0.6-0.3,0.8c-0.2,0.5-0.5,0.9-0.7,1.1c-0.2,0.2-0.3,0.3-0.3,0.3s0-0.2,0.1-0.5
										c0-0.3,0.1-0.7,0.1-1.2c0-0.2,0-0.5,0-0.8c0-0.3,0-0.6,0-0.9c0-0.3,0-0.6,0-0.9c0-0.3,0-0.6,0-0.9c0-0.3,0-0.6-0.1-0.9
										c0-0.3-0.1-0.6-0.1-0.9c0-0.3-0.1-0.6-0.2-0.8c-0.1-0.2-0.1-0.5-0.2-0.7c-0.2-0.4-0.3-0.8-0.5-1.1
										C248.7,170.8,248.6,170.7,248.6,170.7z"/>
								</g>
							</g>
						</g>
					</g>
				</g>
			</g>
			<g>
				<path class="st1" d="M346.9,217.2c0,0,23.8-4.8,26.6-14.1c2.7-9.3-7.5-25-7.5-25s-8.2,7.2-13.9,6.8
					c-5.7-0.4-14.1-17.2-11.1-22.2s10-0.7,12.3,4.5c2.3,5.2,7.7,2.2,7.7,2.2s-10.7-14.9-2.3-21.7c8.4-6.8,21.3,7.3,27,23.6
					c0,0,7.9-3.2,8.4-7.7c0.5-4.5-6.4-12.9,0-17.3c6.4-4.5,11.1,8.2,10.7,16.9c-0.5,8.6-9.8,13.9-16.3,16.8c0,0,5.7,16-0.7,27.7
					c-6.4,11.8-33.4,17.4-37.9,17.9C345.3,226.1,346.9,217.2,346.9,217.2z"/>
				<g>
					<g>
						<g>
							<g>
								<g>
									<path class="st2" d="M356.4,215.2c0,0,0.5,0.3,1.2,0.8c0.2,0.1,0.3,0.3,0.5,0.4c0.2,0.2,0.4,0.3,0.5,0.5
										c0.2,0.2,0.4,0.4,0.5,0.6c0.2,0.2,0.3,0.4,0.5,0.7c0.2,0.2,0.3,0.5,0.5,0.7c0.2,0.2,0.3,0.5,0.4,0.7
										c0.1,0.2,0.2,0.5,0.3,0.7c0.1,0.2,0.1,0.5,0.2,0.7c0.1,0.4,0.1,0.8,0.1,1c0,0.3,0,0.4,0,0.4s-0.1-0.1-0.2-0.3
										c-0.1-0.2-0.3-0.5-0.6-0.8c-0.1-0.2-0.2-0.3-0.4-0.5c-0.1-0.2-0.3-0.4-0.4-0.6c-0.1-0.2-0.3-0.4-0.4-0.6
										c-0.1-0.2-0.3-0.4-0.4-0.6c-0.2-0.2-0.3-0.4-0.4-0.6c-0.1-0.2-0.3-0.4-0.4-0.6c-0.1-0.2-0.3-0.4-0.4-0.6
										c-0.1-0.2-0.2-0.4-0.3-0.6C356.6,215.8,356.4,215.2,356.4,215.2z"/>
								</g>
							</g>
						</g>
					</g>
					<g>
						<g>
							<g>
								<g>
									<path class="st2" d="M365.1,212c0,0,0.6,0,1.4,0.5c0.2,0.1,0.4,0.2,0.6,0.4c0.2,0.2,0.4,0.3,0.6,0.5
										c0.2,0.2,0.4,0.4,0.6,0.6c0.2,0.2,0.4,0.5,0.5,0.7c0.1,0.3,0.3,0.5,0.4,0.8c0.1,0.3,0.2,0.5,0.3,0.8
										c0.1,0.3,0.2,0.5,0.2,0.8c0,0.3,0.1,0.5,0.1,0.7c0,0.4,0,0.8-0.1,1.1c-0.1,0.3-0.1,0.4-0.1,0.4s-0.1-0.1-0.2-0.4
										c-0.1-0.2-0.3-0.5-0.4-0.9c-0.1-0.2-0.2-0.4-0.3-0.6c-0.1-0.2-0.2-0.4-0.3-0.6c-0.1-0.2-0.3-0.4-0.4-0.6
										c-0.1-0.2-0.3-0.4-0.4-0.7c-0.1-0.2-0.3-0.4-0.4-0.7c-0.1-0.2-0.3-0.4-0.4-0.6c-0.1-0.2-0.3-0.4-0.4-0.6
										c-0.1-0.2-0.3-0.4-0.4-0.5C365.4,212.5,365.1,212,365.1,212z"/>
								</g>
							</g>
						</g>
					</g>
					<g>
						<g>
							<g>
								<g>
									<path class="st2" d="M373.5,206.1c0,0,0.2-0.1,0.5-0.1c0.3-0.1,0.8-0.1,1.4-0.1c0.3,0,0.6,0,0.9,0.1c0.3,0.1,0.7,0.1,1,0.2
										c0.3,0.1,0.7,0.2,1.1,0.3c0.4,0.1,0.7,0.3,1.1,0.4c0.3,0.2,0.7,0.4,1,0.6c0.3,0.2,0.6,0.4,0.9,0.7c0.3,0.2,0.5,0.5,0.8,0.7
										c0.2,0.3,0.4,0.5,0.6,0.8c0.3,0.5,0.5,1,0.5,1.3c0,0.3,0,0.5,0,0.5s-0.1-0.2-0.3-0.4c-0.2-0.3-0.5-0.6-0.9-0.9
										c-0.2-0.2-0.4-0.3-0.7-0.5c-0.3-0.2-0.5-0.3-0.8-0.5c-0.3-0.2-0.6-0.3-0.9-0.5c-0.3-0.2-0.6-0.3-0.9-0.5
										c-0.3-0.1-0.6-0.3-1-0.4c-0.3-0.2-0.6-0.3-0.9-0.4c-0.3-0.1-0.6-0.3-0.9-0.4c-0.3-0.1-0.6-0.2-0.8-0.3
										C374.2,206.3,373.5,206.1,373.5,206.1z"/>
								</g>
							</g>
						</g>
					</g>
					<g>
						<g>
							<g>
								<g>
									<path class="st2" d="M375.5,196.8c0,0,0.2-0.1,0.4-0.3c0.3-0.2,0.7-0.5,1.3-0.7c0.3-0.1,0.6-0.3,0.9-0.4
										c0.3-0.1,0.7-0.2,1.1-0.3c0.4-0.1,0.8-0.1,1.2-0.1c0.4,0,0.8,0,1.3,0.1c0.4,0.1,0.8,0.2,1.2,0.3c0.4,0.1,0.8,0.3,1.1,0.5
										c0.3,0.2,0.7,0.4,0.9,0.6c0.3,0.2,0.5,0.4,0.7,0.7c0.4,0.4,0.7,0.8,0.9,1.1c0.2,0.3,0.3,0.5,0.3,0.5s-0.2-0.1-0.5-0.3
										c-0.3-0.2-0.7-0.4-1.2-0.7c-0.3-0.1-0.5-0.3-0.8-0.4c-0.3-0.1-0.6-0.2-0.9-0.4c-0.3-0.1-0.6-0.2-1-0.3
										c-0.3-0.1-0.7-0.2-1-0.2c-0.3-0.1-0.7-0.1-1.1-0.1c-0.3,0-0.7,0-1,0c-0.3,0-0.7,0-1,0c-0.3,0-0.6,0.1-0.9,0.1
										C376.3,196.7,375.5,196.8,375.5,196.8z"/>
								</g>
							</g>
						</g>
					</g>
					<g>
						<g>
							<g>
								<g>
									<path class="st2" d="M372.5,190.4c0,0,0.2-0.2,0.4-0.6c0.3-0.4,0.7-0.9,1.3-1.5c0.3-0.3,0.6-0.6,1-0.9
										c0.4-0.3,0.8-0.6,1.2-0.9c0.4-0.3,0.9-0.6,1.4-0.8c0.5-0.3,1-0.5,1.5-0.7c0.5-0.2,1-0.4,1.6-0.5c0.5-0.2,1.1-0.3,1.6-0.3
										c0.5-0.1,1-0.1,1.5-0.1c0.5,0,0.9,0,1.4,0.1c0.4,0,0.8,0.1,1.1,0.2c0.3,0.1,0.6,0.2,0.8,0.3c0.4,0.2,0.7,0.3,0.7,0.3
										s-0.3,0-0.7,0c-0.2,0-0.5,0-0.8,0c-0.3,0-0.7,0-1.1,0.1c-0.4,0-0.8,0.1-1.2,0.2c-0.4,0.1-0.9,0.2-1.4,0.3
										c-0.5,0.1-0.9,0.3-1.4,0.4c-0.5,0.1-1,0.3-1.4,0.5c-0.5,0.2-1,0.4-1.4,0.6c-0.5,0.2-0.9,0.4-1.4,0.7
										c-0.4,0.2-0.9,0.5-1.2,0.7c-0.4,0.2-0.8,0.4-1.1,0.7c-0.7,0.4-1.2,0.8-1.6,1.1C372.8,190.3,372.5,190.4,372.5,190.4z"/>
								</g>
							</g>
						</g>
					</g>
					<g>
						<g>
							<g>
								<g>
									<path class="st2" d="M368,179.1c0,0,0.1-0.3,0.2-0.7c0.1-0.2,0.1-0.5,0.3-0.8c0.1-0.3,0.3-0.7,0.5-1
										c0.2-0.4,0.4-0.8,0.8-1.1c0.3-0.4,0.6-0.8,1-1.1c0.4-0.3,0.8-0.7,1.3-1c0.5-0.3,1-0.6,1.4-0.9c0.5-0.2,1-0.5,1.5-0.7
										c0.5-0.2,1-0.4,1.5-0.5c0.5-0.2,1-0.3,1.4-0.4c0.5-0.1,0.9-0.2,1.3-0.3c0.8-0.2,1.5-0.3,1.9-0.3c0.5-0.1,0.8-0.1,0.8-0.1
										s-0.2,0.1-0.7,0.4c-0.4,0.2-1,0.5-1.8,0.9c-0.4,0.2-0.8,0.3-1.2,0.5c-0.4,0.2-0.9,0.4-1.3,0.6c-0.5,0.2-0.9,0.4-1.4,0.6
										c-0.5,0.2-0.9,0.4-1.4,0.7c-0.5,0.2-0.9,0.5-1.3,0.7c-0.4,0.2-0.8,0.5-1.2,0.8c-0.4,0.3-0.8,0.6-1.1,0.9
										c-0.3,0.3-0.6,0.6-0.9,0.9c-0.3,0.3-0.5,0.6-0.7,0.8c-0.2,0.3-0.4,0.5-0.5,0.7C368.2,178.8,368,179.1,368,179.1z"/>
								</g>
							</g>
						</g>
					</g>
					<g>
						<g>
							<g>
								<g>
									<path class="st2" d="M361,165.7c0,0,0.7-0.8,1.7-2c0.3-0.3,0.5-0.6,0.8-0.9c0.3-0.3,0.6-0.7,1-1c0.3-0.3,0.7-0.7,1.1-1.1
										c0.4-0.4,0.8-0.7,1.2-1c0.4-0.3,0.9-0.6,1.3-0.9c0.4-0.3,0.9-0.5,1.4-0.7c0.5-0.2,0.9-0.4,1.4-0.5c0.4-0.1,0.9-0.2,1.3-0.3
										c0.8-0.1,1.5-0.1,1.9,0c0.5,0.1,0.7,0.1,0.7,0.1s-0.3,0.1-0.7,0.2c-0.4,0.1-1.1,0.3-1.8,0.6c-0.4,0.1-0.7,0.3-1.1,0.5
										c-0.4,0.2-0.8,0.4-1.2,0.6c-0.4,0.2-0.8,0.5-1.2,0.8c-0.4,0.3-0.8,0.6-1.2,0.9c-0.4,0.3-0.8,0.6-1.2,1
										c-0.4,0.3-0.8,0.6-1.1,0.9c-0.4,0.3-0.7,0.6-1.1,0.9c-0.3,0.3-0.7,0.5-1,0.8C361.9,165.2,361,165.7,361,165.7z"/>
								</g>
							</g>
						</g>
					</g>
					<g>
						<g>
							<g>
								<g>
									<path class="st2" d="M359.1,156.8c0,0,0-0.2,0.1-0.5c0.1-0.3,0.3-0.8,0.6-1.3c0.2-0.3,0.3-0.5,0.6-0.8
										c0.2-0.3,0.5-0.5,0.8-0.8c0.3-0.2,0.6-0.5,0.9-0.7c0.3-0.2,0.7-0.4,1-0.6c0.4-0.2,0.7-0.4,1.1-0.5c0.4-0.2,0.7-0.3,1.1-0.4
										c0.4-0.1,0.7-0.2,1-0.2c0.3-0.1,0.7-0.1,1-0.1c0.6-0.1,1.1-0.1,1.4-0.1c0.4,0,0.6,0,0.6,0s-0.2,0.1-0.5,0.3
										c-0.3,0.2-0.8,0.4-1.3,0.6c-0.3,0.1-0.5,0.2-0.8,0.4c-0.3,0.1-0.6,0.3-0.9,0.4c-0.3,0.1-0.6,0.3-1,0.5
										c-0.3,0.1-0.7,0.3-1,0.5c-0.3,0.2-0.7,0.3-1,0.5c-0.3,0.2-0.6,0.4-0.9,0.5c-0.3,0.2-0.6,0.4-0.8,0.6
										c-0.2,0.2-0.5,0.4-0.7,0.6c-0.4,0.4-0.8,0.7-1,1C359.3,156.7,359.1,156.8,359.1,156.8z"/>
								</g>
							</g>
						</g>
					</g>
					<g>
						<g>
							<g>
								<g>
									<path class="st2" d="M390,171.1c0,0,0.5-0.1,1,0.2c0.1,0.1,0.3,0.1,0.4,0.3c0.1,0.1,0.3,0.2,0.4,0.3
										c0.1,0.1,0.2,0.3,0.4,0.4l0.3,0.4l0.3,0.5c0.1,0.2,0.2,0.3,0.2,0.5c0.1,0.2,0.1,0.3,0.1,0.5c0,0.2,0.1,0.3,0.1,0.5
										c0,0.3,0,0.5,0,0.7c0,0.2-0.1,0.3-0.1,0.3s-0.1-0.1-0.2-0.2c-0.1-0.1-0.3-0.3-0.5-0.5c-0.1-0.1-0.2-0.2-0.3-0.3
										c-0.1-0.1-0.2-0.2-0.3-0.4c-0.1-0.1-0.2-0.3-0.3-0.4l-0.3-0.4l-0.3-0.4c-0.1-0.1-0.2-0.3-0.2-0.4c-0.1-0.1-0.1-0.3-0.2-0.4
										c-0.1-0.1-0.1-0.3-0.2-0.4c-0.1-0.2-0.2-0.4-0.3-0.6C390.1,171.2,390,171.1,390,171.1z"/>
								</g>
							</g>
						</g>
					</g>
					<g>
						<g>
							<g>
								<g>
									<path class="st2" d="M394.3,165.5c0,0,0.1-0.1,0.3-0.1c0.2-0.1,0.5-0.2,0.9-0.2c0.2,0,0.4,0,0.6,0c0.2,0,0.4,0.1,0.7,0.1
										c0.2,0.1,0.5,0.2,0.7,0.3c0.2,0.1,0.4,0.2,0.6,0.4c0.2,0.2,0.4,0.3,0.6,0.5c0.2,0.2,0.3,0.3,0.5,0.5
										c0.1,0.2,0.3,0.3,0.4,0.5c0.1,0.2,0.2,0.3,0.3,0.5c0.2,0.3,0.3,0.6,0.3,0.8c0,0.2,0.1,0.3,0.1,0.3s-0.1-0.1-0.3-0.2
										c-0.2-0.1-0.4-0.3-0.7-0.4c-0.1-0.1-0.3-0.2-0.4-0.3c-0.2-0.1-0.3-0.2-0.5-0.3c-0.2-0.1-0.3-0.2-0.5-0.4
										c-0.2-0.1-0.3-0.2-0.5-0.4c-0.2-0.1-0.3-0.2-0.5-0.3c-0.2-0.1-0.3-0.2-0.5-0.3c-0.2-0.1-0.3-0.2-0.5-0.3
										c-0.2-0.1-0.3-0.2-0.5-0.2C394.8,165.7,394.3,165.5,394.3,165.5z"/>
								</g>
							</g>
						</g>
					</g>
					<g>
						<g>
							<g>
								<g>
									<path class="st2" d="M396.4,157.3c0,0,0.2-0.5,0.9-0.8c0.2-0.1,0.3-0.2,0.5-0.2c0.2,0,0.4-0.1,0.6-0.1c0.2,0,0.4,0,0.7-0.1
										c0.2,0,0.5,0,0.7,0c0.2,0,0.5,0.1,0.7,0.1c0.2,0,0.4,0.1,0.6,0.2c0.2,0.1,0.4,0.2,0.6,0.3c0.2,0.1,0.3,0.2,0.5,0.4
										c0.3,0.3,0.4,0.5,0.5,0.7c0.1,0.2,0.1,0.3,0.1,0.3s-0.1-0.1-0.3-0.1c-0.2-0.1-0.4-0.1-0.7-0.2c-0.2,0-0.3-0.1-0.5-0.1
										c-0.2,0-0.3-0.1-0.5-0.1c-0.2,0-0.4,0-0.6-0.1c-0.2,0-0.4-0.1-0.6-0.1c-0.2,0-0.4-0.1-0.6-0.1c-0.2,0-0.4-0.1-0.6-0.1
										c-0.2,0-0.4,0-0.5-0.1c-0.2,0-0.3,0-0.5-0.1c-0.3,0-0.6,0-0.7,0C396.5,157.3,396.4,157.3,396.4,157.3z"/>
								</g>
							</g>
						</g>
					</g>
					<g>
						<g>
							<g>
								<g>
									<path class="st2" d="M394.3,151.6c0,0,0.1-0.5,0.5-1.1c0.1-0.1,0.2-0.3,0.4-0.4c0.2-0.1,0.3-0.3,0.5-0.4
										c0.2-0.1,0.4-0.2,0.6-0.3c0.2-0.1,0.4-0.2,0.7-0.3c0.2-0.1,0.5-0.1,0.7-0.1c0.2,0,0.5,0,0.7,0c0.2,0,0.4,0,0.6,0.1
										c0.2,0,0.4,0.1,0.6,0.2c0.3,0.1,0.6,0.3,0.8,0.4c0.2,0.1,0.2,0.2,0.2,0.2s-0.1,0-0.3,0.1c-0.2,0-0.5,0.1-0.8,0.1
										c-0.2,0-0.3,0.1-0.5,0.1c-0.2,0-0.3,0.1-0.5,0.1c-0.2,0-0.4,0.1-0.6,0.1c-0.2,0-0.4,0.1-0.6,0.1c-0.2,0.1-0.4,0.1-0.6,0.2
										c-0.2,0-0.4,0.1-0.5,0.2c-0.2,0.1-0.4,0.1-0.5,0.2c-0.2,0.1-0.3,0.1-0.5,0.2C394.8,151.4,394.3,151.6,394.3,151.6z"/>
								</g>
							</g>
						</g>
					</g>
					<g>
						<g>
							<g>
								<g>
									<path class="st2" d="M359.1,171.6c0,0,0.2,0.5,0.4,1.2c0.1,0.2,0.1,0.4,0.2,0.5c0.1,0.2,0.2,0.4,0.2,0.6
										c0.1,0.2,0.1,0.4,0.2,0.6c0.1,0.2,0.2,0.4,0.2,0.7c0.1,0.2,0.2,0.4,0.2,0.7c0.1,0.2,0.2,0.4,0.2,0.7
										c0.1,0.2,0.1,0.4,0.2,0.6c0.1,0.2,0.1,0.4,0.1,0.6c0.1,0.4,0.1,0.7,0.1,0.9c0,0.2,0,0.4,0,0.4s-0.1-0.1-0.3-0.2
										c-0.2-0.2-0.4-0.4-0.6-0.7c-0.1-0.1-0.3-0.3-0.4-0.5c-0.1-0.2-0.3-0.4-0.4-0.6c-0.1-0.2-0.2-0.4-0.3-0.7
										c-0.1-0.2-0.2-0.5-0.3-0.7c-0.1-0.3-0.2-0.5-0.2-0.7c-0.1-0.3-0.1-0.5-0.1-0.8c0-0.2,0-0.5,0-0.7c0-0.2,0-0.4,0-0.6
										C358.9,172.1,359.1,171.6,359.1,171.6z"/>
								</g>
							</g>
						</g>
					</g>
					<g>
						<g>
							<g>
								<g>
									<path class="st2" d="M354.2,171.4c0,0-0.1,0.2-0.3,0.4c-0.2,0.3-0.4,0.7-0.7,1.2c-0.1,0.2-0.2,0.5-0.3,0.8
										c-0.1,0.3-0.2,0.6-0.3,0.9c-0.1,0.3-0.2,0.7-0.3,1c-0.1,0.3-0.1,0.7-0.2,1.1c-0.1,0.4-0.1,0.7-0.2,1.1
										c0,0.4-0.1,0.7-0.1,1.1c0,0.3-0.1,0.7-0.1,1c0,0.3-0.1,0.6-0.1,0.9c0,0.6-0.1,1.1-0.1,1.4c0,0.4,0,0.6,0,0.6
										s-0.1-0.2-0.3-0.5c-0.1-0.3-0.3-0.8-0.5-1.4c-0.1-0.3-0.1-0.6-0.2-1c0-0.3-0.1-0.7-0.1-1.1c0-0.4,0-0.8,0-1.2
										c0-0.4,0.1-0.8,0.1-1.2c0.1-0.4,0.2-0.8,0.3-1.2c0.1-0.4,0.3-0.8,0.4-1.1c0.1-0.4,0.4-0.7,0.5-1c0.2-0.3,0.4-0.6,0.6-0.8
										c0.4-0.5,0.9-0.8,1.2-0.9C354,171.4,354.2,171.4,354.2,171.4z"/>
								</g>
							</g>
						</g>
					</g>
					<g>
						<g>
							<g>
								<g>
									<path class="st2" d="M344.2,174.1c0,0-0.1-0.6,0.1-1.6c0.1-0.2,0.1-0.5,0.2-0.7c0.1-0.2,0.2-0.5,0.4-0.8
										c0.2-0.3,0.3-0.5,0.5-0.8c0.2-0.2,0.4-0.5,0.6-0.7c0.2-0.2,0.5-0.4,0.7-0.6c0.2-0.2,0.5-0.4,0.7-0.5
										c0.3-0.2,0.5-0.3,0.8-0.4c0.2-0.1,0.5-0.2,0.7-0.3c0.4-0.1,0.8-0.2,1.1-0.2c0.3,0,0.4,0,0.4,0s-0.1,0.1-0.3,0.3
										c-0.2,0.2-0.5,0.4-0.8,0.7c-0.2,0.1-0.3,0.3-0.5,0.5c-0.2,0.2-0.4,0.3-0.6,0.5c-0.2,0.2-0.4,0.4-0.6,0.5
										c-0.2,0.2-0.4,0.4-0.6,0.6c-0.2,0.2-0.4,0.4-0.6,0.6c-0.2,0.2-0.4,0.4-0.5,0.6c-0.2,0.2-0.3,0.4-0.5,0.6
										c-0.1,0.2-0.3,0.4-0.4,0.5C344.5,173.6,344.2,174.1,344.2,174.1z"/>
								</g>
							</g>
						</g>
					</g>
					<g>
						<g>
							<g>
								<g>
									<path class="st2" d="M342.6,165.7c0,0,0-0.1-0.1-0.2c0-0.1-0.1-0.4,0-0.6c0-0.1,0.1-0.3,0.1-0.4c0.1-0.1,0.1-0.3,0.2-0.4
										c0.1-0.1,0.2-0.2,0.3-0.3c0.1-0.1,0.2-0.2,0.4-0.2c0.1-0.1,0.3-0.1,0.4-0.2c0.1-0.1,0.3-0.1,0.4-0.1c0.1,0,0.3,0,0.4,0
										c0.1,0,0.2,0,0.3,0c0.2,0,0.4,0.1,0.5,0.1c0.1,0.1,0.2,0.1,0.2,0.1s0,0.1-0.1,0.2c-0.1,0.1-0.2,0.3-0.3,0.4
										c-0.1,0.1-0.1,0.2-0.2,0.2c-0.1,0.1-0.2,0.2-0.3,0.2c-0.1,0.1-0.2,0.1-0.3,0.2c-0.1,0.1-0.2,0.1-0.3,0.2
										c-0.1,0-0.2,0.1-0.3,0.1c-0.1,0-0.2,0.1-0.3,0.1c-0.1,0-0.2,0.1-0.3,0.1c-0.1,0-0.2,0.1-0.2,0.1
										C342.8,165.5,342.6,165.7,342.6,165.7z"/>
								</g>
							</g>
						</g>
					</g>
				</g>
			</g>
		</g>
		<g>
			<path class="st3" d="M262.2,412.9c0,0,1.1,9.3,0,11.4c0,0-5.2-3.9-13.3-3.4c-8.1,0.5-14.2,5.2-13.3,14.1s30.9,8.9,34.1,5
				c3.2-3.9,0-32,0-32L262.2,412.9z"/>
			<path class="st3" d="M316.2,409.7c0,0,1.1,23.8,2.3,28.2c1.1,4.3,28.8,5.4,33.2,2.3c4.3-3.2,4.4-14.7-4.4-18.1
				c-8.1-3.1-14,0.4-22,3.1c0,0-0.7-13.2-1-15.4C324,407.4,316.2,409.7,316.2,409.7z"/>
		</g>
		<g>
			<path class="st4" d="M296,180c0,0-2.7-5.6-7.3-6.5l1.4,6.5c0,0-39.1,6.7-52.7,85.5s3.4,113.4-6.9,142c0,0,12.4,0,18.8-7.3
				c0,0,4.5,12.3,10.9,17.3c0,0,11.8-8.2,14.5-15c0,0,5,13.6,15.4,17.7c0,0,10.9-5.9,17.7-19.1c0,0,9.2,12.7,20.7,19.1
				c0,0,7.9-10.9,12.9-20c0,0,7,7.3,22.3,11.4c0,0-5.5-10.9-3.7-27.3s23.2-191.3-43.6-201c0,0,3.1-5.1,5.9-6.3c0,0-9.5-0.2-15,2.9
				c0,0,0.9-9.1,3.2-12.7C310.6,167.3,302.4,170.9,296,180z"/>
			<g>
				<path class="st5" d="M251,377.1c0-7.9-6.4-14.3-14.3-14.3c-1.2,0-2.4,0.2-3.5,0.5c0.6,10.6,1.1,19.6,0.6,27.8c1,0.2,2,0.3,3,0.3
					C244.6,391.4,251,385,251,377.1z"/>
				<path class="st5" d="M241.8,345.9c0-6.4-4.2-11.8-9.9-13.6c0.1,10,0.6,18.8,1.1,26.9C238.1,357,241.8,351.9,241.8,345.9z"/>
				<path class="st5" d="M238.1,313.6c0-4.5-2.1-8.5-5.3-11.1c-0.6,8.2-0.9,15.8-0.9,22.9C235.6,322.8,238.1,318.5,238.1,313.6z"/>
				<path class="st5" d="M240.1,284.6c0-3.9-1.6-7.5-4.2-10.1c-1.2,7.9-2.1,15.3-2.7,22.3C237.4,294.3,240.1,289.8,240.1,284.6z"/>
				<path class="st5" d="M343.8,379.7c0,7.9,6.4,14.3,14.3,14.3c0.5,0,1.1,0,1.6-0.1c-0.2-2.9-0.1-6.1,0.3-9.6
					c0.3-2.6,1.1-9.1,1.9-18.4c-1.2-0.3-2.5-0.5-3.8-0.5C350.2,365.4,343.8,371.8,343.8,379.7z"/>
				<path class="st5" d="M354.1,348.5c0,5.7,3.4,10.7,8.3,13c0.6-7.6,1.3-16.7,1.7-26.6C358.3,336.7,354.1,342.1,354.1,348.5z"/>
				<path class="st5" d="M359.5,317.3c0,4.3,1.9,8.1,4.9,10.7c0.2-7,0.4-14.3,0.4-21.8C361.5,308.9,359.5,312.8,359.5,317.3z"/>
				<path class="st5" d="M358.1,285.1c0,5,2.6,9.4,6.5,12c-0.2-7.7-0.5-15.4-1.1-23.1C360.2,276.6,358.1,280.6,358.1,285.1z"/>
			</g>
			<path class="st6" d="M300.6,196.5c29.6,1.7,48.3,24.1,52.7,71.6c3.7,39.7,8.3,98.5-52.7,101c-60.4,2.4-58.7-45.2-55.9-86.5
				C247.2,246.3,268.5,194.7,300.6,196.5z"/>
		</g>
		<g>
			<g>
				<ellipse class="st7" cx="298.9" cy="263.9" rx="25.4" ry="25.3"/>
				<g>
					<ellipse class="st8" cx="290.5" cy="255.6" rx="13.5" ry="13.4"/>
					<ellipse class="st9" cx="285.1" cy="251.1" rx="7.1" ry="7"/>
				</g>
			</g>
			<g>
				<g>
					<g>
						<g>
							<g>
								<path class="st10" d="M288.6,306.6c0,0,0,0.1,0.1,0.2c0.1,0.2,0.2,0.4,0.4,0.7c0.3,0.6,0.9,1.3,1.7,2c0.4,0.4,0.8,0.7,1.3,1
									c0.5,0.3,1,0.6,1.6,0.9c0.6,0.3,1.2,0.5,1.8,0.6c0.6,0.2,1.2,0.2,1.8,0.2c0.6,0,1.2-0.1,1.8-0.3c0.6-0.2,1.2-0.4,1.8-0.6
									c0.6-0.3,1.1-0.6,1.6-0.9c0.5-0.3,0.9-0.7,1.3-1c0.7-0.7,1.3-1.5,1.5-2c0.2-0.3,0.3-0.5,0.3-0.7c0.1-0.2,0.1-0.3,0.1-0.3
									s0,0.1,0,0.3c0,0.2,0.1,0.5,0.1,0.8c0,0.7-0.1,1.8-0.7,2.9c-0.3,0.6-0.7,1.1-1.2,1.7c-0.5,0.5-1.1,1.1-1.8,1.5
									c-0.7,0.4-1.4,0.8-2.3,1.1c-0.8,0.3-1.7,0.4-2.6,0.4c-0.9,0-1.8-0.2-2.6-0.4c-0.8-0.3-1.6-0.6-2.2-1.1
									c-0.7-0.4-1.3-0.9-1.8-1.5c-0.5-0.5-0.9-1.1-1.2-1.6c-0.6-1.1-0.9-2.1-0.9-2.8c0-0.3,0-0.6,0-0.8
									C288.6,306.7,288.6,306.6,288.6,306.6z"/>
							</g>
						</g>
					</g>
				</g>
				<g>
					<g>
						<g>
							<g>
								<path class="st10" d="M284.7,308.3c0,0,0.5-0.5,1.1-0.9c0.2-0.1,0.3-0.2,0.5-0.3c0.2-0.1,0.3-0.3,0.5-0.3
									c0.2-0.1,0.3-0.2,0.5-0.4c0.2-0.1,0.3-0.2,0.5-0.3c0.2-0.1,0.4-0.2,0.5-0.3c0.2-0.1,0.4-0.2,0.6-0.3
									c0.2-0.1,0.4-0.2,0.6-0.3c0.2-0.1,0.4-0.2,0.6-0.2c0.4-0.1,0.7-0.2,1-0.3c0.3-0.1,0.4-0.1,0.4-0.1s0,0.2,0,0.5
									c0,0.3,0,0.7-0.2,1.1c-0.1,0.2-0.2,0.4-0.3,0.7c-0.1,0.2-0.3,0.4-0.4,0.7c-0.2,0.2-0.4,0.4-0.6,0.6
									c-0.2,0.2-0.5,0.3-0.7,0.5c-0.3,0.1-0.5,0.3-0.8,0.4c-0.3,0.1-0.6,0.1-0.8,0.2c-0.3,0.1-0.6,0-0.8,0c-0.3,0-0.5-0.1-0.7-0.1
									c-0.4-0.1-0.8-0.3-1-0.4C284.8,308.4,284.7,308.3,284.7,308.3z"/>
							</g>
						</g>
					</g>
				</g>
				<g>
					<g>
						<g>
							<g>
								<path class="st10" d="M304.2,304.5c0,0,0.6,0.2,1.2,0.4c0.1,0.1,0.3,0.1,0.5,0.2c0.1,0.1,0.3,0.1,0.5,0.2
									c0.2,0.1,0.3,0.2,0.5,0.2c0.1,0.1,0.3,0.2,0.4,0.2c0.1,0.1,0.3,0.2,0.4,0.3c0.1,0.1,0.3,0.2,0.4,0.3
									c0.1,0.1,0.3,0.2,0.4,0.3c0.1,0.1,0.2,0.2,0.4,0.4c0.2,0.2,0.4,0.5,0.6,0.7c0.2,0.2,0.2,0.3,0.2,0.3s-0.1,0.1-0.3,0.3
									c-0.2,0.1-0.5,0.3-0.9,0.4c-0.2,0.1-0.4,0.1-0.6,0.1c-0.2,0-0.5,0-0.7,0c-0.2,0-0.5-0.1-0.7-0.2c-0.2-0.1-0.5-0.2-0.7-0.3
									c-0.2-0.2-0.4-0.3-0.6-0.5c-0.2-0.2-0.3-0.4-0.5-0.6c-0.1-0.2-0.2-0.4-0.3-0.6c-0.1-0.2-0.1-0.4-0.2-0.6
									C304,305.1,304.2,304.5,304.2,304.5z"/>
							</g>
						</g>
					</g>
				</g>
			</g>
			<g>
				<path class="st11" d="M268.1,291.1c0.8,2.9-2.8,5.3-9.6,6c-5.3,0.5-9.6-2.7-9.6-6s4.3-6,9.6-6S267.2,287.9,268.1,291.1z"/>
				<ellipse class="st11" cx="343.1" cy="289.8" rx="9.6" ry="6"/>
			</g>
		</g>
	</g>
</g>
</svg>
