<?xml version="1.0" encoding="utf-8"?>
<!-- Generator: Adobe Illustrator 22.0.0, SVG Export Plug-In . SVG Version: 6.00 Build 0)  -->
<svg version="1.1" id="Layer_1" xmlns="http://www.w3.org/2000/svg" xmlns:xlink="http://www.w3.org/1999/xlink" x="0px" y="0px"
	 viewBox="0 0 927.9 100" style="enable-background:new 0 0 927.9 100;" xml:space="preserve">
<style type="text/css">
	.st0{fill:#FFFFFF;}
</style>
<g>
	<path class="st0" d="M923,37v3c0,12-5.2,21-19.9,21c-3.9,0-8.6,0.7-12.6,0.2c-3.9-0.6-408.1-1.2-412-1.2c-4,0-9.3,1.1-10.5,8.4
		c-0.3,1.9-2,3.3-3.9,3.3l0,0c-2,0-3.7-1.4-4-3.4c-1.1-7.2-6-8.4-10.5-8.4c-4.1,0-410.5,0.6-414.6,1.2c-4.1,0.6-8,0.5-12,0.5
		c-13.4,0-19-8.7-19-21v-3h8v2.6c0,8.6,4.6,11.5,12.5,11.5c3.3,0,6.8,0.2,10.3-0.4c3.6-0.6,409.5-1,413.4-1
		c9.3-0.1,13.9,3.9,15.7,10.4h0.3c1.6-6.5,6.5-10.6,15.8-10.4c3.9,0,407.8,0.4,411.3,1c3.1,0.5,6.6-0.4,9.5-0.3
		c7.8,0.3,14.2-6.2,14.2-14"/>
</g>
</svg>
