<?xml version="1.0" encoding="utf-8"?>
<!-- Generator: Adobe Illustrator 22.0.0, SVG Export Plug-In . SVG Version: 6.00 Build 0)  -->
<svg version="1.1" id="Layer_1" xmlns="http://www.w3.org/2000/svg" xmlns:xlink="http://www.w3.org/1999/xlink" x="0px" y="0px"
	 viewBox="0 0 30 30" style="enable-background:new 0 0 30 30;" xml:space="preserve">
<style type="text/css">
	.st0{opacity:0.3;}
	.st1{filter:url(#Adobe_OpacityMaskFilter);}
	.st2{fill:url(#SVGID_2_);}
	.st3{mask:url(#SVGID_1_);}
	.st4{fill:url(#SVGID_3_);}
	.st5{fill:url(#SVGID_4_);}
	.st6{fill:url(#SVGID_5_);}
	.st7{fill:url(#SVGID_6_);}
	.st8{clip-path:url(#SVGID_16_);}
	.st9{fill:#FFFFFF;}
	.st10{fill:#DFDFDF;}
	.st11{fill:#BABABA;}
</style>
<g class="st0">
	<defs>
		<filter id="Adobe_OpacityMaskFilter" filterUnits="userSpaceOnUse" x="-5" y="-5.9" width="40.1" height="42.7">
			<feColorMatrix  type="matrix" values="1 0 0 0 0  0 1 0 0 0  0 0 1 0 0  0 0 0 1 0"/>
		</filter>
	</defs>
	<mask maskUnits="userSpaceOnUse" x="-5" y="-5.9" width="40.1" height="42.7" id="SVGID_1_">
		<g class="st1">
			<linearGradient id="SVGID_2_" gradientUnits="userSpaceOnUse" x1="15.031" y1="28.4381" x2="15.031" y2="5.9698">
				<stop  offset="0" style="stop-color:#000000"/>
				<stop  offset="0.1287" style="stop-color:#040404"/>
				<stop  offset="0.2547" style="stop-color:#101010"/>
				<stop  offset="0.3796" style="stop-color:#232323"/>
				<stop  offset="0.5039" style="stop-color:#3F3F3F"/>
				<stop  offset="0.6278" style="stop-color:#636363"/>
				<stop  offset="0.7514" style="stop-color:#8E8E8E"/>
				<stop  offset="0.8748" style="stop-color:#C2C2C2"/>
				<stop  offset="0.9952" style="stop-color:#FDFDFD"/>
				<stop  offset="1" style="stop-color:#FFFFFF"/>
			</linearGradient>
			<rect x="-0.6" y="-0.6" class="st2" width="31.2" height="31.2"/>
		</g>
	</mask>
	<g class="st3">
		<g>
			<g>
				<g>
					
						<image style="overflow:visible;" width="126" height="126" xlink:href="C003F153B998B4D6.png"  transform="matrix(0.24 0 0 0.24 -0.1714 -4.890000e-02)">
					</image>
				</g>
				
					<radialGradient id="SVGID_3_" cx="-422.9507" cy="1364.3331" r="25.0684" gradientTransform="matrix(0 1 1 0 -1349.3315 437.9507)" gradientUnits="userSpaceOnUse">
					<stop  offset="0" style="stop-color:#A8C4A0"/>
					<stop  offset="1" style="stop-color:#001B21"/>
				</radialGradient>
				<rect x="0" class="st4" width="30" height="30"/>
			</g>
			<g>
				<g>
					
						<image style="overflow:visible;" width="126" height="126" xlink:href="C003F153B998B4D0.png"  transform="matrix(0.24 0 0 0.24 -0.1714 -4.890000e-02)">
					</image>
				</g>
				
					<radialGradient id="SVGID_4_" cx="-1529.2939" cy="1012.146" r="25.0677" gradientTransform="matrix(-1 0 0 1 -1514.291 -997.1445)" gradientUnits="userSpaceOnUse">
					<stop  offset="0" style="stop-color:#C4A0B1"/>
					<stop  offset="1" style="stop-color:#211F00"/>
				</radialGradient>
				<rect x="0" y="0" class="st5" width="30" height="30"/>
			</g>
		</g>
		<g>
			<g>
				<g>
					
						<image style="overflow:visible;" width="126" height="126" xlink:href="C003F153B998B4DF.png"  transform="matrix(0.24 0 0 0.24 -0.1714 -4.890000e-02)">
					</image>
				</g>
				
					<radialGradient id="SVGID_5_" cx="-422.9507" cy="1364.3331" r="25.0684" gradientTransform="matrix(0 1 1 0 -1349.3315 437.9507)" gradientUnits="userSpaceOnUse">
					<stop  offset="0" style="stop-color:#A8C4A0"/>
					<stop  offset="1" style="stop-color:#001B21"/>
				</radialGradient>
				<rect x="0" class="st6" width="30" height="30"/>
			</g>
			<g>
				<g>
					
						<image style="overflow:visible;" width="126" height="126" xlink:href="C003F153B998B4DE.png"  transform="matrix(0.24 0 0 0.24 -0.1714 -4.890000e-02)">
					</image>
				</g>
				
					<radialGradient id="SVGID_6_" cx="-1529.2939" cy="1012.146" r="25.0677" gradientTransform="matrix(-1 0 0 1 -1514.291 -997.1445)" gradientUnits="userSpaceOnUse">
					<stop  offset="0" style="stop-color:#C4A0B1"/>
					<stop  offset="1" style="stop-color:#211F00"/>
				</radialGradient>
				<rect x="0" y="0" class="st7" width="30" height="30"/>
			</g>
		</g>
		<g>
			<g>
				<g>
					<defs>
						<rect id="SVGID_7_" x="0" y="0" width="30" height="30"/>
					</defs>
					<clipPath id="SVGID_8_">
						<use xlink:href="#SVGID_7_"  style="overflow:visible;"/>
					</clipPath>
				</g>
				<g>
					<defs>
						<rect id="SVGID_9_" x="0" y="0" width="30" height="30"/>
					</defs>
					<clipPath id="SVGID_10_">
						<use xlink:href="#SVGID_9_"  style="overflow:visible;"/>
					</clipPath>
				</g>
				<g>
					<defs>
						<rect id="SVGID_11_" x="0" y="0" width="30" height="30"/>
					</defs>
					<clipPath id="SVGID_12_">
						<use xlink:href="#SVGID_11_"  style="overflow:visible;"/>
					</clipPath>
				</g>
			</g>
			<g>
				<g>
					<defs>
						<rect id="SVGID_13_" x="0" y="0" width="30" height="30"/>
					</defs>
					<clipPath id="SVGID_14_">
						<use xlink:href="#SVGID_13_"  style="overflow:visible;"/>
					</clipPath>
				</g>
				<g>
					<defs>
						<rect id="SVGID_15_" x="0" y="0" width="30" height="30"/>
					</defs>
					<clipPath id="SVGID_16_">
						<use xlink:href="#SVGID_15_"  style="overflow:visible;"/>
					</clipPath>
					<g class="st8">
						<polygon class="st9" points="33.4,35.8 35.1,34.9 33.4,33.9 						"/>
						<polygon class="st10" points="33.4,33.9 35.1,32.9 33.4,32 						"/>
						<polygon class="st11" points="33.4,32 35.1,31 33.4,30 						"/>
						<polygon class="st10" points="33.4,30 35.1,29 33.4,28.1 						"/>
						<polygon class="st10" points="33.4,28.1 35.1,27.1 33.4,26.1 						"/>
						<polygon class="st9" points="33.4,26.1 35.1,25.2 33.4,24.2 						"/>
						<polygon class="st10" points="33.4,24.2 35.1,23.2 33.4,22.3 						"/>
						<polygon class="st9" points="33.4,22.3 35.1,21.3 33.4,20.3 						"/>
						<polygon class="st10" points="33.4,20.3 35.1,19.4 33.4,18.4 						"/>
						<polygon class="st10" points="33.4,18.4 35.1,17.4 33.4,16.4 						"/>
						<polygon class="st10" points="33.4,16.4 35.1,15.5 33.4,14.5 						"/>
						<polygon class="st10" points="33.4,14.5 35.1,13.5 33.4,12.6 						"/>
						<polygon class="st10" points="33.4,12.6 35.1,11.6 33.4,10.6 						"/>
						<polygon class="st10" points="33.4,10.6 35.1,9.7 33.4,8.7 						"/>
						<polygon class="st9" points="33.4,8.7 35.1,7.7 33.4,6.8 						"/>
						<polygon class="st10" points="33.4,6.8 35.1,5.8 33.4,4.8 						"/>
						<polygon class="st11" points="33.4,4.8 35.1,3.8 33.4,2.9 						"/>
						<polygon class="st11" points="33.4,2.9 35.1,1.9 33.4,0.9 						"/>
						<polygon class="st9" points="33.4,0.9 35.1,0 33.4,-1 						"/>
						<polygon class="st9" points="33.4,-1 35.1,-2 33.4,-2.9 						"/>
						<polygon class="st10" points="33.4,-2.9 35.1,-3.9 33.4,-4.9 						"/>
						<polygon class="st10" points="35.1,-5.9 33.4,-4.9 35.1,-3.9 						"/>
						<polygon class="st11" points="35.1,-3.9 33.4,-2.9 35.1,-2 						"/>
						<polygon class="st9" points="35.1,-2 33.4,-1 35.1,0 						"/>
						<polygon class="st11" points="35.1,0 33.4,0.9 35.1,1.9 						"/>
						<polygon class="st10" points="35.1,1.9 33.4,2.9 35.1,3.8 						"/>
						<polygon class="st10" points="35.1,3.8 33.4,4.8 35.1,5.8 						"/>
						<polygon class="st10" points="35.1,5.8 33.4,6.8 35.1,7.7 						"/>
						<polygon class="st10" points="35.1,7.7 33.4,8.7 35.1,9.7 						"/>
						<polygon class="st9" points="35.1,9.7 33.4,10.6 35.1,11.6 						"/>
						<polygon class="st11" points="35.1,11.6 33.4,12.6 35.1,13.5 						"/>
						<polygon class="st10" points="35.1,13.5 33.4,14.5 35.1,15.5 						"/>
						<polygon class="st11" points="35.1,15.5 33.4,16.4 35.1,17.4 						"/>
						<polygon class="st10" points="35.1,17.4 33.4,18.4 35.1,19.4 						"/>
						<polygon class="st10" points="35.1,19.4 33.4,20.3 35.1,21.3 						"/>
						<polygon class="st10" points="35.1,21.3 33.4,22.3 35.1,23.2 						"/>
						<polygon class="st10" points="35.1,23.2 33.4,24.2 35.1,25.2 						"/>
						<polygon class="st11" points="35.1,25.2 33.4,26.1 35.1,27.1 						"/>
						<polygon class="st9" points="35.1,27.1 33.4,28.1 35.1,29 						"/>
						<polygon class="st10" points="35.1,29 33.4,30 35.1,31 						"/>
						<polygon class="st10" points="35.1,31 33.4,32 35.1,32.9 						"/>
						<polygon class="st10" points="35.1,32.9 33.4,33.9 35.1,34.9 						"/>
						<polygon class="st9" points="31.7,36.8 33.4,35.8 31.7,34.9 						"/>
						<polygon class="st9" points="31.7,34.9 33.4,33.9 31.7,32.9 						"/>
						<polygon class="st9" points="31.7,32.9 33.4,32 31.7,31 						"/>
						<polygon class="st11" points="31.7,31 33.4,30 31.7,29.1 						"/>
						<polygon class="st10" points="31.7,29.1 33.4,28.1 31.7,27.1 						"/>
						<polygon class="st11" points="31.7,27.1 33.4,26.1 31.7,25.2 						"/>
						<polygon class="st10" points="31.7,25.2 33.4,24.2 31.7,23.2 						"/>
						<polygon class="st10" points="31.7,23.2 33.4,22.3 31.7,21.3 						"/>
						<polygon class="st11" points="31.7,21.3 33.4,20.3 31.7,19.4 						"/>
						<polygon class="st9" points="31.7,19.4 33.4,18.4 31.7,17.4 						"/>
						<polygon class="st10" points="31.7,17.4 33.4,16.5 31.7,15.5 						"/>
						<polygon class="st10" points="31.7,15.5 33.4,14.5 31.7,13.5 						"/>
						<polygon class="st10" points="31.7,13.5 33.4,12.6 31.7,11.6 						"/>
						<polygon class="st11" points="31.7,11.6 33.4,10.6 31.7,9.7 						"/>
						<polygon class="st10" points="31.7,9.7 33.4,8.7 31.7,7.7 						"/>
						<polygon class="st9" points="31.7,7.7 33.4,6.8 31.7,5.8 						"/>
						<polygon class="st10" points="31.7,5.8 33.4,4.8 31.7,3.8 						"/>
						<polygon class="st10" points="31.7,3.8 33.4,2.9 31.7,1.9 						"/>
						<polygon class="st11" points="31.7,1.9 33.4,0.9 31.7,0 						"/>
						<polygon class="st9" points="31.7,0 33.4,-1 31.7,-2 						"/>
						<polygon class="st9" points="31.7,-2 33.4,-2.9 31.7,-3.9 						"/>
						<polygon class="st10" points="33.4,-4.9 31.7,-3.9 33.4,-2.9 						"/>
						<polygon class="st10" points="33.4,-2.9 31.7,-2 33.4,-1 						"/>
						<polygon class="st9" points="33.4,-1 31.7,0 33.4,0.9 						"/>
						<polygon class="st11" points="33.4,0.9 31.7,1.9 33.4,2.9 						"/>
						<polygon class="st10" points="33.4,2.9 31.7,3.8 33.4,4.8 						"/>
						<polygon class="st10" points="33.4,4.8 31.7,5.8 33.4,6.8 						"/>
						<polygon class="st10" points="33.4,6.8 31.7,7.7 33.4,8.7 						"/>
						<polygon class="st10" points="33.4,8.7 31.7,9.7 33.4,10.6 						"/>
						<polygon class="st9" points="33.4,10.6 31.7,11.6 33.4,12.6 						"/>
						<polygon class="st11" points="33.4,12.6 31.7,13.5 33.4,14.5 						"/>
						<polygon class="st10" points="33.4,14.5 31.7,15.5 33.4,16.5 						"/>
						<polygon class="st11" points="33.4,16.5 31.7,17.4 33.4,18.4 						"/>
						<polygon class="st9" points="33.4,18.4 31.7,19.4 33.4,20.3 						"/>
						<polygon class="st10" points="33.4,20.3 31.7,21.3 33.4,22.3 						"/>
						<polygon class="st10" points="33.4,22.3 31.7,23.2 33.4,24.2 						"/>
						<polygon class="st9" points="33.4,24.2 31.7,25.2 33.4,26.1 						"/>
						<polygon class="st11" points="33.4,26.1 31.7,27.1 33.4,28.1 						"/>
						<polygon class="st11" points="33.4,28.1 31.7,29.1 33.4,30 						"/>
						<polygon class="st11" points="33.4,30 31.7,31 33.4,32 						"/>
						<polygon class="st10" points="33.4,32 31.7,32.9 33.4,33.9 						"/>
						<polygon class="st11" points="33.4,33.9 31.7,34.9 33.4,35.8 						"/>
						<polygon class="st10" points="30.1,35.8 31.7,34.9 30.1,33.9 						"/>
						<polygon class="st10" points="30.1,33.9 31.7,32.9 30.1,32 						"/>
						<polygon class="st11" points="30.1,32 31.7,31 30.1,30 						"/>
						<polygon class="st10" points="30.1,30 31.7,29 30.1,28.1 						"/>
						<polygon class="st10" points="30.1,28.1 31.7,27.1 30.1,26.1 						"/>
						<polygon class="st10" points="30.1,26.1 31.7,25.2 30.1,24.2 						"/>
						<polygon class="st9" points="30.1,24.2 31.7,23.2 30.1,22.3 						"/>
						<polygon class="st9" points="30.1,22.3 31.7,21.3 30.1,20.3 						"/>
						<polygon class="st11" points="30.1,20.3 31.7,19.4 30.1,18.4 						"/>
						<polygon class="st11" points="30.1,18.4 31.7,17.4 30.1,16.4 						"/>
						<polygon class="st11" points="30.1,16.4 31.7,15.5 30.1,14.5 						"/>
						<polygon class="st9" points="30.1,14.5 31.7,13.5 30.1,12.6 						"/>
						<polygon class="st10" points="30.1,12.6 31.7,11.6 30.1,10.6 						"/>
						<polygon class="st11" points="30.1,10.6 31.7,9.7 30.1,8.7 						"/>
						<polygon class="st11" points="30.1,8.7 31.7,7.7 30.1,6.7 						"/>
						<polygon class="st10" points="30.1,6.7 31.7,5.8 30.1,4.8 						"/>
						<polygon class="st10" points="30.1,4.8 31.7,3.8 30.1,2.9 						"/>
						<polygon class="st11" points="30.1,2.9 31.7,1.9 30.1,0.9 						"/>
						<polygon class="st9" points="30.1,0.9 31.7,0 30.1,-1 						"/>
						<polygon class="st9" points="30.1,-1 31.7,-2 30.1,-2.9 						"/>
						<polygon class="st9" points="30.1,-2.9 31.7,-3.9 30.1,-4.9 						"/>
						<polygon class="st10" points="31.7,-5.9 30.1,-4.9 31.7,-3.9 						"/>
						<polygon class="st10" points="31.7,-3.9 30.1,-2.9 31.7,-2 						"/>
						<polygon class="st11" points="31.7,-2 30.1,-1 31.7,0 						"/>
						<polygon class="st9" points="31.7,0 30.1,0.9 31.7,1.9 						"/>
						<polygon class="st11" points="31.7,1.9 30.1,2.9 31.7,3.8 						"/>
						<polygon class="st9" points="31.7,3.8 30.1,4.8 31.7,5.8 						"/>
						<polygon class="st9" points="31.7,5.8 30.1,6.7 31.7,7.7 						"/>
						<polygon class="st9" points="31.7,7.7 30.1,8.7 31.7,9.7 						"/>
						<polygon class="st11" points="31.7,9.7 30.1,10.6 31.7,11.6 						"/>
						<polygon class="st10" points="31.7,11.6 30.1,12.6 31.7,13.5 						"/>
						<polygon class="st10" points="31.7,13.5 30.1,14.5 31.7,15.5 						"/>
						<polygon class="st9" points="31.7,15.5 30.1,16.4 31.7,17.4 						"/>
						<polygon class="st10" points="31.7,17.4 30.1,18.4 31.7,19.4 						"/>
						<polygon class="st10" points="31.7,19.4 30.1,20.3 31.7,21.3 						"/>
						<polygon class="st10" points="31.7,21.3 30.1,22.3 31.7,23.2 						"/>
						<polygon class="st9" points="31.7,23.2 30.1,24.2 31.7,25.2 						"/>
						<polygon class="st10" points="31.7,25.2 30.1,26.1 31.7,27.1 						"/>
						<polygon class="st9" points="31.7,27.1 30.1,28.1 31.7,29 						"/>
						<polygon class="st9" points="31.7,29 30.1,30 31.7,31 						"/>
						<polygon class="st9" points="31.7,31 30.1,32 31.7,32.9 						"/>
						<polygon class="st10" points="31.7,32.9 30.1,33.9 31.7,34.9 						"/>
						<polygon class="st10" points="28.4,36.8 30.1,35.8 28.4,34.9 						"/>
						<polygon class="st10" points="28.4,34.9 30.1,33.9 28.4,32.9 						"/>
						<polygon class="st9" points="28.4,32.9 30.1,32 28.4,31 						"/>
						<polygon class="st9" points="28.4,31 30.1,30 28.4,29.1 						"/>
						<polygon class="st10" points="28.4,29.1 30.1,28.1 28.4,27.1 						"/>
						<polygon class="st10" points="28.4,27.1 30.1,26.1 28.4,25.2 						"/>
						<polygon class="st10" points="28.4,25.2 30.1,24.2 28.4,23.2 						"/>
						<polygon class="st11" points="28.4,23.2 30.1,22.3 28.4,21.3 						"/>
						<polygon class="st10" points="28.4,21.3 30.1,20.3 28.4,19.4 						"/>
						<polygon class="st11" points="28.4,19.4 30.1,18.4 28.4,17.4 						"/>
						<polygon class="st9" points="28.4,17.4 30.1,16.4 28.4,15.5 						"/>
						<polygon class="st11" points="28.4,15.5 30.1,14.5 28.4,13.5 						"/>
						<polygon class="st10" points="28.4,13.5 30.1,12.6 28.4,11.6 						"/>
						<polygon class="st11" points="28.4,11.6 30.1,10.6 28.4,9.7 						"/>
						<polygon class="st10" points="28.4,9.7 30.1,8.7 28.4,7.7 						"/>
						<polygon class="st9" points="28.4,7.7 30.1,6.8 28.4,5.8 						"/>
						<polygon class="st11" points="28.4,5.8 30.1,4.8 28.4,3.8 						"/>
						<polygon class="st9" points="28.4,3.8 30.1,2.9 28.4,1.9 						"/>
						<polygon class="st10" points="28.4,1.9 30.1,0.9 28.4,0 						"/>
						<polygon class="st11" points="28.4,0 30.1,-1 28.4,-2 						"/>
						<polygon class="st10" points="28.4,-2 30.1,-2.9 28.4,-3.9 						"/>
						<polygon class="st11" points="30.1,-4.9 28.4,-3.9 30.1,-2.9 						"/>
						<polygon class="st10" points="30.1,-2.9 28.4,-2 30.1,-1 						"/>
						<polygon class="st10" points="30.1,-1 28.4,0 30.1,0.9 						"/>
						<polygon class="st11" points="30.1,0.9 28.4,1.9 30.1,2.9 						"/>
						<polygon class="st11" points="30.1,2.9 28.4,3.8 30.1,4.8 						"/>
						<polygon class="st11" points="30.1,4.8 28.4,5.8 30.1,6.8 						"/>
						<polygon class="st10" points="30.1,6.8 28.4,7.7 30.1,8.7 						"/>
						<polygon class="st10" points="30.1,8.7 28.4,9.7 30.1,10.6 						"/>
						<polygon class="st9" points="30.1,10.6 28.4,11.6 30.1,12.6 						"/>
						<polygon class="st11" points="30.1,12.6 28.4,13.5 30.1,14.5 						"/>
						<polygon class="st11" points="30.1,14.5 28.4,15.5 30.1,16.4 						"/>
						<polygon class="st11" points="30.1,16.4 28.4,17.4 30.1,18.4 						"/>
						<polygon class="st10" points="30.1,18.4 28.4,19.4 30.1,20.3 						"/>
						<polygon class="st10" points="30.1,20.3 28.4,21.3 30.1,22.3 						"/>
						<polygon class="st10" points="30.1,22.3 28.4,23.2 30.1,24.2 						"/>
						<polygon class="st11" points="30.1,24.2 28.4,25.2 30.1,26.1 						"/>
						<polygon class="st10" points="30.1,26.1 28.4,27.1 30.1,28.1 						"/>
						<polygon class="st9" points="30.1,28.1 28.4,29.1 30.1,30 						"/>
						<polygon class="st9" points="30.1,30 28.4,31 30.1,32 						"/>
						<polygon class="st10" points="30.1,32 28.4,32.9 30.1,33.9 						"/>
						<polygon class="st11" points="30.1,33.9 28.4,34.9 30.1,35.8 						"/>
						<polygon class="st11" points="26.7,35.8 28.4,34.9 26.7,33.9 						"/>
						<polygon class="st11" points="26.7,33.9 28.4,32.9 26.7,32 						"/>
						<polygon class="st11" points="26.7,32 28.4,31 26.7,30 						"/>
						<polygon class="st11" points="26.7,30 28.4,29.1 26.7,28.1 						"/>
						<polygon class="st10" points="26.7,28.1 28.4,27.1 26.7,26.1 						"/>
						<polygon class="st9" points="26.7,26.1 28.4,25.2 26.7,24.2 						"/>
						<polygon class="st9" points="26.7,24.2 28.4,23.2 26.7,22.3 						"/>
						<polygon class="st10" points="26.7,22.3 28.4,21.3 26.7,20.3 						"/>
						<polygon class="st10" points="26.7,20.3 28.4,19.4 26.7,18.4 						"/>
						<polygon class="st11" points="26.7,18.4 28.4,17.4 26.7,16.5 						"/>
						<polygon class="st11" points="26.7,16.5 28.4,15.5 26.7,14.5 						"/>
						<polygon class="st10" points="26.7,14.5 28.4,13.5 26.7,12.6 						"/>
						<polygon class="st9" points="26.7,12.6 28.4,11.6 26.7,10.6 						"/>
						<polygon class="st10" points="26.7,10.6 28.4,9.7 26.7,8.7 						"/>
						<polygon class="st11" points="26.7,8.7 28.4,7.7 26.7,6.8 						"/>
						<polygon class="st9" points="26.7,6.8 28.4,5.8 26.7,4.8 						"/>
						<polygon class="st11" points="26.7,4.8 28.4,3.8 26.7,2.9 						"/>
						<polygon class="st11" points="26.7,2.9 28.4,1.9 26.7,0.9 						"/>
						<polygon class="st11" points="26.7,0.9 28.4,0 26.7,-1 						"/>
						<polygon class="st9" points="26.7,-1 28.4,-2 26.7,-2.9 						"/>
						<polygon class="st11" points="26.7,-2.9 28.4,-3.9 26.7,-4.9 						"/>
						<polygon class="st9" points="28.4,-5.8 26.7,-4.9 28.4,-3.9 						"/>
						<polygon class="st10" points="28.4,-3.9 26.7,-2.9 28.4,-2 						"/>
						<polygon class="st10" points="28.4,-2 26.7,-1 28.4,0 						"/>
						<polygon class="st10" points="28.4,0 26.7,0.9 28.4,1.9 						"/>
						<polygon class="st10" points="28.4,1.9 26.7,2.9 28.4,3.8 						"/>
						<polygon class="st10" points="28.4,3.8 26.7,4.8 28.4,5.8 						"/>
						<polygon class="st10" points="28.4,5.8 26.7,6.8 28.4,7.7 						"/>
						<polygon class="st10" points="28.4,7.7 26.7,8.7 28.4,9.7 						"/>
						<polygon class="st10" points="28.4,9.7 26.7,10.6 28.4,11.6 						"/>
						<polygon class="st9" points="28.4,11.6 26.7,12.6 28.4,13.5 						"/>
						<polygon class="st10" points="28.4,13.5 26.7,14.5 28.4,15.5 						"/>
						<polygon class="st10" points="28.4,15.5 26.7,16.5 28.4,17.4 						"/>
						<polygon class="st10" points="28.4,17.4 26.7,18.4 28.4,19.4 						"/>
						<polygon class="st10" points="28.4,19.4 26.7,20.3 28.4,21.3 						"/>
						<polygon class="st10" points="28.4,21.3 26.7,22.3 28.4,23.2 						"/>
						<polygon class="st10" points="28.4,23.2 26.7,24.2 28.4,25.2 						"/>
						<polygon class="st9" points="28.4,25.2 26.7,26.1 28.4,27.1 						"/>
						<polygon class="st10" points="28.4,27.1 26.7,28.1 28.4,29.1 						"/>
						<polygon class="st10" points="28.4,29.1 26.7,30 28.4,31 						"/>
						<polygon class="st11" points="28.4,31 26.7,32 28.4,32.9 						"/>
						<polygon class="st11" points="28.4,32.9 26.7,33.9 28.4,34.9 						"/>
						<polygon class="st10" points="25,36.8 26.7,35.8 25,34.9 						"/>
						<polygon class="st11" points="25,34.9 26.7,33.9 25,32.9 						"/>
						<polygon class="st10" points="25,32.9 26.7,32 25,31 						"/>
						<polygon class="st10" points="25,31 26.7,30 25,29.1 						"/>
						<polygon class="st11" points="25,29.1 26.7,28.1 25,27.1 						"/>
						<polygon class="st10" points="25,27.1 26.7,26.2 25,25.2 						"/>
						<polygon class="st10" points="25,25.2 26.7,24.2 25,23.2 						"/>
						<polygon class="st10" points="25,23.2 26.7,22.3 25,21.3 						"/>
						<polygon class="st9" points="25,21.3 26.7,20.3 25,19.4 						"/>
						<polygon class="st10" points="25,19.4 26.7,18.4 25,17.4 						"/>
						<polygon class="st11" points="25,17.4 26.7,16.5 25,15.5 						"/>
						<polygon class="st10" points="25,15.5 26.7,14.5 25,13.5 						"/>
						<polygon class="st10" points="25,13.5 26.7,12.6 25,11.6 						"/>
						<polygon class="st10" points="25,11.6 26.7,10.6 25,9.7 						"/>
						<polygon class="st11" points="25,9.7 26.7,8.7 25,7.7 						"/>
						<polygon class="st11" points="25,7.7 26.7,6.8 25,5.8 						"/>
						<polygon class="st11" points="25,5.8 26.7,4.8 25,3.9 						"/>
						<polygon class="st9" points="25,3.9 26.7,2.9 25,1.9 						"/>
						<polygon class="st11" points="25,1.9 26.7,0.9 25,0 						"/>
						<polygon class="st11" points="25,0 26.7,-1 25,-2 						"/>
						<polygon class="st11" points="25,-2 26.7,-2.9 25,-3.9 						"/>
						<polygon class="st9" points="26.7,-4.9 25,-3.9 26.7,-2.9 						"/>
						<polygon class="st9" points="26.7,-2.9 25,-2 26.7,-1 						"/>
						<polygon class="st11" points="26.7,-1 25,0 26.7,0.9 						"/>
						<polygon class="st10" points="26.7,0.9 25,1.9 26.7,2.9 						"/>
						<polygon class="st9" points="26.7,2.9 25,3.9 26.7,4.8 						"/>
						<polygon class="st11" points="26.7,4.8 25,5.8 26.7,6.8 						"/>
						<polygon class="st10" points="26.7,6.8 25,7.7 26.7,8.7 						"/>
						<polygon class="st10" points="26.7,8.7 25,9.7 26.7,10.6 						"/>
						<polygon class="st10" points="26.7,10.6 25,11.6 26.7,12.6 						"/>
						<polygon class="st10" points="26.7,12.6 25,13.5 26.7,14.5 						"/>
						<polygon class="st10" points="26.7,14.5 25,15.5 26.7,16.5 						"/>
						<polygon class="st10" points="26.7,16.5 25,17.4 26.7,18.4 						"/>
						<polygon class="st11" points="26.7,18.4 25,19.4 26.7,20.3 						"/>
						<polygon class="st9" points="26.7,20.3 25,21.3 26.7,22.3 						"/>
						<polygon class="st9" points="26.7,22.3 25,23.2 26.7,24.2 						"/>
						<polygon class="st10" points="26.7,24.2 25,25.2 26.7,26.2 						"/>
						<polygon class="st10" points="26.7,26.2 25,27.1 26.7,28.1 						"/>
						<polygon class="st11" points="26.7,28.1 25,29.1 26.7,30 						"/>
						<polygon class="st11" points="26.7,30 25,31 26.7,32 						"/>
						<polygon class="st11" points="26.7,32 25,32.9 26.7,33.9 						"/>
						<polygon class="st11" points="26.7,33.9 25,34.9 26.7,35.8 						"/>
						<polygon class="st10" points="23.4,35.8 25,34.9 23.4,33.9 						"/>
						<polygon class="st10" points="23.4,33.9 25,32.9 23.4,32 						"/>
						<polygon class="st10" points="23.4,32 25,31 23.4,30 						"/>
						<polygon class="st11" points="23.4,30 25,29 23.4,28.1 						"/>
						<polygon class="st9" points="23.4,28.1 25,27.1 23.4,26.1 						"/>
						<polygon class="st10" points="23.4,26.1 25,25.2 23.4,24.2 						"/>
						<polygon class="st10" points="23.4,24.2 25,23.2 23.4,22.3 						"/>
						<polygon class="st10" points="23.4,22.3 25,21.3 23.4,20.3 						"/>
						<polygon class="st10" points="23.4,20.3 25,19.4 23.4,18.4 						"/>
						<polygon class="st10" points="23.4,18.4 25,17.4 23.4,16.4 						"/>
						<polygon class="st9" points="23.4,16.4 25,15.5 23.4,14.5 						"/>
						<polygon class="st9" points="23.4,14.5 25,13.5 23.4,12.6 						"/>
						<polygon class="st10" points="23.4,12.6 25,11.6 23.4,10.6 						"/>
						<polygon class="st10" points="23.4,10.6 25,9.7 23.4,8.7 						"/>
						<polygon class="st10" points="23.4,8.7 25,7.7 23.4,6.8 						"/>
						<polygon class="st11" points="23.4,6.8 25,5.8 23.4,4.8 						"/>
						<polygon class="st9" points="23.4,4.8 25,3.8 23.4,2.9 						"/>
						<polygon class="st10" points="23.4,2.9 25,1.9 23.4,0.9 						"/>
						<polygon class="st10" points="23.4,0.9 25,0 23.4,-1 						"/>
						<polygon class="st10" points="23.4,-1 25,-2 23.4,-2.9 						"/>
						<polygon class="st9" points="23.4,-2.9 25,-3.9 23.4,-4.9 						"/>
						<polygon class="st11" points="25,-5.8 23.4,-4.9 25,-3.9 						"/>
						<polygon class="st9" points="25,-3.9 23.4,-2.9 25,-2 						"/>
						<polygon class="st11" points="25,-2 23.4,-1 25,0 						"/>
						<polygon class="st10" points="25,0 23.4,0.9 25,1.9 						"/>
						<polygon class="st10" points="25,1.9 23.4,2.9 25,3.8 						"/>
						<polygon class="st9" points="25,3.8 23.4,4.8 25,5.8 						"/>
						<polygon class="st10" points="25,5.8 23.4,6.8 25,7.7 						"/>
						<polygon class="st9" points="25,7.7 23.4,8.7 25,9.7 						"/>
						<polygon class="st10" points="25,9.7 23.4,10.6 25,11.6 						"/>
						<polygon class="st10" points="25,11.6 23.4,12.6 25,13.5 						"/>
						<polygon class="st10" points="25,13.5 23.4,14.5 25,15.5 						"/>
						<polygon class="st9" points="25,15.5 23.4,16.4 25,17.4 						"/>
						<polygon class="st10" points="25,17.4 23.4,18.4 25,19.4 						"/>
						<polygon class="st10" points="25,19.4 23.4,20.3 25,21.3 						"/>
						<polygon class="st9" points="25,21.3 23.4,22.3 25,23.2 						"/>
						<polygon class="st11" points="25,23.2 23.4,24.2 25,25.2 						"/>
						<polygon class="st10" points="25,25.2 23.4,26.1 25,27.1 						"/>
						<polygon class="st10" points="25,27.1 23.4,28.1 25,29 						"/>
						<polygon class="st10" points="25,29 23.4,30 25,31 						"/>
						<polygon class="st9" points="25,31 23.4,32 25,32.9 						"/>
						<polygon class="st10" points="25,32.9 23.4,33.9 25,34.9 						"/>
						<polygon class="st10" points="21.7,36.8 23.4,35.8 21.7,34.9 						"/>
						<polygon class="st10" points="21.7,34.9 23.4,33.9 21.7,32.9 						"/>
						<polygon class="st11" points="21.7,32.9 23.4,32 21.7,31 						"/>
						<polygon class="st10" points="21.7,31 23.4,30 21.7,29.1 						"/>
						<polygon class="st9" points="21.7,29.1 23.4,28.1 21.7,27.1 						"/>
						<polygon class="st9" points="21.7,27.1 23.4,26.1 21.7,25.2 						"/>
						<polygon class="st10" points="21.7,25.2 23.4,24.2 21.7,23.2 						"/>
						<polygon class="st9" points="21.7,23.2 23.4,22.3 21.7,21.3 						"/>
						<polygon class="st9" points="21.7,21.3 23.4,20.3 21.7,19.4 						"/>
						<polygon class="st9" points="21.7,19.4 23.4,18.4 21.7,17.4 						"/>
						<polygon class="st11" points="21.7,17.4 23.4,16.5 21.7,15.5 						"/>
						<polygon class="st10" points="21.7,15.5 23.4,14.5 21.7,13.5 						"/>
						<polygon class="st11" points="21.7,13.5 23.4,12.6 21.7,11.6 						"/>
						<polygon class="st10" points="21.7,11.6 23.4,10.6 21.7,9.7 						"/>
						<polygon class="st10" points="21.7,9.7 23.4,8.7 21.7,7.7 						"/>
						<polygon class="st9" points="21.7,7.7 23.4,6.8 21.7,5.8 						"/>
						<polygon class="st10" points="21.7,5.8 23.4,4.8 21.7,3.9 						"/>
						<polygon class="st11" points="21.7,3.9 23.4,2.9 21.7,1.9 						"/>
						<polygon class="st11" points="21.7,1.9 23.4,0.9 21.7,0 						"/>
						<polygon class="st9" points="21.7,0 23.4,-1 21.7,-2 						"/>
						<polygon class="st10" points="21.7,-2 23.4,-2.9 21.7,-3.9 						"/>
						<polygon class="st10" points="23.4,-4.9 21.7,-3.9 23.4,-2.9 						"/>
						<polygon class="st9" points="23.4,-2.9 21.7,-2 23.4,-1 						"/>
						<polygon class="st10" points="23.4,-1 21.7,0 23.4,0.9 						"/>
						<polygon class="st11" points="23.4,0.9 21.7,1.9 23.4,2.9 						"/>
						<polygon class="st9" points="23.4,2.9 21.7,3.9 23.4,4.8 						"/>
						<polygon class="st9" points="23.4,4.8 21.7,5.8 23.4,6.8 						"/>
						<polygon class="st9" points="23.4,6.8 21.7,7.7 23.4,8.7 						"/>
						<polygon class="st10" points="23.4,8.7 21.7,9.7 23.4,10.6 						"/>
						<polygon class="st10" points="23.4,10.6 21.7,11.6 23.4,12.6 						"/>
						<polygon class="st10" points="23.4,12.6 21.7,13.5 23.4,14.5 						"/>
						<polygon class="st10" points="23.4,14.5 21.7,15.5 23.4,16.5 						"/>
						<polygon class="st11" points="23.4,16.5 21.7,17.4 23.4,18.4 						"/>
						<polygon class="st10" points="23.4,18.4 21.7,19.4 23.4,20.3 						"/>
						<polygon class="st11" points="23.4,20.3 21.7,21.3 23.4,22.3 						"/>
						<polygon class="st9" points="23.4,22.3 21.7,23.2 23.4,24.2 						"/>
						<polygon class="st11" points="23.4,24.2 21.7,25.2 23.4,26.1 						"/>
						<polygon class="st9" points="23.4,26.1 21.7,27.1 23.4,28.1 						"/>
						<polygon class="st10" points="23.4,28.1 21.7,29.1 23.4,30 						"/>
						<polygon class="st9" points="23.4,30 21.7,31 23.4,32 						"/>
						<polygon class="st10" points="23.4,32 21.7,32.9 23.4,33.9 						"/>
						<polygon class="st10" points="23.4,33.9 21.7,34.9 23.4,35.8 						"/>
						<polygon class="st9" points="20,35.8 21.7,34.9 20,33.9 						"/>
						<polygon class="st9" points="20,33.9 21.7,32.9 20,32 						"/>
						<polygon class="st10" points="20,32 21.7,31 20,30 						"/>
						<polygon class="st10" points="20,30 21.7,29.1 20,28.1 						"/>
						<polygon class="st10" points="20,28.1 21.7,27.1 20,26.1 						"/>
						<polygon class="st10" points="20,26.1 21.7,25.2 20,24.2 						"/>
						<polygon class="st10" points="20,24.2 21.7,23.2 20,22.3 						"/>
						<polygon class="st10" points="20,22.3 21.7,21.3 20,20.3 						"/>
						<polygon class="st10" points="20,20.3 21.7,19.4 20,18.4 						"/>
						<polygon class="st10" points="20,18.4 21.7,17.4 20,16.5 						"/>
						<polygon class="st10" points="20,16.5 21.7,15.5 20,14.5 						"/>
						<polygon class="st11" points="20,14.5 21.7,13.5 20,12.6 						"/>
						<polygon class="st11" points="20,12.6 21.7,11.6 20,10.6 						"/>
						<polygon class="st9" points="20,10.6 21.7,9.7 20,8.7 						"/>
						<polygon class="st9" points="20,8.7 21.7,7.7 20,6.8 						"/>
						<polygon class="st9" points="20,6.8 21.7,5.8 20,4.8 						"/>
						<polygon class="st11" points="20,4.8 21.7,3.9 20,2.9 						"/>
						<polygon class="st11" points="20,2.9 21.7,1.9 20,0.9 						"/>
						<polygon class="st11" points="20,0.9 21.7,0 20,-1 						"/>
						<polygon class="st11" points="20,-1 21.7,-2 20,-2.9 						"/>
						<polygon class="st11" points="20,-2.9 21.7,-3.9 20,-4.9 						"/>
						<polygon class="st10" points="21.7,-5.8 20,-4.9 21.7,-3.9 						"/>
						<polygon class="st11" points="21.7,-3.9 20,-2.9 21.7,-2 						"/>
						<polygon class="st11" points="21.7,-2 20,-1 21.7,0 						"/>
						<polygon class="st10" points="21.7,0 20,0.9 21.7,1.9 						"/>
						<polygon class="st10" points="21.7,1.9 20,2.9 21.7,3.9 						"/>
						<polygon class="st10" points="21.7,3.9 20,4.8 21.7,5.8 						"/>
						<polygon class="st10" points="21.7,5.8 20,6.8 21.7,7.7 						"/>
						<polygon class="st9" points="21.7,7.7 20,8.7 21.7,9.7 						"/>
						<polygon class="st10" points="21.7,9.7 20,10.6 21.7,11.6 						"/>
						<polygon class="st9" points="21.7,11.6 20,12.6 21.7,13.5 						"/>
						<polygon class="st11" points="21.7,13.5 20,14.5 21.7,15.5 						"/>
						<polygon class="st11" points="21.7,15.5 20,16.5 21.7,17.4 						"/>
						<polygon class="st11" points="21.7,17.4 20,18.4 21.7,19.4 						"/>
						<polygon class="st11" points="21.7,19.4 20,20.3 21.7,21.3 						"/>
						<polygon class="st10" points="21.7,21.3 20,22.3 21.7,23.2 						"/>
						<polygon class="st10" points="21.7,23.2 20,24.2 21.7,25.2 						"/>
						<polygon class="st10" points="21.7,25.2 20,26.1 21.7,27.1 						"/>
						<polygon class="st10" points="21.7,27.1 20,28.1 21.7,29.1 						"/>
						<polygon class="st10" points="21.7,29.1 20,30 21.7,31 						"/>
						<polygon class="st10" points="21.7,31 20,32 21.7,32.9 						"/>
						<polygon class="st10" points="21.7,32.9 20,33.9 21.7,34.9 						"/>
						<polygon class="st11" points="18.4,36.8 20,35.8 18.4,34.9 						"/>
						<polygon class="st10" points="18.4,34.9 20,33.9 18.4,32.9 						"/>
						<polygon class="st9" points="18.4,32.9 20,32 18.4,31 						"/>
						<polygon class="st10" points="18.4,31 20,30 18.4,29.1 						"/>
						<polygon class="st9" points="18.4,29.1 20,28.1 18.4,27.1 						"/>
						<polygon class="st11" points="18.4,27.1 20,26.2 18.4,25.2 						"/>
						<polygon class="st11" points="18.4,25.2 20,24.2 18.4,23.2 						"/>
						<polygon class="st10" points="18.4,23.2 20,22.3 18.4,21.3 						"/>
						<polygon class="st10" points="18.4,21.3 20,20.3 18.4,19.4 						"/>
						<polygon class="st11" points="18.4,19.4 20,18.4 18.4,17.4 						"/>
						<polygon class="st11" points="18.4,17.4 20,16.5 18.4,15.5 						"/>
						<polygon class="st10" points="18.4,15.5 20,14.5 18.4,13.6 						"/>
						<polygon class="st10" points="18.4,13.6 20,12.6 18.4,11.6 						"/>
						<polygon class="st11" points="18.4,11.6 20,10.6 18.4,9.7 						"/>
						<polygon class="st10" points="18.4,9.7 20,8.7 18.4,7.7 						"/>
						<polygon class="st10" points="18.4,7.7 20,6.8 18.4,5.8 						"/>
						<polygon class="st11" points="18.4,5.8 20,4.8 18.4,3.9 						"/>
						<polygon class="st11" points="18.4,3.9 20,2.9 18.4,1.9 						"/>
						<polygon class="st9" points="18.4,1.9 20,0.9 18.4,0 						"/>
						<polygon class="st10" points="18.4,0 20,-1 18.4,-2 						"/>
						<polygon class="st9" points="18.4,-2 20,-2.9 18.4,-3.9 						"/>
						<polygon class="st10" points="20,-4.9 18.4,-3.9 20,-2.9 						"/>
						<polygon class="st10" points="20,-2.9 18.4,-2 20,-1 						"/>
						<polygon class="st11" points="20,-1 18.4,0 20,0.9 						"/>
						<polygon class="st11" points="20,0.9 18.4,1.9 20,2.9 						"/>
						<polygon class="st11" points="20,2.9 18.4,3.9 20,4.8 						"/>
						<polygon class="st10" points="20,4.8 18.4,5.8 20,6.8 						"/>
						<polygon class="st9" points="20,6.8 18.4,7.7 20,8.7 						"/>
						<polygon class="st11" points="20,8.7 18.4,9.7 20,10.6 						"/>
						<polygon class="st9" points="20,10.6 18.4,11.6 20,12.6 						"/>
						<polygon class="st10" points="20,12.6 18.4,13.6 20,14.5 						"/>
						<polygon class="st10" points="20,14.5 18.4,15.5 20,16.5 						"/>
						<polygon class="st11" points="20,16.5 18.4,17.4 20,18.4 						"/>
						<polygon class="st11" points="20,18.4 18.4,19.4 20,20.3 						"/>
						<polygon class="st11" points="20,20.3 18.4,21.3 20,22.3 						"/>
						<polygon class="st11" points="20,22.3 18.4,23.2 20,24.2 						"/>
						<polygon class="st11" points="20,24.2 18.4,25.2 20,26.2 						"/>
						<polygon class="st11" points="20,26.2 18.4,27.1 20,28.1 						"/>
						<polygon class="st10" points="20,28.1 18.4,29.1 20,30 						"/>
						<polygon class="st10" points="20,30 18.4,31 20,32 						"/>
						<polygon class="st10" points="20,32 18.4,32.9 20,33.9 						"/>
						<polygon class="st11" points="20,33.9 18.4,34.9 20,35.8 						"/>
						<polygon class="st10" points="16.7,35.8 18.4,34.9 16.7,33.9 						"/>
						<polygon class="st9" points="16.7,33.9 18.4,32.9 16.7,32 						"/>
						<polygon class="st10" points="16.7,32 18.4,31 16.7,30 						"/>
						<polygon class="st9" points="16.7,30 18.4,29.1 16.7,28.1 						"/>
						<polygon class="st9" points="16.7,28.1 18.4,27.1 16.7,26.1 						"/>
						<polygon class="st11" points="16.7,26.1 18.4,25.2 16.7,24.2 						"/>
						<polygon class="st9" points="16.7,24.2 18.4,23.2 16.7,22.3 						"/>
						<polygon class="st10" points="16.7,22.3 18.4,21.3 16.7,20.3 						"/>
						<polygon class="st10" points="16.7,20.3 18.4,19.4 16.7,18.4 						"/>
						<polygon class="st10" points="16.7,18.4 18.4,17.4 16.7,16.5 						"/>
						<polygon class="st10" points="16.7,16.5 18.4,15.5 16.7,14.5 						"/>
						<polygon class="st10" points="16.7,14.5 18.4,13.5 16.7,12.6 						"/>
						<polygon class="st11" points="16.7,12.6 18.4,11.6 16.7,10.6 						"/>
						<polygon class="st11" points="16.7,10.6 18.4,9.7 16.7,8.7 						"/>
						<polygon class="st11" points="16.7,8.7 18.4,7.7 16.7,6.8 						"/>
						<polygon class="st10" points="16.7,6.8 18.4,5.8 16.7,4.8 						"/>
						<polygon class="st11" points="16.7,4.8 18.4,3.8 16.7,2.9 						"/>
						<polygon class="st10" points="16.7,2.9 18.4,1.9 16.7,0.9 						"/>
						<polygon class="st10" points="16.7,0.9 18.4,0 16.7,-1 						"/>
						<polygon class="st9" points="16.7,-1 18.4,-2 16.7,-2.9 						"/>
						<polygon class="st10" points="16.7,-2.9 18.4,-3.9 16.7,-4.9 						"/>
						<polygon class="st9" points="18.4,-5.8 16.7,-4.9 18.4,-3.9 						"/>
						<polygon class="st11" points="18.4,-3.9 16.7,-2.9 18.4,-2 						"/>
						<polygon class="st11" points="18.4,-2 16.7,-1 18.4,0 						"/>
						<polygon class="st9" points="18.4,0 16.7,0.9 18.4,1.9 						"/>
						<polygon class="st11" points="18.4,1.9 16.7,2.9 18.4,3.8 						"/>
						<polygon class="st9" points="18.4,3.8 16.7,4.8 18.4,5.8 						"/>
						<polygon class="st11" points="18.4,5.8 16.7,6.8 18.4,7.7 						"/>
						<polygon class="st10" points="18.4,7.7 16.7,8.7 18.4,9.7 						"/>
						<polygon class="st11" points="18.4,9.7 16.7,10.6 18.4,11.6 						"/>
						<polygon class="st10" points="18.4,11.6 16.7,12.6 18.4,13.5 						"/>
						<polygon class="st10" points="18.4,13.5 16.7,14.5 18.4,15.5 						"/>
						<polygon class="st10" points="18.4,15.5 16.7,16.5 18.4,17.4 						"/>
						<polygon class="st10" points="18.4,17.4 16.7,18.4 18.4,19.4 						"/>
						<polygon class="st10" points="18.4,19.4 16.7,20.3 18.4,21.3 						"/>
						<polygon class="st11" points="18.4,21.3 16.7,22.3 18.4,23.2 						"/>
						<polygon class="st10" points="18.4,23.2 16.7,24.2 18.4,25.2 						"/>
						<polygon class="st10" points="18.4,25.2 16.7,26.1 18.4,27.1 						"/>
						<polygon class="st9" points="18.4,27.1 16.7,28.1 18.4,29.1 						"/>
						<polygon class="st9" points="18.4,29.1 16.7,30 18.4,31 						"/>
						<polygon class="st9" points="18.4,31 16.7,32 18.4,32.9 						"/>
						<polygon class="st9" points="18.4,32.9 16.7,33.9 18.4,34.9 						"/>
						<polygon class="st10" points="15,36.8 16.7,35.8 15,34.9 						"/>
						<polygon class="st10" points="15,34.9 16.7,33.9 15,32.9 						"/>
						<polygon class="st10" points="15,32.9 16.7,32 15,31 						"/>
						<polygon class="st9" points="15,31 16.7,30 15,29.1 						"/>
						<polygon class="st11" points="15,29.1 16.7,28.1 15,27.1 						"/>
						<polygon class="st10" points="15,27.1 16.7,26.2 15,25.2 						"/>
						<polygon class="st10" points="15,25.2 16.7,24.2 15,23.2 						"/>
						<polygon class="st10" points="15,23.2 16.7,22.3 15,21.3 						"/>
						<polygon class="st9" points="15,21.3 16.7,20.3 15,19.4 						"/>
						<polygon class="st10" points="15,19.4 16.7,18.4 15,17.4 						"/>
						<polygon class="st10" points="15,17.4 16.7,16.5 15,15.5 						"/>
						<polygon class="st10" points="15,15.5 16.7,14.5 15,13.5 						"/>
						<polygon class="st10" points="15,13.5 16.7,12.6 15,11.6 						"/>
						<polygon class="st10" points="15,11.6 16.7,10.6 15,9.7 						"/>
						<polygon class="st10" points="15,9.7 16.7,8.7 15,7.7 						"/>
						<polygon class="st10" points="15,7.7 16.7,6.8 15,5.8 						"/>
						<polygon class="st10" points="15,5.8 16.7,4.8 15,3.9 						"/>
						<polygon class="st10" points="15,3.9 16.7,2.9 15,1.9 						"/>
						<polygon class="st10" points="15,1.9 16.7,0.9 15,0 						"/>
						<polygon class="st11" points="15,0 16.7,-1 15,-2 						"/>
						<polygon class="st10" points="15,-2 16.7,-2.9 15,-3.9 						"/>
						<polygon class="st11" points="16.7,-4.9 15,-3.9 16.7,-2.9 						"/>
						<polygon class="st11" points="16.7,-2.9 15,-2 16.7,-1 						"/>
						<polygon class="st9" points="16.7,-1 15,0 16.7,0.9 						"/>
						<polygon class="st9" points="16.7,0.9 15,1.9 16.7,2.9 						"/>
						<polygon class="st10" points="16.7,2.9 15,3.9 16.7,4.8 						"/>
						<polygon class="st11" points="16.7,4.8 15,5.8 16.7,6.8 						"/>
						<polygon class="st9" points="16.7,6.8 15,7.7 16.7,8.7 						"/>
						<polygon class="st10" points="16.7,8.7 15,9.7 16.7,10.6 						"/>
						<polygon class="st10" points="16.7,10.6 15,11.6 16.7,12.6 						"/>
						<polygon class="st11" points="16.7,12.6 15,13.5 16.7,14.5 						"/>
						<polygon class="st10" points="16.7,14.5 15,15.5 16.7,16.5 						"/>
						<polygon class="st11" points="16.7,16.5 15,17.4 16.7,18.4 						"/>
						<polygon class="st10" points="16.7,18.4 15,19.4 16.7,20.3 						"/>
						<polygon class="st11" points="16.7,20.3 15,21.3 16.7,22.3 						"/>
						<polygon class="st10" points="16.7,22.3 15,23.2 16.7,24.2 						"/>
						<polygon class="st9" points="16.7,24.2 15,25.2 16.7,26.2 						"/>
						<polygon class="st11" points="16.7,26.2 15,27.1 16.7,28.1 						"/>
						<polygon class="st10" points="16.7,28.1 15,29.1 16.7,30 						"/>
						<polygon class="st11" points="16.7,30 15,31 16.7,32 						"/>
						<polygon class="st9" points="16.7,32 15,32.9 16.7,33.9 						"/>
						<polygon class="st9" points="16.7,33.9 15,34.9 16.7,35.8 						"/>
						<polygon class="st10" points="13.4,35.8 15,34.9 13.4,33.9 						"/>
						<polygon class="st9" points="13.4,33.9 15,32.9 13.4,32 						"/>
						<polygon class="st11" points="13.4,32 15,31 13.4,30 						"/>
						<polygon class="st9" points="13.4,30 15,29.1 13.4,28.1 						"/>
						<polygon class="st10" points="13.4,28.1 15,27.1 13.4,26.2 						"/>
						<polygon class="st10" points="13.4,26.2 15,25.2 13.4,24.2 						"/>
						<polygon class="st10" points="13.4,24.2 15,23.2 13.4,22.3 						"/>
						<polygon class="st9" points="13.4,22.3 15,21.3 13.4,20.3 						"/>
						<polygon class="st10" points="13.4,20.3 15,19.4 13.4,18.4 						"/>
						<polygon class="st11" points="13.4,18.4 15,17.4 13.4,16.5 						"/>
						<polygon class="st10" points="13.4,16.5 15,15.5 13.4,14.5 						"/>
						<polygon class="st10" points="13.4,14.5 15,13.5 13.4,12.6 						"/>
						<polygon class="st10" points="13.4,12.6 15,11.6 13.4,10.6 						"/>
						<polygon class="st9" points="13.4,10.6 15,9.7 13.4,8.7 						"/>
						<polygon class="st11" points="13.4,8.7 15,7.7 13.4,6.8 						"/>
						<polygon class="st9" points="13.4,6.8 15,5.8 13.4,4.8 						"/>
						<polygon class="st9" points="13.4,4.8 15,3.9 13.4,2.9 						"/>
						<polygon class="st9" points="13.4,2.9 15,1.9 13.4,0.9 						"/>
						<polygon class="st11" points="13.4,0.9 15,0 13.4,-1 						"/>
						<polygon class="st10" points="13.4,-1 15,-2 13.4,-2.9 						"/>
						<polygon class="st9" points="13.4,-2.9 15,-3.9 13.4,-4.9 						"/>
						<polygon class="st10" points="15,-5.8 13.4,-4.9 15,-3.9 						"/>
						<polygon class="st10" points="15,-3.9 13.4,-2.9 15,-2 						"/>
						<polygon class="st10" points="15,-2 13.4,-1 15,0 						"/>
						<polygon class="st11" points="15,0 13.4,0.9 15,1.9 						"/>
						<polygon class="st10" points="15,1.9 13.4,2.9 15,3.9 						"/>
						<polygon class="st10" points="15,3.9 13.4,4.8 15,5.8 						"/>
						<polygon class="st11" points="15,5.8 13.4,6.8 15,7.7 						"/>
						<polygon class="st9" points="15,7.7 13.4,8.7 15,9.7 						"/>
						<polygon class="st9" points="15,9.7 13.4,10.6 15,11.6 						"/>
						<polygon class="st10" points="15,11.6 13.4,12.6 15,13.5 						"/>
						<polygon class="st10" points="15,13.5 13.4,14.5 15,15.5 						"/>
						<polygon class="st10" points="15,15.5 13.4,16.5 15,17.4 						"/>
						<polygon class="st11" points="15,17.4 13.4,18.4 15,19.4 						"/>
						<polygon class="st10" points="15,19.4 13.4,20.3 15,21.3 						"/>
						<polygon class="st10" points="15,21.3 13.4,22.3 15,23.2 						"/>
						<polygon class="st11" points="15,23.2 13.4,24.2 15,25.2 						"/>
						<polygon class="st11" points="15,25.2 13.4,26.2 15,27.1 						"/>
						<polygon class="st9" points="15,27.1 13.4,28.1 15,29.1 						"/>
						<polygon class="st9" points="15,29.1 13.4,30 15,31 						"/>
						<polygon class="st10" points="15,31 13.4,32 15,32.9 						"/>
						<polygon class="st10" points="15,32.9 13.4,33.9 15,34.9 						"/>
						<polygon class="st9" points="11.7,36.8 13.4,35.9 11.7,34.9 						"/>
						<polygon class="st10" points="11.7,34.9 13.4,33.9 11.7,32.9 						"/>
						<polygon class="st11" points="11.7,32.9 13.4,32 11.7,31 						"/>
						<polygon class="st9" points="11.7,31 13.4,30 11.7,29.1 						"/>
						<polygon class="st10" points="11.7,29.1 13.4,28.1 11.7,27.1 						"/>
						<polygon class="st10" points="11.7,27.1 13.4,26.2 11.7,25.2 						"/>
						<polygon class="st11" points="11.7,25.2 13.4,24.2 11.7,23.2 						"/>
						<polygon class="st10" points="11.7,23.2 13.4,22.3 11.7,21.3 						"/>
						<polygon class="st10" points="11.7,21.3 13.4,20.3 11.7,19.4 						"/>
						<polygon class="st11" points="11.7,19.4 13.4,18.4 11.7,17.4 						"/>
						<polygon class="st10" points="11.7,17.4 13.4,16.5 11.7,15.5 						"/>
						<polygon class="st9" points="11.7,15.5 13.4,14.5 11.7,13.6 						"/>
						<polygon class="st10" points="11.7,13.6 13.4,12.6 11.7,11.6 						"/>
						<polygon class="st10" points="11.7,11.6 13.4,10.6 11.7,9.7 						"/>
						<polygon class="st9" points="11.7,9.7 13.4,8.7 11.7,7.7 						"/>
						<polygon class="st11" points="11.7,7.7 13.4,6.8 11.7,5.8 						"/>
						<polygon class="st11" points="11.7,5.8 13.4,4.8 11.7,3.9 						"/>
						<polygon class="st9" points="11.7,3.9 13.4,2.9 11.7,1.9 						"/>
						<polygon class="st10" points="11.7,1.9 13.4,1 11.7,0 						"/>
						<polygon class="st11" points="11.7,0 13.4,-1 11.7,-2 						"/>
						<polygon class="st10" points="11.7,-2 13.4,-2.9 11.7,-3.9 						"/>
						<polygon class="st9" points="13.4,-4.9 11.7,-3.9 13.4,-2.9 						"/>
						<polygon class="st11" points="13.4,-2.9 11.7,-2 13.4,-1 						"/>
						<polygon class="st11" points="13.4,-1 11.7,0 13.4,1 						"/>
						<polygon class="st10" points="13.4,1 11.7,1.9 13.4,2.9 						"/>
						<polygon class="st10" points="13.4,2.9 11.7,3.9 13.4,4.8 						"/>
						<polygon class="st11" points="13.4,4.8 11.7,5.8 13.4,6.8 						"/>
						<polygon class="st10" points="13.4,6.8 11.7,7.7 13.4,8.7 						"/>
						<polygon class="st9" points="13.4,8.7 11.7,9.7 13.4,10.6 						"/>
						<polygon class="st11" points="13.4,10.6 11.7,11.6 13.4,12.6 						"/>
						<polygon class="st10" points="13.4,12.6 11.7,13.6 13.4,14.5 						"/>
						<polygon class="st11" points="13.4,14.5 11.7,15.5 13.4,16.5 						"/>
						<polygon class="st10" points="13.4,16.5 11.7,17.4 13.4,18.4 						"/>
						<polygon class="st10" points="13.4,18.4 11.7,19.4 13.4,20.3 						"/>
						<polygon class="st10" points="13.4,20.3 11.7,21.3 13.4,22.3 						"/>
						<polygon class="st10" points="13.4,22.3 11.7,23.2 13.4,24.2 						"/>
						<polygon class="st11" points="13.4,24.2 11.7,25.2 13.4,26.2 						"/>
						<polygon class="st10" points="13.4,26.2 11.7,27.1 13.4,28.1 						"/>
						<polygon class="st10" points="13.4,28.1 11.7,29.1 13.4,30 						"/>
						<polygon class="st11" points="13.4,30 11.7,31 13.4,32 						"/>
						<polygon class="st11" points="13.4,32 11.7,32.9 13.4,33.9 						"/>
						<polygon class="st11" points="13.4,33.9 11.7,34.9 13.4,35.9 						"/>
						<polygon class="st10" points="10,35.8 11.7,34.9 10,33.9 						"/>
						<polygon class="st10" points="10,33.9 11.7,32.9 10,32 						"/>
						<polygon class="st11" points="10,32 11.7,31 10,30 						"/>
						<polygon class="st10" points="10,30 11.7,29.1 10,28.1 						"/>
						<polygon class="st10" points="10,28.1 11.7,27.1 10,26.1 						"/>
						<polygon class="st9" points="10,26.1 11.7,25.2 10,24.2 						"/>
						<polygon class="st9" points="10,24.2 11.7,23.2 10,22.3 						"/>
						<polygon class="st10" points="10,22.3 11.7,21.3 10,20.3 						"/>
						<polygon class="st11" points="10,20.3 11.7,19.4 10,18.4 						"/>
						<polygon class="st9" points="10,18.4 11.7,17.4 10,16.5 						"/>
						<polygon class="st10" points="10,16.5 11.7,15.5 10,14.5 						"/>
						<polygon class="st11" points="10,14.5 11.7,13.5 10,12.6 						"/>
						<polygon class="st10" points="10,12.6 11.7,11.6 10,10.6 						"/>
						<polygon class="st9" points="10,10.6 11.7,9.7 10,8.7 						"/>
						<polygon class="st9" points="10,8.7 11.7,7.7 10,6.8 						"/>
						<polygon class="st10" points="10,6.8 11.7,5.8 10,4.8 						"/>
						<polygon class="st9" points="10,4.8 11.7,3.9 10,2.9 						"/>
						<polygon class="st11" points="10,2.9 11.7,1.9 10,0.9 						"/>
						<polygon class="st11" points="10,0.9 11.7,0 10,-1 						"/>
						<polygon class="st9" points="10,-1 11.7,-2 10,-2.9 						"/>
						<polygon class="st11" points="10,-2.9 11.7,-3.9 10,-4.9 						"/>
						<polygon class="st9" points="11.7,-5.8 10,-4.9 11.7,-3.9 						"/>
						<polygon class="st10" points="11.7,-3.9 10,-2.9 11.7,-2 						"/>
						<polygon class="st9" points="11.7,-2 10,-1 11.7,0 						"/>
						<polygon class="st11" points="11.7,0 10,0.9 11.7,1.9 						"/>
						<polygon class="st11" points="11.7,1.9 10,2.9 11.7,3.9 						"/>
						<polygon class="st9" points="11.7,3.9 10,4.8 11.7,5.8 						"/>
						<polygon class="st11" points="11.7,5.8 10,6.8 11.7,7.7 						"/>
						<polygon class="st11" points="11.7,7.7 10,8.7 11.7,9.7 						"/>
						<polygon class="st10" points="11.7,9.7 10,10.6 11.7,11.6 						"/>
						<polygon class="st10" points="11.7,11.6 10,12.6 11.7,13.5 						"/>
						<polygon class="st10" points="11.7,13.5 10,14.5 11.7,15.5 						"/>
						<polygon class="st11" points="11.7,15.5 10,16.5 11.7,17.4 						"/>
						<polygon class="st10" points="11.7,17.4 10,18.4 11.7,19.4 						"/>
						<polygon class="st10" points="11.7,19.4 10,20.3 11.7,21.3 						"/>
						<polygon class="st10" points="11.7,21.3 10,22.3 11.7,23.2 						"/>
						<polygon class="st10" points="11.7,23.2 10,24.2 11.7,25.2 						"/>
						<polygon class="st10" points="11.7,25.2 10,26.1 11.7,27.1 						"/>
						<polygon class="st11" points="11.7,27.1 10,28.1 11.7,29.1 						"/>
						<polygon class="st10" points="11.7,29.1 10,30 11.7,31 						"/>
						<polygon class="st10" points="11.7,31 10,32 11.7,32.9 						"/>
						<polygon class="st9" points="11.7,32.9 10,33.9 11.7,34.9 						"/>
						<polygon class="st10" points="8.3,36.8 10,35.8 8.3,34.9 						"/>
						<polygon class="st10" points="8.3,34.9 10,33.9 8.3,32.9 						"/>
						<polygon class="st10" points="8.3,32.9 10,32 8.3,31 						"/>
						<polygon class="st10" points="8.3,31 10,30 8.3,29.1 						"/>
						<polygon class="st9" points="8.3,29.1 10,28.1 8.3,27.1 						"/>
						<polygon class="st10" points="8.3,27.1 10,26.2 8.3,25.2 						"/>
						<polygon class="st10" points="8.3,25.2 10,24.2 8.3,23.2 						"/>
						<polygon class="st10" points="8.3,23.2 10,22.3 8.3,21.3 						"/>
						<polygon class="st10" points="8.3,21.3 10,20.3 8.3,19.4 						"/>
						<polygon class="st9" points="8.3,19.4 10,18.4 8.3,17.4 						"/>
						<polygon class="st10" points="8.3,17.4 10,16.5 8.3,15.5 						"/>
						<polygon class="st10" points="8.3,15.5 10,14.5 8.3,13.6 						"/>
						<polygon class="st9" points="8.3,13.6 10,12.6 8.3,11.6 						"/>
						<polygon class="st10" points="8.3,11.6 10,10.6 8.3,9.7 						"/>
						<polygon class="st9" points="8.3,9.7 10,8.7 8.3,7.7 						"/>
						<polygon class="st11" points="8.3,7.7 10,6.8 8.3,5.8 						"/>
						<polygon class="st9" points="8.3,5.8 10,4.8 8.3,3.9 						"/>
						<polygon class="st11" points="8.3,3.9 10,2.9 8.3,1.9 						"/>
						<polygon class="st10" points="8.3,1.9 10,1 8.3,0 						"/>
						<polygon class="st10" points="8.3,0 10,-1 8.3,-2 						"/>
						<polygon class="st11" points="8.3,-2 10,-2.9 8.3,-3.9 						"/>
						<polygon class="st9" points="10,-4.9 8.3,-3.9 10,-2.9 						"/>
						<polygon class="st11" points="10,-2.9 8.3,-2 10,-1 						"/>
						<polygon class="st10" points="10,-1 8.3,0 10,1 						"/>
						<polygon class="st11" points="10,1 8.3,1.9 10,2.9 						"/>
						<polygon class="st11" points="10,2.9 8.3,3.9 10,4.8 						"/>
						<polygon class="st10" points="10,4.8 8.3,5.8 10,6.8 						"/>
						<polygon class="st10" points="10,6.8 8.3,7.7 10,8.7 						"/>
						<polygon class="st10" points="10,8.7 8.3,9.7 10,10.6 						"/>
						<polygon class="st11" points="10,10.6 8.3,11.6 10,12.6 						"/>
						<polygon class="st11" points="10,12.6 8.3,13.6 10,14.5 						"/>
						<polygon class="st10" points="10,14.5 8.3,15.5 10,16.5 						"/>
						<polygon class="st10" points="10,16.5 8.3,17.4 10,18.4 						"/>
						<polygon class="st11" points="10,18.4 8.3,19.4 10,20.3 						"/>
						<polygon class="st9" points="10,20.3 8.3,21.3 10,22.3 						"/>
						<polygon class="st9" points="10,22.3 8.3,23.2 10,24.2 						"/>
						<polygon class="st10" points="10,24.2 8.3,25.2 10,26.2 						"/>
						<polygon class="st11" points="10,26.2 8.3,27.1 10,28.1 						"/>
						<polygon class="st10" points="10,28.1 8.3,29.1 10,30 						"/>
						<polygon class="st10" points="10,30 8.3,31 10,32 						"/>
						<polygon class="st10" points="10,32 8.3,32.9 10,33.9 						"/>
						<polygon class="st11" points="10,33.9 8.3,34.9 10,35.8 						"/>
						<polygon class="st10" points="6.7,35.9 8.3,34.9 6.7,33.9 						"/>
						<polygon class="st10" points="6.7,33.9 8.3,32.9 6.7,32 						"/>
						<polygon class="st10" points="6.7,32 8.3,31 6.7,30 						"/>
						<polygon class="st9" points="6.7,30 8.3,29.1 6.7,28.1 						"/>
						<polygon class="st10" points="6.7,28.1 8.3,27.1 6.7,26.2 						"/>
						<polygon class="st10" points="6.7,26.2 8.3,25.2 6.7,24.2 						"/>
						<polygon class="st10" points="6.7,24.2 8.3,23.2 6.7,22.3 						"/>
						<polygon class="st9" points="6.7,22.3 8.3,21.3 6.7,20.3 						"/>
						<polygon class="st10" points="6.7,20.3 8.3,19.4 6.7,18.4 						"/>
						<polygon class="st11" points="6.7,18.4 8.3,17.4 6.7,16.5 						"/>
						<polygon class="st10" points="6.7,16.5 8.3,15.5 6.7,14.5 						"/>
						<polygon class="st10" points="6.7,14.5 8.3,13.6 6.7,12.6 						"/>
						<polygon class="st10" points="6.7,12.6 8.3,11.6 6.7,10.6 						"/>
						<polygon class="st10" points="6.7,10.6 8.3,9.7 6.7,8.7 						"/>
						<polygon class="st10" points="6.7,8.7 8.3,7.7 6.7,6.8 						"/>
						<polygon class="st11" points="6.7,6.8 8.3,5.8 6.7,4.8 						"/>
						<polygon class="st10" points="6.7,4.8 8.3,3.9 6.7,2.9 						"/>
						<polygon class="st11" points="6.7,2.9 8.3,1.9 6.7,1 						"/>
						<polygon class="st10" points="6.7,1 8.3,0 6.7,-1 						"/>
						<polygon class="st10" points="6.7,-1 8.3,-2 6.7,-2.9 						"/>
						<polygon class="st10" points="6.7,-2.9 8.3,-3.9 6.7,-4.9 						"/>
						<polygon class="st9" points="8.3,-5.8 6.7,-4.9 8.3,-3.9 						"/>
						<polygon class="st10" points="8.3,-3.9 6.7,-2.9 8.3,-2 						"/>
						<polygon class="st10" points="8.3,-2 6.7,-1 8.3,0 						"/>
						<polygon class="st9" points="8.3,0 6.7,1 8.3,1.9 						"/>
						<polygon class="st11" points="8.3,1.9 6.7,2.9 8.3,3.9 						"/>
						<polygon class="st11" points="8.3,3.9 6.7,4.8 8.3,5.8 						"/>
						<polygon class="st9" points="8.3,5.8 6.7,6.8 8.3,7.7 						"/>
						<polygon class="st10" points="8.3,7.7 6.7,8.7 8.3,9.7 						"/>
						<polygon class="st9" points="8.3,9.7 6.7,10.6 8.3,11.6 						"/>
						<polygon class="st10" points="8.3,11.6 6.7,12.6 8.3,13.6 						"/>
						<polygon class="st9" points="8.3,13.6 6.7,14.5 8.3,15.5 						"/>
						<polygon class="st10" points="8.3,15.5 6.7,16.5 8.3,17.4 						"/>
						<polygon class="st11" points="8.3,17.4 6.7,18.4 8.3,19.4 						"/>
						<polygon class="st11" points="8.3,19.4 6.7,20.3 8.3,21.3 						"/>
						<polygon class="st10" points="8.3,21.3 6.7,22.3 8.3,23.2 						"/>
						<polygon class="st11" points="8.3,23.2 6.7,24.2 8.3,25.2 						"/>
						<polygon class="st11" points="8.3,25.2 6.7,26.2 8.3,27.1 						"/>
						<polygon class="st9" points="8.3,27.1 6.7,28.1 8.3,29.1 						"/>
						<polygon class="st11" points="8.3,29.1 6.7,30 8.3,31 						"/>
						<polygon class="st10" points="8.3,31 6.7,32 8.3,32.9 						"/>
						<polygon class="st11" points="8.3,32.9 6.7,33.9 8.3,34.9 						"/>
						<polygon class="st10" points="5,36.8 6.7,35.9 5,34.9 						"/>
						<polygon class="st11" points="5,34.9 6.7,33.9 5,32.9 						"/>
						<polygon class="st9" points="5,32.9 6.7,32 5,31 						"/>
						<polygon class="st10" points="5,31 6.7,30 5,29.1 						"/>
						<polygon class="st10" points="5,29.1 6.7,28.1 5,27.1 						"/>
						<polygon class="st10" points="5,27.1 6.7,26.2 5,25.2 						"/>
						<polygon class="st10" points="5,25.2 6.7,24.2 5,23.3 						"/>
						<polygon class="st11" points="5,23.3 6.7,22.3 5,21.3 						"/>
						<polygon class="st11" points="5,21.3 6.7,20.3 5,19.4 						"/>
						<polygon class="st10" points="5,19.4 6.7,18.4 5,17.4 						"/>
						<polygon class="st9" points="5,17.4 6.7,16.5 5,15.5 						"/>
						<polygon class="st11" points="5,15.5 6.7,14.5 5,13.6 						"/>
						<polygon class="st11" points="5,13.6 6.7,12.6 5,11.6 						"/>
						<polygon class="st9" points="5,11.6 6.7,10.7 5,9.7 						"/>
						<polygon class="st9" points="5,9.7 6.7,8.7 5,7.7 						"/>
						<polygon class="st10" points="5,7.7 6.7,6.8 5,5.8 						"/>
						<polygon class="st11" points="5,5.8 6.7,4.8 5,3.9 						"/>
						<polygon class="st10" points="5,3.9 6.7,2.9 5,1.9 						"/>
						<polygon class="st10" points="5,1.9 6.7,1 5,0 						"/>
						<polygon class="st10" points="5,0 6.7,-1 5,-2 						"/>
						<polygon class="st10" points="5,-2 6.7,-2.9 5,-3.9 						"/>
						<polygon class="st10" points="6.7,-4.9 5,-3.9 6.7,-2.9 						"/>
						<polygon class="st10" points="6.7,-2.9 5,-2 6.7,-1 						"/>
						<polygon class="st10" points="6.7,-1 5,0 6.7,1 						"/>
						<polygon class="st10" points="6.7,1 5,1.9 6.7,2.9 						"/>
						<polygon class="st10" points="6.7,2.9 5,3.9 6.7,4.8 						"/>
						<polygon class="st9" points="6.7,4.8 5,5.8 6.7,6.8 						"/>
						<polygon class="st9" points="6.7,6.8 5,7.7 6.7,8.7 						"/>
						<polygon class="st11" points="6.7,8.7 5,9.7 6.7,10.7 						"/>
						<polygon class="st9" points="6.7,10.7 5,11.6 6.7,12.6 						"/>
						<polygon class="st10" points="6.7,12.6 5,13.6 6.7,14.5 						"/>
						<polygon class="st10" points="6.7,14.5 5,15.5 6.7,16.5 						"/>
						<polygon class="st10" points="6.7,16.5 5,17.4 6.7,18.4 						"/>
						<polygon class="st10" points="6.7,18.4 5,19.4 6.7,20.3 						"/>
						<polygon class="st11" points="6.7,20.3 5,21.3 6.7,22.3 						"/>
						<polygon class="st11" points="6.7,22.3 5,23.3 6.7,24.2 						"/>
						<polygon class="st10" points="6.7,24.2 5,25.2 6.7,26.2 						"/>
						<polygon class="st10" points="6.7,26.2 5,27.1 6.7,28.1 						"/>
						<polygon class="st10" points="6.7,28.1 5,29.1 6.7,30 						"/>
						<polygon class="st11" points="6.7,30 5,31 6.7,32 						"/>
						<polygon class="st10" points="6.7,32 5,32.9 6.7,33.9 						"/>
						<polygon class="st11" points="6.7,33.9 5,34.9 6.7,35.9 						"/>
						<polygon class="st10" points="3.3,35.8 5,34.9 3.3,33.9 						"/>
						<polygon class="st11" points="3.3,33.9 5,32.9 3.3,32 						"/>
						<polygon class="st10" points="3.3,32 5,31 3.3,30 						"/>
						<polygon class="st9" points="3.3,30 5,29.1 3.3,28.1 						"/>
						<polygon class="st9" points="3.3,28.1 5,27.1 3.3,26.2 						"/>
						<polygon class="st10" points="3.3,26.2 5,25.2 3.3,24.2 						"/>
						<polygon class="st10" points="3.3,24.2 5,23.2 3.3,22.3 						"/>
						<polygon class="st9" points="3.3,22.3 5,21.3 3.3,20.3 						"/>
						<polygon class="st9" points="3.3,20.3 5,19.4 3.3,18.4 						"/>
						<polygon class="st11" points="3.3,18.4 5,17.4 3.3,16.5 						"/>
						<polygon class="st10" points="3.3,16.5 5,15.5 3.3,14.5 						"/>
						<polygon class="st9" points="3.3,14.5 5,13.6 3.3,12.6 						"/>
						<polygon class="st11" points="3.3,12.6 5,11.6 3.3,10.6 						"/>
						<polygon class="st10" points="3.3,10.6 5,9.7 3.3,8.7 						"/>
						<polygon class="st11" points="3.3,8.7 5,7.7 3.3,6.8 						"/>
						<polygon class="st10" points="3.3,6.8 5,5.8 3.3,4.8 						"/>
						<polygon class="st10" points="3.3,4.8 5,3.9 3.3,2.9 						"/>
						<polygon class="st11" points="3.3,2.9 5,1.9 3.3,0.9 						"/>
						<polygon class="st11" points="3.3,0.9 5,0 3.3,-1 						"/>
						<polygon class="st9" points="3.3,-1 5,-2 3.3,-2.9 						"/>
						<polygon class="st11" points="3.3,-2.9 5,-3.9 3.3,-4.9 						"/>
						<polygon class="st11" points="5,-5.8 3.3,-4.9 5,-3.9 						"/>
						<polygon class="st11" points="5,-3.9 3.3,-2.9 5,-2 						"/>
						<polygon class="st9" points="5,-2 3.3,-1 5,0 						"/>
						<polygon class="st9" points="5,0 3.3,0.9 5,1.9 						"/>
						<polygon class="st10" points="5,1.9 3.3,2.9 5,3.9 						"/>
						<polygon class="st9" points="5,3.9 3.3,4.8 5,5.8 						"/>
						<polygon class="st10" points="5,5.8 3.3,6.8 5,7.7 						"/>
						<polygon class="st10" points="5,7.7 3.3,8.7 5,9.7 						"/>
						<polygon class="st9" points="5,9.7 3.3,10.6 5,11.6 						"/>
						<polygon class="st11" points="5,11.6 3.3,12.6 5,13.6 						"/>
						<polygon class="st10" points="5,13.6 3.3,14.5 5,15.5 						"/>
						<polygon class="st9" points="5,15.5 3.3,16.5 5,17.4 						"/>
						<polygon class="st9" points="5,17.4 3.3,18.4 5,19.4 						"/>
						<polygon class="st9" points="5,19.4 3.3,20.3 5,21.3 						"/>
						<polygon class="st10" points="5,21.3 3.3,22.3 5,23.2 						"/>
						<polygon class="st11" points="5,23.2 3.3,24.2 5,25.2 						"/>
						<polygon class="st10" points="5,25.2 3.3,26.2 5,27.1 						"/>
						<polygon class="st9" points="5,27.1 3.3,28.1 5,29.1 						"/>
						<polygon class="st9" points="5,29.1 3.3,30 5,31 						"/>
						<polygon class="st9" points="5,31 3.3,32 5,32.9 						"/>
						<polygon class="st9" points="5,32.9 3.3,33.9 5,34.9 						"/>
						<polygon class="st10" points="1.7,36.8 3.3,35.9 1.7,34.9 						"/>
						<polygon class="st9" points="1.7,34.9 3.3,33.9 1.7,32.9 						"/>
						<polygon class="st10" points="1.7,32.9 3.3,32 1.7,31 						"/>
						<polygon class="st10" points="1.7,31 3.3,30 1.7,29.1 						"/>
						<polygon class="st11" points="1.7,29.1 3.3,28.1 1.7,27.1 						"/>
						<polygon class="st9" points="1.7,27.1 3.3,26.2 1.7,25.2 						"/>
						<polygon class="st10" points="1.7,25.2 3.3,24.2 1.7,23.3 						"/>
						<polygon class="st10" points="1.7,23.3 3.3,22.3 1.7,21.3 						"/>
						<polygon class="st10" points="1.7,21.3 3.3,20.3 1.7,19.4 						"/>
						<polygon class="st10" points="1.7,19.4 3.3,18.4 1.7,17.4 						"/>
						<polygon class="st10" points="1.7,17.4 3.3,16.5 1.7,15.5 						"/>
						<polygon class="st10" points="1.7,15.5 3.3,14.5 1.7,13.6 						"/>
						<polygon class="st10" points="1.7,13.6 3.3,12.6 1.7,11.6 						"/>
						<polygon class="st9" points="1.7,11.6 3.3,10.6 1.7,9.7 						"/>
						<polygon class="st9" points="1.7,9.7 3.3,8.7 1.7,7.7 						"/>
						<polygon class="st9" points="1.7,7.7 3.3,6.8 1.7,5.8 						"/>
						<polygon class="st10" points="1.7,5.8 3.3,4.8 1.7,3.9 						"/>
						<polygon class="st10" points="1.7,3.9 3.3,2.9 1.7,1.9 						"/>
						<polygon class="st10" points="1.7,1.9 3.3,1 1.7,0 						"/>
						<polygon class="st10" points="1.7,0 3.3,-1 1.7,-2 						"/>
						<polygon class="st9" points="1.7,-2 3.3,-2.9 1.7,-3.9 						"/>
						<polygon class="st11" points="3.3,-4.9 1.7,-3.9 3.3,-2.9 						"/>
						<polygon class="st9" points="3.3,-2.9 1.7,-2 3.3,-1 						"/>
						<polygon class="st11" points="3.3,-1 1.7,0 3.3,1 						"/>
						<polygon class="st10" points="3.3,1 1.7,1.9 3.3,2.9 						"/>
						<polygon class="st9" points="3.3,2.9 1.7,3.9 3.3,4.8 						"/>
						<polygon class="st11" points="3.3,4.8 1.7,5.8 3.3,6.8 						"/>
						<polygon class="st9" points="3.3,6.8 1.7,7.7 3.3,8.7 						"/>
						<polygon class="st9" points="3.3,8.7 1.7,9.7 3.3,10.6 						"/>
						<polygon class="st11" points="3.3,10.6 1.7,11.6 3.3,12.6 						"/>
						<polygon class="st10" points="3.3,12.6 1.7,13.6 3.3,14.5 						"/>
						<polygon class="st10" points="3.3,14.5 1.7,15.5 3.3,16.5 						"/>
						<polygon class="st10" points="3.3,16.5 1.7,17.4 3.3,18.4 						"/>
						<polygon class="st10" points="3.3,18.4 1.7,19.4 3.3,20.3 						"/>
						<polygon class="st10" points="3.3,20.3 1.7,21.3 3.3,22.3 						"/>
						<polygon class="st10" points="3.3,22.3 1.7,23.3 3.3,24.2 						"/>
						<polygon class="st11" points="3.3,24.2 1.7,25.2 3.3,26.2 						"/>
						<polygon class="st10" points="3.3,26.2 1.7,27.1 3.3,28.1 						"/>
						<polygon class="st10" points="3.3,28.1 1.7,29.1 3.3,30 						"/>
						<polygon class="st10" points="3.3,30 1.7,31 3.3,32 						"/>
						<polygon class="st9" points="3.3,32 1.7,32.9 3.3,33.9 						"/>
						<polygon class="st9" points="3.3,33.9 1.7,34.9 3.3,35.9 						"/>
						<polygon class="st10" points="0,35.9 1.7,34.9 0,33.9 						"/>
						<polygon class="st11" points="0,33.9 1.7,32.9 0,32 						"/>
						<polygon class="st11" points="0,32 1.7,31 0,30 						"/>
						<polygon class="st9" points="0,30 1.7,29.1 0,28.1 						"/>
						<polygon class="st9" points="0,28.1 1.7,27.1 0,26.2 						"/>
						<polygon class="st10" points="0,26.2 1.7,25.2 0,24.2 						"/>
						<polygon class="st11" points="0,24.2 1.7,23.3 0,22.3 						"/>
						<polygon class="st10" points="0,22.3 1.7,21.3 0,20.3 						"/>
						<polygon class="st11" points="0,20.3 1.7,19.4 0,18.4 						"/>
						<polygon class="st10" points="0,18.4 1.7,17.4 0,16.5 						"/>
						<polygon class="st9" points="0,16.5 1.7,15.5 0,14.5 						"/>
						<polygon class="st11" points="0,14.5 1.7,13.6 0,12.6 						"/>
						<polygon class="st11" points="0,12.6 1.7,11.6 0,10.6 						"/>
						<polygon class="st9" points="0,10.6 1.7,9.7 0,8.7 						"/>
						<polygon class="st10" points="0,8.7 1.7,7.7 0,6.8 						"/>
						<polygon class="st10" points="0,6.8 1.7,5.8 0,4.8 						"/>
						<polygon class="st9" points="0,4.8 1.7,3.9 0,2.9 						"/>
						<polygon class="st10" points="0,2.9 1.7,1.9 0,1 						"/>
						<polygon class="st9" points="0,1 1.7,0 0,-1 						"/>
						<polygon class="st10" points="0,-1 1.7,-2 0,-2.9 						"/>
						<polygon class="st10" points="0,-2.9 1.7,-3.9 0,-4.9 						"/>
						<polygon class="st10" points="1.7,-5.8 0,-4.9 1.7,-3.9 						"/>
						<polygon class="st11" points="1.7,-3.9 0,-2.9 1.7,-2 						"/>
						<polygon class="st11" points="1.7,-2 0,-1 1.7,0 						"/>
						<polygon class="st10" points="1.7,0 0,1 1.7,1.9 						"/>
						<polygon class="st10" points="1.7,1.9 0,2.9 1.7,3.9 						"/>
						<polygon class="st11" points="1.7,3.9 0,4.8 1.7,5.8 						"/>
						<polygon class="st10" points="1.7,5.8 0,6.8 1.7,7.7 						"/>
						<polygon class="st10" points="1.7,7.7 0,8.7 1.7,9.7 						"/>
						<polygon class="st9" points="1.7,9.7 0,10.6 1.7,11.6 						"/>
						<polygon class="st11" points="1.7,11.6 0,12.6 1.7,13.6 						"/>
						<polygon class="st10" points="1.7,13.6 0,14.5 1.7,15.5 						"/>
						<polygon class="st9" points="1.7,15.5 0,16.5 1.7,17.4 						"/>
						<polygon class="st10" points="1.7,17.4 0,18.4 1.7,19.4 						"/>
						<polygon class="st11" points="1.7,19.4 0,20.3 1.7,21.3 						"/>
						<polygon class="st11" points="1.7,21.3 0,22.3 1.7,23.3 						"/>
						<polygon class="st9" points="1.7,23.3 0,24.2 1.7,25.2 						"/>
						<polygon class="st10" points="1.7,25.2 0,26.2 1.7,27.1 						"/>
						<polygon class="st10" points="1.7,27.1 0,28.1 1.7,29.1 						"/>
						<polygon class="st11" points="1.7,29.1 0,30 1.7,31 						"/>
						<polygon class="st10" points="1.7,31 0,32 1.7,32.9 						"/>
						<polygon class="st10" points="1.7,32.9 0,33.9 1.7,34.9 						"/>
						<polygon class="st10" points="-1.7,36.8 0,35.9 -1.7,34.9 						"/>
						<polygon class="st10" points="-1.7,34.9 0,33.9 -1.7,33 						"/>
						<polygon class="st10" points="-1.7,33 0,32 -1.7,31 						"/>
						<polygon class="st10" points="-1.7,31 0,30 -1.7,29.1 						"/>
						<polygon class="st11" points="-1.7,29.1 0,28.1 -1.7,27.1 						"/>
						<polygon class="st9" points="-1.7,27.1 0,26.2 -1.7,25.2 						"/>
						<polygon class="st10" points="-1.7,25.2 0,24.2 -1.7,23.3 						"/>
						<polygon class="st11" points="-1.7,23.3 0,22.3 -1.7,21.3 						"/>
						<polygon class="st9" points="-1.7,21.3 0,20.3 -1.7,19.4 						"/>
						<polygon class="st10" points="-1.7,19.4 0,18.4 -1.7,17.4 						"/>
						<polygon class="st9" points="-1.7,17.4 0,16.5 -1.7,15.5 						"/>
						<polygon class="st10" points="-1.7,15.5 0,14.5 -1.7,13.6 						"/>
						<polygon class="st10" points="-1.7,13.6 0,12.6 -1.7,11.6 						"/>
						<polygon class="st9" points="-1.7,11.6 0,10.7 -1.7,9.7 						"/>
						<polygon class="st10" points="-1.7,9.7 0,8.7 -1.7,7.7 						"/>
						<polygon class="st11" points="-1.7,7.7 0,6.8 -1.7,5.8 						"/>
						<polygon class="st10" points="-1.7,5.8 0,4.8 -1.7,3.9 						"/>
						<polygon class="st10" points="-1.7,3.9 0,2.9 -1.7,1.9 						"/>
						<polygon class="st11" points="-1.7,1.9 0,1 -1.7,0 						"/>
						<polygon class="st10" points="-1.7,0 0,-1 -1.7,-1.9 						"/>
						<polygon class="st11" points="-1.7,-1.9 0,-2.9 -1.7,-3.9 						"/>
						<polygon class="st9" points="0,-4.9 -1.7,-3.9 0,-2.9 						"/>
						<polygon class="st10" points="0,-2.9 -1.7,-1.9 0,-1 						"/>
						<polygon class="st9" points="0,-1 -1.7,0 0,1 						"/>
						<polygon class="st10" points="0,1 -1.7,1.9 0,2.9 						"/>
						<polygon class="st9" points="0,2.9 -1.7,3.9 0,4.8 						"/>
						<polygon class="st11" points="0,4.8 -1.7,5.8 0,6.8 						"/>
						<polygon class="st10" points="0,6.8 -1.7,7.7 0,8.7 						"/>
						<polygon class="st10" points="0,8.7 -1.7,9.7 0,10.7 						"/>
						<polygon class="st9" points="0,10.7 -1.7,11.6 0,12.6 						"/>
						<polygon class="st9" points="0,12.6 -1.7,13.6 0,14.5 						"/>
						<polygon class="st10" points="0,14.5 -1.7,15.5 0,16.5 						"/>
						<polygon class="st9" points="0,16.5 -1.7,17.4 0,18.4 						"/>
						<polygon class="st9" points="0,18.4 -1.7,19.4 0,20.3 						"/>
						<polygon class="st10" points="0,20.3 -1.7,21.3 0,22.3 						"/>
						<polygon class="st10" points="0,22.3 -1.7,23.3 0,24.2 						"/>
						<polygon class="st9" points="0,24.2 -1.7,25.2 0,26.2 						"/>
						<polygon class="st9" points="0,26.2 -1.7,27.1 0,28.1 						"/>
						<polygon class="st11" points="0,28.1 -1.7,29.1 0,30 						"/>
						<polygon class="st11" points="0,30 -1.7,31 0,32 						"/>
						<polygon class="st10" points="0,32 -1.7,33 0,33.9 						"/>
						<polygon class="st10" points="0,33.9 -1.7,34.9 0,35.9 						"/>
						<polygon class="st10" points="-3.3,35.9 -1.7,34.9 -3.3,33.9 						"/>
						<polygon class="st10" points="-3.3,33.9 -1.7,32.9 -3.3,32 						"/>
						<polygon class="st10" points="-3.3,32 -1.7,31 -3.3,30 						"/>
						<polygon class="st10" points="-3.3,30 -1.7,29.1 -3.3,28.1 						"/>
						<polygon class="st10" points="-3.3,28.1 -1.7,27.1 -3.3,26.2 						"/>
						<polygon class="st9" points="-3.3,26.2 -1.7,25.2 -3.3,24.2 						"/>
						<polygon class="st10" points="-3.3,24.2 -1.7,23.2 -3.3,22.3 						"/>
						<polygon class="st10" points="-3.3,22.3 -1.7,21.3 -3.3,20.3 						"/>
						<polygon class="st9" points="-3.3,20.3 -1.7,19.4 -3.3,18.4 						"/>
						<polygon class="st11" points="-3.3,18.4 -1.7,17.4 -3.3,16.5 						"/>
						<polygon class="st11" points="-3.3,16.5 -1.7,15.5 -3.3,14.5 						"/>
						<polygon class="st11" points="-3.3,14.5 -1.7,13.6 -3.3,12.6 						"/>
						<polygon class="st9" points="-3.3,12.6 -1.7,11.6 -3.3,10.6 						"/>
						<polygon class="st9" points="-3.3,10.6 -1.7,9.7 -3.3,8.7 						"/>
						<polygon class="st9" points="-3.3,8.7 -1.7,7.7 -3.3,6.8 						"/>
						<polygon class="st10" points="-3.3,6.8 -1.7,5.8 -3.3,4.8 						"/>
						<polygon class="st9" points="-3.3,4.8 -1.7,3.9 -3.3,2.9 						"/>
						<polygon class="st10" points="-3.3,2.9 -1.7,1.9 -3.3,1 						"/>
						<polygon class="st10" points="-3.3,1 -1.7,0 -3.3,-1 						"/>
						<polygon class="st10" points="-3.3,-1 -1.7,-2 -3.3,-2.9 						"/>
						<polygon class="st10" points="-3.3,-2.9 -1.7,-3.9 -3.3,-4.9 						"/>
						<polygon class="st10" points="-1.7,-5.8 -3.3,-4.9 -1.7,-3.9 						"/>
						<polygon class="st9" points="-1.7,-3.9 -3.3,-2.9 -1.7,-2 						"/>
						<polygon class="st11" points="-1.7,-2 -3.3,-1 -1.7,0 						"/>
						<polygon class="st10" points="-1.7,0 -3.3,1 -1.7,1.9 						"/>
						<polygon class="st11" points="-1.7,1.9 -3.3,2.9 -1.7,3.9 						"/>
						<polygon class="st11" points="-1.7,3.9 -3.3,4.8 -1.7,5.8 						"/>
						<polygon class="st11" points="-1.7,5.8 -3.3,6.8 -1.7,7.7 						"/>
						<polygon class="st9" points="-1.7,7.7 -3.3,8.7 -1.7,9.7 						"/>
						<polygon class="st9" points="-1.7,9.7 -3.3,10.6 -1.7,11.6 						"/>
						<polygon class="st10" points="-1.7,11.6 -3.3,12.6 -1.7,13.6 						"/>
						<polygon class="st9" points="-1.7,13.6 -3.3,14.5 -1.7,15.5 						"/>
						<polygon class="st11" points="-1.7,15.5 -3.3,16.5 -1.7,17.4 						"/>
						<polygon class="st9" points="-1.7,17.4 -3.3,18.4 -1.7,19.4 						"/>
						<polygon class="st10" points="-1.7,19.4 -3.3,20.3 -1.7,21.3 						"/>
						<polygon class="st11" points="-1.7,21.3 -3.3,22.3 -1.7,23.2 						"/>
						<polygon class="st10" points="-1.7,23.2 -3.3,24.2 -1.7,25.2 						"/>
						<polygon class="st11" points="-1.7,25.2 -3.3,26.2 -1.7,27.1 						"/>
						<polygon class="st9" points="-1.7,27.1 -3.3,28.1 -1.7,29.1 						"/>
						<polygon class="st10" points="-1.7,29.1 -3.3,30 -1.7,31 						"/>
						<polygon class="st9" points="-1.7,31 -3.3,32 -1.7,32.9 						"/>
						<polygon class="st9" points="-1.7,32.9 -3.3,33.9 -1.7,34.9 						"/>
						<polygon class="st11" points="-5,36.8 -3.3,35.9 -5,34.9 						"/>
						<polygon class="st9" points="-5,34.9 -3.3,33.9 -5,32.9 						"/>
						<polygon class="st9" points="-5,32.9 -3.3,32 -5,31 						"/>
						<polygon class="st10" points="-5,31 -3.3,30 -5,29.1 						"/>
						<polygon class="st9" points="-5,29.1 -3.3,28.1 -5,27.1 						"/>
						<polygon class="st10" points="-5,27.1 -3.3,26.2 -5,25.2 						"/>
						<polygon class="st11" points="-5,25.2 -3.3,24.2 -5,23.3 						"/>
						<polygon class="st10" points="-5,23.3 -3.3,22.3 -5,21.3 						"/>
						<polygon class="st10" points="-5,21.3 -3.3,20.3 -5,19.4 						"/>
						<polygon class="st11" points="-5,19.4 -3.3,18.4 -5,17.4 						"/>
						<polygon class="st10" points="-5,17.4 -3.3,16.5 -5,15.5 						"/>
						<polygon class="st11" points="-5,15.5 -3.3,14.5 -5,13.6 						"/>
						<polygon class="st11" points="-5,13.6 -3.3,12.6 -5,11.6 						"/>
						<polygon class="st10" points="-5,11.6 -3.3,10.7 -5,9.7 						"/>
						<polygon class="st10" points="-5,9.7 -3.3,8.7 -5,7.7 						"/>
						<polygon class="st11" points="-5,7.7 -3.3,6.8 -5,5.8 						"/>
						<polygon class="st10" points="-5,5.8 -3.3,4.8 -5,3.9 						"/>
						<polygon class="st9" points="-5,3.9 -3.3,2.9 -5,1.9 						"/>
						<polygon class="st9" points="-5,1.9 -3.3,1 -5,0 						"/>
						<polygon class="st9" points="-5,0 -3.3,-1 -5,-2 						"/>
						<polygon class="st9" points="-5,-2 -3.3,-2.9 -5,-3.9 						"/>
						<polygon class="st11" points="-3.3,-4.9 -5,-3.9 -3.3,-2.9 						"/>
						<polygon class="st11" points="-3.3,-2.9 -5,-2 -3.3,-1 						"/>
						<polygon class="st10" points="-3.3,-1 -5,0 -3.3,1 						"/>
						<polygon class="st9" points="-3.3,1 -5,1.9 -3.3,2.9 						"/>
						<polygon class="st10" points="-3.3,2.9 -5,3.9 -3.3,4.8 						"/>
						<polygon class="st9" points="-3.3,4.8 -5,5.8 -3.3,6.8 						"/>
						<polygon class="st9" points="-3.3,6.8 -5,7.7 -3.3,8.7 						"/>
						<polygon class="st11" points="-3.3,8.7 -5,9.7 -3.3,10.7 						"/>
						<polygon class="st10" points="-3.3,10.7 -5,11.6 -3.3,12.6 						"/>
						<polygon class="st11" points="-3.3,12.6 -5,13.6 -3.3,14.5 						"/>
						<polygon class="st9" points="-3.3,14.5 -5,15.5 -3.3,16.5 						"/>
						<polygon class="st11" points="-3.3,16.5 -5,17.4 -3.3,18.4 						"/>
						<polygon class="st10" points="-3.3,18.4 -5,19.4 -3.3,20.3 						"/>
						<polygon class="st10" points="-3.3,20.3 -5,21.3 -3.3,22.3 						"/>
						<polygon class="st11" points="-3.3,22.3 -5,23.3 -3.3,24.2 						"/>
						<polygon class="st9" points="-3.3,24.2 -5,25.2 -3.3,26.2 						"/>
						<polygon class="st9" points="-3.3,26.2 -5,27.1 -3.3,28.1 						"/>
						<polygon class="st9" points="-3.3,28.1 -5,29.1 -3.3,30 						"/>
						<polygon class="st9" points="-3.3,30 -5,31 -3.3,32 						"/>
						<polygon class="st10" points="-3.3,32 -5,32.9 -3.3,33.9 						"/>
						<polygon class="st10" points="-3.3,33.9 -5,34.9 -3.3,35.9 						"/>
					</g>
				</g>
				<g>
					<defs>
						<rect id="SVGID_17_" x="0" y="0" width="30" height="30"/>
					</defs>
					<clipPath id="SVGID_18_">
						<use xlink:href="#SVGID_17_"  style="overflow:visible;"/>
					</clipPath>
				</g>
			</g>
			<g>
				<g>
					<defs>
						<rect id="SVGID_19_" x="0" y="0" width="30" height="30"/>
					</defs>
					<clipPath id="SVGID_20_">
						<use xlink:href="#SVGID_19_"  style="overflow:visible;"/>
					</clipPath>
				</g>
				<g>
					<defs>
						<rect id="SVGID_21_" x="0" y="0" width="30" height="30"/>
					</defs>
					<clipPath id="SVGID_22_">
						<use xlink:href="#SVGID_21_"  style="overflow:visible;"/>
					</clipPath>
				</g>
				<g>
					<defs>
						<rect id="SVGID_23_" x="0" y="0" width="30" height="30"/>
					</defs>
					<clipPath id="SVGID_24_">
						<use xlink:href="#SVGID_23_"  style="overflow:visible;"/>
					</clipPath>
				</g>
			</g>
		</g>
	</g>
</g>
</svg>
