<?xml version="1.0" encoding="utf-8"?>
<!-- Generator: Adobe Illustrator 22.0.0, SVG Export Plug-In . SVG Version: 6.00 Build 0)  -->
<svg version="1.1" id="Layer_1" xmlns="http://www.w3.org/2000/svg" xmlns:xlink="http://www.w3.org/1999/xlink" x="0px" y="0px"
	 viewBox="0 0 300 300" style="enable-background:new 0 0 300 300;" xml:space="preserve">
<style type="text/css">
	.st0{fill:#F4F4F4;}
</style>
<g>
	<g>
		<path class="st0" d="M103.3,156.4c-0.3-0.3-0.7-0.6-1-0.9c-2.8-2.8-3.8-6.7-2.7-11c0.5-1.8,2.3-2.9,4.1-2.4
			c1.8,0.5,2.9,2.3,2.4,4.1c-0.5,1.9-0.2,3.4,1,4.5c1.3,1.3,3.6,1.9,5.5,1.5c1.7-0.4,3.2-1.7,3.9-3.4c0.5-1.1,0.8-2.7-0.2-4.6
			c-3-5.7-9.8-7.9-17.6-10.4c-14.2-4.6-31.9-10.4-32.7-40.5L65.5,81c-0.1-2.5,0.8-4.9,2.6-6.7c1.7-1.8,4.1-2.9,6.6-2.9
			c6.8-0.2,13.3,3,17.3,8.5l2.4,3.3c1.3,1.8,3.3,2.8,5.5,2.7l14-0.4c1.9-0.1,3.4,1.4,3.5,3.3c0.1,1.9-1.4,3.4-3.3,3.5l-14,0.4
			c-4.4,0.1-8.6-1.9-11.2-5.5l-2.4-3.3c-2.7-3.7-7.1-5.8-11.7-5.7c-0.7,0-1.4,0.3-1.8,0.8c-0.5,0.5-0.7,1.2-0.7,1.9l0.4,12.5
			c0.8,25.3,14,29.7,28.1,34.3c8.5,2.8,17.2,5.6,21.5,13.7c1.8,3.4,1.9,7.1,0.4,10.5c-1.6,3.6-4.8,6.2-8.5,7.2
			C110.5,159.8,106.2,158.8,103.3,156.4z"/>
		<path class="st0" d="M186.1,153.9c-1.4-1.1-2.6-2.5-3.4-4.1c-1.7-3.3-1.8-7.1-0.3-10.5c3.8-8.3,12.3-11.7,20.6-15
			c13.7-5.5,26.7-10.6,25.9-35.9l-0.4-12.5c0-0.7-0.3-1.3-0.8-1.8c-0.5-0.5-1.2-0.7-1.9-0.7c-4.6,0.2-8.8,2.6-11.3,6.4l-2.2,3.4
			c-2.4,3.7-6.4,6-10.8,6.1l-14,0.5c-1.9,0.1-3.4-1.4-3.5-3.3c-0.1-1.9,1.4-3.4,3.3-3.5l14-0.5c2.2-0.1,4.2-1.2,5.3-3l2.2-3.4
			c3.7-5.7,9.9-9.3,16.7-9.5c2.5-0.1,4.9,0.8,6.7,2.5c1.8,1.7,2.9,4,3,6.5l0.4,12.5c1,30.1-16.3,36.9-30.2,42.4
			c-7.7,3-14.3,5.7-16.9,11.5c-0.9,2-0.4,3.6,0.1,4.6c0.8,1.6,2.4,2.8,4.1,3.1c1.9,0.3,4.1-0.4,5.4-1.8c1-1.2,1.3-2.7,0.7-4.6
			c-0.6-1.8,0.4-3.7,2.2-4.3c1.8-0.6,3.7,0.4,4.3,2.2c1.3,4.2,0.6,8.1-2,11.1c-2.8,3.2-7.5,4.8-11.7,4
			C189.6,156,187.7,155.2,186.1,153.9z"/>
	</g>
	<path class="st0" d="M155.2,198.2l0.4,4.8c-1.6-1-2.7-2.7-2.8-4.6l-0.3-4.4C154,194.8,155.1,196.3,155.2,198.2z"/>
	<polygon class="st0" points="180.2,249.4 133.3,250.5 145.9,155.6 160.1,155.2 	"/>
	<path class="st0" d="M102.7,66.8l1,33.8c0.7,24,14.2,46.1,36.3,59.7l3.4,2.1c5.9,3.6,13.4,3.4,19.1-0.6l3.2-2.3
		c21.3-14.9,33.4-37.8,32.7-61.8l-1-33.8L102.7,66.8z"/>
	<path class="st0" d="M198.4,97.8l-1-33.8l-20.3,0.6l1.1,35.5c0.7,24-11.4,46.9-32.7,61.8l-1.4,1l0,0c5.4,3.3,12.3,3.1,17.6-0.5
		l4-2.8C187,144.7,199.1,121.7,198.4,97.8z"/>
	<path class="st0" d="M201,70.4l-101.6,3c-1.5,0-2.7-1.1-2.8-2.6l-0.2-7.6c0-1.5,1.1-2.7,2.6-2.8l101.6-3c1.5,0,2.7,1.1,2.8,2.6
		l0.2,7.6C203.7,69.1,202.5,70.3,201,70.4z"/>
	<path class="st0" d="M203.6,67.6l-0.2-7.6c0-1.5-1.3-2.6-2.8-2.6l-18,0.5l0.4,13l18-0.5C202.5,70.3,203.7,69.1,203.6,67.6z"/>
	<path class="st0" d="M190,259.1l-65.4,1.9c-2.8,0.1-5.1-2.4-4.8-5.2l1.9-15.7c0.3-2.3,2.2-4,4.5-4.1l60.8-1.8
		c2.3-0.1,4.3,1.6,4.7,3.8l2.8,15.6C194.9,256.4,192.8,259,190,259.1z"/>
	<path class="st0" d="M194.4,253.6l-2.8-15.6c-0.4-2.3-2.4-3.9-4.7-3.8l-17.7,0.5l4.5,24.8l16.3-0.5
		C192.8,259,194.9,256.4,194.4,253.6z"/>
</g>
</svg>
