<?xml version="1.0" encoding="utf-8"?>
<!-- Generator: Adobe Illustrator 22.0.0, SVG Export Plug-In . SVG Version: 6.00 Build 0)  -->
<svg version="1.1" id="Layer_1" xmlns="http://www.w3.org/2000/svg" xmlns:xlink="http://www.w3.org/1999/xlink" x="0px" y="0px"
	 viewBox="0 0 664.9 896.4" style="enable-background:new 0 0 664.9 896.4;" xml:space="preserve">
<style type="text/css">
	.st0{fill:#FED130;}
	.st1{fill:#E8D06B;}
	.st2{fill:#F7BC14;}
	.st3{fill:#FFB125;}
	.st4{fill:#FF901D;}
</style>
<g>
	<g>
		<g>
			<path class="st0" d="M206.4,577.1c-0.9-0.7-1.7-1.5-2.5-2.3c-7.2-7.3-9.7-17.2-6.9-28c1.2-4.6,5.9-7.4,10.5-6.2
				c4.6,1.2,7.4,5.9,6.2,10.5c-1.2,4.8-0.4,8.7,2.4,11.5c3.3,3.4,9.2,4.9,13.9,3.8c4.3-1.1,8.2-4.4,10-8.5c1.2-2.7,2.1-6.9-0.5-11.7
				c-7.6-14.4-24.9-20-44.8-26.6c-36.2-11.8-81.2-26.5-83.4-103.1l-0.9-31.7c-0.2-6.4,2.1-12.5,6.5-17.1c4.4-4.7,10.3-7.3,16.7-7.5
				c17.3-0.5,33.8,7.6,44.1,21.6l6.2,8.4c3.3,4.5,8.5,7,14.1,6.9l35.6-1.1c4.8-0.1,8.7,3.6,8.9,8.4c0.1,4.8-3.6,8.7-8.4,8.9
				l-35.6,1.1c-11.2,0.3-21.8-4.9-28.5-13.9l-6.2-8.4c-6.9-9.4-18-14.9-29.7-14.5c-1.8,0-3.4,0.8-4.7,2.1c-1.2,1.3-1.9,3-1.8,4.8
				l0.9,31.7c1.9,64.5,35.7,75.6,71.6,87.3c21.5,7,43.8,14.3,54.7,34.9c4.5,8.6,4.9,18.1,1,26.8c-4,9.1-12.1,15.9-21.6,18.2
				C224.7,585.5,214,583.1,206.4,577.1z"/>
			<path class="st0" d="M417.5,570.6c-3.5-2.8-6.5-6.4-8.7-10.5c-4.4-8.5-4.7-18-0.7-26.8c9.6-21.2,31.4-29.9,52.4-38.2
				c35-13.9,68.1-27,66-91.5l-1-31.7c-0.1-1.8-0.8-3.4-2.1-4.7c-1.3-1.2-3-1.9-4.8-1.8c-11.7,0.4-22.4,6.5-28.8,16.4l-5.6,8.8
				c-6.1,9.4-16.4,15.3-27.6,15.6l-35.6,1.2c-4.8,0.2-8.7-3.6-8.9-8.3c-0.2-4.8,3.6-8.7,8.3-8.9l35.6-1.2c5.5-0.2,10.6-3.1,13.6-7.7
				l5.6-8.8c9.4-14.6,25.3-23.7,42.7-24.3c6.4-0.2,12.5,2.1,17.2,6.4c4.7,4.4,7.4,10.3,7.6,16.7l1,31.7
				c2.5,76.6-41.5,94.1-76.8,108.1c-19.5,7.7-36.4,14.4-43.1,29.3c-2.3,5-1.1,9.1,0.2,11.7c2.1,4.1,6.2,7.1,10.5,7.9
				c4.8,0.9,10.5-1.1,13.6-4.6c2.7-3,3.2-7,1.7-11.7c-1.5-4.5,1-9.4,5.5-10.9c4.5-1.5,9.4,1,10.9,5.5c3.4,10.6,1.6,20.6-5.1,28.3
				c-7.1,8.1-19,12.2-29.7,10.2C426.4,576.1,421.5,573.8,417.5,570.6z"/>
		</g>
		<path class="st1" d="M338.8,683.4l1,12.3c-4-2.5-6.8-6.8-7.2-11.8l-0.9-11.2C335.6,674.8,338.4,678.7,338.8,683.4z"/>
		<polygon class="st0" points="402.3,814 282.8,816.8 315,575.1 351.2,574 		"/>
		<path class="st0" d="M205,348.7l2.6,86.1c1.8,61.1,36.1,117.5,92.5,152.1l8.6,5.3c15.1,9.3,34.2,8.7,48.7-1.4l8.3-5.8
			c54.2-37.9,85.1-96.3,83.3-157.3l-2.6-86.1L205,348.7z"/>
		<path class="st2" d="M448.7,427.6l-2.6-86.1l-51.7,1.5l2.9,90.6c1.8,61.1-29.1,119.5-83.3,157.3l-3.5,2.5l0,0
			c13.9,8.5,31.4,8,44.8-1.3l10.2-7.1C419.6,547.1,450.6,488.7,448.7,427.6z"/>
		<path class="st3" d="M455.5,357.8l-258.9,7.7c-3.8,0.1-6.9-2.9-7-6.6l-0.6-19.5c-0.1-3.8,2.9-6.9,6.6-7l258.9-7.7
			c3.8-0.1,6.9,2.9,7,6.6l0.6,19.5C462.3,354.6,459.3,357.7,455.5,357.8z"/>
		<path class="st4" d="M462.2,350.8l-0.6-19.5c-0.1-3.8-3.3-6.7-7-6.6l-45.7,1.4l1,33.1l45.7-1.4
			C459.3,357.7,462.3,354.6,462.2,350.8z"/>
		<path class="st3" d="M427.3,838.7l-166.7,5c-7.2,0.2-13-6.1-12.1-13.2l4.8-40c0.7-5.8,5.5-10.3,11.4-10.4l154.8-4.6
			c5.9-0.2,11,4,12,9.7l7.1,39.6C439.9,831.8,434.6,838.4,427.3,838.7z"/>
		<path class="st4" d="M438.6,824.7l-7.1-39.6c-1-5.8-6.1-9.9-12-9.7l-45.2,1.3l11.4,63.2l41.6-1.2
			C434.6,838.4,439.9,831.8,438.6,824.7z"/>
	</g>
</g>
</svg>
