<?xml version="1.0" encoding="utf-8"?>
<!-- Generator: Adobe Illustrator 22.0.0, SVG Export Plug-In . SVG Version: 6.00 Build 0)  -->
<svg version="1.1" id="Layer_1" xmlns="http://www.w3.org/2000/svg" xmlns:xlink="http://www.w3.org/1999/xlink" x="0px" y="0px"
	 viewBox="0 0 664.9 1133.1" style="enable-background:new 0 0 664.9 1133.1;" xml:space="preserve">
<style type="text/css">
	.st0{fill:#C82D1B;}
	.st1{fill:#B4241A;}
	.st2{fill:#E63D27;}
	.st3{fill:#D73424;}
	.st4{fill:#FFFFFF;}
	.st5{fill:#E7E7E7;}
	.st6{fill:#B0D133;}
	.st7{fill:#5B6D13;}
	.st8{fill:#501627;}
	.st9{fill:#F56A82;}
</style>
<path class="st0" d="M103.9,774.3l-19.8-21.9c0,0-52.5,57.8-27.5,155.5c22.1,86.3,76.1,38.4,58.5-13.1
	C97.6,843.2,103.9,774.3,103.9,774.3z"/>
<path class="st1" d="M114.9,894.7C97.3,843.2,103.8,774,103.8,774l-29.9-7.6c-9.9,33.1,22.5,99.1,26.5,117.8
	c4.2,18.5,9.6,37.7,2.2,53.4c-7.3,15.6-31,5.6-31,5.6C96.3,976.1,129.5,936.6,114.9,894.7z"/>
<path class="st1" d="M489.8,779.1l3-29.4c0,0,76.1,14.9,113.5,108.5c33.1,82.6-38.8,76.7-54.6,24.7
	C535.5,830.6,489.8,779.1,489.8,779.1z"/>
<path class="st0" d="M551.6,882.7c4.4,12.7,11.4,23.3,19.9,29.8c11.5,8.8,27,0.6,19.3-14.4c-2.9-5.8-9.6-18.7-17.4-24.4
	C560.5,864.5,545.9,866,551.6,882.7z"/>
<path class="st0" d="M221.2,937.6c0,0-9.7,124.6-27.5,133c-17.9,8.5-11.5,13.8,31.6,13.8s51.5-4.2,53.7-40.5
	c2.2-36.1-10.9-94.2-10.9-94.2L221.2,937.6z"/>
<path class="st0" d="M396.4,1070.7c-17.9-8.5-27.5-133-27.5-133l-46.7,12.5c0,0-13.1,58-10.9,94.2c2.2,36.1,10.5,40.5,53.7,40.5
	C407.9,1084.5,414,1079,396.4,1070.7z"/>
<path class="st1" d="M269.7,1035.2c-6.8,36.6-34,52.6-75,47.9c6.7,1,16.7,1.6,30.4,1.6c43.1,0,51.5-4.2,53.7-40.5
	c2.2-36.2-10.9-94.2-10.9-94.2l-46.8-12.5c0,0,7.6,7.6,24,14.8C261.3,959.7,276.4,998.6,269.7,1035.2z"/>
<path class="st1" d="M370,1011.2c3.2,35.7,27.1,74.9-21.1,73.1l0,0c4.6,0.1,9.9,0.4,15.8,0.4c43.1,0,49.2-5.3,31.6-13.8
	c-17.9-8.5-27.5-133-27.5-133l-46.7,12.5c0,0,12.7,4.2,23.5,4.2C356.4,954.5,366.8,975.3,370,1011.2z"/>
<path class="st2" d="M509,675.2c7.8,10.2,19.5,16.2,19.5,16.2c-4.2-49.8-68.7-106.6-68.7-106.6c21.6,7.4,22.1,0.5,22.1,0.5
	c-63-64.2-136.3-60.3-136.3-60.3c7.4-0.6,12.6-10.2,12.6-10.2c-31.1-10.5-57.3,5.3-57.3,5.3s-30.9-8.2-41.9-24
	c0,0-9.9,19.8,8.4,29.8c0,0-37.8-15.5-86.9,7.1c0,0,13.9,10.1,29.4,10.1c0,0-68.7,1.3-120.4,79.4c0,0,10.5,3,21.3-4
	c-12.5,13.1-34.2,40.8-40.1,80.3c0,0,8.2-1.6,14.4-11.1c-7.4,18.8-20.5,65.2-2.5,126.9c0,0,5.3-0.5,6.8-27.1
	c0,0,14.9,101.7,71.6,145.2c0,0,7-12.6-1.2-31.9c0,0,37,35.1,41.2,58.5c0,0,8-14.3,2.5-29.4c0,0,31,22.7,96.2,22.7
	S402,926.5,402,926.5c-3.6,13.1,7.8,25.9,7.8,25.9c1.1-21.6,29.7-51.6,29.7-51.6c-10.9,10.1-1.2,30.7-1.2,30.7
	c20.5-17.6,34.7-52,41.1-69.9c-1.3,12.4,6.2,21.1,6.2,21.1c27.4-29.8,25.9-102.1,25.9-102.1c1.9,17.9,17.2,33.1,17.2,33.1
	C541.2,746.8,509,675.2,509,675.2z"/>
<path class="st3" d="M159.6,900.7c0,0,37,35.1,41.2,58.5c0,0,8-14.3,2.5-29.4c0,0,31,22.7,96.2,22.7S402,926.5,402,926.5
	c-3.6,13.1,7.8,25.9,7.8,25.9c1.1-21.6,29.7-51.6,29.7-51.6c-10.9,10.1-1.2,30.7-1.2,30.7c20.5-17.6,34.7-52,41.1-69.9
	c-1.3,12.4,6.2,21.1,6.2,21.1c27.4-29.8,25.9-102.2,25.9-102.2c1.9,17.9,17.2,33.1,17.2,33.1c12.6-66.9-19.5-138.6-19.5-138.6
	c7.8,10.2,19.5,16.2,19.5,16.2c-4.4-49.7-68.8-106.5-68.8-106.5c21.6,7.4,22.1,0.5,22.1,0.5c-63-64.2-136.3-60.3-136.3-60.3
	s7.6-0.7,16.8,9.7c9.1,10.5,20.5,25.2,43.3,32.8c22.8,7.6,79.5,37,95.8,84.5c0,0-13.6-4.1-19.6-12.5c0,0,50,101.8,13.1,196.7
	c0,0-9-9.7-7.3-22.8c0,0-38.8,112.9-172.3,124.4C208,947.1,159.6,900.7,159.6,900.7z"/>
<g>
	<g>
		<ellipse class="st4" cx="237.4" cy="715.4" rx="50.8" ry="51.4"/>
		<path class="st5" d="M288.1,712.6c-0.1-2.9-0.6-5.8-1.1-8.4c0.1,0.7,0.1,1.6,0.1,2.4c1.6,28.2-19.8,52.5-47.7,54.3
			c-25.2,1.3-47.1-15.8-52.2-40c2.8,27,26.2,47.5,53.4,45.9C268.3,764.9,289.6,740.8,288.1,712.6z"/>
		<path class="st6" d="M255.4,709.6c0.6,11.1-7.8,20.7-18.7,21.3c-10.9,0.6-20.4-7.8-21-18.8c-0.6-11.1,7.8-20.7,18.7-21.3
			C245.5,690.1,254.9,698.4,255.4,709.6z"/>
		<path class="st7" d="M246.5,709.9c0.4,6.2-4.2,11.4-10.3,11.8s-11.3-4.2-11.5-10.5c-0.4-6.2,4.2-11.4,10.3-11.8
			C241.1,699,246.3,703.9,246.5,709.9z"/>
		<path class="st4" d="M249.3,701.6c0.1,3.5-2.4,6.5-5.9,6.7c-3.5,0.1-6.4-2.5-6.7-5.9c-0.1-3.5,2.4-6.5,5.9-6.7
			C246.1,695.4,249.2,698.2,249.3,701.6z"/>
	</g>
	<g>
		<path class="st4" d="M428.8,712.6c1.6,28.2-19.8,52.5-47.7,54.3c-28,1.6-52-19.9-53.7-48.3c-1.6-28.2,19.8-52.5,47.7-54.3
			C403.3,662.5,427.2,684.1,428.8,712.6z"/>
		<path class="st5" d="M428.8,712.6c-0.1-2.9-0.6-5.8-1.1-8.4c0.1,0.7,0.1,1.6,0.1,2.4c1.6,28.2-19.8,52.5-47.7,54.3
			c-25.2,1.3-47.1-15.8-52.2-40c2.8,27,26.2,47.5,53.4,45.9C409,764.9,430.5,740.8,428.8,712.6z"/>
		<path class="st6" d="M396.3,709.6c0.6,11.1-7.8,20.7-18.7,21.3c-10.9,0.6-20.4-7.8-21-18.8c-0.6-11.1,7.8-20.7,18.7-21.3
			C386.2,690.1,395.4,698.4,396.3,709.6z"/>
		<path class="st7" d="M387.3,709.9c0.4,6.2-4.2,11.4-10.3,11.8s-11.3-4.2-11.5-10.5c-0.2-6.3,4.2-11.4,10.3-11.8
			C381.7,699.1,387,703.9,387.3,709.9z"/>
		<path class="st4" d="M390,701.6c0.1,3.5-2.4,6.5-5.9,6.7c-3.5,0.1-6.4-2.5-6.7-5.9c-0.1-3.5,2.4-6.5,5.9-6.7
			C386.8,695.4,389.9,698.2,390,701.6z"/>
	</g>
</g>
<g>
	<path class="st8" d="M292,822.7c35.1,0.5,58.8-4.1,67.4-13.8c8.5-9.7,40,4,21.3,35.7c-18.7,31.7-62.4,34.7-88.6,34.2
		s-90.3-27.5-77.2-59.4C228,787.1,260.7,822.3,292,822.7z"/>
	<path class="st9" d="M252.9,868.3c0,0,36.6-37.9,106.4-3C359.4,865.3,309.9,895.3,252.9,868.3z"/>
	<path class="st4" d="M252.9,811.4c0,0-1.2,20.8,3,22.3c4.2,1.7,6.1-7.3,6.1-7.3s28.8,10.3,72,3.8c0,0,0.5,6.8,3.8,7.3
		c3.4,0.5,7.9-20.5,7.9-20.5s-14.8,5.8-45,5.8C278.9,822.7,252.9,811.4,252.9,811.4z"/>
</g>
<path class="st1" d="M589.3,915c0.6,0.5,0.7,1.2,1.2,1.9c3,4.7,9.6,5.2,13.3,1l0,0c15.8-18.1,12.5-46.2-7.4-59
	C572.8,843.3,534.2,873.5,589.3,915z"/>
</svg>
