<?xml version="1.0" encoding="utf-8"?>
<!-- Generator: Adobe Illustrator 22.0.0, SVG Export Plug-In . SVG Version: 6.00 Build 0)  -->
<svg version="1.1" id="Layer_1" xmlns="http://www.w3.org/2000/svg" xmlns:xlink="http://www.w3.org/1999/xlink" x="0px" y="0px"
	 viewBox="0 0 664.9 1133.1" style="enable-background:new 0 0 664.9 1133.1;" xml:space="preserve">
<style type="text/css">
	.st0{fill:#545454;}
	.st1{fill:#FFFFFF;}
	.st2{fill:#D2B420;}
	.st3{fill:#C0A01D;}
	.st4{fill:#F3DB22;}
	.st5{fill:#E5C823;}
	.st6{fill:#E7E7E7;}
	.st7{fill:#66C1C6;}
	.st8{fill:#266363;}
	.st9{fill:#501627;}
	.st10{fill:#F56A82;}
</style>
<circle class="st0" cx="332.4" cy="795" r="315.6"/>
<g>
	<path class="st1" d="M397.2,770.6c13,2.2,25,6.1,35.9,11.8c10.9,5.7,20.3,12.8,28,21.3c7.8,8.6,13.8,18.4,18,29.5
		c4.2,11.1,6.3,23.1,6.3,35.8c0,17.2-4,32.6-12,46.2c-8,13.7-19.4,25.3-34.3,35c-14.9,9.7-32.9,17.1-53.9,22.4
		c-21,5.3-44.5,7.9-70.6,7.9c-63.9,0-113.9-16.2-150-48.7l54.2-62.4c11.3,10.2,24.3,18,38.8,23.3c14.5,5.3,31.8,7.9,52,7.9
		c47.5,0,71.2-15.1,71.2-45.4c0-16.4-7-28.8-21.1-37.2c-14.1-8.4-36.2-12.6-66.5-12.6h-18.9v-62.9h20.8c23.5,0,41.9-4.2,55.1-12.6
		c13.2-8.4,19.9-19.5,19.9-33.4c0-12-4.8-21.1-14.5-27.4c-9.7-6.2-22.5-9.3-38.4-9.3c-17.2,0-32.9,3.6-46.9,10.7
		c-14.1,7.1-25.9,17.2-35.6,30.4L171,637.7c6.7-7.7,15.5-14.8,26.5-21.3c10.9-6.6,23.3-12.1,37.2-16.7c13.9-4.6,28.8-8.1,44.7-10.7
		c16-2.6,32.3-3.8,49.2-3.8c22.3,0,42.6,2.3,61.1,6.8c18.5,4.6,34.2,11.1,47.3,19.7c13,8.6,23.1,18.8,30.2,30.6
		c7.1,11.9,10.7,25.1,10.7,39.7c0,10.9-2,21.3-6,31.2c-4,9.8-9.6,18.8-16.7,26.8c-7.1,8-15.7,14.7-25.5,20
		C419.8,765.2,409,768.8,397.2,770.6z"/>
</g>
<path class="st2" d="M155.9,384.9l-13.1-20.3c0,0-50.3,38.9-43.6,120.6c6,72.2,56.3,41.4,49.1-2.3
	C141.2,439.3,155.9,384.9,155.9,384.9z"/>
<path class="st3" d="M136.4,370.5c0,0,6.7,45.5,0.1,75.4c-6.5,29.9,6.5,60.6-5.9,71.5c-12.4,10.8-25-3.8-25-3.8
	c15.1,32.8,48.7,5.5,42.7-30.7c-7.2-43.7,7.5-98,7.5-98l-13.1-20.3L136.4,370.5z"/>
<g>
	<path class="st2" d="M402.1,195.7l-24-2c0,0,10.7-62.7,86-95c66.5-28.6,63,30.3,21,44.5C443.2,157.1,402.1,195.7,402.1,195.7z"/>
	<path class="st3" d="M406.2,152.5c-18.5,35.3,1.8,38,1.8,38l-5.9,5.2l-24-2c0,0,10.7-62.7,86-95
		C464.2,98.6,424.7,117.3,406.2,152.5z"/>
</g>
<g>
	<path class="st2" d="M293.3,426.2c0,0,7,101.2-6.4,110.2c-13.5,9-7.7,12.5,27.3,7.3c35-5.2,41.3-9.6,38.7-38.9
		c-2.6-29.2-20.1-74.3-20.1-74.3L293.3,426.2z"/>
	<path class="st3" d="M344.4,498.5c-1.1,30.3-21.4,46.4-55.3,47.5c5.6,0,13.7-0.7,24.9-2.4c35-5.2,41.3-9.6,38.7-38.9
		c-2.6-29.2-20.1-74.3-20.1-74.3l-39.4-4.3c0,0,7,5.1,21.2,9C328.6,439,345.6,468.3,344.4,498.5z"/>
</g>
<g>
	<path class="st2" d="M523.8,337c-10.7,12.2-110-8.1-110-8.1l-0.9,39.6c0,0,42.2,23.2,71,29.7c28.6,6.5,33.9,0.8,43.7-33.2
		C537.3,330.9,534.5,324.8,523.8,337z"/>
	<path class="st3" d="M471.3,344.4c28.6,5.5,64.6-4.7,52.3,33l0,0c1.2-3.6,2.5-7.7,3.9-12.4c9.8-34,7.1-40.1-3.6-28
		c-10.7,12.2-110-8.1-110-8.1l-1,39.6c0,0,6.3-9.1,8.7-17.6C424,342.4,442.7,338.9,471.3,344.4z"/>
</g>
<path class="st4" d="M484.5,222.2c-37.1-38.4-89.9-75.7-107.9-88c10.3,4.2,23.5,0.3,23.5,0.3c-42.4-48.8-102.3-80.8-102.3-80.8
	c14.9,7.4,29.4-0.4,29.4-0.4C280.3,17.4,253.5,37,253.5,37c4.5-19.4-15.5-32-15.5-32c6.1,26.3-21.2,48.5-21.2,48.5l-108.5,71.9
	c0,0-31.1,16.6-52.9,0.7c0,0,3.8,23.3,23.5,26.7c0,0-28.4,17-13.6,74.1c0,0,12.8-10.3,11.8-26.9c0,0,6.2,67.6,34.6,125.7
	c0,0,8.8-10.6,8.9-21.7c4.3,21.4,18.1,84.6,39.1,133.7c0,0,8-7,9.5-17.6c4.1,21.6,16.8,64,53.6,88.4c0,0,5.4-10.4-5.3-24.9
	c4,5.5,10.6,14.4,10.6,14.4s21.4,11.6,41.7,2.2c0,0-8.9-5.3-19.1-14.2l0,0c6-1.5,11.8-3.9,17.2-7.5l212.3-140.7
	c5.4-3.6,10-8.1,13.6-13l0,0c4.3,12.9,5.6,23.1,5.6,23.1c16.5-15,14.2-39.3,14.2-39.3s-5.8-9.6-9.1-15.4
	c9.1,15.4,20.9,14.6,20.9,14.6c-8.2-43.4-42.3-71.6-60.6-83.8C474.9,226.9,484.5,222.2,484.5,222.2z"/>
<path class="st5" d="M250.5,486.1c6-1.5,11.8-3.9,17.2-7.5L480,337.9c5.4-3.6,10-8.1,13.6-13l0,0c4.3,12.9,5.6,23.1,5.6,23.1
	c16.5-15,14.2-39.3,14.2-39.3s-5.8-9.6-9.1-15.4c9.1,15.4,20.9,14.6,20.9,14.6c-8.2-43.4-42.3-71.6-60.6-83.8
	c10.3,2.7,19.9-1.9,19.9-1.9c-37.1-38.4-89.9-75.7-107.9-88c10.3,4.2,23.5,0.3,23.5,0.3c-42.4-48.8-102.3-80.8-102.3-80.8
	c14.9,7.4,29.4-0.4,29.4-0.4C280.3,17.4,253.5,37,253.5,37c4.5-19.4-15.5-32-15.5-32c6.1,26.3-21.2,48.5-21.2,48.5l-108.5,71.9
	c0,0,109.1-80.4,163.9-76.3c0,0-8.4,11.7-19.4,14.9c0,0,118.9,46.7,198.4,145c0,0-15.2,2.8-27.1-3.5c0,0,73.2,60.8,78,112.9
	c0,0-13.2-7.1-24.4-17.9C477.7,300.7,464,350,250.5,486.1z"/>
<g>
	<path class="st1" d="M340.9,150.4c19.1,25.6,14,61.8-11.6,80.9s-61.8,14-80.9-11.6s-14-61.8,11.6-80.9
		C285.5,119.7,321.7,124.8,340.9,150.4z"/>
	<path class="st6" d="M340.9,150.4c-1.9-2.6-4-5-6.3-7.1c0.6,0.7,1.2,1.4,1.7,2.1c19.1,25.6,14,61.8-11.6,80.9
		c-23,17.1-54.6,14.7-74.6-4.5c19.5,23.7,54.4,28.1,79.2,9.5C354.8,212.2,360.1,176,340.9,150.4z"/>
	<path class="st7" d="M313.4,168.2c7.5,10,5.5,24.2-4.5,31.7c-10,7.5-24.2,5.5-31.7-4.5c-7.5-10-5.5-24.2,4.5-31.7
		C291.8,156.2,305.9,158.2,313.4,168.2z"/>
	<path class="st8" d="M305.3,174.2c4.1,5.5,3,13.4-2.5,17.5c-5.5,4.1-13.4,3-17.5-2.5c-4.1-5.5-3-13.4,2.5-17.5
		C293.4,167.6,301.2,168.8,305.3,174.2z"/>
	<path class="st1" d="M302.6,164.8c2.3,3.1,1.7,7.6-1.4,10c-3.1,2.3-7.6,1.7-10-1.4s-1.7-7.6,1.4-10
		C295.8,161,300.3,161.6,302.6,164.8z"/>
	<path class="st1" d="M236.1,219.9c19.1,25.6,14,61.8-11.6,80.9c-25.6,19.1-61.8,14-80.9-11.6c-19.1-25.6-14-61.8,11.6-80.9
		S217,194.3,236.1,219.9z"/>
	<path class="st6" d="M236.1,219.9c-1.9-2.6-4-5-6.3-7.1c0.6,0.7,1.2,1.4,1.7,2.1c19.1,25.6,14,61.8-11.6,80.9
		c-23,17.1-54.6,14.7-74.6-4.5c19.5,23.7,54.4,28.1,79.2,9.5C250,281.7,255.2,245.5,236.1,219.9z"/>
	<path class="st7" d="M208.7,237.7c7.5,10,5.5,24.2-4.5,31.7c-10,7.5-24.2,5.5-31.7-4.5c-7.5-10-5.5-24.2,4.5-31.7
		C187,225.7,201.2,227.7,208.7,237.7z"/>
	<path class="st8" d="M200.5,243.7c4.1,5.5,3,13.4-2.5,17.5c-5.5,4.1-13.4,3-17.5-2.5c-4.1-5.5-3-13.4,2.5-17.5
		C188.6,237.1,196.4,238.3,200.5,243.7z"/>
	<path class="st1" d="M197.8,234.2c2.3,3.1,1.7,7.6-1.4,10c-3.1,2.3-7.6,1.7-10-1.4c-2.3-3.1-1.7-7.6,1.4-10
		C191,230.4,195.4,231.1,197.8,234.2z"/>
</g>
<g>
	<path class="st9" d="M314,338.3c18.3-11.8,29.1-22.3,30.1-30.2c1.1-7.9,22.1-11.6,23.1,11c1.1,22.6-20.6,39.2-34.2,47.9
		c-13.8,8.8-56.1,16.8-60.2-3.9C268.8,342.1,297.7,348.8,314,338.3z"/>
	<path class="st10" d="M309.3,375.1c0,0,6.1-32,54.1-38C363.4,336.9,347.9,369.3,309.3,375.1z"/>
	<path class="st1" d="M289.9,345.8c0,0,6.4,11,9.2,10.5c2.8-0.5,0.6-5.8,0.6-5.8s18.5-4.7,38.5-22.6c0,0,2.6,3.3,4.5,2.4
		c1.9-0.9-2.9-13.2-2.9-13.2s-5.7,8-21.3,18.3C307.2,342.9,289.9,345.8,289.9,345.8z"/>
</g>
</svg>
