<?xml version="1.0" encoding="utf-8"?>
<!-- Generator: Adobe Illustrator 22.0.0, SVG Export Plug-In . SVG Version: 6.00 Build 0)  -->
<svg version="1.1" id="Layer_1" xmlns="http://www.w3.org/2000/svg" xmlns:xlink="http://www.w3.org/1999/xlink" x="0px" y="0px"
	 viewBox="0 0 664.9 1133.1" style="enable-background:new 0 0 664.9 1133.1;" xml:space="preserve">
<style type="text/css">
	.st0{fill:#BA428D;}
	.st1{fill:#A73983;}
	.st2{fill:#DC519B;}
	.st3{fill:#CA4791;}
	.st4{fill:#FFFFFF;}
	.st5{fill:#E7E7E7;}
	.st6{fill:#B0D133;}
	.st7{fill:#5B6D13;}
	.st8{fill:#501627;}
	.st9{fill:#F56A82;}
</style>
<g>
	<path class="st0" d="M149.7,721.4l-20,22.2c0,0-53.9-57.5-29.4-156.1c21.5-87.2,77.2-39.5,59.6,12.6
		C142.5,652.1,149.7,721.4,149.7,721.4z"/>
	<path class="st1" d="M159.9,600.1c-17.4,52-10.2,121.3-10.2,121.3l-30.4,8.1c-10.4-33.2,21.9-99.9,26-118.6
		c4.1-18.7,9.3-38,1.7-53.7s-31.7-5.2-31.7-5.2C140.2,518.5,174.2,557.9,159.9,600.1z"/>
</g>
<path class="st1" d="M516.1,714l17.9,22.4c0,0,52-56.6,32.7-155.4c-17-87.2-70.2-40.6-55.7,11.7C525.2,644.9,516.1,714,516.1,714z"
	/>
<path class="st0" d="M254.8,985.7c0,0-9.9,125.4-28.1,133.9s-11.8,13.9,32.1,13.9s52.3-4.3,54.4-40.7c2.1-36.4-11-94.6-11-94.6
	L254.8,985.7z"/>
<path class="st0" d="M433.1,1119.5c-18.2-8.6-28.1-133.9-28.1-133.9l-47.4,12.5c0,0-13.1,58.2-11,94.6s10.7,40.7,54.4,40.7
	C444.9,1133.4,451.3,1128,433.1,1119.5z"/>
<path class="st1" d="M304.2,1083.7c-6.9,36.8-34.7,52.9-76.4,48.2c6.7,1.1,17,1.5,31,1.5c43.9,0,52.3-4.3,54.4-40.7
	c2.1-36.4-11-94.6-11-94.6l-47.4-12.5c0,0,7.8,7.6,24.3,14.8C295.8,1007.9,311.3,1046.9,304.2,1083.7z"/>
<path class="st1" d="M406.3,1059.6c3.2,35.9,27.8,75.4-21.4,73.5l0,0c4.7,0.3,10.1,0.3,16.1,0.3c43.9,0,50.3-5.4,32.1-13.9
	S405,985.6,405,985.6l-47.4,12.5c0,0,13,4.3,24,4.3C392.4,1002.5,403.1,1023.6,406.3,1059.6z"/>
<path class="st2" d="M547.9,721.5c8,10.2,19.9,16.5,19.9,16.5c-4.3-50.3-69.9-107.3-69.9-107.3c22,7.5,22.3,0.5,22.3,0.5
	c-64.1-64.8-138.7-60.8-138.7-60.8c7.6-0.6,12.8-10.2,12.8-10.2c-31.8-10.5-58.2,5.5-58.2,5.5s-31.3-8.3-42.8-24
	c0,0-9.9,19.9,8.6,30c0,0-38.5-15.7-88.4,7.2c0,0,14.2,9.9,30,9.9c0,0-69.9,1.4-122.5,79.8c0,0,10.7,3.1,21.6-4
	c-12.7,13.1-34.9,41.1-40.8,80.9c0,0,8.4-1.5,14.7-11.2c-7.6,19-20.8,65.4-2.6,127.7c0,0,5.5-0.5,6.9-27.5c0,0,15.3,102.3,72.9,146
	c0,0,7-12.8-1.2-32.1c0,0,37.6,35.3,41.9,58.7c0,0,8.3-14.4,2.6-29.7c0,0,31.6,22.9,98,22.9c66.2,0,104.3-26.1,104.3-26.1
	c-3.7,13,8,26.1,8,26.1c1.1-21.7,30.1-52,30.1-52c-11.2,10.1-1.2,31-1.2,31c20.8-17.7,35.3-52.3,41.7-70.3
	c-1.4,12.5,6.4,21.1,6.4,21.1c27.8-30,26.4-102.7,26.4-102.7c1.8,18,17.3,33.3,17.3,33.3C580.5,793.5,547.9,721.5,547.9,721.5z"/>
<path class="st3" d="M192.5,958.6c0,0,37.6,35.3,41.9,58.7c0,0,8.3-14.4,2.6-29.7c0,0,31.6,22.9,98,22.9
	c66.2,0,104.3-26.1,104.3-26.1c-3.7,13,8,26.1,8,26.1c1.1-21.7,30.1-52,30.1-52c-11.2,10.1-1.2,31-1.2,31
	c20.8-17.7,35.3-52.3,41.7-70.3c-1.4,12.5,6.4,21.1,6.4,21.1c27.8-30,26.4-102.7,26.4-102.7c1.8,18,17.3,33.3,17.3,33.3
	c12.8-67.3-19.9-139.3-19.9-139.3c8,10.2,19.9,16.5,19.9,16.5c-4.3-50.3-69.9-107.3-69.9-107.3c22,7.5,22.3,0.5,22.3,0.5
	c-64.1-64.8-138.7-60.8-138.7-60.8s7.6-0.9,17.1,9.6c9.3,10.5,20.8,25.4,44,33s80.7,37.2,97.5,85c0,0-13.8-4.1-20-12.5
	c0,0,50.9,102.4,13.3,197.8c0,0-9.2-9.8-7.5-22.9c0,0-39.4,113.6-175.2,125.2C241.4,1004.9,192.5,958.6,192.5,958.6z"/>
<g>
	<g>
		<ellipse class="st4" cx="263.1" cy="707.5" rx="51.4" ry="51.4"/>
		<path class="st5" d="M314.3,704.6c-0.2-2.9-0.6-5.7-1.2-8.4c0.2,0.8,0.2,1.5,0.2,2.4c1.7,28.3-20,52.6-48.3,54.1
			c-25.4,1.5-47.7-15.9-53.1-40.1c2.8,27.1,26.4,47.5,54,46C294.3,757.1,316,732.8,314.3,704.6z"/>
		<path class="st6" d="M281.4,701.5c0.6,11-7.8,20.6-19,21.3c-11,0.6-20.6-7.8-21.3-19c-0.6-11,7.8-20.6,19-21.3
			C271.2,682.1,280.7,690.5,281.4,701.5z"/>
		<path class="st7" d="M272.4,702.1c0.3,6.1-4.3,11.3-10.4,11.8c-6.1,0.3-11.3-4.3-11.8-10.4c-0.3-6.1,4.3-11.3,10.4-11.8
			C266.8,691.3,272,696,272.4,702.1z"/>
		<path class="st4" d="M275,693.7c0.2,3.5-2.4,6.4-6,6.7c-3.5,0.2-6.4-2.4-6.7-6c-0.2-3.5,2.4-6.4,6-6.7
			C271.8,687.6,274.9,690.2,275,693.7z"/>
	</g>
	<g>
		<path class="st4" d="M456.8,704.6c1.7,28.3-20,52.6-48.3,54.1c-28.3,1.7-52.6-20-54.1-48.3c-1.7-28.3,20-52.6,48.3-54.1
			C431,654.6,455.1,676.3,456.8,704.6z"/>
		<path class="st5" d="M456.8,704.6c-0.2-2.9-0.6-5.7-1.2-8.4c0.2,0.8,0.2,1.5,0.2,2.4c1.7,28.3-20,52.6-48.3,54.1
			c-25.4,1.5-47.7-15.9-53.1-40.1c2.8,27.1,26.4,47.5,54,46C436.8,757.1,458.5,732.8,456.8,704.6z"/>
		<path class="st6" d="M423.8,701.5c0.6,11-7.8,20.6-19,21.3c-11,0.6-20.6-7.8-21.3-19c-0.6-11,7.8-20.6,19-21.3
			C413.7,682.1,423.2,690.5,423.8,701.5z"/>
		<path class="st7" d="M414.8,702.1c0.3,6.1-4.3,11.3-10.4,11.8c-6.1,0.3-11.3-4.3-11.8-10.4c-0.3-6.1,4.3-11.3,10.4-11.8
			C409.3,691.3,414.5,696,414.8,702.1z"/>
		<path class="st4" d="M417.5,693.7c0.2,3.5-2.4,6.4-6,6.7c-3.5,0.2-6.4-2.4-6.7-6c-0.2-3.5,2.4-6.4,6-6.7
			C414.3,687.6,417.4,690.2,417.5,693.7z"/>
	</g>
</g>
<g>
	<path class="st8" d="M310.8,825.3c0,0,26,20.5,51.1,4.4c25.1-15.9,37.5,41.3-13.6,47.1C297.2,882.5,283.3,844.6,310.8,825.3z"/>
	<path class="st9" d="M319.2,874.7c0,0,13.3-44.6,56.7-10.2C375.9,864.3,357.9,887.4,319.2,874.7z"/>
</g>
</svg>
