<?xml version="1.0" encoding="utf-8"?>
<!-- Generator: Adobe Illustrator 22.0.0, SVG Export Plug-In . SVG Version: 6.00 Build 0)  -->
<svg version="1.1" id="Layer_1" xmlns="http://www.w3.org/2000/svg" xmlns:xlink="http://www.w3.org/1999/xlink" x="0px" y="0px"
	 viewBox="0 0 664.9 1133.1" style="enable-background:new 0 0 664.9 1133.1;" xml:space="preserve">
<style type="text/css">
	.st0{fill:#18662B;}
	.st1{fill:#175622;}
	.st2{fill:#218942;}
	.st3{fill:#1F7736;}
	.st4{fill:#501627;}
	.st5{fill:#F56A82;}
	.st6{fill:#FFFFFF;}
	.st7{fill:#E7E7E7;}
	.st8{fill:#F6901B;}
	.st9{fill:#6B390B;}
</style>
<path class="st0" d="M87.4,804.4l-20.2-22c0,0-53.3,58-28,156.4c22.4,87,77.4,38.8,59.6-13S87.4,804.4,87.4,804.4z"/>
<path class="st1" d="M98.8,925.8c-18-51.8-11.4-121.4-11.4-121.4L57,796.7c-10,33.5,22.9,99.7,27.1,118.3c4.2,18.8,9.5,38,2.1,53.6
	c-7.4,15.8-31.7,5.6-31.7,5.6C79.8,1007.6,113.3,967.9,98.8,925.8z"/>
<path class="st1" d="M474.3,812.2l-11.7,27.6c0,0,75,24.5,154-39.4c69.9-56.5,3.2-86.5-36.7-48.6
	C540.3,789.3,474.3,812.2,474.3,812.2z"/>
<path class="st0" d="M206.8,969c0,0-9.8,125.3-28,134c-18.2,8.6-11.8,13.8,32.1,13.8c43.8,0,52.3-4.2,54.6-40.6
	c2.1-36.2-10.9-94.7-10.9-94.7L206.8,969z"/>
<path class="st0" d="M385,1102.8c-18.2-8.6-28-134-28-134l-47.4,12.6c0,0-13.2,58.3-10.9,94.7c2.1,36.2,10.6,40.6,54.6,40.6
	C396.7,1116.7,403.2,1111.3,385,1102.8z"/>
<path class="st1" d="M256.2,1066.9c-7,37-34.7,53-76.4,48.2c6.8,0.9,17,1.5,31.1,1.5c43.8,0,52.3-4.2,54.6-40.6
	c2.1-36.2-10.9-94.7-10.9-94.7l-47.4-12.6c0,0,7.7,7.6,24.4,15C247.6,991.1,263,1030.1,256.2,1066.9z"/>
<path class="st1" d="M358.2,1042.8c3.2,35.9,27.9,75.5-21.4,73.6l0,0c4.8,0.2,10,0.3,16.1,0.3c43.8,0,50.3-5.5,32.1-13.8
	c-18.2-8.6-28-134-28-134l-47.4,12.6c0,0,13,4.2,24.1,4.2C344.4,985.8,355,1006.9,358.2,1042.8z"/>
<path class="st2" d="M499.9,704.7c8,10.3,19.9,16.4,19.9,16.4c-4.2-50.3-70-107.4-70-107.4c22,7.4,22.4,0.5,22.4,0.5
	c-64.1-64.7-138.8-60.8-138.8-60.8c7.6-0.6,12.9-10.2,12.9-10.2c-31.8-10.5-58.2,5.6-58.2,5.6s-31.5-8.3-42.7-24.1
	c0,0-10,19.9,8.6,29.9c0,0-38.5-15.8-88.3,7.1c0,0,14.4,10,29.9,10c0,0-69.9,1.4-122.6,79.9c0,0,10.6,3,21.7-3.9
	c-12.7,13.2-34.9,41.1-40.9,80.9c0,0,8.5-1.7,14.7-11.2c-7.6,19.1-20.9,65.6-2.6,127.7c0,0,5.6-0.5,6.8-27.6
	c0,0,15.3,102.3,73,146.1c0,0,7-12.9-1.2-32.1c0,0,37.7,35.3,41.8,58.9c0,0,8.3-14.4,2.6-29.5c0,0,31.7,22.9,98,22.9
	s104.3-26.1,104.3-26.1c-3.6,13,8,26.1,8,26.1c1.1-21.8,30.3-52,30.3-52c-11.2,10-1.2,31.1-1.2,31.1c20.9-17.7,35.3-52.3,41.8-70.3
	c-1.4,12.6,6.4,21.2,6.4,21.2c27.9-29.9,26.4-102.7,26.4-102.7c2,18,17.3,33.2,17.3,33.2C532.5,776.7,499.9,704.7,499.9,704.7z"/>
<path class="st3" d="M144.2,931.7c0,0,37.7,35.3,41.8,58.9c0,0,8.3-14.4,2.6-29.5c0,0,31.7,22.9,98,22.9s104.3-26.1,104.3-26.1
	c-3.6,13,8,26.1,8,26.1c1.1-21.8,30.3-52,30.3-52c-11.2,10-1.2,31.1-1.2,31.1c20.9-17.7,35.3-52.3,41.8-70.3
	c-1.4,12.6,6.4,21.2,6.4,21.2c27.9-29.9,26.4-102.7,26.4-102.7c2,18,17.3,33.2,17.3,33.2C532.8,777.2,500,705,500,705
	c8,10.3,19.9,16.4,19.9,16.4c-4.2-50.3-70-107.4-70-107.4c22,7.4,22.4,0.5,22.4,0.5c-64.1-64.7-138.8-60.8-138.8-60.8
	s7.6-0.8,17,9.7s20.8,25.3,43.9,32.9s80.8,37.1,97.6,85c0,0-13.6-4.1-20-12.6c0,0,50.9,102.4,13.2,197.9c0,0-9.2-9.7-7.4-23
	c0,0-39.4,113.6-175.3,125.2C193.3,978.2,144.2,931.7,144.2,931.7z"/>
<g>
	<path class="st4" d="M255.8,833.4c0,0,55.3,13.8,83.6-28.9c28.3-42.7,88.2,38.8,11.7,83.6C274.6,933.1,226.2,883.2,255.8,833.4z"/>
	<path class="st5" d="M303.8,905.4c0,0-10.5-79.7,82.1-56.1C385.8,849.3,373.7,898.1,303.8,905.4z"/>
</g>
<g>
	<ellipse class="st6" cx="200.6" cy="671.5" rx="61.8" ry="61.8"/>
	<path class="st7" d="M262.4,667.9c-0.2-3.5-0.6-6.8-1.4-10c0.2,0.9,0.2,2,0.2,2.9c2,34.2-24.2,63.3-58.2,65.5
		c-30.8,1.8-57.4-19.1-63.9-48.2c3.3,32.7,32,57.3,65,55.3C238.3,731.4,264.4,702.1,262.4,667.9z"/>
	<path class="st8" d="M243.8,682.3c0.8,13.3-9.4,24.9-22.7,25.6c-13.3,0.8-24.9-9.4-25.6-22.7s9.4-24.9,22.7-25.6
		C231.5,658.7,243,669,243.8,682.3z"/>
	<path class="st9" d="M233,682.9c0.5,7.3-5.3,13.6-12.6,14.1c-7.3,0.5-13.6-5.3-14.1-12.6s5.3-13.6,12.6-14.1
		C226.4,670,232.6,675.5,233,682.9z"/>
	<path class="st6" d="M236.2,672.9c0.3,4.1-3,7.7-7.1,8c-4.1,0.3-7.7-3-8-7.1c-0.3-4.1,3-7.7,7.1-8
		C232.4,665.3,236.1,668.5,236.2,672.9z"/>
	<path class="st6" d="M434.1,667.9c2,34.2-24.2,63.3-58.2,65.5c-34.2,2-63.3-24.2-65.5-58.2c-2-34.2,24.2-63.3,58.2-65.5
		C402.9,607.7,432.3,633.8,434.1,667.9z"/>
	<path class="st7" d="M434.1,667.9c-0.2-3.5-0.6-6.8-1.4-10c0.2,0.9,0.2,2,0.2,2.9c2,34.2-24.2,63.3-58.2,65.5
		c-30.8,1.8-57.4-19.1-63.9-48.2c3.3,32.7,32,57.3,65,55.3C410.2,731.4,436.2,702.1,434.1,667.9z"/>
	<path class="st8" d="M415.6,682.3c0.8,13.3-9.4,24.9-22.7,25.6c-13.3,0.8-24.9-9.4-25.6-22.7c-0.8-13.3,9.4-24.9,22.7-25.6
		C403.4,658.7,414.9,669,415.6,682.3z"/>
	<path class="st9" d="M404.7,682.9c0.5,7.3-5.3,13.6-12.6,14.1c-7.3,0.5-13.6-5.3-14.1-12.6c-0.5-7.3,5.3-13.6,12.6-14.1
		C398.1,670,404.4,675.5,404.7,682.9z"/>
	<path class="st6" d="M408.1,672.9c0.3,4.1-3,7.7-7.1,8c-4.1,0.3-7.7-3-8-7.1c-0.3-4.1,3-7.7,7.1-8
		C404.1,665.3,407.8,668.5,408.1,672.9z"/>
</g>
</svg>
