<?xml version="1.0" encoding="utf-8"?>
<!-- Generator: Adobe Illustrator 22.0.0, SVG Export Plug-In . SVG Version: 6.00 Build 0)  -->
<svg version="1.1" id="Layer_1" xmlns="http://www.w3.org/2000/svg" xmlns:xlink="http://www.w3.org/1999/xlink" x="0px" y="0px"
	 viewBox="0 0 833.8 182.4" style="enable-background:new 0 0 833.8 182.4;" xml:space="preserve">
<style type="text/css">
	.st0{fill:#F4F4F4;}
	.st1{fill:#B5B5B5;}
	.st2{fill:#A5A5A5;}
	.st3{fill:#D1D1D1;}
	.st4{fill:#C1C1C1;}
	.st5{fill:#FFFFFF;}
	.st6{fill:#E7E7E7;}
	.st7{fill:#66C1C6;}
	.st8{fill:#266363;}
	.st9{fill:#501627;}
</style>
<g>
	<path class="st0" d="M88.2,111.1c-1.7,1-3.6,1.7-5.6,2.3c-2,0.6-4.1,0.8-6.3,0.8c-3.6,0-6.9-0.7-9.9-2.1c-3-1.4-5.5-3.3-7.7-5.6
		c-2.1-2.3-3.8-5-4.9-8c-1.2-3-1.8-6.1-1.8-9.2c0-3.2,0.6-6.3,1.8-9.3c1.2-3,2.9-5.6,5.1-7.9c2.2-2.3,4.8-4.1,7.8-5.5
		c3-1.4,6.3-2,9.8-2c3.6,0,6.9,0.7,9.9,2.2c3,1.4,5.5,3.3,7.7,5.7c2.1,2.3,3.7,5,4.9,8c1.1,3,1.7,6,1.7,9.1c0,3.1-0.6,6.1-1.7,9
		c-1.1,2.9-2.7,5.4-4.7,7.7l7,7.7H90.8L88.2,111.1z M76.4,104.1c1.8,0,3.4-0.3,4.8-0.9l-7.9-8.7H84l3,3.4c0.7-1.3,1.3-2.7,1.7-4.1
		c0.4-1.5,0.6-3,0.6-4.5c0-1.9-0.3-3.7-0.8-5.5c-0.6-1.8-1.4-3.3-2.5-4.7c-1.1-1.4-2.4-2.4-4-3.3c-1.6-0.8-3.4-1.2-5.5-1.2
		c-2.2,0-4,0.4-5.6,1.3c-1.6,0.9-2.9,2-4,3.4c-1.1,1.4-1.9,3-2.4,4.8c-0.5,1.8-0.8,3.6-0.8,5.4c0,1.9,0.3,3.7,0.8,5.5
		c0.6,1.8,1.4,3.3,2.4,4.7c1.1,1.4,2.4,2.4,4,3.3C72.5,103.7,74.3,104.1,76.4,104.1z"/>
	<path class="st0" d="M128.2,104.2c1.9,0,3.6-0.4,4.9-1.2c1.3-0.8,2.4-1.9,3.2-3.2c0.8-1.3,1.4-2.9,1.8-4.6s0.5-3.5,0.5-5.3v-25H150
		v25c0,3.4-0.4,6.6-1.3,9.5c-0.9,2.9-2.2,5.5-3.9,7.7c-1.8,2.2-4,3.9-6.8,5.2c-2.7,1.3-6,1.9-9.8,1.9c-3.9,0-7.2-0.7-10-2
		c-2.8-1.3-5-3.1-6.7-5.3c-1.7-2.2-3-4.8-3.8-7.8c-0.8-2.9-1.2-6-1.2-9.2v-25h11.3v25c0,1.9,0.2,3.7,0.6,5.4c0.4,1.7,1,3.2,1.8,4.6
		c0.8,1.3,1.9,2.4,3.2,3.2C124.7,103.8,126.3,104.2,128.2,104.2z"/>
	<path class="st0" d="M158.7,113.8v-49H170v49H158.7z"/>
	<path class="st0" d="M213.8,103.9v9.9h-34.4v-49h33.8v9.9h-22.5v9.5H210v9.2h-19.3v10.4H213.8z"/>
	<path class="st0" d="M220.7,113.8v-49h22.1c2.3,0,4.4,0.5,6.4,1.4c2,1,3.6,2.2,5.1,3.8c1.4,1.6,2.5,3.3,3.3,5.3c0.8,2,1.2,4,1.2,6
		c0,1.5-0.2,3-0.6,4.4c-0.4,1.4-0.9,2.7-1.6,4c-0.7,1.2-1.5,2.4-2.5,3.3c-1,1-2.1,1.8-3.3,2.5l10.8,18.2h-12.8L239.4,98H232v15.8
		H220.7z M232,88.2h10.3c1.3,0,2.5-0.6,3.4-1.9c1-1.3,1.4-2.9,1.4-4.9c0-2-0.6-3.6-1.7-4.8c-1.1-1.2-2.3-1.8-3.6-1.8h-10V88.2z"/>
	<path class="st0" d="M288.4,114.2c-3.6,0-6.9-0.7-9.9-2.1c-3-1.4-5.5-3.3-7.7-5.6c-2.1-2.3-3.8-5-4.9-8c-1.2-3-1.8-6.1-1.8-9.2
		c0-3.2,0.6-6.3,1.8-9.3c1.2-3,2.9-5.6,5.1-7.9c2.2-2.3,4.8-4.1,7.8-5.4c3-1.4,6.3-2,9.8-2c3.6,0,6.9,0.7,9.9,2.1
		c3,1.4,5.5,3.3,7.7,5.7c2.1,2.3,3.7,5,4.9,8c1.1,3,1.7,6,1.7,9.1c0,3.2-0.6,6.3-1.8,9.3c-1.2,3-2.9,5.6-5.1,7.9
		c-2.2,2.3-4.7,4.1-7.7,5.5C295.2,113.5,291.9,114.2,288.4,114.2z M275.6,89.4c0,1.9,0.3,3.7,0.8,5.5c0.6,1.8,1.4,3.3,2.4,4.7
		c1.1,1.4,2.4,2.5,4,3.3c1.6,0.8,3.4,1.2,5.5,1.2c2.2,0,4-0.4,5.7-1.3c1.6-0.9,2.9-2,4-3.4c1.1-1.4,1.9-3,2.4-4.8
		c0.5-1.8,0.8-3.6,0.8-5.4c0-1.9-0.3-3.7-0.8-5.5c-0.6-1.8-1.4-3.3-2.5-4.7c-1.1-1.4-2.4-2.4-4-3.2c-1.6-0.8-3.4-1.2-5.5-1.2
		c-2.2,0-4,0.4-5.6,1.3c-1.6,0.9-2.9,2-4,3.3c-1.1,1.4-1.9,3-2.4,4.7C275.9,85.8,275.6,87.6,275.6,89.4z"/>
	<path class="st0" d="M369.8,103.9v9.9h-34.4v-49h33.8v9.9h-22.5v9.5h19.3v9.2h-19.3v10.4H369.8z"/>
	<path class="st0" d="M415.4,113.8V84.5l-10.6,21.3h-6.1l-10.6-21.3v29.3h-11.3v-49H389l12.7,25.6l12.8-25.6h12.2v49H415.4z"/>
	<path class="st0" d="M436.1,113.8v-49H457c2.3,0,4.5,0.5,6.4,1.4c2,1,3.6,2.2,5,3.8c1.4,1.6,2.5,3.3,3.3,5.3c0.8,2,1.2,4,1.2,6
		c0,2.2-0.4,4.2-1.1,6.2c-0.8,2-1.8,3.7-3.2,5.3c-1.4,1.6-3,2.8-4.9,3.7c-1.9,0.9-4.1,1.4-6.4,1.4h-9.9v15.8H436.1z M447.4,88.2h9.2
		c1.3,0,2.5-0.6,3.4-1.7c1-1.1,1.4-2.8,1.4-5c0-1.1-0.1-2.1-0.4-3c-0.3-0.8-0.7-1.5-1.2-2.1s-1.1-1-1.7-1.2
		c-0.6-0.3-1.3-0.4-1.9-0.4h-8.8V88.2z"/>
	<path class="st0" d="M513.4,103.9v9.9H479v-49h33.8v9.9h-22.5v9.5h19.3v9.2h-19.3v10.4H513.4z"/>
	<path class="st0" d="M517.6,105.3l25.5-30.6h-24.6v-9.9h37.6v8.5l-24.3,30.6h24.6v9.9h-38.8V105.3z"/>
	<path class="st0" d="M576.8,64.8H587l17.9,49h-11.6l-3.8-11h-15.2l-3.7,11h-11.6L576.8,64.8z M587.6,95.1l-5.7-17.3L576,95.1H587.6
		z"/>
	<path class="st0" d="M609.7,113.8v-49h22.1c2.3,0,4.4,0.5,6.4,1.4c2,1,3.6,2.2,5.1,3.8c1.4,1.6,2.5,3.3,3.3,5.3c0.8,2,1.2,4,1.2,6
		c0,1.5-0.2,3-0.6,4.4c-0.4,1.4-0.9,2.7-1.6,4c-0.7,1.2-1.5,2.4-2.5,3.3c-1,1-2.1,1.8-3.3,2.5l10.8,18.2h-12.8L628.3,98H621v15.8
		H609.7z M621,88.2h10.3c1.3,0,2.5-0.6,3.4-1.9c1-1.3,1.4-2.9,1.4-4.9c0-2-0.6-3.6-1.7-4.8c-1.1-1.2-2.3-1.8-3.6-1.8h-10V88.2z"/>
</g>
<path class="st1" d="M697.2,109.2l-3,6.2c0,0-13.8-12-13.7-37.2c0.1-22.3,13.7-12.8,12.8,0.7C692.3,92.4,697.2,109.2,697.2,109.2z"
	/>
<path class="st2" d="M693.3,78.9c-1,13.5,3.9,30.3,3.9,30.3l-5.8,3.2c-3.8-7.8-0.5-25.4-0.6-30.3c-0.1-4.8,0-9.7-2.3-13.3
	c-2.3-3.5-6.7,0-6.7,0C685.3,59.6,694.1,67.9,693.3,78.9z"/>
<path class="st2" d="M767.2,63.8l4.7,5.1c0,0,9.5-15.6,1.7-39.6c-6.9-21.2-17-8-11.9,4.6C766.8,46.3,767.2,63.8,767.2,63.8z"/>
<path class="st1" d="M761.7,33.8c-1.2-3.2-1.6-6.3-1.2-9c0.5-3.6,4.1-4.7,5.1-0.5c0.4,1.6,1.2,5.2,0.8,7.5
	C765.7,35.8,763.2,37.9,761.7,33.8z"/>
<path class="st1" d="M728.9,130.2c0,0-2.1,26-5.8,27.8c-3.8,1.8-2.5,2.9,6.7,2.9s10.9-0.9,11.3-8.4c0.5-7.5-2.3-19.7-2.3-19.7
	L728.9,130.2z"/>
<path class="st2" d="M739.2,150.6c-1.4,7.6-7.2,11-15.9,10c1.4,0.2,3.5,0.3,6.5,0.3c9.1,0,10.9-0.9,11.3-8.4
	c0.5-7.5-2.3-19.7-2.3-19.7l-9.9-2.6c0,0,1.6,1.6,5.1,3.1C737.4,134.8,740.6,142.9,739.2,150.6z"/>
<path class="st1" d="M808.6,91.7c-2.5,3.4-28.4,0.2-28.4,0.2l0.6,10.2c0,0,11.3,5.1,18.8,6.1s8.7-0.5,10.5-9.5
	C812,89.9,811.1,88.4,808.6,91.7z"/>
<path class="st2" d="M795.3,94.7c7.4,0.8,16.5-2.6,14.1,7.4l0,0c0.2-0.9,0.5-2,0.7-3.3c1.8-8.9,1-10.4-1.5-7.1
	c-2.5,3.4-28.4,0.2-28.4,0.2l0.6,10.2c0,0,1.4-2.5,1.8-4.7C783.1,95.2,787.9,93.9,795.3,94.7z"/>
<path class="st3" d="M770.4,58.4c2.5,1.1,5.2,1.1,5.2,1.1c-5.7-8.8-23.3-12.8-23.3-12.8c4.8-0.7,4.2-2.1,4.2-2.1
	c-18.1-5.6-31.4,2.4-31.4,2.4c1.3-0.9,1.4-3.1,1.4-3.1c-6.9,1.2-10.1,6.7-10.1,6.7s-6.6,1.6-10.2-0.2c0,0,0.1,4.6,4.5,4.6
	c0,0-8.6,0.9-15.5,9.9c0,0,3.6,0.5,6.5-1.1c0,0-12.7,7.1-14.6,26.6c0,0,2.3-0.5,3.6-2.8c-1.1,3.7-2.4,11,0.4,18.8
	c0,0,1.4-1.1,1.6-3.5c0.5,4.2,2.6,14.1,12,23.6c0,0,1-0.6-1.4-5.7c0,0,12.8,17.3,27.6,19.7c0,0,0-3-3.4-5.8c0,0,10.4,2.8,13.4,6.7
	c0,0,0.1-3.4-2.5-5.7c0,0,8.1,1.1,20.2-5.4c12.2-6.5,16.6-15,16.6-15c0.6,2.8,4,4,4,4c-1.9-4.1,0.5-12.5,0.5-12.5
	c-1.1,2.9,2.8,5.8,2.8,5.8c2.1-5.3,1.4-13,0.8-17c0.9,2.5,3.2,3.2,3.2,3.2c2.2-8.2-5.2-21.4-5.2-21.4c2.1,3.1,6.5,4.4,6.5,4.4
	C783.4,68.4,770.4,58.4,770.4,58.4z"/>
<path class="st4" d="M727.4,134.7c0,0,10.4,2.8,13.4,6.7c0,0,0.1-3.4-2.5-5.7c0,0,8.1,1.1,20.2-5.4c12.2-6.5,16.6-15,16.6-15
	c0.6,2.8,4,4,4,4c-1.9-4.1,0.5-12.5,0.5-12.5c-1.1,2.9,2.8,5.8,2.8,5.8c2.1-5.3,1.4-13,0.8-17c0.9,2.5,3.2,3.2,3.2,3.2
	c2.2-8.2-5.2-21.4-5.2-21.4c2.1,3.1,6.5,4.4,6.5,4.4c-4.2-13.6-17.3-23.6-17.3-23.6c2.5,1.1,5.2,1.1,5.2,1.1
	c-5.7-8.8-23.3-12.8-23.3-12.8c4.8-0.7,4.2-2.1,4.2-2.1c-18.1-5.6-31.4,2.4-31.4,2.4s1.3-0.9,4.1,0.1c2.8,1,6.3,2.6,11.3,1.7
	c5-0.9,18.5-1.1,26.2,6.1c0,0-2.9,0.6-4.9-0.3c0,0,19.4,13.8,21.8,35c0,0-2.6-0.9-3.6-3.5c0,0,3.9,24.7-19.9,40.1
	C740.9,138.5,727.4,134.7,727.4,134.7z"/>
<ellipse class="st5" cx="731.9" cy="80.2" rx="17.2" ry="17.2"/>
<path class="st6" d="M746.6,71.2c-0.5-0.8-1.1-1.6-1.6-2.3c0.2,0.2,0.3,0.5,0.5,0.7c4.9,8.1,2.4,18.7-5.7,23.6
	c-7.3,4.4-16.6,2.8-22-3.5c5.1,7.6,15.3,9.9,23.2,5.1C749,89.9,751.5,79.3,746.6,71.2z"/>
<path class="st7" d="M734,71c1.9,3.2,0.9,7.3-2.3,9.2c-3.2,1.9-7.3,0.9-9.2-2.3c-1.9-3.2-0.9-7.3,2.3-9.2
	C727.9,66.8,732.1,67.8,734,71z"/>
<path class="st8" d="M731.4,72.5c1.1,1.7,0.5,4-1.2,5.1c-1.7,1.1-4,0.5-5.1-1.2c-1.1-1.7-0.5-4,1.2-5.1
	C728.1,70.2,730.4,70.8,731.4,72.5z"/>
<path class="st9" d="M756.9,103.7c-2.5,1.6-5.5,2-8.3,1.2c-0.5-0.1-0.7-0.6-0.6-1c0.1-0.5,0.6-0.7,1-0.6c2.4,0.7,4.9,0.3,7-1
	c4-2.5,5.2-7.8,2.7-11.8c-0.2-0.4-0.1-0.9,0.2-1.1c0.4-0.2,0.9-0.1,1.1,0.2C763.2,94.3,761.7,100.7,756.9,103.7z"/>
</svg>
