<?xml version="1.0" encoding="utf-8"?>
<!-- Generator: Adobe Illustrator 22.0.0, SVG Export Plug-In . SVG Version: 6.00 Build 0)  -->
<svg version="1.1" id="Layer_1" xmlns="http://www.w3.org/2000/svg" xmlns:xlink="http://www.w3.org/1999/xlink" x="0px" y="0px"
	 viewBox="0 0 800 600" style="enable-background:new 0 0 800 600;" xml:space="preserve">
<style type="text/css">
	.st0{fill:url(#SVGID_1_);}
	.st1{fill:#FFFFFF;}
</style>
<radialGradient id="SVGID_1_" cx="399.9" cy="299.5" r="221" gradientUnits="userSpaceOnUse">
	<stop  offset="0" style="stop-color:#000000;stop-opacity:0.5"/>
	<stop  offset="1" style="stop-color:#020202;stop-opacity:0"/>
</radialGradient>
<circle class="st0" cx="399.9" cy="299.5" r="221"/>
<g>
	<g>
		<polygon class="st1" points="531.9,432.6 244.8,432.6 244.8,330.3 288,330.3 288,389.4 488.6,389.4 488.6,330.3 531.9,330.3 		"/>
	</g>
	<path class="st1" d="M304.9,432.6c0,0,175.1-6.2,226.9-63.5v63.5H304.9z"/>
	<g>
		<polygon id="XMLID_58_" class="st1" points="340,254 340,361.4 436.6,361.4 436.6,254 478.1,254 388.3,164.2 298.5,254 		"/>
		<path class="st1" d="M340,361.4c0,0,80.4-10.7,96.6-48.7v48.7H340z"/>
		<path class="st1" d="M325.9,234.3l62.4-63.3l12.9,12C401.2,183,378.7,190.4,325.9,234.3z"/>
	</g>
</g>
</svg>
