<?xml version="1.0" encoding="utf-8"?>
<!-- Generator: Adobe Illustrator 22.0.0, SVG Export Plug-In . SVG Version: 6.00 Build 0)  -->
<svg version="1.1" id="Layer_1" xmlns="http://www.w3.org/2000/svg" xmlns:xlink="http://www.w3.org/1999/xlink" x="0px" y="0px"
	 viewBox="0 0 300 300" style="enable-background:new 0 0 300 300;" xml:space="preserve">
<style type="text/css">
	.st0{fill:#E5AA17;}
	.st1{fill:#FFFFFF;}
</style>
<path class="st0" d="M300,150.1C300,67.3,232.9,0.2,150.1,0.2C67.3,0.2,0.2,67.3,0.2,150.1C0.2,232.9,67.3,300,150.1,300
	C232.9,300,300,232.9,300,150.1z"/>
<g>
	<path class="st1" d="M135,73.3H98.7c-3.3,0-6,2.7-6,6v141.4c0,3.3,2.7,6,6,6H135c3.3,0,6-2.7,6-6V79.4C141,76,138.3,73.3,135,73.3z
		"/>
	<path class="st1" d="M201.4,73.3h-36.3c-3.3,0-6,2.7-6,6v141.4c0,3.3,2.7,6,6,6h36.3c3.3,0,6-2.7,6-6V79.4
		C207.5,76,204.8,73.3,201.4,73.3z"/>
</g>
</svg>
