<?xml version="1.0" encoding="utf-8"?>
<!-- Generator: Adobe Illustrator 22.0.0, SVG Export Plug-In . SVG Version: 6.00 Build 0)  -->
<svg version="1.1" id="Capa_1" xmlns="http://www.w3.org/2000/svg" xmlns:xlink="http://www.w3.org/1999/xlink" x="0px" y="0px"
	 viewBox="0 0 26.7 26.7" style="enable-background:new 0 0 26.7 26.7;" xml:space="preserve">
<style type="text/css">
	.st0{fill:#FFFFFF;}
</style>
<g>
	<path class="st0" d="M26.7,10.9c0-1.9-0.9-3.6-2.4-4.7c-0.6-2.5-2.8-4.3-5.4-4.3c-1-1.1-2.5-1.8-4-1.8c-1.1,0-2.2,0.3-3.1,0.9
		c-2.4-0.6-5,0.5-6.4,2.6C2.3,4.1,0,6.7,0,9.8c0,1.8,0.8,3.5,2.1,4.7c0.9,2.1,3.1,3.4,5.5,3.2c0.6,0.6,1.7,0.7,2.5,0.7
		c3.7-0.3,7.7,7.3,7.7,7.4l0.4,0.8l1-1.5c1.2-1.8,1.1-3.6,0.7-5c0.2,0,0.3,0,0.5,0c2.6,0,4.6-2.1,4.6-4.7c0-0.2,0-0.3,0-0.5
		C26.1,13.9,26.7,12.4,26.7,10.9z M16.8,8.3L16.8,8.3c-0.1,1.1-0.4,1.6-0.8,2.2c-0.4,0.6-1.2,1.1-1.2,2.2c0,0.1,0.5,0.1,0.5,0.2v1.6
		c0,0.4-0.5,0.7-1.1,0.8c0,0,0,0,0,0.1c0,0.3-0.4,0.5-0.8,0.5c-0.4,0-0.8-0.2-0.8-0.5c0,0,0,0,0-0.1c-0.6-0.1-1.1-0.3-1.1-0.8v-1.6
		c0-0.1,0.5-0.1,0.5-0.2c0-1.1-0.8-1.7-1.2-2.2c-0.2-0.3-0.4-0.6-0.5-0.9c0,0,0,0,0,0c0,0,0,0,0,0c0-0.1-0.1-0.2-0.1-0.3
		c0,0,0,0,0-0.1C10,9.1,10,9,9.9,8.8c0-0.1,0-0.2,0-0.3c0,0,0-0.1,0-0.1c0-0.1,0-0.3,0-0.4c0-1.9,1.6-3.5,3.5-3.5c0.1,0,0.2,0,0.3,0
		c0,0,0.1,0,0.1,0c0,0,0,0,0,0c1.7,0.2,3,1.7,3,3.4L16.8,8.3C16.8,8.3,16.8,8.3,16.8,8.3z"/>
</g>
</svg>
