<?xml version="1.0" encoding="utf-8"?>
<!-- Generator: Adobe Illustrator 22.0.0, SVG Export Plug-In . SVG Version: 6.00 Build 0)  -->
<svg version="1.1" id="Layer_1" xmlns="http://www.w3.org/2000/svg" xmlns:xlink="http://www.w3.org/1999/xlink" x="0px" y="0px"
	 viewBox="0 0 720 288" style="enable-background:new 0 0 720 288;" xml:space="preserve">
<style type="text/css">
	.st0{fill:url(#SVGID_1_);}
</style>
<g>
	<g>
		
			<linearGradient id="SVGID_1_" gradientUnits="userSpaceOnUse" x1="1955.3683" y1="195.4801" x2="1955.3683" y2="372.8875" gradientTransform="matrix(-1 0 0 -1 2314.9692 385.9218)">
			<stop  offset="0" style="stop-color:#FFFFFF;stop-opacity:0"/>
			<stop  offset="1" style="stop-color:#FFFFFF;stop-opacity:0.25"/>
		</linearGradient>
		<path class="st0" d="M-47.8,7l32.7,33.6l4.5,26l-7,40.2l0,0.3l61.9-16.6l-66.8,48.2L-23,139l95.9,8.8l0,0.3l0.4-0.3l0.3,0
			l-0.1-0.2l59.5-43.5l76.3,36.3l-0.2,0.2l0.5-0.1l0.1,0.1l0.1-0.1l59.6-14l0.1,0.1l0.1-0.1L362,139l-0.1,0.3l0.5-0.2l1,0.1
			l-0.6-0.3l67.5-34.5l104.1,51l0,0.1l0.1,0l0.4,0.2l-0.1-0.3l95.4-25.4l0.2,0.1l0-0.1l95.2,56.7l-28-54l32.2-20.8l0.1,0.2l0.2-0.4
			l0.2-0.1l-0.1,0l36.8-70l0.1-0.3l-73.8,6.7l25-61.7l-87.5,38.4L650-17L569.3-1.4l-77.1-15.4l0.3-0.1l-0.8-0.1v-0.3l-0.3,0.2
			l-0.6-0.1l0.1,0.1l-100.2-8l-0.2,0L366,15.5l-43.7-36.9L297.1,7.4l-48.2-21.5l0.2-0.1h-0.5l-0.7-0.3l0.3,0.3h-69l22.4,38.7
			l-53.8-35.1l-0.1-0.1L118,5.2L75.3-18.5l-0.1-0.1L7.2,2.8L6.4,2.2l0.4,0.6L-47.4,7L-47.8,7z M364,15.8l-87.8,4l0.1,0l-0.2,0
			l21.2-12L364,15.8z M100.3,43.1L45.6,56.3l12.8-20.5L100.3,43.1z M449.4,13.5l41.3,15l-91.7,12.6L449.4,13.5z M450,13.1l41.3-29.5
			v44.7l-41.4-15.1l0.3-0.2L450,13.1z M630,25.2v16l-93.4-20.9L630,25.2z M655.7,81.8l-61.5,12.4l36-52.3l25.3,39.7l-0.1-0.1
			L655.7,81.8z M630.2,129.4l-36-34.8l61.5-12.4L630.2,129.4z M222.4,77.7l6.6,35.6l-53.4-15.3l46.2-20l-0.1,0.2L222.4,77.7z
			 M308.2,88.3l-38.8,37.9l-46.3-48.5L308.2,88.3z M277.9,48.5l-2.5-28.2l60.1,28.2H277.9z M366.1,16.1l31.5,25.2l-60.7,7.2
			L366.1,16.1z M470.2,87l-84.9-9.6l84.9-20.5V87z M470.3,56.4l-71.1-14.9L491,28.9L470.3,56.4z M469.6,56.6l-85,20.5l13.7-35.5
			L469.6,56.6z M397.8,41.6l-13.6,35.4L337,48.8L397.8,41.6z M336,48.9l-27.4,38.9l-30.5-38.9H336z M336.5,49l47.2,28.3l-74.7,10.6
			L336.5,49z M469.7,87.3L430.2,104l-45.1-26.3L469.7,87.3z M470.5,87.4l0.2,0v0l46.8,0.9l-85.8,15.4L470.5,87.4z M470.6,87V57
			l47.9,31L470.6,87z M569.7,73.5l0.4-0.1l-0.2,0L629.6,42l-35.9,52.2L569.7,73.5z M471.3,56.9l97.2,16.6l-49.2,14.5L471.3,56.9z
			 M520.5,88.1L521,88l-0.6,0l48.9-14.4l24,20.6L520.5,88.1z M593.1,94.6l-66.3,31.6l-7.2-37.8L593.1,94.6z M629.7,41.5l-60.3,31.7
			L535,20.3L629.7,41.5z M568.6,72.8L492,28.7l42.4-8.5L568.6,72.8z M568.3,73.1l-97.5-16.6l20.8-27.6L568.3,73.1z M398.2,41.2
			L366.6,16l82-2.5L398.2,41.2z M336.4,48.5L276,20.2l89.7-4.1L336.4,48.5z M277.5,48.5h-0.2l0.1,0.1l-54,28L275,20.5L277.5,48.5z
			 M277.6,49l30.5,38.9l-85-10.6L277.6,49z M175,97.7l-38.3-27.2l85,7L175,97.7z M133.1,103.8l3.2-33.1l38.2,27.2L133.1,103.8z
			 M45.4,56.7l0.6-0.1l-0.1,0l54.5-13.1l-55,46.2V56.7z M101.1,43.3l34.5,26.9L45.9,89.8L101.1,43.3z M137.2,70.2L188,58.5l0,0.1
			l0.4-0.2l33.3,18.7L137.2,70.2z M188.2,58.1L137,69.9l64.6-44.3L188.2,58.1z M136.1,70.1l-34.5-26.9l99.7-17.8L136.1,70.1z
			 M58.8,35.5l58.7-29.6l-16.5,37L58.8,35.5z M57.9,35.7L45.1,56.2L8,3.7l49.9,31.9l-0.2,0.1L57.9,35.7z M44.9,89.8L-9.7,66.7
			l54.6-9.9V89.8z M135.3,70.7l-57.9,40.7L45.6,90.2L135.3,70.7z M135.8,70.7l-3.2,33.1l-0.8-0.1l0.4,0.2l-54.2,7.4L135.8,70.7z
			 M175,98.1l52.2,15l-92.8-9.1L175,98.1z M229.6,113.4l-0.2-0.1l0,0l0,0l-6.5-35.2l45.8,48l-38.8-12.6l0-0.1L229.6,113.4z
			 M308.5,88.5l15.2,31.3l-53.8,6.4L308.5,88.5z M324.2,119.6l-15.2-31.4l74.6-10.6L324.2,119.6z M384.4,77.7l44.6,26l-0.4-0.1
			l1.1,0.5l-1.1,0.5l0.4-0.1l-66.3,33.9L384.4,77.7z M519,88.3l7.2,37.9l-95.2-22L519,88.3z M593.7,94.7l36,34.8l-0.2,0l0,0
			l-102.2-3.2L593.7,94.7z M630.6,129.6l25.5-47.3l40.7,50.2l-65.4-2.8l0,0L630.6,129.6z M656.1,81.6l-25.5-39.9l61.8,6.6
			L656.1,81.6z M630.6,41.3l0.3-0.4l-0.4,0.2V25.3l61,22.5L630.6,41.3z M535.1,19.9l34.2-20.9l59.9,25.9L535.1,19.9z M534.5,19.8
			l-42.4-36.2l76.7,15.3L534.5,19.8z M534,19.8l-1.5-0.1l1.2,0.3l-42,8.4v-44.7L534,19.8z M449.3,13.1l-81.6,2.5l122.9-32
			L449.3,13.1z M222.5,77.1l-33.7-18.8l85.6-37.7L222.5,77.1z M188.8,57.9l13.5-32.7l0.8,0.2l-0.4-0.3l71.5-4.9L188.8,57.9z
			 M101.8,42.8L101.8,42.8l-0.3,0l16.6-37.1L201.3,25L101.8,42.8z M58.2,35.3L7.8,3.1l109.4,2.5L58.2,35.3z M44.7,56.3l-59.2-15.8
			L7.2,3.4L44.7,56.3z M44.3,56.5l-54.5,9.9l-4.4-25.6L44.3,56.5z M-10.2,66.9l54.8,23.2l-61.7,16.5L-10.2,66.9z M-22,138.8
			l66.9-48.2v0l0.2-0.1l27.7,57.1L-22,138.8z M45.7,90.7l31.4,21L73,146.9L45.7,90.7z M73.4,147.3l4.2-35.5l54.6-7.4L73.4,147.3z
			 M133.9,104.3l95.1,9.3l0.2,0l0,0l-9.1,12.2l-10.7,14.4L133.9,104.3z M226.9,117.5l2.8-3.8l38.9,12.6l-0.6,0.1l0.4,0.1L210,140.2
			L226.9,117.5z M270.8,126.5l53.1-6.3l0.1,0.1l0.1-0.1l37.1,18.4L270.8,126.5z M324.4,119.9l59.4-42l-21.7,60.7L324.4,119.9z
			 M431.7,104.7l94.7,21.9l0,0.2l0,0l7.8,28.1L431.7,104.7z M534.7,155l-2.1-7.6l-5.8-20.8l102.2,3.2L534.7,155z M631,129.9
			l66.1,2.9l27.4,52.8L631,129.9z M697.3,132.4l-40.6-50l72.6,29.3L697.3,132.4z M656.4,81.8l36.4-33.4l36.4,62.7L656.4,81.8z
			 M729.8,111.1l-36.5-62.9l73-6.6L729.8,111.1z M717.4-13.1l-24.7,60.9l-62-22.9L717.4-13.1z M649.3-16.5l-19.2,41.3l-60.2-26
			L649.3-16.5z M390.8-24.6l99.6,7.9L366.5,15.6L390.8-24.6z M322.4-20.8l43.1,36.4l-67.9-8.1L322.4-20.8z M296.8,7.6l-21.3,12.1
			l0-0.2l-0.2,0.2l-26-33.3L296.8,7.6z M274.8,19.9l-0.3,0l0,0l-71.7,4.9l0.2-0.1l-0.2,0l45.7-38.5L274.8,19.9z M248-13.9
			l-45.8,38.6l-22.4-38.6H248z M147.5-10.4l53.6,35L118.5,5.4L147.5-10.4z M75.1-18.2l42.1,23.4L8.3,2.8L75.1-18.2z M6.8,3.2
			l-21.7,37.1L-46.9,7.3L6.8,3.2z"/>
	</g>
</g>
</svg>
