<?xml version="1.0" encoding="utf-8"?>
<!-- Generator: Adobe Illustrator 22.0.0, SVG Export Plug-In . SVG Version: 6.00 Build 0)  -->
<svg version="1.1" id="Capa_1" xmlns="http://www.w3.org/2000/svg" xmlns:xlink="http://www.w3.org/1999/xlink" x="0px" y="0px"
	 viewBox="0 0 179.2 179.2" style="enable-background:new 0 0 179.2 179.2;" xml:space="preserve">
<style type="text/css">
	.st0{fill:#FFFFFF;}
</style>
<path class="st0" d="M179.2,179.2H95.9v-21.3l49.9-49.9V72.8c2.5-1.9,4.2-4.9,4.2-8.4c0-5.8-4.7-10.5-10.5-10.5
	c-5.8,0-10.5,4.7-10.5,10.5c0,3.4,1.6,6.5,4.2,8.4v29.9l-49.9,49.9v26.5H45.6v-31.3c2.5-1.9,4.2-4.9,4.2-8.4
	c0-5.8-4.7-10.5-10.5-10.5s-10.5,4.7-10.5,10.5c0,3.4,1.6,6.5,4.2,8.4v31.3H0V90.3h36.7l13.9,13.9c-0.1,0.5-0.1,1-0.1,1.5
	c0,5.8,4.7,10.5,10.5,10.5c5.8,0,10.5-4.7,10.5-10.5c0-5.8-4.7-10.5-10.5-10.5c-0.5,0-1,0-1.5,0.1L41.9,77.7H0v-29h66.4l14-12.1
	c0.7,0.2,1.4,0.2,2.2,0.2c5.8,0,10.5-4.7,10.5-10.5c0-5.8-4.7-10.5-10.5-10.5c-5.8,0-10.5,4.7-10.5,10.5c0,0.2,0,0.5,0,0.7l-10.4,9
	H0V0h152.9c8.8,8.8,17.5,17.5,26.3,26.3v113.2h-26c-1.9-2.5-4.9-4.2-8.4-4.2c-5.8,0-10.5,4.7-10.5,10.5c0,5.8,4.7,10.5,10.5,10.5
	c3.4,0,6.5-1.6,8.4-4.2h26L179.2,179.2L179.2,179.2z"/>
</svg>
