<svg id="Layer_5" enable-background="new 0 0 64 64" height="512" viewBox="0 0 64 64" width="512" xmlns="http://www.w3.org/2000/svg"><path d="m47 32c0-8.271-6.729-15-15-15s-15 6.729-15 15 6.729 15 15 15 15-6.729 15-15zm-8 10.937v-1.937h-2v2.997c-1.54.644-3.229 1.003-5 1.003s-3.46-.359-5-1.003v-2.997h-2v1.937c-.597-.383-1.157-.816-1.682-1.289 1.049-3.882 4.611-6.648 8.682-6.648s7.633 2.766 8.682 6.648c-.525.473-1.085.905-1.682 1.289zm-12-14.937c0-2.757 2.243-5 5-5s5 2.243 5 5-2.243 5-5 5-5-2.243-5-5zm8.974 5.756c1.826-1.265 3.026-3.372 3.026-5.756 0-3.86-3.141-7-7-7s-7 3.14-7 7c0 2.384 1.2 4.491 3.026 5.756-2.832 1.105-5.135 3.35-6.266 6.225-1.723-2.206-2.76-4.972-2.76-7.981 0-7.168 5.832-13 13-13s13 5.832 13 13c0 3.009-1.037 5.775-2.76 7.981-1.131-2.875-3.435-5.12-6.266-6.225z"/><path d="m51 39c-.326 0-.659.034-.991.063.19-.486.375-.976.526-1.479l3.465-.866v-9.437l-3.465-.866c-.151-.503-.336-.992-.526-1.479.332.03.665.064.991.064 6.617 0 12-5.383 12-12s-5.383-12-12-12-12 5.383-12 12c0 .326.034.659.063.991-.486-.19-.976-.375-1.478-.526l-.867-3.465h-9.436l-.867 3.465c-.503.151-.992.336-1.478.526.029-.332.063-.665.063-.991 0-6.617-5.383-12-12-12s-12 5.383-12 12 5.383 12 12 12c.326 0 .659-.034.991-.063-.19.486-.375.976-.526 1.479l-3.465.866v9.437l3.465.866c.151.503.336.992.526 1.479-.332-.03-.665-.064-.991-.064-6.617 0-12 5.383-12 12s5.383 12 12 12 12-5.383 12-12c0-.326-.034-.659-.063-.991.486.19.976.375 1.478.526l.867 3.465h9.436l.867-3.465c.503-.151.992-.336 1.478-.526-.029.332-.063.665-.063.991 0 6.617 5.383 12 12 12s12-5.383 12-12-5.383-12-12-12zm0-16c-.621 0-1.263-.083-1.911-.212l1.804-3.008-3.534-3.534c1.042-.805 2.302-1.246 3.641-1.246 3.302 0 5.989 2.682 5.999 5.982-1.673 1.261-3.747 2.018-5.999 2.018zm-3-13c0-1.654 1.346-3 3-3s3 1.346 3 3-1.346 3-3 3-3-1.346-3-3zm3-7c5.514 0 10 4.486 10 10 0 2.361-.827 4.53-2.201 6.243-.555-2.463-2.247-4.495-4.495-5.52 1.032-.917 1.696-2.238 1.696-3.723 0-2.757-2.243-5-5-5s-5 2.243-5 5c0 1.483.662 2.803 1.692 3.72-.626.286-1.215.656-1.756 1.103l-1.715-1.715-3.009 1.804c-.129-.649-.212-1.291-.212-1.912 0-5.514 4.486-10 10-10zm-48 10c0-5.514 4.486-10 10-10s10 4.486 10 10c0 .621-.083 1.263-.212 1.912l-3.009-1.804-1.715 1.715c-.541-.447-1.13-.817-1.756-1.103 1.03-.917 1.692-2.237 1.692-3.72 0-2.757-2.243-5-5-5s-5 2.243-5 5c0 1.485.664 2.806 1.695 3.723-2.248 1.025-3.94 3.057-4.495 5.52-1.373-1.713-2.2-3.882-2.2-6.243zm13-3c0 1.654-1.346 3-3 3s-3-1.346-3-3 1.346-3 3-3 3 1.346 3 3zm-3 13c-2.252 0-4.326-.757-5.999-2.018.01-3.3 2.697-5.982 5.999-5.982 1.339 0 2.599.441 3.641 1.246l-3.534 3.534 1.804 3.008c-.648.129-1.29.212-1.911.212zm-10 28c0-5.514 4.486-10 10-10 .621 0 1.263.083 1.911.212l-1.117 1.862c-.262-.044-.527-.074-.794-.074-2.757 0-5 2.243-5 5 0 1.485.664 2.806 1.695 3.723-2.248 1.025-3.94 3.057-4.495 5.52-1.373-1.713-2.2-3.882-2.2-6.243zm12.755-4.132c.155.372.245.752.245 1.132 0 1.654-1.346 3-3 3s-3-1.346-3-3 1.346-3 3-3c.382 0 .762.09 1.133.245zm-2.755 14.132c-2.252 0-4.326-.757-5.999-2.018.01-3.3 2.697-5.982 5.999-5.982s5.989 2.682 5.999 5.982c-1.673 1.261-3.747 2.018-5.999 2.018zm7.799-3.757c-.555-2.463-2.247-4.495-4.495-5.52.791-.703 1.371-1.638 1.593-2.713l1.882 1.883 3.009-1.804c.129.648.212 1.29.212 1.911 0 2.361-.827 4.53-2.201 6.243zm15.697-8.477-.568.152-.771 3.082h-6.314l-.771-3.083-.568-.152c-1.474-.395-2.88-.976-4.182-1.729l-.51-.295-2.723 1.633-4.465-4.464 1.633-2.722-.295-.51c-.752-1.301-1.333-2.708-1.729-4.183l-.152-.568-3.081-.77v-6.313l3.082-.771.152-.568c.396-1.475.977-2.882 1.729-4.183l.295-.51-1.633-2.722 4.465-4.464 2.723 1.633.51-.295c1.3-.752 2.707-1.334 4.182-1.729l.568-.152.77-3.083h6.314l.771 3.083.568.152c1.475.395 2.882.977 4.182 1.729l.51.295 2.723-1.633 4.465 4.464-1.633 2.722.295.51c.752 1.301 1.333 2.708 1.729 4.183l.152.568 3.081.77v6.313l-3.082.771-.152.568c-.396 1.475-.977 2.882-1.729 4.183l-.295.51 1.633 2.722-4.465 4.464-2.723-1.633-.51.295c-1.301.754-2.707 1.335-4.181 1.73zm13.371-3.521c.371-.155.751-.245 1.133-.245 1.654 0 3 1.346 3 3s-1.346 3-3 3-3-1.346-3-3c0-.38.09-.76.245-1.132zm-8.867 5.755c0-.621.083-1.263.212-1.912l3.009 1.804 1.882-1.883c.221 1.075.801 2.01 1.593 2.713-2.248 1.025-3.94 3.057-4.495 5.52-1.374-1.712-2.201-3.881-2.201-6.242zm10 10c-2.252 0-4.326-.757-5.999-2.018.01-3.3 2.697-5.982 5.999-5.982s5.989 2.682 5.999 5.982c-1.673 1.261-3.747 2.018-5.999 2.018zm7.799-3.757c-.555-2.463-2.247-4.495-4.495-5.52 1.032-.917 1.696-2.238 1.696-3.723 0-2.757-2.243-5-5-5-.267 0-.532.03-.795.074l-1.117-1.862c.649-.129 1.291-.212 1.912-.212 5.514 0 10 4.486 10 10 0 2.361-.827 4.53-2.201 6.243z"/></svg>