<?xml version="1.0" encoding="utf-8"?>
<!-- Generator: Adobe Illustrator 22.0.0, SVG Export Plug-In . SVG Version: 6.00 Build 0)  -->
<svg version="1.1" id="Layer_1" xmlns="http://www.w3.org/2000/svg" xmlns:xlink="http://www.w3.org/1999/xlink" x="0px" y="0px"
	 viewBox="0 0 664.9 1133.1" style="enable-background:new 0 0 664.9 1133.1;" xml:space="preserve">
<style type="text/css">
	.st0{fill:#D2B420;}
	.st1{fill:#C0A01D;}
	.st2{fill:#F3DB22;}
	.st3{fill:#E5C823;}
	.st4{fill:#FFFFFF;}
	.st5{fill:#E7E7E7;}
	.st6{fill:#66C1C6;}
	.st7{fill:#266363;}
	.st8{fill:#501627;}
	.st9{fill:#F56A82;}
</style>
<path class="st0" d="M163.3,949.6l-14.1-21.8c0,0-54,41.8-46.8,129.5c6.4,77.5,60.5,44.5,52.7-2.5
	C147.5,1008.1,163.3,949.6,163.3,949.6z"/>
<path class="st1" d="M142.4,934.2c0,0,7.2,48.9,0.1,81c-7,32.1,7,65.1-6.3,76.8c-13.3,11.6-26.8-4.1-26.8-4.1
	c16.2,35.2,52.3,5.9,45.9-33c-7.7-46.9,8.1-105.2,8.1-105.2l-14.1-21.8L142.4,934.2z"/>
<g>
	<path class="st0" d="M427.7,746.5l-25.8-2.1c0,0,11.5-67.3,92.4-102c71.4-30.7,67.7,32.5,22.6,47.8
		C471.8,705,427.7,746.5,427.7,746.5z"/>
	<path class="st1" d="M432.1,700.1c-19.9,37.9,1.9,40.8,1.9,40.8l-6.3,5.6l-25.8-2.1c0,0,11.5-67.3,92.4-102
		C494.4,642.2,452,662.3,432.1,700.1z"/>
</g>
<g>
	<path class="st0" d="M310.9,994c0,0,7.5,108.7-6.9,118.3c-14.5,9.7-8.3,13.4,29.3,7.8s44.4-10.3,41.6-41.8
		c-2.8-31.4-21.6-79.8-21.6-79.8L310.9,994z"/>
	<path class="st1" d="M365.7,1071.6c-1.2,32.5-23,49.8-59.4,51c6,0,14.7-0.8,26.7-2.6c37.6-5.6,44.4-10.3,41.6-41.8
		c-2.8-31.4-21.6-79.8-21.6-79.8l-42.3-4.6c0,0,7.5,5.5,22.8,9.7C348.8,1007.7,367,1039.2,365.7,1071.6z"/>
</g>
<g>
	<path class="st0" d="M558.4,898.2c-11.5,13.1-118.1-8.7-118.1-8.7l-1,42.5c0,0,45.3,24.9,76.2,31.9c30.7,7,36.4,0.9,46.9-35.7
		C572.9,891.6,569.9,885.1,558.4,898.2z"/>
	<path class="st1" d="M502,906.1c30.7,5.9,69.4-5,56.2,35.4l0,0c1.3-3.9,2.7-8.3,4.2-13.3c10.5-36.5,7.6-43.1-3.9-30.1
		c-11.5,13.1-118.1-8.7-118.1-8.7l-1.1,42.5c0,0,6.8-9.8,9.3-18.9C451.2,904,471.3,900.2,502,906.1z"/>
</g>
<path class="st2" d="M516.2,774.9c-39.8-41.2-96.5-81.3-115.9-94.5c11.1,4.5,25.2,0.3,25.2,0.3C380,628.3,315.7,594,315.7,594
	c16,7.9,31.6-0.4,31.6-0.4C296.9,555,268.1,576,268.1,576c4.8-20.8-16.6-34.4-16.6-34.4c6.6,28.2-22.8,52.1-22.8,52.1L112.2,671
	c0,0-33.4,17.8-56.8,0.8c0,0,4.1,25,25.2,28.7c0,0-30.5,18.3-14.6,79.6c0,0,13.7-11.1,12.7-28.9c0,0,6.7,72.6,37.2,135
	c0,0,9.5-11.4,9.6-23.3c4.6,23,19.4,90.8,42,143.6c0,0,8.6-7.5,10.2-18.9c4.4,23.2,18,68.7,57.6,94.9c0,0,5.8-11.2-5.7-26.7
	c4.3,5.9,11.4,15.5,11.4,15.5s23,12.5,44.8,2.4c0,0-9.6-5.7-20.5-15.2l0,0c6.4-1.6,12.7-4.2,18.5-8.1l228-151.1
	c5.8-3.9,10.7-8.7,14.6-14l0,0c4.6,13.9,6,24.8,6,24.8c17.7-16.1,15.2-42.2,15.2-42.2s-6.2-10.3-9.8-16.5
	c9.8,16.5,22.4,15.7,22.4,15.7c-8.8-46.6-45.4-76.9-65.1-90C505.9,780,516.2,774.9,516.2,774.9z"/>
<path class="st3" d="M264.9,1058.3c6.4-1.6,12.7-4.2,18.5-8.1l228-151.1c5.8-3.9,10.7-8.7,14.6-14l0,0c4.6,13.9,6,24.8,6,24.8
	c17.7-16.1,15.2-42.2,15.2-42.2s-6.2-10.3-9.8-16.5c9.8,16.5,22.4,15.7,22.4,15.7c-8.8-46.6-45.4-76.9-65.1-90
	c11.1,2.9,21.4-2,21.4-2c-39.8-41.2-96.5-81.3-115.9-94.5c11.1,4.5,25.2,0.3,25.2,0.3C380,628.3,315.7,594,315.7,594
	c16,7.9,31.6-0.4,31.6-0.4C296.9,555,268.1,576,268.1,576c4.8-20.8-16.6-34.4-16.6-34.4c6.6,28.2-22.8,52.1-22.8,52.1L112.2,671
	c0,0,117.2-86.3,176-81.9c0,0-9,12.6-20.8,16c0,0,127.7,50.1,213.1,155.7c0,0-16.3,3-29.1-3.8c0,0,78.6,65.3,83.8,121.2
	c0,0-14.2-7.6-26.2-19.2C508.9,859.2,494.2,912.2,264.9,1058.3z"/>
<g>
	<path class="st4" d="M362,697.8c20.5,27.5,15,66.4-12.5,86.9c-27.5,20.5-66.4,15-86.9-12.5c-20.5-27.5-15-66.4,12.5-86.9
		C302.5,664.8,341.4,670.3,362,697.8z"/>
	<path class="st5" d="M362,697.8c-2-2.8-4.3-5.4-6.8-7.6c0.6,0.8,1.3,1.5,1.8,2.3c20.5,27.5,15,66.4-12.5,86.9
		c-24.7,18.4-58.6,15.8-80.1-4.8c20.9,25.5,58.4,30.2,85.1,10.2C376.9,764.2,382.6,725.3,362,697.8z"/>
	<path class="st6" d="M332.5,716.9c8.1,10.7,5.9,26-4.8,34c-10.7,8.1-26,5.9-34-4.8c-8.1-10.7-5.9-26,4.8-34
		C309.3,704,324.4,706.2,332.5,716.9z"/>
	<path class="st7" d="M323.8,723.4c4.4,5.9,3.2,14.4-2.7,18.8c-5.9,4.4-14.4,3.2-18.8-2.7c-4.4-5.9-3.2-14.4,2.7-18.8
		C311,716.3,319.4,717.6,323.8,723.4z"/>
	<path class="st4" d="M320.9,713.3c2.5,3.3,1.8,8.2-1.5,10.7c-3.3,2.5-8.2,1.8-10.7-1.5s-1.8-8.2,1.5-10.7
		C313.6,709.2,318.4,709.8,320.9,713.3z"/>
	<path class="st4" d="M249.4,772.4c20.5,27.5,15,66.4-12.5,86.9s-66.4,15-86.9-12.5c-20.5-27.5-15-66.4,12.5-86.9
		C190.1,739.5,228.9,745,249.4,772.4z"/>
	<path class="st5" d="M249.4,772.4c-2-2.8-4.3-5.4-6.8-7.6c0.6,0.8,1.3,1.5,1.8,2.3c20.5,27.5,15,66.4-12.5,86.9
		c-24.7,18.4-58.6,15.8-80.1-4.8c20.9,25.5,58.4,30.2,85.1,10.2C264.4,838.8,270,799.9,249.4,772.4z"/>
	<path class="st6" d="M220,791.6c8.1,10.7,5.9,26-4.8,34s-26,5.9-34-4.8c-8.1-10.7-5.9-26,4.8-34S212,780.8,220,791.6z"/>
	<path class="st7" d="M211.2,798c4.4,5.9,3.2,14.4-2.7,18.8c-5.9,4.4-14.4,3.2-18.8-2.7c-4.4-5.9-3.2-14.4,2.7-18.8
		C198.4,790.9,206.8,792.2,211.2,798z"/>
	<path class="st4" d="M208.3,787.8c2.5,3.3,1.8,8.2-1.5,10.7c-3.3,2.5-8.2,1.8-10.7-1.5c-2.5-3.3-1.8-8.2,1.5-10.7
		C201,783.7,205.7,784.5,208.3,787.8z"/>
</g>
<g>
	<path class="st8" d="M333.1,899.6c19.7-12.7,31.2-23.9,32.3-32.4c1.2-8.5,23.7-12.5,24.8,11.8c1.2,24.3-22.1,42.1-36.7,51.4
		c-14.8,9.5-60.2,18-64.6-4.2C284.6,903.7,315.6,910.9,333.1,899.6z"/>
	<path class="st9" d="M328.1,939.1c0,0,6.6-34.4,58.1-40.8C386.2,898.1,369.5,932.9,328.1,939.1z"/>
	<path class="st4" d="M307.2,907.6c0,0,6.9,11.8,9.9,11.3s0.6-6.2,0.6-6.2s19.9-5,41.3-24.3c0,0,2.8,3.5,4.8,2.6s-3.1-14.2-3.1-14.2
		s-6.1,8.6-22.9,19.7C325.8,904.5,307.2,907.6,307.2,907.6z"/>
</g>
</svg>
