<?xml version="1.0" encoding="utf-8"?>
<!-- Generator: Adobe Illustrator 22.0.0, SVG Export Plug-In . SVG Version: 6.00 Build 0)  -->
<svg version="1.1" id="Layer_1" xmlns="http://www.w3.org/2000/svg" xmlns:xlink="http://www.w3.org/1999/xlink" x="0px" y="0px"
	 viewBox="0 0 664.9 1133.1" style="enable-background:new 0 0 664.9 1133.1;" xml:space="preserve">
<style type="text/css">
	.st0{fill:#D27117;}
	.st1{fill:#C36515;}
	.st2{fill:#F6901B;}
	.st3{fill:#E47E17;}
	.st4{fill:#FFFFFF;}
	.st5{fill:#FCAC34;}
	.st6{fill:#8C5710;}
	.st7{fill:#E7E7E7;}
	.st8{fill:#501627;}
	.st9{fill:#F56A82;}
</style>
<path class="st0" d="M161.3,889.7l-17.7-19.3c0,0-46.7,50.8-24.5,136.9c19.6,76.1,67.8,33.9,52.1-11.4
	C155.5,950.5,161.3,889.7,161.3,889.7z"/>
<path class="st1" d="M171.2,995.9c-15.7-45.4-9.9-106.2-9.9-106.2l-26.7-6.8c-8.8,29.2,20,87.3,23.7,103.7s8.4,33.2,1.9,47
	c-6.5,13.8-27.7,4.8-27.7,4.8C154.5,1067.5,184,1032.7,171.2,995.9z"/>
<path class="st1" d="M503.6,889.7l17.6-19.3c0,0,46.7,50.8,24.5,136.9c-19.6,76.1-67.8,33.9-52.1-11.4
	C509.4,950.5,503.6,889.7,503.6,889.7z"/>
<path class="st0" d="M493.6,995.9c-3.6,11.5-3.9,22.5-1.3,31.6c3.7,12.4,19.1,14.7,21.4,0c0.9-5.5,2.9-18.3,0.2-26.4
	C509.6,987.6,498.3,980.9,493.6,995.9z"/>
<g>
	<path class="st0" d="M269.3,999c0,0-98.4,49.3-113,39.6c-14.6-9.7-15.8-2.5,4.1,30.4s26.9,37.3,55.1,22.5
		c28.2-14.8,65.8-51.1,65.8-51.1L269.3,999z"/>
	<path class="st1" d="M218.2,1080.4c-30.8,11.5-55.4-2-70.6-35.5c2.3,5.5,6.5,13.4,12.8,23.9c19.9,32.9,26.9,37.3,55.1,22.5
		c28.2-14.8,65.8-51.1,65.8-51.1l-12-41.2c0,0-2.1,9.2-0.1,25C271.2,1039.8,249,1068.9,218.2,1080.4z"/>
</g>
<g>
	<path class="st0" d="M502.9,1029c-14.3,10.2-114.3-35.8-114.3-35.8l-10.7,41.6c0,0,38.9,34.9,67.5,48.9
		c28.7,13.9,35.6,9.1,54.3-24.3C518.5,1025.9,517.1,1018.7,502.9,1029z"/>
	<path class="st1" d="M445.6,1023.7c28.9,12.9,69.5,11,47.1,47.8l0,0c2.2-3.6,4.6-7.5,7.1-12.2c18.8-33.5,17.4-40.7,3.1-30.5
		C488.6,1039,388.6,993,388.6,993l-10.7,41.6c0,0,8.9-8.1,13.6-16.5C396.1,1010,416.8,1010.8,445.6,1023.7z"/>
</g>
<path class="st2" d="M522.2,802.4c6.9,9,17.4,14.4,17.4,14.4c-3.7-44-61.2-93.9-61.2-93.9c19.2,6.6,19.6,0.5,19.6,0.5
	c-56.1-56.7-121.4-53.2-121.4-53.2c6.7-0.5,11.3-8.9,11.3-8.9c-27.8-9.2-50.9,4.8-50.9,4.8s-27.5-7.3-37.5-21c0,0-8.7,17.5,7.5,26.2
	c0,0-33.7-13.7-77.3,6.2c0,0,12.5,8.7,26.2,8.7c0,0-61.1,1.2-107.3,69.9c0,0,9.4,2.6,18.9-3.4c-11.1,11.5-30.5,36-35.8,70.8
	c0,0,7.4-1.3,12.8-9.8c-6.6,16.6-18.3,57.3-2.2,111.8c0,0,4.8-0.4,6-24c0,0,13.3,89.5,63.8,127.9c0,0,6.2-11.2-1.1-28.1
	c0,0,32.9,30.9,36.7,51.5c0,0,7.2-12.6,2.2-25.9c0,0,27.7,20,85.7,20s91.3-22.9,91.3-22.9c-3.2,11.4,7,22.9,7,22.9
	c0.9-19,26.4-45.5,26.4-45.5c-9.7,8.8-1.1,27.1-1.1,27.1c18.2-15.5,30.9-45.8,36.6-61.5c-1.3,10.9,5.6,18.5,5.6,18.5
	c24.4-26.2,23.1-89.9,23.1-89.9c1.7,15.8,15.2,29.1,15.2,29.1C550.8,865.4,522.2,802.4,522.2,802.4z"/>
<path class="st3" d="M211,1001.1c0,0,32.9,30.9,36.7,51.5c0,0,7.2-12.6,2.2-25.9c0,0,27.7,20,85.7,20s91.3-22.9,91.3-22.9
	c-3.2,11.4,7,22.9,7,22.9c0.9-19,26.4-45.5,26.4-45.5c-9.7,8.8-1.1,27.1-1.1,27.1c18.2-15.5,30.9-45.8,36.6-61.5
	c-1.3,10.9,5.6,18.5,5.6,18.5c24.4-26.2,23.1-89.9,23.1-89.9c1.7,15.8,15.2,29.1,15.2,29.1c11.2-58.9-17.4-122-17.4-122
	c6.9,9,17.4,14.4,17.4,14.4c-3.7-44-61.2-93.9-61.2-93.9c19.2,6.6,19.6,0.5,19.6,0.5c-56.1-56.7-121.4-53.2-121.4-53.2
	s6.8-0.7,14.9,8.5c8.2,9.2,18.1,22.2,38.5,28.9c20.3,6.7,70.7,32.5,85.4,74.4c0,0-12-3.7-17.5-11c0,0,44.5,89.7,11.6,173.2
	c0,0-8.1-8.5-6.5-20.1c0,0-34.5,99.4-153.4,109.6C253.9,1041.7,211,1001.1,211,1001.1z"/>
<g>
	<path class="st4" d="M193,790.1c4.6,29.9,32.6,50.4,62.5,45.8c29.9-4.6,50.4-32.6,45.8-62.5L193,790.1z"/>
	<path class="st5" d="M228.2,785.2c2.5,14.9,16.6,25,31.5,22.5c14.9-2.5,25-16.6,22.5-31.5L228.2,785.2z"/>
	<path class="st4" d="M431.1,782.3c-0.6,4.4,2.4,8.6,6.9,9.2c4.4,0.6,8.6-2.4,9.2-6.9L431.1,782.3z"/>
	<g>
		<path class="st6" d="M240.4,782.9c1.2,7.5,8.3,12.5,15.8,11.3c7.5-1.2,12.5-8.3,11.3-15.8L240.4,782.9z"/>
		<path class="st4" d="M260.3,779.6c0.7,4.4,4.9,7.4,9.4,6.7c4.4-0.7,7.4-4.9,6.7-9.4L260.3,779.6z"/>
		<path class="st4" d="M374.8,772.7c-5,29.8,15.1,58.1,44.9,63.1s58.1-15.1,63.1-44.9L374.8,772.7z"/>
		<path class="st7" d="M254.4,827.2c-29.8,5-57.4-11.3-61.6-36.4c5,29.8,33.2,50,63,45.1c29.8-5,50-33.2,45.1-63
			C305,797.9,284.2,822.2,254.4,827.2z"/>
		<path class="st7" d="M421.2,827.2c-29.8-5-50.6-29.4-46.4-54.5c-5,29.8,15.1,58.1,44.9,63.1s58.1-15.1,63.1-44.9
			C478.6,816,451,832.2,421.2,827.2z"/>
		<path class="st5" d="M408.9,778.5c-2.5,14.9,7.5,29.1,22.4,31.6s29.1-7.5,31.6-22.4L408.9,778.5z"/>
		<path class="st6" d="M422.4,780.7c-1.3,7.5,3.8,14.5,11.2,15.8c7.5,1.3,14.5-3.8,15.8-11.2L422.4,780.7z"/>
		<path class="st4" d="M441.4,783.9c-0.7,4.4,2.2,8.6,6.7,9.4c4.4,0.7,8.6-2.2,9.4-6.7L441.4,783.9z"/>
	</g>
</g>
<g>
	<path class="st8" d="M339.5,906c41,0,45.1-25.5,74.1-12.8c29.1,12.6,21.8,95.9-61.3,101.3c-83.1,5.4-120-70.2-88.5-95.9
		C297.8,870.9,305.7,906,339.5,906z"/>
	<path class="st9" d="M272.3,966.6c16.9,17.3,44.1,30.1,80,27.8c29-1.9,48.7-13.3,61-27.8c-0.2-0.3-12.9-16.8-71.3-16.8
		C283.1,949.9,272.3,966.6,272.3,966.6z"/>
	<path class="st4" d="M324.7,903.5c0.7,8.6,2.9,20.8,9.2,20.8c5.9,0,6.9-10.3,6.8-18.4c-0.4,0-0.8,0-1.2,0
		C333.9,906,329.1,905,324.7,903.5z"/>
	<path class="st4" d="M339.5,906L339.5,906c-0.1,7.3,0.7,16.9,6.1,16.9c5.5,0,7.5-10.4,8.2-18.1C349.6,905.5,344.9,906,339.5,906z"
		/>
</g>
</svg>
