<?xml version="1.0" encoding="utf-8"?>
<!-- Generator: Adobe Illustrator 22.0.0, SVG Export Plug-In . SVG Version: 6.00 Build 0)  -->
<svg version="1.1" id="Layer_1" xmlns="http://www.w3.org/2000/svg" xmlns:xlink="http://www.w3.org/1999/xlink" x="0px" y="0px"
	 viewBox="0 0 600 600" style="enable-background:new 0 0 600 600;" xml:space="preserve">
<style type="text/css">
	.st0{fill:#C40000;}
</style>
<g>
	<g>
		<path class="st0" d="M131,219c8.6,8.6,17.1,17.1,25.7,25.7c20.5,20.5,40.9,40.9,61.4,61.4c24.7,24.7,49.5,49.5,74.2,74.2
			c21.5,21.5,43,43,64.5,64.5c10.4,10.4,20.7,21,31.3,31.3c0.2,0.2,0.3,0.3,0.5,0.5c8.6,8.6,21.5,14,33.7,14
			c11.7,0,25.7-5.2,33.7-14c8.3-9.1,14.5-21,14-33.7c-0.6-12.6-4.8-24.6-14-33.7c-8.6-8.6-17.1-17.1-25.7-25.7
			c-20.5-20.5-40.9-40.9-61.4-61.4c-24.7-24.7-49.5-49.5-74.2-74.2c-21.5-21.5-43-43-64.5-64.5c-10.4-10.4-20.7-21-31.3-31.3
			c-0.2-0.2-0.3-0.3-0.5-0.5c-8.6-8.6-21.5-14-33.7-14c-11.7,0-25.7,5.2-33.7,14c-8.3,9.1-14.5,21-14,33.7
			C117.7,197.9,121.9,209.8,131,219L131,219z"/>
	</g>
</g>
<g>
	<g>
		<path class="st0" d="M388.5,151.5c-8.6,8.6-17.1,17.1-25.7,25.7c-20.5,20.5-40.9,40.9-61.4,61.4c-24.7,24.7-49.5,49.5-74.2,74.2
			c-21.5,21.5-43,43-64.5,64.5c-10.4,10.4-21,20.7-31.3,31.3c-0.2,0.2-0.3,0.3-0.5,0.5c-8.6,8.6-14,21.5-14,33.7
			c0,11.7,5.2,25.7,14,33.7c9.1,8.3,21,14.5,33.7,14c12.6-0.6,24.6-4.8,33.7-14c8.6-8.6,17.1-17.1,25.7-25.7
			c20.5-20.5,40.9-40.9,61.4-61.4c24.7-24.7,49.5-49.5,74.2-74.2c21.5-21.5,43-43,64.5-64.5c10.4-10.4,21-20.7,31.3-31.3
			c0.2-0.2,0.3-0.3,0.5-0.5c8.6-8.6,14-21.5,14-33.7c0-11.7-5.2-25.7-14-33.7c-9.1-8.3-21-14.5-33.7-14
			C409.6,138.2,397.7,142.4,388.5,151.5L388.5,151.5z"/>
	</g>
</g>
</svg>
