<?xml version="1.0" encoding="utf-8"?>
<!-- Generator: Adobe Illustrator 22.0.0, SVG Export Plug-In . SVG Version: 6.00 Build 0)  -->
<svg version="1.1" id="Layer_1" xmlns="http://www.w3.org/2000/svg" xmlns:xlink="http://www.w3.org/1999/xlink" x="0px" y="0px"
	 viewBox="0 0 664.9 886.1" style="enable-background:new 0 0 664.9 886.1;" xml:space="preserve">
<style type="text/css">
	.st0{fill:#54A2A2;}
	.st1{fill:#498B89;}
	.st2{fill:#65C8D0;}
	.st3{fill:#60B7B9;}
	.st4{fill:#501627;}
	.st5{fill:#F56A82;}
	.st6{fill:#FFFFFF;}
	.st7{fill:#E7E7E7;}
	.st8{fill:#DC519B;}
	.st9{fill:#4F1837;}
</style>
<path class="st0" d="M72,464.6l-26.2-28.7c0,0-69.5,75.6-36.4,203.9c29.2,113.2,101,50.6,77.5-17.1C63.4,555,72,464.6,72,464.6z"/>
<path class="st1" d="M86.9,622.6C63.4,555,72.2,464.5,72.2,464.5l-39.6-10.1c-13.1,43.4,29.7,130,35.3,154.4
	c5.5,24.3,12.5,49.4,2.8,70c-9.8,20.6-41.2,7.1-41.2,7.1C62.1,729.3,105.9,677.5,86.9,622.6z"/>
<g>
	<path class="st1" d="M592.7,458.5l26.1-26.1c0,0,70,67.9,37.5,184c-28.6,102.4-100.7,46.2-77.7-15
		C601.9,540,592.7,458.5,592.7,458.5z"/>
	<path class="st0" d="M578.7,601.2c-5.1,15.4-5.7,30.3-1.6,42.5c5.5,16.7,28.6,19.6,31.9-0.1c1.3-7.4,4.2-24.6,0.1-35.5
		C602.5,590,585.6,581,578.7,601.2z"/>
</g>
<path class="st0" d="M227.6,678.7c0,0-12.8,163.4-36.6,174.5c-23.6,11.1-15.3,18.1,41.8,18.1s68.2-5.5,71-52.9
	C306.6,771,289.4,695,289.4,695L227.6,678.7z"/>
<path class="st0" d="M459.9,853.3c-23.6-11.1-36.6-174.5-36.6-174.5L361.5,695c0,0-17.2,75.9-14.4,123.3c2.8,47.4,14,52.9,71,52.9
	C475.2,871.4,483.7,864.4,459.9,853.3z"/>
<path class="st1" d="M292,806.7c-9,48.1-45.3,69.1-99.5,62.7c8.9,1.3,22.2,2,40.4,2c57.1,0,68.2-5.5,71-52.9
	c2.8-47.4-14.4-123.3-14.4-123.3l-61.8-16.3c0,0,10.1,9.9,31.6,19.4C280.9,707.7,301,758.6,292,806.7z"/>
<path class="st1" d="M425.1,775.1c4.2,46.8,36.1,98.2-27.8,95.9l0,0c6.1,0.3,13.1,0.4,21,0.4c57.1,0,65.4-7,41.8-18.1
	c-23.6-11.1-36.6-174.5-36.6-174.5L361.5,695c0,0,17.1,5.7,31.2,5.7S420.8,728.3,425.1,775.1z"/>
<path class="st2" d="M609.6,334.6c10.3,13.4,25.9,21.4,25.9,21.4c-5.5-65.4-91.1-139.9-91.1-139.9c28.7,9.9,29.2,0.7,29.2,0.7
	c-83.5-84.5-180.7-79.3-180.7-79.3c9.9-0.7,16.8-13.3,16.8-13.3c-41.4-13.7-75.9,7.1-75.9,7.1s-41-10.9-55.8-31.3
	c0,0-13,25.9,11.1,39.1c0,0-50.1-20.4-115.1,9.3c0,0,18.5,13,39.1,13c0,0-90.9,1.9-159.7,104.1c0,0,14,3.9,28.1-5.1
	C64.8,277.5,35.8,314,28,365.8c0,0,10.9-2,19.1-14.6c-9.9,24.8-27.3,85.4-3.4,166.4c0,0,7.1-0.6,8.9-35.9c0,0,19.8,133.4,95,190.5
	c0,0,9.2-16.8-1.6-41.8c0,0,49,45.9,54.7,76.7c0,0,10.8-18.8,3.4-38.6c0,0,41.2,29.7,127.7,29.7s135.8-34.1,135.8-34.1
	c-4.8,17.1,10.3,34.1,10.3,34.1c1.5-28.3,39.4-67.8,39.4-67.8c-14.4,13.1-1.7,40.4-1.7,40.4c27.1-23,46.1-68.2,54.5-91.7
	c-1.9,16.3,8.3,27.5,8.3,27.5c36.3-39.1,34.4-133.9,34.4-133.9c2.5,23.5,22.6,43.3,22.6,43.3C652.1,428.5,609.6,334.6,609.6,334.6z"
	/>
<path class="st3" d="M146.2,630.5c0,0,49,45.9,54.7,76.7c0,0,10.8-18.8,3.4-38.6c0,0,41.2,29.7,127.7,29.7s135.8-34.1,135.8-34.1
	c-4.8,17.1,10.3,34.1,10.3,34.1c1.5-28.3,39.4-67.8,39.4-67.8c-14.4,13.1-1.7,40.4-1.7,40.4c27.1-23,46.1-68.2,54.5-91.7
	c-1.9,16.3,8.3,27.5,8.3,27.5c36.3-39.1,34.4-133.9,34.4-133.9c2.5,23.5,22.6,43.3,22.6,43.3c16.8-87.7-25.9-181.6-25.9-181.6
	c10.3,13.4,25.9,21.4,25.9,21.4c-5.5-65.4-91.1-139.9-91.1-139.9c28.7,9.9,29.2,0.7,29.2,0.7c-83.5-84.5-180.7-79.3-180.7-79.3
	s10.1-1.2,22.3,12.7c12.2,13.7,27,32.9,57.3,43c30.3,10.1,105.2,48.4,127.1,110.8c0,0-17.8-5.4-26.1-16.3c0,0,66.3,133.5,17.2,258
	c0,0-12-12.7-9.6-30c0,0-51.3,148.1-228.4,163.1C210.1,691,146.2,630.5,146.2,630.5z"/>
<g>
	<path class="st4" d="M335.7,511c53.3,0.7,89.6-6.1,102.6-20.7c13-14.6,60.9,6.1,32.4,53.8c-28.6,47.7-95,52.2-135,51.5
		c-39.9-0.6-137.4-41.7-117.6-89.3C238.2,457.5,288.1,510.2,335.7,511z"/>
	<path class="st5" d="M276.2,579.6c0,0,55.8-57.3,162.1-4.5C438.3,575.1,363,620.3,276.2,579.6z"/>
	<path class="st6" d="M276.2,493.6c0,0-1.9,31.2,4.7,33.8c6.4,2.6,9-11.1,9-11.1s44,15.6,109.5,5.8c0,0,0.6,10.3,5.8,11.1
		c5.2,0.6,12-30.8,12-30.8s-22.6,8.6-68.5,8.6C315.7,511,276.2,493.6,276.2,493.6z"/>
</g>
<g>
	<path class="st6" d="M463.2,321.8c4.1,70.4-49.8,130.7-120.2,134.8c-70.4,4.1-130.7-49.8-134.8-120.2S258,205.6,328.4,201.5
		C398.8,197.6,459.2,251.4,463.2,321.8z"/>
	<path class="st7" d="M463.2,321.8c-0.4-7.1-1.5-14-2.9-20.7c0.1,1.9,0.4,3.9,0.4,6c4.1,70.4-49.8,130.7-120.2,134.8
		c-63.3,3.6-118.5-39.5-131.9-99.4c7,67.5,65.9,118.2,134.4,114.3C413.4,452.7,467.2,392.3,463.2,321.8z"/>
	<path class="st8" d="M381,263.3c1.6,27.5-19.5,51.2-47.1,52.8c-27.5,1.6-51.2-19.5-52.8-47.1c-1.6-27.5,19.5-51.2,47.1-52.8
		C356,214.6,379.6,235.8,381,263.3z"/>
	<path class="st9" d="M358.7,264.6c0.9,15.2-10.8,28.3-25.9,29.2s-28.3-10.8-29.2-25.9c-0.9-15.2,10.8-28.3,25.9-29.2
		C344.9,237.8,357.9,249.3,358.7,264.6z"/>
	<path class="st6" d="M365.3,243.8c0.4,8.6-6.1,16-14.7,16.6c-8.6,0.4-16-6.1-16.6-14.7c-0.4-8.6,6.1-16,14.7-16.6
		C357.4,228.5,364.9,235,365.3,243.8z"/>
</g>
</svg>
