<?xml version="1.0" encoding="utf-8"?>
<!-- Generator: Adobe Illustrator 22.0.0, SVG Export Plug-In . SVG Version: 6.00 Build 0)  -->
<svg version="1.1" id="Layer_1" xmlns="http://www.w3.org/2000/svg" xmlns:xlink="http://www.w3.org/1999/xlink" x="0px" y="0px"
	 viewBox="0 0 600 600" style="enable-background:new 0 0 600 600;" xml:space="preserve">
<style type="text/css">
	.st0{fill:#BF0A46;}
	.st1{fill:#B0D133;}
	.st2{fill:#96B127;}
	.st3{fill:#91A325;}
	.st4{fill:#501627;}
	.st5{fill:#FFFFFF;}
	.st6{fill:#E7E7E7;}
	.st7{fill:#F6901B;}
	.st8{fill:#6B390B;}
</style>
<path class="st0" d="M138,271c0,0-10,100-96,166c-33.4,25.6,39-23,64,8s24,31,41,6s45-24,61-11s86,41,92,19s17-39.8,47-21.9
	c30,17.9,55,31.9,64,8.9s89,21,76,0c-26-42,39-36,39-36l-52.7-128.5L138,271z"/>
<path class="st1" d="M461.8,212.6c5.9,7.7,14.9,12.3,14.9,12.3c-3.2-37.6-52.3-80.3-52.3-80.3c16.4,5.6,16.8,0.4,16.8,0.4
	c-48-48.5-103.7-45.5-103.7-45.5c5.7-0.5,9.6-7.6,9.6-7.6c-23.7-7.9-43.5,4.1-43.5,4.1s-23.5-6.2-32-18c0,0-7.5,14.9,6.4,22.4
	c0,0-28.8-11.7-66.1,5.3c0,0,10.7,7.5,22.4,7.5c0,0-52.2,1.1-91.7,59.7c0,0,8,2.2,16.2-2.9c-9.5,9.8-26.1,30.7-30.6,60.5
	c0,0,6.3-1.1,11-8.4c-5.7,14.2-15.6,49-1.9,95.5c0,0,4.1-0.3,5.1-20.5c0,0,11.4,76.5,54.6,109.3c0,0,5.3-9.6-1-24
	c0,0,28.1,26.4,31.3,44c0,0,6.2-10.8,1.9-22.2c0,0,23.7,17.1,73.3,17.1c49.6,0,78-19.5,78-19.5c-2.8,9.8,6,19.5,6,19.5
	c0.8-16.3,22.6-38.9,22.6-38.9c-8.3,7.5-1,23.2-1,23.2c15.5-13.2,26.4-39.1,31.3-52.6c-1.1,9.3,4.8,15.8,4.8,15.8
	c20.8-22.4,19.8-76.8,19.8-76.8c1.4,13.5,13,24.9,13,24.9C486.2,266.5,461.8,212.6,461.8,212.6z"/>
<path class="st2" d="M153.3,287.2l-15.1-16.5c0,0-39.9,43.4-20.9,117c16.7,65,57.9,29,44.5-9.8C148.4,339.2,153.3,287.2,153.3,287.2
	z"/>
<path class="st3" d="M161.8,378c-13.4-38.8-8.5-90.7-8.5-90.7l-22.8-5.8c-7.5,24.9,17.1,74.6,20.3,88.6c3.2,14,7.2,28.4,1.6,40.2
	c-5.6,11.8-23.7,4.1-23.7,4.1C147.6,439.2,172.7,409.5,161.8,378z"/>
<path class="st3" d="M445.9,287.2l15.1-16.5c0,0,39.9,43.4,20.9,117c-16.7,65-57.9,29-44.5-9.8C450.8,339.2,445.9,287.2,445.9,287.2
	z"/>
<path class="st2" d="M437.4,378c-3,9.8-3.4,19.2-1.1,27c3.1,10.6,16.3,12.6,18.3,0c0.7-4.7,2.5-15.7,0.2-22.6
	C451,370.9,441.3,365.2,437.4,378z"/>
<path class="st2" d="M242.6,410.2c0,0-7.4,93.8-21,100.2c-13.6,6.4-8.8,10.4,24,10.4s39.2-3.2,40.8-30.4c1.6-27.2-8.3-70.8-8.3-70.8
	L242.6,410.2z"/>
<path class="st2" d="M375.9,510.3c-13.6-6.4-21-100.2-21-100.2l-35.5,9.4c0,0-9.9,43.6-8.3,70.8c1.6,27.2,8,30.4,40.8,30.4
	C384.7,520.7,389.5,516.7,375.9,510.3z"/>
<path class="st3" d="M279.6,483.6c-5.2,27.6-26,39.6-57.2,36c5.1,0.8,12.7,1.2,23.2,1.2c32.8,0,39.2-3.2,40.8-30.4
	c1.6-27.2-8.3-70.8-8.3-70.8l-35.5-9.4c0,0,5.8,5.7,18.2,11.1C273.2,426.8,284.7,456,279.6,483.6z"/>
<path class="st3" d="M355.9,465.5c2.4,26.9,20.8,56.4-16,55l0,0c3.6,0.2,7.5,0.2,12,0.2c32.8,0,37.6-4,24-10.4
	c-13.6-6.4-21-100.2-21-100.2l-35.5,9.4c0,0,9.8,3.2,17.9,3.2C345.5,422.8,353.5,438.6,355.9,465.5z"/>
<path class="st2" d="M195.8,382.4c0,0,28.1,26.4,31.3,44c0,0,6.2-10.8,1.9-22.2c0,0,23.7,17.1,73.3,17.1c49.6,0,78-19.5,78-19.5
	c-2.8,9.8,6,19.5,6,19.5c0.8-16.3,22.6-38.9,22.6-38.9c-8.3,7.5-1,23.2-1,23.2c15.5-13.2,26.4-39.1,31.3-52.6
	c-1.1,9.3,4.8,15.8,4.8,15.8c20.8-22.4,19.8-76.8,19.8-76.8c1.4,13.5,13,24.9,13,24.9c9.6-50.4-14.9-104.2-14.9-104.2
	c5.9,7.7,14.9,12.3,14.9,12.3c-3.2-37.6-52.3-80.3-52.3-80.3c16.4,5.6,16.8,0.4,16.8,0.4c-48-48.5-103.7-45.5-103.7-45.5
	s5.8-0.6,12.8,7.3c7,7.9,15.5,18.9,32.9,24.7c17.4,5.7,60.4,27.8,73,63.6c0,0-10.2-3.1-14.9-9.4c0,0,38.1,76.6,9.9,148
	c0,0-6.9-7.3-5.6-17.2c0,0-29.5,85-131.1,93.6C232.5,417.2,195.8,382.4,195.8,382.4z"/>
<path class="st4" d="M300.4,345.9c-11.1,0-20.1-9-20.1-20.1c0-1.6,1.3-2.9,2.9-2.9c1.6,0,2.9,1.3,2.9,2.9c0,7.9,6.4,14.3,14.3,14.3
	c7.9,0,14.3-6.4,14.3-14.3c0-1.6,1.3-2.9,2.9-2.9c1.6,0,2.9,1.3,2.9,2.9C320.5,336.9,311.5,345.9,300.4,345.9z"/>
<g>
	
		<ellipse transform="matrix(0.6514 -0.7587 0.7587 0.6514 -103.2778 258.4403)" class="st5" cx="229.6" cy="241.6" rx="28.5" ry="28.5"/>
	<path class="st6" d="M258.1,240c-0.1-1.6-0.3-3.1-0.7-4.6c0,0.4,0.1,0.9,0.1,1.3c0.9,15.7-11.1,29.2-26.8,30.1
		c-14.1,0.8-26.4-8.8-29.4-22.2c1.6,15.1,14.7,26.4,30,25.5C247,269.2,259,255.7,258.1,240z"/>
	<path class="st7" d="M239.8,238.3c0.4,6.2-4.3,11.4-10.5,11.8c-6.2,0.4-11.4-4.3-11.8-10.5c-0.4-6.2,4.3-11.4,10.5-11.8
		C234.1,227.5,239.4,232.2,239.8,238.3z"/>
	<path class="st8" d="M234.8,238.6c0.2,3.4-2.4,6.3-5.8,6.5c-3.4,0.2-6.3-2.4-6.5-5.8c-0.2-3.4,2.4-6.3,5.8-6.5
		C231.7,232.6,234.6,235.2,234.8,238.6z"/>
	<path class="st5" d="M236.2,233.9c0.1,1.9-1.4,3.6-3.3,3.7c-1.9,0.1-3.6-1.4-3.7-3.3c-0.1-1.9,1.4-3.6,3.3-3.7
		C234.5,230.5,236.1,232,236.2,233.9z"/>
	<path class="st5" d="M411.2,240c0.9,15.7-11.1,29.2-26.8,30.1c-15.7,0.9-29.2-11.1-30.1-26.8c-0.9-15.7,11.1-29.2,26.8-30.1
		C396.8,212.2,410.3,224.3,411.2,240z"/>
	<path class="st6" d="M411.2,240c-0.1-1.6-0.3-3.1-0.7-4.6c0,0.4,0.1,0.9,0.1,1.3c0.9,15.7-11.1,29.2-26.8,30.1
		c-14.1,0.8-26.4-8.8-29.4-22.2c1.6,15.1,14.7,26.4,30,25.5C400.1,269.2,412.1,255.7,411.2,240z"/>
	<path class="st7" d="M392.9,238.3c0.4,6.2-4.3,11.4-10.5,11.8c-6.2,0.4-11.4-4.3-11.8-10.5c-0.4-6.2,4.3-11.4,10.5-11.8
		C387.2,227.5,392.5,232.2,392.9,238.3z"/>
	<path class="st8" d="M387.9,238.6c0.2,3.4-2.4,6.3-5.8,6.5c-3.4,0.2-6.3-2.4-6.5-5.8s2.4-6.3,5.8-6.5
		C384.8,232.6,387.7,235.2,387.9,238.6z"/>
	<path class="st5" d="M389.3,233.9c0.1,1.9-1.4,3.6-3.3,3.7c-1.9,0.1-3.6-1.4-3.7-3.3c-0.1-1.9,1.4-3.6,3.3-3.7
		C387.6,230.5,389.2,232,389.3,233.9z"/>
</g>
<path d="M469.3,233.3l-30-16.3c-9-16.1-26.2-27-45.8-27h-30c-15.5,0-29.5,6.8-39.1,17.6c0,0,0,0,0,0c-11.4,10.4-23.4,14.4-41.8,0
	C273,196.8,259,190,243.5,190h-30c-17.6,0-33.2,8.8-42.7,22.1l-35.3,19.2l-4,14.7l36.5,22.7c9.1,15.7,26.1,26.3,45.5,26.3h30
	c19.8,0,37.1-11.1,46.1-27.4c0.2-0.2,0.3-0.4,0.4-0.6c6.8-11.6,20-12.9,26.6-1c0.2,0.4,0.4,0.8,0.6,1.1c0,0.1,0.1,0.1,0.1,0.2
	c0,0,0,0,0,0c0,0,0.1,0.1,0.1,0.1c0.1,0.1,0.1,0.2,0.2,0.3c9,16.2,26.2,27.2,45.9,27.2h30c19,0,35.6-10.2,44.9-25.3l34.9-21.7
	L469.3,233.3z M226,283c-22.7,0-41-18.4-41-41c0-22.7,18.4-41,41-41s41,18.4,41,41C267,264.7,248.7,283,226,283z M382.1,283.1
	c-22.7,0-41-18.4-41-41s18.4-41,41-41c22.7,0,41,18.4,41,41S404.7,283.1,382.1,283.1z"/>
</svg>
