<?xml version="1.0" encoding="utf-8"?>
<!-- Generator: Adobe Illustrator 22.0.0, SVG Export Plug-In . SVG Version: 6.00 Build 0)  -->
<svg version="1.1" id="Layer_1" xmlns="http://www.w3.org/2000/svg" xmlns:xlink="http://www.w3.org/1999/xlink" x="0px" y="0px"
	 viewBox="0 0 664.9 886.1" style="enable-background:new 0 0 664.9 886.1;" xml:space="preserve">
<style type="text/css">
	.st0{fill:#54A2A2;}
	.st1{fill:#498B89;}
	.st2{fill:#65C8D0;}
	.st3{fill:#60B7B9;}
	.st4{fill:#501627;}
	.st5{fill:#F56A82;}
	.st6{fill:#FFFFFF;}
	.st7{fill:#E7E7E7;}
	.st8{fill:#DC519B;}
	.st9{fill:#4F1837;}
</style>
<path class="st0" d="M174.4,624.7l-15.9-17.4c0,0-42.2,45.9-22.1,123.7c17.7,68.7,61.3,30.7,47-10.3
	C169.2,679.5,174.4,624.7,174.4,624.7z"/>
<path class="st1" d="M183.4,720.5c-14.2-41-8.9-95.9-8.9-95.9l-24-6.1c-8,26.3,18,78.8,21.4,93.6s7.6,30,1.7,42.4
	c-5.9,12.5-25,4.3-25,4.3C168.4,785.2,194.9,753.8,183.4,720.5z"/>
<g>
	<path class="st1" d="M490.2,621l15.8-15.8c0,0,42.4,41.2,22.7,111.6c-17.3,62.1-61.1,28-47.1-9.1C495.7,670.4,490.2,621,490.2,621z
		"/>
	<path class="st0" d="M481.7,707.5c-3.1,9.3-3.4,18.4-1,25.8c3.4,10.1,17.3,11.9,19.4-0.1c0.8-4.5,2.6-14.9,0.1-21.5
		C496.1,700.7,485.8,695.3,481.7,707.5z"/>
</g>
<path class="st0" d="M268.7,754.5c0,0-7.8,99.1-22.2,105.8c-14.3,6.7-9.3,11,25.4,11s41.4-3.4,43-32.1c1.7-28.7-8.8-74.8-8.8-74.8
	L268.7,754.5z"/>
<path class="st0" d="M409.6,860.4c-14.3-6.7-22.2-105.8-22.2-105.8l-37.5,9.8c0,0-10.4,46.1-8.8,74.8c1.7,28.7,8.5,32.1,43,32.1
	C418.9,871.4,424,867.2,409.6,860.4z"/>
<path class="st1" d="M307.8,832.2c-5.5,29.2-27.5,41.9-60.4,38c5.4,0.8,13.4,1.2,24.5,1.2c34.7,0,41.4-3.4,43-32.1
	s-8.8-74.8-8.8-74.8l-37.5-9.9c0,0,6.1,6,19.2,11.8C301.1,772.1,313.3,803,307.8,832.2z"/>
<path class="st1" d="M388.5,813c2.6,28.4,21.9,59.6-16.9,58.2l0,0c3.7,0.2,8,0.3,12.7,0.3c34.7,0,39.7-4.2,25.4-11
	c-14.3-6.7-22.2-105.8-22.2-105.8l-37.6,9.8c0,0,10.3,3.4,18.9,3.4S385.9,784.6,388.5,813z"/>
<path class="st2" d="M500.4,545.8c6.3,8.1,15.7,13,15.7,13c-3.4-39.7-55.2-84.9-55.2-84.9c17.4,6,17.7,0.4,17.7,0.4
	c-50.7-51.3-109.6-48.1-109.6-48.1c6-0.4,10.2-8,10.2-8c-25.1-8.3-46.1,4.3-46.1,4.3s-24.8-6.6-33.9-19c0,0-7.9,15.7,6.7,23.7
	c0,0-30.4-12.4-69.8,5.7c0,0,11.2,7.9,23.7,7.9c0,0-55.2,1.1-96.9,63.1c0,0,8.5,2.4,17.1-3.1c-10,10.3-27.6,32.5-32.3,63.9
	c0,0,6.6-1.2,11.6-8.8c-6,15-16.5,51.8-2,100.9c0,0,4.3-0.4,5.4-21.7c0,0,12,80.9,57.6,115.5c0,0,5.6-10.2-1-25.4
	c0,0,29.7,27.8,33.1,46.5c0,0,6.5-11.4,2-23.4c0,0,25,18,77.4,18s82.4-20.7,82.4-20.7c-2.9,10.3,6.3,20.7,6.3,20.7
	c0.9-17.1,23.9-41.1,23.9-41.1c-8.8,8-1.1,24.5-1.1,24.5c16.4-14,27.9-41.4,33.1-55.6c-1.1,9.9,5,16.7,5,16.7
	c22-23.7,20.9-81.2,20.9-81.2c1.5,14.2,13.7,26.3,13.7,26.3C526.2,602.8,500.4,545.8,500.4,545.8z"/>
<path class="st3" d="M219.4,725.3c0,0,29.7,27.8,33.1,46.5c0,0,6.5-11.4,2-23.4c0,0,25,18,77.4,18s82.4-20.7,82.4-20.7
	c-2.9,10.3,6.3,20.7,6.3,20.7c0.9-17.1,23.9-41.1,23.9-41.1c-8.8,8-1.1,24.5-1.1,24.5c16.4-14,27.9-41.4,33.1-55.6
	c-1.1,9.9,5,16.7,5,16.7c22-23.7,20.9-81.2,20.9-81.2c1.5,14.2,13.7,26.3,13.7,26.3c10.2-53.2-15.7-110.1-15.7-110.1
	c6.3,8.1,15.7,13,15.7,13c-3.4-39.7-55.2-84.9-55.2-84.9c17.4,6,17.7,0.4,17.7,0.4c-50.7-51.3-109.6-48.1-109.6-48.1
	s6.1-0.7,13.5,7.7c7.4,8.3,16.4,20,34.7,26.1c18.4,6.1,63.8,29.3,77.1,67.2c0,0-10.8-3.3-15.8-9.9c0,0,40.2,81,10.4,156.5
	c0,0-7.2-7.7-5.8-18.2c0,0-31.1,89.8-138.5,98.9C258.1,762,219.4,725.3,219.4,725.3z"/>
<g>
	<path class="st4" d="M327,713.3c13.7,0.2,23-1.6,26.4-5.3c3.3-3.7,15.7,1.6,8.3,13.8c-7.3,12.2-24.4,13.4-34.7,13.2
		c-10.3-0.1-35.3-10.7-30.2-23C301.9,699.6,314.8,713.1,327,713.3z"/>
	<path class="st5" d="M311.7,731c0,0,14.3-14.7,41.6-1.2C353.4,729.8,334,741.4,311.7,731z"/>
	<path class="st6" d="M311.7,708.9c0,0-0.5,8,1.2,8.7c1.6,0.7,2.3-2.8,2.3-2.8s11.3,4,28.1,1.5c0,0,0.1,2.7,1.5,2.8
		c1.3,0.1,3.1-7.9,3.1-7.9s-5.8,2.2-17.6,2.2C321.9,713.3,311.7,708.9,311.7,708.9z"/>
</g>
<g>
	<path class="st6" d="M427.8,572.7c3,51.6-36.6,95.9-88.2,98.9s-95.9-36.6-98.9-88.2s36.6-95.9,88.2-98.9
		C380.6,481.6,424.8,521.1,427.8,572.7z"/>
	<path class="st7" d="M427.8,572.7c-0.3-5.2-1.1-10.3-2.1-15.2c0.1,1.4,0.3,2.9,0.3,4.4c3,51.6-36.6,95.9-88.2,98.9
		c-46.4,2.7-86.9-29-96.7-72.9c5.1,49.5,48.3,86.7,98.6,83.8C391.3,668.7,430.7,624.4,427.8,572.7z"/>
	<path class="st8" d="M328.5,552.8c1.2,20.2-14.3,37.5-34.5,38.7c-20.2,1.2-37.5-14.3-38.7-34.5c-1.2-20.2,14.3-37.5,34.5-38.7
		C310.2,517.1,327.5,532.6,328.5,552.8z"/>
	<path class="st9" d="M312.2,553.8c0.6,11.1-7.9,20.7-19,21.4c-11.1,0.6-20.7-7.9-21.4-19c-0.6-11.1,7.9-20.7,19-21.4
		C302,534.1,311.5,542.6,312.2,553.8z"/>
	<path class="st6" d="M317,538.5c0.3,6.3-4.5,11.8-10.8,12.2c-6.3,0.3-11.8-4.5-12.2-10.8c-0.3-6.3,4.5-11.8,10.8-12.2
		C311.2,527.3,316.7,532.1,317,538.5z"/>
</g>
</svg>
