<?xml version="1.0" encoding="utf-8"?>
<!-- Generator: Adobe Illustrator 22.0.0, SVG Export Plug-In . SVG Version: 6.00 Build 0)  -->
<svg version="1.1" id="Layer_1" xmlns="http://www.w3.org/2000/svg" xmlns:xlink="http://www.w3.org/1999/xlink" x="0px" y="0px"
	 viewBox="0 0 414.5 210.7" style="enable-background:new 0 0 414.5 210.7;" xml:space="preserve">
<style type="text/css">
	.st0{fill:#D27117;}
	.st1{fill:#C36515;}
	.st2{fill:#F6901B;}
	.st3{fill:#E47E17;}
	.st4{fill:#FFFFFF;}
	.st5{fill:#E7E7E7;}
	.st6{fill:#6B390B;}
	.st7{fill:none;stroke:#000000;stroke-width:3;stroke-miterlimit:10;}
</style>
<g>
	<path class="st0" d="M287,89l-8.5,5.6c0,0,16.7,21.2,51.5,18c30.7-2.8,17.4-24.1-1.2-20.9S287,89,287,89z"/>
	<path class="st1" d="M328.7,91.8C310.2,95,287,89,287,89l-4.3,9.9c10.7,5.2,35-2.3,41.6-2.7c6.6-0.4,13.4-1.2,18.3,2.2
		c4.9,3.4,0.1,11,0.1,11C355.4,102.7,343.8,89.1,328.7,91.8z"/>
</g>
<g>
	<path class="st1" d="M150.5,91.2l9.3,4.3c0,0-13.4,23.5-48.3,25.4c-30.8,1.7-20.7-21.3-1.9-20.8C128.5,100.5,150.5,91.2,150.5,91.2
		z"/>
	<path class="st0" d="M109.6,100c-4.7,0-8.9,1.2-12,3.3c-4.2,2.8-3.3,8.9,2.5,8c2.2-0.3,7.2-1,9.9-3C114.6,105,115.8,100,109.6,100z
		"/>
</g>
<path class="st0" d="M191.5,207.3c15,0,18-1.5,18.7-13.9s-3.8-32.5-3.8-32.5l-16.3-4.3c0,0-3.4,43-9.6,45.9"/>
<path class="st0" d="M251.3,202.6c-6.3-2.9-9.6-45.9-9.6-45.9l-16.3,4.3c0,0-4.5,20-3.8,32.5c0.7,12.5,3.7,13.9,18.7,13.9"/>
<path class="st1" d="M191.5,207.3c15,0,18-1.5,18.7-13.9s-3.8-32.5-3.8-32.5l-16.3-4.3c0,0,2.7,2.6,8.4,5.1
	c5.7,2.5,11,15.9,8.6,28.6c-2.4,12.7-11.9,18.2-26.3,16.5"/>
<path class="st1" d="M251.3,202.6c-6.3-2.9-9.6-45.9-9.6-45.9l-16.3,4.3c0,0,4.5,1.5,8.2,1.5c3.7,0,7.4,7.2,8.5,19.6
	c1.1,12.4,9.5,25.9-7.3,25.2"/>
<path class="st2" d="M186.2,20.4c0,0-23.9,0.5-42,27.4c0,0,3.7,1,7.4-1.3c-4.4,4.5-11.9,14.1-14,27.7c0,0,2.9-0.5,5-3.8
	c-2.6,6.5-7.2,22.5-0.9,43.8c0,0,1.9-0.2,2.4-9.4c0,0,5.2,35.1,25,50.1c0,0,2.4-4.4-0.5-11c0,0,12.9,12.1,14.4,20.2
	c0,0,2.8-4.9,0.9-10.2c0,0,10.9,7.8,33.6,7.8s35.8-9,35.8-9c-1.3,4.5,2.7,9,2.7,9c0.4-7.4,10.4-17.8,10.4-17.8
	c-3.8,3.4-0.5,10.6-0.5,10.6c7.1-6.1,12.1-17.9,14.4-24.2c-0.5,4.3,2.2,7.3,2.2,7.3c9.5-10.3,9.1-35.3,9.1-35.3
	c0.7,6.2,5.9,11.4,5.9,11.4c4.4-23.1-6.8-47.8-6.8-47.8c2.7,3.5,6.8,5.6,6.8,5.6c-1.5-17.2-24-36.8-24-36.8c7.5,2.6,7.7,0.2,7.7,0.2
	c-22-22.3-47.6-20.9-47.6-20.9"/>
<path class="st3" d="M239.4,17.4c3.2,3.6,7.1,8.7,15.1,11.3c8,2.6,27.7,12.7,33.5,29.2c0,0-4.7-1.4-6.9-4.3c0,0,17.5,35.2,4.6,67.9
	c0,0-3.2-3.3-2.6-7.9c0,0-13.5,39-60.1,43c-37.5,3.2-54.4-12.7-54.4-12.7S181.5,156,183,164c0,0,2.8-4.9,0.9-10.2
	c0,0,10.9,7.8,33.6,7.8s35.8-9,35.8-9c-1.3,4.5,2.7,9,2.7,9c0.4-7.4,10.4-17.8,10.4-17.8c-3.8,3.4-0.5,10.6-0.5,10.6
	c7.1-6.1,12.1-17.9,14.4-24.2c-0.5,4.3,2.2,7.3,2.2,7.3c9.5-10.3,9.1-35.3,9.1-35.3c0.7,6.2,5.9,11.4,5.9,11.4
	c4.4-23.1-6.8-47.8-6.8-47.8c2.7,3.5,6.8,5.6,6.8,5.6c-1.5-17.2-24-36.8-24-36.8c7.5,2.6,7.7,0.2,7.7,0.2
	c-22-22.3-47.6-20.9-47.6-20.9"/>
<g>
	<ellipse class="st4" cx="188" cy="65.2" rx="21.2" ry="21.2"/>
	<path class="st5" d="M209.2,64.1c-0.1-1.2-0.3-2.4-0.5-3.4c0.1,0.3,0.1,0.7,0.1,1c0.7,11.7-8.3,21.7-20,22.4
		c-10.5,0.6-19.7-6.6-21.9-16.6c1.2,11.2,11,19.6,22.4,19C200.9,85.8,209.9,75.7,209.2,64.1z"/>
	<path class="st2" d="M195.5,62.8c0.3,4.6-3.2,8.5-7.8,8.8c-4.6,0.3-8.5-3.2-8.8-7.8c-0.3-4.6,3.2-8.5,7.8-8.8
		C191.4,54.7,195.3,58.2,195.5,62.8z"/>
	<path class="st6" d="M191.9,63c0.2,2.5-1.8,4.7-4.3,4.8c-2.5,0.2-4.7-1.8-4.8-4.3c-0.2-2.5,1.8-4.7,4.3-4.8
		C189.5,58.6,191.7,60.5,191.9,63z"/>
	<path class="st4" d="M192.9,59.5c0.1,1.4-1,2.7-2.5,2.8c-1.4,0.1-2.7-1-2.8-2.5c-0.1-1.4,1-2.7,2.5-2.8
		C191.6,57,192.9,58.1,192.9,59.5z"/>
	<path class="st4" d="M268.2,64.1c0.7,11.7-8.3,21.7-20,22.4c-11.7,0.7-21.7-8.3-22.4-20c-0.7-11.7,8.3-21.7,20-22.4
		C257.4,43.4,267.5,52.3,268.2,64.1z"/>
	<path class="st5" d="M268.2,64.1c-0.1-1.2-0.3-2.4-0.5-3.4c0.1,0.3,0.1,0.7,0.1,1c0.7,11.7-8.3,21.7-20,22.4
		c-10.5,0.6-19.7-6.6-21.9-16.6c1.2,11.2,11,19.6,22.4,19C259.8,85.8,268.8,75.7,268.2,64.1z"/>
	<path class="st2" d="M254.5,62.8c0.3,4.6-3.2,8.5-7.8,8.8c-4.6,0.3-8.5-3.2-8.8-7.8c-0.3-4.6,3.2-8.5,7.8-8.8
		C250.3,54.7,254.2,58.2,254.5,62.8z"/>
	<path class="st6" d="M250.8,63c0.2,2.5-1.8,4.7-4.3,4.8c-2.5,0.2-4.7-1.8-4.8-4.3c-0.2-2.5,1.8-4.7,4.3-4.8
		C248.5,58.6,250.6,60.5,250.8,63z"/>
	<path class="st4" d="M251.8,59.5c0.1,1.4-1,2.7-2.5,2.8c-1.4,0.1-2.7-1-2.8-2.5c-0.1-1.4,1-2.7,2.5-2.8
		C250.6,57,251.8,58.1,251.8,59.5z"/>
</g>
<path class="st7" d="M222.9,119.5c0,0,4.9-16.1,21.2-11"/>
</svg>
