<?xml version="1.0" encoding="utf-8"?>
<!-- Generator: Adobe Illustrator 22.0.0, SVG Export Plug-In . SVG Version: 6.00 Build 0)  -->
<svg version="1.1" id="Layer_1" xmlns="http://www.w3.org/2000/svg" xmlns:xlink="http://www.w3.org/1999/xlink" x="0px" y="0px"
	 viewBox="0 0 414.5 210.7" style="enable-background:new 0 0 414.5 210.7;" xml:space="preserve">
<style type="text/css">
	.st0{fill:#B0D133;}
	.st1{fill:#96B127;}
	.st2{fill:#91A325;}
	.st3{fill:#FFFFFF;}
	.st4{fill:#E7E7E7;}
	.st5{fill:#F6901B;}
	.st6{fill:#6B390B;}
	.st7{fill:none;stroke:#000000;stroke-width:1.7609;stroke-miterlimit:10;}
</style>
<path class="st0" d="M278.9,67.1c2.6,3.4,6.6,5.4,6.6,5.4c-1.4-16.6-23-35.4-23-35.4c7.2,2.5,7.4,0.2,7.4,0.2
	c-21.1-21.4-45.7-20-45.7-20c2.5-0.2,4.2-3.3,4.2-3.3c-10.4-3.5-19.1,1.8-19.1,1.8s-10.3-2.7-14.1-7.9c0,0-3.3,6.6,2.8,9.9
	c0,0-12.7-5.2-29.1,2.3c0,0,4.7,3.3,9.9,3.3c0,0-23,0.5-40.4,26.3c0,0,3.5,1,7.1-1.3c-4.2,4.3-11.5,13.5-13.5,26.6
	c0,0,2.8-0.5,4.8-3.7c-2.5,6.3-6.9,21.6-0.8,42c0,0,1.8-0.1,2.2-9c0,0,5,33.7,24,48.1c0,0,2.3-4.2-0.4-10.6c0,0,12.4,11.6,13.8,19.4
	c0,0,2.7-4.8,0.8-9.8c0,0,10.4,7.5,32.3,7.5s34.3-8.6,34.3-8.6c-1.2,4.3,2.6,8.6,2.6,8.6c0.4-7.2,9.9-17.1,9.9-17.1
	c-3.7,3.3-0.4,10.2-0.4,10.2c6.8-5.8,11.6-17.2,13.8-23.2c-0.5,4.1,2.1,7,2.1,7c9.2-9.9,8.7-33.8,8.7-33.8c0.6,5.9,5.7,11,5.7,11
	C289.7,90.9,278.9,67.1,278.9,67.1z"/>
<path class="st1" d="M143.1,100l-6.6-7.3c0,0-17.6,19.1-9.2,51.5c7.4,28.6,25.5,12.8,19.6-4.3C141,122.9,143.1,100,143.1,100z"/>
<path class="st2" d="M146.9,140c-5.9-17.1-3.7-39.9-3.7-39.9l-10-2.6c-3.3,11,7.5,32.8,8.9,39c1.4,6.2,3.2,12.5,0.7,17.7
	c-2.5,5.2-10.4,1.8-10.4,1.8C140.6,166.9,151.7,153.8,146.9,140z"/>
<g>
	<path class="st2" d="M276.6,89.8l6.6,7.2c0,0,43.8,0,9.2-50.8c-18.3-26-41.2-2-19.6,4.3C309.8,79.9,276.6,89.8,276.6,89.8z"/>
	<path class="st1" d="M280.8,49.8c-4.4-0.4-8.3-1.7-11.1-3.9c-3.8-3-2.4-8.7,3-7.5c2,0.5,6.7,1.5,9.1,3.6
		C285.9,45.3,286.6,50.2,280.8,49.8z"/>
</g>
<path class="st1" d="M182.4,154.1c0,0-3.3,41.3-9.2,44.1c-6,2.8-3.9,4.6,10.6,4.6c14.4,0,17.3-1.4,18-13.4s-3.7-31.2-3.7-31.2
	L182.4,154.1z"/>
<path class="st1" d="M241.1,198.2c-6-2.8-9.2-44.1-9.2-44.1l-15.6,4.1c0,0-4.4,19.2-3.7,31.2c0.7,12,3.5,13.4,18,13.4
	C245,202.8,247.1,201,241.1,198.2z"/>
<path class="st2" d="M198.7,186.4c-2.3,12.2-11.4,17.4-25.2,15.8c2.2,0.4,5.6,0.5,10.2,0.5c14.4,0,17.3-1.4,18-13.4
	c0.7-12-3.7-31.2-3.7-31.2l-15.6-4.1c0,0,2.6,2.5,8,4.9C195.9,161.4,201,174.3,198.7,186.4z"/>
<path class="st2" d="M232.3,178.5c1.1,11.8,9.2,24.8-7,24.2l0,0c1.6,0.1,3.3,0.1,5.3,0.1c14.4,0,16.6-1.8,10.6-4.6
	c-6-2.8-9.2-44.1-9.2-44.1l-15.6,4.1c0,0,4.3,1.4,7.9,1.4C227.7,159.7,231.3,166.6,232.3,178.5z"/>
<path class="st1" d="M161.8,141.9c0,0,12.4,11.6,13.8,19.4c0,0,2.7-4.8,0.8-9.8c0,0,10.4,7.5,32.3,7.5s34.3-8.6,34.3-8.6
	c-1.2,4.3,2.6,8.6,2.6,8.6c0.4-7.2,9.9-17.1,9.9-17.1c-3.7,3.3-0.4,10.2-0.4,10.2c6.8-5.8,11.6-17.2,13.8-23.2c-0.5,4.1,2.1,7,2.1,7
	c9.2-9.9,8.7-33.8,8.7-33.8c0.6,5.9,5.7,11,5.7,11c4.2-22.2-6.6-45.9-6.6-45.9c2.6,3.4,6.6,5.4,6.6,5.4c-1.4-16.6-23-35.4-23-35.4
	c7.2,2.5,7.4,0.2,7.4,0.2c-21.1-21.4-45.7-20-45.7-20s2.6-0.3,5.6,3.2s6.8,8.3,14.5,10.9c7.7,2.5,26.6,12.2,32.1,28
	c0,0-4.5-1.4-6.6-4.1c0,0,16.8,33.7,4.4,65.2c0,0-3-3.2-2.5-7.6c0,0-13,37.4-57.7,41.2C178,157.2,161.8,141.9,161.8,141.9z"/>
<g>
	<path class="st3" d="M165.4,72.1c11.7-3.4,16.5-6.4,25.6-7.5c11.1-1.4,9.5,20.1,2.2,28.6s-20.1,9.5-28.6,2.2
		C156.1,88,154.7,75.2,165.4,72.1z"/>
	<path class="st4" d="M198.1,78.8c-0.1-1.1-0.2-2.2-0.5-3.3c0,0.3,0.1,0.6,0.1,0.9c0.6,11.2-7.9,20.8-19.1,21.4
		c-10,0.6-18.8-6.3-20.9-15.8c1.1,10.7,10.5,18.8,21.3,18.1C190.2,99.5,198.8,89.9,198.1,78.8z"/>
	<path class="st5" d="M189.5,84.1c0.3,4.4-3.1,8.1-7.5,8.4c-4.4,0.3-8.1-3.1-8.4-7.5c-0.3-4.4,3.1-8.1,7.5-8.4
		C185.4,76.4,189.2,79.8,189.5,84.1z"/>
	<path class="st6" d="M185.9,84.3c0.1,2.4-1.7,4.5-4.1,4.6c-2.4,0.1-4.5-1.7-4.6-4.1c-0.1-2.4,1.7-4.5,4.1-4.6
		C183.7,80,185.8,81.9,185.9,84.3z"/>
	<path class="st3" d="M186.9,81c0.1,1.4-1,2.6-2.3,2.6c-1.4,0.1-2.6-1-2.6-2.3c-0.1-1.4,1-2.6,2.3-2.6
		C185.7,78.6,186.8,79.6,186.9,81z"/>
</g>
<g>
	<path class="st3" d="M244.5,72.1c-11.7-3.4-16.5-6.4-25.6-7.5c-11.1-1.4-9.5,20.1-2.2,28.6s20.1,9.5,28.6,2.2
		S255.2,75.2,244.5,72.1z"/>
	<path class="st4" d="M211.8,78.7c0.1-1.1,0.2-2.2,0.5-3.3c0,0.3-0.1,0.6-0.1,0.9c-0.6,11.2,7.9,20.8,19.1,21.4
		c10,0.6,18.8-6.3,20.9-15.8c-1.1,10.7-10.5,18.8-21.3,18.1C219.7,99.5,211.2,89.9,211.8,78.7z"/>
	<path class="st5" d="M220.5,84.1c-0.3,4.4,3.1,8.1,7.5,8.4c4.4,0.3,8.1-3.1,8.4-7.5c0.3-4.4-3.1-8.1-7.5-8.4
		C224.5,76.4,220.7,79.8,220.5,84.1z"/>
	<path class="st6" d="M224,84.3c-0.1,2.4,1.7,4.5,4.1,4.6c2.4,0.1,4.5-1.7,4.6-4.1c0.1-2.4-1.7-4.5-4.1-4.6
		C226.2,80,224.2,81.9,224,84.3z"/>
	<path class="st3" d="M223,81c-0.1,1.4,1,2.6,2.3,2.6c1.4,0.1,2.6-1,2.6-2.3c0.1-1.4-1-2.6-2.3-2.6C224.2,78.5,223.1,79.6,223,81z"
		/>
</g>
<path class="st7" d="M190.3,121.1c4.2-1,30.3-7.3,33.8,0c0.2,0.5,0.4,1.1,0.4,1.7"/>
</svg>
