<?xml version="1.0" encoding="utf-8"?>
<!-- Generator: Adobe Illustrator 22.0.0, SVG Export Plug-In . SVG Version: 6.00 Build 0)  -->
<svg version="1.1" id="Layer_1" xmlns="http://www.w3.org/2000/svg" xmlns:xlink="http://www.w3.org/1999/xlink" x="0px" y="0px"
	 viewBox="0 0 600 600" style="enable-background:new 0 0 600 600;" xml:space="preserve">
<style type="text/css">
	.st0{fill:#F68F33;}
	.st1{opacity:0.5;fill:#F68F33;}
	.st2{fill:#FBB035;}
	.st3{fill:#FFD074;}
	.st4{fill:#AD561F;}
	.st5{fill:#5E2A00;}
	.st6{fill:#582D7A;}
	.st7{fill:#4C296B;}
	.st8{fill:#753B95;}
	.st9{fill:#663386;}
	.st10{fill:#FFFFFF;}
	.st11{fill:#E7E7E7;}
	.st12{fill:#B0D133;}
	.st13{fill:#5B6D13;}
	.st14{fill:#501627;}
	.st15{fill:#F56A82;}
</style>
<g>
	<path class="st0" d="M143.2,278.3v-21c0-58.6,45.1-126.8,103.2-126.8h15.3c58.1,0,103.2,68.2,103.2,126.8v21H427v-51.7
		c0-38.8-17.1-78.9-46.9-109.9C348.1,83.4,306.5,65,262.9,65h-17.7C201.6,65,160,83.4,128,116.7c-29.8,31-46.9,71.1-46.9,109.9v51.7
		H143.2z"/>
	<path class="st1" d="M380.1,116.7c-2.7-2.8-5.5-5.6-8.4-8.2c1.5,3.1,2.6,6.5,2.8,9.9c0.6,8.9-3.9,18.6-11.8,24.2
		c-7.3,5.2-16.3,5.2-24.7,2.1c-6-2.3-11-5.7-16.5-8.8c-6.2-3.5-12.8-6.4-19.6-8.8c-13.4-4.5-27.6-7-42-7.1
		c-25.8-0.3-52.2,5.8-73.4,19.3c-19.6,12.5-34.2,30.3-44.6,49.4c-7.2,13.4-10,29-21.2,40.6c-4.6,4.8-11,8.3-18.4,6.9
		c-8-1.5-14-6.1-17-12.8c-1.9-4.2-2.9-8.4-3.3-12.8c-0.6,5.4-1,10.7-1,16.1v51.7h62.1v-21c0-58.6,45.1-126.8,103.2-126.8h15.3
		c58.1,0,103.2,68.2,103.2,126.8v21H427v-51.7C427,187.8,409.9,147.8,380.1,116.7z"/>
	<rect x="364.9" y="259.8" class="st1" width="62.1" height="18.5"/>
	<rect x="81.1" y="259.8" class="st1" width="62.1" height="18.5"/>
	<path class="st0" d="M474.7,284.8c-1.4-3.1-3.7-6.2-6.7-8.2c-4.3-3-9.2-4.2-14.3-5.2H53c-5.4,0.8-10.6,2.3-14.4,5.5
		c-3.3,2.8-5.3,6-5.8,10c-0.1,0.6-0.1,1.4-0.2,2.1v76.4c0,292.8,443.5,300.1,443.5,0v-76.8C475.7,287.3,475.3,286.1,474.7,284.8z"/>
	<path class="st2" d="M465.5,289.3c-1.3-2.8-3.6-5.7-6.4-7.6c-4.1-2.8-8.8-3.9-13.7-4.8h-385c-5.2,0.7-10.2,2.1-13.9,5.1
		c-3.2,2.6-5.1,5.5-5.6,9.2c-0.1,0.6-0.1,1.3-0.2,2v70.7c0,271,426,277.8,426,0v-71C466.4,291.6,466.1,290.4,465.5,289.3z"/>
	<path class="st3" d="M447.5,294.1c-1.2-2.4-3.3-4.9-5.9-6.5c-3.8-2.4-8.1-3.3-12.6-4.1H74.3c-4.7,0.6-9.4,1.8-12.8,4.4
		c-2.9,2.2-4.7,4.7-5.2,7.9c-0.1,0.5-0.1,1.1-0.1,1.7v60.3c0,231.1,392.4,236.9,392.4,0v-60.6C448.3,296.1,448,295,447.5,294.1z"/>
	<path class="st4" d="M306.6,370.7c0-24.3-23.4-44-52.3-44c-28.9,0-52.3,19.7-52.3,44c0,18.6,13.7,34.5,33.1,40.9L197.4,512h109.1
		l-34.2-100.1C292.3,405.7,306.6,389.6,306.6,370.7z"/>
	<g>
		<path class="st4" d="M216.2,370.7c0-22.3,19.7-40.6,45.2-43.6c-2.3-0.3-4.7-0.4-7.1-0.4c-28.9,0-52.3,19.7-52.3,44
			c0,18.6,13.7,34.5,33.1,40.9L197.4,512h14.2l37.7-100.5C229.9,405.1,216.2,389.3,216.2,370.7z"/>
		<path class="st5" d="M306.6,370.7c0-22.3-19.7-40.6-45.2-43.6c-25.5,2.9-45.2,21.3-45.2,43.6c0,18.6,13.7,34.5,33.1,40.9
			L211.7,512h94.9l-34.2-100.1C292.3,405.7,306.6,389.6,306.6,370.7z"/>
	</g>
	<path class="st0" d="M88.8,205.9c0,0,26.4-140.3,190.2-134.9C279,71.1,133.6,80.6,88.8,205.9z"/>
	<path class="st0" d="M69.8,300.3c0,0-5.2,11.8,0.8,22.1c6,10.3,72.2-5,70.6-18.9C139.6,289.4,79.8,278.9,69.8,300.3z"/>
	<path class="st0" d="M68.2,350.1c0,0-2.6,10.5,0.4,19.7c3,9.2,35.9-4.4,35.1-16.9C102.9,340.4,73.1,331,68.2,350.1z"/>
</g>
<path class="st6" d="M353.8,442.3l-9-9.8c0,0-23.7,25.8-12.4,69.5c9.9,38.6,34.4,17.2,26.4-5.8C350.9,473.1,353.8,442.3,353.8,442.3
	z"/>
<path class="st7" d="M358.9,496.2c-8-23-5-53.9-5-53.9l-13.5-3.4c-4.5,14.8,10.2,44.3,12.1,52.6c1.9,8.3,4.3,16.9,0.9,23.9
	c-3.3,7-14.1,2.5-14.1,2.5C350.4,532.5,365.3,514.9,358.9,496.2z"/>
<path class="st7" d="M527.6,442.3l9-9.8c0,0,23.7,25.8,12.4,69.5c-9.9,38.6-34.4,17.2-26.4-5.8C530.6,473.1,527.6,442.3,527.6,442.3
	z"/>
<path class="st6" d="M522.6,496.2c-1.8,5.8-2,11.4-0.6,16.1c1.9,6.3,9.7,7.5,10.9,0c0.4-2.8,1.5-9.3,0.1-13.4
	C530.7,492,524.9,488.6,522.6,496.2z"/>
<path class="st6" d="M406.8,515.3c0,0-4.4,55.7-12.5,59.5c-8.1,3.8-5.2,6.2,14.3,6.2s23.3-1.9,24.2-18.1c1-16.2-4.9-42.1-4.9-42.1
	L406.8,515.3z"/>
<path class="st6" d="M486.1,574.8c-8.1-3.8-12.5-59.5-12.5-59.5l-21.1,5.6c0,0-5.9,25.9-4.9,42.1c0.9,16.2,4.7,18.1,24.2,18.1
	C491.3,581,494.1,578.6,486.1,574.8z"/>
<path class="st7" d="M428.8,558.9c-3.1,16.4-15.4,23.5-34,21.4c3,0.5,7.5,0.7,13.8,0.7c19.5,0,23.3-1.9,24.2-18.1
	c1-16.2-4.9-42.1-4.9-42.1l-21.1-5.6c0,0,3.4,3.4,10.8,6.6C425,525.2,431.9,542.5,428.8,558.9z"/>
<path class="st7" d="M474.2,548.2c1.4,16,12.3,33.5-9.5,32.7l0,0c2.1,0.1,4.5,0.1,7.1,0.1c19.5,0,22.3-2.4,14.3-6.2
	c-8.1-3.8-12.5-59.5-12.5-59.5l-21.1,5.6c0,0,5.8,1.9,10.7,1.9S472.8,532.2,474.2,548.2z"/>
<path class="st8" d="M537.1,397.9c3.5,4.6,8.8,7.3,8.8,7.3c-1.9-22.3-31.1-47.7-31.1-47.7c9.8,3.4,10,0.2,10,0.2
	c-28.5-28.8-61.6-27-61.6-27c3.4-0.3,5.7-4.5,5.7-4.5c-14.1-4.7-25.9,2.4-25.9,2.4s-14-3.7-19-10.7c0,0-4.4,8.9,3.8,13.3
	c0,0-17.1-7-39.3,3.2c0,0,6.3,4.4,13.3,4.4c0,0-31,0.6-54.5,35.5c0,0,4.8,1.3,9.6-1.7c-5.6,5.8-15.5,18.3-18.2,36c0,0,3.7-0.7,6.5-5
	c-3.4,8.5-9.3,29.1-1.1,56.8c0,0,2.5-0.2,3.1-12.2c0,0,6.8,45.5,32.4,64.9c0,0,3.1-5.7-0.6-14.3c0,0,16.7,15.7,18.6,26.1
	c0,0,3.7-6.4,1.1-13.2c0,0,14.1,10.2,43.5,10.2c29.5,0,46.3-11.6,46.3-11.6c-1.6,5.8,3.5,11.6,3.5,11.6c0.5-9.7,13.4-23.1,13.4-23.1
	c-4.9,4.5-0.6,13.8-0.6,13.8c9.2-7.9,15.7-23.2,18.6-31.3c-0.6,5.6,2.8,9.4,2.8,9.4c12.4-13.3,11.7-45.7,11.7-45.7
	c0.8,8,7.7,14.8,7.7,14.8C551.6,429.9,537.1,397.9,537.1,397.9z"/>
<path class="st9" d="M379.1,498.8c0,0,16.7,15.7,18.6,26.1c0,0,3.7-6.4,1.1-13.2c0,0,14.1,10.2,43.5,10.2
	c29.5,0,46.3-11.6,46.3-11.6c-1.6,5.8,3.5,11.6,3.5,11.6c0.5-9.7,13.4-23.1,13.4-23.1c-4.9,4.5-0.6,13.8-0.6,13.8
	c9.2-7.9,15.7-23.2,18.6-31.3c-0.6,5.6,2.8,9.4,2.8,9.4c12.4-13.3,11.7-45.7,11.7-45.7c0.8,8,7.7,14.8,7.7,14.8
	c5.7-29.9-8.8-61.9-8.8-61.9c3.5,4.6,8.8,7.3,8.8,7.3c-1.9-22.3-31.1-47.7-31.1-47.7c9.8,3.4,10,0.2,10,0.2
	c-28.5-28.8-61.6-27-61.6-27s3.4-0.4,7.6,4.3c4.2,4.7,9.2,11.2,19.5,14.7c10.3,3.4,35.9,16.5,43.4,37.8c0,0-6.1-1.9-8.9-5.6
	c0,0,22.6,45.5,5.9,88c0,0-4.1-4.3-3.3-10.2c0,0-17.5,50.5-77.9,55.6C400.9,519.5,379.1,498.8,379.1,498.8z"/>
<g>
	<g>
		
			<ellipse transform="matrix(0.1231 -0.9924 0.9924 0.1231 -35.8352 753.6798)" class="st10" cx="408.5" cy="397.1" rx="26.6" ry="26.6"/>
		<path class="st11" d="M435.1,395.6c-0.1-1.5-0.3-2.9-0.6-4.3c0,0.4,0.1,0.8,0.1,1.2c0.8,14.7-10.4,27.2-25,28.1
			c-13.2,0.8-24.7-8.2-27.5-20.7c1.5,14.1,13.7,24.6,28,23.8C424.7,422.8,435.9,410.3,435.1,395.6z"/>
		<path class="st12" d="M418,394c0.3,5.7-4.1,10.7-9.8,11c-5.7,0.3-10.7-4.1-11-9.8c-0.3-5.7,4.1-10.7,9.8-11
			C412.8,383.9,417.7,388.3,418,394z"/>
		<path class="st13" d="M413.4,394.3c0.2,3.2-2.2,5.9-5.4,6.1c-3.2,0.2-5.9-2.2-6.1-5.4c-0.2-3.2,2.2-5.9,5.4-6.1
			C410.5,388.7,413.2,391.1,413.4,394.3z"/>
		<path class="st10" d="M414.7,390c0.1,1.8-1.3,3.3-3.1,3.4c-1.8,0.1-3.3-1.3-3.4-3.1c-0.1-1.8,1.3-3.3,3.1-3.4
			C413.1,386.8,414.6,388.2,414.7,390z"/>
	</g>
	<g>
		<path class="st10" d="M508.9,395.6c0.8,14.7-10.4,27.2-25,28.1c-14.7,0.8-27.2-10.4-28.1-25c-0.8-14.7,10.4-27.2,25-28.1
			C495.5,369.7,508.1,380.9,508.9,395.6z"/>
		<path class="st11" d="M508.9,395.6c-0.1-1.5-0.3-2.9-0.6-4.3c0,0.4,0.1,0.8,0.1,1.2c0.8,14.7-10.4,27.2-25,28.1
			c-13.2,0.8-24.7-8.2-27.5-20.7c1.5,14.1,13.7,24.6,28,23.8C498.5,422.8,509.7,410.3,508.9,395.6z"/>
		<path class="st12" d="M491.8,394c0.3,5.7-4.1,10.7-9.8,11c-5.7,0.3-10.7-4.1-11-9.8c-0.3-5.7,4.1-10.7,9.8-11
			C486.6,383.9,491.5,388.3,491.8,394z"/>
		<path class="st13" d="M487.1,394.3c0.2,3.2-2.2,5.9-5.4,6.1c-3.2,0.2-5.9-2.2-6.1-5.4c-0.2-3.2,2.2-5.9,5.4-6.1
			C484.3,388.7,487,391.1,487.1,394.3z"/>
		<path class="st10" d="M488.5,390c0.1,1.8-1.3,3.3-3.1,3.4c-1.8,0.1-3.3-1.3-3.5-3.1c-0.1-1.8,1.3-3.3,3.1-3.4
			C486.9,386.8,488.4,388.2,488.5,390z"/>
	</g>
</g>
<g>
	<path class="st14" d="M428.7,450.5c0,0,24.6,6.2,37.2-12.8c12.6-19,39.2,17.2,5.1,37.2C436.9,494.9,415.5,472.6,428.7,450.5z"/>
	<path class="st15" d="M450,482.4c0,0-4.6-35.4,36.5-24.9C486.4,457.6,481,479.3,450,482.4z"/>
</g>
</svg>
