<?xml version="1.0" encoding="utf-8"?>
<!-- Generator: Adobe Illustrator 22.0.0, SVG Export Plug-In . SVG Version: 6.00 Build 0)  -->
<svg version="1.1" id="Layer_1" xmlns="http://www.w3.org/2000/svg" xmlns:xlink="http://www.w3.org/1999/xlink" x="0px" y="0px"
	 viewBox="0 0 800 600" style="enable-background:new 0 0 800 600;" xml:space="preserve">
<style type="text/css">
	.st0{fill:#D2B420;}
	.st1{fill:#C0A01D;}
	.st2{fill:#F3DB22;}
	.st3{fill:#E5C823;}
	.st4{fill:#FFFFFF;}
	.st5{fill:#E7E7E7;}
	.st6{fill:#66C1C6;}
	.st7{fill:#266363;}
	.st8{fill:#501627;}
	.st9{fill:#F56A82;}
	.st10{fill:#FFEFD1;}
	.st11{fill:#FFC85F;}
	.st12{fill:#950D0F;}
	.st13{fill:#77090A;}
	.st14{opacity:0.1;}
	.st15{fill:#FFFAE0;}
	.st16{fill:#D21819;}
	.st17{fill:#FFBB53;}
</style>
<path class="st0" d="M426.2,410.2l1.5-17.8c0,0-47.1,0.1-80.1,51.1c-29.1,45,14.3,49.8,29.8,20.8C393,435.5,426.2,410.2,426.2,410.2
	z"/>
<path class="st1" d="M421.3,393c0,0-16.6,29.7-34,44.3c-17.3,14.6-23.6,38.5-35.8,39.3c-12.1,0.7-12.9-13.5-12.9-13.5
	c-6,26,26.1,25.2,39,1.3c15.5-28.9,48.7-54.1,48.7-54.1l1.5-17.8L421.3,393z"/>
<g>
	<path class="st0" d="M488.2,496.6c0,0-41.6,62.5-53.5,61.7c-12-0.8-10.2,3.8,12.7,16.6c22.9,12.8,28.6,13.1,40.3-5.3
		c11.7-18.3,21.8-52.7,21.8-52.7L488.2,496.6z"/>
	<path class="st1" d="M485.4,562c-14.3,17.3-33.5,17.5-53.9,2.9c3.3,2.5,8.4,5.7,15.7,9.8c22.9,12.8,28.6,13.1,40.3-5.3
		c11.7-18.3,21.8-52.7,21.8-52.7l-21.2-20.3c0,0,1.8,6.2,8.4,14.9C503.1,520,499.8,544.9,485.4,562z"/>
</g>
<g>
	<path class="st0" d="M663.7,548.4c-11.8,2.3-60.9-54.4-60.9-54.4l-18.4,22.8c0,0,14.3,32.7,28.2,49.5c13.8,16.7,19.5,15.8,40.6,0.2
		C674.4,550.9,675.5,546.1,663.7,548.4z"/>
	<path class="st1" d="M629.5,529c14.3,16.1,40,26.5,15.8,43l0,0c2.4-1.6,5-3.4,7.9-5.5c21.1-15.5,22.3-20.3,10.5-18.1
		c-11.8,2.3-60.9-54.4-60.9-54.4l-18.5,22.8c0,0,7.8-2.5,13-6.4C602.7,506.4,615.3,512.8,629.5,529z"/>
</g>
<path class="st2" d="M692.5,463.3c-4.4-39.3-18.5-85-23.6-100.4c4.2,7.1,13.6,10.8,13.6,10.8c-2.8-47.8-23.5-93.6-23.5-93.6
	c5.4,11,17.4,13.1,17.4,13.1c-11.3-42.3-35.9-42.9-35.9-42.9c11.4-9.3,5.4-25.8,5.4-25.8c-8.3,18.2-34.4,18.9-34.4,18.9l-96.2-6.8
	c0,0-25.7-4.3-31.4-23.5c0,0-8.3,15.4,1.7,26.3c0,0-24.4-2.8-41.5,37.3c0,0,12.2-0.3,19.1-10.4c0,0-26.9,42.5-36.5,89.4
	c0,0,10-2.2,15-8.7c-7.2,14.5-27.6,57.8-37.5,96.1c0,0,7.9-0.5,13.5-6c-7.4,14.5-19.1,45.1-8.5,76.1c0,0,7.9-3.7,8.1-17
	c-0.1,5-0.3,13.3-0.3,13.3s7.3,16.5,23.5,20.2c0,0-2.8-7.2-4.8-16.9l0,0c4.2,1.8,8.7,3,13.5,3.4l188.1,13.4
	c4.8,0.3,9.5-0.3,13.9-1.5l0,0c-3.3,9.5-7.2,16.1-7.2,16.1c16.4-1.3,26.1-16.7,26.1-16.7s0.9-8.2,1.6-13.1c-1.6,13.1,5.6,18,5.6,18
	c14.8-29.2,7.6-61.1,2.3-76.6C684.7,461.7,692.5,463.3,692.5,463.3z"/>
<path class="st3" d="M436,512.4c4.2,1.8,8.7,3,13.5,3.4l188.1,13.4c4.8,0.3,9.5-0.3,13.9-1.5l0,0c-3.3,9.5-7.2,16.1-7.2,16.1
	c16.4-1.3,26.1-16.7,26.1-16.7s0.9-8.2,1.6-13.1c-1.6,13.1,5.6,18,5.6,18c14.8-29.2,7.6-61.1,2.3-76.6c4.8,6.3,12.5,7.9,12.5,7.9
	c-4.4-39.3-18.5-85-23.6-100.4c4.2,7.1,13.6,10.8,13.6,10.8c-2.8-47.7-23.4-93.5-23.4-93.5c5.4,11,17.4,13.1,17.4,13.1
	c-11.3-42.3-35.9-42.9-35.9-42.9c11.4-9.3,5.4-25.8,5.4-25.8c-8.3,18.2-34.4,18.9-34.4,18.9l-96.2-6.8c0,0,100.3,2.2,130.6,29.3
	c0,0-10.2,3.1-18.1,0c0,0,48.7,81.1,50.9,174.7c0,0-10.2-5.2-14.3-14.3c0,0,15.5,68.7-5.2,101.5c0,0-4.6-10.1-6.2-21.5
	C653.1,506.3,622.7,529,436,512.4z"/>
<g>
	<path class="st4" d="M640.7,356.3c-0.4,23.6-19.7,42.6-43.4,42.2s-42.6-19.7-42.2-43.4c0.4-23.6,19.7-42.6,43.4-42.2
		C622.1,313.2,641,332.6,640.7,356.3z"/>
	<path class="st5" d="M640.7,356.3c0.1-2.4-0.1-4.8-0.5-7c0,0.7,0.1,1.4,0,2c-0.4,23.6-19.7,42.6-43.4,42.2
		c-21.2-0.3-38.7-16-41.7-36.3c0.7,22.7,19.2,41.1,42.2,41.4C620.9,398.8,640.4,380,640.7,356.3z"/>
	<path class="st6" d="M616.6,354.3c-0.1,9.3-7.7,16.7-16.9,16.6c-9.3-0.1-16.7-7.7-16.6-16.9c0.1-9.3,7.7-16.7,16.9-16.6
		C609.3,337.5,616.6,345,616.6,354.3z"/>
	<path class="st7" d="M609.1,354.2c-0.1,5.1-4.3,9.2-9.4,9.1c-5.1-0.1-9.2-4.3-9.1-9.4c0.1-5.1,4.3-9.2,9.4-9.1
		C605.1,344.9,609.1,349.2,609.1,354.2z"/>
	<path class="st4" d="M611.7,347.4c0,2.9-2.5,5.2-5.3,5.2c-2.9,0-5.2-2.5-5.2-5.3c0-2.9,2.5-5.2,5.3-5.2
		C609.5,342.1,611.8,344.5,611.7,347.4z"/>
	<path class="st4" d="M547.8,349.6c-0.4,23.6-19.7,42.6-43.4,42.2c-23.6-0.4-42.6-19.7-42.2-43.4c0.4-23.6,19.7-42.6,43.4-42.2
		C529.3,306.7,548.1,326,547.8,349.6z"/>
	<path class="st5" d="M547.8,349.6c0.1-2.4-0.1-4.8-0.5-7c0,0.7,0.1,1.4,0,2c-0.4,23.6-19.7,42.6-43.4,42.2
		c-21.2-0.3-38.7-16-41.7-36.3c0.7,22.7,19.2,41.1,42.2,41.4C528.1,392.2,547.5,373.3,547.8,349.6z"/>
	<path class="st6" d="M523.7,347.8c-0.1,9.3-7.7,16.7-16.9,16.6s-16.7-7.7-16.6-16.9c0.1-9.3,7.7-16.7,16.9-16.6
		C516.3,331,523.8,338.5,523.7,347.8z"/>
	<path class="st7" d="M516.2,347.6c-0.1,5.1-4.3,9.2-9.4,9.1c-5.1-0.1-9.2-4.3-9.1-9.4c0.1-5.1,4.3-9.2,9.4-9.1
		C512.2,338.3,516.2,342.5,516.2,347.6z"/>
	<path class="st4" d="M518.9,340.8c0,2.9-2.5,5.2-5.3,5.2c-2.9,0-5.2-2.5-5.2-5.3c0-2.9,2.5-5.2,5.3-5.2
		C516.6,335.4,518.8,337.9,518.9,340.8z"/>
</g>
<g>
	<path class="st8" d="M540,454.4c16.1,1.4,27.1,0.1,31.3-4.1c4.2-4.1,18.2,3.1,8.6,16.9c-9.6,13.8-29.8,13.7-41.7,12.6
		c-12.1-1-40.5-15.5-33.5-29.5C511.8,436.2,525.7,453.2,540,454.4z"/>
	<path class="st9" d="M520.7,473.8c0,0,18.1-16,48.9,2.2C569.7,475.9,545.9,487.9,520.7,473.8z"/>
	<path class="st4" d="M522.5,447.8c0,0-1.2,9.3,0.7,10.3c1.8,1,2.9-3.1,2.9-3.1s13,5.6,32.8,4.1c0,0,0.1,3.1,1.5,3.4
		c1.5,0.3,4.3-9.1,4.3-9.1s-7,2.1-20.8,1.1C534,454,522.5,447.8,522.5,447.8z"/>
</g>
<g>
	<g>
		<g>
			<path class="st10" d="M752,322.8c1.4,0.4,3,0.4,4.5-0.1c4.1-1.3,6.4-5.7,5.1-9.8c-1.1-3.7-4.7-5.9-8.4-5.4c0.1-1.2,0-2.5-0.4-3.8
				c-1.6-5-6.9-7.7-11.8-6.2c-5,1.6-7.7,6.9-6.2,11.8c0.5,1.5,1.3,2.8,2.4,3.9c-2.6,2.3-3.7,6-2.6,9.6c1.5,4.8,6.6,7.5,11.5,6
				C749,327.9,751.1,325.6,752,322.8z"/>
		</g>
		<g>
			<path class="st11" d="M746,328.9c3-0.9,5.2-3.3,6-6.1c1.4,0.4,3,0.4,4.5-0.1c2.5-0.8,4.3-2.7,5-4.9c-1,0.9-2.3,1.6-3.7,2
				c-3,1-6.2,0.5-8.7-1.1c-1.2,2.7-3.5,4.9-6.5,5.9c-2.6,0.8-5.3,0.6-7.6-0.5C736.9,328.1,741.6,330.2,746,328.9z"/>
		</g>
	</g>
	<g>
		<g>
			<path class="st10" d="M727.2,310.9c0.7,0.1,1.4,0.2,2.2,0.2c4.8-0.3,8.5-4.4,8.2-9.2c-0.3-4.5-3.9-8-8.3-8.2
				c0.2-0.7,0.3-1.5,0.2-2.2c-0.2-3.9-3.6-6.9-7.6-6.7c-3.9,0.2-7,3.6-6.7,7.5c-2.6,0.5-4.5,2.9-4.4,5.6c0.2,2.8,2.3,4.9,5,5.1
				c-1.7,1.4-2.8,3.6-2.7,6c0.2,3.9,3.6,6.9,7.6,6.7C723.8,315.5,726.3,313.5,727.2,310.9z M720.3,301.4
				C720.2,301.4,720.2,301.4,720.3,301.4C720.2,301.4,720.2,301.3,720.3,301.4C720.3,301.3,720.3,301.4,720.3,301.4z"/>
		</g>
		<g>
			<g>
				<path class="st11" d="M720.9,315.6c3-0.2,5.4-2.1,6.4-4.8c0.7,0.1,1.4,0.2,2.2,0.2c4.8-0.3,8.5-4.4,8.2-9.2
					c-0.1-1.1-0.3-2.1-0.7-3c0,0.2,0,0.3,0,0.5c0.2,4.4-3.1,8.1-7.5,8.4c-1.7,0.1-3.4-0.4-4.7-1.2c0.2,4-2.9,7.4-6.9,7.6
					c-0.5,0-0.9,0-1.3,0c-0.1,0-0.3,0.1-0.4,0.1C717.4,315.2,719.1,315.7,720.9,315.6z"/>
			</g>
		</g>
	</g>
	<g>
		<g>
			<path class="st12" d="M790.2,351.8c0.7-3.9-2-7.7-5.9-8.3c-3.4-0.6-6.7,1.4-8,4.5c0.1-3.6-2.4-6.7-6-7.3c-3.9-0.7-7.7,2-8.3,5.9
				c0,0.1,0,0.1,0,0.2l0,0c0-0.1,0-0.2,0-0.2c0.7-3.9-2-7.5-5.9-8.1c-3.9-0.7-7.6,2-8.2,5.9c0,0,0,0.1,0,0.1l0,0c0-0.1,0-0.1,0-0.2
				c0.7-3.9-2-7.7-5.9-8.3c-3.9-0.7-7.7,2-8.3,5.9c0,0.1,0,0.1,0,0.2l0,0c0-0.1,0-0.1,0-0.1c0.7-3.9-2-7.6-5.9-8.2
				c-3.9-0.7-7.6,2-8.2,5.9c0,0,0,0.1,0,0.1l0,0c0-0.1,0-0.1,0-0.2c0.7-3.9-2-7.7-5.9-8.3c-3.9-0.7-7.7,2-8.3,5.9c0,0.1,0,0.1,0,0.2
				l0,0c0,0,0-0.1,0-0.1c0.7-3.9-2-7.6-5.9-8.2c-3.9-0.7-7.6,2-8.2,5.9c0,0,0,0,0,0.1l0,0c0-0.1,0-0.1,0-0.2c0.7-3.9-2-7.7-5.9-8.3
				s-7.7,2-8.3,5.9c0,0.1,0,0.1,0,0.2l0,0c0,0,0-0.1,0-0.1c0.7-3.9-2-7.6-5.9-8.2c-3.9-0.7-7.6,2-8.2,5.9
				c-0.1,0.5-12.6,123.3-15.3,150c0,0,0,0,0,0l-0.4,3.8c-0.1,0.8-0.1,1.3-0.1,1.3l12.1,2l0,0l12.1,2c0,0,0,0,0,0l11.8,2l0,0l12.1,2
				l0,0l12.1,2c0,0,0,0,0,0l12.1,2l0,0l12.1,2c0,0,0,0,0,0l12.1,2l0,0l11.8,2c0,0,0,0,0,0l0,0l0-0.1l0.1,0l21-90.5c0,0,0,0,0,0
				C783.6,380.5,790.2,352.1,790.2,351.8z"/>
		</g>
		<g>
			<polygon class="st13" points="755.6,503.3 745,510.3 780.1,358.8 790.1,352.7 			"/>
		</g>
	</g>
	<g>
		<g>
			<path class="st10" d="M754.5,330.7c0-1.7-0.4-3.5-1.4-5c-2.7-4.2-8.3-5.5-12.5-2.8c-3.8,2.4-5.2,7.1-3.5,11.1
				c-1.4,0.2-2.8,0.7-4.1,1.6c-5.1,3.3-6.6,10-3.4,15.2c3.3,5.1,10,6.6,15.2,3.4c1.6-1,2.8-2.3,3.7-3.8c3.4,2.2,7.9,2.4,11.5,0.1
				c5-3.2,6.4-9.7,3.3-14.7C761.2,332.5,757.9,330.8,754.5,330.7z"/>
		</g>
		<g>
			<path class="st11" d="M763.2,335.6c-2-3.1-5.3-4.8-8.7-4.9c0-1.7-0.4-3.5-1.4-5c-1.6-2.5-4.3-4-7-4.2c1.3,0.9,2.5,2.1,3.4,3.5
				c2,3.1,2.4,6.8,1.4,10.1c3.4,0.5,6.6,2.4,8.6,5.5c1.7,2.7,2.2,5.8,1.7,8.7C765.1,346,766.1,340.1,763.2,335.6z"/>
		</g>
	</g>
	<g>
		<g>
			<path class="st10" d="M711.9,357.6c1.6,0.7,3.3,1,5.2,0.8c5-0.7,8.4-5.3,7.7-10.2c-0.6-4.4-4.3-7.6-8.6-7.8
				c0.4-1.4,0.5-2.9,0.3-4.4c-0.9-6-6.4-10.2-12.4-9.3c-6,0.9-10.2,6.4-9.3,12.4c0.3,1.8,1,3.5,2,4.9c-3.4,2.2-5.4,6.2-4.8,10.5
				c0.8,5.8,6.2,9.9,12,9C707.4,362.9,710.4,360.6,711.9,357.6z"/>
		</g>
		<g>
			<path class="st11" d="M703.8,363.4c3.6-0.5,6.6-2.8,8.1-5.9c1.6,0.7,3.3,1,5.2,0.8c3-0.4,5.4-2.2,6.7-4.7
				c-1.4,0.8-2.9,1.4-4.6,1.7c-3.7,0.5-7.2-0.6-9.8-2.9c-1.9,2.9-4.9,5-8.6,5.5c-3.2,0.5-6.2-0.3-8.6-2
				C693.5,360.9,698.5,364.2,703.8,363.4z"/>
		</g>
	</g>
	<g>
		<g>
			<path class="st10" d="M685.9,323.7c0.4-0.9,0.7-1.8,0.8-2.8c1-6.2-3.2-12.1-9.4-13.2c-5.8-1-11.3,2.6-12.9,8.2
				c-0.9-0.4-1.8-0.8-2.8-0.9c-5.1-0.9-10,2.6-10.8,7.7c-0.9,5.1,2.6,9.9,7.7,10.8c-0.1,3.5,2.4,6.6,5.9,7.2c3.6,0.6,7-1.6,8-4.9
				c1.3,2.6,3.8,4.6,6.9,5.2c5.1,0.9,10-2.6,10.8-7.7C690.9,329.4,689.1,325.7,685.9,323.7z M671.7,329.9
				C671.7,329.9,671.7,329.9,671.7,329.9C671.7,329.9,671.7,329.9,671.7,329.9C671.7,329.9,671.7,329.9,671.7,329.9z"/>
		</g>
		<g>
			<g>
				<path class="st11" d="M690.2,333.3c0.6-3.9-1.2-7.6-4.3-9.5c0.4-0.9,0.7-1.8,0.8-2.8c1-6.2-3.2-12.1-9.4-13.2
					c-1.4-0.2-2.7-0.2-4,0c0.2,0,0.4,0.1,0.7,0.1c5.7,1,9.5,6.3,8.5,12c-0.4,2.3-1.5,4.2-3,5.7c5.2,1,8.6,5.9,7.7,11.1
					c-0.1,0.6-0.3,1.2-0.5,1.7c0,0.2,0,0.4,0,0.6C688.6,337.6,689.8,335.6,690.2,333.3z"/>
			</g>
		</g>
	</g>
	<g>
		<g>
			<path class="st10" d="M734.1,329.5c0.4-0.9,0.7-1.8,0.8-2.8c1-6.2-3.2-12.1-9.4-13.2c-5.8-1-11.3,2.6-12.9,8.2
				c-0.9-0.4-1.8-0.8-2.8-0.9c-5.1-0.9-10,2.6-10.8,7.7c-0.9,5.1,2.6,9.9,7.7,10.8c-0.1,3.5,2.4,6.6,5.9,7.2c3.6,0.6,7-1.6,8-4.9
				c1.3,2.6,3.8,4.6,6.9,5.2c5.1,0.9,10-2.6,10.8-7.7C739,335.2,737.2,331.5,734.1,329.5z M719.9,335.7
				C719.9,335.7,719.9,335.7,719.9,335.7C719.9,335.7,719.9,335.7,719.9,335.7C719.9,335.7,719.9,335.7,719.9,335.7z"/>
		</g>
		<g>
			<g>
				<path class="st11" d="M738.4,339.1c0.6-3.9-1.2-7.6-4.3-9.5c0.4-0.9,0.7-1.8,0.8-2.8c1-6.2-3.2-12.1-9.4-13.2
					c-1.4-0.2-2.7-0.2-4,0c0.2,0,0.4,0.1,0.7,0.1c5.7,1,9.5,6.3,8.5,12c-0.4,2.3-1.5,4.2-3,5.7c5.2,1,8.6,5.9,7.7,11.1
					c-0.1,0.6-0.3,1.2-0.5,1.7c0,0.2,0,0.4,0,0.6C736.8,343.4,738,341.4,738.4,339.1z"/>
			</g>
		</g>
	</g>
	<g>
		<g>
			<path class="st10" d="M710.3,306.2c0.5-0.7,1-1.4,1.3-2.2c2.3-5.2,0-11.2-5.1-13.5c-4.8-2.2-10.4-0.3-13,4.2
				c-0.6-0.6-1.4-1.1-2.2-1.4c-4.2-1.9-9.2,0-11.1,4.2c-1.9,4.2,0,9.2,4.2,11.1c-0.9,3,0.6,6.3,3.5,7.6c3,1.3,6.4,0.2,8-2.5
				c0.5,2.6,2.2,4.9,4.8,6c4.2,1.9,9.2,0,11.1-4.2C713.3,312.2,712.5,308.6,710.3,306.2z M696.6,308.3
				C696.6,308.3,696.6,308.3,696.6,308.3C696.6,308.3,696.6,308.3,696.6,308.3C696.6,308.3,696.6,308.3,696.6,308.3z"/>
		</g>
		<g>
			<g>
				<path class="st11" d="M711.8,315.4c1.4-3.2,0.7-6.8-1.6-9.2c0.5-0.7,1-1.4,1.3-2.2c2.3-5.2,0-11.2-5.1-13.5
					c-1.1-0.5-2.3-0.8-3.5-0.9c0.2,0.1,0.4,0.1,0.5,0.2c4.7,2.1,6.8,7.6,4.7,12.3c-0.8,1.9-2.2,3.3-3.9,4.3c4.2,2,6.1,7,4.2,11.3
					c-0.2,0.5-0.5,0.9-0.8,1.4c0,0.2-0.1,0.3-0.1,0.5C709.5,318.8,711,317.3,711.8,315.4z"/>
			</g>
		</g>
	</g>
	<g>
		<g>
			<path class="st10" d="M780.9,339.8c-0.2-2-1.2-3.9-2.8-5.3c-3.3-2.7-8.3-2.2-11,1.1c-1.8,2.2-2.2,5.1-1.3,7.6
				c-2,0.6-3.8,1.8-5.1,3.5c-3.8,4.7-3.1,11.6,1.6,15.5c4.7,3.8,11.6,3.1,15.5-1.6c0.8-1,1.4-2.1,1.8-3.2c3.8,1.7,8.4,0.7,11.1-2.6
				c3.3-4,2.7-9.9-1.4-13.2C786.8,339.6,783.7,339,780.9,339.8z"/>
		</g>
		<g>
			<path class="st11" d="M780.9,339.8c-0.2-2-1.2-3.9-2.8-5.3c-2.4-2-5.7-2.3-8.3-1c2-0.2,4.1,0.4,5.8,1.8c2.6,2.1,3.6,5.6,2.7,8.6
				c2.7-1.1,5.9-0.8,8.3,1.2c3.5,2.8,4,8,1.2,11.5c-0.3,0.4-0.6,0.7-1,1c1.5-0.6,2.9-1.5,3.9-2.8c3.3-4,2.7-9.9-1.4-13.2
				C786.8,339.6,783.7,339,780.9,339.8z"/>
		</g>
	</g>
	<g>
		<g>
			<path class="st10" d="M698.1,347.7c1.6,0.7,3.3,1,5.2,0.8c5-0.7,8.4-5.3,7.7-10.2c-0.6-4.4-4.3-7.6-8.6-7.8
				c0.4-1.4,0.5-2.9,0.3-4.4c-0.9-6-6.4-10.2-12.4-9.3c-6,0.9-10.2,6.4-9.3,12.4c0.3,1.8,1,3.5,2,4.9c-3.4,2.2-5.4,6.2-4.8,10.5
				c0.8,5.8,6.2,9.9,12,9C693.7,353,696.6,350.7,698.1,347.7z"/>
		</g>
		<g>
			<path class="st11" d="M690.1,353.5c3.6-0.5,6.6-2.8,8.1-5.9c1.6,0.7,3.3,1,5.2,0.8c3-0.4,5.4-2.2,6.7-4.7
				c-1.4,0.8-2.9,1.4-4.6,1.7c-3.7,0.5-7.2-0.6-9.8-2.9c-1.9,2.9-4.9,5-8.6,5.5c-3.2,0.5-6.2-0.3-8.6-2
				C679.8,351,684.8,354.3,690.1,353.5z"/>
		</g>
	</g>
	<g class="st14">
		<g>
			<path d="M782,356.6c0.7-3.9-2-7.7-5.9-8.3c-3.4-0.6-6.7,1.4-8,4.5c0.1-3.6-2.4-6.7-6-7.3c-3.9-0.7-7.7,2-8.3,5.9
				c0,0.1,0,0.1,0,0.2l0,0c0-0.1,0-0.2,0-0.2c0.7-3.9-2-7.5-5.9-8.1c-3.9-0.7-7.6,2-8.2,5.9c0,0,0,0.1,0,0.1l0,0c0-0.1,0-0.1,0-0.2
				c0.7-3.9-2-7.7-5.9-8.3c-3.9-0.7-7.7,2-8.3,5.9c0,0.1,0,0.1,0,0.2l0,0c0-0.1,0-0.1,0-0.1c0.7-3.9-2-7.6-5.9-8.2
				c-3.9-0.7-7.6,2-8.2,5.9c0,0,0,0.1,0,0.1l0,0c0-0.1,0-0.1,0-0.2c0.7-3.9-2-7.7-5.9-8.3c-3.9-0.7-7.7,2-8.3,5.9c0,0.1,0,0.1,0,0.2
				l0,0c0,0,0-0.1,0-0.1c0.7-3.9-2-7.6-5.9-8.2c-3.9-0.7-7.6,2-8.2,5.9c0,0,0,0,0,0.1l0,0c0-0.1,0-0.1,0-0.2c0.7-3.9-2-7.7-5.9-8.3
				c-3.9-0.7-7.7,2-8.3,5.9c0,0.1,0,0.1,0,0.2l0,0c0,0,0-0.1,0-0.1c0.7-3.9-2-7.6-5.9-8.2s-7.6,2-8.2,5.9
				c-0.1,0.5-12.6,123.4-15.3,150c0,0,0,0,0,0l-0.4,3.8c-0.1,0.8-0.1,1.3-0.1,1.3l12.1,2l0,0l12.1,2c0,0,0,0,0,0l11.8,2l0,0l12.1,2
				l0,0l12.1,2c0,0,0,0,0,0l12.1,2l0,0l12.1,2c0,0,0,0,0,0l12.1,2l0,0l11.8,2c0,0,0,0,0,0l0,0l0-0.1l0.1,0l21-90.5c0,0,0,0,0,0
				C775.4,385.4,782,356.9,782,356.6z"/>
		</g>
	</g>
	<g>
		<g>
			<path class="st15" d="M766,356.2c0-0.1,0-0.1,0-0.2c0.7-3.9-2-7.7-5.9-8.3c-3.9-0.7-7.7,2-8.3,5.9c0,0.1,0,0.1,0,0.2l-14.1-2.4
				c0-0.1,0-0.1,0-0.2c0.7-3.9-2-7.7-5.9-8.3c-3.9-0.7-7.7,2-8.3,5.9c0,0.1,0,0.1,0,0.2l-14.1-2.4c0-0.1,0-0.1,0-0.2
				c0.7-3.9-2-7.7-5.9-8.3c-3.9-0.7-7.7,2-8.3,5.9c0,0.1,0,0.1,0,0.2l-14.1-2.4c0-0.1,0-0.1,0-0.2c0.7-3.9-2-7.7-5.9-8.3
				c-3.9-0.7-7.7,2-8.3,5.9c0,0.1,0,0.1,0,0.2l-13.9-2.3l-15.8,155l107.9,18.1L780,358.6L766,356.2z"/>
		</g>
		<g>
			<g>
				<path class="st16" d="M666.6,339.6c0-0.1,0-0.1,0-0.2c0.7-3.9-2-7.6-5.9-8.2c-3.9-0.7-7.6,2-8.2,5.9
					c-0.1,0.6-15.9,155.1-15.9,155.1l12.1,2L666.6,339.6z"/>
			</g>
			<g>
				<path class="st16" d="M695,344.4c0-0.1,0-0.1,0-0.2c0.7-3.9-2-7.6-5.9-8.2c-3.9-0.7-7.6,2-8.2,5.9
					c-0.1,0.5-20.1,154.4-20.1,154.4l11.8,2L695,344.4z"/>
			</g>
			<g>
				<path class="st16" d="M717.6,340.7c-3.9-0.7-7.6,2-8.2,5.9c0,0.1,0,0.1,0,0.2l-24.5,153.4l12.1,2c0,0,26.5-152.9,26.6-153.3
					C724.1,345.1,721.4,341.4,717.6,340.7z"/>
			</g>
			<g>
				<path class="st16" d="M745.9,345.5c-3.9-0.7-7.6,2-8.2,5.9c0,0.1,0,0.1,0,0.2l-28.8,152.7l12.1,2c0,0,30.8-152.2,30.8-152.7
					C752.4,349.7,749.8,346.2,745.9,345.5z"/>
			</g>
			<g>
				<path class="st16" d="M780.1,358.8c0.7-3.9-2-7.7-5.9-8.3c-3.9-0.7-7.6,1.9-8.3,5.8l-32.8,152l11.8,2
					C744.8,510.3,780,359.4,780.1,358.8z"/>
			</g>
		</g>
		<g class="st14">
			<g>
				<ellipse transform="matrix(0.1658 -0.9862 0.9862 0.1658 169.9986 1047.1318)" cx="703.9" cy="423.1" rx="32.5" ry="45.2"/>
			</g>
		</g>
		<g>
			
				<ellipse transform="matrix(0.1658 -0.9862 0.9862 0.1658 172.0857 1045.489)" class="st17" cx="704" cy="421" rx="32.5" ry="45.2"/>
		</g>
		<g class="st14">
			<g>
				<path d="M765.9,419.7c0,0-37.4,68.8-128.7,67.3l-0.5,5L745,510.3L765.9,419.7z"/>
			</g>
		</g>
	</g>
	<g>
		<g>
			<path class="st10" d="M765.2,333.9c0.1,1.5,0.6,3,1.5,4.2c2.5,3.5,7.4,4.2,10.9,1.7c3.1-2.3,4-6.4,2.4-9.7
				c1.2-0.3,2.4-0.8,3.5-1.6c4.2-3.1,5.1-9,2-13.2c-3.1-4.2-9-5.1-13.2-2c-1.3,0.9-2.3,2.2-2.9,3.5c-3-1.7-6.9-1.6-9.9,0.6
				c-4.1,3-5,8.7-2,12.8C759.4,332.7,762.3,334,765.2,333.9z"/>
		</g>
		<g>
			<path class="st11" d="M757.5,330.1c1.9,2.6,4.8,3.9,7.7,3.8c0.1,1.5,0.6,3,1.5,4.2c1.5,2.1,3.9,3.2,6.3,3.2
				c-1.2-0.7-2.3-1.7-3.1-2.8c-1.9-2.6-2.4-5.7-1.8-8.6c-3-0.2-5.8-1.7-7.7-4.3c-1.6-2.2-2.3-4.9-2-7.4
				C755.3,321.3,754.8,326.4,757.5,330.1z"/>
		</g>
	</g>
	<g>
		<g>
			<path class="st10" d="M758.2,296.6c0.2,1.3,0.7,2.6,1.6,3.6c2.5,2.9,6.8,3.2,9.7,0.8c2.6-2.2,3.1-5.9,1.5-8.7
				c1-0.3,2-0.9,2.9-1.6c3.5-3,3.9-8.2,0.9-11.7c-3-3.5-8.2-3.9-11.7-0.9c-1.1,0.9-1.8,2-2.3,3.3c-2.8-1.3-6.2-1-8.7,1.2
				c-3.4,2.9-3.8,8-0.9,11.4C752.9,295.9,755.6,296.9,758.2,296.6z"/>
		</g>
		<g>
			<path class="st11" d="M751.1,293.8c1.8,2.1,4.5,3.1,7,2.8c0.2,1.3,0.7,2.6,1.6,3.6c1.5,1.7,3.6,2.5,5.7,2.4
				c-1.1-0.5-2.1-1.3-2.9-2.3c-1.8-2.1-2.5-4.9-2.1-7.5c-2.6,0-5.2-1.1-7-3.3c-1.6-1.8-2.3-4.1-2.2-6.3
				C748.6,286.2,748.5,290.7,751.1,293.8z"/>
		</g>
	</g>
	<g>
		<g>
			<path class="st10" d="M687.3,282.3c0.7,0.1,1.4,0.2,2.2,0.2c4.8-0.3,8.5-4.4,8.2-9.2c-0.3-4.5-3.9-8-8.3-8.2
				c0.2-0.7,0.3-1.5,0.2-2.2c-0.2-3.9-3.6-6.9-7.6-6.7c-3.9,0.2-7,3.6-6.7,7.5c-2.6,0.5-4.5,2.9-4.4,5.6c0.2,2.8,2.3,4.9,5,5.1
				c-1.7,1.4-2.8,3.6-2.7,6c0.2,3.9,3.6,6.9,7.6,6.7C683.9,286.9,686.4,285,687.3,282.3z M680.3,272.8
				C680.3,272.8,680.3,272.8,680.3,272.8C680.3,272.8,680.3,272.8,680.3,272.8C680.3,272.8,680.3,272.8,680.3,272.8z"/>
		</g>
		<g>
			<g>
				<path class="st11" d="M680.9,287.1c3-0.2,5.4-2.1,6.4-4.8c0.7,0.1,1.4,0.2,2.2,0.2c4.8-0.3,8.5-4.4,8.2-9.2
					c-0.1-1.1-0.3-2.1-0.7-3c0,0.2,0,0.3,0,0.5c0.2,4.4-3.1,8.1-7.5,8.4c-1.7,0.1-3.4-0.4-4.7-1.2c0.2,4-2.9,7.4-6.9,7.6
					c-0.5,0-0.9,0-1.3,0c-0.1,0-0.3,0.1-0.4,0.1C677.4,286.6,679.1,287.2,680.9,287.1z"/>
			</g>
		</g>
	</g>
</g>
<g>
	<path class="st0" d="M768.2,438.4l7.4-0.3c0,0,0.9,26.8-19.8,43.9c-18.2,15.1-21-9.8-9.3-17.7C758.3,456.6,768.2,438.4,768.2,438.4
		z"/>
	<path class="st1" d="M769.8,456.7c3.3-15.7-3-15.9-3-15.9l1.4-2.5l7.4-0.3c0,0,0.9,26.8-19.8,43.9
		C755.8,482.1,766.5,472.4,769.8,456.7z"/>
</g>
</svg>
