<?xml version="1.0" encoding="utf-8"?>
<!-- Generator: Adobe Illustrator 22.0.0, SVG Export Plug-In . SVG Version: 6.00 Build 0)  -->
<svg version="1.1" id="Layer_1" xmlns="http://www.w3.org/2000/svg" xmlns:xlink="http://www.w3.org/1999/xlink" x="0px" y="0px"
	 viewBox="0 0 493 600" style="enable-background:new 0 0 493 600;" xml:space="preserve">
<style type="text/css">
	.st0{fill:#582D7A;}
	.st1{fill:#4C296B;}
	.st2{fill:#753B95;}
	.st3{fill:#663386;}
	.st4{fill:#FFFFFF;}
	.st5{fill:#E7E7E7;}
	.st6{fill:#B0D133;}
	.st7{fill:#5B6D13;}
	.st8{fill:#501627;}
	.st9{fill:#F56A82;}
</style>
<path class="st0" d="M435.5,260.3l19.6,31.5c0,0,51.9-82.9,27.2-223.3C460.6-55.8,407,13,424.5,87.1
	C442,161.1,435.5,260.3,435.5,260.3z"/>
<path class="st1" d="M424.5,87.1c17.5,74.1,11,173.2,11,173.2l29.6,11c9.7-47.6-22.2-142.4-26.4-169.1c-4.2-26.7-9.4-54.2-2.1-76.7
	c7.3-22.5,30.8-7.9,30.8-7.9C443-29.8,410.3,26.9,424.5,87.1z"/>
<path class="st1" d="M55,260.3l-19.6,31.5c0,0-51.9-82.9-27.2-223.3C29.9-55.8,83.5,13,66,87.1C48.5,161.1,55,260.3,55,260.3z"/>
<path class="st0" d="M66,87.1c4-18.7,4.4-36.7,1.4-51.6c-4.1-20.2-21.2-24-23.8,0c-1,9-3.3,29.9-0.3,43.1
	C48.3,100.5,60.9,111.4,66,87.1z"/>
<path class="st0" d="M172.2,463.2c0,0-9.6,122-27.3,130.3c-17.7,8.3-11.4,13.5,31.2,13.5s51-4.2,53-39.5
	c2.1-35.4-10.8-92.1-10.8-92.1L172.2,463.2z"/>
<path class="st0" d="M345.6,593.5c-17.7-8.3-27.3-130.3-27.3-130.3l-46.2,12.2c0,0-12.8,56.7-10.8,92.1c2.1,35.4,10.4,39.5,53,39.5
	C357.1,607,363.3,601.8,345.6,593.5z"/>
<path class="st1" d="M220.3,558.7c-6.8,35.9-33.8,51.5-74.4,46.8c6.6,1,16.5,1.5,30.2,1.5c42.6,0,51-4.2,53-39.5
	c2.1-35.4-10.8-92.1-10.8-92.1l-46.2-12.2c0,0,7.5,7.4,23.7,14.5C212,484.8,227.1,522.8,220.3,558.7z"/>
<path class="st1" d="M319.6,535.1c3.1,35,27,73.4-20.8,71.6l0,0c4.6,0.2,9.8,0.3,15.6,0.3c42.6,0,48.9-5.2,31.2-13.5
	c-17.7-8.3-27.3-130.3-27.3-130.3l-46.2,12.2c0,0,12.7,4.2,23.3,4.2S316.5,500.1,319.6,535.1z"/>
<path class="st2" d="M457.3,206.2c7.7,10,19.3,16,19.3,16c-4.2-48.9-68.1-104.4-68.1-104.4c21.4,7.3,21.8,0.5,21.8,0.5
	C368,55.2,295.5,59.1,295.5,59.1c7.4-0.6,12.5-9.9,12.5-9.9c-30.9-10.2-56.6,5.3-56.6,5.3s-30.6-8.1-41.7-23.4
	c0,0-9.7,19.4,8.3,29.1c0,0-37.4-15.3-86,6.9c0,0,13.9,9.7,29.1,9.7c0,0-67.9,1.4-119.3,77.7c0,0,10.4,2.9,21-3.8
	c-12.3,12.8-33.9,40-39.7,78.7c0,0,8.2-1.5,14.3-10.9c-7.4,18.5-20.3,63.7-2.5,124.3c0,0,5.4-0.4,6.7-26.7c0,0,14.8,99.5,71,142.2
	c0,0,6.9-12.5-1.3-31.2c0,0,36.6,34.3,40.8,57.2c0,0,8-14,2.5-28.8c0,0,30.8,22.2,95.3,22.2c64.5,0,101.5-25.4,101.5-25.4
	c-3.6,12.7,7.8,25.4,7.8,25.4c1-21.1,29.3-50.6,29.3-50.6c-10.8,9.7-1.3,30.2-1.3,30.2c20.2-17.2,34.3-50.9,40.7-68.4
	c-1.4,12.2,6.2,20.6,6.2,20.6c27.1-29.1,25.7-100,25.7-100c1.8,17.6,16.9,32.4,16.9,32.4C489.1,276.3,457.3,206.2,457.3,206.2z"/>
<path class="st3" d="M111.4,427.1c0,0,36.6,34.3,40.8,57.2c0,0,8-14,2.5-28.8c0,0,30.8,22.2,95.3,22.2c64.5,0,101.5-25.4,101.5-25.4
	c-3.6,12.7,7.8,25.4,7.8,25.4c1-21.1,29.3-50.6,29.3-50.6c-10.8,9.7-1.3,30.2-1.3,30.2c20.2-17.2,34.3-50.9,40.7-68.4
	c-1.4,12.2,6.2,20.6,6.2,20.6c27.1-29.1,25.7-100,25.7-100c1.8,17.6,16.9,32.4,16.9,32.4c12.5-65.5-19.3-135.6-19.3-135.6
	c7.7,10,19.3,16,19.3,16c-4.2-48.9-68.1-104.4-68.1-104.4c21.4,7.3,21.8,0.5,21.8,0.5C368,55.2,295.5,59.1,295.5,59.1
	s7.5-0.8,16.6,9.4c9.1,10.3,20.2,24.6,42.8,32.1c22.6,7.5,78.6,36.1,94.9,82.7c0,0-13.3-4.1-19.4-12.2c0,0,49.5,99.7,12.9,192.6
	c0,0-9-9.5-7.2-22.4c0,0-38.3,110.5-170.6,121.8C159.1,472.3,111.4,427.1,111.4,427.1z"/>
<g>
	<g>
		
			<ellipse transform="matrix(0.1231 -0.9924 0.9924 0.1231 -48.6021 353.8508)" class="st4" cx="175.9" cy="204.4" rx="58.2" ry="58.2"/>
		<path class="st5" d="M234.1,201.1c-0.2-3.2-0.6-6.4-1.3-9.5c0.1,0.9,0.2,1.8,0.2,2.7c1.8,32.1-22.7,59.6-54.8,61.5
			c-28.9,1.7-54-18-60.1-45.4c3.2,30.8,30,53.9,61.3,52.1C211.4,260.7,235.9,233.2,234.1,201.1z"/>
		<path class="st6" d="M196.6,197.7c0.7,12.6-8.9,23.3-21.5,24.1c-12.6,0.7-23.3-8.9-24.1-21.5c-0.7-12.6,8.9-23.3,21.4-24.1
			C185.2,175.5,195.9,185.1,196.6,197.7z"/>
		<path class="st7" d="M186.4,198.3c0.4,6.9-4.9,12.9-11.8,13.3s-12.9-4.9-13.3-11.8c-0.4-6.9,4.9-12.9,11.8-13.3
			C180.1,186.1,186,191.4,186.4,198.3z"/>
		<path class="st4" d="M189.5,188.8c0.2,3.9-2.8,7.3-6.7,7.6c-3.9,0.2-7.3-2.8-7.6-6.7c-0.2-3.9,2.8-7.3,6.7-7.6
			C185.9,181.8,189.2,184.8,189.5,188.8z"/>
	</g>
	<g>
		<path class="st4" d="M395.6,201.1c1.8,32.1-22.7,59.6-54.8,61.5c-32.1,1.8-59.6-22.7-61.5-54.8c-1.8-32.1,22.7-59.6,54.8-61.5
			C366.3,144.4,393.8,169,395.6,201.1z"/>
		<path class="st5" d="M395.6,201.1c-0.2-3.2-0.6-6.4-1.3-9.5c0.1,0.9,0.2,1.8,0.2,2.7c1.8,32.1-22.7,59.6-54.8,61.5
			c-28.9,1.7-54-18-60.1-45.4c3.2,30.8,30,53.9,61.3,52.1C372.9,260.7,397.5,233.2,395.6,201.1z"/>
		<path class="st6" d="M358.2,197.7c0.7,12.6-8.9,23.3-21.5,24.1c-12.6,0.7-23.3-8.9-24.1-21.5c-0.7-12.6,8.9-23.3,21.5-24.1
			C346.7,175.5,357.5,185.1,358.2,197.7z"/>
		<path class="st7" d="M348,198.3c0.4,6.9-4.9,12.9-11.8,13.3c-6.9,0.4-12.9-4.9-13.3-11.8c-0.4-6.9,4.9-12.9,11.8-13.3
			C341.7,186.1,347.6,191.4,348,198.3z"/>
		<path class="st4" d="M351,188.8c0.2,3.9-2.8,7.3-6.7,7.6c-3.9,0.2-7.3-2.8-7.6-6.7c-0.2-3.9,2.8-7.3,6.7-7.6
			C347.4,181.8,350.8,184.8,351,188.8z"/>
	</g>
</g>
<g>
	<path class="st8" d="M219.9,321.4c0,0,53.9,13.5,81.4-28.1c27.5-41.6,85.7,37.7,11.2,81.4C238.1,418.4,191.1,369.8,219.9,321.4z"/>
	<path class="st9" d="M266.6,391.2c0,0-10.2-77.5,79.8-54.5C346.4,336.8,334.6,384.3,266.6,391.2z"/>
</g>
</svg>
