<?xml version="1.0" encoding="utf-8"?>
<!-- Generator: Adobe Illustrator 22.0.0, SVG Export Plug-In . SVG Version: 6.00 Build 0)  -->
<svg version="1.1" id="Layer_1" xmlns="http://www.w3.org/2000/svg" xmlns:xlink="http://www.w3.org/1999/xlink" x="0px" y="0px"
	 viewBox="0 0 600 600" style="enable-background:new 0 0 600 600;" xml:space="preserve">
<style type="text/css">
	.st0{fill:#6EC7DC;}
	.st1{fill:#004587;}
</style>
<g>
	<g>
		<g>
			<path class="st0" d="M569.6,483.3c-23.2-39.7-232-410-259.2-456.7c-25.8-44.3-71.6-24.8-71.6,36.3v94.3
				c21.4-30.4,55.8-13.7,55.8,34.3v359.6c0,2.2,0,4.4-0.2,6.4c1.8,0,3.4,0,5.2,0H533C584.4,557.5,594.2,525.7,569.6,483.3"/>
		</g>
	</g>
	<g>
		<g>
			<path class="st1" d="M238.9,157.2c-1,1.4-2,2.8-2.8,4.4C213.9,200,43,502.9,24,535.6c-20.2,34.7-12.1,60.7,30,60.7h190.9
				c29.8,0,47.8-5,49.6-38.7c0.2-2,0.2-4.2,0.2-6.4V191.5C294.5,143.5,260.3,126.8,238.9,157.2"/>
		</g>
	</g>
</g>
</svg>
