<?xml version="1.0" encoding="utf-8"?>
<!-- Generator: Adobe Illustrator 22.0.0, SVG Export Plug-In . SVG Version: 6.00 Build 0)  -->
<svg version="1.1" id="Layer_1" xmlns="http://www.w3.org/2000/svg" xmlns:xlink="http://www.w3.org/1999/xlink" x="0px" y="0px"
	 viewBox="0 0 414.5 210.7" style="enable-background:new 0 0 414.5 210.7;" xml:space="preserve">
<style type="text/css">
	.st0{fill:#357C18;}
	.st1{opacity:0.6;fill:url(#SVGID_1_);enable-background:new    ;}
	.st2{opacity:0.8;fill:url(#SVGID_2_);enable-background:new    ;}
	.st3{opacity:0.4;fill:url(#SVGID_3_);enable-background:new    ;}
	.st4{opacity:0.8;fill:url(#SVGID_4_);enable-background:new    ;}
	.st5{opacity:0.72;fill:url(#SVGID_5_);enable-background:new    ;}
	.st6{opacity:0.48;fill:url(#SVGID_6_);enable-background:new    ;}
	.st7{opacity:0.6;fill:url(#SVGID_7_);enable-background:new    ;}
	.st8{fill:#349917;}
	.st9{fill:#7C542C;}
</style>
<path class="st0" d="M223.1,77.9c-1.7-0.9-7.2,0.9-8.6,3c-1.4,2.2-1.6,4.3-0.9,13.2c0.7,8.9,1.7,24.3,0,30c-1.7,5.9-9,4.7-9,4.7
	s3.9-85.6,3.9-93.7c0-8.1-1.8-16.1-5.6-15.1c-3.9,0.9-11.9,8.6-12.8,12.8c-0.9,4.2-0.9,16.7-0.3,27c0.7,10.4,2.9,58.1,2.9,58.1
	s-7.8-1.4-9.5-3.3c-1-1.3-2.7-3.5-1.8-9.5c0.9-6,2.9-23,2.9-27.1c0-4.2-3.1-11.9-7.3-11c-4.2,0.9-7.2,5.1-7.4,11
	c-0.3,6,1.6,31.2,3,35.2c1.7,5,8.1,8.1,20.2,8.7l2.1,50.5h8.1l2.3-39.4c19.1,0,20.7-23.6,21.7-34.8
	C227.7,87.3,224.8,78.8,223.1,77.9z"/>
<linearGradient id="SVGID_1_" gradientUnits="userSpaceOnUse" x1="-78.8363" y1="-15.3" x2="-78.8363" y2="-64.702" gradientTransform="matrix(1 0 0 1 0 -98)">
	<stop  offset="4.901960e-03" style="stop-color:#FFFFFF;stop-opacity:0"/>
	<stop  offset="6.081640e-02" style="stop-color:#FFFFFF;stop-opacity:5.674899e-02"/>
	<stop  offset="0.9902" style="stop-color:#FFFFFF"/>
</linearGradient>
<path class="st1" d="M-141.8-113.3h127.3c0,0-6.2-15.4-21.5-16.3c-10.1-0.6-14.5,5.3-14.5,5.3s2.4-13.4-10.5-15.6
	c-13-2.2-20.7,7.5-20.7,7.5c3.1-15.4-10.8-30.5-29.4-30.3c-18.7,0.2-32.1,13.4-32.1,24.8c0,11.4,9.9,17.6,9.9,17.6
	C-141.1-120.3-141.8-113.3-141.8-113.3z"/>
<linearGradient id="SVGID_2_" gradientUnits="userSpaceOnUse" x1="101.6137" y1="178.9546" x2="101.6137" y2="154.6374" gradientTransform="matrix(1 0 0 1 0 -98)">
	<stop  offset="4.901960e-03" style="stop-color:#FFFFFF;stop-opacity:0"/>
	<stop  offset="6.081640e-02" style="stop-color:#FFFFFF;stop-opacity:5.674899e-02"/>
	<stop  offset="0.9902" style="stop-color:#FFFFFF"/>
</linearGradient>
<path class="st2" d="M129.5,73.7c0,0,1.6-5.5-4.7-6.7c-6.4-1.2-10.1,2.8-10.1,2.8c1-11.4-11.1-16.4-19.4-11.1s-7.7,12.6-7.7,12.6
	C63,58,54.1,80.9,54.1,80.9h95C141.8,65.9,129.5,73.7,129.5,73.7z"/>
<linearGradient id="SVGID_3_" gradientUnits="userSpaceOnUse" x1="263.1165" y1="134.0714" x2="263.1165" y2="113.9631" gradientTransform="matrix(1 0 0 1 0 -98)">
	<stop  offset="4.901960e-03" style="stop-color:#FFFFFF;stop-opacity:0"/>
	<stop  offset="6.081640e-02" style="stop-color:#FFFFFF;stop-opacity:5.674899e-02"/>
	<stop  offset="0.9902" style="stop-color:#FFFFFF"/>
</linearGradient>
<path class="st3" d="M288.8,30.1c0,0,1.5-4.5-4.4-5.5s-9.3,2.3-9.3,2.3c1-9.4-10.2-13.6-17.9-9.2s-7.1,10.4-7.1,10.4
	c-22.7-11-30.8,8-30.8,8h87.6C300.1,23.6,288.8,30.1,288.8,30.1z"/>
<linearGradient id="SVGID_4_" gradientUnits="userSpaceOnUse" x1="70.9967" y1="246.8434" x2="70.9967" y2="223.8683" gradientTransform="matrix(1 0 0 1 0 -98)">
	<stop  offset="4.901960e-03" style="stop-color:#FFFFFF;stop-opacity:0"/>
	<stop  offset="6.081640e-02" style="stop-color:#FFFFFF;stop-opacity:5.674899e-02"/>
	<stop  offset="0.9902" style="stop-color:#FFFFFF"/>
</linearGradient>
<path class="st4" d="M102.9,144.4c0,0,1.3-7.4-7.3-9.5S85,139,85,139c1.9-14-13.8-15.3-19.2-11c-4.4,3.5-3.6,7.6-3.1,8.9
	c-1.1-2.5-5.2-5.4-12.9-2c-8.1,3.6-6.9,10.4-6.9,10.4s-5.6-5-11.9-2.7c-6.2,2.3-6,6.2-6,6.2h92C113.4,137.7,102.9,144.4,102.9,144.4
	z"/>
<linearGradient id="SVGID_5_" gradientUnits="userSpaceOnUse" x1="107.7645" y1="140.7769" x2="107.7645" y2="113.9592" gradientTransform="matrix(1 0 0 1 0 -98)">
	<stop  offset="4.901960e-03" style="stop-color:#FFFFFF;stop-opacity:0"/>
	<stop  offset="6.081640e-02" style="stop-color:#FFFFFF;stop-opacity:5.674899e-02"/>
	<stop  offset="0.9902" style="stop-color:#FFFFFF"/>
</linearGradient>
<path class="st5" d="M145.1,37.6c0,0,1.5-8.6-8.6-11.1c-10.1-2.4-12.4,4.8-12.4,4.8c2.3-16.4-16.1-17.8-22.4-12.9
	c-5.2,4.1-4.2,8.8-3.6,10.4c-1.3-3-6.1-6.4-15-2.4C73.6,30.6,75,38.6,75,38.6s-6.6-5.9-13.9-3.2s-7,7.3-7,7.3h107.3
	C157.5,29.8,145.1,37.6,145.1,37.6z"/>
<linearGradient id="SVGID_6_" gradientUnits="userSpaceOnUse" x1="338.9087" y1="261.8938" x2="338.9087" y2="231.8699" gradientTransform="matrix(1 0 0 1 0 -98)">
	<stop  offset="4.901960e-03" style="stop-color:#FFFFFF;stop-opacity:0"/>
	<stop  offset="6.081640e-02" style="stop-color:#FFFFFF;stop-opacity:5.674899e-02"/>
	<stop  offset="0.9902" style="stop-color:#FFFFFF"/>
</linearGradient>
<path class="st6" d="M301.9,163.9h71.4c0.8-1.3,1.9-2.6,3.6-3.8c-2-2.7-5.5-5.8-10.8-6.1c-6.2-0.4-8.8,3.2-8.8,3.2s1.5-8.1-6.4-9.5
	c-7.9-1.3-12.5,4.5-12.5,4.5c1.9-9.3-6.5-18.5-17.9-18.4c-11.3,0.1-19.5,8.1-19.5,15.1c0,6.9,6,10.7,6,10.7
	C302.3,159.6,301.9,163.9,301.9,163.9z"/>
<linearGradient id="SVGID_7_" gradientUnits="userSpaceOnUse" x1="318.0095" y1="187.3817" x2="318.0095" y2="145.932" gradientTransform="matrix(1 0 0 1 0 -98)">
	<stop  offset="4.901960e-03" style="stop-color:#FFFFFF;stop-opacity:0"/>
	<stop  offset="6.081640e-02" style="stop-color:#FFFFFF;stop-opacity:5.674899e-02"/>
	<stop  offset="0.9902" style="stop-color:#FFFFFF"/>
</linearGradient>
<path class="st7" d="M375.7,81.5c0,0,2.4-13.4-13.2-17.1c-15.6-3.8-19.2,7.4-19.2,7.4c3.5-25.3-24.9-27.5-34.6-19.9
	c-8,6.3-6.4,13.6-5.6,16c-2.1-4.6-9.4-9.8-23.2-3.6c-14.6,6.5-12.5,18.8-12.5,18.8s-10.2-9-21.4-4.9c-11.3,4.2-10.9,11.3-10.9,11.3
	h165.8C394.8,69.4,375.7,81.5,375.7,81.5z"/>
<path class="st8" d="M215.9,148.8c-5.6,7-10,14.4-10.8,22.3c2-3.9,3.8-7.7,5.6-11.6c0.1,0,0.3,0,0.4,0.1c-0.9,2.7-1.8,5.5-2.9,8.4
	c0.1,0,0.4,0,0.5,0.1c0.8-1.6,1.6-3.1,2.5-4.6c1-1.6,2.2-3.1,3.7-4.7c1.3-1.4,2.7-2.7,4.4-4c-3,4.3-5.7,8.5-6.9,13.2
	c0.5-0.7,0.9-1.2,1.3-1.7c-0.5,2.6-0.9,5.2-1.4,7.8c0.1,0,0.4,0,0.5,0c0.9-3.1,1.8-6.3,2.7-9.4h0.1c-0.1,3.7-0.4,7.2-0.7,11
	c-12,1.4-24.4,2.7-36.5,4.2c-0.9-3.4-1.8-6.7-2.7-9.9l0.1-0.1c1.4,2.7,3,5.5,4.4,8.1c0.1,0,0.3-0.1,0.5-0.1c-1-2.5-2.2-5.1-3.4-7.7
	c1.2,1.2,2.3,2.3,3.5,3.5c0.1,0,0.4-0.1,0.5-0.1c-1.4-3.5-2.7-6.9-4.2-10.4c0,0,0.1,0,0.1-0.1c1,1.4,2.1,2.9,3,4.4
	c1,1.6,1.8,3.1,2.7,4.8c0.8,1.6,1.4,3.3,2.2,5c0.1-4.6-1.7-8.6-3.9-12.7c0.3-0.1,0.5-0.1,0.8-0.3c2.3,3.8,4.8,7.6,7.2,11.2
	c-0.1-5.9-2.6-11.5-5.9-17c0.3-0.1,0.4-0.1,0.7-0.3c2.9,4,5.6,8,8.6,12.1c-0.7-6.1-2.7-11.9-4.7-17.7c1,1.7,2.1,3.4,3.1,5.1
	c1,1.8,2,3.7,2.7,5.5c0.8,1.8,1.6,3.7,2.2,5.5c1.4-5.9,3-11.9,4.4-17.7c0.3,0,0.5,0,0.8,0c-1.2,6.3-1.8,12.5-0.9,19.1
	C205.7,158.2,209.7,152.9,215.9,148.8z"/>
<path class="st9" d="M279.9,199.3c-0.4,13.6-37.7-1.3-82.6-2.5c-45.2-1.5-80.7,10.7-80.3-2.5c0.4-13.6,37.4-23.1,82.3-21.9
	S280.3,185.8,279.9,199.3z"/>
</svg>
