<?xml version="1.0" encoding="utf-8"?>
<!-- Generator: Adobe Illustrator 22.0.0, SVG Export Plug-In . SVG Version: 6.00 Build 0)  -->
<svg version="1.1" id="Layer_1" xmlns="http://www.w3.org/2000/svg" xmlns:xlink="http://www.w3.org/1999/xlink" x="0px" y="0px"
	 viewBox="0 0 750 500" style="enable-background:new 0 0 750 500;" xml:space="preserve">
<style type="text/css">
	.st0{fill:url(#SVGID_1_);}
	.st1{opacity:0.6;fill:url(#SVGID_2_);enable-background:new    ;}
	.st2{opacity:0.8;fill:url(#SVGID_3_);enable-background:new    ;}
	.st3{opacity:0.4;fill:url(#SVGID_4_);enable-background:new    ;}
	.st4{opacity:0.8;fill:url(#SVGID_5_);enable-background:new    ;}
	.st5{opacity:0.72;fill:url(#SVGID_6_);enable-background:new    ;}
	.st6{opacity:0.48;fill:url(#SVGID_7_);enable-background:new    ;}
	.st7{opacity:0.6;fill:url(#SVGID_8_);enable-background:new    ;}
	.st8{fill:#A07037;}
	.st9{fill:#7C572E;}
	.st10{fill:#664B30;}
	.st11{fill:#5E4326;}
</style>
<linearGradient id="SVGID_1_" gradientUnits="userSpaceOnUse" x1="369.4" y1="111.1147" x2="369.4" y2="495.914" gradientTransform="matrix(1 0 0 -1 0 502)">
	<stop  offset="0" style="stop-color:#3DD6E2"/>
	<stop  offset="8.766034e-02" style="stop-color:#37C9D8"/>
	<stop  offset="0.2949" style="stop-color:#2AAFC4"/>
	<stop  offset="0.5099" style="stop-color:#219DB5"/>
	<stop  offset="0.7358" style="stop-color:#1C93AD"/>
	<stop  offset="0.9902" style="stop-color:#1A8FAA"/>
</linearGradient>
<rect x="-10.9" y="-23.6" class="st0" width="760.6" height="513.2"/>
<g>
	
		<linearGradient id="SVGID_2_" gradientUnits="userSpaceOnUse" x1="93.65" y1="326" x2="93.65" y2="375.402" gradientTransform="matrix(1 0 0 -1 0 502)">
		<stop  offset="4.901960e-03" style="stop-color:#FFFFFF;stop-opacity:0"/>
		<stop  offset="6.081640e-02" style="stop-color:#FFFFFF;stop-opacity:5.674899e-02"/>
		<stop  offset="0.9902" style="stop-color:#FFFFFF"/>
	</linearGradient>
	<path class="st1" d="M30.7,176H158c0,0-6.2-15.4-21.5-16.3c-10.1-0.6-14.5,5.3-14.5,5.3s2.4-13.4-10.5-15.6
		c-13-2.2-20.7,7.5-20.7,7.5c3.1-15.4-10.8-30.5-29.4-30.3c-18.7,0.2-32.1,13.4-32.1,24.8c0,11.4,9.9,17.6,9.9,17.6
		C31.4,169,30.7,176,30.7,176z"/>
	
		<linearGradient id="SVGID_3_" gradientUnits="userSpaceOnUse" x1="66.4" y1="225.6454" x2="66.4" y2="249.9626" gradientTransform="matrix(1 0 0 -1 0 502)">
		<stop  offset="4.901960e-03" style="stop-color:#FFFFFF;stop-opacity:0"/>
		<stop  offset="6.081640e-02" style="stop-color:#FFFFFF;stop-opacity:5.674899e-02"/>
		<stop  offset="0.9902" style="stop-color:#FFFFFF"/>
	</linearGradient>
	<path class="st2" d="M94.3,269.1c0,0,1.6-5.5-4.7-6.7c-6.4-1.2-10.1,2.8-10.1,2.8c1-11.4-11.1-16.4-19.4-11.1s-7.7,12.6-7.7,12.6
		c-24.6-13.3-33.5,9.6-33.5,9.6h95C106.6,261.3,94.3,269.1,94.3,269.1z"/>
	
		<linearGradient id="SVGID_4_" gradientUnits="userSpaceOnUse" x1="523.1" y1="371.5286" x2="523.1" y2="391.6369" gradientTransform="matrix(1 0 0 -1 0 502)">
		<stop  offset="4.901960e-03" style="stop-color:#FFFFFF;stop-opacity:0"/>
		<stop  offset="6.081640e-02" style="stop-color:#FFFFFF;stop-opacity:5.674899e-02"/>
		<stop  offset="0.9902" style="stop-color:#FFFFFF"/>
	</linearGradient>
	<path class="st3" d="M548.8,124.5c0,0,1.5-4.5-4.4-5.5s-9.3,2.3-9.3,2.3c1-9.4-10.2-13.6-17.9-9.2c-7.7,4.4-7.1,10.4-7.1,10.4
		c-22.7-11-30.8,8-30.8,8h87.6C560.1,118,548.8,124.5,548.8,124.5z"/>
	
		<linearGradient id="SVGID_5_" gradientUnits="userSpaceOnUse" x1="198.9996" y1="278.8" x2="198.9996" y2="301.775" gradientTransform="matrix(1 0 0 -1 0 502)">
		<stop  offset="4.901960e-03" style="stop-color:#FFFFFF;stop-opacity:0"/>
		<stop  offset="6.081640e-02" style="stop-color:#FFFFFF;stop-opacity:5.674899e-02"/>
		<stop  offset="0.9902" style="stop-color:#FFFFFF"/>
	</linearGradient>
	<path class="st4" d="M230.9,218.8c0,0,1.3-7.4-7.3-9.5s-10.6,4.1-10.6,4.1c1.9-14-13.8-15.3-19.2-11c-4.4,3.5-3.6,7.6-3.1,8.9
		c-1.1-2.5-5.2-5.4-12.9-2c-8.1,3.6-6.9,10.4-6.9,10.4s-5.6-5-11.9-2.7c-6.2,2.3-6,6.2-6,6.2h92
		C241.4,212.1,230.9,218.8,230.9,218.8z"/>
	
		<linearGradient id="SVGID_6_" gradientUnits="userSpaceOnUse" x1="351.5491" y1="351.6566" x2="351.5491" y2="378.4743" gradientTransform="matrix(1 0 0 -1 0 502)">
		<stop  offset="4.901960e-03" style="stop-color:#FFFFFF;stop-opacity:0"/>
		<stop  offset="6.081640e-02" style="stop-color:#FFFFFF;stop-opacity:5.674899e-02"/>
		<stop  offset="0.9902" style="stop-color:#FFFFFF"/>
	</linearGradient>
	<path class="st5" d="M388.9,145.2c0,0,1.5-8.6-8.6-11.1c-10.1-2.4-12.4,4.8-12.4,4.8c2.3-16.4-16.1-17.8-22.4-12.9
		c-5.2,4.1-4.2,8.8-3.6,10.4c-1.3-3-6.1-6.4-15-2.4c-9.5,4.2-8.1,12.2-8.1,12.2s-6.6-5.9-13.9-3.2s-7,7.3-7,7.3h107.3
		C401.3,137.4,388.9,145.2,388.9,145.2z"/>
	
		<linearGradient id="SVGID_7_" gradientUnits="userSpaceOnUse" x1="214.35" y1="366.1" x2="214.35" y2="396.1239" gradientTransform="matrix(1 0 0 -1 0 502)">
		<stop  offset="4.901960e-03" style="stop-color:#FFFFFF;stop-opacity:0"/>
		<stop  offset="6.081640e-02" style="stop-color:#FFFFFF;stop-opacity:5.674899e-02"/>
		<stop  offset="0.9902" style="stop-color:#FFFFFF"/>
	</linearGradient>
	<path class="st6" d="M177.3,135.9h71.4c0.8-1.3,1.9-2.6,3.6-3.8c-2-2.7-5.5-5.8-10.8-6.1c-6.2-0.4-8.8,3.2-8.8,3.2s1.5-8.1-6.4-9.5
		c-7.9-1.3-12.5,4.5-12.5,4.5c1.9-9.3-6.5-18.5-17.9-18.4c-11.3,0.1-19.5,8.1-19.5,15.1c0,6.9,6,10.7,6,10.7
		C177.7,131.6,177.3,135.9,177.3,135.9z"/>
	
		<linearGradient id="SVGID_8_" gradientUnits="userSpaceOnUse" x1="609.399" y1="313.1845" x2="609.399" y2="354.6342" gradientTransform="matrix(1 0 0 -1 0 502)">
		<stop  offset="4.901960e-03" style="stop-color:#FFFFFF;stop-opacity:0"/>
		<stop  offset="6.081640e-02" style="stop-color:#FFFFFF;stop-opacity:5.674899e-02"/>
		<stop  offset="0.9902" style="stop-color:#FFFFFF"/>
	</linearGradient>
	<path class="st7" d="M667.1,180.9c0,0,2.4-13.4-13.2-17.1c-15.6-3.8-19.2,7.4-19.2,7.4c3.5-25.3-24.9-27.5-34.6-19.9
		c-8,6.3-6.4,13.6-5.6,16c-2.1-4.6-9.4-9.8-23.2-3.6c-14.6,6.5-12.5,18.8-12.5,18.8s-10.2-9-21.4-4.9c-11.3,4.2-10.9,11.3-10.9,11.3
		h165.8C686.2,168.8,667.1,180.9,667.1,180.9z"/>
</g>
<g id="BACKGROUND_2">
	<g>
		<g>
			<path class="st8" d="M185.9,433.8c-2.6-0.4-10.8-9.5-11.2-12.1s-1.7-9.9-2.6-11.6c-0.9-1.7-7.3-0.4-9.9-1.3
				c-2.6-0.9-0.4-9.5-0.4-14.2s3-24.6,3-27.6s-4.3-10.4-4.3-10.4s2.2-25,0.9-26.7s0.9-9.9,0.9-9.9l0.9-6.9l-4.3-2.2
				c0,0-0.4,11.2-1.3,13.8c-0.9,2.6-6,1.3-6,1.3l0.9-22.9l-10.4-1.3c0,0-3,4.7-4.3,7.8c-1.3,3,0.9,16-1.7,19
				c-2.6,3-3.9,7.3-4.7,11.2c-0.9,3.9-0.9,10.8-2.6,12.5c-1.7,1.7-4.3,4.7-6,6.5c-1.7,1.7-2.2-5.6-2.2-5.6s0-41.8,0-43.6
				s-4.7-2.6-4.7-2.6v-31.5c0,0-2.2-4.7-3.9-4.7c-1.7,0-5.6,3.5-7.3,3c-1.7-0.4-10.4,8.2-12.9,9.1c-2.6,0.9-10.8,0-15.1-2.2
				c-4.3-2.2-12.5-1.3-12.5-1.3s0.4,19.8-1.3,21.1c-1.7,1.3-13.4,1.7-13.8,5.6s0.9,23.7,1.3,25.9c0.4,2.2-3,5.2-3.9,6.9
				c-0.9,1.7-5.6-0.4-5.6-0.4s-2.6,4.3-1.3,10.8s0,21.6,0,22.9s-6.5,4.3-6.5,4.3s0.9,9.5-0.9,39.3c-1.7,29.8-35.4,31.1-35.4,31.1
				l196.3-2.6C192.8,444.1,188.5,434.2,185.9,433.8z"/>
			<path class="st8" d="M456,449c0,0,21.1,1.6,22-10.4s0-27.3,0-27.3s-0.2-9.1,1.3-11.6s7.9-7.2,7.9-7.2s5.5-4.3,4.9-7.4
				s2.2-28,2.2-28l7.2-3.3c0,0-0.5,6,0.3,7.8c0.7,1.8,4.2-4,4.2-4l3.9,0.3c0,0-2.6,5-2.8,8.4c-0.3,3.4,0.9,22.1,0.9,22.1
				s6.2-2.1,8.4,2.8s5.2,10.8,8.3,10.2c3.1-0.6,6.8-3.4,8.3-1.1c1.6,2.3-1.1,8.6-1.5,13.7c-0.4,5.2,3.2,20.6,4.8,21.6
				c1.7,1,10.6,2.6,11.2,6.5c0.6,3.9,0.2,13.9,0.2,13.9L456,449z"/>
			<path class="st8" d="M752.7,388.2c-0.7-5.3,0.7-7.9-0.2-9.9s-7.1-1.6-7.7,1.3c-0.6,2.9-7.2-2-7-6.1c0.1-4.1-7.5-1.6-9.1-1.4
				c-1.6,0.1,0.8,13.1,0.6,16.4s-6.2,0.8-8.2,0.5s-3.7-9.6-3.9-12.9s-0.5-21-1-23.4s-4.1-3-6.2-4.9c-2.1-1.9,1-47.4,0.8-52
				c-0.3-4.5,0.8-12-0.9-14.4s-2.5-8.9-2.5-8.9s-9.1,5.1-9.3,1.4s-0.7-17.3-1.8-17.2c-1.2,0.1-9.2,2.3-10.7,4s-9.1,11.7-8.9,13.8
				c0.1,2.1,5,50.3,5.6,53.2c0.6,2.8-6.8,11.2-7.5,12.4c-0.7,1.3-1,9.5,0.4,12.3c1.3,2.8,1.7,8.9-1.7,10.8s-4.8-7.5-4.8-7.5
				s-1.4-23-1.1-24.6c0.3-1.7-2.6-10.5-2.3-11.8s1.5-7.9,0.3-8.7c-1.2-0.7-4.3,0.7-6.2,1.2s-3.6-7.6-3.5-13.4c0-5.8-1-9.4-1-9.4
				s-11-0.1-11.2,2.8s-6.4,10.7-8.4,10.4c-2-0.3-1,8.7-1,8.7l0.8,26.3c0,0-4.1-3.8-5.8-5c-1.6-1.1-7.4,0.1-8.9,1s0.5,8.2,0.6,16.4
				c0.1,8.2-10.1,13.5-12.3,16.5s-5.3,8.6-6.4,10.3c-1.1,1.7-3.9,0.7-6.2,0.4c-2.4-0.3-5.1,0.3-5.1,0.3s3.4,24.1,1.4,23.8
				c-2-0.3-6-2.9-8-3.2c-2-0.3-5.4,1.2-5.2,4.1s0.8,19.3-3.1,25.7c-3.9,6.4-22.7,12.6-22.7,12.6h206
				C759.3,440.7,753.4,393.5,752.7,388.2z"/>
		</g>
		<g>
			<path class="st9" d="M210.2,420.1c41.7-9.8,106.7,9,127.6,14.6c21,5.7,47.9,9.6,79.1,2.8c58.1-12.6,105.8-13.1,148.7-10.1
				c71.4,5,98-18.5,129.5-26.9c31.4-8.4,70.7-9.2,95.3-9.9v144.2h-805V390.1C64.4,375.8,89.2,448.5,210.2,420.1z"/>
			<path class="st9" d="M397.1,442.2c0.5-2.2-0.3-4.3-1.1-6.5c0.5,0.7,1,1.4,1.4,2.1s0.8,1.5,1.3,2.2c-0.1-1-0.2-2-0.4-3
				c-0.2-1-0.5-2.1-0.7-3.1c0.1,0,0.1,0,0.2,0c0.8,1.9,1.6,3.9,2.3,5.7c0.7-1.7,1.5-3.5,2.2-5.4h0.1c-0.4,2.1-0.8,4.1-1.1,6.2
				c0.1,0,0.2,0,0.3,0.1c1.1-2.6,3.2-4.8,6.3-6.4c-2.3,2.1-4.2,4.3-4.8,7c0.4-0.6,0.7-1.2,1.1-1.8c0.4-0.6,0.9-1.2,1.5-1.7
				c-0.5,0.9-0.9,1.9-1.4,2.8c0.1,0,0.1,0,0.2,0c0.3-0.5,0.6-1,1-1.4c0.4-0.5,0.9-0.9,1.4-1.4c0.5-0.4,1.1-0.8,1.8-1.2
				c-2,2-3.8,4.1-3.4,6.8c-3.7-0.1-7.4-0.2-11.2-0.3c0.4-2.1-0.1-4.1-1-6c1.2,1.6,1.9,3.4,2.4,5.1c0.3-1.5-0.3-2.9-0.8-4.4
				C395.9,439,396.7,440.6,397.1,442.2z"/>
			<path class="st9" d="M529.3,426.1c0.5-2.2-0.3-4.3-1.2-6.4c0.5,0.7,1.1,1.4,1.5,2.1c0.5,0.7,0.9,1.5,1.5,2.2c-0.1-1-0.2-2-0.5-3
				c-0.2-1-0.5-2-0.8-3c0.1,0,0.1,0,0.2,0c0.9,1.9,1.7,3.8,2.5,5.6c0.8-1.7,1.6-3.5,2.5-5.3h0.1c-0.4,2-0.8,4-1.3,6
				c0.1,0,0.2,0,0.3,0.1c1.2-2.6,3.5-4.7,7-6.3c-2.5,2.1-4.7,4.2-5.3,6.8c0.4-0.6,0.8-1.2,1.2-1.7c0.5-0.6,1-1.1,1.6-1.7
				c-0.5,0.9-1,1.8-1.6,2.7c0.1,0,0.1,0,0.2,0c0.4-0.5,0.7-1,1.2-1.4c0.5-0.5,1-0.9,1.6-1.3s1.2-0.8,2-1.1c-2.2,2-4.2,4-3.8,6.6
				c-4.1-0.1-8.2-0.2-12.4-0.3c0.4-2-0.1-4-1.1-5.9c1.3,1.6,2.1,3.3,2.7,5c0.3-1.5-0.3-2.9-0.9-4.3
				C527.9,423.1,528.8,424.6,529.3,426.1z"/>
			<path class="st9" d="M570.7,428.8c0.4-1.5-0.2-2.9-0.8-4.4c0.4,0.5,0.7,0.9,1.1,1.4c0.3,0.5,0.6,1,1,1.5
				c-0.1-0.7-0.2-1.4-0.3-2.1s-0.4-1.4-0.6-2.1h0.1c0.6,1.3,1.2,2.6,1.7,3.8c0.5-1.1,1.1-2.4,1.7-3.6h0.1c-0.3,1.4-0.6,2.8-0.9,4.2
				c0.1,0,0.1,0,0.2,0c0.8-1.8,2.4-3.2,4.8-4.3c-1.7,1.4-3.2,2.9-3.6,4.7c0.3-0.4,0.5-0.8,0.8-1.2c0.3-0.4,0.7-0.8,1.1-1.2
				c-0.4,0.6-0.7,1.3-1.1,1.9h0.1c0.3-0.3,0.5-0.7,0.8-1s0.7-0.6,1.1-0.9c0.4-0.3,0.9-0.5,1.4-0.8c-1.5,1.4-2.9,2.8-2.6,4.6
				c-2.8-0.1-5.6-0.1-8.5-0.2c0.3-1.4-0.1-2.7-0.7-4.1c0.9,1.1,1.5,2.3,1.9,3.5c0.2-1-0.2-2-0.6-2.9
				C569.8,426.7,570.5,427.7,570.7,428.8z"/>
			<path class="st9" d="M360.7,440.3c0.3-1.3-0.2-2.5-0.7-3.7c0.3,0.4,0.6,0.8,0.9,1.2c0.3,0.4,0.5,0.9,0.9,1.3
				c-0.1-0.6-0.1-1.2-0.3-1.8c-0.1-0.6-0.3-1.2-0.5-1.8h0.1c0.5,1.1,1,2.2,1.5,3.3c0.5-1,0.9-2,1.4-3.1h0.1
				c-0.2,1.2-0.5,2.4-0.7,3.6c0.1,0,0.1,0,0.2,0c0.7-1.5,2.1-2.7,4.1-3.7c-1.5,1.2-2.7,2.5-3.1,4c0.2-0.3,0.4-0.7,0.7-1
				c0.3-0.3,0.6-0.7,0.9-1c-0.3,0.5-0.6,1.1-0.9,1.6h0.1c0.2-0.3,0.4-0.6,0.7-0.8c0.3-0.3,0.6-0.5,0.9-0.8c0.3-0.2,0.7-0.5,1.2-0.7
				c-1.3,1.2-2.5,2.4-2.2,3.9c-2.4-0.1-4.8-0.1-7.3-0.2c0.3-1.2-0.1-2.3-0.6-3.5c0.8,0.9,1.2,1.9,1.6,3c0.2-0.9-0.2-1.7-0.5-2.5
				C359.9,438.5,360.5,439.4,360.7,440.3z"/>
			<path class="st9" d="M46.2,397.4c1.1-2,0.5-4.3-0.2-6.7c0.5,0.8,1,1.7,1.5,2.5c0.4,0.8,0.8,1.7,1.4,2.6c0-1,0.1-2.1,0.1-3.1
				c-0.1-1.1-0.2-2.2-0.4-3.2c0.1,0,0.2,0,0.3,0c0.7,2.1,1.4,4.3,2,6.2c1.3-1.5,2.7-3,4.2-4.6c0.1,0,0.1,0,0.2,0.1
				c-0.9,1.9-1.9,3.8-2.8,5.7c0.1,0,0.2,0.1,0.4,0.1c2-2.2,5.4-3.7,10.1-4.4c-3.6,1.4-6.7,3-8,5.4c0.6-0.5,1.2-1,1.9-1.4
				c0.7-0.5,1.5-0.9,2.4-1.3c-0.8,0.8-1.7,1.5-2.5,2.3c0.1,0,0.1,0.1,0.2,0.1c0.6-0.4,1.1-0.8,1.7-1.1c0.7-0.3,1.4-0.7,2.2-0.9
				c0.8-0.3,1.7-0.5,2.7-0.6c-3.2,1.4-6.1,2.9-6.1,5.6c-5.1-1.2-10.2-2.4-15.3-3.6c1-1.9,0.7-4-0.1-6.2c1.3,2,1.9,3.9,2.3,5.7
				c0.7-1.4,0.2-2.9-0.2-4.5C45.2,394,46,395.7,46.2,397.4z"/>
			<path class="st9" d="M48.1,398.4c0.1-2.2,1.1-4.2,2.2-6.2c-0.5,0.6-1,1.2-1.5,1.9c-0.5,0.6-0.9,1.3-1.5,2c0.3-1,0.6-2,0.9-2.9
				c0.4-1,0.8-1.9,1.2-2.9c0,0-0.1,0-0.1-0.1c-1,1.8-2,3.5-2.9,5.2c-0.2-1.8-0.3-3.7-0.5-5.6h-0.1c-0.1,2.1-0.3,4.1-0.4,6.2
				c-0.1,0-0.1,0-0.2,0c-0.3-2.7-1.3-5.1-3.4-7.3c1.2,2.4,2.2,4.9,2.1,7.6c-0.1-0.6-0.3-1.3-0.4-1.9c-0.2-0.6-0.4-1.3-0.7-1.9
				c0.2,1,0.3,2,0.5,3h-0.1c-0.2-0.5-0.3-1.1-0.5-1.6s-0.5-1.1-0.8-1.6s-0.7-1-1.1-1.4c1,2.3,1.9,4.6,1.1,7.2c2.8,0.5,5.5,1,8.3,1.4
				c0.1-2.1,0.9-4,2-5.7c-1.2,1.4-2.1,3-2.9,4.6c0.1-1.5,0.8-2.8,1.5-4.2C49.6,395.5,48.7,396.9,48.1,398.4z"/>
			<path class="st9" d="M408.1,418.3c-0.5-0.3-2.1,0.2-2.5,0.9c-0.4,0.6-0.5,1.3-0.3,3.9s0.5,7.1,0,8.8c-0.5,1.7-2.7,1.4-2.7,1.4
				s1.2-25.1,1.2-27.5s-0.5-4.7-1.6-4.5c-1.1,0.3-3.5,2.5-3.8,3.7s-0.3,4.9-0.1,7.9c0.2,3.1,0.8,17,0.8,17s-2.3-0.4-2.8-1
				c-0.3-0.4-0.8-1-0.5-2.8c0.3-1.7,0.8-6.7,0.8-8c0-1.2-0.9-3.5-2.1-3.2s-2.1,1.5-2.2,3.2s0.4,9.2,0.8,10.3
				c0.5,1.5,2.4,2.4,5.9,2.6l0.6,14.8h2.4l0.7-11.5c5.6,0,6.1-6.9,6.4-10.2C409.4,421,408.6,418.6,408.1,418.3z"/>
			<path class="st9" d="M42.2,364.8c1,0.3,2.2,3.4,2,4.8s-0.3,8.6,0,10s2.2,1.9,2.2,1.9s-0.6-13.7-0.4-17c0.1-3.7,3.6-5.5,5.2-4.9
				c1.6,0.6,3.8,2.8,3.7,6.6c-0.1,3.9-1.2,22.7-1.2,22.7c1.4-0.3,2.9-1.7,2.9-2.7s-0.4-6.9-0.4-9.9c0-3.1,1.7-4.6,2.5-4.2
				c0.9,0.4,2.1,1.8,2.1,4.1c0,2.3-1,10.1-2.4,12.5c-1.5,2.4-5.1,2.6-5.1,2.6l-1.2,12.9h-4.5l-1-20.8c-2.1-0.4-4.7-1.8-5.4-3.7
				c-0.7-1.9-1.1-7.3-1.5-10.5C39.1,365.9,41.2,364.5,42.2,364.8z"/>
			<path class="st9" d="M569,406.9c0.6,0.2,1.3,2,1.2,2.8s-0.2,5,0,5.8s1.3,1.1,1.3,1.1s-0.3-8-0.3-9.9c0.1-2.1,2.1-3.2,3-2.8
				c0.9,0.4,2.2,1.6,2.1,3.8c-0.1,2.2-0.7,13.2-0.7,13.2c0.8-0.2,1.7-1,1.7-1.6s-0.3-4-0.3-5.8s1-2.7,1.5-2.4
				c0.5,0.2,1.2,1.1,1.2,2.4s-0.6,5.9-1.4,7.2c-0.9,1.4-2.9,1.5-2.9,1.5l-0.7,7.5H572l-0.6-12.1c-1.2-0.2-2.7-1.1-3.1-2.1
				c-0.4-1.1-0.7-4.2-0.9-6.1C567.2,407.6,568.5,406.7,569,406.9z"/>
			<path class="st9" d="M316.5,429c-0.5,2.7-5,4.1-10.1,3.2s-8.8-3.9-8.3-6.6s5-4.1,10.1-3.2C313.3,423.3,317,426.3,316.5,429z"/>
			<path class="st9" d="M140.6,425.6c-0.2,1.5-3.9,2.4-8.4,1.9s-8-2.1-7.9-3.6c0.2-1.5,3.9-2.4,8.4-1.9
				C137.2,422.5,140.8,424.1,140.6,425.6z"/>
			<path class="st9" d="M78.4,408.3c-0.7,2.1-5,2.5-9.4,0.9c-4.5-1.6-7.5-4.6-6.8-6.6c0.7-2.1,5-2.5,9.4-0.9
				C76.1,403.2,79.2,406.2,78.4,408.3z"/>
			<path class="st9" d="M86.1,411.5c-0.4,1.2-2.8,1.4-5.4,0.5c-2.5-0.9-4.3-2.6-3.8-3.8c0.4-1.2,2.8-1.4,5.4-0.5
				C84.8,408.7,86.5,410.4,86.1,411.5z"/>
			<path class="st9" d="M147,426.7c-0.1,1.1-2,1.8-4.2,1.6c-2.2-0.2-3.9-1.2-3.9-2.2c0.1-1.1,2-1.8,4.2-1.6
				C145.4,424.6,147.1,425.7,147,426.7z"/>
			<path class="st9" d="M156.9,427.2c0.1,1.1-1.4,2-3.3,2.1c-1.9,0.1-3.5-0.7-3.5-1.7c-0.1-1.1,1.4-2,3.3-2.1
				S156.8,426.1,156.9,427.2z"/>
			<path class="st9" d="M323.5,430.5c-0.4,1.2-2.6,1.7-4.9,0.9c-2.3-0.7-3.9-2.3-3.5-3.5s2.6-1.7,4.9-0.9
				C322.3,427.7,323.9,429.2,323.5,430.5z"/>
			<path class="st9" d="M297.4,424.6c-0.2,1.1-2.6,1.7-5.4,1.3c-2.8-0.4-5-1.6-4.9-2.7c0.2-1.1,2.6-1.7,5.4-1.3
				C295.4,422.3,297.6,423.5,297.4,424.6z"/>
			<path class="st9" d="M375.2,441.1c-0.1,1.1-1.8,1.9-3.9,1.8s-3.7-1.2-3.6-2.3c0.1-1.1,1.8-1.9,3.9-1.8
				C373.6,438.9,375.2,439.9,375.2,441.1z"/>
			<path class="st9" d="M515.3,425.2c0.2,3.1-4.5,5.8-10.6,6.2c-6,0.4-11.1-1.8-11.3-4.8c-0.2-3.1,4.5-5.8,10.6-6.2
				S515.1,422.2,515.3,425.2z"/>
			<path class="st9" d="M495,427c0.1,1.4-2.2,2.7-5,2.9c-2.9,0.2-5.3-0.8-5.4-2.2c-0.1-1.4,2.2-2.7,5-2.9
				C492.5,424.6,494.9,425.6,495,427z"/>
			
				<ellipse transform="matrix(1.923743e-02 -0.9998 0.9998 1.923743e-02 121.8948 978.3283)" class="st9" cx="559.6" cy="427" rx="3.2" ry="6.4"/>
			<path class="st9" d="M552.8,427c0,1.1-1.9,2-4.2,2s-4.1-1-4.1-2.1s1.9-2,4.2-2S552.8,425.8,552.8,427z"/>
			<path class="st9" d="M519,426c0,1.1-1.2,2-2.7,2s-2.6-1-2.6-2.1s1.2-2,2.7-2S519,424.9,519,426z"/>
			<path class="st9" d="M381.5,441.4c0,0.8-1.2,1.3-2.6,1.2c-1.4-0.1-2.5-0.8-2.4-1.5c0-0.8,1.2-1.3,2.6-1.2
				C380.4,440,381.5,440.7,381.5,441.4z"/>
		</g>
		<g>
			<path class="st10" d="M779.5,422.6c0,0-63.1-5.7-89.6,14.8s-79.3,32.5-104.2,34.2c-86,5.9-100.8-6.4-121.1-12.9
				c-23.2-7.5-67.3-13.2-114.9-9.8c-47.5,3.4-55.6,23.3-157,4.5c-32-5.9-80.9-23.8-108.7-27.3c-42.5-5.4-83.2,4.6-102.3,18.2v87.4
				h797.7L779.5,422.6L779.5,422.6z"/>
			<path class="st10" d="M88.7,417.9c2.4,3.1,4.4,6.2,4.6,9.5c-0.8-1.7-1.6-3.3-2.4-4.9c-0.1,0-0.1,0-0.2,0c0.4,1.2,0.8,2.3,1.2,3.5
				c-0.1,0-0.2,0-0.2,0c-0.4-0.7-0.6-1.3-1.1-2s-1-1.4-1.6-2s-1.2-1.2-1.9-1.8c1.3,1.8,2.5,3.7,3,5.6c-0.2-0.3-0.4-0.5-0.6-0.7
				c0.2,1.1,0.4,2.2,0.6,3.3c-0.1,0-0.2,0-0.2,0c-0.4-1.3-0.7-2.6-1.1-4c0,0,0,0-0.1,0c0,1.5,0.1,3,0.1,4.5
				c5.5,0.9,11.1,1.8,16.6,2.7c0.5-1.4,0.9-2.7,1.4-4c0,0,0,0-0.1,0c-0.7,1.1-1.4,2.2-2.2,3.2c-0.1,0-0.1,0-0.2-0.1
				c0.5-1,1.1-2,1.6-3.1c-0.6,0.5-1.1,0.9-1.6,1.4c-0.1,0-0.2-0.1-0.2-0.1c0.7-1.4,1.4-2.8,2-4.2c0,0,0,0-0.1,0
				c-0.5,0.6-1,1.2-1.5,1.7c-0.5,0.6-0.9,1.3-1.3,1.9s-0.7,1.3-1.1,2c0-1.9,0.9-3.5,2-5.1c-0.1,0-0.2-0.1-0.3-0.1
				c-1.2,1.5-2.3,3-3.4,4.4c0.1-2.4,1.4-4.7,2.9-6.8c-0.1,0-0.2-0.1-0.3-0.1c-1.3,1.6-2.7,3.2-4.1,4.8c0.4-2.5,1.4-4.9,2.4-7.2
				c-0.5,0.7-1,1.3-1.5,2s-0.9,1.4-1.4,2.2c-0.4,0.7-0.8,1.5-1.1,2.2c-0.6-2.5-1.2-5-1.8-7.5c-0.1,0-0.2,0-0.3,0
				c0.4,2.6,0.6,5.2,0.1,7.9C93.2,422.1,91.5,419.7,88.7,417.9z"/>
			<path class="st10" d="M44.1,419.6c-2.1,1.9-3.8,3.7-4.1,5.7c0.7-1,1.4-2,2.1-2.9c0.1,0,0.1,0,0.2,0c-0.4,0.7-0.7,1.4-1.1,2.1
				c0.1,0,0.1,0,0.2,0c0.3-0.4,0.6-0.8,0.9-1.2c0.4-0.4,0.9-0.8,1.4-1.2c0.5-0.4,1-0.8,1.6-1.1c-1.1,1.1-2.2,2.2-2.6,3.3
				c0.2-0.2,0.4-0.3,0.5-0.5c-0.2,0.6-0.4,1.3-0.6,1.9c0.1,0,0.1,0,0.2,0c0.3-0.8,0.7-1.5,1-2.3l0,0c-0.1,0.9-0.2,1.7-0.3,2.6
				c-4.5,0.8-9.1,1.6-13.7,2.3c-0.3-0.8-0.7-1.5-1-2.2c0,0,0,0,0.1,0c0.6,0.6,1.1,1.2,1.7,1.8c0.1,0,0.1,0,0.2,0
				c-0.4-0.6-0.8-1.1-1.2-1.7c0.4,0.2,0.9,0.5,1.3,0.7c0.1,0,0.1,0,0.2-0.1c-0.5-0.8-1-1.5-1.5-2.3c0,0,0,0,0.1,0
				c0.4,0.3,0.8,0.6,1.1,0.9c0.4,0.3,0.7,0.7,1,1c0.3,0.4,0.5,0.7,0.8,1.1c0.1-1.1-0.6-2-1.4-2.8c0.1,0,0.2-0.1,0.3-0.1
				c0.9,0.8,1.8,1.6,2.6,2.4c0-1.4-0.9-2.6-2.1-3.8c0.1,0,0.2-0.1,0.2-0.1c1,0.8,2.1,1.7,3.2,2.5c-0.2-1.4-1-2.7-1.7-4
				c0.4,0.4,0.8,0.7,1.1,1.1c0.4,0.4,0.7,0.8,1,1.2c0.3,0.4,0.6,0.8,0.8,1.2c0.6-1.4,1.1-2.9,1.7-4.3c0.1,0,0.2,0,0.3,0
				c-0.4,1.5-0.7,3-0.4,4.5C40.3,422.2,41.8,420.8,44.1,419.6z"/>
			<path class="st10" d="M366.5,439.2c-3.5,2.5-6.3,5.1-7.1,8c1.2-1.4,2.5-2.8,3.7-4.1c0.1,0,0.2,0,0.2,0c-0.7,1-1.3,2-2,3
				c0.1,0,0.2,0,0.3,0c0.5-0.5,1-1.1,1.6-1.6c0.7-0.6,1.4-1.1,2.3-1.7c0.8-0.5,1.7-1,2.7-1.4c-1.9,1.5-3.7,3-4.5,4.7
				c0.3-0.2,0.6-0.4,0.8-0.6c-0.4,0.9-0.8,1.9-1.2,2.8c0.1,0,0.2,0,0.3,0c0.7-1.1,1.3-2.2,2-3.3c0,0,0,0,0.1,0
				c-0.3,1.3-0.5,2.6-0.8,3.9c-6.9,0.5-14.1,0.9-21.1,1.4c-0.4-1.2-0.8-2.4-1.1-3.6h0.1c0.7,1,1.5,2,2.2,2.9c0.1,0,0.2,0,0.3,0
				c-0.5-0.9-1-1.8-1.6-2.8c0.6,0.4,1.2,0.9,1.8,1.3c0.1,0,0.2,0,0.3-0.1c-0.6-1.3-1.3-2.5-1.9-3.8h0.1c0.5,0.5,1.1,1.1,1.6,1.6
				c0.5,0.6,0.9,1.1,1.3,1.7s0.7,1.2,1.1,1.8c0.3-1.6-0.6-3.1-1.7-4.6c0.1,0,0.3-0.1,0.4-0.1c1.2,1.4,2.4,2.7,3.6,4
				c0.2-2.1-1-4.1-2.6-6.1c0.1,0,0.2-0.1,0.4-0.1c1.5,1.4,2.9,2.9,4.4,4.4c-0.1-2.2-1-4.3-1.9-6.4c0.5,0.6,1.1,1.2,1.6,1.8
				c0.5,0.6,1,1.3,1.4,2s0.7,1.3,1.1,2c1.1-2.1,2.2-4.2,3.3-6.3c0.1,0,0.3,0,0.4,0c-0.9,2.2-1.6,4.5-1.3,6.8
				C360.3,442.5,362.8,440.6,366.5,439.2z"/>
			<path class="st10" d="M696,436.3c1-4.9-0.6-8.8-2.3-12.8c1,1.2,2,2.3,2.9,3.5c0.9,1.3,1.6,2.6,2.8,3.8c-0.3-2-0.5-4.1-0.9-6.1
				s-1-4-1.5-5.9c0.1-0.1,0.3-0.1,0.4-0.2c1.6,3.5,3.3,7.1,4.8,10.4c1.4-3.9,3-8.3,4.6-12.6c0.1,0,0.2,0,0.3,0
				c-0.8,4.5-1.6,9-2.4,13.5c0.2,0,0.4,0,0.6,0c2.2-6.1,6.6-11.8,13.2-17.2c-4.7,5.8-8.8,11.5-9.9,17.4c0.7-1.5,1.4-2.9,2.3-4.4
				c0.9-1.5,1.9-3,3-4.5c-1,2.2-1.9,4.5-2.9,6.7c0.1,0,0.2,0,0.3,0c0.7-1.2,1.3-2.4,2.2-3.6s1.8-2.5,2.9-3.7
				c1.1-1.2,2.3-2.4,3.7-3.5c-4.1,5.5-7.8,10.9-7.1,16.2c-7.7,2.1-15.4,4.2-23.2,6.3c0.8-4.6-0.3-8.4-2-11.9c2.5,2.7,4,5.8,5.1,9.1
				c0.5-3.3-0.6-5.9-1.7-8.6C693.6,430.5,695.2,433.2,696,436.3z"/>
			<path class="st10" d="M529.4,474.3c0.9-3.9-0.5-7.6-2.1-11.4c0.9,1.2,1.9,2.5,2.7,3.7c0.8,1.3,1.5,2.6,2.6,3.9
				c-0.3-1.8-0.4-3.6-0.8-5.3c-0.4-1.8-0.9-3.6-1.4-5.4c0.1,0,0.2,0,0.4-0.1c1.5,3.4,3,6.8,4.4,10c1.3-3,2.8-6.2,4.3-9.5
				c0.1,0,0.2,0,0.2,0.1c-0.7,3.6-1.5,7.2-2.2,10.8c0.2,0,0.4,0.1,0.5,0.1c2.1-4.6,6.1-8.3,12.2-11.2c-4.4,3.7-8.1,7.5-9.1,12.2
				c0.7-1,1.3-2.1,2.1-3.1s1.8-2,2.8-3c-0.9,1.6-1.8,3.3-2.7,4.9c0.1,0,0.2,0,0.3,0.1c0.7-0.8,1.2-1.7,2-2.5s1.7-1.6,2.7-2.4
				c1-0.7,2.2-1.4,3.4-2c-3.8,3.6-7.3,7.2-6.6,11.9c-7.1-0.2-14.2-0.4-21.5-0.6c0.8-3.6-0.2-7.1-1.9-10.6c2.3,2.9,3.7,5.9,4.7,9
				c0.5-2.6-0.5-5.1-1.6-7.7C527.1,468.7,528.6,471.4,529.4,474.3z"/>
			<path class="st10" d="M105.3,400.9c-0.6-0.3-2.6,0.3-3.1,1.1c-0.5,0.8-0.6,1.6-0.3,4.8c0.2,3.2,0.6,8.8,0,11
				c-0.6,2.1-3.3,1.7-3.3,1.7s1.4-31.2,1.4-34.1s-0.6-5.8-2.1-5.5c-1.4,0.3-4.3,3.1-4.7,4.7c-0.3,1.5-0.3,6.1-0.1,9.9
				c0.2,3.8,1.1,21.1,1.1,21.1s-2.9-0.5-3.5-1.2c-0.4-0.5-1-1.3-0.6-3.5s1-8.4,1-9.9s-1.1-4.3-2.6-4s-2.6,1.8-2.7,4
				s0.6,11.4,1.1,12.8c0.6,1.8,3,3,7.4,3.2l0.8,18.4H98l0.9-14.3c6.9,0,7.6-8.6,7.9-12.7C106.9,404.3,105.9,401.2,105.3,400.9z"/>
			<path class="st10" d="M525.1,415.4c1.5,0.5,3.4,5.3,3.1,7.5c-0.3,2.2-0.4,13.4,0,15.6s3.4,2.9,3.4,2.9s-0.9-21.3-0.7-26.5
				c0.2-5.7,5.6-8.6,8-7.6s5.8,4.3,5.7,10.3s-1.9,35.3-1.9,35.3c2.2-0.5,4.5-2.6,4.5-4.2s-0.7-10.7-0.7-15.5s2.6-7.1,3.9-6.5
				c1.4,0.6,3.3,2.8,3.3,6.4s-1.5,15.7-3.8,19.4c-2.3,3.7-7.9,4-7.9,4l-1.9,20.1H533l-1.5-32.4c-3.3-0.6-7.3-2.8-8.4-5.8
				c-1.1-2.9-1.8-11.3-2.3-16.3C520.3,417.1,523.6,414.9,525.1,415.4z"/>
			<path class="st10" d="M713.7,389.1c-1.6-0.1-3.4,1.5-3.2,3.8c0.1,2.3,0,10.3,0.1,14s-3.1,2.1-3.1,0.5s-0.4-17.7,0.3-23
				s0.6-7.9-0.6-8.1c-1.1-0.2-3.8,0.9-3.8,4.8s0.4,17.2,0.6,20.7c0.1,3.4-0.4,3.9-1.4,3.9s-1.3-1.7-1.3-5.3s0.1-35.3,0.3-38.1
				c0.1-2.8-1.3-5.1-2.4-5.1s-2.3,2-2.1,5.5c0.1,3.6,1.8,36.4,2,42.1c0.1,5.7-1.6,5.5-2.4,5.5c-0.8,0-0.8-1.5-1-3.4
				c-0.2-2-0.1-17.1,0.1-19.9c0.3-2.8-0.6-4.7-2.5-4.2c-2,0.5-2.1,2.5-2,7.9s1.2,21.2,2.4,22.3c1.2,1,4.8,1,5.6,2.8
				s0.4,22.5,0.4,22.5l5.4-0.1c0,0,0.7-24.3,0.7-25.2c0-0.9,2.8-0.8,5.5-1.1c2.7-0.4,2.9-6.6,3.4-11.5
				C715.2,395.2,715.2,389.3,713.7,389.1z"/>
			
				<ellipse transform="matrix(6.189539e-02 -0.9981 0.9981 6.189539e-02 -356.6667 473.7581)" class="st10" cx="73.7" cy="426.6" rx="6.3" ry="11.9"/>
			<path class="st10" d="M64,425.4c0.2,2.2-1.9,4.1-4.6,4.3c-2.7,0.2-5.1-1.4-5.2-3.5c-0.2-2.2,1.9-4.1,4.6-4.3
				C61.5,421.7,63.8,423.3,64,425.4z"/>
			<path class="st10" d="M147.7,442.1c-0.6,2.1-8.2,1.8-17-0.6s-15.5-6-15-8.1s8.2-1.8,17,0.6C141.6,436.4,148.3,440.1,147.7,442.1z
				"/>
			<path class="st10" d="M398.6,448.8c0,2.9-6.1,5-13.6,4.9c-7.5-0.2-13.5-2.6-13.4-5.5c0-2.9,6.1-5,13.6-4.9
				C392.6,443.5,398.6,445.9,398.6,448.8z"/>
			<path class="st10" d="M413.5,449.7c-0.1,1.3-3,2.1-6.4,1.7c-3.5-0.4-6.2-1.8-6.1-3.1c0.1-1.3,3-2.1,6.4-1.7
				C410.9,447,413.6,448.4,413.5,449.7z"/>
			<path class="st10" d="M418,450.7c-0.1,1.1-1.5,1.9-3.1,1.7c-1.6-0.2-2.8-1.3-2.7-2.4s1.5-1.9,3.1-1.7S418.1,449.5,418,450.7z"/>
			<path class="st10" d="M593.8,472.5c0.2,5-7,9.2-16,9.5s-16.4-3.5-16.5-8.5c-0.2-5,7-9.2,16-9.5
				C586.2,463.7,593.6,467.5,593.8,472.5z"/>
			<ellipse class="st10" cx="558.4" cy="474.1" rx="6.2" ry="4.4"/>
			<path class="st10" d="M672.9,450.9c0.8,2.7-3,6.2-8.6,7.8c-5.5,1.6-10.6,0.7-11.4-1.9c-0.8-2.7,3-6.2,8.6-7.8
				C667,447.3,672.1,448.2,672.9,450.9z"/>
			<path class="st10" d="M680.1,445.7c0.5,1.8-2,4.1-5.8,5.2c-3.7,1.1-7.1,0.5-7.7-1.3c-0.5-1.8,2-4.1,5.8-5.2
				C676.1,443.3,679.5,443.9,680.1,445.7z"/>
			<path class="st10" d="M650.2,459.2c0.5,1.6-1.8,3.6-5.1,4.6s-6.3,0.5-6.7-1.1c-0.5-1.6,1.8-3.6,5.1-4.6
				C646.7,457.1,649.8,457.6,650.2,459.2z"/>
		</g>
		<g>
			<path class="st11" d="M711,445.3c-45.9,3.8-137.6,28.4-173.2,32.3c-35.6,3.8-98.3-7.7-153.5-20s-119.8-3.8-173.2,10.8
				c-53.4,14.6-155.4,10.8-180.6,0.8c-25.3-10-52.4-10.8-52.4-10.8l2.8,64.5h796.5v-73C777.5,449.9,756.9,441.5,711,445.3z"/>
			<path class="st11" d="M260.8,443.8c-4.3,5.4-7.7,11-8.3,17.1c1.5-3,2.9-5.9,4.3-8.9c0.1,0,0.2,0,0.3,0.1
				c-0.7,2.1-1.4,4.2-2.2,6.4c0.1,0,0.3,0,0.4,0.1c0.6-1.2,1.2-2.4,1.9-3.5c0.8-1.2,1.7-2.4,2.8-3.6c1-1.1,2.1-2.1,3.4-3.1
				c-2.3,3.3-4.4,6.5-5.3,10.1c0.4-0.5,0.7-0.9,1-1.3c-0.4,2-0.7,4-1.1,6c0.1,0,0.3,0,0.4,0c0.7-2.4,1.4-4.8,2.1-7.2h0.1
				c-0.1,2.8-0.3,5.5-0.5,8.4c-9.2,1.1-18.7,2.1-28,3.2c-0.7-2.6-1.4-5.1-2.1-7.6l0.1-0.1c1.1,2.1,2.3,4.2,3.4,6.2
				c0.1,0,0.2-0.1,0.4-0.1c-0.8-1.9-1.7-3.9-2.6-5.9c0.9,0.9,1.8,1.8,2.7,2.7c0.1,0,0.3-0.1,0.4-0.1c-1.1-2.7-2.1-5.3-3.2-8
				c0,0,0.1,0,0.1-0.1c0.8,1.1,1.6,2.2,2.3,3.4c0.8,1.2,1.4,2.4,2.1,3.7c0.6,1.2,1.1,2.5,1.7,3.8c0.1-3.5-1.3-6.6-3-9.7
				c0.2-0.1,0.4-0.1,0.6-0.2c1.8,2.9,3.7,5.8,5.5,8.6c-0.1-4.5-2-8.8-4.5-13c0.2-0.1,0.3-0.1,0.5-0.2c2.2,3.1,4.3,6.1,6.6,9.3
				c-0.5-4.7-2.1-9.1-3.6-13.6c0.8,1.3,1.6,2.6,2.4,3.9c0.8,1.4,1.5,2.8,2.1,4.2c0.6,1.4,1.2,2.8,1.7,4.2c1.1-4.5,2.3-9.1,3.4-13.6
				c0.2,0,0.4,0,0.6,0c-0.9,4.8-1.4,9.6-0.7,14.6C253,451,256,446.9,260.8,443.8z"/>
			<path class="st11" d="M147.6,465c6.6,4.2,12.1,8.7,14.4,14.5c-2.5-2.5-5-5-7.5-7.5c-0.1,0-0.3,0.1-0.4,0.1
				c1.4,1.9,2.8,3.7,4.3,5.6c-0.2,0.1-0.3,0.1-0.5,0.2c-1.1-1-2-2-3.2-2.9c-1.3-1-2.7-1.9-4.3-2.8c-1.5-0.8-3.1-1.5-4.9-2.1
				c3.6,2.6,7,5.2,9,8.4c-0.6-0.4-1.1-0.7-1.6-1c0.9,1.8,1.9,3.7,2.9,5.6c-0.2,0-0.3,0.1-0.5,0.1c-1.5-2.2-2.9-4.3-4.4-6.5
				c0,0-0.1,0-0.1,0.1c0.9,2.6,1.8,5.3,2.7,8c11.5-1.3,23.3-2.7,34.9-4c0.2-2.7,0.4-5.3,0.6-7.9c-0.1,0-0.1,0-0.2,0
				c-0.9,2.3-1.7,4.6-2.6,6.9c-0.2,0-0.3,0-0.5,0c0.5-2.1,1.1-4.2,1.6-6.4c-0.9,1.2-1.7,2.2-2.6,3.3c-0.2,0-0.4,0-0.5,0
				c0.6-2.9,1.2-5.7,1.8-8.6h-0.1c-0.7,1.3-1.4,2.6-2,3.9c-0.6,1.4-1.1,2.7-1.6,4.1c-0.4,1.4-0.7,2.7-1.1,4.1
				c-1-3.3-0.1-6.8,1.2-10.2c-0.2,0-0.5,0-0.7,0c-1.5,3.3-3,6.6-4.5,9.7c-1-4.4,0.2-9,2.2-13.7c-0.2,0-0.4,0-0.6,0
				c-1.9,3.5-3.7,7-5.7,10.7c-0.5-4.7,0.2-9.4,0.9-14.1c-0.6,1.5-1.3,2.9-1.9,4.4c-0.6,1.5-1.1,3.1-1.5,4.6s-0.7,3-1.1,4.5
				c-2.5-4.1-5.1-8.2-7.6-12.3c-0.2,0.1-0.4,0.1-0.7,0.2c2.3,4.4,4.1,9,4.6,14C158.8,470.1,154.1,466.8,147.6,465z"/>
			<path class="st11" d="M596.9,448.3c6.6,4.2,12.1,8.7,14.4,14.5c-2.5-2.5-5-5-7.5-7.5c-0.1,0-0.3,0.1-0.4,0.1
				c1.4,1.9,2.8,3.7,4.3,5.6c-0.2,0.1-0.3,0.1-0.5,0.2c-1.1-1-2-2-3.2-2.9c-1.3-1-2.7-1.9-4.3-2.8c-1.5-0.8-3.1-1.5-4.9-2.1
				c3.6,2.6,7,5.2,9,8.4c-0.6-0.4-1.1-0.7-1.6-1c0.9,1.8,1.9,3.7,2.9,5.6c-0.2,0-0.3,0.1-0.5,0.1c-1.5-2.2-2.9-4.3-4.4-6.5
				c0,0-0.1,0-0.1,0.1c0.9,2.6,1.8,5.3,2.7,8c11.5-1.3,23.3-2.7,34.9-4c0.2-2.7,0.4-5.3,0.6-7.9c-0.1,0-0.1,0-0.2,0
				c-0.9,2.3-1.7,4.6-2.6,6.9c-0.2,0-0.3,0-0.5,0c0.5-2.1,1.1-4.2,1.6-6.4c-0.9,1.2-1.7,2.2-2.6,3.3c-0.2,0-0.4,0-0.5,0
				c0.6-2.9,1.2-5.7,1.8-8.6h-0.1c-0.7,1.3-1.4,2.6-2,3.9c-0.6,1.4-1.1,2.7-1.6,4.1c-0.4,1.4-0.7,2.7-1.1,4.1
				c-1-3.3-0.1-6.8,1.2-10.2c-0.2,0-0.5,0-0.7,0c-1.5,3.3-3,6.6-4.5,9.7c-1-4.4,0.2-9,2.2-13.7c-0.2,0-0.4,0-0.6,0
				c-1.9,3.5-3.7,7-5.7,10.7c-0.5-4.7,0.2-9.4,0.9-14.1c-0.6,1.5-1.3,2.9-1.9,4.4c-0.6,1.5-1.1,3.1-1.5,4.6s-0.7,3-1.1,4.5
				c-2.5-4.1-5.1-8.2-7.6-12.3c-0.2,0.1-0.4,0.1-0.7,0.2c2.3,4.4,4.1,9,4.6,14C608.2,453.4,603.4,450.1,596.9,448.3z"/>
			<path class="st11" d="M268.6,444.6c3.2,2.8,6,5.8,7.2,9.6c-1.3-1.7-2.5-3.3-3.8-5c-0.1,0-0.1,0.1-0.2,0.1
				c0.7,1.2,1.4,2.5,2.2,3.7c-0.1,0-0.2,0.1-0.2,0.1c-0.5-0.7-1-1.3-1.6-1.9c-0.6-0.7-1.4-1.3-2.1-1.9s-1.5-1-2.4-1.5
				c1.8,1.7,3.5,3.5,4.5,5.6c-0.3-0.2-0.5-0.5-0.8-0.7c0.5,1.2,1,2.4,1.5,3.7c-0.1,0-0.1,0-0.2,0.1c-0.7-1.4-1.5-2.8-2.2-4.2l0,0
				c0.5,1.7,1,3.4,1.4,5.2c5.5-0.6,11.2-1.3,16.7-1.9c0-1.7,0.1-3.4,0.1-5.1h-0.1c-0.4,1.5-0.7,3-1.1,4.4c-0.1,0-0.1,0-0.2,0
				c0.2-1.3,0.4-2.7,0.7-4.1c-0.4,0.7-0.8,1.4-1.2,2.1c-0.1,0-0.2,0-0.3,0c0.2-1.8,0.5-3.7,0.7-5.5c0,0,0,0-0.1,0
				c-0.3,0.8-0.6,1.6-0.9,2.5s-0.5,1.7-0.7,2.6s-0.3,1.7-0.5,2.6c-0.5-2.2-0.2-4.4,0.4-6.6c-0.1,0-0.2,0-0.4,0
				c-0.7,2.1-1.3,4.2-2,6.2c-0.6-2.9-0.1-5.8,0.8-8.8c-0.1,0-0.2,0-0.3,0c-0.8,2.2-1.7,4.5-2.5,6.8c-0.3-3.1-0.1-6.1,0.2-9.1
				c-0.3,0.9-0.6,1.9-0.8,2.8c-0.3,1-0.5,2-0.7,2.9c-0.2,1-0.3,1.9-0.4,2.9c-1.3-2.7-2.6-5.4-3.9-8.1c-0.1,0-0.2,0.1-0.3,0.1
				c1.2,2.9,2.1,5.9,2.5,9.1C274.1,448.1,271.7,445.9,268.6,444.6z"/>
			<path class="st11" d="M266.3,401.8c-1.3-0.7-5.5,0.7-6.6,2.3c-1.1,1.7-1.2,3.3-0.7,10.1c0.5,6.8,1.3,18.6,0,23
				c-1.3,4.5-6.9,3.6-6.9,3.6s3-65.6,3-71.8c0-6.2-1.4-12.3-4.3-11.6c-3,0.7-9.1,6.6-9.8,9.8c-0.7,3.2-0.7,12.8-0.2,20.7
				c0.5,8,2.2,44.5,2.2,44.5s-6-1.1-7.3-2.5c-0.8-1-2.1-2.7-1.4-7.3c0.7-4.6,2.2-17.6,2.2-20.8s-2.4-9.1-5.6-8.4
				c-3.2,0.7-5.5,3.9-5.7,8.4c-0.2,4.6,1.2,23.9,2.3,27c1.3,3.8,6.2,6.2,15.5,6.7l1.6,38.7h6.2l1.8-30.2c14.6,0,15.9-18.1,16.6-26.7
				C269.8,409,267.6,402.5,266.3,401.8z"/>
			<path class="st11" d="M182,430.6c-1.9-0.1-4.2,1.5-4,3.8s0,10.4,0.2,14.1s-3.9,2.1-3.9,0.5s-0.5-17.8,0.4-23.1
				c0.9-5.3,0.7-7.9-0.7-8.2c-1.4-0.2-4.8,0.9-4.8,4.8c0,4,0.5,17.3,0.7,20.8s-0.5,4-1.8,4s-1.6-1.7-1.6-5.3
				c0-3.6,0.2-35.5,0.4-38.3s-1.6-5.1-3-5.1s-2.8,2-2.6,5.6s2.3,36.6,2.5,42.3c0.2,5.7-1.9,5.6-3,5.6s-1-1.5-1.2-3.5
				c-0.3-2-0.2-17.2,0.2-20.1c0.4-2.8-0.7-4.7-3.2-4.2s-2.6,2.5-2.5,7.9c0.2,5.4,1.5,21.4,3,22.4c1.5,1.1,6,1,7,2.8
				c1.1,1.9,0.5,22.6,0.5,22.6l6.7-0.1c0,0,0.9-24.4,0.9-25.3s3.5-0.8,6.9-1.2c3.3-0.4,3.6-6.7,4.2-11.6
				C183.8,436.8,183.9,430.7,182,430.6z"/>
			
				<ellipse transform="matrix(6.189606e-02 -0.9981 0.9981 6.189606e-02 -371.5107 561.2827)" class="st11" cx="112.8" cy="478.3" rx="9" ry="16.9"/>
			<path class="st11" d="M475.4,472.6c-0.3,4.8-13.5,7.8-29.4,6.9c-16-1-28.6-5.7-28.3-10.4c0.3-4.8,13.5-7.8,29.4-6.9
				S475.7,467.8,475.4,472.6z"/>
			<path class="st11" d="M501.2,479.1c-0.3,4.8-8.1,8.2-17.3,7.6c-9.3-0.6-16.6-4.9-16.3-9.7c0.3-4.8,8.1-8.2,17.3-7.6
				C494.2,470,501.5,474.4,501.2,479.1z"/>
			<path class="st11" d="M405.7,462.3c-0.6,3.2-6.1,5-12.4,3.8c-6.3-1.1-10.9-4.6-10.3-7.9c0.6-3.2,6.1-5,12.4-3.8
				C401.7,455.5,406.3,459,405.7,462.3z"/>
			<ellipse class="st11" cx="89.9" cy="478.6" rx="11.9" ry="6.3"/>
		</g>
	</g>
</g>
<g id="DESIGNED_BY_FREEPIK_1_">
</g>
</svg>
