<?xml version="1.0" encoding="utf-8"?>
<!-- Generator: Adobe Illustrator 22.0.0, SVG Export Plug-In . SVG Version: 6.00 Build 0)  -->
<svg version="1.1" id="Layer_1" xmlns="http://www.w3.org/2000/svg" xmlns:xlink="http://www.w3.org/1999/xlink" x="0px" y="0px"
	 viewBox="0 0 600 6282.4" style="enable-background:new 0 0 600 6282.4;" xml:space="preserve">
<style type="text/css">
	.st0{fill:url(#SVGID_1_);}
	.st1{fill:url(#SVGID_2_);}
	.st2{fill:url(#SVGID_3_);}
	.st3{fill:url(#SVGID_4_);}
	.st4{fill:url(#SVGID_5_);}
	.st5{fill:url(#SVGID_6_);}
	.st6{fill:url(#SVGID_7_);}
	.st7{fill:url(#SVGID_8_);}
	.st8{fill:url(#SVGID_9_);}
	.st9{fill:url(#SVGID_10_);}
	.st10{fill:url(#SVGID_11_);}
	.st11{fill:url(#SVGID_12_);}
	.st12{fill:url(#SVGID_13_);}
	.st13{fill:url(#SVGID_14_);}
	.st14{fill:url(#SVGID_15_);}
	.st15{fill:url(#SVGID_16_);}
	.st16{fill:url(#SVGID_17_);}
	.st17{fill:url(#SVGID_18_);}
	.st18{fill:url(#SVGID_19_);}
	.st19{fill:url(#SVGID_20_);}
	.st20{fill:url(#SVGID_21_);}
	.st21{fill:url(#SVGID_22_);}
	.st22{fill:url(#SVGID_23_);}
	.st23{fill:url(#SVGID_24_);}
	.st24{fill:url(#SVGID_25_);}
	.st25{fill:url(#SVGID_26_);}
	.st26{opacity:0.6;fill:url(#SVGID_27_);enable-background:new    ;}
	.st27{opacity:0.8;fill:url(#SVGID_28_);enable-background:new    ;}
	.st28{opacity:0.4;fill:url(#SVGID_29_);enable-background:new    ;}
	.st29{opacity:0.8;fill:url(#SVGID_30_);enable-background:new    ;}
	.st30{opacity:0.72;fill:url(#SVGID_31_);enable-background:new    ;}
	.st31{opacity:0.48;fill:url(#SVGID_32_);enable-background:new    ;}
	.st32{opacity:0.6;fill:url(#SVGID_33_);enable-background:new    ;}
</style>
<linearGradient id="SVGID_1_" gradientUnits="userSpaceOnUse" x1="299" y1="1004.6031" x2="299" y2="3675.5618">
	<stop  offset="0" style="stop-color:#3DD6E2"/>
	<stop  offset="1" style="stop-color:#FFFFFF"/>
</linearGradient>
<rect x="-1" y="441.4" class="st0" width="600" height="5841"/>
<linearGradient id="SVGID_2_" gradientUnits="userSpaceOnUse" x1="300" y1="5891.6636" x2="300" y2="6254.0435" gradientTransform="matrix(1 0 0 -1 0 6282)">
	<stop  offset="0" style="stop-color:#3DD6E2"/>
	<stop  offset="8.766034e-02" style="stop-color:#37C9D8"/>
	<stop  offset="0.2949" style="stop-color:#2AAFC4"/>
	<stop  offset="0.5099" style="stop-color:#219DB5"/>
	<stop  offset="0.7358" style="stop-color:#1C93AD"/>
	<stop  offset="0.9902" style="stop-color:#1A8FAA"/>
</linearGradient>
<rect class="st1" width="600" height="483.3"/>
<linearGradient id="SVGID_3_" gradientUnits="userSpaceOnUse" x1="-96.1504" y1="-3559.7712" x2="218.1067" y2="-3559.7712" gradientTransform="matrix(1 0 0 1 0 5682)">
	<stop  offset="0" style="stop-color:#FDD100"/>
	<stop  offset="1" style="stop-color:#FB7E1A"/>
</linearGradient>
<path class="st2" d="M207.6,2155.5l-91.9-134c-14.6-21.3-40.9-31-65.5-26.3c-17.2,2.5-33.2,11.7-43.5,26.7l-4,5.9l-88.1,125.7
	c-9,12.8-12.2,27.7-10.2,42c3.2,30.8,30.5,54.9,63.6,54.9c22.1,0,41.6-10.7,53.1-27l40.5-58.3c0,0-0.2-0.2-0.5-0.6l0.3-0.5
	l40.1,58.5c12.2,17.8,32.5,27.4,53.1,27.4c12,0,24.1-3.3,34.9-10C218.8,2221.4,226.9,2183.6,207.6,2155.5z"/>
<linearGradient id="SVGID_4_" gradientUnits="userSpaceOnUse" x1="-73.4002" y1="-5226.9102" x2="195.3566" y2="-5226.9102" gradientTransform="matrix(1 0 0 1 0 5682)">
	<stop  offset="0" style="stop-color:#FDD100"/>
	<stop  offset="1" style="stop-color:#FB7E1A"/>
</linearGradient>
<path class="st3" d="M186.4,483.5l-78.6-114.6c-12.5-18.3-35-26.5-56-22.5c-14.7,2.2-28.4,10-37.2,22.9l-3.4,5l-75.4,107.5
	c-7.7,10.9-10.4,23.7-8.7,35.9c2.7,26.4,26.1,47,54.4,47c18.9,0,35.6-9.2,45.4-23.1l34.6-49.9c0,0-0.2-0.2-0.4-0.5l0.3-0.4l34.3,50
	c10.4,15.2,27.8,23.5,45.4,23.5c10.3,0,20.6-2.8,29.8-8.6C196,539.9,202.9,507.6,186.4,483.5z"/>
<linearGradient id="SVGID_5_" gradientUnits="userSpaceOnUse" x1="396.5417" y1="-2813.1592" x2="695.1567" y2="-2813.1592" gradientTransform="matrix(1 0 0 1 0 5682)">
	<stop  offset="0" style="stop-color:#FB0A87"/>
	<stop  offset="1" style="stop-color:#A408B0"/>
</linearGradient>
<path class="st4" d="M685.2,2900.4l-87.4-127.3c-13.9-20.3-38.9-29.4-62.2-25c-16.3,2.4-31.5,11.1-41.3,25.4l-3.8,5.6l-83.7,119.4
	c-8.5,12.1-11.5,26.4-9.7,39.9c3,29.3,29,52.2,60.4,52.2c21,0,39.5-10.2,50.4-25.6l38.5-55.4c0,0-0.1-0.2-0.5-0.6l0.4-0.5l38.1,55.6
	c11.6,16.9,30.9,26.1,50.5,26.1c11.4,0,22.9-3.1,33.1-9.5C695.8,2963.1,703.5,2927.2,685.2,2900.4z"/>
<linearGradient id="SVGID_6_" gradientUnits="userSpaceOnUse" x1="262.2217" y1="-1693.8278" x2="847.2182" y2="-1693.8278" gradientTransform="matrix(1 0 0 1 0 5682)">
	<stop  offset="0" style="stop-color:#FB0A87"/>
	<stop  offset="1" style="stop-color:#A408B0"/>
</linearGradient>
<path class="st5" d="M827.7,4050.1l-171.1-249.4c-27.3-39.7-76.1-57.6-121.9-48.9c-32,4.7-61.8,21.8-81,49.8l-7.5,10.9l-164,233.9
	c-16.7,23.8-22.6,51.6-19,78.1c5.9,57.4,56.7,102.2,118.4,102.2c41.1,0,77.4-19.9,98.8-50.2l75.3-108.5c0,0-0.3-0.4-1-1.1l0.6-0.9
	l74.7,108.8c22.7,33.1,60.4,51.1,98.9,51.1c22.3,0,44.9-6.1,64.9-18.7C848.5,4172.8,863.6,4102.4,827.7,4050.1z"/>
<linearGradient id="SVGID_7_" gradientUnits="userSpaceOnUse" x1="-170.2727" y1="-2200.5093" x2="316.696" y2="-2200.5093" gradientTransform="matrix(1 0 0 1 0 5682)">
	<stop  offset="0" style="stop-color:#FB0A87"/>
	<stop  offset="1" style="stop-color:#FB7E1A"/>
</linearGradient>
<path class="st6" d="M300.5,3533L158,3325.4c-22.7-33.1-63.3-48-101.5-40.7c-26.6,3.9-51.4,18.2-67.4,41.4l-6.2,9.1L-153.6,3530
	c-13.9,19.8-18.8,43-15.8,65c5,47.8,47.2,85.1,98.6,85.1c34.2,0,64.4-16.6,82.2-41.8l62.7-90.4c0,0-0.3-0.3-0.8-1l0.5-0.8l62.2,90.6
	c18.9,27.6,50.3,42.5,82.3,42.5c18.6,0,37.4-5,54-15.6C317.8,3635.2,330.4,3576.6,300.5,3533z"/>
<linearGradient id="SVGID_8_" gradientUnits="userSpaceOnUse" x1="340.3163" y1="-5185.7339" x2="599.7953" y2="-5185.7339" gradientTransform="matrix(1 0 0 1 0 5682)">
	<stop  offset="0" style="stop-color:#02A0D0"/>
	<stop  offset="1" style="stop-color:#10D683"/>
</linearGradient>
<path class="st7" d="M591.2,523.7l-75.9-110.6c-12.1-17.6-33.8-25.6-54.1-21.7c-14.2,2.1-27.4,9.7-35.9,22.1l-3.3,4.8l-72.8,103.8
	c-7.4,10.6-10,22.9-8.4,34.7c2.6,25.5,25.2,45.4,52.5,45.4c18.3,0,34.3-8.8,43.8-22.3l33.4-48.2c0,0-0.1-0.2-0.4-0.5l0.3-0.4
	l33.1,48.3c10.1,14.7,26.8,22.7,43.9,22.7c9.9,0,19.9-2.7,28.8-8.3C600.4,578.1,607.1,546.9,591.2,523.7z"/>
<linearGradient id="SVGID_9_" gradientUnits="userSpaceOnUse" x1="-102.8236" y1="-1455.2999" x2="224.78" y2="-1455.2999" gradientTransform="matrix(1 0 0 1 0 5682)">
	<stop  offset="0" style="stop-color:#02A0D0"/>
	<stop  offset="1" style="stop-color:#10D683"/>
</linearGradient>
<path class="st8" d="M213.9,4260.4l-95.8-135.8c-15.3-21.6-42.6-31.4-68.3-26.6c-17.9,2.5-34.6,11.9-45.3,27.1l-4.2,5.9l-91.9,127.4
	c-9.3,13-12.7,28.1-10.6,42.5c3.3,31.2,31.8,55.7,66.3,55.7c23,0,43.3-10.8,55.3-27.3l42.2-59.1c0,0-0.2-0.2-0.5-0.6l0.4-0.5
	l41.8,59.3c12.7,18,33.8,27.8,55.4,27.8c12.5,0,25.1-3.3,36.4-10.2C225.5,4327.2,234,4288.9,213.9,4260.4z"/>
<linearGradient id="SVGID_10_" gradientUnits="userSpaceOnUse" x1="380.1139" y1="-3864.8" x2="799.0016" y2="-3864.8" gradientTransform="matrix(1 0 0 1 0 5682)">
	<stop  offset="0" style="stop-color:#FDD100"/>
	<stop  offset="1" style="stop-color:#FB7E1A"/>
</linearGradient>
<path class="st9" d="M785,1861.5l-122.5-178.6c-19.5-28.5-54.5-41.3-87.3-35c-22.9,3.4-44.3,15.6-58,35.6l-5.4,7.8l-117.4,167.5
	c-11.9,17-16.2,37-13.6,56c4.3,41.1,40.6,73.2,84.8,73.2c29.5,0,55.4-14.3,70.7-35.9l54-77.7c0,0-0.2-0.3-0.7-0.8l0.5-0.7l53.5,77.9
	c16.3,23.7,43.3,36.6,70.8,36.6c16,0,32.1-4.3,46.5-13.4C799.9,1949.3,810.7,1899,785,1861.5z"/>
<linearGradient id="SVGID_11_" gradientUnits="userSpaceOnUse" x1="234.5219" y1="-5098.5112" x2="322.0821" y2="-5098.5112" gradientTransform="matrix(1 0 0 1 0 5682)">
	<stop  offset="0" style="stop-color:#FB0A87"/>
	<stop  offset="1" style="stop-color:#A408B0"/>
</linearGradient>
<path class="st10" d="M319.2,592.7l-25.6-37.3c-4.1-5.9-11.4-8.6-18.2-7.3c-4.8,0.7-9.2,3.3-12.1,7.5l-1.1,1.6l-24.5,35
	c-2.5,3.6-3.4,7.7-2.8,11.7c0.9,8.6,8.5,15.3,17.7,15.3c6.2,0,11.6-3,14.8-7.5l11.3-16.2c0,0,0-0.1-0.1-0.2l0.1-0.1l11.2,16.3
	c3.4,5,9,7.6,14.8,7.6c3.3,0,6.7-0.9,9.7-2.8C322.3,611.1,324.6,600.6,319.2,592.7z"/>
<linearGradient id="SVGID_12_" gradientUnits="userSpaceOnUse" x1="-149.7123" y1="-4844.8296" x2="155.332" y2="-4844.8296" gradientTransform="matrix(1 0 0 1 0 5682)">
	<stop  offset="0" style="stop-color:#FB0A87"/>
	<stop  offset="1" style="stop-color:#FB7E1A"/>
</linearGradient>
<path class="st11" d="M145.1,869.4l-89.2-130c-14.2-20.7-39.7-30-63.6-25.5c-16.7,2.4-32.2,11.4-42.2,26l-3.9,5.7l-85.5,122
	c-8.7,12.4-11.8,26.9-9.9,40.7c3.1,29.9,29.6,53.3,61.7,53.3c21.4,0,40.4-10.4,51.5-26.2l39.3-56.6c0,0-0.2-0.2-0.5-0.6l0.3-0.5
	L42,934.5c11.9,17.3,31.5,26.6,51.6,26.6c11.6,0,23.4-3.2,33.8-9.7C156,933.3,163.9,896.7,145.1,869.4z"/>
<linearGradient id="SVGID_13_" gradientUnits="userSpaceOnUse" x1="2.8098" y1="-3929.8491" x2="162.1389" y2="-3929.8491" gradientTransform="matrix(1 0 0 1 0 5682)">
	<stop  offset="0" style="stop-color:#FB0A87"/>
	<stop  offset="1" style="stop-color:#FB7E1A"/>
</linearGradient>
<path class="st12" d="M156.9,1768.9l-46.6-67.9c-7.4-10.8-20.7-15.7-33.2-13.3c-8.7,1.3-16.8,5.9-22.1,13.6l-2,3L8.3,1768
	c-4.5,6.5-6.2,14.1-5.2,21.3c1.6,15.6,15.4,27.9,32.3,27.9c11.2,0,21.1-5.4,26.9-13.7l20.5-29.7c0,0-0.1-0.1-0.3-0.3l0.2-0.3
	l20.3,29.7c6.2,9,16.5,13.9,26.9,13.9c6.1,0,12.2-1.6,17.7-5.1C162.5,1802.3,166.6,1783.2,156.9,1768.9z"/>
<linearGradient id="SVGID_14_" gradientUnits="userSpaceOnUse" x1="879.4711" y1="-2540.5244" x2="1052.1249" y2="-2540.5244" gradientTransform="matrix(-1 0 0 1 1426.3827 5682)">
	<stop  offset="0" style="stop-color:#FDD100"/>
	<stop  offset="1" style="stop-color:#FB7E1A"/>
</linearGradient>
<path class="st13" d="M380,3159.7l50.5-73.6c8-11.7,22.5-17,36-14.4c9.4,1.4,18.2,6.4,23.9,14.7l2.2,3.2l48.4,69
	c4.9,7,6.7,15.2,5.6,23.1c-1.8,16.9-16.7,30.2-34.9,30.2c-12.1,0-22.8-5.9-29.2-14.8l-22.2-32c0,0,0.1-0.1,0.3-0.3l-0.2-0.3
	l-22,32.1c-6.7,9.8-17.8,15.1-29.2,15.1c-6.6,0-13.2-1.8-19.2-5.5C373.9,3196,369.4,3175.2,380,3159.7z"/>
<linearGradient id="SVGID_15_" gradientUnits="userSpaceOnUse" x1="750.498" y1="-4557.7432" x2="923.1518" y2="-4557.7432" gradientTransform="matrix(-1 0 0 1 1426.3827 5682)">
	<stop  offset="0" style="stop-color:#FDD100"/>
	<stop  offset="1" style="stop-color:#FB7E1A"/>
</linearGradient>
<path class="st14" d="M509,1142.5l50.5-73.6c8-11.7,22.5-17,36-14.4c9.4,1.4,18.2,6.4,23.9,14.7l2.2,3.2l48.4,69
	c4.9,7,6.7,15.2,5.6,23.1c-1.8,16.9-16.7,30.2-34.9,30.2c-12.1,0-22.8-5.9-29.2-14.8l-22.2-32c0,0,0.1-0.1,0.3-0.3l-0.2-0.3
	l-22,32.1c-6.7,9.8-17.8,15.1-29.2,15.1c-6.6,0-13.2-1.8-19.2-5.5C502.9,1178.7,498.4,1157.9,509,1142.5z"/>
<linearGradient id="SVGID_16_" gradientUnits="userSpaceOnUse" x1="1258.1873" y1="-2786.8162" x2="1421.2843" y2="-2786.8162" gradientTransform="matrix(-1 0 0 1 1426.3827 5682)">
	<stop  offset="0" style="stop-color:#FB0A87"/>
	<stop  offset="1" style="stop-color:#A408B0"/>
</linearGradient>
<path class="st15" d="M10.7,2912.4l47.7-69.5c7.6-11.1,21.2-16.1,34-13.6c8.9,1.3,17.2,6.1,22.6,13.9l2.1,3l45.7,65.2
	c4.6,6.6,6.3,14.4,5.3,21.8c-1.7,16-15.8,28.5-33,28.5c-11.5,0-21.6-5.5-27.5-14l-21-30.2c0,0,0.1-0.1,0.3-0.3l-0.2-0.3l-20.8,30.3
	c-6.3,9.2-16.8,14.2-27.5,14.2c-6.2,0-12.5-1.7-18.1-5.2C4.9,2946.6,0.7,2927,10.7,2912.4z"/>
<linearGradient id="SVGID_17_" gradientUnits="userSpaceOnUse" x1="908.7885" y1="-3193.3162" x2="1071.8856" y2="-3193.3162" gradientTransform="matrix(-1 0 0 1 1426.3827 5682)">
	<stop  offset="0" style="stop-color:#FB0A87"/>
	<stop  offset="1" style="stop-color:#A408B0"/>
</linearGradient>
<path class="st16" d="M360.1,2505.9l47.7-69.5c7.6-11.1,21.2-16.1,34-13.6c8.9,1.3,17.2,6.1,22.6,13.9l2.1,3l45.7,65.2
	c4.6,6.6,6.3,14.4,5.3,21.8c-1.7,16-15.8,28.5-33,28.5c-11.5,0-21.6-5.5-27.5-14l-21-30.2c0,0,0.1-0.1,0.3-0.3l-0.2-0.3l-20.8,30.3
	c-6.3,9.2-16.8,14.2-27.5,14.2c-6.2,0-12.5-1.7-18.1-5.2C354.3,2540.1,350.1,2520.5,360.1,2505.9z"/>
<linearGradient id="SVGID_18_" gradientUnits="userSpaceOnUse" x1="903.1562" y1="-4844.8296" x2="1009.4976" y2="-4844.8296" gradientTransform="matrix(-1 0 0 1 1426.3827 5682)">
	<stop  offset="0" style="stop-color:#FB0A87"/>
	<stop  offset="1" style="stop-color:#FB7E1A"/>
</linearGradient>
<path class="st17" d="M420.4,848.4l31.1-45.3c5-7.2,13.8-10.5,22.2-8.9c5.8,0.9,11.2,4,14.7,9l1.4,2l29.8,42.5
	c3,4.3,4.1,9.4,3.4,14.2c-1.1,10.4-10.3,18.6-21.5,18.6c-7.5,0-14.1-3.6-18-9.1l-13.7-19.7c0,0,0.1-0.1,0.2-0.2l-0.1-0.2l-13.6,19.8
	c-4.1,6-11,9.3-18,9.3c-4.1,0-8.2-1.1-11.8-3.4C416.6,870.7,413.9,857.9,420.4,848.4z"/>
<linearGradient id="SVGID_19_" gradientUnits="userSpaceOnUse" x1="1335.8302" y1="-3317.6609" x2="1476.7992" y2="-3317.6609" gradientTransform="matrix(-1 0 0 1 1426.3827 5682)">
	<stop  offset="0" style="stop-color:#02A0D0"/>
	<stop  offset="1" style="stop-color:#10D683"/>
</linearGradient>
<path class="st18" d="M-45.7,2379.3l41.2-60.1c6.6-9.6,18.3-13.9,29.4-11.8c7.7,1.1,14.9,5.3,19.5,12l1.8,2.6l39.5,56.4
	c4,5.7,5.5,12.4,4.6,18.8c-1.4,13.8-13.7,24.6-28.5,24.6c-9.9,0-18.7-4.8-23.8-12.1l-18.2-26.2c0,0,0.1-0.1,0.2-0.3l-0.2-0.2
	l-18,26.2c-5.5,8-14.6,12.3-23.8,12.3c-5.4,0-10.8-1.5-15.6-4.5C-50.7,2408.9-54.4,2391.9-45.7,2379.3z"/>
<linearGradient id="SVGID_20_" gradientUnits="userSpaceOnUse" x1="1104.0074" y1="-4648.0234" x2="1358.0448" y2="-4648.0234" gradientTransform="matrix(-1 0 0 1 1426.3827 5682)">
	<stop  offset="0" style="stop-color:#02A0D0"/>
	<stop  offset="1" style="stop-color:#10D683"/>
</linearGradient>
<path class="st19" d="M76.8,1060.9l74.3-108.3c11.8-17.3,33-25,52.9-21.2c13.9,2,26.8,9.5,35.2,21.6l3.3,4.7l71.2,101.6
	c7.2,10.3,9.8,22.4,8.2,33.9c-2.6,24.9-24.6,44.4-51.4,44.4c-17.9,0-33.6-8.6-42.9-21.8l-32.7-47.1c0,0,0.1-0.2,0.4-0.5l-0.3-0.4
	l-32.4,47.3c-9.9,14.4-26.2,22.2-42.9,22.2c-9.7,0-19.5-2.6-28.2-8.1C67.7,1114.2,61.2,1083.7,76.8,1060.9z"/>
<linearGradient id="SVGID_21_" gradientUnits="userSpaceOnUse" x1="919.5128" y1="-2111.2061" x2="1012.2921" y2="-2111.2061" gradientTransform="matrix(-1 0 0 1 1426.3827 5682)">
	<stop  offset="0" style="stop-color:#FDD100"/>
	<stop  offset="1" style="stop-color:#FB7E1A"/>
</linearGradient>
<path class="st20" d="M417.2,3580.7l27.1-39.6c4.3-6.3,12.1-9.1,19.3-7.8c5.1,0.7,9.8,3.5,12.8,7.9l1.2,1.7l26,37.1
	c2.6,3.8,3.6,8.2,3,12.4c-0.9,9.1-9,16.2-18.8,16.2c-6.5,0-12.3-3.2-15.7-8l-11.9-17.2c0,0,0.1-0.1,0.2-0.2l-0.1-0.1l-11.8,17.3
	c-3.6,5.3-9.6,8.1-15.7,8.1c-3.5,0-7.1-1-10.3-3C413.9,3600.2,411.5,3589,417.2,3580.7z"/>
<linearGradient id="SVGID_22_" gradientUnits="userSpaceOnUse" x1="782.7073" y1="-5350.4741" x2="870.2676" y2="-5350.4741" gradientTransform="matrix(-1 0 0 1 1426.3827 5682)">
	<stop  offset="0" style="stop-color:#FB0A87"/>
	<stop  offset="1" style="stop-color:#A408B0"/>
</linearGradient>
<path class="st21" d="M559,340.7l25.6-37.3c4.1-5.9,11.4-8.6,18.2-7.3c4.8,0.7,9.2,3.3,12.1,7.5l1.1,1.6l24.5,35
	c2.5,3.6,3.4,7.7,2.8,11.7c-0.9,8.6-8.5,15.3-17.7,15.3c-6.2,0-11.6-3-14.8-7.5l-11.3-16.2c0,0,0-0.1,0.1-0.2l-0.1-0.1l-11.2,16.3
	c-3.4,5-9,7.6-14.8,7.6c-3.3,0-6.7-0.9-9.7-2.8C555.9,359,553.6,348.5,559,340.7z"/>
<linearGradient id="SVGID_23_" gradientUnits="userSpaceOnUse" x1="1044.1082" y1="-3530.0964" x2="1101.25" y2="-3530.0964" gradientTransform="matrix(-1 0 0 1 1426.3827 5682)">
	<stop  offset="0" style="stop-color:#FB0A87"/>
	<stop  offset="1" style="stop-color:#FB7E1A"/>
</linearGradient>
<path class="st22" d="M327.1,2158l16.7-24.4c2.7-3.9,7.4-5.6,11.9-4.8c3.1,0.5,6,2.1,7.9,4.9l0.7,1.1l16,22.8c1.6,2.3,2.2,5,1.9,7.6
	c-0.6,5.6-5.5,10-11.6,10c-4,0-7.6-1.9-9.6-4.9l-7.4-10.6c0,0,0,0,0.1-0.1l-0.1-0.1l-7.3,10.6c-2.2,3.2-5.9,5-9.7,5
	c-2.2,0-4.4-0.6-6.3-1.8C325,2170,323.5,2163.2,327.1,2158z"/>
<linearGradient id="SVGID_24_" gradientUnits="userSpaceOnUse" x1="1180.4923" y1="-4313.937" x2="1418.1643" y2="-4313.937" gradientTransform="matrix(-1 0 0 1 1426.3827 5682)">
	<stop  offset="0" style="stop-color:#FB0A87"/>
	<stop  offset="1" style="stop-color:#FB7E1A"/>
</linearGradient>
<path class="st23" d="M16.2,1393.2l69.5-101.4c11.1-16.2,30.9-23.4,49.5-19.9c13,1.9,25.1,8.9,32.9,20.2l3,4.4l66.7,95.1
	c6.8,9.7,9.2,21,7.7,31.8c-2.4,23.3-23,41.6-48.1,41.6c-16.7,0-31.5-8.1-40.1-20.4l-30.6-44.1c0,0,0.1-0.2,0.4-0.5l-0.3-0.4
	l-30.4,44.2c-9.2,13.5-24.6,20.8-40.2,20.8c-9.1,0-18.2-2.5-26.4-7.6C7.7,1443.1,1.6,1414.5,16.2,1393.2z"/>
<linearGradient id="SVGID_25_" gradientUnits="userSpaceOnUse" x1="436.7623" y1="-4216.9541" x2="609.6907" y2="-4216.9541" gradientTransform="matrix(1 0 0 1 0 5682)">
	<stop  offset="0" style="stop-color:#02A0D0"/>
	<stop  offset="1" style="stop-color:#10D683"/>
</linearGradient>
<path class="st24" d="M603.9,1483.4l-50.6-73.7c-8.1-11.8-22.5-17-36-14.5c-9.5,1.4-18.3,6.5-23.9,14.7l-2.2,3.2l-48.5,69.2
	c-4.9,7-6.7,15.3-5.6,23.1c1.8,17,16.8,30.2,35,30.2c12.2,0,22.9-5.9,29.2-14.8l22.3-32.1c0,0-0.1-0.1-0.3-0.3l0.2-0.3l22.1,32.2
	c6.7,9.8,17.9,15.1,29.2,15.1c6.6,0,13.3-1.8,19.2-5.5C610.1,1519.7,614.6,1498.9,603.9,1483.4z"/>
<linearGradient id="SVGID_26_" gradientUnits="userSpaceOnUse" x1="380.2389" y1="-5297.9883" x2="421.2464" y2="-5297.9883" gradientTransform="matrix(1 0 0 1 0 5682)">
	<stop  offset="0" style="stop-color:#FDD100"/>
	<stop  offset="1" style="stop-color:#FB7E1A"/>
</linearGradient>
<path class="st25" d="M419.8,388.3l-12-17.5c-1.9-2.8-5.3-4-8.5-3.4c-2.2,0.3-4.3,1.5-5.7,3.5l-0.5,0.8l-11.5,16.4
	c-1.2,1.7-1.6,3.6-1.3,5.5c0.4,4,4,7.2,8.3,7.2c2.9,0,5.4-1.4,6.9-3.5l5.3-7.6c0,0,0,0-0.1-0.1v-0.1l5.2,7.6
	c1.6,2.3,4.2,3.6,6.9,3.6c1.6,0,3.1-0.4,4.6-1.3C421.3,396.9,422.4,392,419.8,388.3z"/>
<g>
	
		<linearGradient id="SVGID_27_" gradientUnits="userSpaceOnUse" x1="82.4744" y1="6124.5454" x2="82.4744" y2="6163.5161" gradientTransform="matrix(1 0 0 -1 0 6282)">
		<stop  offset="4.901960e-03" style="stop-color:#FFFFFF;stop-opacity:0"/>
		<stop  offset="6.081640e-02" style="stop-color:#FFFFFF;stop-opacity:5.674899e-02"/>
		<stop  offset="0.9902" style="stop-color:#FFFFFF"/>
	</linearGradient>
	<path class="st26" d="M32.8,157.5h100.4c0,0-4.9-12.1-17-12.9c-8-0.5-11.4,4.2-11.4,4.2s1.9-10.6-8.3-12.3
		c-10.3-1.7-16.3,5.9-16.3,5.9c2.4-12.1-8.5-24.1-23.2-23.9c-14.8,0.2-25.3,10.6-25.3,19.6c0,9,7.8,13.9,7.8,13.9
		C33.4,151.9,32.8,157.5,32.8,157.5z"/>
	
		<linearGradient id="SVGID_28_" gradientUnits="userSpaceOnUse" x1="60.9782" y1="6045.3804" x2="60.9782" y2="6064.563" gradientTransform="matrix(1 0 0 -1 0 6282)">
		<stop  offset="4.901960e-03" style="stop-color:#FFFFFF;stop-opacity:0"/>
		<stop  offset="6.081640e-02" style="stop-color:#FFFFFF;stop-opacity:5.674899e-02"/>
		<stop  offset="0.9902" style="stop-color:#FFFFFF"/>
	</linearGradient>
	<path class="st27" d="M83,230.9c0,0,1.3-4.3-3.7-5.3c-5-0.9-8,2.2-8,2.2c0.8-9-8.8-12.9-15.3-8.8c-6.5,4.2-6.1,9.9-6.1,9.9
		c-19.4-10.5-26.4,7.6-26.4,7.6h74.9C92.7,224.7,83,230.9,83,230.9z"/>
	
		<linearGradient id="SVGID_29_" gradientUnits="userSpaceOnUse" x1="421.2464" y1="6160.4604" x2="421.2464" y2="6176.3232" gradientTransform="matrix(1 0 0 -1 0 6282)">
		<stop  offset="4.901960e-03" style="stop-color:#FFFFFF;stop-opacity:0"/>
		<stop  offset="6.081640e-02" style="stop-color:#FFFFFF;stop-opacity:5.674899e-02"/>
		<stop  offset="0.9902" style="stop-color:#FFFFFF"/>
	</linearGradient>
	<path class="st28" d="M441.5,116.8c0,0,1.2-3.5-3.5-4.3c-4.7-0.8-7.3,1.8-7.3,1.8c0.8-7.4-8-10.7-14.1-7.3
		c-6.1,3.5-5.6,8.2-5.6,8.2c-17.9-8.7-24.3,6.3-24.3,6.3h69.1C450.4,111.7,441.5,116.8,441.5,116.8z"/>
	
		<linearGradient id="SVGID_30_" gradientUnits="userSpaceOnUse" x1="165.5795" y1="6087.3115" x2="165.5795" y2="6105.4355" gradientTransform="matrix(1 0 0 -1 0 6282)">
		<stop  offset="4.901960e-03" style="stop-color:#FFFFFF;stop-opacity:0"/>
		<stop  offset="6.081640e-02" style="stop-color:#FFFFFF;stop-opacity:5.674899e-02"/>
		<stop  offset="0.9902" style="stop-color:#FFFFFF"/>
	</linearGradient>
	<path class="st29" d="M190.7,191.2c0,0,1-5.8-5.8-7.5c-6.8-1.7-8.4,3.2-8.4,3.2c1.5-11-10.9-12.1-15.1-8.7c-3.5,2.8-2.8,6-2.4,7
		c-0.9-2-4.1-4.3-10.2-1.6c-6.4,2.8-5.4,8.2-5.4,8.2s-4.4-3.9-9.4-2.1c-4.9,1.8-4.7,4.9-4.7,4.9h72.6
		C199,185.9,190.7,191.2,190.7,191.2z"/>
	
		<linearGradient id="SVGID_31_" gradientUnits="userSpaceOnUse" x1="285.9183" y1="6144.7847" x2="285.9183" y2="6165.9399" gradientTransform="matrix(1 0 0 -1 0 6282)">
		<stop  offset="4.901960e-03" style="stop-color:#FFFFFF;stop-opacity:0"/>
		<stop  offset="6.081640e-02" style="stop-color:#FFFFFF;stop-opacity:5.674899e-02"/>
		<stop  offset="0.9902" style="stop-color:#FFFFFF"/>
	</linearGradient>
	<path class="st30" d="M315.4,133.2c0,0,1.2-6.8-6.8-8.8c-8-1.9-9.8,3.8-9.8,3.8c1.8-12.9-12.7-14-17.7-10.2
		c-4.1,3.2-3.3,6.9-2.8,8.2c-1-2.4-4.8-5-11.8-1.9c-7.5,3.3-6.4,9.6-6.4,9.6s-5.2-4.7-11-2.5c-5.8,2.1-5.5,5.8-5.5,5.8h84.6
		C325.2,127,315.4,133.2,315.4,133.2z"/>
	
		<linearGradient id="SVGID_32_" gradientUnits="userSpaceOnUse" x1="177.6887" y1="6156.1782" x2="177.6887" y2="6179.8628" gradientTransform="matrix(1 0 0 -1 0 6282)">
		<stop  offset="4.901960e-03" style="stop-color:#FFFFFF;stop-opacity:0"/>
		<stop  offset="6.081640e-02" style="stop-color:#FFFFFF;stop-opacity:5.674899e-02"/>
		<stop  offset="0.9902" style="stop-color:#FFFFFF"/>
	</linearGradient>
	<path class="st31" d="M148.5,125.8h56.3c0.6-1,1.5-2.1,2.8-3c-1.6-2.1-4.3-4.6-8.5-4.8c-4.9-0.3-6.9,2.5-6.9,2.5s1.2-6.4-5-7.5
		c-6.2-1-9.9,3.5-9.9,3.5c1.5-7.3-5.1-14.6-14.1-14.5c-8.9,0.1-15.4,6.4-15.4,11.9c0,5.4,4.7,8.4,4.7,8.4
		C148.8,122.4,148.5,125.8,148.5,125.8z"/>
	
		<linearGradient id="SVGID_33_" gradientUnits="userSpaceOnUse" x1="489.3235" y1="6114.436" x2="489.3235" y2="6147.1333" gradientTransform="matrix(1 0 0 -1 0 6282)">
		<stop  offset="4.901960e-03" style="stop-color:#FFFFFF;stop-opacity:0"/>
		<stop  offset="6.081640e-02" style="stop-color:#FFFFFF;stop-opacity:5.674899e-02"/>
		<stop  offset="0.9902" style="stop-color:#FFFFFF"/>
	</linearGradient>
	<path class="st32" d="M534.8,161.3c0,0,1.9-10.6-10.4-13.5c-12.3-3-15.1,5.8-15.1,5.8c2.8-20-19.6-21.7-27.3-15.7
		c-6.3,5-5,10.7-4.4,12.6c-1.7-3.6-7.4-7.7-18.3-2.8c-11.5,5.1-9.9,14.8-9.9,14.8s-8-7.1-16.9-3.9c-8.9,3.3-8.6,8.9-8.6,8.9h130.8
		C549.9,151.8,534.8,161.3,534.8,161.3z"/>
</g>
</svg>
