<?xml version="1.0" encoding="utf-8"?>
<!-- Generator: Adobe Illustrator 22.0.0, SVG Export Plug-In . SVG Version: 6.00 Build 0)  -->
<svg version="1.1" id="Layer_1" xmlns="http://www.w3.org/2000/svg" xmlns:xlink="http://www.w3.org/1999/xlink" x="0px" y="0px"
	 viewBox="0 0 600 600" style="enable-background:new 0 0 600 600;" xml:space="preserve">
<style type="text/css">
	.st0{fill:#FFFFFF;stroke:#000000;stroke-width:30;stroke-miterlimit:10;}
</style>
<g>
	<path class="st0" d="M300.7,550c-9.3,0-17.7-3.5-24.2-10.2l-184.9-183c-1.2-0.9-4.4-3.9-8.5-8.2c-3.7-3.8-9.5-10.9-17.4-21.1
		c-7.9-10.1-15.1-20.7-21.3-31.4c-6.5-11.1-12.3-24.5-17.2-39.9c-5.1-15.9-7.7-31.6-7.7-46.8c0-48.7,14.2-87.6,42.2-115.7
		s66.8-42.3,115.1-42.3c13.9,0,28.2,2.5,42.6,7.4c14,4.8,27.2,11.4,39.3,19.5c11.4,7.7,21.3,15,29.5,21.8c4.3,3.5,8.5,7.2,12.6,11
		c4.1-3.8,8.3-7.4,12.6-11c8.2-6.8,18-14,29.5-21.7c12-8.1,25.3-14.7,39.3-19.5c14.4-4.9,28.7-7.4,42.6-7.4
		c48.4,0,87.1,14.2,115.1,42.3c28,28.1,42.2,67,42.2,115.7c0,48.9-24.3,98.6-72.3,147.8L324.7,540C318.4,546.5,310,550,300.7,550z"
		/>
</g>
</svg>
