<?xml version="1.0" encoding="utf-8"?>
<!-- Generator: Adobe Illustrator 22.0.0, SVG Export Plug-In . SVG Version: 6.00 Build 0)  -->
<svg version="1.1" id="Layer_1" xmlns="http://www.w3.org/2000/svg" xmlns:xlink="http://www.w3.org/1999/xlink" x="0px" y="0px"
	 viewBox="0 0 600 600" style="enable-background:new 0 0 600 600;" xml:space="preserve">
<style type="text/css">
	.st0{fill:#878787;}
	.st1{opacity:0.3;fill:#FFFFFF;}
	.st2{fill:#B5B2AA;}
	.st3{opacity:0.1;fill:#FFFFFF;}
	.st4{opacity:9.000000e-02;}
</style>
<g>
	<path class="st0" d="M454.7,172.7c25.5-44.2,12-65.9-12.1-79.8C418.5,79,393,78.1,367.4,122.3c-16.8,29.2-20.8,80-33.8,107.6
		c-8.6,18.3-31.1,32.7-40.3,48.6c-18.5,32.1-8.7,47.7,8.8,57.8c17.5,10.1,35.9,10.7,54.4-21.3c9.2-15.9,10.4-42.6,22-59.2
		C395.9,230.8,437.9,201.9,454.7,172.7z"/>
	<path class="st1" d="M307.8,286.9c9.2-15.9,31.7-30.3,40.3-48.6c13-27.6,17-78.4,33.8-107.6c22.9-39.7,45.8-43,67.7-33.2
		c-2.2-1.6-4.5-3.1-7-4.6C418.5,79,393,78.1,367.4,122.3c-16.8,29.2-20.8,80-33.8,107.6c-8.6,18.3-31.1,32.7-40.3,48.6
		c-18.5,32.1-8.7,47.7,8.8,57.8c2.5,1.4,5,2.7,7.5,3.6C296.9,329.8,291.9,314.3,307.8,286.9z"/>
	<path class="st0" d="M263.3,437.3c19.1-33.1,61.5-44.4,94.7-25.2c33.2,19.2,44.6,61.5,25.5,94.6c-19.1,33.1-61.5,44.4-94.7,25.2
		C255.6,512.7,244.2,470.4,263.3,437.3z"/>
	<path class="st1" d="M269.3,436.4c13.9-24,44.7-32.2,68.8-18.3c24.1,13.9,32.4,44.7,18.5,68.7c-13.9,24.1-44.7,32.3-68.8,18.4
		C263.7,491.2,255.4,460.4,269.3,436.4z"/>
	<path class="st2" d="M430,505.8c-10.4-54.4,21.5-130.9,21.5-130.9l29.9-51.8c40.9-70.9,16.4-161.6-54.7-202.6
		c-71.1-41-161.9-16.9-202.8,54l-29.9,51.7c0,0-50.3,65.9-102.6,84.1c-28.4,9.9-31.5,9.6-5.4,24.6l162.7,93.9l162.7,93.9
		C437.5,537.9,435.7,535.4,430,505.8z"/>
	<path class="st3" d="M230.3,254.1l35.9-62.2c27.5-47.7,73.9-77.7,124.3-86.3c-63.3-16.9-132.4,9.5-166.6,68.8l-29.9,51.7
		c0,0-50.3,65.9-102.6,84.1c-28.4,9.9-31.5,9.6-5.4,24.6l29.2,16.9C175,326.4,230.3,254.1,230.3,254.1z"/>
	<path class="st4" d="M409.3,357.4l35.9-62.2c27.5-47.7,30.3-102.8,12.5-150.8c46.3,46.4,57.9,119.4,23.7,178.7l-29.9,51.7
		c0,0-31.9,76.5-21.5,130.9c5.6,29.5,7.5,32.1-18.6,17L382.2,506C374.3,441.4,409.3,357.4,409.3,357.4z"/>
</g>
</svg>
