<?xml version="1.0" encoding="utf-8"?>
<!-- Generator: Adobe Illustrator 22.0.0, SVG Export Plug-In . SVG Version: 6.00 Build 0)  -->
<svg version="1.1" id="Layer_1" xmlns="http://www.w3.org/2000/svg" xmlns:xlink="http://www.w3.org/1999/xlink" x="0px" y="0px"
	 viewBox="0 0 600 64.9" style="enable-background:new 0 0 600 64.9;" xml:space="preserve">
<style type="text/css">
	.st0{fill:url(#SVGID_1_);}
	.st1{fill:url(#SVGID_2_);}
	.st2{fill:url(#SVGID_3_);}
</style>
<linearGradient id="SVGID_1_" gradientUnits="userSpaceOnUse" x1="502.74" y1="54.618" x2="502.74" y2="6.6794" gradientTransform="matrix(-1 0 0 1 1005.48 0)">
	<stop  offset="0.2352" style="stop-color:#ECECEC"/>
	<stop  offset="0.4928" style="stop-color:#D8D8D8"/>
	<stop  offset="0.7697" style="stop-color:#C9C9C9"/>
	<stop  offset="1" style="stop-color:#C4C4C4"/>
</linearGradient>
<path class="st0" d="M443.7,30.2l-14-1.5c-0.6-0.1-1-0.8-0.8-1.7l2.5-12.4c0.2-0.5,0.5-0.9,0.9-0.9l97.7,2.7c0.1,0,0.1,0,0.2,0
	l31.6-5.9c0.1,0,0.2,0,0.2,0l11.4,2.2c0.2,0,0.3,0.2,0.5,0.2l1.1,1.2c0.6,0.7,0.4,2.2-0.5,2.3l0,0c-0.6,0.2-1.2,0.4-1.5,0.6
	c-0.2,0.2-0.3,0.2-0.5,0.3h3.4c0.5,0,0.9,0.6,0.9,1.3v3.6c0,0.7-0.4,1.3-0.9,1.3h-23.6c-0.5,0-0.9,0.6-0.9,1.3v0.1v0.4v0.5
	c-0.2,0.2-0.4,0.5-0.8,0.6c-0.6,0.3-1.5,0.5-2.2,0.5c-0.1,0-0.8-0.2-1.3-0.2c-0.4-0.1-0.7,0.2-0.9,0.5c-1.1,2.3,0.1,6.2,0.9,9.3
	c0.5,1.7,0.8,3.2,0.8,4.1c-0.1,2.4-2.5,4.4-4.6,4.4c-2.2,0-4.6-2.1-4.7-4.4c-0.2-1.9,0.5-3.8,1.2-5.7c0.2-0.5,0.4-1.1,0.5-1.6
	c0.1-0.2,0.2-0.5,0.2-0.8c0.5-1.6,1.2-3.7,0.2-5.2c-0.6-1-1.5-1.5-2.6-1.5c-1.2,0-2.4,0.6-3.2,1.8c-0.5,0.6-0.3,1.4-0.1,2.1
	c0.2,0.7,0.4,1.6,0,2.3c-0.5,0.8-1.5,1.5-2.9,1.5c-1.5,0-2.9-0.9-3.2-1.9c-0.2-0.4-0.1-0.9,0.1-1.5c0.2-0.8,0.3-1.6-0.3-2.1
	c-0.4-0.3-1.1-0.5-2.2-0.5c-2.4,0-2.3,1.6-2.3,3.2c0,1.3,0,2.7-1.1,3.5c-0.6,0.4-1.5,0.6-2.5,0.6c-0.9,0-2.2-0.2-3.5-0.5l-0.2-0.1
	c-0.9-0.2-1.9-0.4-2.6-0.4c-1,0-1.8,0.3-2.5,1.1c-1,1.2-0.5,3.5-0.1,5.2c0.2,0.5,0.2,1,0.3,1.4c0.1,0.4,0.2,0.8,0.3,1.5
	c0.5,2.4,0.8,4.7,0.8,7.2c0,2-0.2,4.8-3.7,5.4c-2.5,0.4-5.1-0.6-6-2.2c-1-1.8-0.8-3.9-0.5-5.7c0.2-1,0.4-1.9,0.7-2.9
	c0.3-0.9,0.7-1.9,1.1-2.8c0.8-2,1.8-4,1.5-5.9c-0.1-1.2-1.3-2.5-2.9-2.5c-0.5,0-1.2,0.2-1.7,0.5c-1.9,1.2-1.2,3.1-0.6,4.8
	c0.2,0.7,0.5,1.3,0.5,1.9c0.2,1.5-0.5,2.9-1.2,3.4c-0.6,0.5-1.4,0.7-2.2,0.7c-0.9,0-1.9-0.3-2.5-0.8c-0.8-0.6-1-2.1-0.7-3.1
	c0.1-0.3,0.2-0.7,0.4-1.2c1-2.5,2.4-6.4-1.6-7.4c-0.3-0.1-0.7-0.2-0.9-0.2c-2.1,0-2.9,2.3-3.5,4c-0.2,0.5-0.3,0.8-0.5,1.2
	c-0.9,1.9-2.6,3.4-4.2,3.4c-0.8,0-2.2-0.7-2.9-3.5c0-0.1-0.1-0.2-0.1-0.3c-0.2-1.1-0.5-2.1-2.1-2.7c-0.5-0.2-0.8-0.2-1.3-0.2
	c-2.5,0-4.2,1.9-6.2,2.5c-3.3,1.2-4.9-1.1-5.8-2.9c-0.5-1.2-1.1-2.4-2.5-2.4c-0.2,0-0.3,0-0.5,0.1c-2,0.3-1.8,3.2-1.7,4.6v0.2
	c0.1,0.7,0.2,1.6,0.4,2.7c0.6,3.6,1.4,9-1.2,11.1c-0.8,0.6-1.7,0.9-2.9,0.9c-1.1,0-1.9-0.2-2.5-0.8c-1.5-1.4-1.3-4.8-0.9-7.1
	c0.5-2.8,1.5-5.4,2-6.6c0.2-0.2,0.2-0.5,0.4-0.7l0,0c0.7-1.3,1.3-2.5,0.3-3.8c-0.6-0.8-1.5-1.2-2.5-1.2c-1.5,0-2.8,0.9-2.9,2.1
	c-0.1,0.6,0.2,1.4,0.5,2.2c0.5,1.3,1,2.9-0.1,4c-0.6,0.7-2.2,1.2-3.8,1.2c-1.4,0-2.6-0.2-3.2-0.9c-2.6-3.5,4.8-7.6,2.2-9.3"/>
<linearGradient id="SVGID_2_" gradientUnits="userSpaceOnUse" x1="94.113" y1="58.6153" x2="96.036" y2="-50.0364">
	<stop  offset="0.2352" style="stop-color:#ECECEC"/>
	<stop  offset="0.4928" style="stop-color:#D8D8D8"/>
	<stop  offset="0.7697" style="stop-color:#C9C9C9"/>
	<stop  offset="1" style="stop-color:#C4C4C4"/>
</linearGradient>
<path class="st1" d="M23.2,22.4l-16.8-5C5.7,17.3,5,19,5.2,17.8L8.3,0.3C8.4-0.5,8.9-1.1,9.4-1l118.5,3.8c0.1,0,0.1,0,0.2,0
	l38.3-8.3c0.1,0,0.2,0,0.3,0l13.8,3.1c0.2,0.1,0.4,0.2,0.5,0.4l1.3,1.6c0.8,1,0.5,3-0.5,3.2l0,0C181,3,180.3,3.3,180,3.6
	c-0.2,0.2-0.4,0.3-0.7,0.5h4.2c0.6,0,1.2,0.8,1.2,1.9v5.2c0,1-0.5,1.9-1.2,1.9h-28.5c-0.6,0-1.2,0.8-1.2,1.9V15v0.5v0.8
	c-0.2,0.3-0.5,0.6-0.9,0.8c-0.8,0.4-1.8,0.7-2.7,0.6c-0.1,0-1-0.2-1.5-0.3c-0.5-0.1-0.8,0.2-1.1,0.8c-1.3,3.2,0.1,8.6,1.1,13.1
	c0.5,2.4,1,4.5,0.9,5.8c-0.1,3.4-2.9,6.2-5.6,6.2c-2.7,0-5.6-2.9-5.7-6.2c-0.2-2.6,0.6-5.4,1.4-8c0.2-0.8,0.5-1.5,0.6-2.3
	c0.1-0.3,0.2-0.7,0.3-1.1c0.6-2.3,1.4-5.2,0.3-7.3c-0.7-1.4-1.9-2.2-3.2-2.2c-1.5,0-2.9,0.9-3.9,2.5c-0.6,0.9-0.3,1.9-0.1,3
	c0.2,1,0.5,2.2,0,3.2c-0.6,1.2-1.9,2.1-3.5,2.1c-1.9,0-3.5-1.3-3.9-2.6c-0.2-0.6-0.1-1.3,0.1-2.1c0.2-1.1,0.4-2.2-0.4-2.9
	c-0.5-0.5-1.4-0.6-2.6-0.6c-2.9,0.1-2.9,2.2-2.9,4.6c0,1.9,0.1,3.8-1.3,4.9c-0.7,0.6-1.8,0.8-3.1,0.8c-1.2,0-2.6-0.2-4.3-0.6
	l-0.3-0.1c-1.2-0.3-2.2-0.5-3.2-0.5c-1.2,0-2.2,0.5-2.9,1.5c-1.2,1.6-0.5,4.9-0.1,7.3c0.2,0.8,0.3,1.5,0.4,2
	c0.1,0.5,0.2,1.2,0.3,2.1c0.6,3.4,0.9,6.7,0.9,10.1c0,2.8-0.2,6.7-4.5,7.6c-2.9,0.6-6.2-0.8-7.3-3c-1.2-2.5-0.9-5.5-0.6-8
	c0.2-1.4,0.5-2.8,0.8-4.1c0.3-1.3,0.8-2.5,1.3-3.9c1-2.8,2.1-5.6,1.9-8.4c-0.2-1.6-1.6-3.5-3.5-3.5c-0.7,0-1.4,0.2-2,0.8
	c-2.2,1.7-1.5,4.3-0.8,6.7c0.2,0.9,0.5,1.9,0.6,2.7c0.2,2.2-0.7,4.2-1.4,4.8c-0.7,0.6-1.7,0.9-2.7,0.9c-1.2,0-2.2-0.4-3-1.2
	c-0.9-0.9-1.2-2.9-0.8-4.4c0.2-0.5,0.3-1,0.5-1.6c1.2-3.5,2.9-9-2-10.4c-0.4-0.2-0.8-0.2-1.2-0.2c-2.5,0-3.6,3.2-4.3,5.6
	c-0.2,0.6-0.4,1.2-0.5,1.6c-1.1,2.7-3.2,4.8-5.1,4.8c-1.1,0-2.8-0.9-3.5-4.9c0-0.2-0.1-0.3-0.1-0.5c-0.3-1.5-0.5-3-2.5-3.8
	c-0.5-0.2-1.1-0.3-1.6-0.3c-3,0-5.2,2.5-7.6,3.5c-4.1,1.7-6-1.5-7-4.2c-0.6-1.7-1.2-3.3-3-3.3c-0.2,0-0.4,0-0.6,0.1
	c-2.5,0.4-2.2,4.6-2.1,6.4v0.2c0.1,1,0.2,2.3,0.5,3.8c0.7,5.2,1.7,12.7-1.4,15.7c-0.9,0.8-2.1,1.3-3.5,1.3c-1.3,0.1-2.3-0.4-3.1-1.2
	c-1.9-2-1.6-6.8-1.2-10c0.6-3.9,1.8-7.6,2.5-9.3c0.2-0.3,0.3-0.7,0.5-1l0,0c0.8-1.9,1.5-3.5,0.4-5.3c-0.7-1.2-1.8-1.8-3-1.8
	c-1.8,0-3.3,1.3-3.5,2.9c-0.1,0.9,0.2,1.9,0.6,3.1c0.6,1.9,1.2,4.2-0.1,5.7c-0.8,0.9-2.6,1.6-4.6,1.6c-1.7,0-3.2-0.2-3.9-1.3
	c-3.2-4.9,5.8-10.6,2.7-13"/>
<linearGradient id="SVGID_3_" gradientUnits="userSpaceOnUse" x1="298.4054" y1="9.2598" x2="298.4054" y2="105.004">
	<stop  offset="0.2352" style="stop-color:#ECECEC"/>
	<stop  offset="0.4501" style="stop-color:#D8D8D8"/>
	<stop  offset="0.6811" style="stop-color:#C9C9C9"/>
	<stop  offset="0.8732" style="stop-color:#C4C4C4"/>
</linearGradient>
<path class="st2" d="M603.3-19.4C577.3-3.2,341.4,6.1,300.6-4.7S259.3-11.7,195.7-7S-15.8-22-15.8-22S0.4,5.1-17.5,14.5
	c-19.6,10.3,135.3-6,205.2,4.7c0.1,0,0.1,0,0.2,0c0.2,0.2-0.3-0.2,0,0c0.7,0.3,3.4,0.3,4.4,0.8c0.1,0.1-0.5,0.2,0,0
	c0.4-0.1,0.8,0.2,1,0.7c1.2,2.9-0.1,7.6-1,11.4c-0.5,2.1-0.8,3.9-0.8,5c0.1,2.9,2.6,5.3,4.9,5.3c2.4,0,4.9-2.5,5-5.4
	c0.2-2.3-0.5-4.7-1.2-6.9c-0.2-0.7-0.4-1.3-0.5-2c-0.1-0.3-0.2-0.6-0.2-0.9c-0.5-2-1.2-4.6-0.3-6.3c0.6-1.2,1.6-1.9,2.8-1.9
	c1.2,0,2.5,0.8,3.5,2.2c0.5,0.8,0.3,1.7,0.1,2.6c-0.2,0.8-0.5,1.9,0,2.9c0.5,1.1,1.7,1.9,3.1,1.9c1.6,0,3.1-1.2,3.4-2.3
	c0.2-0.5,0.1-1.2-0.1-1.9c-0.2-1-0.3-2,0.3-2.5c0.5-0.4,1.2-0.5,2.3-0.5c2.5,0.1,2.5,1.9,2.5,4c0,1.6-0.1,3.2,1.2,4.2
	c0.6,0.5,1.5,0.8,2.7,0.8c1,0,2.3-0.2,3.8-0.5l0.2-0.1c1-0.2,1.9-0.5,2.8-0.5c1.1,0,1.9,0.4,2.6,1.3c1.1,1.4,0.5,4.2,0.1,6.3
	c-0.2,0.6-0.2,1.2-0.3,1.8c-0.1,0.5-0.2,1.1-0.3,1.9c-0.5,2.9-0.8,5.8-0.8,8.8c0,2.5,0.2,5.9,3.9,6.6c2.6,0.5,5.5-0.8,6.4-2.6
	c1.1-2.2,0.8-4.8,0.5-7c-0.2-1.2-0.4-2.4-0.7-3.5c-0.3-1.1-0.7-2.2-1.2-3.4c-0.9-2.4-1.9-4.9-1.6-7.3c0.2-1.5,1.5-3,3.2-3
	c0.6,0,1.2,0.2,1.8,0.6c1.9,1.5,1.3,3.8,0.7,5.9c-0.2,0.8-0.5,1.6-0.5,2.3c-0.2,1.9,0.6,3.6,1.2,4.2c0.6,0.5,1.5,0.8,2.4,0.8
	c1,0,1.9-0.4,2.6-1c0.8-0.8,1.1-2.5,0.8-3.8c-0.1-0.4-0.2-0.8-0.5-1.4c-1-3.1-2.5-7.8,1.8-9.1c0.4-0.1,0.7-0.2,1-0.2
	c2.2,0,3.2,2.9,3.8,4.9c0.2,0.5,0.3,1,0.5,1.5c0.9,2.3,2.9,4.2,4.5,4.2c0.9,0,2.4-0.8,3.1-4.2c0-0.2,0.1-0.2,0.1-0.4
	c0.2-1.3,0.5-2.6,2.2-3.2c0.5-0.2,0.9-0.3,1.4-0.3c2.6,0,4.6,2.2,6.6,3.1c3.5,1.5,5.2-1.3,6.2-3.6c0.5-1.5,1.1-2.9,2.6-2.9
	c0.2,0,0.4,0,0.5,0.1c2.2,0.4,1.9,4,1.9,5.6v0.2c-0.1,0.8-0.2,2-0.4,3.3c-0.6,4.5-1.5,11.1,1.2,13.7c0.8,0.7,1.9,1.1,3.1,1.2
	c1.2,0.1,2-0.3,2.7-1c1.6-1.8,1.4-5.9,1-8.7c-0.5-3.4-1.5-6.6-2.2-8c-0.2-0.3-0.2-0.6-0.4-0.8l0,0c-0.8-1.6-1.4-3-0.3-4.6
	c0.6-1,1.5-1.5,2.6-1.5c1.5,0,2.9,1.1,3.1,2.5c0.1,0.8-0.2,1.7-0.5,2.7c-0.5,1.6-1.1,3.6,0.1,4.9c0.7,0.8,2.3,1.4,4,1.4
	c1.5,0,2.8-0.2,3.4-1.2c2.8-4.2-5.1-9.3-2.4-11.3l1.5,0.1c18.3,2.6,100.7,5.2,123.4,6.4C513.7,35.9,607,20.3,607,20.3
	S629.5-35.6,603.3-19.4z"/>
</svg>
