<?xml version="1.0" encoding="utf-8"?>
<!-- Generator: Adobe Illustrator 22.0.0, SVG Export Plug-In . SVG Version: 6.00 Build 0)  -->
<svg version="1.1" id="Layer_1" xmlns="http://www.w3.org/2000/svg" xmlns:xlink="http://www.w3.org/1999/xlink" x="0px" y="0px"
	 viewBox="0 0 800 600" style="enable-background:new 0 0 800 600;" xml:space="preserve">
<style type="text/css">
	.st0{fill:url(#SVGID_1_);}
	.st1{fill:#FFFFFF;}
</style>
<radialGradient id="SVGID_1_" cx="392.8" cy="306.6" r="301.6" gradientUnits="userSpaceOnUse">
	<stop  offset="0" style="stop-color:#000000;stop-opacity:0.4"/>
	<stop  offset="1" style="stop-color:#020202;stop-opacity:0"/>
</radialGradient>
<circle class="st0" cx="392.8" cy="306.6" r="301.6"/>
<path class="st1" d="M403,94.5c-97.5,0-176.5,79-176.5,176.5s79,176.5,176.5,176.5s176.5-79,176.5-176.5S500.5,94.5,403,94.5z
	 M407,409c-76.2,0-138-61.8-138-138s61.8-138,138-138s138,61.8,138,138S483.2,409,407,409z"/>
<path class="st1" d="M405.5,166c-9.6,0-17.5,7.9-17.5,17.5v83l-43,43c-6.8,6.8-6.8,17.9,0,24.7v0c6.8,6.8,17.9,6.8,24.7,0l37.3-37.3
	l11-11c3.1-3.1,4.9-7.4,4.9-11.8c0-5.3,0-11.8,0-12.2v-12.7v-65.8C423,173.9,415.1,166,405.5,166z"/>
<g>
	<path class="st1" d="M240.7,479.1h-20v10.7h18.4c1.4,0,2.4,0.3,3,0.9c0.7,0.6,1,1.4,1,2.4s-0.3,1.8-1,2.4c-0.7,0.6-1.7,0.9-3,0.9
		h-18.4v12.4h20.6c1.4,0,2.4,0.3,3.1,1c0.7,0.6,1.1,1.5,1.1,2.6c0,1-0.4,1.9-1.1,2.5c-0.7,0.6-1.8,1-3.1,1h-24.1
		c-1.9,0-3.3-0.4-4.2-1.3c-0.8-0.9-1.3-2.2-1.3-4.1v-32.9c0-1.3,0.2-2.3,0.6-3.1c0.4-0.8,1-1.4,1.8-1.8s1.8-0.6,3.1-0.6h23.4
		c1.4,0,2.5,0.3,3.1,0.9c0.7,0.6,1,1.4,1,2.5c0,1-0.3,1.9-1,2.5C243.2,478.8,242.1,479.1,240.7,479.1z"/>
	<path class="st1" d="M264.2,476.8l17,25.8v-26c0-1.7,0.4-3,1.1-3.8c0.7-0.8,1.7-1.3,2.9-1.3c1.3,0,2.3,0.4,3,1.3
		c0.7,0.8,1.1,2.1,1.1,3.8v34.4c0,3.8-1.6,5.8-4.8,5.8c-0.8,0-1.5-0.1-2.1-0.3s-1.2-0.6-1.8-1.1c-0.6-0.5-1.1-1.1-1.6-1.7
		c-0.5-0.7-1-1.3-1.4-2L261.1,486v25.6c0,1.7-0.4,2.9-1.2,3.8s-1.8,1.3-3,1.3c-1.3,0-2.3-0.4-3-1.3c-0.8-0.9-1.1-2.1-1.1-3.8v-33.7
		c0-1.4,0.2-2.6,0.5-3.4c0.4-0.9,1-1.6,1.9-2.2c0.9-0.6,1.8-0.9,2.8-0.9c0.8,0,1.5,0.1,2,0.4c0.6,0.3,1.1,0.6,1.5,1
		c0.4,0.4,0.9,1,1.3,1.7C263.3,475.3,263.7,476,264.2,476.8z"/>
	<path class="st1" d="M326.2,497.3h-3.1v14c0,1.8-0.4,3.2-1.2,4.1c-0.8,0.9-1.9,1.3-3.2,1.3c-1.4,0-2.5-0.5-3.3-1.4
		c-0.8-0.9-1.2-2.3-1.2-4v-33.6c0-1.9,0.4-3.3,1.3-4.1c0.9-0.9,2.2-1.3,4.1-1.3h14.4c2,0,3.7,0.1,5.1,0.3c1.4,0.2,2.7,0.5,3.8,1
		c1.4,0.6,2.6,1.4,3.6,2.5c1.1,1.1,1.9,2.3,2.4,3.7c0.5,1.4,0.8,2.9,0.8,4.5c0,3.3-0.9,5.9-2.8,7.8c-1.8,1.9-4.6,3.3-8.4,4.1
		c1.6,0.8,3.1,2.1,4.5,3.7c1.4,1.6,2.7,3.4,3.8,5.2c1.1,1.8,2,3.5,2.6,5c0.6,1.5,0.9,2.5,0.9,3.1c0,0.6-0.2,1.1-0.6,1.7
		c-0.4,0.6-0.9,1-1.5,1.3c-0.6,0.3-1.4,0.5-2.2,0.5c-1,0-1.8-0.2-2.5-0.7c-0.7-0.5-1.3-1.1-1.7-1.8c-0.5-0.7-1.1-1.8-2-3.2l-3.5-5.9
		c-1.3-2.2-2.4-3.8-3.4-5c-1-1.1-2-1.9-3.1-2.3C329.1,497.5,327.8,497.3,326.2,497.3z M331.3,478.9h-8.2v12h7.9
		c2.1,0,3.9-0.2,5.4-0.6c1.5-0.4,2.6-1,3.3-1.9c0.8-0.9,1.1-2.1,1.1-3.7c0-1.2-0.3-2.3-0.9-3.2c-0.6-0.9-1.5-1.6-2.6-2.1
		C336.4,479.1,334.3,478.9,331.3,478.9z"/>
	<path class="st1" d="M387.1,479.1h-20v10.7h18.4c1.4,0,2.4,0.3,3,0.9c0.7,0.6,1,1.4,1,2.4s-0.3,1.8-1,2.4c-0.7,0.6-1.7,0.9-3,0.9
		h-18.4v12.4h20.6c1.4,0,2.4,0.3,3.1,1c0.7,0.6,1.1,1.5,1.1,2.6c0,1-0.4,1.9-1.1,2.5c-0.7,0.6-1.8,1-3.1,1h-24.1
		c-1.9,0-3.3-0.4-4.2-1.3c-0.8-0.9-1.3-2.2-1.3-4.1v-32.9c0-1.3,0.2-2.3,0.6-3.1c0.4-0.8,1-1.4,1.8-1.8s1.8-0.6,3.1-0.6h23.4
		c1.4,0,2.5,0.3,3.1,0.9c0.7,0.6,1,1.4,1,2.5c0,1-0.3,1.9-1,2.5C389.5,478.8,388.5,479.1,387.1,479.1z"/>
	<path class="st1" d="M405.5,477.3l9.9,29.3l9.9-29.5c0.5-1.6,0.9-2.6,1.2-3.2c0.3-0.6,0.7-1.2,1.3-1.6s1.4-0.7,2.4-0.7
		c0.8,0,1.5,0.2,2.1,0.6c0.6,0.4,1.2,0.9,1.5,1.5s0.6,1.3,0.6,1.9c0,0.4-0.1,0.9-0.2,1.4s-0.3,1-0.4,1.5s-0.4,1-0.5,1.5l-10.6,28.6
		c-0.4,1.1-0.8,2.1-1.1,3.1c-0.4,1-0.8,1.8-1.3,2.6c-0.5,0.7-1.2,1.4-2,1.8c-0.8,0.5-1.8,0.7-3,0.7c-1.2,0-2.2-0.2-3-0.7
		c-0.8-0.5-1.5-1.1-2-1.8c-0.5-0.8-1-1.6-1.3-2.6c-0.4-1-0.8-2-1.1-3.1l-10.4-28.3c-0.2-0.5-0.4-1-0.6-1.5s-0.3-1-0.5-1.6
		c-0.1-0.6-0.2-1.1-0.2-1.5c0-1,0.4-1.9,1.2-2.8c0.8-0.8,1.8-1.3,3.1-1.3c1.5,0,2.6,0.5,3.2,1.4
		C404.2,473.8,404.8,475.3,405.5,477.3z"/>
	<path class="st1" d="M441.4,511.3v-34.4c0-1.8,0.4-3.1,1.2-4c0.8-0.9,1.9-1.3,3.2-1.3c1.3,0,2.4,0.4,3.2,1.3c0.8,0.9,1.2,2.2,1.2,4
		v34.4c0,1.8-0.4,3.2-1.2,4.1s-1.9,1.3-3.2,1.3c-1.3,0-2.3-0.5-3.1-1.4S441.4,513.1,441.4,511.3z"/>
	<path class="st1" d="M493.4,502.8c0,2.6-0.7,5-2,7.1c-1.4,2.1-3.4,3.8-6,5c-2.6,1.2-5.7,1.8-9.3,1.8c-4.3,0-7.9-0.8-10.7-2.4
		c-2-1.2-3.6-2.7-4.8-4.7c-1.2-2-1.9-3.9-1.9-5.7c0-1.1,0.4-2,1.1-2.8c0.7-0.8,1.7-1.1,2.8-1.1c0.9,0,1.7,0.3,2.4,0.9
		s1.2,1.5,1.7,2.7c0.6,1.4,1.2,2.6,1.8,3.5c0.6,0.9,1.6,1.7,2.7,2.3s2.7,0.9,4.6,0.9c2.6,0,4.8-0.6,6.4-1.8c1.6-1.2,2.5-2.7,2.5-4.6
		c0-1.5-0.4-2.6-1.3-3.5c-0.9-0.9-2-1.6-3.4-2.1c-1.4-0.5-3.3-1-5.6-1.5c-3.1-0.7-5.8-1.6-7.9-2.6c-2.1-1-3.8-2.3-5-4
		c-1.2-1.7-1.9-3.8-1.9-6.3c0-2.4,0.7-4.5,2-6.4c1.3-1.9,3.2-3.3,5.7-4.3s5.4-1.5,8.8-1.5c2.7,0,5,0.3,7,1c2,0.7,3.6,1.6,4.9,2.7
		c1.3,1.1,2.2,2.3,2.8,3.5c0.6,1.2,0.9,2.4,0.9,3.5c0,1.1-0.4,2-1.1,2.8c-0.7,0.8-1.7,1.3-2.8,1.3c-1,0-1.8-0.3-2.3-0.8
		c-0.5-0.5-1.1-1.3-1.7-2.5c-0.8-1.7-1.8-2.9-2.9-3.9c-1.1-0.9-2.9-1.4-5.4-1.4c-2.3,0-4.1,0.5-5.5,1.5c-1.4,1-2.1,2.2-2.1,3.6
		c0,0.9,0.2,1.6,0.7,2.3s1.1,1.2,2,1.6c0.8,0.5,1.7,0.8,2.5,1.1c0.9,0.3,2.3,0.6,4.2,1.1c2.5,0.6,4.7,1.2,6.7,1.9s3.7,1.5,5.1,2.5
		s2.5,2.3,3.3,3.8C493,498.8,493.4,500.6,493.4,502.8z"/>
	<path class="st1" d="M501.2,511.3v-34.4c0-1.8,0.4-3.1,1.2-4c0.8-0.9,1.9-1.3,3.2-1.3c1.3,0,2.4,0.4,3.2,1.3c0.8,0.9,1.2,2.2,1.2,4
		v34.4c0,1.8-0.4,3.2-1.2,4.1s-1.9,1.3-3.2,1.3c-1.3,0-2.3-0.5-3.1-1.4S501.2,513.1,501.2,511.3z"/>
	<path class="st1" d="M539.2,471.5c4.5,0,8.4,0.9,11.7,2.8c3.3,1.8,5.7,4.5,7.4,7.8s2.5,7.4,2.5,11.9c0,3.4-0.5,6.5-1.4,9.2
		c-0.9,2.8-2.3,5.2-4.1,7.2c-1.8,2-4.1,3.6-6.7,4.7c-2.7,1.1-5.7,1.6-9.2,1.6c-3.4,0-6.5-0.6-9.2-1.7s-5-2.7-6.8-4.7
		c-1.8-2-3.2-4.4-4.1-7.2c-0.9-2.8-1.4-5.9-1.4-9.2c0-3.4,0.5-6.4,1.4-9.2c1-2.8,2.4-5.2,4.2-7.2c1.8-2,4.1-3.5,6.7-4.5
		C532.9,472,535.9,471.5,539.2,471.5z M551.8,494c0-3.2-0.5-6-1.6-8.3c-1-2.3-2.5-4.1-4.4-5.3c-1.9-1.2-4.1-1.8-6.6-1.8
		c-1.8,0-3.4,0.3-4.9,1s-2.8,1.6-3.9,2.9c-1.1,1.3-1.9,2.9-2.6,4.9c-0.6,2-0.9,4.2-0.9,6.7c0,2.5,0.3,4.7,0.9,6.7
		c0.6,2,1.5,3.7,2.7,5c1.1,1.3,2.5,2.3,3.9,3c1.5,0.7,3.1,1,4.9,1c2.3,0,4.3-0.6,6.2-1.7c1.9-1.1,3.4-2.9,4.5-5.2
		C551.3,500.3,551.8,497.4,551.8,494z M542.7,460.8h4c1,0,1.5,0.1,1.5,0.4c0,0.2-0.6,0.8-1.7,1.9c-1.1,1.1-2.2,2.2-3.4,3.3
		c-1.1,1-1.9,1.7-2.4,1.9c-1.1,0.6-2.3,0.9-3.6,0.9c-0.9,0-1.3-0.2-1.3-0.7c0-0.3,0.3-0.9,0.8-1.8l1.3-2.5c0.8-1.5,1.5-2.4,2-2.8
		C540.7,461,541.5,460.8,542.7,460.8z"/>
	<path class="st1" d="M579.9,476.8l17,25.8v-26c0-1.7,0.4-3,1.1-3.8c0.7-0.8,1.7-1.3,2.9-1.3c1.3,0,2.3,0.4,3,1.3
		c0.7,0.8,1.1,2.1,1.1,3.8v34.4c0,3.8-1.6,5.8-4.8,5.8c-0.8,0-1.5-0.1-2.1-0.3c-0.6-0.2-1.2-0.6-1.8-1.1s-1.1-1.1-1.6-1.7
		c-0.5-0.7-1-1.3-1.4-2L576.8,486v25.6c0,1.7-0.4,2.9-1.2,3.8s-1.8,1.3-3,1.3c-1.3,0-2.3-0.4-3-1.3c-0.8-0.9-1.1-2.1-1.1-3.8v-33.7
		c0-1.4,0.2-2.6,0.5-3.4c0.4-0.9,1-1.6,1.9-2.2s1.8-0.9,2.8-0.9c0.8,0,1.5,0.1,2,0.4c0.6,0.3,1.1,0.6,1.5,1c0.4,0.4,0.9,1,1.3,1.7
		C579,475.3,579.4,476,579.9,476.8z"/>
</g>
</svg>
