<?xml version="1.0" encoding="utf-8"?>
<!-- Generator: Adobe Illustrator 22.0.0, SVG Export Plug-In . SVG Version: 6.00 Build 0)  -->
<svg version="1.1" id="Layer_1" xmlns="http://www.w3.org/2000/svg" xmlns:xlink="http://www.w3.org/1999/xlink" x="0px" y="0px"
	 viewBox="0 0 300 300" style="enable-background:new 0 0 300 300;" xml:space="preserve">
<style type="text/css">
	.st0{fill:#004587;}
	.st1{fill:#05365E;}
	.st2{fill:#00B6EA;stroke:#00B6EA;stroke-width:0.75;stroke-miterlimit:10;}
	.st3{fill:#CAE8F9;}
	.st4{fill:#00B6EA;}
	.st5{opacity:0.3;enable-background:new    ;}
</style>
<g>
	<path class="st0" d="M86.5,134v61.5c0,7,49.4,22,63.5,22s63.5-15,63.5-22V134H86.5z"/>
	<polygon class="st1" points="86.5,162.6 150,186.5 213.6,162.6 213.6,140.2 86.5,140.2 	"/>
	<polygon class="st0" points="150,82.5 30.4,127.7 150,172.8 269.7,127.7 	"/>
	<polygon class="st2" points="150,172.8 30.4,127.7 30.4,133.9 150,179 269.7,133.9 269.7,127.7 	"/>
	<g>
		<g>
			<path class="st3" d="M221.1,183.9h-0.4h-4.5h-0.4c0,0-11.7,16.5-4,33.1c1.8,0,3.2,0,4.4,0l0,0c0.1,0,0.8,0,4.5,0l0,0
				c1.2,0,2.6,0,4.4,0C232.8,200.4,221.1,183.9,221.1,183.9z"/>
			<g>
				<path class="st3" d="M222.7,214.3c0.3-1.5,0.1-3.3,0.2-5.2c0-1,0-1.9-0.1-2.9s-0.2-2-0.3-3c0-1-0.3-2-0.4-3
					c-0.2-1-0.3-1.9-0.5-2.8c-0.5-1.8-0.8-3.5-1.3-4.9c-0.8-2.8-1.6-4.6-1.6-4.6s0.7,1.8,1.3,4.7c0.4,1.4,0.6,3.1,0.9,4.9
					c0.1,0.9,0.2,1.9,0.3,2.8c0.1,1,0.2,1.9,0.2,2.9s0,2,0,2.9c0.1,1,0,1.9-0.1,2.8c-0.2,1.8-0.2,3.5-0.6,4.9
					c-0.3,1.3-0.5,2.4-0.7,3.2c0.2,0,0.4,0,0.7,0l0,0c0.4,0,1,0,1.5,0C222.4,216.2,222.5,215.4,222.7,214.3z"/>
				<path class="st3" d="M216.1,213.9c-0.4-1.4-0.3-3.1-0.6-4.9c-0.1-0.9-0.2-1.8-0.1-2.8c0-1,0-1.9,0-2.9s0.1-2,0.2-2.9
					c0.1-1,0.2-1.9,0.3-2.8c0.3-1.8,0.5-3.5,0.9-4.9c0.6-2.9,1.3-4.7,1.3-4.7s-0.8,1.7-1.6,4.6c-0.5,1.4-0.8,3.1-1.3,4.9
					c-0.2,0.9-0.3,1.9-0.5,2.8c-0.2,1-0.4,2-0.4,3c-0.1,1-0.2,2-0.3,3s-0.1,2-0.1,2.9c0.1,1.9,0,3.7,0.2,5.2c0.2,1.1,0.3,2,0.4,2.7
					c0.5,0,1.1,0,1.5,0l0,0c0,0,0.2,0,0.7,0C216.7,216.2,216.4,215.2,216.1,213.9z"/>
				<path class="st3" d="M226.4,211.9c0.2-1,0.2-2,0.2-3c0.1-1.1,0-2.1-0.1-3.2c0-1.1-0.3-2.2-0.5-3.2c-0.9-4.3-2.8-8-4.3-10.6
					c-1.6-2.6-2.8-4-2.8-4s1.2,1.6,2.5,4.3s2.9,6.5,3.5,10.6c0.1,1,0.3,2,0.3,3.1c0,1,0,2-0.1,2.9c0,0.9-0.2,1.8-0.4,2.7
					c-0.2,0.8-0.3,1.6-0.6,2.3c-0.4,1.4-0.9,2.5-1.3,3.2c0,0,0,0,0,0.1c0.7,0,1.5,0,2.4,0c0.2-0.3,0.3-0.7,0.4-1
					c0.1-0.5,0.3-0.9,0.4-1.4C226.2,213.8,226.3,212.9,226.4,211.9z"/>
				<path class="st3" d="M218.4,187.8l-1.1,29.2c0.5,0,1.2,0,2.2,0L218.4,187.8z"/>
				<path class="st3" d="M214.1,216.9c-0.4-0.7-0.9-1.8-1.3-3.2c-0.3-0.7-0.4-1.5-0.6-2.3c-0.2-0.8-0.3-1.7-0.4-2.7
					c-0.1-1-0.1-1.9-0.1-2.9s0.2-2,0.3-3.1c0.6-4.1,2.1-7.9,3.5-10.6c1.4-2.7,2.5-4.3,2.5-4.3s-1.3,1.4-2.8,4s-3.4,6.3-4.3,10.6
					c-0.2,1.1-0.5,2.1-0.5,3.2c-0.1,1.1-0.2,2.2-0.1,3.2c0,1.1,0.1,2.1,0.2,3c0.1,1,0.2,1.9,0.5,2.7c0.1,0.5,0.3,1,0.4,1.4
					c0.1,0.3,0.2,0.7,0.4,1C212.7,217,213.4,217,214.1,216.9C214.1,217,214.1,217,214.1,216.9z"/>
			</g>
		</g>
	</g>
	<path class="st4" d="M212.4,183.9c0-3.3,2.7-6,6-6s6,2.7,6,6s-2.7,6-6,6C215.1,189.9,212.4,187.2,212.4,183.9z"/>
	<ellipse class="st5" cx="150" cy="127.7" rx="19" ry="11.3"/>
	<path class="st3" d="M168.7,130c-0.6,1.8-2,3.5-4,4.9l-0.1,0.3l50.8,15v33.7h6.2v-38.3L168.7,130z"/>
	<path class="st1" d="M131,126.1c0-5.4,7.3-9.7,16.4-9.7c9,0,16.4,4.3,16.4,9.7c0,5.4-7.3,9.7-16.4,9.7S131,131.5,131,126.1z"/>
</g>
</svg>
