<?xml version="1.0" encoding="utf-8"?>
<!-- Generator: Adobe Illustrator 22.0.0, SVG Export Plug-In . SVG Version: 6.00 Build 0)  -->
<svg version="1.1" id="Layer_1" xmlns="http://www.w3.org/2000/svg" xmlns:xlink="http://www.w3.org/1999/xlink" x="0px" y="0px"
	 viewBox="0 0 300 300" style="enable-background:new 0 0 300 300;" xml:space="preserve">
<style type="text/css">
	.st0{fill:none;stroke:#6EC7DC;stroke-width:8;stroke-miterlimit:10;}
	.st1{fill:#004587;}
	.st2{fill:#023151;}
	.st3{fill:#04355E;}
	.st4{fill:#6EC7DC;}
</style>
<g>
	<path class="st0" d="M180.4,80V55.9c0-3.3-2.7-5.9-5.9-5.9h-48.3c-3.3,0-5.9,2.7-5.9,5.9V80H180.4z"/>
	<path class="st1" d="M254.3,225.7c0,5.2-4.2,9.3-9.3,9.3H55.7c-5.2,0-9.3-4.2-9.3-9.3V90.3c0-5.2,4.2-9.3,9.3-9.3H245
		c5.2,0,9.3,4.2,9.3,9.3V225.7z"/>
	<path class="st2" d="M70.8,223.5c-5.2,0-9.3-4.2-9.3-9.3v-28.1c0-5.2,4.2-9.3,9.3-9.3h183.5V90.3c0-5.2-4.2-9.3-9.3-9.3H55.7
		c-5.2,0-9.3,4.2-9.3,9.3v135.4c0,5.2,4.2,9.3,9.3,9.3H245c5.2,0,9.3-4.2,9.3-9.3v-2.2H70.8z"/>
	<path class="st1" d="M258.8,159.9c0,5.4-4.4,9.7-9.7,9.7H51.6c-5.4,0-9.7-4.4-9.7-9.7V82c0-5.4,4.4-9.7,9.7-9.7H249
		c5.4,0,9.7,4.4,9.7,9.7L258.8,159.9L258.8,159.9z"/>
	<path class="st3" d="M255.7,151.8c-6.9,8.5-15.6,8.3-26,8.3c-40-0.1-37.8-0.2-72.1-0.1c-20.4,0.1-33,0.1-52.1-8
		c-19.2-8.2-26.4-26.4-26.2-46.4c0.1-11.1,2.1-22,6.9-32.1c0.2-0.4,0.4-0.8,0.6-1.1H51.6c-5.4,0-9.7,4.4-9.7,9.7V160
		c0,5.4,4.4,9.7,9.7,9.7H249c5.4,0,9.7-4.4,9.7-9.7v-12.5C257.8,148.9,256.8,150.4,255.7,151.8z"/>
	<rect x="136.9" y="166.2" class="st4" width="26.9" height="22.6"/>
</g>
</svg>
