<?xml version="1.0" encoding="utf-8"?>
<!-- Generator: Adobe Illustrator 22.0.0, SVG Export Plug-In . SVG Version: 6.00 Build 0)  -->
<svg version="1.1" id="Layer_1" xmlns="http://www.w3.org/2000/svg" xmlns:xlink="http://www.w3.org/1999/xlink" x="0px" y="0px"
	 viewBox="0 0 279.4 300" style="enable-background:new 0 0 279.4 300;" xml:space="preserve">
<style type="text/css">
	.st0{fill:#6EC7DC;}
	.st1{fill:#46777F;}
	.st2{fill:#CAE8F9;}
	.st3{fill:#004587;}
	.st4{fill:#063E6D;}
	.st5{fill:#A0D4F2;}
</style>
<g>
	<path class="st0" d="M201,268.6c0,3.3-2.7,6-6,6H30.5c-3.3,0-6-2.7-6-6V60.1c0-3.3,2.7-6,6-6H195c3.3,0,6,2.7,6,6V268.6z"/>
	<rect x="41.1" y="69.9" class="st1" width="150.7" height="195.6"/>
	<rect x="37.4" y="66.6" class="st2" width="150.7" height="195.6"/>
	<path class="st3" d="M134.5,40.8V25H90.9v15.8l-20.4,7v26.1h42.2h42.2V47.8L134.5,40.8z M127.2,42.2H98.3V29.8h28.9V42.2z"/>
	<polygon class="st4" points="79,65.4 79,50.2 90.9,40.8 70.6,47.8 70.6,73.9 154.9,73.9 154.9,65.4 	"/>
	<g>
		<g>
			<path class="st5" d="M173.6,97.5c0,0.8-1.1,1.5-2.4,1.5H58.8c-1.3,0-2.4-0.7-2.4-1.5l0,0c0-0.8,1.1-1.5,2.4-1.5h112.5
				C172.5,96,173.6,96.7,173.6,97.5L173.6,97.5z"/>
			<path class="st5" d="M173.6,107.1c0,0.8-1.1,1.5-2.4,1.5H58.8c-1.3,0-2.4-0.7-2.4-1.5l0,0c0-0.8,1.1-1.5,2.4-1.5h112.5
				C172.5,105.6,173.6,106.3,173.6,107.1L173.6,107.1z"/>
			<path class="st5" d="M173.6,116.8c0,0.8-1.1,1.5-2.4,1.5H58.8c-1.3,0-2.4-0.7-2.4-1.5l0,0c0-0.8,1.1-1.5,2.4-1.5h112.5
				C172.5,115.2,173.6,115.9,173.6,116.8L173.6,116.8z"/>
			<path class="st5" d="M173.6,126.4c0,0.8-1.1,1.5-2.4,1.5H58.8c-1.3,0-2.4-0.7-2.4-1.5l0,0c0-0.8,1.1-1.5,2.4-1.5h112.5
				C172.5,124.9,173.6,125.6,173.6,126.4L173.6,126.4z"/>
		</g>
		<g>
			<path class="st5" d="M173.6,149.9c0,0.8-1.1,1.5-2.4,1.5H58.8c-1.3,0-2.4-0.7-2.4-1.5l0,0c0-0.8,1.1-1.5,2.4-1.5h112.5
				C172.5,148.4,173.6,149.1,173.6,149.9L173.6,149.9z"/>
			<path class="st5" d="M173.6,159.6c0,0.8-1.1,1.5-2.4,1.5H58.8c-1.3,0-2.4-0.7-2.4-1.5l0,0c0-0.8,1.1-1.5,2.4-1.5h112.5
				C172.5,158,173.6,158.7,173.6,159.6L173.6,159.6z"/>
			<path class="st5" d="M173.6,169.2c0,0.8-1.1,1.5-2.4,1.5H58.8c-1.3,0-2.4-0.7-2.4-1.5l0,0c0-0.8,1.1-1.5,2.4-1.5h112.5
				C172.5,167.7,173.6,168.4,173.6,169.2L173.6,169.2z"/>
			<path class="st5" d="M173.6,178.8c0,0.8-1.1,1.5-2.4,1.5H58.8c-1.3,0-2.4-0.7-2.4-1.5l0,0c0-0.8,1.1-1.5,2.4-1.5h112.5
				C172.5,177.3,173.6,178,173.6,178.8L173.6,178.8z"/>
		</g>
		<g>
			<path class="st5" d="M98.3,205.4c0,0.8-0.3,1.5-0.7,1.5H62.7c-0.4,0-0.7-0.7-0.7-1.5l0,0c0-0.8,0.3-1.5,0.7-1.5h34.9
				C98,203.8,98.3,204.5,98.3,205.4L98.3,205.4z"/>
			<path class="st5" d="M98.3,215c0,0.8-0.3,1.5-0.7,1.5H62.7c-0.4,0-0.7-0.7-0.7-1.5l0,0c0-0.8,0.3-1.5,0.7-1.5h34.9
				C98,213.5,98.3,214.2,98.3,215L98.3,215z"/>
			<path class="st5" d="M98.3,224.6c0,0.8-0.3,1.5-0.7,1.5H62.7c-0.4,0-0.7-0.7-0.7-1.5l0,0c0-0.8,0.3-1.5,0.7-1.5h34.9
				C98,223.1,98.3,223.8,98.3,224.6L98.3,224.6z"/>
			<path class="st5" d="M98.3,234.3c0,0.8-0.3,1.5-0.7,1.5H62.7c-0.4,0-0.7-0.7-0.7-1.5l0,0c0-0.8,0.3-1.5,0.7-1.5h34.9
				C98,232.7,98.3,233.4,98.3,234.3L98.3,234.3z"/>
		</g>
	</g>
</g>
<g>
	
		<rect x="94.2" y="189.7" transform="matrix(0.7071 0.7071 -0.7071 0.7071 188.3038 -37.7424)" class="st3" width="91.1" height="37.4"/>
	
		<rect x="130.1" y="173.2" transform="matrix(-0.7071 0.7071 -0.7071 -0.7071 467.2795 190.1379)" class="st3" width="128.4" height="37.4"/>
</g>
</svg>
