<?xml version="1.0" encoding="utf-8"?>
<!-- Generator: Adobe Illustrator 22.0.0, SVG Export Plug-In . SVG Version: 6.00 Build 0)  -->
<svg version="1.1" id="Layer_1" xmlns="http://www.w3.org/2000/svg" xmlns:xlink="http://www.w3.org/1999/xlink" x="0px" y="0px"
	 viewBox="0 0 300 300" style="enable-background:new 0 0 300 300;" xml:space="preserve">
<style type="text/css">
	.st0{fill:#6EC7DC;}
	.st1{fill:#46777F;}
	.st2{fill:#CAE8F9;}
	.st3{fill:#004587;}
	.st4{fill:#063E6D;}
	.st5{fill:#A0D4F2;}
	.st6{fill:#184F78;}
	.st7{fill:#045FAA;}
	.st8{fill:#037ADD;}
	.st9{fill:#D1DCE4;}
</style>
<g>
	<path class="st0" d="M239.6,268.6c0,3.3-2.7,6-6,6H69.1c-3.3,0-6-2.7-6-6V60.1c0-3.3,2.7-6,6-6h164.5c3.3,0,6,2.7,6,6V268.6z"/>
	<rect x="79.7" y="69.9" class="st1" width="150.7" height="195.6"/>
	<rect x="76" y="66.6" class="st2" width="150.7" height="195.6"/>
	<path class="st3" d="M173.1,40.8V25h-43.6v15.8l-20.4,7v26.1h42.2h42.2V47.8L173.1,40.8z M165.8,42.2h-28.9V29.8h28.9V42.2z"/>
	<polygon class="st4" points="117.6,65.4 117.6,50.2 129.5,40.8 109.2,47.8 109.2,73.9 193.5,73.9 193.5,65.4 	"/>
	<g>
		<g>
			<path class="st5" d="M212.2,97.5c0,0.8-1.1,1.5-2.4,1.5H97.4c-1.3,0-2.4-0.7-2.4-1.5l0,0c0-0.8,1.1-1.5,2.4-1.5h112.5
				C211.1,96,212.2,96.7,212.2,97.5L212.2,97.5z"/>
			<path class="st5" d="M212.2,107.1c0,0.8-1.1,1.5-2.4,1.5H97.4c-1.3,0-2.4-0.7-2.4-1.5l0,0c0-0.8,1.1-1.5,2.4-1.5h112.5
				C211.1,105.6,212.2,106.3,212.2,107.1L212.2,107.1z"/>
			<path class="st5" d="M212.2,116.8c0,0.8-1.1,1.5-2.4,1.5H97.4c-1.3,0-2.4-0.7-2.4-1.5l0,0c0-0.8,1.1-1.5,2.4-1.5h112.5
				C211.1,115.2,212.2,115.9,212.2,116.8L212.2,116.8z"/>
			<path class="st5" d="M212.2,126.4c0,0.8-1.1,1.5-2.4,1.5H97.4c-1.3,0-2.4-0.7-2.4-1.5l0,0c0-0.8,1.1-1.5,2.4-1.5h112.5
				C211.1,124.9,212.2,125.6,212.2,126.4L212.2,126.4z"/>
		</g>
		<g>
			<path class="st5" d="M212.2,149.9c0,0.8-1.1,1.5-2.4,1.5H97.4c-1.3,0-2.4-0.7-2.4-1.5l0,0c0-0.8,1.1-1.5,2.4-1.5h112.5
				C211.1,148.4,212.2,149.1,212.2,149.9L212.2,149.9z"/>
			<path class="st5" d="M212.2,159.6c0,0.8-1.1,1.5-2.4,1.5H97.4c-1.3,0-2.4-0.7-2.4-1.5l0,0c0-0.8,1.1-1.5,2.4-1.5h112.5
				C211.1,158,212.2,158.7,212.2,159.6L212.2,159.6z"/>
			<path class="st5" d="M212.2,169.2c0,0.8-1.1,1.5-2.4,1.5H97.4c-1.3,0-2.4-0.7-2.4-1.5l0,0c0-0.8,1.1-1.5,2.4-1.5h112.5
				C211.1,167.7,212.2,168.4,212.2,169.2L212.2,169.2z"/>
			<path class="st5" d="M212.2,178.8c0,0.8-1.1,1.5-2.4,1.5H97.4c-1.3,0-2.4-0.7-2.4-1.5l0,0c0-0.8,1.1-1.5,2.4-1.5h112.5
				C211.1,177.3,212.2,178,212.2,178.8L212.2,178.8z"/>
		</g>
		<g>
			<path class="st5" d="M136.9,205.4c0,0.8-0.3,1.5-0.7,1.5h-34.9c-0.4,0-0.7-0.7-0.7-1.5l0,0c0-0.8,0.3-1.5,0.7-1.5h34.9
				C136.6,203.8,136.9,204.5,136.9,205.4L136.9,205.4z"/>
			<path class="st5" d="M136.9,215c0,0.8-0.3,1.5-0.7,1.5h-34.9c-0.4,0-0.7-0.7-0.7-1.5l0,0c0-0.8,0.3-1.5,0.7-1.5h34.9
				C136.6,213.5,136.9,214.2,136.9,215L136.9,215z"/>
			<path class="st5" d="M136.9,224.6c0,0.8-0.3,1.5-0.7,1.5h-34.9c-0.4,0-0.7-0.7-0.7-1.5l0,0c0-0.8,0.3-1.5,0.7-1.5h34.9
				C136.6,223.1,136.9,223.8,136.9,224.6L136.9,224.6z"/>
			<path class="st5" d="M136.9,234.3c0,0.8-0.3,1.5-0.7,1.5h-34.9c-0.4,0-0.7-0.7-0.7-1.5l0,0c0-0.8,0.3-1.5,0.7-1.5h34.9
				C136.6,232.7,136.9,233.4,136.9,234.3L136.9,234.3z"/>
		</g>
	</g>
</g>
<g>
	<g>
		<g>
			<path class="st0" d="M166,195.2l13.8,38.6c0.5,1.4,2,2.3,3.5,2l40.4-7.4l9.3-16.1l-57.6-33.3L166,195.2z"/>
			<path class="st6" d="M191,218.5c-5.1-2.9-11.3-2.7-16.6,0.1l5.4,15.2c0.5,1.4,2,2.3,3.5,2l15.9-2.9
				C198.9,226.9,196.1,221.5,191,218.5z"/>
			<polygon class="st3" points="189.9,192.4 166,195.2 216.2,108.3 232.9,117.9 			"/>
			<polygon class="st7" points="214.1,206.4 194.8,211.9 189.9,192.4 232.9,117.9 257.1,131.9 			"/>
			<polygon class="st8" points="223.7,228.5 214.1,206.4 257.1,131.9 273.9,141.5 			"/>
			<rect x="242.6" y="87.4" transform="matrix(0.5 -0.866 0.866 0.5 19.1758 274.6521)" class="st9" width="9.6" height="66.6"/>
			<path class="st6" d="M284.5,111.6l-47.7-27.5c-2.7-1.6-6.3-0.6-7.9,2.1L221,99.9l57.7,33.3l7.9-13.7
				C288.2,116.7,287.3,113.2,284.5,111.6z"/>
		</g>
	</g>
</g>
</svg>
