<?xml version="1.0" encoding="utf-8"?>
<!-- Generator: Adobe Illustrator 22.0.0, SVG Export Plug-In . SVG Version: 6.00 Build 0)  -->
<svg version="1.1" id="Layer_1" xmlns="http://www.w3.org/2000/svg" xmlns:xlink="http://www.w3.org/1999/xlink" x="0px" y="0px"
	 viewBox="0 0 1370.6 321.3" style="enable-background:new 0 0 1370.6 321.3;" xml:space="preserve">
<style type="text/css">
	.st0{clip-path:url(#SVGID_2_);fill:#6EC7DC;}
	.st1{clip-path:url(#SVGID_4_);fill:#004587;}
	.st2{fill:#778692;}
</style>
<title>logo</title>
<g>
	<g>
		<defs>
			<rect id="SVGID_1_" width="1378.7" height="319"/>
		</defs>
		<clipPath id="SVGID_2_">
			<use xlink:href="#SVGID_1_"  style="overflow:visible;"/>
		</clipPath>
		<path class="st0" d="M280.8,248.6C269.3,228.9,165.7,45.2,152.2,22c-12.8-22-35.5-12.3-35.5,18v46.8c10.6-15.1,27.7-6.8,27.7,17
			v178.4c0,1.1,0,2.2-0.1,3.2c0.9,0,1.7,0,2.6,0h115.7C288.1,285.4,293,269.6,280.8,248.6"/>
	</g>
	<g>
		<defs>
			<rect id="SVGID_3_" width="1378.7" height="319"/>
		</defs>
		<clipPath id="SVGID_4_">
			<use xlink:href="#SVGID_3_"  style="overflow:visible;"/>
		</clipPath>
		<path class="st1" d="M116.7,86.8c-0.5,0.7-1,1.4-1.4,2.2c-11,19-95.8,169.3-105.2,185.5c-10,17.2-6,30.1,14.9,30.1h94.7
			c14.8,0,23.7-2.5,24.6-19.2c0.1-1,0.1-2.1,0.1-3.2V103.8C144.3,80,127.3,71.7,116.7,86.8"/>
	</g>
</g>
<g>
	<path class="st2" d="M344.5,172.5v72.4h-7.8v-80.2h21.5c4.7,0,8.6,0.4,11.4,1.1c2.9,0.7,5.5,1.9,7.9,3.6c3.2,2.2,5.7,5.2,7.6,9
		c1.9,3.7,2.8,7.7,2.8,11.9c0,6.2-1.8,11.6-5.5,16c-3.7,4.5-8.3,6.9-13.9,7.3l19.4,31.4h-9.4l-23.8-38.7h7.6c5.1,0,9.2-1.5,12.4-4.5
		c3.2-3,4.8-6.8,4.8-11.5c0-2.8-0.5-5.4-1.5-7.7s-2.4-4.3-4.3-6.1c-1.6-1.4-3.5-2.5-5.7-3.1s-6.2-0.9-11.9-0.9H344.5z"/>
	<path class="st2" d="M456.6,217h-54.7c0.5,6.6,2.9,11.9,7.2,16c4.3,4.1,9.7,6.1,16.1,6.1c4.6,0,8.7-1.2,12.3-3.5
		c3.6-2.4,6.4-5.6,8.4-9.9h8.8c-2.8,6.7-6.7,11.9-11.8,15.4c-5.1,3.6-10.9,5.4-17.6,5.4c-8.8,0-16.3-3.1-22.4-9.4
		c-6.1-6.3-9.1-13.8-9.1-22.6c0-9.2,3-16.8,9-22.9s13.6-9,22.9-9c9.1,0,16.5,3.1,22.3,9.4c5.7,6.3,8.6,14.4,8.6,24.5L456.6,217
		L456.6,217z M448,210.2c-1.5-6.7-4.2-11.8-8.1-15.2s-9.1-5.1-15.4-5.1c-5.9,0-10.9,1.8-14.9,5.5c-4.1,3.7-6.6,8.6-7.5,14.8H448z"/>
	<path class="st2" d="M459.4,225.8h8v0.2c0,3.8,1.1,6.9,3.3,9.4c2.2,2.5,4.8,3.7,8,3.7c3,0,5.6-1,7.6-2.9s3-4.3,3-7.2
		s-0.8-5.2-2.4-7s-4.5-3.4-8.7-5c-6.7-2.4-11.1-4.8-13.2-7.3s-3.1-5.8-3.1-10c0-4.7,1.7-8.8,5.2-12.1c3.4-3.3,7.6-5,12.5-5
		c5.2,0,9.3,1.5,12.3,4.4s4.7,7,4.9,12.3h-8.3c-0.2-2.9-1.1-5.1-2.7-6.7c-1.6-1.6-3.9-2.4-6.7-2.4c-2.5,0-4.6,0.9-6.3,2.6
		c-1.7,1.7-2.5,3.8-2.5,6.4c0,1.8,0.3,3.3,1,4.5s1.9,2.3,3.5,3.3c1.5,0.9,3.6,1.8,6.4,2.6s4.7,1.5,5.6,1.9c3.8,1.6,6.6,3.8,8.3,6.4
		c1.8,2.7,2.7,6.1,2.7,10.3c0,5.2-1.8,9.5-5.5,13c-3.6,3.4-8.2,5.1-13.8,5.1c-5.7,0-10.3-1.9-13.7-5.6
		C461.4,237.1,459.6,232.1,459.4,225.8z"/>
	<path class="st2" d="M504.6,184.2h7.7v9.9c2.2-3.4,5.4-6.1,9.5-8.2c4.1-2,8.5-3.1,13.1-3.1c9.1,0,16.7,3,22.7,9.1s9,13.7,9,22.8
		c0,8.9-3,16.4-8.9,22.5s-13.3,9.1-22.2,9.1c-4.9,0-9.4-1-13.3-2.9c-3.9-1.9-7.2-4.7-9.8-8.3v4.2v9v16h-7.7L504.6,184.2L504.6,184.2
		z M512.3,214.2c0,6.9,2.3,12.8,6.8,17.7c4.6,4.9,9.9,7.4,16.1,7.4c6.4,0,11.8-2.3,16.4-7c4.6-4.6,6.8-10.4,6.8-17.1
		c0-7.1-2.3-13-6.9-17.8c-4.6-4.8-10.1-7.2-16.6-7.2c-6,0-11.3,2.4-15.8,7.2C514.5,202.2,512.3,207.8,512.3,214.2z"/>
	<path class="st2" d="M581.5,177.1h-7.8v-12.5h7.8V177.1z M573.8,244.8v-60.6h7.8v60.6L573.8,244.8L573.8,244.8z"/>
	<path class="st2" d="M599.6,244.8h-7.9v-60.6h7.3v7c1.9-2.7,4-4.6,6.3-5.9c2.3-1.2,4.9-1.9,7.9-2l0.1,8.4
		c-4.9,0.4-8.4,1.9-10.5,4.4s-3.2,6.5-3.2,12.1L599.6,244.8L599.6,244.8z"/>
	<path class="st2" d="M662.8,235.3c-2.4,3.5-5.7,6.2-9.8,8.2s-8.6,3-13.4,3c-8.9,0-16.3-3-22.2-9.1s-8.9-13.6-8.9-22.5
		c0-9.1,3-16.7,9.1-22.8c6-6.1,13.6-9.1,22.7-9.1c4.7,0,8.9,0.9,12.8,2.8c3.9,1.9,7.1,4.6,9.7,8.2v-9.7h7.6v60.6h-7.6L662.8,235.3
		L662.8,235.3z M662.8,214.2c0-6.4-2.3-12-6.9-16.8c-4.6-4.8-9.9-7.2-15.9-7.2c-6.5,0-12,2.4-16.6,7.2s-6.9,10.7-6.9,17.8
		c0,6.8,2.3,12.5,6.8,17.1c4.6,4.6,10,7,16.4,7c6.2,0,11.5-2.5,16.1-7.4C660.5,227,662.8,221.1,662.8,214.2z"/>
	<path class="st2" d="M685.6,244.8V192h-11.5v-7.8h11.5v-19.6h7.8v19.6h11.5v7.8h-11.5v52.8H685.6z"/>
	<path class="st2" d="M705.5,214.6c0-8.9,3.1-16.5,9.1-22.8c6.1-6.3,13.3-9.5,21.7-9.5c8.8,0,16.3,3.1,22.5,9.3s9.3,13.6,9.3,22.2
		c0,9-3,16.8-9.1,23.1c-6.1,6.4-13.4,9.6-22,9.6c-8.8,0-16.2-3.1-22.3-9.4C708.6,230.9,705.5,223.4,705.5,214.6z M713.7,214.5
		c0,7,2.2,12.8,6.7,17.6c4.4,4.7,10,7.1,16.6,7.1c6.5,0,12-2.4,16.4-7.1c4.4-4.7,6.6-10.6,6.6-17.7c0-7.2-2.2-13.1-6.7-17.7
		c-4.5-4.6-10.1-6.9-17-6.9c-6.2,0-11.5,2.4-15.9,7.1C715.9,201.6,713.7,207.5,713.7,214.5z"/>
	<path class="st2" d="M782.8,244.8h-7.9v-60.6h7.3v7c1.9-2.7,4-4.6,6.3-5.9c2.3-1.2,4.9-1.9,7.9-2l0.1,8.4
		c-4.9,0.4-8.4,1.9-10.5,4.4s-3.2,6.5-3.2,12.1L782.8,244.8L782.8,244.8z"/>
	<path class="st2" d="M798.3,184.2h8.9l18.7,49.2l19.6-49.2h9l-32.7,80.2h-8.3l8.1-19.7L798.3,184.2z"/>
</g>
<g>
	<path class="st2" d="M918.7,216.6l-16.3,28.2h-17.7l25.7-40.5l-25.1-39.7H903l15.6,27.9l15.5-27.9h17.7L927,204.3l25.6,40.5h-17.7
		L918.7,216.6z"/>
	<path class="st2" d="M997.6,205.8c-1.7-3.2-3.8-5.5-6.5-7.1c-2.6-1.6-5.7-2.4-9.3-2.4c-4.8,0-8.8,1.7-12,5.2s-4.8,7.8-4.8,13
		c0,5.1,1.6,9.4,4.9,12.8c3.3,3.4,7.4,5.1,12.4,5.1c3.8,0,7-0.8,9.5-2.5c2.5-1.6,4.4-4.1,5.7-7.4h15c-1.8,7.4-5.4,13.2-10.7,17.5
		c-5.3,4.2-11.8,6.3-19.4,6.3c-4.5,0-8.6-0.8-12.5-2.4c-3.8-1.6-7.3-4-10.4-7.1c-2.9-2.9-5.1-6.4-6.7-10.3c-1.6-3.9-2.4-8-2.4-12
		c0-4.3,0.7-8.2,2.2-12c1.5-3.7,3.6-7.1,6.5-10c3.2-3.3,6.7-5.9,10.7-7.6c4-1.7,8.2-2.6,12.8-2.6c7.4,0,13.8,2.1,19.3,6.3
		c5.4,4.2,9,9.9,10.7,17h-15V205.8z"/>
	<path class="st2" d="M1032.3,164.6v26.5c2.1-2.8,4.4-4.8,7.1-6.1s5.7-2,9.1-2c7.6,0,13.4,2.3,17.4,7c4,4.6,6.1,11.3,6.1,20.1v34.8
		h-14.1v-26.7c0-8.3-0.9-13.9-2.8-16.9s-5.1-4.4-9.7-4.4c-4.7,0-8.1,1.7-10.1,5c-2.1,3.3-3.1,9-3.1,17.1v26h-13.6v-80.2h13.7V164.6z
		"/>
	<path class="st2" d="M1127,244.8v-7.4c-1.7,3-4.1,5.2-7.1,6.7c-3.1,1.4-7,2.2-11.8,2.2c-9,0-16.4-3.1-22.5-9.2
		c-6-6.1-9-13.7-9-22.8c0-4.3,0.8-8.3,2.3-12.1s3.7-7.2,6.4-10.1c3-3.2,6.4-5.6,10-7.1c3.7-1.5,7.8-2.3,12.4-2.3
		c4.4,0,8.2,0.7,11.4,2.2c3.2,1.5,5.7,3.7,7.7,6.7v-7.3h13.8v60.6L1127,244.8L1127,244.8z M1091,214c0,5.1,1.7,9.4,5.1,12.8
		c3.4,3.4,7.5,5.2,12.4,5.2c4.4,0,8.4-1.7,11.7-5.2c3.4-3.5,5.1-7.5,5.1-12.1c0-4.9-1.7-9.2-5.1-12.7s-7.4-5.3-11.9-5.3
		c-4.8,0-8.9,1.7-12.2,5C1092.7,205.1,1091,209.2,1091,214z"/>
	<path class="st2" d="M1162.8,184.2v6.9c2.1-2.8,4.4-4.8,7.1-6.1s5.7-2,9.1-2c4.4,0,8.2,0.8,11.4,2.5c3.3,1.7,6,4.1,8.1,7.4
		c1.4,2.2,2.4,4.7,3,7.5s0.9,6.9,0.9,12.3v32.1h-14.1V218c0-8.1-0.9-13.7-2.8-16.7s-5.1-4.5-9.7-4.5c-4.7,0-8.1,1.7-10.1,5
		c-2.1,3.3-3.1,9-3.1,17.1v26H1149v-60.6h13.8V184.2z"/>
	<path class="st2" d="M1258.8,184.2h12.6v50.6c0,10.5-2.8,18.8-8.4,24.7c-5.6,6-13.3,9-23.1,9c-7.3,0-13.4-1.7-18.4-5.2
		c-4.9-3.4-8.5-8.5-10.9-15.3h13.6c1.5,2.7,3.6,4.9,6.3,6.4c2.7,1.5,5.7,2.3,9.1,2.3c5.6,0,10.2-1.8,13.7-5.5s5.3-8.5,5.3-14.5v-0.6
		c-2.7,2.8-5.8,5-9.3,6.4c-3.5,1.5-7.3,2.2-11.5,2.2c-4,0-7.9-0.7-11.5-2.1c-3.6-1.4-6.8-3.4-9.6-6c-3-2.9-5.4-6.3-7.1-10.2
		c-1.7-4-2.6-8-2.6-12.1c0-9.2,2.9-16.8,8.7-22.7c5.8-6,13.2-9,22.1-9c4.1,0,7.8,0.7,11.3,2.1c3.4,1.4,6.6,3.6,9.6,6.6v-7.1H1258.8z
		 M1221.1,213.5c0,5.3,1.8,9.7,5.3,13.3s7.9,5.3,13.1,5.3c4.7,0,8.9-1.8,12.5-5.4c3.6-3.6,5.4-7.8,5.4-12.6c0-5.2-1.8-9.6-5.3-13.3
		c-3.6-3.7-7.8-5.5-12.7-5.5c-5.1,0-9.4,1.7-13,5.2C1222.9,204.1,1221.1,208.4,1221.1,213.5z"/>
	<path class="st2" d="M1290.5,219c0.5,4.4,2.2,7.8,5.2,10.3s6.9,3.8,11.6,3.8c3.2,0,6-0.7,8.5-2s4.5-3.2,6-5.6h15.2
		c-2.6,6.6-6.4,11.7-11.5,15.4s-11,5.5-17.8,5.5c-4.5,0-8.7-0.8-12.5-2.4c-3.8-1.6-7.2-4-10.2-7.1c-2.9-3-5.1-6.4-6.7-10.3
		c-1.6-3.9-2.4-7.9-2.4-12c0-4.2,0.7-8.2,2.2-11.9s3.6-7.1,6.4-10.1c3.1-3.3,6.6-5.8,10.5-7.5c3.9-1.8,7.9-2.6,12.1-2.6
		c5.3,0,10.2,1.2,14.7,3.6c4.6,2.4,8.4,5.8,11.6,10.1c1.9,2.6,3.4,5.5,4.3,8.8c0.9,3.2,1.4,6.9,1.4,11.1c0,0.3,0,0.8-0.1,1.5
		c0,0.7-0.1,1.2-0.1,1.5h-48.4V219z M1323.9,207.8c-1.2-4-3.2-7.1-6.1-9.2c-2.8-2.1-6.4-3.2-10.8-3.2c-3.7,0-7.1,1.1-10.1,3.4
		c-3,2.3-5,5.3-6,9H1323.9z"/>
</g>
<g>
	<path class="st2" d="M339.2,304.7V279h3.7l8.9,22.3l8.8-22.3h3.7v25.7h-2.4V282l-9,22.7h-2.3l-9-22.7v22.7H339.2z"/>
	<path class="st2" d="M387.5,295.8H370c0.2,2.1,0.9,3.8,2.3,5.1c1.4,1.3,3.1,2,5.1,2c1.5,0,2.8-0.4,3.9-1.1c1.2-0.8,2.1-1.8,2.7-3.2
		h2.8c-0.9,2.1-2.1,3.8-3.8,4.9c-1.6,1.1-3.5,1.7-5.6,1.7c-2.8,0-5.2-1-7.2-3c-1.9-2-2.9-4.4-2.9-7.2c0-2.9,1-5.4,2.9-7.3
		s4.3-2.9,7.3-2.9c2.9,0,5.3,1,7.1,3c1.8,2,2.8,4.6,2.8,7.8v0.2H387.5z M384.7,293.6c-0.5-2.2-1.3-3.8-2.6-4.9
		c-1.3-1.1-2.9-1.6-4.9-1.6c-1.9,0-3.5,0.6-4.8,1.8c-1.3,1.2-2.1,2.8-2.4,4.7H384.7z"/>
	<path class="st2" d="M406.6,288.4V284v-5h2.5v25.7h-2.5v-2.9c-0.9,1.1-1.9,1.9-3.2,2.5c-1.3,0.6-2.7,0.9-4.1,0.9
		c-2.8,0-5.2-1-7.1-3s-2.9-4.4-2.9-7.3c0-2.8,0.9-5.2,2.8-7.2c1.9-1.9,4.3-2.9,7.1-2.9c1.5,0,2.9,0.3,4.2,0.9
		C404.7,286.3,405.7,287.2,406.6,288.4z M406.7,295.2c0-2.2-0.7-4.1-2.2-5.7s-3.2-2.3-5.2-2.3s-3.8,0.7-5.3,2.2s-2.2,3.3-2.2,5.5
		c0,2.3,0.7,4.2,2.2,5.7s3.2,2.3,5.3,2.3c1.9,0,3.6-0.8,5.1-2.3C405.9,299,406.7,297.2,406.7,295.2z"/>
	<path class="st2" d="M415.6,283h-2.5v-4h2.5V283z M413.1,304.7v-19.4h2.5v19.4H413.1z"/>
	<path class="st2" d="M435.1,291.2c-0.8-1.4-1.7-2.5-2.8-3.1c-1.1-0.7-2.4-1-3.9-1c-2,0-3.7,0.8-5.1,2.3s-2.1,3.4-2.1,5.6
		s0.7,4.1,2.1,5.6s3.1,2.2,5.2,2.2c1.5,0,2.8-0.4,4-1.1s2-1.8,2.6-3.1h2.7c-0.8,2.1-1.9,3.7-3.5,4.9c-1.6,1.2-3.5,1.7-5.7,1.7
		c-2.8,0-5.2-1-7.1-3s-2.9-4.4-2.9-7.2c0-2.9,1-5.3,2.9-7.3c2-2,4.3-3,7.1-3c2.1,0,4,0.6,5.6,1.7s2.8,2.7,3.6,4.8H435.1z"/>
	<path class="st2" d="M457.8,301.6c-0.8,1.1-1.8,2-3.1,2.6c-1.3,0.6-2.7,1-4.3,1c-2.8,0-5.2-1-7.1-2.9s-2.8-4.3-2.8-7.2
		c0-2.9,1-5.3,2.9-7.3s4.3-2.9,7.3-2.9c1.5,0,2.9,0.3,4.1,0.9s2.3,1.5,3.1,2.6v-3.1h2.4v19.4h-2.4v-3.1H457.8z M457.8,294.9
		c0-2.1-0.7-3.9-2.2-5.4s-3.2-2.3-5.1-2.3c-2.1,0-3.8,0.8-5.3,2.3s-2.2,3.4-2.2,5.7c0,2.2,0.7,4,2.2,5.5s3.2,2.2,5.3,2.2
		c2,0,3.7-0.8,5.2-2.4C457.1,298.9,457.8,297.1,457.8,294.9z"/>
	<path class="st2" d="M464.2,304.7V279h2.5v25.7H464.2z"/>
	<path class="st2" d="M483.8,290.5h10.8v2.5h-10.8v9.1h10.8v2.5h-13.3V279h13.3v2.5h-10.8V290.5z"/>
	<path class="st2" d="M515.3,288.4V284v-5h2.5v25.7h-2.5v-2.9c-0.9,1.1-1.9,1.9-3.2,2.5s-2.7,0.9-4.1,0.9c-2.8,0-5.2-1-7.1-3
		s-2.9-4.4-2.9-7.3c0-2.8,0.9-5.2,2.8-7.2s4.3-2.9,7.1-2.9c1.5,0,2.9,0.3,4.2,0.9C513.4,286.3,514.4,287.2,515.3,288.4z
		 M515.4,295.2c0-2.2-0.7-4.1-2.2-5.7s-3.2-2.3-5.2-2.3s-3.8,0.7-5.3,2.2s-2.2,3.3-2.2,5.5c0,2.3,0.7,4.2,2.2,5.7s3.2,2.3,5.3,2.3
		c1.9,0,3.6-0.8,5.1-2.3C514.6,299,515.4,297.2,515.4,295.2z"/>
	<path class="st2" d="M521.7,285.3h2.4v10.3c0,2.6,0.4,4.5,1.3,5.6c0.9,1.1,2.3,1.6,4.2,1.6c1.1,0,2.1-0.2,2.9-0.7
		c0.8-0.5,1.5-1.1,2-2c0.3-0.5,0.5-1.1,0.6-1.8c0.1-0.7,0.2-1.9,0.2-3.6v-9.5h2.5v19.4h-2.5v-2.1c-0.8,0.9-1.6,1.6-2.5,2
		s-2.1,0.6-3.4,0.6c-2.8,0-4.8-0.8-6-2.3s-1.9-4-1.9-7.5v-10H521.7z"/>
	<path class="st2" d="M557.4,291.2c-0.8-1.4-1.7-2.5-2.8-3.1c-1.1-0.7-2.4-1-3.9-1c-2,0-3.7,0.8-5.1,2.3s-2.1,3.4-2.1,5.6
		s0.7,4.1,2.1,5.6c1.4,1.5,3.1,2.2,5.2,2.2c1.5,0,2.8-0.4,4-1.1c1.1-0.7,2-1.8,2.6-3.1h2.7c-0.8,2.1-1.9,3.7-3.5,4.9
		c-1.6,1.2-3.5,1.7-5.7,1.7c-2.8,0-5.2-1-7.1-3c-1.9-2-2.9-4.4-2.9-7.2c0-2.9,1-5.3,2.9-7.3c2-2,4.3-3,7.1-3c2.1,0,4,0.6,5.6,1.7
		s2.8,2.7,3.6,4.8H557.4z"/>
	<path class="st2" d="M580.1,301.6c-0.8,1.1-1.8,2-3.1,2.6s-2.7,1-4.3,1c-2.8,0-5.2-1-7.1-2.9c-1.9-1.9-2.8-4.3-2.8-7.2
		c0-2.9,1-5.3,2.9-7.3s4.4-2.9,7.3-2.9c1.5,0,2.9,0.3,4.1,0.9c1.2,0.6,2.3,1.5,3.1,2.6v-3.1h2.4v19.4h-2.4v-3.1H580.1z M580.1,294.9
		c0-2.1-0.7-3.9-2.2-5.4s-3.2-2.3-5.1-2.3c-2.1,0-3.8,0.8-5.3,2.3s-2.2,3.4-2.2,5.7c0,2.2,0.7,4,2.2,5.5s3.2,2.2,5.3,2.2
		c2,0,3.7-0.8,5.2-2.4C579.4,298.9,580.1,297.1,580.1,294.9z"/>
	<path class="st2" d="M588.2,304.7v-16.9h-3.7v-2.5h3.7V279h2.5v6.3h3.7v2.5h-3.7v16.9L588.2,304.7L588.2,304.7z"/>
	<path class="st2" d="M598.8,283h-2.5v-4h2.5V283z M596.3,304.7v-19.4h2.5v19.4H596.3z"/>
	<path class="st2" d="M601.8,295c0-2.8,1-5.3,2.9-7.3c2-2,4.3-3,6.9-3c2.8,0,5.2,1,7.2,3s3,4.4,3,7.1c0,2.9-1,5.4-2.9,7.4
		s-4.3,3.1-7,3.1c-2.8,0-5.2-1-7.1-3C602.8,300.2,601.8,297.8,601.8,295z M604.4,295c0,2.2,0.7,4.1,2.1,5.6c1.4,1.5,3.2,2.3,5.3,2.3
		s3.8-0.8,5.2-2.3s2.1-3.4,2.1-5.6c0-2.3-0.7-4.2-2.1-5.6c-1.4-1.5-3.2-2.2-5.4-2.2c-2,0-3.7,0.8-5.1,2.3
		C605.1,290.9,604.4,292.7,604.4,295z"/>
	<path class="st2" d="M624.7,285.3h2.4v2.2c0.8-0.9,1.6-1.5,2.7-2c1-0.4,2.2-0.6,3.4-0.6c1.4,0,2.7,0.3,3.8,0.8s2,1.3,2.6,2.3
		c0.4,0.7,0.8,1.5,1,2.4s0.3,2.3,0.3,4.1v10.1h-2.4v-10.9c0-2.3-0.4-4-1.3-5c-0.9-1-2.3-1.6-4.2-1.6c-1.1,0-2.1,0.2-3,0.7
		s-1.5,1.1-2,1.9c-0.3,0.5-0.5,1.1-0.6,1.8c-0.1,0.7-0.2,1.9-0.2,3.5v9.4h-2.4L624.7,285.3L624.7,285.3z"/>
	<path class="st2" d="M670.9,299.8l4.7-14.5h2.6l-6.5,19.4h-1.6l-4.5-14.8l-4.5,14.8h-1.6l-6.5-19.4h2.6l4.7,14.5l4.4-14.5h1.8
		L670.9,299.8z"/>
	<path class="st2" d="M682.6,283h-2.5v-4h2.5V283z M680.1,304.7v-19.4h2.5v19.4H680.1z"/>
	<path class="st2" d="M688.3,304.7v-16.9h-3.7v-2.5h3.7V279h2.5v6.3h3.7v2.5h-3.7v16.9L688.3,304.7L688.3,304.7z"/>
	<path class="st2" d="M696.4,279h2.4v8.5c0.7-0.9,1.6-1.5,2.6-2c1-0.4,2.1-0.7,3.4-0.7c2.7,0,4.7,0.8,6,2.3c1.2,1.6,1.9,4.1,1.9,7.6
		v9.8h-2.4v-9.9c0-2.8-0.4-4.8-1.3-5.9c-0.8-1.1-2.3-1.6-4.2-1.6c-1.1,0-2.1,0.2-3,0.7s-1.5,1.1-2,1.9c-0.3,0.5-0.5,1.1-0.6,1.8
		c-0.1,0.7-0.2,1.9-0.2,3.5v9.4h-2.4V279H696.4z"/>
	<path class="st2" d="M727.2,279h4.8c2.9,0,5,0.5,6.4,1.6s2,2.8,2,5.1c0,1.2-0.2,2.2-0.7,3s-1.1,1.5-2.1,2c1.4,0.6,2.4,1.4,3.1,2.4
		c0.7,1,1,2.3,1,3.8c0,2.6-0.7,4.5-2.2,5.7c-1.4,1.2-3.7,1.8-6.8,1.8H727V279H727.2z M729.6,281.5v8.6h1.5c2.5,0,4.2-0.3,5.2-1
		s1.5-1.8,1.5-3.4c0-1.5-0.5-2.5-1.4-3.2c-1-0.7-2.5-1-4.6-1H729.6z M729.6,292.5v9.7h3.5c2.1,0,3.6-0.4,4.6-1.2
		c1-0.8,1.5-2,1.5-3.6s-0.5-2.9-1.5-3.7c-1-0.8-2.5-1.2-4.6-1.2L729.6,292.5L729.6,292.5z"/>
	<path class="st2" d="M744.1,295c0-2.8,1-5.3,2.9-7.3c2-2,4.3-3,6.9-3c2.8,0,5.2,1,7.2,3s3,4.4,3,7.1c0,2.9-1,5.4-2.9,7.4
		s-4.3,3.1-7,3.1c-2.8,0-5.2-1-7.1-3C745.1,300.2,744.1,297.8,744.1,295z M746.7,295c0,2.2,0.7,4.1,2.1,5.6c1.4,1.5,3.2,2.3,5.3,2.3
		s3.8-0.8,5.2-2.3s2.1-3.4,2.1-5.6c0-2.3-0.7-4.2-2.1-5.6c-1.4-1.5-3.2-2.2-5.4-2.2c-2,0-3.7,0.8-5.1,2.3
		C747.4,290.9,746.7,292.7,746.7,295z"/>
	<path class="st2" d="M786,295.8h-17.5c0.2,2.1,0.9,3.8,2.3,5.1c1.4,1.3,3.1,2,5.1,2c1.5,0,2.8-0.4,3.9-1.1c1.2-0.8,2.1-1.8,2.7-3.2
		h2.8c-0.9,2.1-2.1,3.8-3.8,4.9c-1.6,1.1-3.5,1.7-5.6,1.7c-2.8,0-5.2-1-7.2-3c-1.9-2-2.9-4.4-2.9-7.2c0-2.9,1-5.4,2.9-7.3
		s4.3-2.9,7.3-2.9c2.9,0,5.3,1,7.1,3s2.8,4.6,2.8,7.8v0.2H786z M783.3,293.6c-0.5-2.2-1.3-3.8-2.6-4.9s-2.9-1.6-4.9-1.6
		c-1.9,0-3.5,0.6-4.8,1.8s-2.1,2.8-2.4,4.7H783.3z"/>
	<path class="st2" d="M788.8,279h2.4v8.5c0.7-0.9,1.6-1.5,2.6-2c1-0.4,2.1-0.7,3.4-0.7c2.7,0,4.7,0.8,6,2.3s1.9,4.1,1.9,7.6v9.8
		h-2.4v-9.9c0-2.8-0.4-4.8-1.3-5.9c-0.8-1.1-2.3-1.6-4.2-1.6c-1.1,0-2.1,0.2-3,0.7s-1.5,1.1-2,1.9c-0.3,0.5-0.5,1.1-0.6,1.8
		c-0.1,0.7-0.2,1.9-0.2,3.5v9.4H789V279H788.8z"/>
	<path class="st2" d="M811.5,304.7H809v-19.4h2.3v2.2c0.6-0.9,1.3-1.5,2-1.9s1.6-0.6,2.5-0.6v2.7c-1.6,0.1-2.7,0.6-3.4,1.4
		s-1,2.1-1,3.9v11.7H811.5z"/>
	<path class="st2" d="M821.2,283h-2.5v-4h2.5V283z M818.7,304.7v-19.4h2.5v19.4H818.7z"/>
	<path class="st2" d="M825.2,285.3h2.4v2.2c0.8-0.9,1.6-1.5,2.7-2c1-0.4,2.2-0.6,3.4-0.6c1.4,0,2.7,0.3,3.8,0.8s2,1.3,2.6,2.3
		c0.4,0.7,0.8,1.5,1,2.4s0.3,2.3,0.3,4.1v10.1H839v-10.9c0-2.3-0.4-4-1.3-5c-0.9-1-2.3-1.6-4.2-1.6c-1.1,0-2.1,0.2-3,0.7
		s-1.5,1.1-2,1.9c-0.3,0.5-0.5,1.1-0.6,1.8c-0.1,0.7-0.2,1.9-0.2,3.5v9.4h-2.4L825.2,285.3L825.2,285.3z"/>
	<path class="st2" d="M848.7,306.3c0.4,1.1,1.1,2,2,2.6c1,0.6,2.2,0.9,3.6,0.9c2.2,0,4-0.7,5.3-2.2s2-3.4,2-5.9v-0.5
		c-0.9,1.3-2,2.2-3.2,2.9c-1.2,0.7-2.5,1-4,1c-2.9,0-5.3-1-7.3-2.9c-1.9-1.9-2.9-4.4-2.9-7.3s1-5.2,2.9-7.2c1.9-1.9,4.3-2.9,7.1-2.9
		c1.6,0,3,0.3,4.2,0.9s2.2,1.5,3.2,2.7v-3.2h2.4v16.2c0,3.4-0.8,6-2.5,7.9s-4,2.9-7,2.9c-2.2,0-4.1-0.5-5.7-1.6
		c-1.6-1.1-2.6-2.5-3-4.4h2.9V306.3z M847,294.8c0,2.3,0.7,4.2,2.2,5.7c1.4,1.5,3.2,2.3,5.2,2.3c1.9,0,3.6-0.8,5.1-2.3
		s2.2-3.3,2.2-5.4c0-2.2-0.7-4.1-2.2-5.7c-1.4-1.6-3.1-2.3-5.1-2.3s-3.8,0.7-5.2,2.2C847.7,290.8,847,292.6,847,294.8z"/>
	<path class="st2" d="M887,295.8h-17.5c0.2,2.1,0.9,3.8,2.3,5.1c1.4,1.3,3.1,2,5.1,2c1.5,0,2.8-0.4,3.9-1.1c1.2-0.8,2.1-1.8,2.7-3.2
		h2.8c-0.9,2.1-2.1,3.8-3.8,4.9c-1.6,1.1-3.5,1.7-5.6,1.7c-2.8,0-5.2-1-7.2-3c-1.9-2-2.9-4.4-2.9-7.2c0-2.9,1-5.4,2.9-7.3
		s4.3-2.9,7.3-2.9c2.9,0,5.3,1,7.1,3s2.8,4.6,2.8,7.8v0.2H887z M884.2,293.6c-0.5-2.2-1.3-3.8-2.6-4.9s-2.9-1.6-4.9-1.6
		c-1.9,0-3.5,0.6-4.8,1.8c-1.3,1.2-2.1,2.8-2.4,4.7H884.2z"/>
	<path class="st2" d="M892.3,304.7h-2.5v-19.4h2.3v2.2c0.6-0.9,1.3-1.5,2-1.9s1.6-0.6,2.5-0.6v2.7c-1.6,0.1-2.7,0.6-3.4,1.4
		s-1,2.1-1,3.9v11.7H892.3z"/>
	<path class="st2" d="M911.9,304.7h-2.5V279h2.5V304.7z"/>
	<path class="st2" d="M916.3,285.3h2.4v2.2c0.8-0.9,1.6-1.5,2.7-2c1-0.4,2.2-0.6,3.4-0.6c1.4,0,2.7,0.3,3.8,0.8s2,1.3,2.6,2.3
		c0.4,0.7,0.8,1.5,1,2.4s0.3,2.3,0.3,4.1v10.1H930v-10.9c0-2.3-0.4-4-1.3-5c-0.9-1-2.3-1.6-4.2-1.6c-1.1,0-2.1,0.2-3,0.7
		s-1.5,1.1-2,1.9c-0.3,0.5-0.5,1.1-0.6,1.8c-0.1,0.7-0.2,1.9-0.2,3.5v9.4h-2.4V285.3z"/>
	<path class="st2" d="M939.7,306.3c0.4,1.1,1.1,2,2,2.6c1,0.6,2.2,0.9,3.6,0.9c2.2,0,4-0.7,5.3-2.2s2-3.4,2-5.9v-0.5
		c-0.9,1.3-2,2.2-3.2,2.9c-1.2,0.7-2.5,1-4,1c-2.9,0-5.3-1-7.3-2.9c-1.9-1.9-2.9-4.4-2.9-7.3s1-5.2,2.9-7.2c1.9-1.9,4.3-2.9,7.1-2.9
		c1.6,0,3,0.3,4.2,0.9s2.2,1.5,3.2,2.7v-3.2h2.4v16.2c0,3.4-0.8,6-2.5,7.9s-4,2.9-7,2.9c-2.2,0-4.1-0.5-5.7-1.6
		c-1.6-1.1-2.6-2.5-3-4.4h2.9V306.3z M938,294.8c0,2.3,0.7,4.2,2.2,5.7c1.4,1.5,3.2,2.3,5.2,2.3c1.9,0,3.6-0.8,5.1-2.3
		s2.2-3.3,2.2-5.4c0-2.2-0.7-4.1-2.2-5.7c-1.4-1.6-3.1-2.3-5.1-2.3s-3.8,0.7-5.2,2.2C938.7,290.8,938,292.6,938,294.8z"/>
	<path class="st2" d="M978,295.8h-17.5c0.2,2.1,0.9,3.8,2.3,5.1c1.4,1.3,3.1,2,5.1,2c1.5,0,2.8-0.4,3.9-1.1c1.2-0.8,2.1-1.8,2.7-3.2
		h2.8c-0.9,2.1-2.1,3.8-3.8,4.9c-1.6,1.1-3.5,1.7-5.6,1.7c-2.8,0-5.2-1-7.2-3c-1.9-2-2.9-4.4-2.9-7.2c0-2.9,1-5.4,2.9-7.3
		s4.3-2.9,7.3-2.9c2.9,0,5.3,1,7.1,3s2.8,4.6,2.8,7.8v0.2H978z M975.2,293.6c-0.5-2.2-1.3-3.8-2.6-4.9s-2.9-1.6-4.9-1.6
		c-1.9,0-3.5,0.6-4.8,1.8c-1.3,1.2-2.1,2.8-2.4,4.7H975.2z"/>
	<path class="st2" d="M980.9,304.7V279h2.5v25.7H980.9z"/>
	<path class="st2" d="M987.3,279h2.4v8.5c0.7-0.9,1.6-1.5,2.6-2c1-0.4,2.1-0.7,3.4-0.7c2.7,0,4.7,0.8,6,2.3c1.2,1.6,1.9,4.1,1.9,7.6
		v9.8h-2.4v-9.9c0-2.8-0.4-4.8-1.3-5.9c-0.8-1.1-2.3-1.6-4.2-1.6c-1.1,0-2.1,0.2-3,0.7s-1.5,1.1-2,1.9c-0.3,0.5-0.5,1.1-0.6,1.8
		c-0.1,0.7-0.2,1.9-0.2,3.5v9.4h-2.4V279H987.3z"/>
	<path class="st2" d="M1026.5,295.8H1009c0.2,2.1,0.9,3.8,2.3,5.1c1.4,1.3,3.1,2,5.1,2c1.5,0,2.8-0.4,3.9-1.1
		c1.2-0.8,2.1-1.8,2.7-3.2h2.8c-0.9,2.1-2.1,3.8-3.8,4.9c-1.6,1.1-3.5,1.7-5.6,1.7c-2.8,0-5.2-1-7.2-3c-1.9-2-2.9-4.4-2.9-7.2
		c0-2.9,1-5.4,2.9-7.3s4.3-2.9,7.3-2.9c2.9,0,5.3,1,7.1,3s2.8,4.6,2.8,7.8L1026.5,295.8L1026.5,295.8z M1023.8,293.6
		c-0.5-2.2-1.3-3.8-2.6-4.9s-2.9-1.6-4.9-1.6c-1.9,0-3.5,0.6-4.8,1.8c-1.3,1.2-2.1,2.8-2.4,4.7H1023.8z"/>
	<path class="st2" d="M1031.9,283h-2.5v-4h2.5V283z M1029.4,304.7v-19.4h2.5v19.4H1029.4z"/>
	<path class="st2" d="M1051.1,288.3c0.8-1.1,1.8-2,2.9-2.5c1.2-0.6,2.5-0.9,3.9-0.9c2.6,0,4.5,0.8,5.7,2.4s1.8,4.1,1.8,7.6v9.8h-2.4
		v-10.3c0-2.6-0.4-4.4-1.3-5.5c-0.8-1.1-2.2-1.6-4.1-1.6c-1.1,0-2.1,0.2-2.9,0.7s-1.5,1.1-2,1.9c-0.3,0.5-0.5,1.1-0.6,1.8
		c-0.1,0.7-0.2,1.9-0.2,3.5v9.4h-2.3v-10.9c0-2.2-0.5-3.9-1.4-4.9c-0.9-1.1-2.3-1.6-4.2-1.6c-1.1,0-2.1,0.2-3,0.7s-1.5,1.1-2,1.9
		c-0.3,0.5-0.5,1.1-0.6,1.8c-0.1,0.7-0.2,1.9-0.2,3.5v9.4h-2.4v-19.4h2.4v2.2c0.7-0.9,1.6-1.5,2.6-1.9s2.1-0.7,3.4-0.7
		c1.5,0,2.8,0.3,4,0.9C1049.6,286.4,1050.5,287.3,1051.1,288.3z"/>
</g>
</svg>
