<?xml version="1.0" encoding="utf-8"?>
<!-- Generator: Adobe Illustrator 22.0.0, SVG Export Plug-In . SVG Version: 6.00 Build 0)  -->
<svg version="1.1" id="Layer_1" xmlns="http://www.w3.org/2000/svg" xmlns:xlink="http://www.w3.org/1999/xlink" x="0px" y="0px"
	 viewBox="0 0 300 300" style="enable-background:new 0 0 300 300;" xml:space="preserve">
<style type="text/css">
	.st0{fill:#6EC7DC;}
	.st1{fill:#004587;}
	.st2{fill:none;stroke:#FFFFFF;stroke-width:3;stroke-miterlimit:10;}
</style>
<g>
	<g>
		<path class="st0" d="M263.2,156.2c0.2-2.7,0.3-5.5,0.3-8.3s-0.1-5.6-0.3-8.3c-18.7-10.5-21.9-22.1-10.9-40.2
			c-2.3-4.7-5-9.2-7.9-13.5c-21.1,0.8-29.4-7.5-28.6-28.6c-4.3-2.9-8.8-5.6-13.5-7.9c-18.1,11-29.7,7.8-40.2-10.9
			c-2.8-0.2-5.5-0.3-8.3-0.3s-5.6,0.1-8.3,0.3c-10.5,18.7-22.1,21.9-40.2,10.9c-4.7,2.3-9.2,5-13.5,7.9c0.8,21.1-7.5,29.4-28.6,28.6
			c-2.9,4.3-5.6,8.8-7.9,13.5c11,18.1,7.8,29.7-10.9,40.2c-0.2,2.8-0.3,5.5-0.3,8.3s0.1,5.6,0.3,8.3C62.8,166.7,66,178.3,55,196.4
			c2.3,4.7,5,9.2,7.9,13.5c21.1-0.8,29.4,7.5,28.6,28.6c4.3,2.9,8.8,5.6,13.5,7.9c18.1-11,29.7-7.8,40.2,10.9
			c2.7,0.2,5.5,0.3,8.3,0.3s5.6-0.1,8.3-0.3c10.5-18.7,22.1-21.9,40.2-10.9c4.7-2.3,9.2-5,13.5-7.9c-0.8-21.1,7.5-29.4,28.6-28.6
			c3-4.3,5.6-8.8,7.9-13.5C241.2,178.3,244.5,166.7,263.2,156.2z M153.6,202.7c-30.3,0-54.8-24.5-54.8-54.8s24.5-54.8,54.8-54.8
			s54.8,24.5,54.8,54.8S183.9,202.7,153.6,202.7z"/>
		<path class="st1" d="M153.6,75.7c-39.9,0-72.2,32.3-72.2,72.2s32.3,72.2,72.2,72.2c39.8,0,72.1-32.3,72.1-72.2
			S193.5,75.7,153.6,75.7z M153.6,202.7c-30.3,0-54.8-24.5-54.8-54.8s24.5-54.8,54.8-54.8s54.8,24.5,54.8,54.8
			S183.9,202.7,153.6,202.7z"/>
		<path class="st0" d="M263.2,156.2c0.2-2.7,0.3-5.5,0.3-8.3s-0.1-5.6-0.3-8.3c-18.7-10.5-21.9-22.1-10.9-40.2
			c-2.3-4.7-5-9.2-7.9-13.5c-21.1,0.8-29.4-7.5-28.6-28.6c-4.3-2.9-8.8-5.6-13.5-7.9c-18.1,11-29.7,7.8-40.2-10.9
			c-2.8-0.2-5.5-0.3-8.3-0.3s-5.6,0.1-8.3,0.3c-10.5,18.7-22.1,21.9-40.2,10.9c-4.7,2.3-9.2,5-13.5,7.9c0.8,21.1-7.5,29.4-28.6,28.6
			c-2.9,4.3-5.6,8.8-7.9,13.5c11,18.1,7.8,29.7-10.9,40.2c-0.2,2.8-0.3,5.5-0.3,8.3s0.1,5.6,0.3,8.3C62.8,166.7,66,178.3,55,196.4
			c2.3,4.7,5,9.2,7.9,13.5c21.1-0.8,29.4,7.5,28.6,28.6c4.3,2.9,8.8,5.6,13.5,7.9c18.1-11,29.7-7.8,40.2,10.9
			c2.7,0.2,5.5,0.3,8.3,0.3s5.6-0.1,8.3-0.3c10.5-18.7,22.1-21.9,40.2-10.9c4.7-2.3,9.2-5,13.5-7.9c-0.8-21.1,7.5-29.4,28.6-28.6
			c3-4.3,5.6-8.8,7.9-13.5C241.2,178.3,244.5,166.7,263.2,156.2z M153.6,242.9c-52.5,0-95-42.5-95-95s42.5-95,95-95s95,42.5,95,95
			C248.6,200.3,206.1,242.9,153.6,242.9z"/>
	</g>
	<path class="st2" d="M233.2,163.6c-1.5,7.6-4,14.7-7.4,21.4"/>
	<path class="st2" d="M153.6,66.8c44.8,0,81.1,36.3,81.1,81.1"/>
</g>
</svg>
