<?xml version="1.0" encoding="utf-8"?>
<!-- Generator: Adobe Illustrator 22.0.0, SVG Export Plug-In . SVG Version: 6.00 Build 0)  -->
<svg version="1.1" id="Layer_1" xmlns="http://www.w3.org/2000/svg" xmlns:xlink="http://www.w3.org/1999/xlink" x="0px" y="0px"
	 viewBox="0 0 300 300" style="enable-background:new 0 0 300 300;" xml:space="preserve">
<style type="text/css">
	.st0{fill:#6EC7DC;}
	.st1{fill:#CAE8F9;}
	.st2{fill:none;stroke:#244370;stroke-width:2;stroke-miterlimit:10;}
	.st3{fill:#004587;}
</style>
<g>
	<g>
		<path class="st0" d="M252.5,152.8c0,56.6-45.9,102.4-102.4,102.4c-56.6,0-102.4-45.8-102.4-102.4S93.6,50.4,150.1,50.4
			C206.7,50.4,252.5,96.2,252.5,152.8z"/>
		<circle class="st1" cx="150.1" cy="152.8" r="77.2"/>
		<ellipse class="st0" cx="150.1" cy="152.8" rx="53.8" ry="53.8"/>
		<ellipse class="st1" cx="150.1" cy="152.8" rx="29.7" ry="29.7"/>
	</g>
	<g>
		<g>
			<line class="st2" x1="150.1" y1="152.8" x2="237.2" y2="50.4"/>
			<polyline class="st2" points="150.1,141.3 150.1,152.8 160.8,150.9 			"/>
		</g>
		<polygon class="st3" points="212.2,77.3 235.9,49.3 221.1,44 196.1,73.2 		"/>
		<polygon class="st3" points="214.6,79.3 238.4,51.4 246.1,65.2 221.3,94.6 		"/>
	</g>
</g>
</svg>
