<?xml version="1.0" encoding="utf-8"?>
<!-- Generator: Adobe Illustrator 22.0.0, SVG Export Plug-In . SVG Version: 6.00 Build 0)  -->
<svg version="1.1" id="Layer_1" xmlns="http://www.w3.org/2000/svg" xmlns:xlink="http://www.w3.org/1999/xlink" x="0px" y="0px"
	 viewBox="0 0 600 600" style="enable-background:new 0 0 600 600;" xml:space="preserve">
<style type="text/css">
	.st0{fill:#B74242;}
	.st1{fill:#A53A3A;}
	.st2{fill:#DB5252;}
	.st3{fill:#C94949;}
	.st4{fill:#076168;}
	.st5{fill:#FFFFFF;}
	.st6{fill:#E7E7E7;}
	.st7{fill:#F4361C;}
	.st8{fill:#680C0C;}
	.st9{fill:#501627;}
</style>
<path class="st0" d="M182.8,340.1l-13.1-14.3c0,0-34.7,37.7-18.2,101.7c14.5,56.5,50.4,25.2,38.7-8.5
	C178.5,385.2,182.8,340.1,182.8,340.1z"/>
<path class="st1" d="M190.2,418.9c-11.7-33.7-7.4-78.9-7.4-78.9l-19.8-5c-6.5,21.7,14.8,64.8,17.6,77s6.3,24.7,1.4,34.9
	c-4.9,10.2-20.6,3.6-20.6,3.6C177.8,472.1,199.7,446.3,190.2,418.9z"/>
<path class="st1" d="M437.1,340.1l13.1-14.3c0,0,34.7,37.7,18.2,101.7c-14.5,56.5-50.4,25.2-38.7-8.5
	C441.4,385.2,437.1,340.1,437.1,340.1z"/>
<path class="st0" d="M429.7,418.9c-2.6,8.5-2.9,16.7-0.9,23.5c2.7,9.2,14.2,10.9,15.9,0c0.7-4.1,2.2-13.6,0.2-19.6
	C441.5,412.8,433.1,407.8,429.7,418.9z"/>
<path class="st0" d="M258.4,458.6c0,0-6.4,85.1-18.2,90.9c-11.8,5.8-7.6,9.4,20.8,9.4c28.5,0,34-2.9,35.4-27.6s-7.2-64.2-7.2-64.2
	L258.4,458.6z"/>
<path class="st0" d="M374.3,550c-11.8-5.6-18.2-87-18.2-87l-30.9,8.1c0,0-8.6,37.9-7.2,61.5s6.9,26.4,35.4,26.4
	S386.1,555.5,374.3,550z"/>
<path class="st1" d="M290.5,525.3c-4.5,25.1-22.6,35.9-49.7,32.7c4.4,0.7,11,1,20.2,1c28.5,0,34-2.9,35.4-27.6s-7.2-64.2-7.2-64.2
	l-30.9-8.5c0,0,5,5.1,15.8,10.1C285,473.8,295,500.2,290.5,525.3z"/>
<path class="st1" d="M356.9,511c2.1,23.4,18.1,49-13.9,47.8l0,0c3.1,0.2,6.5,0.2,10.4,0.2c28.5,0,32.7-3.5,20.8-9
	c-11.8-5.6-18.2-87-18.2-87l-30.9,8.1c0,0,8.5,2.8,15.6,2.8S354.8,487.6,356.9,511z"/>
<path class="st2" d="M448.9,255.3c5.2,8,12.9,12.8,12.9,12.8c-2.8-39-45.5-83.3-45.5-83.3c14.3,5.8,14.6,0.4,14.6,0.4
	c-41.7-50.2-90.1-47.1-90.1-47.1c5-0.5,8.4-7.9,8.4-7.9c-20.6-8.1-37.8,4.3-37.8,4.3s-20.4-6.4-27.8-18.6c0,0-6.5,15.5,5.6,23.3
	c0,0-25-12.2-57.4,5.5c0,0,9.3,7.8,19.5,7.8c0,0-45.4,1.1-79.7,61.9c0,0,7,2.3,14-3.1c-8.2,10.1-22.6,31.9-26.6,62.7
	c0,0,5.5-1.2,9.5-8.7c-4.9,14.8-13.6,50.8-1.7,99c0,0,3.6-0.4,4.5-21.4c0,0,9.9,79.3,47.4,113.3c0,0,4.6-9.9-0.8-24.8
	c0,0,24.5,27.3,27.2,45.6c0,0,5.4-11.1,1.6-23c0,0,20.6,17.8,63.7,17.8s67.8-20.3,67.8-20.3c-2.4,10.1,5.2,20.3,5.2,20.3
	c0.7-16.8,19.6-40.3,19.6-40.3c-7.2,7.8-0.8,24-0.8,24c13.5-13.7,22.9-40.6,27.2-54.5c-0.9,9.7,4.1,16.5,4.1,16.5
	c18.1-23.3,17.2-79.7,17.2-79.7c1.2,14,11.3,25.8,11.3,25.8C470.1,311.3,448.9,255.3,448.9,255.3z"/>
<path class="st3" d="M217.8,431.4c0,0,24.5,27.3,27.2,45.6c0,0,5.4-11.1,1.6-23c0,0,20.6,17.8,63.7,17.8s67.8-20.3,67.8-20.3
	c-2.4,10.1,5.2,20.3,5.2,20.3c0.7-16.8,19.6-40.3,19.6-40.3c-7.2,7.8-0.8,24-0.8,24c13.5-13.7,22.9-40.6,27.2-54.5
	c-0.9,9.7,4.1,16.5,4.1,16.5c18.1-23.3,17.2-79.7,17.2-79.7c1.2,14,11.3,25.8,11.3,25.8c8.3-52.3-12.9-108.1-12.9-108.1
	c5.2,8,12.9,12.8,12.9,12.8c-2.8-39-45.5-83.3-45.5-83.3c14.3,5.8,14.6,0.4,14.6,0.4c-41.7-50.2-90.1-47.1-90.1-47.1
	s70.5,14.9,103.1,99c0,0-8.9-3.2-13-9.8c0,0,33.1,79.5,8.6,153.5c0,0-6-7.5-4.8-17.8c0,0-25.6,88-113.9,97.1
	C249.7,467.5,217.8,431.4,217.8,431.4z"/>
<circle class="st4" cx="242.6" cy="287.9" r="47"/>
<circle class="st2" cx="242.9" cy="287.9" r="37.9"/>
<circle class="st4" cx="371.3" cy="287.9" r="47"/>
<circle class="st2" cx="371.3" cy="287.9" r="37.9"/>
<rect x="285.4" y="282.8" class="st4" width="45.2" height="10.3"/>
<g>
	
		<ellipse transform="matrix(0.7071 -0.7071 0.7071 0.7071 -131.7343 257.8218)" class="st5" cx="245.4" cy="287.9" rx="30.2" ry="30.2"/>
	<path class="st6" d="M275.5,286.2c-0.1-1.7-0.3-3.3-0.7-4.9c0.1,0.4,0.1,0.9,0.1,1.4c0.9,16.7-11.8,31-28.5,31.9
		c-15,0.9-28-9.4-31.2-23.5c1.6,16,15.6,28,31.8,27C263.7,317.2,276.4,302.9,275.5,286.2z"/>
	<path class="st7" d="M273,285.3c0.4,7-5,13.1-12,13.5c-7,0.4-13.1-5-13.5-12c-0.4-7,5-13.1,12-13.5
		C266.6,272.9,272.6,278.3,273,285.3z"/>
	<path class="st8" d="M267.2,285.6c0.2,3.9-2.8,7.2-6.6,7.4c-3.9,0.2-7.2-2.8-7.4-6.6c-0.2-3.9,2.8-7.2,6.6-7.4
		C263.7,278.8,267,281.8,267.2,285.6z"/>
	<path class="st5" d="M268.2,280.7c0.1,2.2-1.6,4.1-3.8,4.2c-2.2,0.1-4.1-1.6-4.2-3.8c-0.1-2.2,1.6-4.1,3.8-4.2
		C266.2,276.8,268.1,278.5,268.2,280.7z"/>
	<path class="st5" d="M398.2,286.2c0.9,16.7-11.8,31-28.5,31.9c-16.7,0.9-31-11.8-31.9-28.5c-0.9-16.7,11.8-31,28.5-31.9
		C382.9,256.8,397.2,269.5,398.2,286.2z"/>
	<path class="st6" d="M398.2,286.2c-0.1-1.7-0.3-3.3-0.7-4.9c0.1,0.4,0.1,0.9,0.1,1.4c0.9,16.7-11.8,31-28.5,31.9
		c-15,0.9-28-9.4-31.2-23.5c1.6,16,15.6,28,31.8,27C386.4,317.2,399.1,302.9,398.2,286.2z"/>
	<path class="st7" d="M394.5,285.4c0.4,7-5,13.1-12,13.5c-7,0.4-13.1-5-13.5-12s5-13.1,12-13.5C388.1,272.9,394.1,278.3,394.5,285.4
		z"/>
	<path class="st8" d="M388.7,285.6c0.2,3.9-2.8,7.2-6.6,7.4c-3.9,0.2-7.2-2.8-7.4-6.6c-0.2-3.9,2.8-7.2,6.6-7.4
		C385.2,278.8,388.5,281.8,388.7,285.6z"/>
	<path class="st5" d="M390.4,280.3c0.1,2.2-1.6,4.1-3.8,4.2c-2.2,0.1-4.1-1.6-4.2-3.8c-0.1-2.2,1.6-4.1,3.8-4.2
		C388.4,276.5,390.3,278.1,390.4,280.3z"/>
</g>
<path class="st9" d="M280.9,379.4c-9.2-4.7-15.8-13.1-18.5-23c-0.4-1.6,0.5-3.1,2.1-3.5c1.6-0.4,3.1,0.5,3.5,2.1
	c2.1,8.4,7.8,15.4,15.4,19.3c14.7,7.5,33,1.6,40.5-13.1c0.7-1.4,2.5-1.9,3.8-1.2c1.4,0.7,1.9,2.5,1.2,3.8
	C320.3,381.4,298.6,388.4,280.9,379.4z"/>
</svg>
