<?xml version="1.0" encoding="utf-8"?>
<!-- Generator: Adobe Illustrator 22.0.0, SVG Export Plug-In . SVG Version: 6.00 Build 0)  -->
<svg version="1.1" id="Layer_1" xmlns="http://www.w3.org/2000/svg" xmlns:xlink="http://www.w3.org/1999/xlink" x="0px" y="0px"
	 viewBox="0 0 600 600" style="enable-background:new 0 0 600 600;" xml:space="preserve">
<style type="text/css">
	.st0{fill:#FFFFFF;}
</style>
<g>
	<path class="st0" d="M140.4,256.5c0.5-0.2,0.8-0.2,0.8-0.2C140.6,256.3,140.4,256.4,140.4,256.5z"/>
	<path class="st0" d="M479.2,283c0.4-6.4-6.9-15-6.9-15c2,2,5.4,2.3,5.4,2.3c-2.6-4.8-4.7-6.7-6.1-7.4c1.7,0,3.4-0.1,3.4-0.1
		c-3.9-4-12.7-4.7-17.5-4.8c-0.9-0.1-1.8-0.2-2.7-0.2h-119V135.5c0-8.5-6.7-15.5-14.9-15.5h-4.7c1.7-2.7,0.2-6.1,0.2-6.1
		c-1.5,3.9-6,5.2-7.9,5.6c1.7-1,2.9-2.2,3.2-3.3c0.1,0.1-4.5-1.6-7.8-1.3c0,0-5.3,0-8.5-6.2c-1.2-2.4-2.3-7,1.7-10.6
		c0,0-16.1,3-12.4,16.7c0.2,0.7,0.5,1.4,0.8,2c-0.7-0.4-1.4-0.9-2.1-1.5c-1.5-1.4-3.5-4.6-1.4-8.3c0,0-6.8,3.9-6.8,9.9
		c-0.9-0.8-1.7-1.8-2.2-3c0,0-1.5,3.4,0.2,6.1h-3.4c-8.3,0-14.9,7-14.9,15.5v122.3H141.8c-0.9-0.5-1.5-1-1.5-1.3
		c-3.8,1.1-19,6.2-23.5,14.7c0,0,2.1-0.5,4.2-1.3c-1.6,1.5-3.6,4.8-5.4,12.2c0,0,4.1-1.8,6-5.3c0,0-6.6,14.4-4.2,22.6
		c0,0,2.2-1.1,3-3.7c-0.4,4.1-0.8,12.1,1.4,17.3c0,0,1.3-1.2,2.1-2.8v7.7c0,9.5,7.7,17.2,17.2,17.2H163c-0.3,1.3-0.2,2.2-0.2,2.2
		c0.5-0.7,1.2-1.5,2-2.2h90.1V467c0,8.5,6.7,15.5,14.9,15.5h51.1c8.2,0,14.9-6.9,14.9-15.5V335.1h119c9.5,0,17.2-7.7,17.2-17.2
		v-18.2c1-1.8,1.3-3,1.3-3c0.8,1.9,3.5,2.4,3.5,2.4c-1.7-2.3-1.6-7.3-1.5-8.8c0.1,2,2.9,3.4,2.9,3.4c0.8-4.2-0.9-9.8-1.9-12.6
		C477.4,282.8,479.2,283,479.2,283z"/>
</g>
</svg>
