<?xml version="1.0" encoding="utf-8"?>
<!-- Generator: Adobe Illustrator 22.0.0, SVG Export Plug-In . SVG Version: 6.00 Build 0)  -->
<svg version="1.1" id="Layer_1" xmlns="http://www.w3.org/2000/svg" xmlns:xlink="http://www.w3.org/1999/xlink" x="0px" y="0px"
	 viewBox="0 0 300 300" style="enable-background:new 0 0 300 300;" xml:space="preserve">
<style type="text/css">
	.st0{fill:#004587;}
	.st1{fill:#6EC7DC;}
	.st2{fill:#FFFFFF;}
</style>
<g>
	<rect x="75.9" y="53.5" class="st0" width="154.4" height="200.3"/>
	<rect x="69.4" y="47" class="st1" width="154.4" height="200.3"/>
	<g>
		<g>
			<path class="st0" d="M208.9,93c0,0.9-0.6,1.6-1.4,1.6h-63.2c-0.7,0-1.4-0.7-1.4-1.6l0,0c0-0.9,0.6-1.6,1.4-1.6h63.2
				C208.3,91.4,208.9,92.1,208.9,93L208.9,93z"/>
			<path class="st0" d="M208.9,102.8c0,0.9-0.6,1.6-1.4,1.6h-63.2c-0.7,0-1.4-0.7-1.4-1.6l0,0c0-0.9,0.6-1.6,1.4-1.6h63.2
				C208.3,101.3,208.9,102,208.9,102.8L208.9,102.8z"/>
			<path class="st0" d="M208.9,112.7c0,0.9-0.6,1.6-1.4,1.6h-63.2c-0.7,0-1.4-0.7-1.4-1.6l0,0c0-0.9,0.6-1.6,1.4-1.6h63.2
				C208.3,111.1,208.9,111.8,208.9,112.7L208.9,112.7z"/>
			<path class="st0" d="M208.9,122.6c0,0.9-0.6,1.6-1.4,1.6h-63.2c-0.7,0-1.4-0.7-1.4-1.6l0,0c0-0.9,0.6-1.6,1.4-1.6h63.2
				C208.3,121,208.9,121.7,208.9,122.6L208.9,122.6z"/>
		</g>
		<g>
			<path class="st0" d="M208.9,141.9c0,0.9-0.4,1.6-0.8,1.6h-64.3c-0.5,0-0.8-0.7-0.8-1.6l0,0c0-0.9,0.4-1.6,0.8-1.6h64.3
				C208.5,140.3,208.9,141,208.9,141.9L208.9,141.9z"/>
			<path class="st0" d="M208.9,151.8c0,0.9-0.4,1.6-0.8,1.6h-64.3c-0.5,0-0.8-0.7-0.8-1.6l0,0c0-0.9,0.4-1.6,0.8-1.6h64.3
				C208.5,150.2,208.9,150.9,208.9,151.8L208.9,151.8z"/>
			<path class="st0" d="M208.9,161.6c0,0.9-0.4,1.6-0.8,1.6h-64.3c-0.5,0-0.8-0.7-0.8-1.6l0,0c0-0.9,0.4-1.6,0.8-1.6h64.3
				C208.5,160.1,208.9,160.8,208.9,161.6L208.9,161.6z"/>
			<path class="st0" d="M208.9,171.5c0,0.9-0.4,1.6-0.8,1.6h-64.3c-0.5,0-0.8-0.7-0.8-1.6l0,0c0-0.9,0.4-1.6,0.8-1.6h64.3
				C208.5,169.9,208.9,170.6,208.9,171.5L208.9,171.5z"/>
		</g>
		<g>
			<path class="st0" d="M208.9,185.2c0,0.9-0.7,1.6-1.6,1.6H85c-0.9,0-1.6-0.7-1.6-1.6l0,0c0-0.9,0.7-1.6,1.6-1.6h122.3
				C208.2,183.6,208.9,184.3,208.9,185.2L208.9,185.2z"/>
			<path class="st0" d="M208.9,195c0,0.9-0.7,1.6-1.6,1.6H85c-0.9,0-1.6-0.7-1.6-1.6l0,0c0-0.9,0.7-1.6,1.6-1.6h122.3
				C208.2,193.5,208.9,194.2,208.9,195L208.9,195z"/>
			<path class="st0" d="M208.9,204.9c0,0.9-0.7,1.6-1.6,1.6H85c-0.9,0-1.6-0.7-1.6-1.6l0,0c0-0.9,0.7-1.6,1.6-1.6h122.3
				C208.2,203.3,208.9,204,208.9,204.9L208.9,204.9z"/>
			<path class="st0" d="M208.9,214.8c0,0.9-0.7,1.6-1.6,1.6H85c-0.9,0-1.6-0.7-1.6-1.6l0,0c0-0.9,0.7-1.6,1.6-1.6h122.3
				C208.2,213.2,208.9,213.9,208.9,214.8L208.9,214.8z"/>
		</g>
	</g>
	<path class="st0" d="M184.8,70.6c0,0.9-0.7,1.6-1.6,1.6h-73.4c-0.9,0-1.6-0.7-1.6-1.6l0,0c0-0.9,0.7-1.6,1.6-1.6h73.4
		C184.1,69,184.8,69.7,184.8,70.6L184.8,70.6z"/>
</g>
<g>
	<g>
		<g>
			<g>
				<polygon class="st0" points="134.9,167.1 125.4,163 121,172.3 104.8,128.6 118.7,123.5 				"/>
			</g>
			<g>
				<polygon class="st0" points="82.5,167.1 91.9,163 96.4,172.3 112.5,128.6 98.6,123.5 				"/>
			</g>
		</g>
		<g>
			<path class="st2" d="M112.1,88.8L112.1,88.8c2.8-2.4,7.1-1.2,8.4,2.2l0,0c0.9,2.4,3.4,3.8,5.9,3.4l0,0c3.6-0.6,6.8,2.5,6.1,6.1
				l0,0c-0.4,2.5,1,5,3.4,5.9l0,0c3.4,1.3,4.6,5.6,2.2,8.4l0,0c-1.6,2-1.6,4.8,0,6.8l0,0c2.4,2.8,1.2,7.1-2.2,8.4l0,0
				c-2.4,0.9-3.8,3.4-3.4,5.9l0,0c0.6,3.6-2.5,6.8-6.1,6.1l0,0c-2.5-0.4-5,1-5.9,3.4l0,0c-1.3,3.4-5.6,4.6-8.4,2.2l0,0
				c-2-1.6-4.8-1.6-6.8,0l0,0c-2.8,2.4-7.1,1.2-8.4-2.2l0,0c-0.9-2.4-3.4-3.8-5.9-3.4l0,0c-3.6,0.6-6.8-2.5-6.1-6.1l0,0
				c0.4-2.5-1-5-3.4-5.9l0,0c-3.4-1.3-4.6-5.6-2.2-8.4l0,0c1.6-2,1.6-4.8,0-6.8l0,0c-2.4-2.8-1.2-7.1,2.2-8.4l0,0
				c2.4-0.9,3.8-3.4,3.4-5.9l0,0c-0.6-3.6,2.5-6.8,6.1-6.1l0,0c2.5,0.4,5-1,5.9-3.4l0,0c1.3-3.4,5.6-4.6,8.4-2.2l0,0
				C107.2,90.5,110.1,90.5,112.1,88.8z"/>
		</g>
	</g>
	<path class="st0" d="M111.4,94.4L111.4,94.4c2.3-1.9,5.8-1,6.8,1.8l0,0c0.7,2,2.7,3.1,4.8,2.8l0,0c2.9-0.5,5.5,2.1,5,5l0,0
		c-0.4,2.1,0.8,4.1,2.8,4.8l0,0c2.8,1,3.7,4.5,1.8,6.8l0,0c-1.3,1.6-1.3,3.9,0,5.5l0,0c1.9,2.3,1,5.8-1.8,6.8l0,0
		c-2,0.7-3.1,2.7-2.8,4.8l0,0c0.5,2.9-2.1,5.5-5,5l0,0c-2.1-0.4-4.1,0.8-4.8,2.8l0,0c-1,2.8-4.5,3.7-6.8,1.8l0,0
		c-1.6-1.3-3.9-1.3-5.5,0l0,0c-2.3,1.9-5.8,1-6.8-1.8l0,0c-0.7-2-2.7-3.1-4.8-2.8l0,0c-2.9,0.5-5.5-2.1-5-5l0,0
		c0.4-2.1-0.8-4.1-2.8-4.8l0,0c-2.8-1-3.7-4.5-1.8-6.8l0,0c1.3-1.6,1.3-3.9,0-5.5l0,0c-1.9-2.3-1-5.8,1.8-6.8l0,0
		c2-0.7,3.1-2.7,2.8-4.8l0,0c-0.5-2.9,2.1-5.5,5-5l0,0c2.1,0.4,4.1-0.8,4.8-2.8l0,0c1-2.8,4.5-3.7,6.8-1.8l0,0
		C107.5,95.7,109.8,95.7,111.4,94.4z"/>
</g>
</svg>
