<?xml version="1.0" encoding="utf-8"?>
<!-- Generator: Adobe Illustrator 22.0.0, SVG Export Plug-In . SVG Version: 6.00 Build 0)  -->
<svg version="1.1" id="Layer_1" xmlns="http://www.w3.org/2000/svg" xmlns:xlink="http://www.w3.org/1999/xlink" x="0px" y="0px"
	 viewBox="0 0 300 300" style="enable-background:new 0 0 300 300;" xml:space="preserve">
<style type="text/css">
	.st0{fill:#6EC7DC;}
	.st1{fill:#46777F;}
	.st2{fill:#CAE8F9;}
	.st3{fill:#004587;}
	.st4{fill:#063E6D;}
	.st5{fill:#FFFFFF;}
	.st6{fill:#A0D4F2;}
</style>
<g>
	<path class="st0" d="M239.6,268.6c0,3.3-2.7,6-6,6H69.1c-3.3,0-6-2.7-6-6V60.1c0-3.3,2.7-6,6-6h164.5c3.3,0,6,2.7,6,6V268.6z"/>
	<rect x="79.7" y="69.9" class="st1" width="150.7" height="195.6"/>
	<rect x="76" y="66.6" class="st2" width="150.7" height="195.6"/>
	<path class="st3" d="M173.1,40.8V25h-43.6v15.8l-20.4,7v26.1h42.2h42.2V47.8L173.1,40.8z M165.8,42.2h-28.9V29.8h28.9V42.2z"/>
	<polygon class="st4" points="117.6,65.4 117.6,50.2 129.5,40.8 109.2,47.8 109.2,73.9 193.5,73.9 193.5,65.4 	"/>
	<g>
		<g>
			<rect x="90.5" y="91.7" class="st5" width="39.5" height="40.4"/>
		</g>
		<g>
			<rect x="90.5" y="144.2" class="st5" width="39.5" height="40.4"/>
		</g>
		<g>
			<rect x="90.5" y="196.6" class="st5" width="39.5" height="40.4"/>
		</g>
		<g>
			<path class="st6" d="M212.2,97.5c0,0.8-0.7,1.5-1.5,1.5H139c-0.8,0-1.5-0.7-1.5-1.5l0,0c0-0.8,0.7-1.5,1.5-1.5h71.7
				C211.5,96,212.2,96.7,212.2,97.5L212.2,97.5z"/>
			<path class="st6" d="M212.2,107.1c0,0.8-0.7,1.5-1.5,1.5H139c-0.8,0-1.5-0.7-1.5-1.5l0,0c0-0.8,0.7-1.5,1.5-1.5h71.7
				C211.5,105.6,212.2,106.3,212.2,107.1L212.2,107.1z"/>
			<path class="st6" d="M212.2,116.8c0,0.8-0.7,1.5-1.5,1.5H139c-0.8,0-1.5-0.7-1.5-1.5l0,0c0-0.8,0.7-1.5,1.5-1.5h71.7
				C211.5,115.2,212.2,115.9,212.2,116.8L212.2,116.8z"/>
			<path class="st6" d="M212.2,126.4c0,0.8-0.7,1.5-1.5,1.5H139c-0.8,0-1.5-0.7-1.5-1.5l0,0c0-0.8,0.7-1.5,1.5-1.5h71.7
				C211.5,124.9,212.2,125.6,212.2,126.4L212.2,126.4z"/>
		</g>
		<g>
			<path class="st6" d="M212.2,149.9c0,0.8-0.7,1.5-1.5,1.5H139c-0.8,0-1.5-0.7-1.5-1.5l0,0c0-0.8,0.7-1.5,1.5-1.5h71.7
				C211.5,148.4,212.2,149.1,212.2,149.9L212.2,149.9z"/>
			<path class="st6" d="M212.2,159.6c0,0.8-0.7,1.5-1.5,1.5H139c-0.8,0-1.5-0.7-1.5-1.5l0,0c0-0.8,0.7-1.5,1.5-1.5h71.7
				C211.5,158,212.2,158.7,212.2,159.6L212.2,159.6z"/>
			<path class="st6" d="M212.2,169.2c0,0.8-0.7,1.5-1.5,1.5H139c-0.8,0-1.5-0.7-1.5-1.5l0,0c0-0.8,0.7-1.5,1.5-1.5h71.7
				C211.5,167.7,212.2,168.4,212.2,169.2L212.2,169.2z"/>
			<path class="st6" d="M212.2,178.8c0,0.8-0.7,1.5-1.5,1.5H139c-0.8,0-1.5-0.7-1.5-1.5l0,0c0-0.8,0.7-1.5,1.5-1.5h71.7
				C211.5,177.3,212.2,178,212.2,178.8L212.2,178.8z"/>
		</g>
		<g>
			<path class="st6" d="M212.2,202.4c0,0.8-0.7,1.5-1.5,1.5H139c-0.8,0-1.5-0.7-1.5-1.5l0,0c0-0.8,0.7-1.5,1.5-1.5h71.7
				C211.5,200.8,212.2,201.5,212.2,202.4L212.2,202.4z"/>
			<path class="st6" d="M212.2,212c0,0.8-0.7,1.5-1.5,1.5H139c-0.8,0-1.5-0.7-1.5-1.5l0,0c0-0.8,0.7-1.5,1.5-1.5h71.7
				C211.5,210.5,212.2,211.2,212.2,212L212.2,212z"/>
			<path class="st6" d="M212.2,221.6c0,0.8-0.7,1.5-1.5,1.5H139c-0.8,0-1.5-0.7-1.5-1.5l0,0c0-0.8,0.7-1.5,1.5-1.5h71.7
				C211.5,220.1,212.2,220.8,212.2,221.6L212.2,221.6z"/>
			<path class="st6" d="M212.2,231.3c0,0.8-0.7,1.5-1.5,1.5H139c-0.8,0-1.5-0.7-1.5-1.5l0,0c0-0.8,0.7-1.5,1.5-1.5h71.7
				C211.5,229.7,212.2,230.4,212.2,231.3L212.2,231.3z"/>
		</g>
	</g>
</g>
</svg>
