<?xml version="1.0" encoding="utf-8"?>
<!-- Generator: Adobe Illustrator 22.0.0, SVG Export Plug-In . SVG Version: 6.00 Build 0)  -->
<svg version="1.1" id="Layer_1" xmlns="http://www.w3.org/2000/svg" xmlns:xlink="http://www.w3.org/1999/xlink" x="0px" y="0px"
	 viewBox="0 0 953.5 198" style="enable-background:new 0 0 953.5 198;" xml:space="preserve">
<style type="text/css">
	.st0{fill:#FFFFFF;}
</style>
<title>logo</title>
<g id="layer1" transform="translate(-291.9827,-165.77975)">
	<g id="g2281" transform="matrix(3.5432569,0,0,3.5432569,271.77753,-601.03901)">
		<path id="path12" class="st0" d="M43.9,230.1l-7.8-6.1l-7.8,6.2l1.4,1.5l6.5-5.1l6.5,5.1L43.9,230.1L43.9,230.1z M61.9,244.1
			c0-14.3-11.6-25.9-25.9-25.9s-25.9,11.6-25.9,25.9c0,9,4.5,16.9,11.5,21.5v-14.9h-2.4v10.6c-1.2-1.6-2.8-3.6-3.9-5.5
			c-2-3.4-3.2-7.3-3.2-11.6c0-13.1,10.6-23.9,23.7-23.9c13.2,0,23.7,10.9,23.7,23.9c0,4.4-1.2,8.3-3.2,11.7c-1,1.9-2.6,3.9-3.8,5.4
			v-10.6h-2.3v14.9C57.4,261,61.9,253.1,61.9,244.1L61.9,244.1L61.9,244.1z M42.4,269.1V234h-2.3v35.7
			C41,269.6,41.6,269.3,42.4,269.1L42.4,269.1z M47.6,267.2v-16.5h-2.4v17.6C46.2,267.9,46.8,267.7,47.6,267.2L47.6,267.2z
			 M37.2,269.9V234h-2.3v35.9c0.4,0,0.8,0.1,1.2,0.1C36.5,270,36.9,269.9,37.2,269.9L37.2,269.9z M32.1,269.7V234h-2.3v35.1
			C30.6,269.3,31.2,269.6,32.1,269.7L32.1,269.7L32.1,269.7z M26.9,268.3v-17.6h-2.3v16.5C25.4,267.7,26,267.9,26.9,268.3
			L26.9,268.3z"/>
		<path id="path2242" class="st0" d="M115.6,219.6l-3.3,0.7v0.9l1.5,0.3v16.7l-1.6,0.3v1h5.3v-1l-1.4-0.3v-8.9
			c0.8-0.7,1.6-1.4,2.7-1.4c1.6,0,1.6,1.7,1.6,2.9v7.5l-1.4,0.3v1h5.3v-1l-1.4-0.3v-8.7c0-2-1-3.3-3.1-3.3c-1.5,0-2.7,0.8-3.7,1.7
			v-8.3H115.6z"/>
		<path id="path2240" class="st0" d="M139.1,219.6c-0.9,0-1.6,0.7-1.6,1.6c0,0.9,0.7,1.7,1.6,1.7c0.9,0,1.7-0.8,1.7-1.7
			C140.9,220.3,140,219.6,139.1,219.6z"/>
		<path id="path2226" class="st0" d="M130,226.1l-3.2,0.9v0.8l1.6,0.3v10.2l-1.6,0.3v1h5.8v-1l-1.9-0.3V231c0-0.5,0.6-2,1.8-2.4
			l1.5,0.7c0.4-0.2,0.9-0.5,0.9-1.6c0-1-0.7-1.4-1.4-1.4c-1.2,0-1.8,0.9-2.8,2.7v-2.8H130z"/>
		<path id="path2224" class="st0" d="M147.9,226.1l-3.2,0.9v0.9l1.5,0.2v10.1l-1.5,0.3v1h5.4v-1l-1.5-0.3v-9
			c0.8-0.7,1.6-1.4,2.7-1.4c1.6,0,1.7,1.7,1.7,2.4v8l-1.5,0.3v1h5.3v-1l-1.4-0.3v-8.7c0-2.1-1-3.4-3.2-3.4c-1.5,0-2.6,0.8-3.6,1.7
			v-1.7H147.9z"/>
		<path id="path2222" class="st0" d="M187.3,226.1l-3.2,0.9v0.8l1.6,0.3v10.2l-1.6,0.3v1h5.8v-1l-1.9-0.3V231c0-0.5,0.6-2,1.8-2.4
			l1.5,0.7c0.4-0.2,0.9-0.5,0.9-1.6c0-1-0.7-1.4-1.4-1.4c-1.2,0-1.8,0.9-2.8,2.7v-2.8H187.3z"/>
		<path id="path2220" class="st0" d="M140.1,226.3l-3.3,0.9v0.8l1.4,0.3v10l-1.4,0.3v1h5.3v-1l-1.5-0.3v-12H140.1z"/>
		<path id="path2234" class="st0" d="M93,226c-3.8,0-5.3,3.9-5.3,7.1c0,4.2,2.3,6.7,5.1,6.7c2.8,0,5.4-2.4,5.4-7.1
			C98.1,226.9,94.5,226,93,226z M93,227c2.1,0,2.5,3.5,2.5,5.7c0,1.7-0.2,6-2.7,6c-1.7,0-2.4-2.3-2.4-5.6
			C90.3,231.6,90.5,227,93,227z"/>
		<path id="path2232" class="st0" d="M105.6,226c-3.8,0-4.8,4.1-4.8,7.2c0,3.9,1.7,6.6,4.8,6.6c3.1,0,4-2,4.5-3l-0.9-0.5
			c-0.3,0.5-1,1.7-2.5,1.7c-2.8,0-3.3-3.3-3.4-5.5h6.9C110.1,229.5,109.5,226,105.6,226z M105.6,227.2c1.9,0,2,2.8,2,4.4h-4.4
			C103.4,230,103.7,227.2,105.6,227.2z"/>
		<path id="path2228" class="st0" d="M176.8,226c-3.8,0-4.8,4.1-4.8,7.2c0,3.9,1.7,6.6,4.8,6.6c3.1,0,4-2,4.5-3l-0.9-0.5
			c-0.3,0.5-1,1.7-2.5,1.7c-2.8,0-3.3-3.3-3.4-5.6h6.9C181.2,229.5,180.6,226,176.8,226z M176.8,227.2c1.9,0,2,2.8,2,4.3h-4.4
			C174.5,230,174.9,227.2,176.8,227.2z"/>
		<path id="path2238" class="st0" d="M78.4,220.7c-1.2,0-2.3,0.2-3.5,0.2h-3.2v1.1l1.9,0.3v15.9l-1.9,0.3v1h3c0.7,0,3.6,0,4.2,0
			c1.5,0,4,0,5.4-2.4c0.4-0.7,0.6-1.6,0.6-2.6c0-1.3-0.4-2.5-1.3-3.4c-1-1-2.1-1.3-3.4-1.5c1.4-0.5,3.6-1.7,3.6-4.5
			c0-1-0.3-2.1-1-2.9C81.5,220.8,79.5,220.7,78.4,220.7z M77.9,221.8c1,0,3,0.3,3,3.7c0,3.6-2.2,3.8-3.5,3.8H76v-7.1
			C76.7,222,77.1,221.8,77.9,221.8z M76,230.3h1.3c1.9,0,4.7,0.2,4.7,4.1c0,1.5-0.4,2.9-1.7,3.7c-0.8,0.4-1.7,0.5-2.5,0.5
			s-1.4-0.2-1.8-0.5V230.3z"/>
		<path id="path2230" class="st0" d="M164,226c-2.5,0-4.5,1.9-4.5,4.5c0,2.4,1.4,3.2,2.3,3.8c-1.5,0.9-2.6,1.9-2.6,2.9
			c0,0.9,0.7,1.4,1.6,1.7c-1,0.7-2.1,1.6-2.1,3c0,1.9,2.3,2.6,4.7,2.6c4.1,0,6.4-2.1,6.4-4.5c0-2.4-1.3-3.2-3.6-3.3l-3.5-0.1
			c-0.3,0-1-0.1-1-0.6c0-0.4,0.7-1,1.2-1.4c0.5,0.2,1,0.2,1.5,0.2c1.9,0,4.4-1.3,4.4-4.2c0-1.4-0.6-2.3-1.1-2.9l2.3,0v-1.4l-3,0.1
			C165.9,226.5,165,226,164,226z M163.9,227c1.9,0,2.1,2.2,2.1,3.7c0,1.3-0.2,3.2-2,3.2c-1.8,0-2-2-2-3.4
			C162,229.1,162.1,227,163.9,227z M162,239c2.8,0.2,4,0.3,4.9,0.5c0.6,0.1,1.1,0.4,1.1,1.4c0,1.4-1.9,2.3-4.1,2.3c-1.6,0-3-0.7-3-2
			C160.9,240.1,161.5,239.5,162,239z"/>
		<path id="path2206" class="st0" d="M122.4,247.4l-3.3,0.8v0.8l1.5,0.2V266l-1.6,0.3v1h5.3v-1.1L123,266v-18.6H122.4z"/>
		<path id="path2204" class="st0" d="M130.1,247.4l-3.3,0.8v0.8l1.5,0.3V266l-1.6,0.3v1h5.3v-1.1l-1.4-0.3v-8.9
			c0.8-0.7,1.5-1.3,2.7-1.3c1.6,0,1.6,1.6,1.6,2.8v7.5l-1.4,0.3v1h5.3v-1.1l-1.5-0.3v-8.6c0-1.9-1-3.3-3.1-3.3
			c-1.5,0-2.6,0.8-3.7,1.7v-8.4H130.1z"/>
		<path id="path2202" class="st0" d="M155.8,247.4c-0.9,0-1.6,0.8-1.6,1.7c0,0.9,0.7,1.6,1.6,1.6c0.9,0,1.7-0.8,1.7-1.7
			C157.5,248.1,156.7,247.4,155.8,247.4z"/>
		<path id="path2200" class="st0" d="M71.8,248.6v1.1l1.7,0.2V266l-1.7,0.3v1h5.9v-1.1l-1.6-0.3V250l1.7-0.3v-1.1H71.8z"/>
		<path id="path2192" class="st0" d="M164.6,253.9l-3.3,0.9v0.8l1.5,0.3V266l-1.5,0.3v1h5.3v-1.1l-1.3-0.3v-9
			c0.7-0.6,1.4-1.4,2.7-1.4c1.5,0,1.8,1.5,1.8,2.5v7.9l-1.5,0.3v1h5.3v-1.1l-1.4-0.3v-8.9c0.8-0.7,1.6-1.4,2.7-1.4
			c1.6,0,1.7,1.7,1.7,2.5v7.9l-1.5,0.3v1h5.4v-1.1L179,266v-8.7c0-2.1-1.3-3.2-3.3-3.2c-1.5,0-2.7,0.8-3.7,1.9
			c-0.5-1.3-1.7-1.9-3-1.9c-1.4,0-2.7,0.6-3.8,1.7v-1.9H164.6z"/>
		<path id="path2190" class="st0" d="M83.4,253.9l-3.2,0.9v0.9l1.5,0.2V266l-1.5,0.3v1h5.4v-1.1l-1.5-0.3v-9
			c0.8-0.7,1.6-1.4,2.7-1.4c1.6,0,1.7,1.7,1.7,2.4v8l-1.5,0.3v1h5.3v-1.1l-1.4-0.3v-8.7c0-2.1-1-3.4-3.2-3.4c-1.5,0-2.6,0.9-3.6,1.7
			v-1.8H83.4z"/>
		<path id="path2188" class="st0" d="M156.8,254.1l-3.3,0.9v0.8l1.5,0.3v10l-1.5,0.3v1h5.3v-1.1l-1.5-0.3v-11.9H156.8z"/>
		<path id="path2198" class="st0" d="M112.3,253.8c-3.8,0-4.8,4.1-4.8,7.2c0,3.9,1.7,6.6,4.8,6.6c3.1,0,4-2,4.5-3l-0.9-0.5
			c-0.3,0.5-1,1.7-2.5,1.7c-2.8,0-3.3-3.3-3.4-5.5h6.9C116.8,257.3,116.2,253.8,112.3,253.8z M112.3,255c1.9,0,2,2.8,2,4.4h-4.4
			C110.1,257.8,110.4,255,112.3,255z"/>
		<path id="path2196" class="st0" d="M146.1,253.8c-3.8,0-4.8,4.1-4.8,7.2c0,3.9,1.7,6.6,4.8,6.6s4-2,4.5-3l-0.9-0.5
			c-0.3,0.5-1,1.7-2.5,1.7c-2.8,0-3.3-3.3-3.4-5.5h6.9C150.6,257.3,150,253.8,146.1,253.8z M146.1,255c1.9,0,2,2.8,2,4.4h-4.4
			C143.9,257.8,144.2,255,146.1,255z"/>
		<path id="path2194" class="st0" d="M99.5,253.8c-2.5,0-4.5,1.9-4.5,4.5c0,2.4,1.4,3.2,2.3,3.7c-1.5,0.9-2.6,1.9-2.6,2.9
			c0,0.9,0.7,1.4,1.6,1.7c-1,0.6-2.1,1.5-2.1,2.9c0,1.9,2.3,2.7,4.7,2.7c4.1,0,6.4-2.1,6.4-4.6c0-2.4-1.3-3.1-3.7-3.2l-3.5-0.1
			c-0.3,0-1-0.1-1-0.6c0-0.4,0.7-1,1.2-1.4c0.5,0.2,1,0.2,1.5,0.2c1.9,0,4.4-1.3,4.4-4.3c0-1.4-0.7-2.2-1.1-2.9l2.3,0.1v-1.4l-3,0.1
			C101.4,254.3,100.5,253.8,99.5,253.8z M99.4,254.8c1.9,0,2.1,2.2,2.1,3.6c0,1.3-0.2,3.2-2,3.2c-1.8,0-2-2-2-3.4
			C97.5,256.9,97.6,254.8,99.4,254.8z M97.5,266.9c2.8,0.2,4,0.3,4.9,0.5c0.6,0.1,1.1,0.4,1.1,1.4c0,1.4-1.9,2.3-4.1,2.3
			c-1.6,0-3-0.7-3-2C96.5,267.9,97,267.3,97.5,266.9z"/>
	</g>
</g>
</svg>
