<svg id="Layer_1_1_" enable-background="new 0 0 64 64" height="512" viewBox="0 0 64 64" width="512" xmlns="http://www.w3.org/2000/svg"><path d="m61.919 42.606-5.92-13.813c-.059-7.595-3.331-14.844-8.998-19.917-5.798-5.19-13.292-7.571-21.088-6.704-12.524 1.391-22.522 11.509-23.774 24.058-.653 6.544 1.063 13.071 4.833 18.377 3.289 4.63 5.028 10.299 5.028 16.393 0 .552.448 1 1 1h25c.552 0 1-.448 1-1v-4h12c.552 0 1-.448 1-1v-12h9c.336 0 .65-.169.835-.45.185-.28.217-.635.084-.944zm-10.919-.606c-.552 0-1 .448-1 1v12h-16v2h3v3h-23.015c-.182-6.132-2.033-11.836-5.383-16.551-3.49-4.913-5.079-10.958-4.474-17.021 1.16-11.616 10.414-20.981 22.005-22.269 7.226-.802 14.166 1.401 19.534 6.207 5.296 4.74 8.333 11.532 8.333 18.634 0 .135.027.27.081.394l5.402 12.606z"/><path d="m37.735 10c-2.747 0-5.329 1.099-7.269 3.095l-1.466 1.509-1.466-1.509c-1.94-1.996-4.522-3.095-7.269-3.095s-5.329 1.099-7.269 3.095c-3.986 4.101-3.986 10.774 0 14.875l15.286 15.728c.189.193.448.302.718.302s.529-.109.717-.303l15.286-15.728c3.986-4.101 3.986-10.773 0-14.874-1.94-1.996-4.521-3.095-7.268-3.095zm1.265 8c0 .551-.449 1-1 1s-1-.449-1-1 .449-1 1-1 1 .449 1 1zm4.569 8.576-2.569 2.643v-5.219c0-.552-.448-1-1-1h-10.184c-.414-1.161-1.514-2-2.816-2-1.654 0-3 1.346-3 3s1.346 3 3 3c1.302 0 2.402-.839 2.816-2h9.184v6.277l-10 10.288-7.353-7.565h4.537c.414 1.161 1.514 2 2.816 2 1.654 0 3-1.346 3-3s-1.346-3-3-3c-1.302 0-2.402.839-2.816 2h-6.481l-5.272-5.425c-.743-.764-1.307-1.641-1.709-2.575h7.278c.552 0 1-.448 1-1v-3.184c1.161-.414 2-1.514 2-2.816 0-1.654-1.346-3-3-3s-3 1.346-3 3c0 1.302.839 2.402 2 2.816v2.184h-6.87c-.445-2.648.317-5.471 2.301-7.511 1.56-1.605 3.632-2.489 5.834-2.489s4.274.884 5.834 2.489l2.184 2.247c.377.388 1.058.388 1.435 0l2.184-2.247c1.385-1.425 3.174-2.278 5.099-2.452v3.147c-1.161.414-2 1.514-2 2.816 0 1.654 1.346 3 3 3s3-1.346 3-3c0-1.302-.839-2.402-2-2.816v-3.075c1.721.272 3.313 1.087 4.569 2.38 3.238 3.332 3.238 8.754-.001 12.087zm-15.569-2.576c0 .551-.449 1-1 1s-1-.449-1-1 .449-1 1-1 1 .449 1 1zm0 9c0-.551.449-1 1-1s1 .449 1 1-.449 1-1 1-1-.449-1-1zm-9-16c0-.551.449-1 1-1s1 .449 1 1-.449 1-1 1-1-.449-1-1z"/><path d="m35 27h2v2h-2z"/><path d="m19 27h2v2h-2z"/><path d="m31 18h2v2h-2z"/><path d="m42 20h2v2h-2z"/></svg>