<?xml version="1.0" encoding="utf-8"?>
<!-- Generator: Adobe Illustrator 22.0.0, SVG Export Plug-In . SVG Version: 6.00 Build 0)  -->
<svg version="1.1" id="Capa_1" xmlns="http://www.w3.org/2000/svg" xmlns:xlink="http://www.w3.org/1999/xlink" x="0px" y="0px"
	 viewBox="0 0 598.1 598.1" style="enable-background:new 0 0 598.1 598.1;" xml:space="preserve">
<style type="text/css">
	.st0{fill:#B84343;}
	.st1{fill:#A63B3B;}
	.st2{fill:#DC5353;}
	.st3{fill:#C94A49;}
	.st4{fill:#096269;}
	.st5{fill:#FFFFFF;}
	.st6{fill:#E8E7E7;}
	.st7{fill:#E73C25;}
	.st8{fill:#671411;}
	.st9{fill:#575756;}
	.st10{fill:#878787;stroke:#C6C6C6;stroke-width:8;stroke-miterlimit:10;}
	.st11{fill:#70C1E3;stroke:#C9E7F3;stroke-width:8;stroke-miterlimit:10;}
	.st12{fill:#E8E28E;stroke:#C6C6C6;stroke-width:2;stroke-miterlimit:10;}
	.st13{fill:#312783;}
	.st14{fill:#3F3F3F;}
	.st15{fill:#D8D8D7;}
	.st16{fill:#A0D6DB;}
	.st17{fill:#511627;}
	.st18{fill:#ED6B83;}
	.st19{fill:#FEF074;}
</style>
<path class="st0" d="M82.2,343.2l-10.1-16.6c0,0-41.3,30.3-37.5,96.3c3.3,58.2,44.6,34.5,39.6-0.8C69.3,386.7,82.2,343.2,82.2,343.2
	z"/>
<path class="st1" d="M74.2,422c-5-35.3,8-78.8,8-78.8l-18.5-8.7c-10.6,20,2,66.4,2.4,79c0.4,12.5,1.4,25.5-5.4,34.5
	c-6.8,9.1-20.9-0.5-20.9-0.5C51.7,471.8,78.2,450.7,74.2,422z"/>
<path class="st1" d="M396.5,367.1c34.9,7.3,43.3,54.2-12.6,37.6c-63.4-18.8-77.8-68-77.8-68l19-3.9
	C325,332.8,361.5,359.7,396.5,367.1z"/>
<path class="st0" d="M389.8,385.7c4.1,4.8,13,8.4,16.9,9.9c10.2,4.2,14.7-6.6,8.2-13.6c-4.8-5.2-12-9.2-20.6-11.3
	C383,367.8,382.9,377.6,389.8,385.7z"/>
<path class="st0" d="M157.7,446.8c0,0-6.4,85.1-18.2,90.9c-11.8,5.8-7.6,9.4,20.8,9.4c28.5,0,34-2.9,35.4-27.6
	c1.4-24.7-7.2-64.2-7.2-64.2L157.7,446.8z"/>
<path class="st0" d="M273.6,538.2c-11.8-5.6-18.2-87-18.2-87l-30.9,8.1c0,0-8.6,37.9-7.2,61.5c1.4,23.6,6.9,26.4,35.4,26.4
	S285.4,543.7,273.6,538.2z"/>
<path class="st1" d="M189.8,513.4c-4.5,25.1-22.6,35.9-49.7,32.7c4.4,0.7,11,1,20.2,1c28.5,0,34-2.9,35.4-27.6
	c1.4-24.7-7.2-64.2-7.2-64.2l-30.9-8.5c0,0,5,5.1,15.8,10.1C184.3,461.9,194.3,488.3,189.8,513.4z"/>
<path class="st1" d="M256.2,499.2c2.1,23.4,18.1,49-13.9,47.8l0,0c3.1,0.2,6.5,0.2,10.4,0.2c28.5,0,32.7-3.5,20.8-9
	c-11.8-5.6-18.2-87-18.2-87l-30.9,8.1c0,0,8.5,2.8,15.6,2.8S254.1,475.8,256.2,499.2z"/>
<path class="st2" d="M348.2,243.5c5.2,8,12.9,12.8,12.9,12.8c-2.8-39-45.5-83.3-45.5-83.3c14.3,5.8,14.6,0.4,14.6,0.4
	c-41.7-50.2-90.1-47.1-90.1-47.1c5-0.5,8.4-7.9,8.4-7.9c-20.6-8.1-37.8,4.3-37.8,4.3s-20.4-6.4-27.8-18.6c0,0-6.5,15.5,5.6,23.3
	c0,0-25-12.2-57.4,5.5c0,0,9.3,7.8,19.5,7.8c0,0-45.4,1.1-79.7,61.9c0,0,7,2.3,14-3.1c-8.2,10.1-22.6,31.9-26.6,62.7
	c0,0,5.5-1.2,9.5-8.7c-4.9,14.8-13.6,50.8-1.7,99c0,0,3.6-0.4,4.5-21.4c0,0,9.9,79.3,47.4,113.3c0,0,4.6-9.9-0.8-24.8
	c0,0,24.5,27.3,27.2,45.6c0,0,5.4-11.1,1.6-23c0,0,20.6,17.8,63.7,17.8s67.8-20.3,67.8-20.3c-2.4,10.1,5.2,20.3,5.2,20.3
	c0.7-16.8,19.6-40.3,19.6-40.3c-7.2,7.8-0.8,24-0.8,24c13.5-13.7,22.9-40.6,27.2-54.5c-0.9,9.7,4.1,16.5,4.1,16.5
	c18.1-23.3,17.2-79.7,17.2-79.7c1.2,14,11.3,25.8,11.3,25.8C369.4,299.4,348.2,243.5,348.2,243.5z"/>
<path class="st3" d="M117.1,419.6c0,0,24.5,27.3,27.2,45.6c0,0,5.4-11.1,1.6-23c0,0,20.6,17.8,63.7,17.8s67.8-20.3,67.8-20.3
	c-2.4,10.1,5.2,20.3,5.2,20.3c0.7-16.8,19.6-40.3,19.6-40.3c-7.2,7.8-0.8,24-0.8,24c13.5-13.7,22.9-40.6,27.2-54.5
	c-0.9,9.7,4.1,16.5,4.1,16.5c18.1-23.3,17.2-79.7,17.2-79.7c1.2,14,11.3,25.8,11.3,25.8c8.3-52.3-12.9-108.1-12.9-108.1
	c5.2,8,12.9,12.8,12.9,12.8c-2.8-39-45.5-83.3-45.5-83.3c14.3,5.8,14.6,0.4,14.6,0.4c-41.7-50.2-90.1-47.1-90.1-47.1
	s70.5,14.9,103.1,99c0,0-8.9-3.2-13-9.8c0,0,33.1,79.5,8.6,153.5c0,0-6-7.5-4.8-17.8c0,0-25.6,88-113.9,97.1
	C149,455.6,117.1,419.6,117.1,419.6z"/>
<circle class="st4" cx="141.9" cy="276.1" r="47"/>
<circle class="st2" cx="142.2" cy="276.1" r="37.9"/>
<circle class="st4" cx="270.5" cy="276.1" r="47"/>
<circle class="st2" cx="270.5" cy="276.1" r="37.9"/>
<rect x="184.7" y="270.9" class="st4" width="45.2" height="10.3"/>
<g>
	<path class="st5" d="M297.4,274.4c0.9,16.7-11.8,31-28.5,31.9c-16.7,0.9-31-11.8-31.9-28.5c-0.9-16.7,11.8-31,28.5-31.9
		C282.2,245,296.5,257.7,297.4,274.4z"/>
	<path class="st6" d="M297.4,274.4c-0.1-1.7-0.3-3.3-0.7-4.9c0.1,0.4,0.1,0.9,0.1,1.4c0.9,16.7-11.8,31-28.5,31.9
		c-15,0.9-28-9.4-31.2-23.5c1.6,16,15.6,28,31.8,27C285.6,305.3,298.4,291,297.4,274.4z"/>
	<path class="st7" d="M289.2,286.3c0.4,7-5,13.1-12,13.5c-7,0.4-13.1-5-13.5-12c-0.4-7,5-13.1,12-13.5
		C282.8,273.8,288.8,279.2,289.2,286.3z"/>
	<path class="st8" d="M283.5,286.5c0.2,3.9-2.8,7.2-6.6,7.4c-3.9,0.2-7.2-2.8-7.4-6.6c-0.2-3.9,2.8-7.2,6.6-7.4
		C280,279.7,283.3,282.7,283.5,286.5z"/>
	<path class="st5" d="M285.1,281.2c0.1,2.2-1.6,4.1-3.8,4.2s-4.1-1.6-4.2-3.8c-0.1-2.2,1.6-4.1,3.8-4.2
		C283.1,277.4,285.1,279.1,285.1,281.2z"/>
</g>
<g>
	<path class="st9" d="M407.4,392.4h-84.6c-10,0-18-8.1-18-18v-37.8c0-10,8.1-18,18-18h84.6c10,0,18,8.1,18,18v37.8
		C425.5,384.3,417.4,392.4,407.4,392.4z"/>
	<circle class="st10" cx="379.8" cy="355.5" r="25"/>
	<circle class="st11" cx="379.8" cy="355.5" r="18.6"/>
	<path class="st12" d="M335.7,341.2h-8.9c-4,0-7.2-3.2-7.2-7.2l0,0c0-4,3.2-7.2,7.2-7.2h8.9c4,0,7.2,3.2,7.2,7.2l0,0
		C342.9,338,339.7,341.2,335.7,341.2z"/>
	<path class="st13" d="M344.9,318.6h-19.3l0,0c0-4.1,3.3-7.4,7.4-7.4h4.5C341.6,311.2,344.9,314.5,344.9,318.6L344.9,318.6z"/>
	<path class="st14" d="M408.4,318.6c3.2,1.7,5.5,3.7,7.3,5.7c11.7,13.6,7.1,40.5-9.4,68.1c0,0,16.2-0.3,19.1-16.1l0.1-39.7
		C425.5,336.6,425.2,320.6,408.4,318.6z"/>
	<path class="st15" d="M373.4,327c0,0-18,4.2-22,22.3L373.4,327z"/>
	<path class="st15" d="M362.4,315.5"/>
	<path class="st16" d="M379.8,341.2c0,0-16-0.8-14.2,18.3L379.8,341.2z"/>
</g>
<g>
	<path class="st17" d="M197.9,349.7c26.7,4.9,45.5,4.6,53.2-1.7c7.8-6.3,30,8.3,11.7,29.7s-52.2,18.1-72,14.3
		c-20-3.8-65.3-32.6-51.4-54.9C153.5,314.6,174.1,345.4,197.9,349.7z"/>
	<path class="st18" d="M162.2,379.2c0,0,32.9-23.9,81.7,11.6C243.9,390.7,202.2,406.8,162.2,379.2z"/>
</g>
<path class="st17" d="M163.1,277.8c-11.9-11.8-29.7-15.7-45.6-10.7c-5,1.6-2,9.1,3,7.6c8.6-2.7,17.6-2,25.6,1.4
	c-7.5,0.6-14.8,2.5-21.7,5.9c-4.7,2.3-1.7,9.9,3,7.6c10.3-5.1,21.4-6.6,32.6-4.6C164.3,285.9,165.7,280.4,163.1,277.8z"/>
<path class="st2" d="M297.5,262.6c-3.4-11.7-15.3-20.3-29.4-20.3c-14.2,0-26,8.6-29.4,20.3H297.5z"/>
<path class="st2" d="M243.9,297.7c3.2,6.3,14.4,11,27.6,11s24.4-4.7,27.6-11H243.9z"/>
<path class="st19" d="M328.6,344.2l2.1,7.7c0.1,0.2-0.2,0.3-0.3,0.2l-8.1-6.2c-0.1-0.1-0.2,0-0.3,0.1l-5.6,10.9
	c-0.1,0.2-0.4,0.1-0.4-0.1l-1.2-10c0-0.1-0.2-0.2-0.3-0.2l-2.9,1.5c-0.2,0.1-0.4-0.1-0.3-0.3l3.1-3.9c0,0,0-0.1,0-0.2l-0.2-1.6
	c0-0.1-0.1-0.1-0.1-0.2l-9.1-3c-0.2-0.1-0.2-0.3,0-0.4l6-4c0.1-0.1,0.1-0.2,0-0.3l-1.7-1.9c-0.1-0.1-0.1-0.3,0.1-0.3l3.5-1.1
	c0.1,0,0.1-0.1,0.1-0.2l0.1-7.3c0-0.2,0.2-0.3,0.3-0.2l3.2,2.1c0.1,0.1,0.3,0,0.3-0.1l2.4-8.4c0.1-0.2,0.3-0.2,0.4,0l4.7,13.3
	c0,0.1,0.2,0.2,0.3,0.1l5.5-3.6c0.2-0.1,0.4,0.1,0.3,0.2l-1.5,4c0,0.1,0,0.3,0.2,0.3l4.9,0.8c0.2,0,0.2,0.2,0.1,0.4l-5.5,5.1
	c-0.1,0.1-0.1,0.2,0,0.3l4.2,6c0.1,0.1,0,0.3-0.2,0.3l-4-0.1C328.7,344,328.6,344.1,328.6,344.2z"/>
<path class="st5" d="M316.7,330.2l-1.5-5.6c0-0.1,0.1-0.2,0.2-0.2l5.9,4.5c0.1,0.1,0.2,0,0.2-0.1l4-7.9c0.1-0.1,0.3-0.1,0.3,0.1
	l0.8,7.3c0,0.1,0.1,0.2,0.2,0.1l2.1-1.1c0.1-0.1,0.3,0.1,0.2,0.2l-2.3,2.8c0,0,0,0.1,0,0.1l0.1,1.2c0,0.1,0,0.1,0.1,0.1l6.6,2.2
	c0.1,0,0.1,0.2,0,0.3l-4.3,2.9c-0.1,0.1-0.1,0.2,0,0.2l1.2,1.4c0.1,0.1,0,0.2-0.1,0.2l-2.6,0.8c-0.1,0-0.1,0.1-0.1,0.1l0,5.3
	c0,0.1-0.1,0.2-0.2,0.1l-2.3-1.5c-0.1-0.1-0.2,0-0.2,0.1l-1.7,6.1c0,0.1-0.2,0.1-0.3,0l-3.4-9.7c0-0.1-0.1-0.1-0.2-0.1l-4,2.6
	c-0.1,0.1-0.3,0-0.2-0.2l1.1-2.9c0-0.1,0-0.2-0.1-0.2l-3.5-0.6c-0.1,0-0.2-0.2-0.1-0.3l4-3.7c0.1-0.1,0.1-0.1,0-0.2l-3.1-4.3
	c-0.1-0.1,0-0.2,0.1-0.2l2.9,0.1C316.6,330.4,316.7,330.3,316.7,330.2z"/>
</svg>
